<svg width="329" height="76" viewBox="0 0 329 76" fill="none" xmlns="http://www.w3.org/2000/svg">
<g clip-path="url(#clip0_312_11139)">
<path d="M85.1662 29.8671C83.1239 32.4691 81.2991 33.6158 77.9534 33.6158C73.3043 33.6158 69.3653 30.1317 69.3653 25.4128C69.3653 20.8262 73.1305 17.2981 77.9969 17.2981C80.908 17.2981 83.1674 18.7535 84.7751 21.0026L89.8588 15.7987C86.9042 11.5649 82.4722 10.0654 77.432 10.0654C68.4814 10.0654 61.4141 16.6807 61.4141 25.6333C61.4141 34.6301 68.5248 41.0248 77.432 41.0248C82.7763 41.0248 87.078 38.9521 90.3367 34.8066L85.1662 29.8671Z" fill="#13AB7B"/>
<path d="M94.1875 40.3689H101.684L101.926 23.1252L107.343 32.2204H111.503L116.92 23.1319L117.162 40.3689H124.668L124.184 10.9531H116.894L109.405 22.8266L101.926 10.9531H94.6712L94.1875 40.3689Z" fill="#13AB7B"/>
<path d="M129.09 30.0861H136.259H143.428V24.0156H136.259H129.09V30.0861Z" fill="#13AB7B"/>
<path d="M156.046 28.2823H157.871C160 28.2823 161.788 30.4695 162.787 32.5423L166.784 40.3689H175.56L169.999 29.3408C168.652 26.8271 167.175 25.2835 164.568 24.4456C166.654 23.5636 167.998 22.2846 169.389 19.462L173.907 10.9531H165.435L161.829 17.9185C160.785 20.1677 159.566 21.1379 157.349 21.1379H156.046V10.9531H148.355V40.3689H156.046V28.2823Z" fill="#13AB7B"/>
<path d="M183.363 18.8496C183.363 30.7245 182.088 33.9752 177.758 33.9752V40.3662C177.758 40.3662 178.626 40.3583 179.105 40.3583C185.404 40.3583 189.75 35.8367 189.75 25.112H193.182V40.37H200.525V18.8496H183.363Z" fill="#13AB7B"/>
<path d="M226.547 40.37V18.8496H220.203L212.425 29.8387V18.8496H205.43V40.37H211.34L219.551 29.3797V40.37H226.547Z" fill="#13AB7B"/>
<path d="M245.179 18.8496V26.4066H238.792V18.8496H231.449V40.37H238.792V32.477H245.179V40.37H252.523V18.8496H245.179Z" fill="#13AB7B"/>
<path d="M278.557 40.37V18.8496H272.214L264.436 29.8387V18.8496H257.441V40.37H263.35L271.563 29.3316V40.37H278.557Z" fill="#13AB7B"/>
<path d="M290.678 32.237H291.981C293.545 32.237 294.497 33.7353 295.149 34.9259L297.8 40.37H305.625L302.149 33.2072C300.802 30.7375 299.585 29.5026 297.544 28.8412C299.238 28.2678 300.411 27.4053 301.585 25.1561L304.712 18.8496H297.239L294.806 23.9213C294.068 25.4649 293.459 25.9745 291.939 25.9745H290.678V18.8496H283.465V40.37H290.678V32.237Z" fill="#13AB7B"/>
<path d="M326.821 40.3629V27.6616C326.821 21.7961 322.954 18.709 317.307 18.709C312.44 18.709 308.715 20.2047 307.192 22.0288L310.576 25.6771C311.793 24.795 313.657 24.1335 316.263 24.1335C317.74 24.1335 319.653 24.6187 319.653 26.7796V27.1765C318.654 27.0441 318.089 27 316.742 27C311.484 27 306.965 29.6021 306.965 34.7178C306.965 39.7455 310.658 41.0686 313.352 41.0686C316.133 41.0686 317.784 40.407 319.653 38.4224V40.3629H326.821ZM319.653 32.601C319.428 35.4457 317.562 36.1897 316.042 36.1897C314.435 36.1897 313.624 35.203 313.624 33.6153C313.624 32.16 315.22 31.0134 317.654 31.0134C318.61 31.0134 319.262 31.0575 319.653 31.1898V32.601Z" fill="#13AB7B"/>
<path d="M1.1875 16.4097C1.1875 9.23387 1.1875 5.64597 3.43362 3.41674C5.67974 1.1875 9.2948 1.1875 16.5249 1.1875H35.3874C42.6175 1.1875 46.2326 1.1875 48.4787 3.41674C50.7248 5.64597 50.7248 9.23387 50.7248 16.4097V35.1303C50.7248 42.306 50.7248 45.8939 48.4787 48.1232C46.2326 50.3524 42.6175 50.3524 35.3874 50.3524H16.5249C9.2948 50.3524 5.67974 50.3524 3.43362 48.1232C1.1875 45.8939 1.1875 42.306 1.1875 35.1303V16.4097Z" fill="#13AB7B"/>
<path fill-rule="evenodd" clip-rule="evenodd" d="M16.4354 3.6155e-07H35.4799C39.0178 -2.08213e-05 41.7948 -3.74732e-05 43.9625 0.289213C46.1831 0.585518 47.942 1.20474 49.3236 2.57601C50.7053 3.94726 51.3292 5.69304 51.6277 7.89692C51.9193 10.0483 51.9193 12.8044 51.9191 16.3157V35.2172C51.9193 38.7284 51.9193 41.4845 51.6277 43.6359C51.3292 45.8398 50.7053 47.5855 49.3236 48.9568C47.942 50.328 46.1831 50.9473 43.9625 51.2435C41.7948 51.5329 39.0178 51.5329 35.4799 51.5327H16.4354C12.8975 51.5329 10.1205 51.5329 7.95282 51.2435C5.73225 50.9473 3.97325 50.328 2.59161 48.9568C1.20996 47.5855 0.586046 45.8398 0.287497 43.6359C-0.00394393 41.4845 -0.00392723 38.7284 -0.00390589 35.217V16.3157C-0.00392723 12.8044 -0.00394401 10.0483 0.287497 7.89692C0.586046 5.69304 1.20996 3.94726 2.59161 2.57601C3.97325 1.20474 5.73224 0.585518 7.95282 0.289213C10.1205 -3.73923e-05 12.8975 -2.08213e-05 16.4354 3.6155e-07ZM8.27073 2.63599C6.3147 2.89698 5.14311 3.39238 4.27864 4.25035C3.41417 5.10833 2.91502 6.27113 2.65205 8.21244C2.38445 10.1878 2.38192 12.7847 2.38192 16.4061V35.1268C2.38192 38.7481 2.38445 41.3449 2.65205 43.3204C2.91502 45.2617 3.41417 46.4245 4.27864 47.2824C5.14311 48.1404 6.3147 48.6358 8.27073 48.8968C10.2611 49.1624 12.8777 49.1649 16.5264 49.1649H35.3888C39.0376 49.1649 41.6542 49.1624 43.6446 48.8968C45.6006 48.6358 46.7722 48.1404 47.6367 47.2824C48.5011 46.4245 49.0002 45.2617 49.2632 43.3204C49.5308 41.3449 49.5334 38.7481 49.5334 35.1267V16.4061C49.5334 12.7847 49.5308 10.1878 49.2632 8.21244C49.0002 6.27113 48.5011 5.10833 47.6367 4.25035C46.7722 3.39238 45.6006 2.89698 43.6446 2.63599C41.6542 2.3704 39.0376 2.36789 35.3888 2.36789H16.5264C12.8777 2.36789 10.2611 2.3704 8.27073 2.63599Z" fill="white"/>
<path fill-rule="evenodd" clip-rule="evenodd" d="M26.3153 40.4269C16.2798 40.4269 7.50739 33.8957 7.70238 26.9289C7.45342 21.8338 10.3221 16.4508 16.7778 13.5881C19.1901 12.5145 23.3021 11.6199 27.294 11.5773C28.1735 11.5513 28.7433 11.4406 29.5184 11.2899C30.0142 11.1935 30.5943 11.0808 31.3931 10.9635C32.7109 10.77 34.5129 10.5764 36.0847 11.2024C37.9252 12.1246 39.7161 13.4792 39.7161 14.1505C39.7161 14.8216 38.5101 15.995 37.7302 16.0917C36.3813 16.2591 34.6608 15.991 32.5353 15.6599C30.8946 15.4042 29.0123 15.1109 26.8734 14.9513C17.8336 14.8235 11.2011 20.8735 11.4071 26.7354C11.6132 34.2248 21.0529 37.4758 26.8734 37.4758C43.0899 37.5695 42.5707 23.2272 38.7684 22.5418C37.5257 22.3178 36.5401 24.4545 35.4537 26.8092C34.194 29.5399 32.7988 32.5639 30.7108 32.541C28.7506 32.521 27.2068 29.2822 25.9197 26.5825C25.0198 24.6947 24.2456 23.0704 23.5425 22.9944C22.2916 22.8593 21.3356 25.7903 20.4983 28.3572C19.9343 30.0862 19.4242 31.6502 18.9142 32.0007C17.7442 33.1618 14.6786 30.646 15.1119 29.6784C15.5355 28.7324 15.9292 29.0914 16.3574 29.4817C16.7175 29.81 17.1021 30.1606 17.5492 29.7751C17.716 29.6295 17.9541 28.9338 18.2812 27.9779C19.2165 25.2446 20.8801 20.3829 23.6912 20.1557C25.7142 20.0009 27.3254 23.6198 28.6066 26.4974C29.4403 28.37 30.1343 29.9285 30.7108 29.9285C31.3733 29.9157 32.0318 28.4734 32.8356 26.7132C34.1776 23.7744 35.9241 19.9496 38.7684 20.413C46.0557 21.6007 46.6267 40.4355 26.3153 40.4269ZM35.671 12.756C35.671 13.0855 35.162 13.099 34.1136 13.0524C33.3272 13.0291 32.8315 12.7959 32.9546 12.3947C33.0776 11.9934 33.7689 11.9508 34.5195 12.1258C34.8805 12.2099 35.671 12.4265 35.671 12.756Z" fill="white"/>
<path d="M11.9227 68.9088H13.1903V74.1447H10.5071V71.5162H2.5V61.4473H5.5423V68.9088H8.88036V61.4473H11.9227V68.9088Z" fill="#13AB7B"/>
<path d="M19.8034 69.4485C21.2823 69.4485 22.3598 68.8127 22.7401 68.4947L23.9866 70.4236C23.5429 70.6993 22.1696 71.8439 19.6767 71.8439C16.2119 71.8439 14.1836 69.6394 14.1836 66.5234C14.1836 63.5557 16.085 61.0967 19.2964 61.0967C22.4866 61.0967 24.1979 63.4709 24.1979 66.8625V67.3713H17.0992C17.3527 68.7491 18.2611 69.4485 19.8034 69.4485ZM17.0992 65.4211H21.3245C21.219 64.5095 20.7964 63.4709 19.3174 63.4709C18.0288 63.4709 17.3315 64.2552 17.0992 65.4211Z" fill="#13AB7B"/>
<path d="M32.6294 61.4473H35.6718V71.5162H32.6294V67.7431H28.8899V71.5162H25.8477V61.4473H28.8899V65.178H32.6294V61.4473Z" fill="#13AB7B"/>
<path d="M37.25 61.4473H46.6728V64.0546H43.4826V71.5162H40.4402V64.0546H37.25V61.4473Z" fill="#13AB7B"/>
<path d="M48.2188 75.7443V61.4358H51.1342C51.1977 61.7963 51.2187 62.1566 51.2399 62.5169C51.937 61.5207 52.9723 61.0967 54.1554 61.0967C56.9441 61.0967 58.4442 63.598 58.4442 66.3749C58.4442 70.0845 55.7188 71.8227 53.2046 71.8227C52.3385 71.8227 51.7258 71.6107 51.2399 71.4412V75.7443H48.2188ZM51.2399 66.163V68.8762C51.6413 69.1519 52.2751 69.279 52.8456 69.279C54.5357 69.279 55.4019 68.1979 55.4019 66.4174C55.4019 64.9971 54.8104 63.704 53.3737 63.704C51.9582 63.704 51.2399 64.9123 51.2399 66.163Z" fill="#13AB7B"/>
<path d="M63.8477 75.7443V61.4358H66.7631C66.8266 61.7963 66.8476 62.1566 66.8688 62.5169C67.5659 61.5207 68.6012 61.0967 69.7843 61.0967C72.573 61.0967 74.0731 63.598 74.0731 66.3749C74.0731 70.0845 71.3477 71.8227 68.8335 71.8227C67.9674 71.8227 67.3547 71.6107 66.8688 71.4412V75.7443H63.8477ZM66.8688 66.163V68.8762C67.2702 69.1519 67.904 69.279 68.4745 69.279C70.1646 69.279 71.0309 68.1979 71.0309 66.4174C71.0309 64.9971 70.4393 63.704 69.0026 63.704C67.5871 63.704 66.8688 64.9123 66.8688 66.163Z" fill="#13AB7B"/>
<path d="M80.9439 69.4485C82.4229 69.4485 83.5003 68.8127 83.8806 68.4947L85.1271 70.4236C84.6834 70.6993 83.3102 71.8439 80.8171 71.8439C77.3524 71.8439 75.3242 69.6394 75.3242 66.5234C75.3242 63.5557 77.2256 61.0967 80.4369 61.0967C83.6271 61.0967 85.3384 63.4709 85.3384 66.8625V67.3713H78.2397C78.4932 68.7491 79.4017 69.4485 80.9439 69.4485ZM78.2397 65.4211H82.4652C82.3595 64.5095 81.9369 63.4709 80.4581 63.4709C79.1693 63.4709 78.4722 64.2552 78.2397 65.4211Z" fill="#13AB7B"/>
<path d="M86.9883 61.4473H96.6434V71.5162H93.6011V64.0546H90.0307V71.5162H86.9883V61.4473Z" fill="#13AB7B"/>
<path d="M98.8008 75.7443V61.4358H101.716C101.78 61.7963 101.801 62.1566 101.822 62.5169C102.519 61.5207 103.554 61.0967 104.737 61.0967C107.526 61.0967 109.026 63.598 109.026 66.3749C109.026 70.0845 106.301 71.8227 103.787 71.8227C102.921 71.8227 102.308 71.6107 101.822 71.4412V75.7443H98.8008ZM101.822 66.163V68.8762C102.223 69.1519 102.857 69.279 103.428 69.279C105.118 69.279 105.984 68.1979 105.984 66.4174C105.984 64.9971 105.392 63.704 103.956 63.704C102.54 63.704 101.822 64.9123 101.822 66.163Z" fill="#13AB7B"/>
<path d="M115.617 69.1942C117.159 69.1942 117.983 67.8588 117.983 66.4597C117.983 65.0394 117.159 63.7464 115.617 63.7464C114.075 63.7464 113.23 65.0394 113.23 66.4597C113.23 67.8588 114.075 69.1942 115.617 69.1942ZM110.293 66.4597C110.293 63.4709 112.469 61.0967 115.617 61.0967C118.744 61.0967 120.92 63.4709 120.92 66.4597C120.92 69.4274 118.744 71.8439 115.617 71.8439C112.469 71.8439 110.293 69.4274 110.293 66.4597Z" fill="#13AB7B"/>
<path d="M124.446 61.4473H132.093V69.0997H133.361V74.1447H130.678V71.5162H124.023V74.1447H121.34V69.0997H122.502C123.854 67.2767 124.213 64.9449 124.446 61.4473ZM125.565 69.0997H129.178V63.8638H126.938C126.748 66.3016 126.326 67.8279 125.565 69.0997Z" fill="#13AB7B"/>
<path d="M133.803 75.1834L135.028 73.0849C135.366 73.3392 135.768 73.5724 136.254 73.5724C136.909 73.5724 137.289 73.2332 137.69 72.2158L137.987 71.4102L133.465 61.4473H136.93L139.402 67.849L141.641 61.4473H144.873L140.458 72.3218C139.507 74.611 138.725 76.0101 136.465 76.0101C135.387 76.0101 134.542 75.7134 133.803 75.1834Z" fill="#13AB7B"/>
<path d="M149.093 67.7431V71.5162H146.113V61.4473H149.093V65.178H150.001C150.741 65.178 151.058 64.7754 151.459 64.0334L152.831 61.4473H155.938L154.269 64.5634C153.761 65.5173 153.149 66.1108 152.409 66.344C153.318 66.6196 153.846 67.2131 154.438 68.2517L156.339 71.5162H152.938L151.396 68.7817C151.078 68.2094 150.804 67.7431 149.98 67.7431H149.093Z" fill="#13AB7B"/>
<path d="M156.902 61.4473H166.325V64.0546H163.135V71.5162H160.093V64.0546H156.902V61.4473Z" fill="#13AB7B"/>
<path d="M177.714 71.5162H174.819V65.39L170.383 71.5162H167.891V61.4473H170.784V67.3614L175.074 61.4473H177.714V71.5162Z" fill="#13AB7B"/>
<path d="M182.73 63.5246V65.4749H184.884C185.624 65.4749 185.983 65.1569 185.983 64.4997C185.983 63.7578 185.476 63.5246 184.631 63.5246H182.73ZM185.666 71.5162H179.898V61.4473H185.666C187.779 61.4473 188.856 62.5495 188.856 64.0123C188.856 65.1994 188.181 65.8988 187.419 66.2168C188.497 66.5348 189.342 67.2767 189.342 68.7393C189.342 70.6047 187.884 71.5162 185.666 71.5162ZM182.73 67.4039V69.4388H185.266C186.026 69.4388 186.406 69.0996 186.406 68.4213C186.406 67.7642 186.026 67.4039 185.266 67.4039H182.73Z" fill="#13AB7B"/>
<path d="M197.754 61.4473H200.796V71.5162H197.754V67.7431H194.015V71.5162H190.973V61.4473H194.015V65.178H197.754V61.4473Z" fill="#13AB7B"/>
<path d="M207.844 69.1942C209.387 69.1942 210.21 67.8588 210.21 66.4597C210.21 65.0394 209.387 63.7464 207.844 63.7464C206.302 63.7464 205.457 65.0394 205.457 66.4597C205.457 67.8588 206.302 69.1942 207.844 69.1942ZM202.52 66.4597C202.52 63.4709 204.696 61.0967 207.844 61.0967C210.97 61.0967 213.147 63.4709 213.147 66.4597C213.147 69.4274 210.97 71.8439 207.844 71.8439C204.696 71.8439 202.52 69.4274 202.52 66.4597Z" fill="#13AB7B"/>
<path d="M221.954 61.4473V64.0546H217.898V71.5162H214.855V61.4473H221.954Z" fill="#13AB7B"/>
<path d="M227.749 69.1942C229.292 69.1942 230.116 67.8588 230.116 66.4597C230.116 65.0394 229.292 63.7464 227.749 63.7464C226.207 63.7464 225.362 65.0394 225.362 66.4597C225.362 67.8588 226.207 69.1942 227.749 69.1942ZM222.426 66.4597C222.426 63.4709 224.601 61.0967 227.749 61.0967C230.876 61.0967 233.052 63.4709 233.052 66.4597C233.052 69.4274 230.876 71.8439 227.749 71.8439C224.601 71.8439 222.426 69.4274 222.426 66.4597Z" fill="#13AB7B"/>
<path d="M240.196 67.5196V65.3151H242.266C242.963 65.3151 243.491 65.0606 243.491 64.4035C243.491 63.704 242.921 63.4072 241.928 63.4072C240.661 63.4072 239.773 63.8948 239.118 64.4671L237.808 62.7289C238.738 61.8598 240.196 61.0967 242.224 61.0967C244.696 61.0967 246.428 62.2414 246.428 64.0857C246.428 65.1031 245.879 65.9934 244.886 66.3962C246.006 66.7353 246.681 67.6468 246.681 68.8339C246.681 70.8476 244.759 71.8439 242.288 71.8439C240.26 71.8439 238.59 71.1444 237.598 70.233L238.908 68.4311C239.563 68.9611 240.534 69.5122 241.971 69.5122C243.006 69.5122 243.703 69.2367 243.703 68.4523C243.703 67.7104 243.111 67.5196 242.33 67.5196H240.196Z" fill="#13AB7B"/>
<path d="M250.512 61.4473H258.16V69.0997H259.427V74.1447H256.744V71.5162H250.089V74.1447H247.406V69.0997H248.569C249.921 67.2767 250.279 64.9449 250.512 61.4473ZM251.632 69.0997H255.244V63.8638H253.004C252.814 66.3016 252.392 67.8279 251.632 69.0997Z" fill="#13AB7B"/>
<path d="M265.734 69.1942C267.276 69.1942 268.101 67.8588 268.101 66.4597C268.101 65.0394 267.276 63.7464 265.734 63.7464C264.192 63.7464 263.347 65.0394 263.347 66.4597C263.347 67.8588 264.192 69.1942 265.734 69.1942ZM260.41 66.4597C260.41 63.4709 262.586 61.0967 265.734 61.0967C268.861 61.0967 271.036 63.4709 271.036 66.4597C271.036 69.4274 268.861 71.8439 265.734 71.8439C262.586 71.8439 260.41 69.4274 260.41 66.4597Z" fill="#13AB7B"/>
<path d="M272.734 75.7443V61.4358H275.65C275.714 61.7963 275.735 62.1566 275.756 62.5169C276.454 61.5207 277.489 61.0967 278.672 61.0967C281.46 61.0967 282.96 63.598 282.96 66.3749C282.96 70.0845 280.235 71.8227 277.721 71.8227C276.854 71.8227 276.242 71.6107 275.756 71.4412V75.7443H272.734ZM275.756 66.163V68.8762C276.157 69.1519 276.792 69.279 277.362 69.279C279.052 69.279 279.917 68.1979 279.917 66.4174C279.917 64.9971 279.327 63.704 277.89 63.704C276.474 63.704 275.756 64.9123 275.756 66.163Z" fill="#13AB7B"/>
<path d="M289.543 69.1942C291.085 69.1942 291.909 67.8588 291.909 66.4597C291.909 65.0394 291.085 63.7464 289.543 63.7464C288.001 63.7464 287.156 65.0394 287.156 66.4597C287.156 67.8588 288.001 69.1942 289.543 69.1942ZM284.219 66.4597C284.219 63.4709 286.394 61.0967 289.543 61.0967C292.669 61.0967 294.846 63.4709 294.846 66.4597C294.846 69.4274 292.669 71.8439 289.543 71.8439C286.394 71.8439 284.219 69.4274 284.219 66.4597Z" fill="#13AB7B"/>
<path d="M299.401 63.5246V65.4749H301.556C302.296 65.4749 302.655 65.1569 302.655 64.4997C302.655 63.7578 302.148 63.5246 301.303 63.5246H299.401ZM302.338 71.5162H296.57V61.4473H302.338C304.451 61.4473 305.528 62.5495 305.528 64.0123C305.528 65.1994 304.851 65.8988 304.091 66.2168C305.169 66.5348 306.014 67.2767 306.014 68.7393C306.014 70.6047 304.556 71.5162 302.338 71.5162ZM299.401 67.4039V69.4388H301.936C302.696 69.4388 303.078 69.0996 303.078 68.4213C303.078 67.7642 302.696 67.4039 301.936 67.4039H299.401Z" fill="#13AB7B"/>
<path d="M311.949 66.662H310.576V69.2693H311.949C313.026 69.2693 313.639 68.9088 313.639 67.9762C313.639 67.0223 313.026 66.662 311.949 66.662ZM307.598 61.4473H310.576V64.4149H312.751C315.034 64.4149 316.576 65.708 316.576 67.9974C316.576 70.3927 314.781 71.5162 312.709 71.5162H307.598V61.4473Z" fill="#13AB7B"/>
<path d="M323.843 66.1532V63.6731H322.301C321.435 63.6731 320.906 64.0971 320.906 64.9237C320.906 65.8352 321.52 66.1532 322.513 66.1532H323.843ZM326.823 71.5162H323.843V68.3365H322.829C322.216 68.3365 321.921 68.5485 321.561 69.2905L320.421 71.5162H317.23L318.71 68.9513C319.195 68.1245 319.533 67.7854 320.188 67.5522C319.026 67.2131 317.928 66.238 317.928 64.6057C317.928 62.5495 319.681 61.4473 321.603 61.4473H326.823V71.5162Z" fill="#13AB7B"/>
</g>
<defs>
<clipPath id="clip0_312_11139">
<rect width="328.181" height="76" fill="white"/>
</clipPath>
</defs>
</svg>
