<svg width="48" height="48" viewBox="0 0 48 48" fill="none" xmlns="http://www.w3.org/2000/svg">
<path d="M42.1994 6H38.4981V4.5C38.4981 3.70435 38.1861 2.94129 37.6308 2.37868C37.0755 1.81607 36.3223 1.5 35.537 1.5C34.7516 1.5 33.9985 1.81607 33.4432 2.37868C32.8878 2.94129 32.5759 3.70435 32.5759 4.5V6H26.6537V4.5C26.6537 3.70435 26.3417 2.94129 25.7864 2.37868C25.2311 1.81607 24.4779 1.5 23.6926 1.5C22.9073 1.5 22.1541 1.81607 21.5988 2.37868C21.0435 2.94129 20.7315 3.70435 20.7315 4.5V6H14.8093V4.5C14.8093 3.70435 14.4973 2.94129 13.942 2.37868C13.3867 1.81607 12.6335 1.5 11.8482 1.5C11.0629 1.5 10.3097 1.81607 9.7544 2.37868C9.19908 2.94129 8.88711 3.70435 8.88711 4.5V6H5.18574C4.20408 6 3.26262 6.39509 2.56848 7.09835C1.87434 7.80161 1.48438 8.75544 1.48438 9.75V39.75C1.48438 40.7446 1.87434 41.6984 2.56848 42.4016C3.26262 43.1049 4.20408 43.5 5.18574 43.5H25.9134C26.1097 43.5 26.298 43.421 26.4369 43.2803C26.5757 43.1397 26.6537 42.9489 26.6537 42.75C26.6537 42.5511 26.5757 42.3603 26.4369 42.2197C26.298 42.079 26.1097 42 25.9134 42H5.18574C4.59729 41.9982 4.03343 41.7606 3.61733 41.339C3.20122 40.9175 2.96668 40.3462 2.96492 39.75V16.5H44.4202V29.25C44.4202 29.4489 44.4982 29.6397 44.6371 29.7803C44.7759 29.921 44.9642 30 45.1605 30C45.3569 30 45.5452 29.921 45.684 29.7803C45.8228 29.6397 45.9008 29.4489 45.9008 29.25V9.75C45.9008 8.75544 45.5108 7.80161 44.8167 7.09835C44.1226 6.39509 43.1811 6 42.1994 6ZM34.0564 4.5C34.0564 4.10218 34.2124 3.72064 34.4901 3.43934C34.7677 3.15804 35.1443 3 35.537 3C35.9296 3 36.3062 3.15804 36.5839 3.43934C36.8615 3.72064 37.0175 4.10218 37.0175 4.5V9C37.0175 9.39782 36.8615 9.77936 36.5839 10.0607C36.3062 10.342 35.9296 10.5 35.537 10.5C35.1443 10.5 34.7677 10.342 34.4901 10.0607C34.2124 9.77936 34.0564 9.39782 34.0564 9V4.5ZM22.212 4.5C22.212 4.10218 22.368 3.72064 22.6457 3.43934C22.9233 3.15804 23.2999 3 23.6926 3C24.0853 3 24.4618 3.15804 24.7395 3.43934C25.0171 3.72064 25.1731 4.10218 25.1731 4.5V9C25.1731 9.39782 25.0171 9.77936 24.7395 10.0607C24.4618 10.342 24.0853 10.5 23.6926 10.5C23.2999 10.5 22.9233 10.342 22.6457 10.0607C22.368 9.77936 22.212 9.39782 22.212 9V4.5ZM10.3677 4.5C10.3677 4.10218 10.5236 3.72064 10.8013 3.43934C11.079 3.15804 11.4555 3 11.8482 3C12.2409 3 12.6175 3.15804 12.8951 3.43934C13.1728 3.72064 13.3288 4.10218 13.3288 4.5V9C13.3288 9.39782 13.1728 9.77936 12.8951 10.0607C12.6175 10.342 12.2409 10.5 11.8482 10.5C11.4555 10.5 11.079 10.342 10.8013 10.0607C10.5236 9.77936 10.3677 9.39782 10.3677 9V4.5ZM44.4202 15H2.96492V9.75C2.96668 9.15381 3.20122 8.58255 3.61733 8.16098C4.03343 7.7394 4.59729 7.50178 5.18574 7.5H8.88711V9C8.88711 9.79565 9.19908 10.5587 9.7544 11.1213C10.3097 11.6839 11.0629 12 11.8482 12C12.6335 12 13.3867 11.6839 13.942 11.1213C14.4973 10.5587 14.8093 9.79565 14.8093 9V7.5H20.7315V9C20.7315 9.79565 21.0435 10.5587 21.5988 11.1213C22.1541 11.6839 22.9073 12 23.6926 12C24.4779 12 25.2311 11.6839 25.7864 11.1213C26.3417 10.5587 26.6537 9.79565 26.6537 9V7.5H32.5759V9C32.5759 9.79565 32.8878 10.5587 33.4432 11.1213C33.9985 11.6839 34.7516 12 35.537 12C36.3223 12 37.0755 11.6839 37.6308 11.1213C38.1861 10.5587 38.4981 9.79565 38.4981 9V7.5H42.1994C42.7879 7.50178 43.3517 7.7394 43.7678 8.16098C44.1839 8.58255 44.4185 9.15381 44.4202 9.75V15Z" fill="#C2D02D"/>
<path d="M22.2113 21.75C22.2113 21.3522 22.0553 20.9706 21.7776 20.6893C21.5 20.408 21.1234 20.25 20.7307 20.25H17.7696C17.3769 20.25 17.0004 20.408 16.7227 20.6893C16.445 20.9706 16.2891 21.3522 16.2891 21.75V24C16.2891 24.3978 16.445 24.7794 16.7227 25.0607C17.0004 25.342 17.3769 25.5 17.7696 25.5H20.7307C21.1234 25.5 21.5 25.342 21.7776 25.0607C22.0553 24.7794 22.2113 24.3978 22.2113 24V21.75ZM17.7696 24V21.75H20.7307V24H17.7696Z" fill="#C2D02D"/>
<path d="M13.3284 21.75C13.3284 21.3522 13.1725 20.9706 12.8948 20.6893C12.6171 20.408 12.2406 20.25 11.8479 20.25H8.8868C8.49413 20.25 8.11755 20.408 7.83989 20.6893C7.56224 20.9706 7.40625 21.3522 7.40625 21.75V24C7.40625 24.3978 7.56224 24.7794 7.83989 25.0607C8.11755 25.342 8.49413 25.5 8.8868 25.5H11.8479C12.2406 25.5 12.6171 25.342 12.8948 25.0607C13.1725 24.7794 13.3284 24.3978 13.3284 24V21.75ZM8.8868 24V21.75H11.8479V24H8.8868Z" fill="#C2D02D"/>
<path d="M38.4963 25.5C38.889 25.5 39.2656 25.342 39.5432 25.0607C39.8209 24.7794 39.9769 24.3978 39.9769 24V21.75C39.9769 21.3522 39.8209 20.9706 39.5432 20.6893C39.2656 20.408 38.889 20.25 38.4963 20.25H35.5352C35.1426 20.25 34.766 20.408 34.4883 20.6893C34.2107 20.9706 34.0547 21.3522 34.0547 21.75V24C34.0547 24.3978 34.2107 24.7794 34.4883 25.0607C34.766 25.342 35.1426 25.5 35.5352 25.5H38.4963ZM35.5352 21.75H38.4963V24H35.5352V21.75Z" fill="#C2D02D"/>
<path d="M22.2113 28.5C22.2113 28.1022 22.0553 27.7206 21.7776 27.4393C21.5 27.158 21.1234 27 20.7307 27H17.7696C17.3769 27 17.0004 27.158 16.7227 27.4393C16.445 27.7206 16.2891 28.1022 16.2891 28.5V30.75C16.2891 31.1478 16.445 31.5294 16.7227 31.8107C17.0004 32.092 17.3769 32.25 17.7696 32.25H20.7307C21.1234 32.25 21.5 32.092 21.7776 31.8107C22.0553 31.5294 22.2113 31.1478 22.2113 30.75V28.5ZM17.7696 30.75V28.5H20.7307V30.75H17.7696Z" fill="#C2D02D"/>
<path d="M13.3284 28.5C13.3284 28.1022 13.1725 27.7206 12.8948 27.4393C12.6171 27.158 12.2406 27 11.8479 27H8.8868C8.49413 27 8.11755 27.158 7.83989 27.4393C7.56224 27.7206 7.40625 28.1022 7.40625 28.5V30.75C7.40625 31.1478 7.56224 31.5294 7.83989 31.8107C8.11755 32.092 8.49413 32.25 8.8868 32.25H11.8479C12.2406 32.25 12.6171 32.092 12.8948 31.8107C13.1725 31.5294 13.3284 31.1478 13.3284 30.75V28.5ZM8.8868 30.75V28.5H11.8479V30.75H8.8868Z" fill="#C2D02D"/>
<path d="M20.7307 33.75H17.7696C17.3769 33.75 17.0004 33.908 16.7227 34.1893C16.445 34.4706 16.2891 34.8522 16.2891 35.25V37.5C16.2891 37.8978 16.445 38.2794 16.7227 38.5607C17.0004 38.842 17.3769 39 17.7696 39H20.7307C21.1234 39 21.5 38.842 21.7776 38.5607C22.0553 38.2794 22.2113 37.8978 22.2113 37.5V35.25C22.2113 34.8522 22.0553 34.4706 21.7776 34.1893C21.5 33.908 21.1234 33.75 20.7307 33.75ZM17.7696 37.5V35.25H20.7307V37.5H17.7696Z" fill="#C2D02D"/>
<path d="M26.6524 25.5H29.6135C30.0062 25.5 30.3828 25.342 30.6604 25.0607C30.9381 24.7794 31.0941 24.3978 31.0941 24V21.75C31.0941 21.3522 30.9381 20.9706 30.6604 20.6893C30.3828 20.408 30.0062 20.25 29.6135 20.25H26.6524C26.2598 20.25 25.8832 20.408 25.6055 20.6893C25.3279 20.9706 25.1719 21.3522 25.1719 21.75V24C25.1719 24.3978 25.3279 24.7794 25.6055 25.0607C25.8832 25.342 26.2598 25.5 26.6524 25.5ZM26.6524 21.75H29.6135V24H26.6524V21.75Z" fill="#C2D02D"/>
<path d="M25.1719 30.75C25.1719 31.1478 25.3279 31.5294 25.6055 31.8107C25.8832 32.092 26.2598 32.25 26.6524 32.25C26.8488 32.25 27.037 32.171 27.1759 32.0303C27.3147 31.8897 27.3927 31.6989 27.3927 31.5C27.3927 31.3011 27.3147 31.1103 27.1759 30.9697C27.037 30.829 26.8488 30.75 26.6524 30.75V28.5H29.6135C29.8099 28.5 29.9981 28.421 30.137 28.2803C30.2758 28.1397 30.3538 27.9489 30.3538 27.75C30.3538 27.5511 30.2758 27.3603 30.137 27.2197C29.9981 27.079 29.8099 27 29.6135 27H26.6524C26.2598 27 25.8832 27.158 25.6055 27.4393C25.3279 27.7206 25.1719 28.1022 25.1719 28.5V30.75Z" fill="#C2D02D"/>
<path d="M11.8479 33.75H8.8868C8.49413 33.75 8.11755 33.908 7.83989 34.1893C7.56224 34.4706 7.40625 34.8522 7.40625 35.25V37.5C7.40625 37.8978 7.56224 38.2794 7.83989 38.5607C8.11755 38.842 8.49413 39 8.8868 39H11.8479C12.2406 39 12.6171 38.842 12.8948 38.5607C13.1725 38.2794 13.3284 37.8978 13.3284 37.5V35.25C13.3284 34.8522 13.1725 34.4706 12.8948 34.1893C12.6171 33.908 12.2406 33.75 11.8479 33.75ZM8.8868 37.5V35.25H11.8479V37.5H8.8868Z" fill="#C2D02D"/>
<path d="M36.2798 27C34.3764 27 32.5158 27.5718 30.9332 28.6432C29.3507 29.7145 28.1172 31.2373 27.3888 33.0188C26.6604 34.8004 26.4698 36.7608 26.8412 38.6521C27.2125 40.5434 28.1291 42.2807 29.4749 43.6443C30.8208 45.0078 32.5356 45.9364 34.4023 46.3126C36.2691 46.6888 38.2041 46.4958 39.9626 45.7578C41.721 45.0199 43.224 43.7702 44.2815 42.1668C45.3389 40.5634 45.9033 38.6784 45.9033 36.75C45.9004 34.165 44.8856 31.6868 43.0814 29.859C41.2773 28.0312 38.8312 27.003 36.2798 27ZM36.2798 45C34.6693 45 33.0949 44.5161 31.7558 43.6096C30.4167 42.7031 29.373 41.4146 28.7567 39.9071C28.1403 38.3996 27.9791 36.7408 28.2933 35.1405C28.6075 33.5402 29.383 32.0701 30.5218 30.9164C31.6606 29.7626 33.1116 28.9768 34.6912 28.6585C36.2708 28.3402 37.9081 28.5036 39.396 29.128C40.8839 29.7524 42.1557 30.8098 43.0505 32.1665C43.9452 33.5232 44.4228 35.1183 44.4228 36.75C44.4203 38.9372 43.5615 41.0342 42.035 42.5808C40.5084 44.1274 38.4387 44.9974 36.2798 45Z" fill="#C2D02D"/>
<path d="M40.5511 33.606L34.7933 39.4395L32.1764 36.7875C32.0368 36.6509 31.8498 36.5753 31.6557 36.577C31.4616 36.5787 31.276 36.6576 31.1387 36.7967C31.0014 36.9357 30.9236 37.1238 30.9219 37.3205C30.9202 37.5171 30.9948 37.7066 31.1297 37.848L34.2699 41.0303C34.4087 41.1709 34.597 41.2499 34.7933 41.2499C34.9896 41.2499 35.1778 41.1709 35.3167 41.0303L41.5979 34.6665C41.7327 34.5251 41.8073 34.3356 41.8057 34.139C41.804 33.9423 41.7261 33.7542 41.5889 33.6152C41.4516 33.4761 41.2659 33.3972 41.0718 33.3955C40.8777 33.3938 40.6908 33.4694 40.5511 33.606Z" fill="#C2D02D"/>
</svg>
