<svg width="48" height="48" viewBox="0 0 48 48" fill="none" xmlns="http://www.w3.org/2000/svg">
<g clip-path="url(#clip0_312_19171)">
<path d="M40.4393 7.02938C35.965 2.49638 30.0163 0 23.6888 0C17.3613 0 11.4125 2.49638 6.93822 7.02938C2.46391 11.5624 0 17.5894 0 24C0 30.4106 2.464 36.4375 6.93822 40.9706C11.4124 45.5037 17.3613 48 23.6888 48C30.0163 48 35.965 45.5036 40.4393 40.9706C44.9136 36.4376 47.3775 30.4106 47.3775 24C47.3775 17.5894 44.9135 11.5625 40.4393 7.02938ZM39.3924 39.9099C35.1978 44.1596 29.6208 46.5 23.6888 46.5C17.7568 46.5 12.1797 44.1596 7.98515 39.9099C3.79057 35.6602 1.48055 30.0099 1.48055 24C1.48055 17.9901 3.79057 12.3398 7.98515 8.09006C12.1797 3.84037 17.7568 1.5 23.6888 1.5C29.6208 1.5 35.1978 3.84037 39.3924 8.09006C43.5869 12.3398 45.897 17.9901 45.897 24C45.897 30.0099 43.5869 35.6602 39.3924 39.9099Z" fill="#C5D334"/>
<path d="M4.44148 24C4.44148 13.2477 13.0758 4.5 23.6886 4.5C27.5166 4.5 31.214 5.63541 34.3814 7.7835C34.7211 8.01394 35.1809 7.92169 35.4083 7.57744C35.6358 7.23328 35.5447 6.76744 35.2049 6.537C31.7931 4.22306 27.8108 3 23.6886 3C18.152 3 12.9469 5.18438 9.03192 9.15075C5.11699 13.1171 2.96094 18.3907 2.96094 24C2.96094 29.175 4.83513 34.1467 8.23835 37.9995C8.38455 38.1651 8.58702 38.2493 8.79022 38.2493C8.96595 38.2493 9.14241 38.1863 9.28362 38.0582C9.58824 37.7819 9.61424 37.3078 9.34154 36.9992C6.18178 33.4219 4.44148 28.8053 4.44148 24Z" fill="#C5D334"/>
<path d="M40.9219 12.3319C40.6944 11.9877 40.2346 11.8954 39.8949 12.1259C39.5552 12.3563 39.4641 12.8221 39.6916 13.1663C41.8117 16.3752 42.9324 20.1212 42.9324 23.9994C42.9324 34.7517 34.2981 43.4994 23.6853 43.4994C19.2822 43.4994 14.9782 41.9545 11.5661 39.1493C11.2487 38.8883 10.7825 38.9374 10.5249 39.2591C10.2672 39.5807 10.3157 40.0531 10.6332 40.3141C14.3082 43.3354 18.9435 44.9994 23.6853 44.9994C29.2219 44.9994 34.427 42.815 38.3419 38.8487C42.2569 34.8823 44.4129 29.6087 44.4129 23.9994C44.4129 19.8231 43.2057 15.7885 40.9219 12.3319Z" fill="#C5D334"/>
<path d="M36.52 9.46417C37.0178 9.91539 37.4977 10.3983 37.9464 10.8993C38.0925 11.0624 38.2933 11.1453 38.4948 11.1453C38.6722 11.1453 38.8503 11.081 38.9921 10.9507C39.2948 10.6723 39.3176 10.198 39.0428 9.8912C38.5598 9.35195 38.0432 8.8322 37.5074 8.34639C37.2028 8.0702 36.7347 8.09645 36.4621 8.40508C36.1895 8.7137 36.2153 9.18789 36.52 9.46417Z" fill="#C5D334"/>
<path d="M23.6856 9.75C24.0944 9.75 24.4259 9.41419 24.4259 9V6.75C24.4259 6.33581 24.0944 6 23.6856 6C23.2768 6 22.9453 6.33581 22.9453 6.75V9C22.9453 9.41419 23.2768 9.75 23.6856 9.75Z" fill="#C5D334"/>
<path d="M22.9453 39V41.25C22.9453 41.6642 23.2768 42 23.6856 42C24.0944 42 24.4259 41.6642 24.4259 41.25V39C24.4259 38.5858 24.0944 38.25 23.6856 38.25C23.2768 38.25 22.9453 38.5858 22.9453 39Z" fill="#C5D334"/>
<path d="M9.62324 24C9.62324 23.5858 9.29179 23.25 8.88297 23.25H6.66215C6.25333 23.25 5.92188 23.5858 5.92188 24C5.92188 24.4142 6.25333 24.75 6.66215 24.75H8.88297C9.29179 24.75 9.62324 24.4142 9.62324 24Z" fill="#C5D334"/>
<path d="M37.75 24C37.75 24.4142 38.0815 24.75 38.4903 24.75H40.7111C41.1199 24.75 41.4514 24.4142 41.4514 24C41.4514 23.5858 41.1199 23.25 40.7111 23.25H38.4903C38.0815 23.25 37.75 23.5858 37.75 24Z" fill="#C5D334"/>
<path d="M16.9294 10.6342L15.819 8.68562C15.6145 8.32684 15.1618 8.20412 14.8077 8.41112C14.4537 8.61822 14.3324 9.07694 14.5368 9.43562L15.6472 11.3842C15.7843 11.6248 16.0332 11.7593 16.289 11.7593C16.4146 11.7593 16.5419 11.7269 16.6585 11.6587C17.0125 11.4516 17.1338 10.9929 16.9294 10.6342Z" fill="#C5D334"/>
<path d="M31.733 36.6152C31.5286 36.2566 31.0757 36.1338 30.7218 36.3407C30.3678 36.5478 30.2464 37.0066 30.4509 37.3652L31.5613 39.3138C31.6984 39.5544 31.9472 39.6889 32.2031 39.6889C32.3287 39.6889 32.456 39.6565 32.5726 39.5883C32.9266 39.3812 33.0479 38.9225 32.8435 38.5638L31.733 36.6152Z" fill="#C5D334"/>
<path d="M8.94414 33.3751C9.06971 33.3751 9.19704 33.3427 9.31363 33.2745L11.237 32.1495C11.591 31.9424 11.7123 31.4837 11.5079 31.125C11.3035 30.7663 10.8506 30.6436 10.4967 30.8505L8.57336 31.9755C8.21932 32.1826 8.09801 32.6413 8.30242 33C8.43946 33.2406 8.68829 33.3751 8.94414 33.3751Z" fill="#C5D334"/>
<path d="M36.5145 17.2501C36.64 17.2501 36.7674 17.2177 36.8839 17.1495L38.8073 16.0245C39.1613 15.8174 39.2826 15.3587 39.0782 15C38.8738 14.6413 38.421 14.5186 38.067 14.7255L36.1437 15.8505C35.7896 16.0576 35.6683 16.5163 35.8727 16.875C36.0099 17.1156 36.2587 17.2501 36.5145 17.2501Z" fill="#C5D334"/>
<path d="M32.5725 8.41121C32.2185 8.20402 31.7657 8.32693 31.5613 8.68571L30.4509 10.6343C30.2464 10.993 30.3678 11.4517 30.7218 11.6588C30.8384 11.7271 30.9656 11.7594 31.0913 11.7594C31.3472 11.7594 31.596 11.6249 31.7331 11.3843L32.8435 9.43571C33.0478 9.07702 32.9265 8.6183 32.5725 8.41121Z" fill="#C5D334"/>
<path d="M16.6584 36.3408C16.3044 36.1337 15.8516 36.2566 15.6472 36.6153L14.5368 38.5639C14.3324 38.9226 14.4537 39.3813 14.8077 39.5884C14.9243 39.6567 15.0516 39.689 15.1772 39.689C15.4331 39.689 15.6819 39.5545 15.819 39.3139L16.9294 37.3653C17.1338 37.0066 17.0125 36.5479 16.6584 36.3408Z" fill="#C5D334"/>
<path d="M36.1436 32.1496L38.067 33.2746C38.1836 33.3429 38.3108 33.3752 38.4365 33.3752C38.6923 33.3752 38.9411 33.2407 39.0783 33.0001C39.2827 32.6415 39.1614 32.1827 38.8073 31.9756L36.884 30.8506C36.53 30.6435 36.0772 30.7665 35.8728 31.1251C35.6683 31.4838 35.7896 31.9426 36.1436 32.1496Z" fill="#C5D334"/>
<path d="M11.237 15.8506L9.31363 14.7256C8.9596 14.5185 8.50683 14.6415 8.30242 15.0001C8.09801 15.3588 8.21932 15.8175 8.57336 16.0246L10.4967 17.1496C10.6133 17.2179 10.7405 17.2502 10.8662 17.2502C11.122 17.2502 11.3708 17.1157 11.508 16.8751C11.7123 16.5164 11.591 16.0577 11.237 15.8506Z" fill="#C5D334"/>
<path d="M28.843 33.7923C28.9686 33.7923 29.0959 33.7598 29.2125 33.6917C29.5665 33.4846 29.6878 33.0259 29.4834 32.6672L25.3768 25.4607C25.709 25.0673 25.9104 24.5572 25.9104 24C25.9104 23.0223 25.2914 22.1886 24.4299 21.879V12C24.4299 11.5858 24.0984 11.25 23.6896 11.25C23.2808 11.25 22.9493 11.5858 22.9493 12V21.879C22.0877 22.1886 21.4688 23.0223 21.4688 24C21.4688 25.2407 22.465 26.25 23.6896 26.25C23.8281 26.25 23.9636 26.2364 24.0952 26.2118L28.2013 33.4172C28.3384 33.6578 28.5872 33.7923 28.843 33.7923ZM22.9493 24C22.9493 23.5865 23.2814 23.25 23.6896 23.25C24.0977 23.25 24.4299 23.5865 24.4299 24C24.4299 24.4135 24.0977 24.75 23.6896 24.75C23.2814 24.75 22.9493 24.4135 22.9493 24Z" fill="#C5D334"/>
</g>
<defs>
<clipPath id="clip0_312_19171">
<rect width="47.3775" height="48" fill="white"/>
</clipPath>
</defs>
</svg>
