<svg width="28" height="33" viewBox="0 0 28 33" fill="none" xmlns="http://www.w3.org/2000/svg">
<path d="M27.9552 30.8316L26.5767 22.6324C26.4281 21.749 25.8113 21.0394 24.9667 20.7805L23.8805 20.4476C22.2909 19.9603 21.2906 18.3929 20.1787 17.1567C19.8 16.7356 19.3468 16.4019 18.8475 16.169C18.6287 16.0669 18.5501 15.7785 18.6979 15.5876C19.4895 14.5647 19.9519 13.4486 20.1265 12.6098C20.16 12.4487 20.2983 12.3275 20.4628 12.3275C21.2088 12.3275 21.8158 11.7109 21.8158 10.9529V10.2483C21.8158 9.34746 21.1145 8.48911 21.1145 7.58827V7.35176C21.1145 7.09571 20.9102 6.88814 20.6581 6.88814C20.4061 6.88814 20.2019 7.09565 20.2019 7.35176V8.62026C20.2019 8.98678 19.9322 9.28812 19.5952 9.4323C19.573 9.44052 19.5514 9.45005 19.5309 9.46148C19.4639 9.49253 19.384 9.44458 19.384 9.37072V5.79903C19.384 4.76686 18.5575 3.92717 17.5416 3.92717H16.282C15.8476 3.92717 15.4232 4.08095 15.0869 4.36031L14.9633 4.46295C14.7363 4.65154 14.4497 4.75542 14.1565 4.75542C13.8632 4.75542 13.5766 4.65154 13.3496 4.46295L13.226 4.36031C12.8897 4.08101 12.4653 3.92717 12.0309 3.92717H10.7712C9.75527 3.92717 8.92877 4.76686 8.92877 5.79903V9.37072C8.92877 9.44458 8.84887 9.49253 8.78185 9.46148C8.7614 9.45005 8.73986 9.44052 8.71764 9.4323C8.38068 9.28812 8.11098 8.98678 8.11098 8.62026V4.44409C8.11098 2.94292 9.31311 1.72161 10.7907 1.72161H17.522C18.9997 1.72161 20.2018 2.94292 20.2018 4.44409V5.17285C20.2018 5.4289 20.4061 5.63647 20.658 5.63647C20.91 5.63647 21.1144 5.42896 21.1144 5.17285V4.44409C21.1144 2.43169 19.5028 0.794434 17.522 0.794434H10.7907C8.80985 0.794434 7.19836 2.43169 7.19836 4.44409V7.58832C7.19836 8.48917 6.49706 9.34752 6.49706 10.2484V10.953C6.49706 11.711 7.10403 12.3276 7.85006 12.3276C8.01455 12.3276 8.15288 12.4488 8.18638 12.6098C8.36094 13.4487 8.82333 14.5647 9.61498 15.5877C9.76264 15.7785 9.68413 16.0667 9.46562 16.169C8.58107 16.5833 7.86942 17.3037 7.45328 18.1882C7.06457 19.0144 6.49202 19.8162 5.61903 20.0838L3.34602 20.7805C2.50145 21.0394 1.88456 21.749 1.73606 22.6324L1.17625 25.962C1.13383 26.2144 1.30084 26.4539 1.54921 26.497C1.79753 26.5402 2.03336 26.3705 2.07584 26.1181L2.63565 22.7885C2.72548 22.254 3.09868 21.8248 3.60961 21.6682L6.50533 20.7805C6.7754 20.6978 7.04858 20.8997 7.04858 21.1822C7.04858 21.3845 6.90274 21.5541 6.71178 21.6207C6.0729 21.8436 5.54923 22.3398 5.3133 22.9908C5.23997 23.1931 5.19438 23.4049 5.17783 23.6204L4.84546 27.9545C4.82039 28.281 4.93158 28.6061 5.15038 28.8463C5.36917 29.0866 5.67951 29.2245 6.00177 29.2245H6.5707C6.82273 29.2245 7.02704 29.017 7.02704 28.7609C7.02704 28.5048 6.82273 28.2973 6.5707 28.2973H6.00177C5.93305 28.2973 5.86696 28.268 5.82028 28.2167C5.77366 28.1655 5.74998 28.0962 5.75534 28.0267L6.0877 23.6925C6.09774 23.5619 6.12532 23.4336 6.16974 23.3111C6.36194 22.7809 6.88097 22.4219 7.4614 22.4177L7.53657 22.4172C7.5401 22.4171 7.54357 22.4171 7.54704 22.4171C8.11116 22.4171 8.61053 22.7421 8.82117 23.2473C8.88027 23.389 8.91617 23.5387 8.92798 23.6925L9.26047 28.0267C9.26576 28.0962 9.24209 28.1655 9.19547 28.2167C9.14885 28.2679 9.08269 28.2973 9.01398 28.2973H8.44505C8.19302 28.2973 7.98871 28.5048 7.98871 28.7609C7.98871 29.0169 8.19302 29.2245 8.44505 29.2245H9.01398C9.33624 29.2245 9.64663 29.0867 9.86537 28.8463C10.0842 28.606 10.1954 28.2809 10.1703 27.9546L9.83786 23.6204C9.81838 23.3667 9.75904 23.1195 9.66148 22.8856C9.44459 22.3655 9.04957 21.9598 8.56203 21.7232C8.23206 21.5631 7.96114 21.261 7.96114 20.8943C7.96114 20.5615 8.17836 20.2677 8.49653 20.1702L8.68216 20.1133C9.16826 19.9642 9.68695 20.1969 9.88192 20.6665C10.0386 21.0439 10.2447 21.5534 10.5155 22.2413C11.0802 23.6767 11.782 25.5165 12.455 27.3051C12.4598 27.3201 12.4654 27.3348 12.4716 27.3491C12.9207 28.5432 13.3564 29.7127 13.7291 30.7215C13.7959 30.9024 13.9661 31.0223 14.1563 31.0223C14.3465 31.0223 14.5168 30.9024 14.5836 30.7215C14.9562 29.7127 15.3919 28.5432 15.8411 27.3491C15.8474 27.3348 15.8528 27.3201 15.8577 27.3051C16.5302 25.5176 17.2317 23.6789 17.796 22.244C18.0674 21.5548 18.2738 21.0444 18.4307 20.6666C18.6257 20.197 19.1444 19.9643 19.6305 20.1133C20.059 20.2446 20.3515 20.6402 20.3515 21.0884V21.631C20.3515 22.4687 19.6874 23.152 19.1087 23.7577C18.6959 24.1897 18.4413 24.7786 18.4413 25.4269C18.4413 26.7496 19.5005 27.8257 20.8025 27.8257C22.1044 27.8257 23.1636 26.7496 23.1636 25.4269C23.1636 24.5964 22.746 23.8633 22.1129 23.4327C21.6669 23.1293 21.2641 22.6867 21.2641 22.1472C21.2641 21.385 22.0012 20.84 22.7299 21.0634L24.7031 21.6683C25.214 21.8248 25.5872 22.2541 25.6771 22.7885L27.0556 30.9877C27.0785 31.1237 27.0429 31.2566 26.9553 31.362C26.8678 31.4674 26.7448 31.5255 26.609 31.5255H1.70368C1.5679 31.5255 1.44496 31.4675 1.35738 31.362C1.26986 31.2566 1.23419 31.1237 1.25708 30.9877L1.71202 28.2818C1.75444 28.0294 1.58743 27.7899 1.33906 27.7468C1.09074 27.7035 0.854905 27.8734 0.812424 28.1257L0.357485 30.8316C0.289625 31.2355 0.399845 31.6468 0.659845 31.96C0.919966 32.2731 1.30041 32.4526 1.70368 32.4526H26.609C27.0123 32.4526 27.3928 32.2731 27.6528 31.9599C27.9128 31.6467 28.023 31.2355 27.9552 30.8316ZM20.2072 10.6441C20.2072 10.382 20.3858 10.1307 20.6477 10.1381C20.6691 10.1383 20.6903 10.1372 20.7112 10.1346C20.8002 10.1236 20.9031 10.1587 20.9031 10.2484V10.953C20.9031 11.1997 20.7055 11.4004 20.4627 11.4004C20.3216 11.4004 20.2072 11.2861 20.2072 11.145V10.6441ZM8.10544 11.145C8.10544 11.2861 7.99108 11.4004 7.85 11.4004C7.60717 11.4004 7.40961 11.1997 7.40961 10.953V10.2484C7.40961 10.1587 7.51247 10.1237 7.60143 10.1346C7.61639 10.1365 7.6315 10.1376 7.64671 10.138C7.65882 10.1383 7.6709 10.1382 7.68301 10.1385C7.69084 10.1388 7.70108 10.1391 7.71347 10.1398C7.94655 10.1513 8.10544 10.3622 8.10544 10.5956V11.145ZM9.01805 11.9203V11.1409C9.01805 10.9227 9.24628 10.7646 9.44719 10.6795C9.68668 10.5779 9.84139 10.3422 9.84139 10.0787V5.79903C9.84139 5.27815 10.2585 4.85435 10.7712 4.85435H12.0308C12.2552 4.85435 12.4745 4.93381 12.6483 5.07812L12.7718 5.18076C13.1614 5.5044 13.6531 5.68253 14.1563 5.68253C14.6596 5.68253 15.1513 5.50433 15.5409 5.18076L15.6644 5.07812C15.8381 4.93381 16.0575 4.85435 16.2819 4.85435H17.5414C18.0541 4.85435 18.4713 5.27815 18.4713 5.79903V10.0788C18.4713 10.3422 18.626 10.578 18.8655 10.6795C18.9455 10.7134 19.0292 10.7299 19.1122 10.7299C19.2043 10.7299 19.2946 10.7957 19.2946 10.8878V11.9203C19.2946 12.5971 18.834 13.9116 17.9804 15.0145C17.6976 15.3799 17.3341 15.7724 16.8866 16.1155C16.8725 16.1251 16.8589 16.1356 16.8459 16.1467C16.1526 16.6674 15.2612 17.0664 14.1563 17.0664C13.0515 17.0664 12.16 16.6674 11.4667 16.1466C11.4537 16.1356 11.4402 16.1251 11.4261 16.1155C10.9786 15.7724 10.6151 15.3799 10.3323 15.0145C9.47871 13.9116 9.01805 12.5971 9.01805 11.9203ZM16.6833 18.0976C16.6833 18.8774 16.6392 19.795 16.0182 20.2666L15.4397 20.7059C14.6811 21.282 13.6316 21.282 12.873 20.7059L12.2945 20.2666C11.6734 19.795 11.6294 18.8774 11.6294 18.0976C11.6294 17.761 11.9928 17.5435 12.3079 17.662C12.8555 17.868 13.4705 17.9936 14.1563 17.9936C14.8422 17.9936 15.4572 17.868 16.0048 17.662C16.3199 17.5435 16.6833 17.761 16.6833 18.0976ZM10.7129 18.1862C10.6724 18.6563 10.0908 18.7282 9.63586 18.8535C9.62466 18.8562 9.61371 18.8592 9.60305 18.8624C8.89097 19.0807 8.25415 18.4455 8.73132 17.8737C8.94147 17.6218 9.18848 17.402 9.46449 17.2234C10.0607 16.8375 10.7168 17.3874 10.7168 18.0976C10.7168 18.1271 10.7154 18.1566 10.7129 18.1862ZM11.6437 22.6144C11.6429 22.6123 11.642 22.6101 11.6412 22.608C11.6181 22.5486 11.5953 22.4899 11.5726 22.432C11.5686 22.4215 11.5645 22.4111 11.5604 22.4007C11.5383 22.344 11.5163 22.2877 11.4946 22.2324C11.4931 22.2285 11.4916 22.2246 11.4901 22.2207C11.4224 22.048 11.3573 21.8823 11.2946 21.7236C11.29 21.7121 11.2854 21.7004 11.2809 21.689C11.2629 21.6435 11.2452 21.5986 11.2276 21.5544C11.2211 21.5381 11.2147 21.522 11.2083 21.5059C11.1913 21.463 11.1744 21.4204 11.1577 21.3786C11.1527 21.3661 11.1478 21.354 11.1429 21.3416C11.1127 21.2658 11.0831 21.1919 11.0542 21.1199C11.0464 21.1004 11.0385 21.0805 11.0307 21.0613C11.0194 21.0332 11.0084 21.0059 10.9973 20.9784C10.9854 20.9487 10.9735 20.9193 10.9618 20.8903C10.9574 20.8795 10.9528 20.8681 10.9485 20.8573C10.9449 20.8487 10.9417 20.8407 10.9382 20.8321C10.8855 20.702 10.8354 20.5794 10.7879 20.4641C10.7875 20.4631 10.7871 20.4622 10.7867 20.4613C10.7614 20.3999 10.7367 20.3399 10.7129 20.2828C10.7028 20.2588 10.731 20.237 10.7518 20.2527L12.4363 21.5318C12.7988 21.8071 12.7303 22.371 12.3123 22.5514L12.1732 22.6115C12.1713 22.6123 12.1693 22.6131 12.1674 22.6139L11.9091 22.7254C11.8052 22.7703 11.6849 22.7199 11.6437 22.6144ZM12.868 24.6998C12.8299 24.9114 12.5372 24.9386 12.4606 24.7377C12.332 24.4001 12.2085 24.0775 12.0899 23.7687C12.0689 23.7141 12.0948 23.6527 12.1485 23.6295C12.1925 23.6105 12.2438 23.6225 12.2749 23.6592L12.8401 24.3267C12.8897 24.3853 12.9105 24.4629 12.897 24.5385L12.868 24.6998ZM14.195 29.1407C14.1839 29.1707 14.1403 29.1732 14.1215 29.1473C14.1195 29.1445 14.1179 29.1415 14.1167 29.1383C13.9619 28.7226 13.7759 28.2245 13.5705 27.6762C13.4335 27.3108 13.3974 26.9151 13.4665 26.531L13.7216 25.1117C13.7594 24.9013 13.9425 24.7482 14.1563 24.7482C14.3701 24.7482 14.5532 24.9013 14.5911 25.1117L14.9103 26.8876C14.9374 27.0384 14.9233 27.1936 14.8694 27.337C14.6129 28.0204 14.3814 28.6403 14.195 29.1407ZM14.8277 23.6666C14.7447 23.7646 14.6228 23.8211 14.4944 23.8211H13.8182C13.6899 23.8211 13.568 23.7646 13.485 23.6666C13.2956 23.4429 13.376 23.0997 13.6452 22.9835L13.9014 22.873C14.0641 22.8027 14.2486 22.8027 14.4113 22.873L14.6674 22.9835C14.9366 23.0997 15.0171 23.4429 14.8277 23.6666ZM15.8521 24.7377C15.7755 24.9386 15.4828 24.9114 15.4447 24.6998L15.4157 24.5385C15.4021 24.4629 15.423 24.3852 15.4726 24.3266L16.0378 23.6591C16.0688 23.6225 16.1201 23.6104 16.1642 23.6295C16.2179 23.6526 16.2437 23.7141 16.2228 23.7687C16.1041 24.0774 15.9807 24.4001 15.8521 24.7377ZM17.5999 20.2828C17.5773 20.3369 17.5538 20.3938 17.5299 20.4518C17.5268 20.4593 17.5236 20.4669 17.5205 20.4745C17.4968 20.532 17.4727 20.5908 17.4478 20.6519C17.4461 20.6559 17.4444 20.6602 17.4428 20.6643C17.4212 20.717 17.3991 20.7714 17.3767 20.8269C17.3725 20.8373 17.3685 20.8469 17.3643 20.8573C17.3593 20.8698 17.354 20.8829 17.3489 20.8955C17.339 20.9202 17.3288 20.9454 17.3186 20.9707C17.306 21.0018 17.2936 21.0327 17.2807 21.0646C17.2766 21.0747 17.2724 21.0853 17.2683 21.0955C17.2365 21.1746 17.2039 21.2561 17.1706 21.3398C17.1653 21.3529 17.1601 21.3658 17.1549 21.3791C17.1384 21.4204 17.1216 21.4627 17.1048 21.5051C17.0982 21.5218 17.0916 21.5383 17.0849 21.5552C17.0675 21.599 17.0499 21.6434 17.0322 21.6884C17.0272 21.701 17.0221 21.7138 17.0171 21.7264C16.9552 21.883 16.891 22.0463 16.8244 22.2165C16.8222 22.2221 16.82 22.2276 16.8178 22.2333C16.7963 22.2883 16.7745 22.3441 16.7524 22.4005C16.7484 22.411 16.7442 22.4215 16.7401 22.4321C16.7173 22.4903 16.6944 22.5492 16.6711 22.609C16.6707 22.6101 16.6703 22.6112 16.6698 22.6123C16.6283 22.719 16.5065 22.7699 16.4014 22.7246L16.1449 22.6139C16.1433 22.6132 16.1418 22.6125 16.1402 22.6118L15.9939 22.5487C15.5789 22.3695 15.5108 21.8096 15.8708 21.5363L17.5611 20.2528C17.5816 20.2372 17.6097 20.2589 17.5999 20.2828ZM18.7097 18.8625C18.7097 18.8625 18.7096 18.8625 18.7095 18.8625C18.7094 18.8624 18.7093 18.8624 18.7092 18.8624C18.709 18.8623 18.7088 18.8623 18.7086 18.8622C18.7083 18.8621 18.7081 18.862 18.7078 18.8619C18.6785 18.853 18.6491 18.8453 18.6194 18.8386C18.1937 18.7435 17.6674 18.677 17.6065 18.245C17.5996 18.1959 17.596 18.1466 17.596 18.0976C17.596 17.3867 18.2524 16.8345 18.8507 17.2185C19.1671 17.4215 19.4449 17.6784 19.6728 17.9765C20.0893 18.5213 19.4954 19.1033 18.8397 18.9024L18.7097 18.8625ZM22.251 25.4269C22.251 26.2384 21.6011 26.8985 20.8025 26.8985C20.0038 26.8985 19.354 26.2384 19.354 25.4269C19.354 24.6154 20.0038 23.9553 20.8025 23.9553C21.6011 23.9553 22.251 24.6154 22.251 25.4269Z" fill="black"/>
</svg>
