<svg width="48" height="48" viewBox="0 0 48 48" fill="none" xmlns="http://www.w3.org/2000/svg">
<path d="M42.1955 6H38.4942V4.5C38.4942 3.70435 38.1822 2.94129 37.6269 2.37868C37.0716 1.81607 36.3184 1.5 35.5331 1.5C34.7477 1.5 33.9946 1.81607 33.4392 2.37868C32.8839 2.94129 32.572 3.70435 32.572 4.5V6H26.6498V4.5C26.6498 3.70435 26.3378 2.94129 25.7825 2.37868C25.2272 1.81607 24.474 1.5 23.6887 1.5C22.9033 1.5 22.1502 1.81607 21.5949 2.37868C21.0396 2.94129 20.7276 3.70435 20.7276 4.5V6H14.8054V4.5C14.8054 3.70435 14.4934 2.94129 13.9381 2.37868C13.3828 1.81607 12.6296 1.5 11.8443 1.5C11.059 1.5 10.3058 1.81607 9.75049 2.37868C9.19518 2.94129 8.88321 3.70435 8.88321 4.5V6H5.18184C4.20017 6 3.25872 6.39509 2.56457 7.09835C1.87043 7.80161 1.48047 8.75544 1.48047 9.75V39.75C1.48047 40.7446 1.87043 41.6984 2.56457 42.4016C3.25872 43.1049 4.20017 43.5 5.18184 43.5H25.9095C26.1058 43.5 26.2941 43.421 26.433 43.2803C26.5718 43.1397 26.6498 42.9489 26.6498 42.75C26.6498 42.5511 26.5718 42.3603 26.433 42.2197C26.2941 42.079 26.1058 42 25.9095 42H5.18184C4.59338 41.9982 4.02953 41.7606 3.61342 41.339C3.19732 40.9175 2.96277 40.3462 2.96102 39.75V16.5H44.4163V29.25C44.4163 29.4489 44.4943 29.6397 44.6332 29.7803C44.772 29.921 44.9603 30 45.1566 30C45.353 30 45.5412 29.921 45.6801 29.7803C45.8189 29.6397 45.8969 29.4489 45.8969 29.25V9.75C45.8969 8.75544 45.5069 7.80161 44.8128 7.09835C44.1186 6.39509 43.1772 6 42.1955 6ZM34.0525 4.5C34.0525 4.10218 34.2085 3.72064 34.4862 3.43934C34.7638 3.15804 35.1404 3 35.5331 3C35.9257 3 36.3023 3.15804 36.58 3.43934C36.8576 3.72064 37.0136 4.10218 37.0136 4.5V9C37.0136 9.39782 36.8576 9.77936 36.58 10.0607C36.3023 10.342 35.9257 10.5 35.5331 10.5C35.1404 10.5 34.7638 10.342 34.4862 10.0607C34.2085 9.77936 34.0525 9.39782 34.0525 9V4.5ZM22.2081 4.5C22.2081 4.10218 22.3641 3.72064 22.6418 3.43934C22.9194 3.15804 23.296 3 23.6887 3C24.0813 3 24.4579 3.15804 24.7356 3.43934C25.0132 3.72064 25.1692 4.10218 25.1692 4.5V9C25.1692 9.39782 25.0132 9.77936 24.7356 10.0607C24.4579 10.342 24.0813 10.5 23.6887 10.5C23.296 10.5 22.9194 10.342 22.6418 10.0607C22.3641 9.77936 22.2081 9.39782 22.2081 9V4.5ZM10.3638 4.5C10.3638 4.10218 10.5197 3.72064 10.7974 3.43934C11.0751 3.15804 11.4516 3 11.8443 3C12.237 3 12.6135 3.15804 12.8912 3.43934C13.1689 3.72064 13.3248 4.10218 13.3248 4.5V9C13.3248 9.39782 13.1689 9.77936 12.8912 10.0607C12.6135 10.342 12.237 10.5 11.8443 10.5C11.4516 10.5 11.0751 10.342 10.7974 10.0607C10.5197 9.77936 10.3638 9.39782 10.3638 9V4.5ZM44.4163 15H2.96102V9.75C2.96277 9.15381 3.19732 8.58255 3.61342 8.16098C4.02953 7.7394 4.59338 7.50178 5.18184 7.5H8.88321V9C8.88321 9.79565 9.19518 10.5587 9.75049 11.1213C10.3058 11.6839 11.059 12 11.8443 12C12.6296 12 13.3828 11.6839 13.9381 11.1213C14.4934 10.5587 14.8054 9.79565 14.8054 9V7.5H20.7276V9C20.7276 9.79565 21.0396 10.5587 21.5949 11.1213C22.1502 11.6839 22.9033 12 23.6887 12C24.474 12 25.2272 11.6839 25.7825 11.1213C26.3378 10.5587 26.6498 9.79565 26.6498 9V7.5H32.572V9C32.572 9.79565 32.8839 10.5587 33.4392 11.1213C33.9946 11.6839 34.7477 12 35.5331 12C36.3184 12 37.0716 11.6839 37.6269 11.1213C38.1822 10.5587 38.4942 9.79565 38.4942 9V7.5H42.1955C42.784 7.50178 43.3478 7.7394 43.7639 8.16098C44.18 8.58255 44.4146 9.15381 44.4163 9.75V15Z" fill="black"/>
<path d="M22.2073 21.75C22.2073 21.3522 22.0514 20.9706 21.7737 20.6893C21.496 20.408 21.1195 20.25 20.7268 20.25H17.7657C17.373 20.25 16.9965 20.408 16.7188 20.6893C16.4411 20.9706 16.2852 21.3522 16.2852 21.75V24C16.2852 24.3978 16.4411 24.7794 16.7188 25.0607C16.9965 25.342 17.373 25.5 17.7657 25.5H20.7268C21.1195 25.5 21.496 25.342 21.7737 25.0607C22.0514 24.7794 22.2073 24.3978 22.2073 24V21.75ZM17.7657 24V21.75H20.7268V24H17.7657Z" fill="black"/>
<path d="M13.3245 21.75C13.3245 21.3522 13.1685 20.9706 12.8909 20.6893C12.6132 20.408 12.2367 20.25 11.844 20.25H8.88289C8.49023 20.25 8.11364 20.408 7.83599 20.6893C7.55833 20.9706 7.40234 21.3522 7.40234 21.75V24C7.40234 24.3978 7.55833 24.7794 7.83599 25.0607C8.11364 25.342 8.49023 25.5 8.88289 25.5H11.844C12.2367 25.5 12.6132 25.342 12.8909 25.0607C13.1685 24.7794 13.3245 24.3978 13.3245 24V21.75ZM8.88289 24V21.75H11.844V24H8.88289Z" fill="black"/>
<path d="M38.4944 25.5C38.887 25.5 39.2636 25.342 39.5413 25.0607C39.8189 24.7794 39.9749 24.3978 39.9749 24V21.75C39.9749 21.3522 39.8189 20.9706 39.5413 20.6893C39.2636 20.408 38.887 20.25 38.4944 20.25H35.5333C35.1406 20.25 34.764 20.408 34.4864 20.6893C34.2087 20.9706 34.0527 21.3522 34.0527 21.75V24C34.0527 24.3978 34.2087 24.7794 34.4864 25.0607C34.764 25.342 35.1406 25.5 35.5333 25.5H38.4944ZM35.5333 21.75H38.4944V24H35.5333V21.75Z" fill="black"/>
<path d="M22.2073 28.5C22.2073 28.1022 22.0514 27.7206 21.7737 27.4393C21.496 27.158 21.1195 27 20.7268 27H17.7657C17.373 27 16.9965 27.158 16.7188 27.4393C16.4411 27.7206 16.2852 28.1022 16.2852 28.5V30.75C16.2852 31.1478 16.4411 31.5294 16.7188 31.8107C16.9965 32.092 17.373 32.25 17.7657 32.25H20.7268C21.1195 32.25 21.496 32.092 21.7737 31.8107C22.0514 31.5294 22.2073 31.1478 22.2073 30.75V28.5ZM17.7657 30.75V28.5H20.7268V30.75H17.7657Z" fill="black"/>
<path d="M13.3245 28.5C13.3245 28.1022 13.1685 27.7206 12.8909 27.4393C12.6132 27.158 12.2367 27 11.844 27H8.88289C8.49023 27 8.11364 27.158 7.83599 27.4393C7.55833 27.7206 7.40234 28.1022 7.40234 28.5V30.75C7.40234 31.1478 7.55833 31.5294 7.83599 31.8107C8.11364 32.092 8.49023 32.25 8.88289 32.25H11.844C12.2367 32.25 12.6132 32.092 12.8909 31.8107C13.1685 31.5294 13.3245 31.1478 13.3245 30.75V28.5ZM8.88289 30.75V28.5H11.844V30.75H8.88289Z" fill="black"/>
<path d="M20.7268 33.75H17.7657C17.373 33.75 16.9965 33.908 16.7188 34.1893C16.4411 34.4706 16.2852 34.8522 16.2852 35.25V37.5C16.2852 37.8978 16.4411 38.2794 16.7188 38.5607C16.9965 38.842 17.373 39 17.7657 39H20.7268C21.1195 39 21.496 38.842 21.7737 38.5607C22.0514 38.2794 22.2073 37.8978 22.2073 37.5V35.25C22.2073 34.8522 22.0514 34.4706 21.7737 34.1893C21.496 33.908 21.1195 33.75 20.7268 33.75ZM17.7657 37.5V35.25H20.7268V37.5H17.7657Z" fill="black"/>
<path d="M26.6505 25.5H29.6116C30.0042 25.5 30.3808 25.342 30.6585 25.0607C30.9361 24.7794 31.0921 24.3978 31.0921 24V21.75C31.0921 21.3522 30.9361 20.9706 30.6585 20.6893C30.3808 20.408 30.0042 20.25 29.6116 20.25H26.6505C26.2578 20.25 25.8812 20.408 25.6036 20.6893C25.3259 20.9706 25.1699 21.3522 25.1699 21.75V24C25.1699 24.3978 25.3259 24.7794 25.6036 25.0607C25.8812 25.342 26.2578 25.5 26.6505 25.5ZM26.6505 21.75H29.6116V24H26.6505V21.75Z" fill="black"/>
<path d="M25.1699 30.75C25.1699 31.1478 25.3259 31.5294 25.6036 31.8107C25.8812 32.092 26.2578 32.25 26.6505 32.25C26.8468 32.25 27.0351 32.171 27.1739 32.0303C27.3128 31.8897 27.3907 31.6989 27.3907 31.5C27.3907 31.3011 27.3128 31.1103 27.1739 30.9697C27.0351 30.829 26.8468 30.75 26.6505 30.75V28.5H29.6116C29.8079 28.5 29.9962 28.421 30.135 28.2803C30.2738 28.1397 30.3518 27.9489 30.3518 27.75C30.3518 27.5511 30.2738 27.3603 30.135 27.2197C29.9962 27.079 29.8079 27 29.6116 27H26.6505C26.2578 27 25.8812 27.158 25.6036 27.4393C25.3259 27.7206 25.1699 28.1022 25.1699 28.5V30.75Z" fill="black"/>
<path d="M11.844 33.75H8.88289C8.49023 33.75 8.11364 33.908 7.83599 34.1893C7.55833 34.4706 7.40234 34.8522 7.40234 35.25V37.5C7.40234 37.8978 7.55833 38.2794 7.83599 38.5607C8.11364 38.842 8.49023 39 8.88289 39H11.844C12.2367 39 12.6132 38.842 12.8909 38.5607C13.1685 38.2794 13.3245 37.8978 13.3245 37.5V35.25C13.3245 34.8522 13.1685 34.4706 12.8909 34.1893C12.6132 33.908 12.2367 33.75 11.844 33.75ZM8.88289 37.5V35.25H11.844V37.5H8.88289Z" fill="black"/>
<path d="M36.2739 27C34.3706 27 32.51 27.5718 30.9274 28.6432C29.3448 29.7145 28.1113 31.2373 27.3829 33.0188C26.6546 34.8004 26.464 36.7608 26.8353 38.6521C27.2066 40.5434 28.1232 42.2807 29.4691 43.6443C30.8149 45.0078 32.5297 45.9364 34.3965 46.3126C36.2633 46.6888 38.1982 46.4958 39.9567 45.7578C41.7152 45.0199 43.2182 43.7702 44.2756 42.1668C45.3331 40.5634 45.8975 38.6784 45.8975 36.75C45.8945 34.165 44.8797 31.6868 43.0756 29.859C41.2714 28.0312 38.8254 27.003 36.2739 27ZM36.2739 45C34.6634 45 33.089 44.5161 31.7499 43.6096C30.4108 42.7031 29.3671 41.4146 28.7508 39.9071C28.1345 38.3996 27.9732 36.7408 28.2874 35.1405C28.6016 33.5402 29.3772 32.0701 30.516 30.9164C31.6548 29.7626 33.1057 28.9768 34.6853 28.6585C36.2649 28.3402 37.9022 28.5036 39.3901 29.128C40.8781 29.7524 42.1498 30.8098 43.0446 32.1665C43.9394 33.5232 44.4169 35.1183 44.4169 36.75C44.4144 38.9372 43.5557 41.0342 42.0291 42.5808C40.5025 44.1274 38.4328 44.9974 36.2739 45Z" fill="black"/>
<path d="M40.5511 33.6056L34.7933 39.4391L32.1764 36.7871C32.0368 36.6504 31.8498 36.5748 31.6557 36.5766C31.4616 36.5783 31.276 36.6571 31.1387 36.7962C31.0014 36.9352 30.9236 37.1234 30.9219 37.32C30.9202 37.5167 30.9948 37.7061 31.1297 37.8476L34.2699 41.0298C34.4087 41.1704 34.597 41.2494 34.7933 41.2494C34.9896 41.2494 35.1778 41.1704 35.3167 41.0298L41.5979 34.6661C41.7327 34.5246 41.8073 34.3352 41.8057 34.1385C41.804 33.9419 41.7261 33.7537 41.5889 33.6147C41.4516 33.4756 41.2659 33.3968 41.0718 33.395C40.8777 33.3933 40.6908 33.4689 40.5511 33.6056Z" fill="black"/>
</svg>
