<svg width="31" height="31" viewBox="0 0 31 31" fill="none" xmlns="http://www.w3.org/2000/svg">
<g clip-path="url(#clip0_36_15603)">
<path d="M29.0489 2.08105H1.02802C0.461199 2.08105 0 2.5488 0 3.12366V6.79332C0 7.37104 0.88116 7.37104 0.88116 6.79332V3.12366C0.88116 3.04156 0.947012 2.97471 1.02802 2.97471H29.0489C29.1299 2.97471 29.1958 3.04156 29.1958 3.12366V24.9134C29.1958 24.9955 29.1299 25.0623 29.0489 25.0623H23.4029V24.1326H27.8342C28.0776 24.1326 28.2748 23.9325 28.2748 23.6857V19.0066C28.2748 18.4289 27.3936 18.4289 27.3936 19.0066V23.2389H23.4029V21.2563C23.4172 21.2576 23.4317 21.2589 23.4453 21.2601C23.811 21.2927 24.2659 21.3333 24.5811 21.013C24.8959 20.6932 24.8561 20.2313 24.824 19.8602C24.7896 19.4619 24.8267 19.3529 25.1285 19.0985C25.9056 18.4431 25.9201 17.7414 25.1285 17.074C24.8267 16.8194 24.7897 16.7105 24.824 16.3122C24.9103 15.3126 24.45 14.8228 23.4453 14.9123C23.0531 14.9472 22.9468 14.9095 22.6967 14.6033C22.0516 13.8133 21.3592 13.7987 20.702 14.6033C20.452 14.9094 20.3457 14.9474 19.9536 14.9123C18.9673 14.8244 18.4867 15.2939 18.5747 16.3122C18.609 16.7105 18.5721 16.8194 18.2703 17.074C17.4931 17.7293 17.4787 18.4311 18.2703 19.0985C18.5721 19.3531 18.609 19.462 18.5747 19.8603C18.4822 20.9309 18.9864 21.3448 19.9958 21.2564V23.239H2.68337V4.79807H27.3936V16.6235C27.3936 17.2012 28.2748 17.2012 28.2748 16.6235V4.35125C28.2748 4.10448 28.0776 3.90442 27.8342 3.90442H2.24279C1.99941 3.90442 1.80221 4.10448 1.80221 4.35125V23.6857C1.80221 23.9325 1.99941 24.1326 2.24279 24.1326H19.9958V25.0623H1.02802C0.947012 25.0623 0.88116 24.9955 0.88116 24.9134V9.05719C0.88116 8.47947 0 8.47947 0 9.05719V24.9134C0 25.4882 0.461199 25.956 1.02802 25.956H19.9958V27.9786C20.0585 28.3459 20.2673 28.4809 20.6221 28.3838L21.6993 27.8756L22.7765 28.3838C23.043 28.5095 23.4029 28.3108 23.4029 27.9786V25.956H29.0489C29.6157 25.956 30.0769 25.4882 30.0769 24.9134V3.12366C30.0769 2.54874 29.6157 2.08105 29.0489 2.08105ZM19.8763 20.3698C19.4353 20.4092 19.4139 20.3852 19.4524 19.9381C19.5116 19.252 19.356 18.8516 18.8335 18.4111C18.476 18.1096 18.476 18.0626 18.8335 17.7611C19.356 17.3206 19.5117 16.9202 19.4524 16.2341C19.4139 15.787 19.4353 15.7633 19.8763 15.8024C20.5529 15.8629 20.9472 15.7039 21.3805 15.1732C21.6767 14.8107 21.7219 14.8107 22.0181 15.1732C22.4515 15.7039 22.8457 15.8626 23.5223 15.8024C23.9634 15.763 23.9847 15.787 23.9462 16.234C23.887 16.9202 24.0426 17.3205 24.5651 17.761C24.9226 18.0625 24.9227 18.1097 24.565 18.4111C24.0425 18.8517 23.8868 19.2519 23.9461 19.938C23.9848 20.3851 23.9633 20.4091 23.5223 20.3698C23.2456 20.3451 22.9317 20.3171 22.6553 20.4335C22.3879 20.5462 22.1998 20.7763 22.018 20.999C21.9324 21.1038 21.776 21.2953 21.6992 21.3295C21.6224 21.2953 21.4661 21.1038 21.3805 20.999C21.1987 20.7764 21.0107 20.5462 20.7432 20.4335C20.458 20.3454 20.169 20.3241 19.8763 20.3698ZM21.8851 26.9777C21.7673 26.9221 21.6314 26.9221 21.5135 26.9777L20.8769 27.2781V21.7762C21.086 22.0093 21.3439 22.2257 21.6993 22.2257C22.0547 22.2257 22.3127 22.0093 22.5217 21.7762V27.2781L21.8851 26.9777Z" fill="black"/>
<path d="M5.71243 8.53819H20.9005C21.4701 8.53819 21.4701 7.64453 20.9005 7.64453H5.71243C5.14273 7.64453 5.14273 8.53819 5.71243 8.53819Z" fill="black"/>
<path d="M24.8046 10.8091C24.8046 10.5624 24.6074 10.3623 24.364 10.3623H5.71434C5.1447 10.3623 5.1447 11.256 5.71434 11.256H24.3641C24.6074 11.256 24.8046 11.0559 24.8046 10.8091Z" fill="black"/>
<path d="M16.7508 13.5269C16.7508 13.2801 16.5536 13.0801 16.3102 13.0801H5.71434C5.1447 13.0801 5.1447 13.9737 5.71434 13.9737H16.3102C16.5535 13.9737 16.7508 13.7737 16.7508 13.5269Z" fill="black"/>
<path d="M10.9655 19.7552C10.7253 19.7557 10.4851 19.756 10.2449 19.7561C9.78273 19.7565 9.52831 19.6316 9.43391 19.1346C9.34773 18.6809 8.70249 18.7387 8.58424 19.1346C8.5319 19.3099 8.26755 19.8118 8.03663 19.7708C7.91426 19.7491 7.86081 19.5576 7.81557 19.4585C7.72751 19.2655 7.66337 19.061 7.60844 18.856C7.37652 17.9902 7.33023 17.0861 7.18513 16.2038C7.10101 15.6923 6.33211 15.8369 6.31971 16.3226C6.28024 17.8699 6.03081 19.396 5.48766 20.8463C5.28611 21.3844 6.13761 21.6172 6.33734 21.0839C6.54676 20.5247 6.71301 19.9521 6.84201 19.371C6.91121 19.5827 6.99374 19.7904 7.09449 19.9924C7.35179 20.5081 7.87655 20.8132 8.43802 20.5838C8.6384 20.502 8.82121 20.3589 8.97682 20.1847C9.39367 20.6723 10.0138 20.6502 10.5924 20.6494C11.4646 20.6483 12.3367 20.6462 13.209 20.6438C13.7759 20.6422 13.777 19.7485 13.209 19.7501C12.4612 19.7523 11.7134 19.754 10.9655 19.7552Z" fill="black"/>
<path d="M21.6994 19.8313C22.6482 19.8313 23.4203 19.0484 23.4203 18.0861C23.4203 17.1237 22.6482 16.3408 21.6994 16.3408C20.7505 16.3408 19.9785 17.1238 19.9785 18.0861C19.9785 19.0484 20.7505 19.8313 21.6994 19.8313ZM21.6994 17.2345C22.1624 17.2345 22.5391 17.6165 22.5391 18.0861C22.5391 18.5556 22.1624 18.9377 21.6994 18.9377C21.2363 18.9377 20.8597 18.5557 20.8597 18.0861C20.8597 17.6165 21.2363 17.2345 21.6994 17.2345Z" fill="black"/>
</g>
<defs>
<clipPath id="clip0_36_15603">
<rect width="30.0769" height="30.5035" fill="white"/>
</clipPath>
</defs>
</svg>
