<svg width="26" height="24" viewBox="0 0 26 24" fill="none" xmlns="http://www.w3.org/2000/svg">
<path fill-rule="evenodd" clip-rule="evenodd" d="M12.7621 0.0548921C12.6441 0.115469 12.4826 0.327723 10.8011 2.63139C10.1415 3.53498 9.74884 4.11599 9.74884 4.18815C9.74884 4.53014 9.98336 4.68285 10.5085 4.68285H10.8668V6.46687C10.8668 8.40191 10.8733 8.45114 11.1448 8.56526C11.3331 8.64441 14.669 8.64441 14.8572 8.56526C15.1288 8.45114 15.1353 8.40191 15.1353 6.46687V4.68285H15.4935C16.0187 4.68285 16.2532 4.53014 16.2532 4.18815C16.2532 4.11599 15.8605 3.53498 15.201 2.63139C13.5195 0.327723 13.3579 0.115469 13.2399 0.0548921C13.0972 -0.0182974 12.9049 -0.0182974 12.7621 0.0548921ZM13.9127 2.54952C14.7091 3.64178 14.7735 3.74512 14.6573 3.74512C14.5874 3.74512 14.4703 3.77035 14.397 3.80115C14.1255 3.91527 14.119 3.9645 14.119 5.89954V7.68357H13.001H11.8831V5.89954C11.8831 3.9645 11.8766 3.91527 11.605 3.80115C11.5317 3.77035 11.4148 3.74512 11.3452 3.74512C11.2297 3.74512 11.2949 3.64024 12.0883 2.54952C12.5667 1.89194 12.9767 1.35392 12.9995 1.35392C13.0224 1.35392 13.4333 1.89194 13.9127 2.54952ZM6.3584 5.11457C6.26947 5.15415 2.41437 10.6586 0.260611 13.8211C-0.0215667 14.2354 -0.0536312 14.3579 0.0647177 14.569C0.185861 14.7852 0.321335 14.8103 1.36671 14.8103H2.32981V19.2154C2.32981 22.5308 2.34485 23.6509 2.39053 23.7434C2.52082 24.0073 2.40009 24 6.59829 24C10.7965 24 10.6758 24.0073 10.8061 23.7434C10.9009 23.5514 10.8906 20.9903 10.7944 20.8185C10.6195 20.5065 10.0978 20.5065 9.92288 20.8185C9.86648 20.9191 9.85047 21.1816 9.85047 22.005V23.0623H6.59829H3.34612V18.6526C3.34612 13.863 3.35714 14.0501 3.06805 13.9286C2.98426 13.8933 2.66062 13.8726 2.19617 13.8726C1.73613 13.8726 1.46387 13.8552 1.47444 13.8266C1.50442 13.7452 6.57197 6.42158 6.59829 6.42158C6.62462 6.42158 11.6922 13.7452 11.7222 13.8266C11.7327 13.8552 11.4605 13.8726 11.0004 13.8726C10.536 13.8726 10.2123 13.8933 10.1285 13.9286C9.86546 14.0391 9.85047 14.1285 9.85047 15.5839C9.85047 17.0393 9.86546 17.1287 10.1285 17.2392C10.3893 17.3488 10.6734 17.2698 10.7944 17.054C10.8508 16.9534 10.8668 16.6909 10.8668 15.8676V14.8103H11.8299C12.4683 14.8103 12.8379 14.7914 12.9262 14.7542C13.0767 14.691 13.2043 14.4952 13.2043 14.3274C13.2043 14.195 13.4124 14.5035 9.80972 9.29645C7.78702 6.37305 6.91426 5.15007 6.82346 5.11186C6.66776 5.04645 6.50927 5.04734 6.3584 5.11457ZM21.3995 5.77108C21.3029 5.81407 20.0685 7.57587 17.6814 11.0776C17.2633 11.691 17.2218 11.8024 17.3302 12.0219C17.4293 12.2225 17.6147 12.2784 18.1816 12.2784H18.6923V15.0939C18.6923 18.149 18.6885 18.1053 18.9704 18.2238C19.1606 18.3038 24.1186 18.3038 24.3088 18.2238C24.5908 18.1053 24.5869 18.149 24.5869 15.0939V12.2784H25.0976C25.6645 12.2784 25.8499 12.2225 25.949 12.0219C26.0574 11.8024 26.016 11.691 25.5978 11.0776C22.9936 7.25742 21.981 5.81716 21.865 5.7684C21.709 5.70281 21.5507 5.70375 21.3995 5.77108ZM23.1221 9.20985L24.5791 11.3407H24.2756C23.9244 11.3407 23.7173 11.4232 23.6313 11.5973C23.5864 11.6882 23.5706 12.4517 23.5706 14.5312V17.3421H21.6396H19.7086V14.5312C19.7086 12.4517 19.6928 11.6882 19.6479 11.5973C19.562 11.4232 19.3549 11.3407 19.0037 11.3407H18.7002L20.1572 9.20985C20.9585 8.03788 21.6256 7.07897 21.6396 7.07897C21.6536 7.07897 22.3207 8.03788 23.1221 9.20985ZM10.1101 18.5329C9.66962 18.7581 9.85393 19.4051 10.3586 19.4051C10.6161 19.4051 10.8668 19.1761 10.8668 18.9408C10.8668 18.5888 10.4452 18.3615 10.1101 18.5329Z" fill="black"/>
</svg>
