<svg width="29" height="29" viewBox="0 0 29 29" fill="none" xmlns="http://www.w3.org/2000/svg">
<g clip-path="url(#clip0_36_15617)">
<path d="M4.8731 6.4247C5.27564 6.0164 5.54303 5.5076 5.6527 4.95416H8.95541C9.20774 5.90846 10.0874 6.59101 11.0615 6.59101C12.0353 6.59101 12.9152 5.90863 13.1675 4.95416H13.7307C13.983 5.90846 14.8627 6.59101 15.8368 6.59101C16.8106 6.59101 17.6905 5.90863 17.9428 4.95416H20.5386C22.206 4.95416 23.7022 5.8962 24.4432 7.41262C24.759 8.05905 25.7652 7.5607 25.4464 6.90835C24.5152 5.00254 22.6346 3.81857 20.5386 3.81857H17.9475C17.7017 2.85717 16.8165 2.16412 15.8368 2.16412C14.8565 2.16412 13.9724 2.85558 13.7261 3.81857H13.1723C12.9265 2.85717 12.0413 2.16412 11.0616 2.16412C10.0812 2.16412 9.19716 2.85558 8.95088 3.81857H5.65623C5.39875 2.47658 4.20088 1.48242 2.85476 1.48242C1.30021 1.48242 0 2.80079 0 4.37751C0 5.954 1.29993 7.2726 2.8546 7.2726C3.61707 7.2726 4.33391 6.97149 4.8731 6.4247ZM15.0852 3.61535C15.2924 3.40521 15.5646 3.30017 15.8367 3.30017C16.1089 3.30017 16.3811 3.40521 16.5882 3.61535C17.0026 4.03564 17.0026 4.71944 16.5882 5.13972C16.3875 5.34328 16.1206 5.45542 15.8367 5.45542C15.5529 5.45542 15.2859 5.34328 15.0852 5.13966C14.6709 4.71938 14.6709 4.03564 15.0852 3.61535ZM10.31 3.61535C10.5171 3.40521 10.7893 3.30017 11.0615 3.30017C11.3336 3.30017 11.6058 3.40521 11.813 3.61535C12.2273 4.03564 12.2273 4.71944 11.813 5.13972C11.6123 5.34328 11.3453 5.45542 11.0615 5.45542C10.7776 5.45542 10.5107 5.34328 10.31 5.13966C9.89563 4.71938 9.89563 4.03564 10.31 3.61535ZM1.11971 4.37751C1.11971 3.90754 1.30016 3.46568 1.62784 3.13335C1.95552 2.80102 2.3912 2.61796 2.8546 2.61796C3.31793 2.61796 3.75367 2.80102 4.0813 3.13335C4.40904 3.46568 4.58942 3.90749 4.58942 4.37751C4.58942 4.84753 4.40898 5.28939 4.0813 5.62167C3.75361 5.954 3.31793 6.137 2.8546 6.137C2.3912 6.137 1.95547 5.954 1.62784 5.62167C1.30016 5.28939 1.11971 4.84753 1.11971 4.37751Z" fill="black"/>
<path d="M27.4718 22.2853C26.9326 21.7385 26.2158 21.4374 25.4533 21.4374C24.1136 21.4374 22.9193 22.4223 22.6551 23.7562H17.9453C17.696 22.7972 16.8157 22.1106 15.837 22.1106C14.8598 22.1106 13.9779 22.7975 13.7286 23.7562H13.17C12.9207 22.7972 12.0404 22.1106 11.0617 22.1106C10.0845 22.1106 9.2026 22.7975 8.9533 23.7562H7.76931C5.36809 23.7562 3.41464 21.775 3.41464 19.3397C3.41464 16.9044 5.36814 14.9232 7.76931 14.9232H8.9533C9.20255 15.8818 10.0844 16.5689 11.0617 16.5689C12.0388 16.5689 12.9208 15.8819 13.17 14.9232H13.7285C13.9778 15.8818 14.8596 16.5689 15.8369 16.5689C16.814 16.5689 17.6959 15.8819 17.9453 14.9232H20.5387C22.5585 14.9232 24.4076 13.8013 25.3642 11.9952C25.7044 11.3529 24.7184 10.8146 24.3778 11.4578C23.6166 12.8949 22.1456 13.7876 20.5387 13.7876H17.9453C17.6961 12.829 16.8142 12.142 15.837 12.142C14.8598 12.142 13.9779 12.8289 13.7286 13.7876H13.17C12.9208 12.829 12.0389 12.142 11.0617 12.142C10.0845 12.142 9.2026 12.8289 8.9533 13.7876H7.76931C4.75073 13.7876 2.29492 16.2783 2.29492 19.3398C2.29492 22.4012 4.75073 24.8919 7.76931 24.8919H8.9533C9.20255 25.8504 10.0845 26.5365 11.0617 26.5365C12.0386 26.5365 12.9207 25.8504 13.17 24.8919H13.7286C13.9778 25.8504 14.8598 26.5365 15.837 26.5365C16.8139 26.5365 17.696 25.8504 17.9453 24.8919H22.6519C22.9096 26.2337 24.1074 27.2276 25.4534 27.2276C27.0078 27.2276 28.3079 25.9092 28.3079 24.3326C28.3079 23.5592 28.011 22.8321 27.4718 22.2853ZM15.0855 13.5932C15.2862 13.3897 15.5531 13.2775 15.837 13.2775C16.1208 13.2775 16.3877 13.3897 16.5885 13.5932C17.0028 14.0135 17.0028 14.6973 16.5885 15.1176C16.1741 15.5379 15.4999 15.5378 15.0855 15.1176C14.6711 14.6974 14.6711 14.0135 15.0855 13.5932ZM10.3102 13.5932C10.5109 13.3897 10.7779 13.2775 11.0617 13.2775C11.3456 13.2775 11.6125 13.3897 11.8132 13.5932C12.2276 14.0135 12.2276 14.6973 11.8132 15.1176C11.3989 15.5379 10.7246 15.5378 10.3102 15.1176C9.89587 14.6974 9.89587 14.0135 10.3102 13.5932ZM11.8132 25.0862C11.6125 25.2898 11.3456 25.4019 11.0617 25.4019C10.7779 25.4019 10.5109 25.2898 10.3102 25.0862C9.89587 24.666 9.89587 23.9821 10.3102 23.5618C10.5109 23.3582 10.7779 23.2461 11.0617 23.2461C11.3456 23.2461 11.6125 23.3582 11.8132 23.5618C12.2276 23.9821 12.2276 24.666 11.8132 25.0862ZM16.5885 25.0862C16.3877 25.2898 16.1208 25.4019 15.837 25.4019C15.5531 25.4019 15.2862 25.2898 15.0855 25.0862C14.6711 24.666 14.6711 23.9821 15.0855 23.5618C15.2862 23.3582 15.5531 23.2461 15.837 23.2461C16.1208 23.2461 16.3877 23.3582 16.5885 23.5618C17.0028 23.9821 17.0028 24.666 16.5885 25.0862ZM26.6801 25.5766C26.3524 25.909 25.9167 26.0919 25.4534 26.0919C24.99 26.0919 24.5543 25.9089 24.2266 25.5766C23.8989 25.2443 23.7185 24.8024 23.7185 24.3325C23.7185 23.8625 23.8989 23.4206 24.2266 23.0883C24.5543 22.7559 24.99 22.573 25.4534 22.573C25.9167 22.573 26.3525 22.756 26.6801 23.0883C27.0078 23.4207 27.1882 23.8625 27.1882 24.3325C27.1882 24.8024 27.0078 25.2443 26.6801 25.5766Z" fill="black"/>
<path d="M25.3306 8.86139C25.0316 8.80035 24.7325 9.00464 24.6728 9.30711C24.6127 9.61133 24.8131 9.91346 25.1122 9.97484C25.4118 10.0363 25.7097 9.83147 25.7701 9.52912C25.8307 9.22523 25.6287 8.92299 25.3306 8.86139Z" fill="black"/>
</g>
<defs>
<clipPath id="clip0_36_15617">
<rect width="28.3077" height="28.7092" fill="white"/>
</clipPath>
</defs>
</svg>
