<svg width="29" height="30" viewBox="0 0 29 30" fill="none" xmlns="http://www.w3.org/2000/svg">
<g clip-path="url(#clip0_36_15589)">
<path d="M17.4709 26.7781C17.7762 26.7781 18.0237 26.5306 18.0237 26.2252C18.0237 25.9199 17.7762 25.6724 17.4709 25.6724C17.1655 25.6724 16.918 25.9199 16.918 26.2252C16.918 26.5306 17.1655 26.7781 17.4709 26.7781Z" fill="black"/>
<path d="M15.2599 26.7781C15.5653 26.7781 15.8128 26.5306 15.8128 26.2252C15.8128 25.9199 15.5653 25.6724 15.2599 25.6724C14.9546 25.6724 14.707 25.9199 14.707 26.2252C14.707 26.5306 14.9546 26.7781 15.2599 26.7781Z" fill="black"/>
<path d="M13.047 26.7781C13.3524 26.7781 13.5999 26.5306 13.5999 26.2252C13.5999 25.9199 13.3524 25.6724 13.047 25.6724C12.7417 25.6724 12.4941 25.9199 12.4941 26.2252C12.4941 26.5306 12.7417 26.7781 13.047 26.7781Z" fill="black"/>
<path d="M11.3985 16.1914C11.528 18.2092 13.2099 19.8114 15.2598 19.8114C17.3096 19.8114 18.9915 18.2092 19.121 16.1914C19.4486 16.3835 19.8294 16.4941 20.2357 16.4941C21.4552 16.4941 22.4473 15.502 22.4473 14.2826C22.4473 13.4724 22.0039 12.7361 21.3132 12.3505C21.1156 10.4559 19.9191 8.98748 18.3957 8.77893C17.6737 8.06715 16.5215 7.64795 15.2598 7.64795C13.9975 7.64795 12.8453 8.06715 12.1236 8.77899C10.6002 8.98748 9.40383 10.4559 9.20634 12.3505C8.51562 12.7361 8.07227 13.4724 8.07227 14.2826C8.07227 15.502 9.06436 16.4941 10.2838 16.4941C10.6902 16.4941 11.0709 16.3835 11.3985 16.1914ZM18.0242 15.9412C18.0242 17.4655 16.7841 18.7056 15.2598 18.7056C13.7355 18.7056 12.4953 17.4655 12.4953 15.9412V13.1768C12.4953 12.5671 12.9914 12.071 13.6011 12.071C14.2108 12.071 14.7069 12.5671 14.7069 13.1768C14.7069 13.4821 14.9545 13.7297 15.2598 13.7297C15.5651 13.7297 15.8126 13.4821 15.8126 13.1768C15.8126 12.5671 16.3087 12.071 16.9184 12.071C17.5281 12.071 18.0242 12.5671 18.0242 13.1768V15.9412ZM9.17803 14.2826C9.17803 13.8133 9.47515 13.3937 9.91741 13.2384C10.1315 13.1633 10.2779 12.9649 10.2867 12.7382C10.3471 11.1834 11.2807 9.91975 12.4121 9.86148C12.5625 9.85374 12.7033 9.78496 12.8019 9.67101C13.2912 9.10519 14.233 8.75372 15.2598 8.75372C16.2861 8.75372 17.228 9.10524 17.7178 9.67123C17.8164 9.78507 17.9571 9.85379 18.1074 9.86148C19.2389 9.91981 20.1725 11.1834 20.2328 12.7382C20.2416 12.965 20.3881 13.1633 20.6022 13.2384C21.0444 13.3937 21.3415 13.8133 21.3415 14.2826C21.3415 14.8923 20.8454 15.3883 20.2357 15.3883C19.626 15.3883 19.13 14.8923 19.13 14.2826V13.1768C19.13 11.9574 18.1379 10.9653 16.9184 10.9653C16.2586 10.9653 15.6653 11.2557 15.2598 11.7155C14.8542 11.2557 14.2609 10.9653 13.6011 10.9653C12.3817 10.9653 11.3896 11.9574 11.3896 13.1768V14.2826C11.3896 14.8923 10.8935 15.3883 10.2838 15.3883C9.67408 15.3883 9.17803 14.8923 9.17803 14.2826Z" fill="black"/>
<path d="M16.364 15.3887C16.0587 15.3887 15.8111 15.6363 15.8111 15.9416C15.8111 16.2464 15.5631 16.4944 15.2583 16.4944C14.9534 16.4944 14.7054 16.2464 14.7054 15.9416C14.7054 15.6363 14.4578 15.3887 14.1525 15.3887C13.8472 15.3887 13.5996 15.6363 13.5996 15.9416C13.5996 16.8561 14.3437 17.6002 15.2583 17.6002C16.1728 17.6002 16.9169 16.8561 16.9169 15.9416C16.9169 15.6363 16.6693 15.3887 16.364 15.3887Z" fill="black"/>
<path d="M21.3412 23.8474V21.6359C21.3412 21.3306 21.0936 21.083 20.7883 21.083H9.73062C9.42526 21.083 9.17773 21.3306 9.17773 21.6359V23.8474C9.17773 24.1527 9.42526 24.4003 9.73062 24.4003H20.7883C21.0936 24.4003 21.3412 24.1527 21.3412 23.8474ZM20.2354 23.2945H10.2835V22.1888H20.2354V23.2945Z" fill="black"/>
<path d="M15.2599 29.1556C15.5653 29.1556 15.8128 28.908 15.8128 28.6027C15.8128 28.2973 15.5653 28.0498 15.2599 28.0498C14.9546 28.0498 14.707 28.2973 14.707 28.6027C14.707 28.908 14.9546 29.1556 15.2599 29.1556Z" fill="black"/>
<path d="M3.64844 3.61208V26.3909C3.64844 27.9152 4.88856 29.1553 6.41286 29.1553H12.771C13.0764 29.1553 13.3239 28.9078 13.3239 28.6025C13.3239 28.2972 13.0764 28.0496 12.771 28.0496H6.96575V6.3765H23.5523V28.0496H17.747C17.4417 28.0496 17.1941 28.2972 17.1941 28.6025C17.1941 28.9078 17.4417 29.1553 17.747 29.1553H24.1052C24.4105 29.1553 24.6581 28.9078 24.6581 28.6025V5.82362C24.6581 5.51831 24.4105 5.27073 24.1052 5.27073C23.1906 5.27073 22.4465 4.52666 22.4465 3.61208C22.4465 2.6975 23.1906 1.95343 24.1052 1.95343C24.4105 1.95343 24.6581 1.70584 24.6581 1.40054C24.6581 1.09524 24.4105 0.847656 24.1052 0.847656H6.41286C4.88856 0.847656 3.64844 2.08778 3.64844 3.61208ZM5.85998 27.9545C5.21647 27.7263 4.75421 27.1117 4.75421 26.3909V5.79216C5.07621 6.03156 5.45222 6.20738 5.85998 6.30037V27.9545ZM7.51863 4.16496H21.3964C21.4796 4.57332 21.6532 4.94912 21.8951 5.27073H6.53118C5.59094 5.27073 4.75421 4.58831 4.75421 3.61208C4.75421 2.6975 5.49828 1.95343 6.41286 1.95287H21.8951C21.6531 2.27504 21.4796 2.65083 21.3964 3.05919H7.51863C7.21327 3.05919 6.96575 3.30678 6.96575 3.61208C6.96575 3.91738 7.21327 4.16496 7.51863 4.16496Z" fill="black"/>
</g>
<defs>
<clipPath id="clip0_36_15589">
<rect width="28.3077" height="28.3077" fill="white" transform="translate(0 0.847656)"/>
</clipPath>
</defs>
</svg>
