<svg width="29" height="30" viewBox="0 0 29 30" fill="none" xmlns="http://www.w3.org/2000/svg">
<g clip-path="url(#clip0_36_15722)">
<path d="M28.7228 8.33219L19.5523 4.7154C19.3299 4.62773 19.081 4.74309 18.9963 4.97289C18.9116 5.20291 19.0231 5.46041 19.2454 5.54807L27.3603 8.74852L21.7427 10.9643L14.6777 7.65515C14.4608 7.55353 14.2057 7.65309 14.1077 7.87717C14.0095 8.10147 14.1057 8.36537 14.3223 8.467L20.6088 11.4116L14.5 13.8208L1.6397 8.74852L14.5 3.67627L17.6692 4.92642C17.8911 5.01386 18.1403 4.89873 18.2252 4.6687C18.31 4.43891 18.1985 4.18141 17.9761 4.09375L14.6535 2.78317C14.5546 2.74426 14.4454 2.74404 14.3465 2.78317L0.277229 8.33219C0.110405 8.3981 0 8.56381 0 8.74852V10.7833C0 10.968 0.110405 11.1337 0.277229 11.1996L4.67064 12.9323V14.4763C4.67064 14.7223 4.86335 14.9219 5.1012 14.9219C5.33926 14.9219 5.53197 14.7223 5.53197 14.4763V13.2721L14.3465 16.7486C14.396 16.7681 14.448 16.7779 14.5 16.7779C14.552 16.7779 14.604 16.7681 14.6535 16.7486L21.2978 14.1282V21.1796C19.2118 22.3123 16.8727 22.9193 14.5 22.9193C11.2617 22.9193 8.08545 21.79 5.53197 19.7349V16.2586C5.53197 16.0125 5.33926 15.813 5.1012 15.813C4.86335 15.813 4.67064 16.0125 4.67064 16.2586V19.9507C4.67064 20.086 4.72993 20.2139 4.83193 20.2984C7.56462 22.5631 10.9982 23.8103 14.5 23.8103C16.8616 23.8103 19.1919 23.2422 21.2978 22.1782V23.9815C20.6037 24.1777 20.0919 24.8353 20.0919 25.6146C20.0919 26.548 20.826 27.3076 21.7283 27.3076C22.6308 27.3076 23.3649 26.548 23.3649 25.6146C23.3649 24.8353 22.8532 24.1777 22.1591 23.9815V21.7076C22.8611 21.2945 23.5337 20.8243 24.1683 20.2984C24.2703 20.2139 24.3298 20.086 24.3298 19.9507V12.932L28.7228 11.1994C28.8896 11.1337 29 10.968 29 10.7831V8.74852C29 8.56381 28.8896 8.3981 28.7228 8.33219ZM22.5036 25.6146C22.5036 26.0566 22.1558 26.4164 21.7283 26.4164C21.3011 26.4164 20.9533 26.0566 20.9533 25.6146C20.9533 25.1724 21.3011 24.8126 21.7283 24.8126C22.1558 24.8126 22.5036 25.1724 22.5036 25.6146ZM0.861336 9.39534L14.0692 14.6047V15.6855L0.861336 10.4761V9.39534ZM14.9308 15.6855V14.6047L21.2978 12.0934V13.1744L14.9308 15.6855ZM23.4682 19.7346C23.0481 20.0729 22.6107 20.3856 22.1591 20.6726V13.7883L23.4682 13.2719V19.7346ZM22.1591 12.8345V11.7537L28.1387 9.39534V10.4761L22.1591 12.8345Z" fill="black"/>
</g>
<defs>
<clipPath id="clip0_36_15722">
<rect width="29" height="30" fill="white"/>
</clipPath>
</defs>
</svg>
