<svg width="93" height="88" viewBox="0 0 93 88" fill="none" xmlns="http://www.w3.org/2000/svg">
<circle cx="44" cy="44" r="44" fill="#D2DF3F"/>
<path d="M22.8477 21.9367C16.8407 23.4374 14.1927 27.7899 14.8079 35.1355C16.9239 33.0154 19.4348 32.2214 22.1743 32.7077C23.6043 32.9613 25.13 33.5184 26.2773 34.383C28.4889 36.05 28.5388 39.1512 26.6556 41.1341C23.8038 44.1397 17.2814 43.7157 14.837 40.3609C14.7165 40.1946 14.6791 39.9327 14.5252 39.833C9.35384 36.4242 11.0499 31.5604 12.2971 27.2204C13.6938 22.3649 17.4643 19.5963 22.4528 18.557C23.014 18.4406 23.6999 17.9667 23.9535 17.4679C27.4538 10.5962 33.5189 7.75695 40.7273 7.11261C47.3745 6.51815 53.4895 8.24333 58.3242 13.0988C59.7459 14.5288 60.357 16.8402 61.891 18.0623C63.4042 19.2721 65.7529 19.3635 67.4906 20.3778C73.0153 23.5996 75.9959 30.8246 73.5973 36.6528C72.6162 39.0348 69.9848 41.0344 67.6527 42.4644C65.4702 43.7988 62.7099 43.433 60.303 42.2067C58.5071 41.2921 57.4055 39.7997 57.4554 37.7627C57.5094 35.7341 58.6651 34.3165 60.4776 33.4186C63.5497 31.8971 67.1538 32.4126 70.4213 34.8569C71.6435 28.5839 68.5174 23.3502 62.6975 22.0781C62.4979 27.8024 59.8665 32.317 55.7551 36.1165C54.5 37.2765 54.7408 37.7877 54.0383 38.4071V38.4071C53.0879 39.2518 50.9702 38.3531 51.1827 37.0995C51.1936 37.0351 51.2124 36.9747 51.2406 36.9189C51.9265 35.5345 52.9574 34.2749 54.0383 33.1442C56.4618 30.6042 58.4074 27.8398 58.9852 24.2855C59.7293 19.721 57.6965 16.3787 54.1962 13.8097C47.5782 8.95004 37.0608 9.19115 30.5757 14.2462C26.0985 17.7381 24.9096 22.8929 27.6491 28.0601C28.6302 29.91 29.9979 31.6477 31.5152 33.1027C34.4127 35.8796 35.7513 39.1969 34.8409 43.0007C33.3942 49.045 34.1633 54.3703 37.5887 59.7246C39.1351 62.1398 38.9772 65.6692 39.4802 68.7122C40.0746 72.308 40.4779 75.9413 41.143 79.5247C41.276 80.2439 42.2072 80.8134 42.7726 81.4495C43.3296 80.7802 44.265 80.1649 44.3814 79.425C45.059 75.0725 45.6659 70.7034 46.0525 66.3219C46.4017 62.3851 47.4576 58.756 49.9519 55.6756C49.9857 55.6338 50.023 55.5948 50.0634 55.5584C51.0179 54.6968 52.5974 55.8602 52.8826 57.1139V57.1139C52.8951 57.168 52.8369 57.2428 52.7953 57.2968C48.659 62.7634 49.5112 69.4812 48.1976 75.6545C47.8276 77.4005 47.707 79.2005 47.3703 80.9548C46.9006 83.4116 45.0382 84.825 42.4899 84.771C40.058 84.7211 38.2206 83.2495 37.8589 80.8883C36.9901 75.1723 36.2293 69.4438 35.3273 63.7362C35.1277 62.4807 34.7952 61.1089 34.0843 60.0987C30.5383 55.0479 29.9438 49.5439 31.3656 43.7323C32.1804 40.4108 31.5485 37.7627 28.9794 35.3433C25.2048 31.7849 22.8352 27.4241 22.8477 21.9326V21.9367Z" fill="black"/>
<ellipse cx="64" cy="38" rx="4" ry="3" fill="#D2DF3F"/>
<ellipse cx="21" cy="38" rx="4" ry="3" fill="#D2DF3F"/>
<rect x="62.7768" y="61.6956" width="11.1988" height="19.7474" rx="2.8" transform="rotate(-45 62.7768 61.6956)" stroke="black" stroke-width="3.6"/>
<path d="M67.2669 56.9235L68.5397 55.6507L67.2669 54.3779L64.6027 51.7138C63.5288 50.6399 61.7877 50.6399 60.7139 51.7138C59.64 52.7877 59.64 54.5288 60.7139 55.6026L63.378 58.2668L64.6508 59.5396L65.9236 58.2668L67.2669 56.9235Z" stroke="black" stroke-width="3.6"/>
<rect x="78.7552" y="72.4419" width="3.79938" height="8.5486" transform="rotate(-45 78.7552 72.4419)" fill="black"/>
<path d="M51.8895 45.5762V42.8896H54.5761L61.9642 50.2777L59.2776 52.9643L51.8895 45.5762Z" fill="black"/>
<rect x="80.0985" y="80.5015" width="13.2978" height="3.79938" rx="1.89969" transform="rotate(-45 80.0985 80.5015)" fill="black"/>
<path d="M52.1581 20.8209L43 36.0845L33.8476 20.8305C40.6711 21.5301 45.4839 21.4948 52.1581 20.8209Z" stroke="black" stroke-width="3" stroke-linejoin="round"/>
<rect x="41" y="34" width="4" height="20" rx="2" fill="black"/>
</svg>
