<svg width="89" height="88" viewBox="0 0 89 88" fill="none" xmlns="http://www.w3.org/2000/svg">
<circle cx="45" cy="44" r="44" fill="#D2DF3F"/>
<mask id="path-2-outside-1_22_760" maskUnits="userSpaceOnUse" x="0" y="10" width="67" height="67" fill="black">
<rect fill="white" y="10" width="67" height="67"/>
<path d="M45.6489 59.1245C45.443 58.9312 45.2804 58.7761 45.1685 58.6744C37.9627 63.4909 30.6501 63.7884 22.9435 59.4703C22.8901 59.5517 22.791 59.7704 22.636 59.9383C18.0837 64.8031 13.5314 69.6679 8.96902 74.5226C7.14405 76.4655 4.20325 76.496 2.34778 74.6243C0.492304 72.7526 0.55839 69.8332 2.51045 67.9997C7.38297 63.4248 12.2606 58.8549 17.1356 54.2826C17.2576 54.1681 17.3822 54.0537 17.5525 53.8935C14.5507 48.9651 13.5314 43.7264 15.2268 38.1216C16.4189 34.1773 18.7268 30.9705 21.965 28.4478C28.1287 23.6466 37.0909 22.4946 45.105 28.3614C45.2651 28.2241 45.4329 28.0816 45.6311 27.9164C44.8508 27.1789 44.0807 26.4973 43.3613 25.7624C40.6493 22.9879 38.6566 19.7914 37.8864 15.9437C37.6602 14.8121 37.6221 13.6397 37.5662 12.4827C37.5204 11.5723 38.0694 10.9924 38.8421 11.0026C39.5843 11.0153 40.0876 11.5824 40.0977 12.4547C40.1282 15.1707 40.7637 17.7239 42.1464 20.0711C43.5723 22.4895 45.5396 24.4248 47.6925 26.2405C48.3559 25.7243 49.0015 25.2182 49.7081 24.6689C49.2785 24.2874 48.8718 23.934 48.4753 23.5754C46.2538 21.5715 44.2815 19.359 43.3664 16.4498C42.9547 15.1401 42.8174 13.7313 42.6598 12.3555C42.5607 11.5646 43.186 10.9924 43.9154 11.0026C44.617 11.0128 45.0872 11.5646 45.1812 12.325C45.3185 13.4287 45.5269 14.5273 45.7175 15.6233C45.776 15.9565 45.9641 16.0861 46.3352 16.0836C49.9521 16.0683 53.569 16.0683 57.1833 16.0836C57.5544 16.0836 57.74 15.9539 57.801 15.6208C57.9916 14.5654 58.2255 13.5151 58.3449 12.4496C58.4491 11.5748 58.866 11.0128 59.6158 11.0026C60.3834 10.9924 60.9146 11.5875 60.9045 12.4827C60.8612 15.7505 59.6361 18.558 57.5544 21.0324C55.4778 23.4966 52.8954 25.386 50.3943 27.3671C49.2861 28.2444 48.183 29.1319 47.0367 30.0449C47.6086 30.7086 48.1373 31.324 48.6761 31.9471C50.3588 30.6145 52.0261 29.287 53.7012 27.9698C55.8998 26.2456 58.0475 24.4705 59.842 22.3013C62.1499 19.5142 63.342 16.315 63.4411 12.7039C63.4437 12.5768 63.4411 12.4496 63.4462 12.3225C63.4792 11.5443 63.9876 11.0102 64.6967 11.0001C65.4211 10.9924 65.9803 11.5595 65.9803 12.3555C65.9803 14.9214 65.5076 17.3933 64.4426 19.7405C63.0776 22.7489 60.9477 25.1572 58.5 27.3162C58.3093 27.484 58.1238 27.6544 57.8747 27.8833C58.3043 28.2724 58.7236 28.6462 59.1354 29.0251C61.8932 31.5732 64.2036 34.452 65.2102 38.1368C67.0707 44.9623 65.6753 51.0478 60.8358 56.2839C59.931 57.263 59.0744 58.2878 58.195 59.2898C58.0933 59.2338 57.9916 59.1754 57.89 59.1194C58.1517 59.3483 58.4135 59.5746 58.6728 59.8035C61.9745 62.7254 64.4959 66.1636 65.5203 70.5198C65.8304 71.8422 65.8786 73.2333 65.9727 74.5989C66.0286 75.4076 65.4567 75.9797 64.7349 75.995C63.985 76.0103 63.4513 75.4482 63.4462 74.5836C63.4157 70.263 61.7763 66.6163 58.8024 63.5392C57.8772 62.583 56.8961 61.6828 55.9023 60.7215C55.1906 61.2734 54.5298 61.7845 53.8308 62.3287C54.2705 62.7178 54.6772 63.0713 55.0813 63.4349C57.3053 65.4388 59.265 67.6564 60.1851 70.5656C60.5817 71.8193 60.7367 73.157 60.8917 74.4717C60.9985 75.377 60.4291 75.9797 59.6666 75.9975C58.8965 76.0153 58.4517 75.4381 58.3525 74.5302C58.2382 73.4876 58.0094 72.4551 57.8213 71.4201C57.7578 71.0691 57.5748 70.9089 57.1681 70.9115C53.5741 70.9318 49.9775 70.9293 46.3835 70.9115C45.992 70.9115 45.7836 71.0386 45.7175 71.4023C45.5345 72.4373 45.3058 73.4698 45.1939 74.5124C45.0999 75.4152 44.6525 76.0026 43.8875 75.995C43.1148 75.9848 42.6064 75.3948 42.642 74.4819C42.7742 71.1658 44.0324 68.2998 46.1573 65.7822C48.1525 63.4197 50.585 61.5531 53.0022 59.6636C55.4524 57.7487 57.9103 55.8491 59.9233 53.4433C62.7243 50.0993 63.7639 46.2618 63.3674 41.9412C62.9912 37.8291 61.0824 34.5333 58.2204 31.7004C57.4706 30.9578 56.6826 30.2559 55.882 29.5083C55.1804 30.0525 54.5196 30.5687 54.0646 30.9222C55.1805 32.1429 56.3166 33.3356 57.3994 34.5791C62.0991 39.9703 62.0991 46.9942 57.4375 52.4007C55.3762 54.7912 52.8598 56.6577 50.3994 58.5879C47.967 60.4952 45.5472 62.4076 43.585 64.8285C41.3508 67.5852 40.1892 70.7309 40.1028 74.2759C40.1003 74.3827 40.1028 74.487 40.1003 74.5938C40.0774 75.4457 39.5462 76.0179 38.7964 75.9975C38.0694 75.9797 37.5636 75.4177 37.5636 74.5938C37.5585 70.8504 38.5244 67.3792 40.7764 64.3809C41.999 62.7509 43.5011 61.3318 44.8838 59.8238C45.1075 59.5797 45.3744 59.3762 45.654 59.1245H45.6489ZM49.8758 43.5077C49.8962 34.8538 43.8189 27.1763 33.4003 27.0212C24.4381 26.889 17.0187 34.4367 17.006 43.4645C16.9933 52.4821 24.3949 60.0934 33.3545 59.9612C43.9714 59.8035 49.8707 52.0243 49.8758 43.5102V43.5077ZM15.3513 59.5059C15.3183 59.5212 15.2725 59.5288 15.2446 59.5568C11.5463 63.0255 7.85065 66.4917 4.16004 69.968C3.96687 70.1511 3.79911 70.3901 3.69744 70.6368C3.32889 71.5294 3.6644 72.5517 4.46759 73.0883C5.34958 73.6757 6.34848 73.5766 7.10084 72.7806C9.46466 70.2782 11.8183 67.7657 14.1745 65.2557C15.298 64.058 16.4163 62.8551 17.522 61.6726C16.7823 60.9377 16.0834 60.2383 15.3488 59.5085L15.3513 59.5059ZM47.451 18.6495C47.4408 18.708 47.4281 18.7385 47.4358 18.7462C48.8032 20.1194 50.1681 21.4952 51.5559 22.8481C51.6347 22.9269 51.9601 22.871 52.0795 22.7692C52.8827 22.0826 53.6834 21.3935 54.4357 20.6534C55.0432 20.0558 55.582 19.3845 56.2378 18.6495H47.451ZM56.1666 68.3583C54.9644 66.6824 53.5131 65.4032 52.0084 64.18C51.9016 64.0936 51.5636 64.1394 51.439 64.2487C50.5621 65.0065 49.6903 65.7745 48.8591 66.5858C48.3279 67.1045 47.8729 67.7047 47.3036 68.3583H56.1641H56.1666ZM52.5447 44.797C52.3845 45.8473 52.2295 46.8747 52.0668 47.9428C53.7393 47.9428 55.3812 47.9453 57.0232 47.9377C57.1528 47.9377 57.3562 47.8843 57.3994 47.7953C57.8518 46.8543 58.1772 45.8753 58.2433 44.797H52.5472H52.5447ZM58.35 42.2031C58.1009 41.3436 57.8569 40.5476 57.6434 39.744C57.5036 39.2151 57.2291 39.0014 56.6547 39.0447C55.9201 39.1032 55.1754 39.0599 54.4357 39.0599H52.0643C52.232 40.1611 52.3871 41.1757 52.5447 42.2057H58.3475L58.35 42.2031ZM55.6913 50.6918C55.6481 50.6231 55.6024 50.5545 55.5592 50.4858C54.212 50.4858 52.8649 50.4782 51.5178 50.4985C51.378 50.4985 51.1772 50.6409 51.1111 50.7732C50.768 51.4445 50.4604 52.1337 50.1173 52.8635C50.5697 53.2526 51.0196 53.6646 51.5 54.0359C51.6093 54.1223 51.8914 54.1554 51.9753 54.0816C53.2259 52.9653 54.4561 51.8285 55.6913 50.6943V50.6918ZM55.6786 36.5169C55.5439 36.3338 55.4905 36.2448 55.4219 36.1761C54.7077 35.4565 54.0367 34.6859 53.2665 34.0349C51.3628 32.4277 52.2066 32.3921 50.1961 34.0908C50.1681 34.1137 50.1605 34.1646 50.1503 34.1875C50.4681 34.8639 50.7654 35.5404 51.106 36.1939C51.1823 36.3414 51.4009 36.5016 51.5559 36.5042C52.8853 36.5296 54.2171 36.5194 55.6761 36.5194L55.6786 36.5169ZM19.0521 55.9864C18.4777 56.5204 17.8753 57.0799 17.2958 57.619C17.9998 58.3209 18.6836 59.005 19.3851 59.7043C19.9265 59.1219 20.4831 58.5192 21.0245 57.9344C20.3738 57.291 19.7435 56.6679 19.0547 55.9838L19.0521 55.9864ZM49.7182 55.8847C49.3471 55.5693 49.032 55.2998 48.6939 55.0124C48.1322 55.6558 47.601 56.2661 47.0443 56.9044C47.268 57.1028 47.4663 57.2782 47.6874 57.4715C48.3635 56.9451 49.004 56.4441 49.7182 55.8872V55.8847Z"/>
</mask>
<path d="M45.6489 59.1245C45.443 58.9312 45.2804 58.7761 45.1685 58.6744C37.9627 63.4909 30.6501 63.7884 22.9435 59.4703C22.8901 59.5517 22.791 59.7704 22.636 59.9383C18.0837 64.8031 13.5314 69.6679 8.96902 74.5226C7.14405 76.4655 4.20325 76.496 2.34778 74.6243C0.492304 72.7526 0.55839 69.8332 2.51045 67.9997C7.38297 63.4248 12.2606 58.8549 17.1356 54.2826C17.2576 54.1681 17.3822 54.0537 17.5525 53.8935C14.5507 48.9651 13.5314 43.7264 15.2268 38.1216C16.4189 34.1773 18.7268 30.9705 21.965 28.4478C28.1287 23.6466 37.0909 22.4946 45.105 28.3614C45.2651 28.2241 45.4329 28.0816 45.6311 27.9164C44.8508 27.1789 44.0807 26.4973 43.3613 25.7624C40.6493 22.9879 38.6566 19.7914 37.8864 15.9437C37.6602 14.8121 37.6221 13.6397 37.5662 12.4827C37.5204 11.5723 38.0694 10.9924 38.8421 11.0026C39.5843 11.0153 40.0876 11.5824 40.0977 12.4547C40.1282 15.1707 40.7637 17.7239 42.1464 20.0711C43.5723 22.4895 45.5396 24.4248 47.6925 26.2405C48.3559 25.7243 49.0015 25.2182 49.7081 24.6689C49.2785 24.2874 48.8718 23.934 48.4753 23.5754C46.2538 21.5715 44.2815 19.359 43.3664 16.4498C42.9547 15.1401 42.8174 13.7313 42.6598 12.3555C42.5607 11.5646 43.186 10.9924 43.9154 11.0026C44.617 11.0128 45.0872 11.5646 45.1812 12.325C45.3185 13.4287 45.5269 14.5273 45.7175 15.6233C45.776 15.9565 45.9641 16.0861 46.3352 16.0836C49.9521 16.0683 53.569 16.0683 57.1833 16.0836C57.5544 16.0836 57.74 15.9539 57.801 15.6208C57.9916 14.5654 58.2255 13.5151 58.3449 12.4496C58.4491 11.5748 58.866 11.0128 59.6158 11.0026C60.3834 10.9924 60.9146 11.5875 60.9045 12.4827C60.8612 15.7505 59.6361 18.558 57.5544 21.0324C55.4778 23.4966 52.8954 25.386 50.3943 27.3671C49.2861 28.2444 48.183 29.1319 47.0367 30.0449C47.6086 30.7086 48.1373 31.324 48.6761 31.9471C50.3588 30.6145 52.0261 29.287 53.7012 27.9698C55.8998 26.2456 58.0475 24.4705 59.842 22.3013C62.1499 19.5142 63.342 16.315 63.4411 12.7039C63.4437 12.5768 63.4411 12.4496 63.4462 12.3225C63.4792 11.5443 63.9876 11.0102 64.6967 11.0001C65.4211 10.9924 65.9803 11.5595 65.9803 12.3555C65.9803 14.9214 65.5076 17.3933 64.4426 19.7405C63.0776 22.7489 60.9477 25.1572 58.5 27.3162C58.3093 27.484 58.1238 27.6544 57.8747 27.8833C58.3043 28.2724 58.7236 28.6462 59.1354 29.0251C61.8932 31.5732 64.2036 34.452 65.2102 38.1368C67.0707 44.9623 65.6753 51.0478 60.8358 56.2839C59.931 57.263 59.0744 58.2878 58.195 59.2898C58.0933 59.2338 57.9916 59.1754 57.89 59.1194C58.1517 59.3483 58.4135 59.5746 58.6728 59.8035C61.9745 62.7254 64.4959 66.1636 65.5203 70.5198C65.8304 71.8422 65.8786 73.2333 65.9727 74.5989C66.0286 75.4076 65.4567 75.9797 64.7349 75.995C63.985 76.0103 63.4513 75.4482 63.4462 74.5836C63.4157 70.263 61.7763 66.6163 58.8024 63.5392C57.8772 62.583 56.8961 61.6828 55.9023 60.7215C55.1906 61.2734 54.5298 61.7845 53.8308 62.3287C54.2705 62.7178 54.6772 63.0713 55.0813 63.4349C57.3053 65.4388 59.265 67.6564 60.1851 70.5656C60.5817 71.8193 60.7367 73.157 60.8917 74.4717C60.9985 75.377 60.4291 75.9797 59.6666 75.9975C58.8965 76.0153 58.4517 75.4381 58.3525 74.5302C58.2382 73.4876 58.0094 72.4551 57.8213 71.4201C57.7578 71.0691 57.5748 70.9089 57.1681 70.9115C53.5741 70.9318 49.9775 70.9293 46.3835 70.9115C45.992 70.9115 45.7836 71.0386 45.7175 71.4023C45.5345 72.4373 45.3058 73.4698 45.1939 74.5124C45.0999 75.4152 44.6525 76.0026 43.8875 75.995C43.1148 75.9848 42.6064 75.3948 42.642 74.4819C42.7742 71.1658 44.0324 68.2998 46.1573 65.7822C48.1525 63.4197 50.585 61.5531 53.0022 59.6636C55.4524 57.7487 57.9103 55.8491 59.9233 53.4433C62.7243 50.0993 63.7639 46.2618 63.3674 41.9412C62.9912 37.8291 61.0824 34.5333 58.2204 31.7004C57.4706 30.9578 56.6826 30.2559 55.882 29.5083C55.1804 30.0525 54.5196 30.5687 54.0646 30.9222C55.1805 32.1429 56.3166 33.3356 57.3994 34.5791C62.0991 39.9703 62.0991 46.9942 57.4375 52.4007C55.3762 54.7912 52.8598 56.6577 50.3994 58.5879C47.967 60.4952 45.5472 62.4076 43.585 64.8285C41.3508 67.5852 40.1892 70.7309 40.1028 74.2759C40.1003 74.3827 40.1028 74.487 40.1003 74.5938C40.0774 75.4457 39.5462 76.0179 38.7964 75.9975C38.0694 75.9797 37.5636 75.4177 37.5636 74.5938C37.5585 70.8504 38.5244 67.3792 40.7764 64.3809C41.999 62.7509 43.5011 61.3318 44.8838 59.8238C45.1075 59.5797 45.3744 59.3762 45.654 59.1245H45.6489ZM49.8758 43.5077C49.8962 34.8538 43.8189 27.1763 33.4003 27.0212C24.4381 26.889 17.0187 34.4367 17.006 43.4645C16.9933 52.4821 24.3949 60.0934 33.3545 59.9612C43.9714 59.8035 49.8707 52.0243 49.8758 43.5102V43.5077ZM15.3513 59.5059C15.3183 59.5212 15.2725 59.5288 15.2446 59.5568C11.5463 63.0255 7.85065 66.4917 4.16004 69.968C3.96687 70.1511 3.79911 70.3901 3.69744 70.6368C3.32889 71.5294 3.6644 72.5517 4.46759 73.0883C5.34958 73.6757 6.34848 73.5766 7.10084 72.7806C9.46466 70.2782 11.8183 67.7657 14.1745 65.2557C15.298 64.058 16.4163 62.8551 17.522 61.6726C16.7823 60.9377 16.0834 60.2383 15.3488 59.5085L15.3513 59.5059ZM47.451 18.6495C47.4408 18.708 47.4281 18.7385 47.4358 18.7462C48.8032 20.1194 50.1681 21.4952 51.5559 22.8481C51.6347 22.9269 51.9601 22.871 52.0795 22.7692C52.8827 22.0826 53.6834 21.3935 54.4357 20.6534C55.0432 20.0558 55.582 19.3845 56.2378 18.6495H47.451ZM56.1666 68.3583C54.9644 66.6824 53.5131 65.4032 52.0084 64.18C51.9016 64.0936 51.5636 64.1394 51.439 64.2487C50.5621 65.0065 49.6903 65.7745 48.8591 66.5858C48.3279 67.1045 47.8729 67.7047 47.3036 68.3583H56.1641H56.1666ZM52.5447 44.797C52.3845 45.8473 52.2295 46.8747 52.0668 47.9428C53.7393 47.9428 55.3812 47.9453 57.0232 47.9377C57.1528 47.9377 57.3562 47.8843 57.3994 47.7953C57.8518 46.8543 58.1772 45.8753 58.2433 44.797H52.5472H52.5447ZM58.35 42.2031C58.1009 41.3436 57.8569 40.5476 57.6434 39.744C57.5036 39.2151 57.2291 39.0014 56.6547 39.0447C55.9201 39.1032 55.1754 39.0599 54.4357 39.0599H52.0643C52.232 40.1611 52.3871 41.1757 52.5447 42.2057H58.3475L58.35 42.2031ZM55.6913 50.6918C55.6481 50.6231 55.6024 50.5545 55.5592 50.4858C54.212 50.4858 52.8649 50.4782 51.5178 50.4985C51.378 50.4985 51.1772 50.6409 51.1111 50.7732C50.768 51.4445 50.4604 52.1337 50.1173 52.8635C50.5697 53.2526 51.0196 53.6646 51.5 54.0359C51.6093 54.1223 51.8914 54.1554 51.9753 54.0816C53.2259 52.9653 54.4561 51.8285 55.6913 50.6943V50.6918ZM55.6786 36.5169C55.5439 36.3338 55.4905 36.2448 55.4219 36.1761C54.7077 35.4565 54.0367 34.6859 53.2665 34.0349C51.3628 32.4277 52.2066 32.3921 50.1961 34.0908C50.1681 34.1137 50.1605 34.1646 50.1503 34.1875C50.4681 34.8639 50.7654 35.5404 51.106 36.1939C51.1823 36.3414 51.4009 36.5016 51.5559 36.5042C52.8853 36.5296 54.2171 36.5194 55.6761 36.5194L55.6786 36.5169ZM19.0521 55.9864C18.4777 56.5204 17.8753 57.0799 17.2958 57.619C17.9998 58.3209 18.6836 59.005 19.3851 59.7043C19.9265 59.1219 20.4831 58.5192 21.0245 57.9344C20.3738 57.291 19.7435 56.6679 19.0547 55.9838L19.0521 55.9864ZM49.7182 55.8847C49.3471 55.5693 49.032 55.2998 48.6939 55.0124C48.1322 55.6558 47.601 56.2661 47.0443 56.9044C47.268 57.1028 47.4663 57.2782 47.6874 57.4715C48.3635 56.9451 49.004 56.4441 49.7182 55.8872V55.8847Z" fill="black"/>
<path d="M45.6489 59.1245C45.443 58.9312 45.2804 58.7761 45.1685 58.6744C37.9627 63.4909 30.6501 63.7884 22.9435 59.4703C22.8901 59.5517 22.791 59.7704 22.636 59.9383C18.0837 64.8031 13.5314 69.6679 8.96902 74.5226C7.14405 76.4655 4.20325 76.496 2.34778 74.6243C0.492304 72.7526 0.55839 69.8332 2.51045 67.9997C7.38297 63.4248 12.2606 58.8549 17.1356 54.2826C17.2576 54.1681 17.3822 54.0537 17.5525 53.8935C14.5507 48.9651 13.5314 43.7264 15.2268 38.1216C16.4189 34.1773 18.7268 30.9705 21.965 28.4478C28.1287 23.6466 37.0909 22.4946 45.105 28.3614C45.2651 28.2241 45.4329 28.0816 45.6311 27.9164C44.8508 27.1789 44.0807 26.4973 43.3613 25.7624C40.6493 22.9879 38.6566 19.7914 37.8864 15.9437C37.6602 14.8121 37.6221 13.6397 37.5662 12.4827C37.5204 11.5723 38.0694 10.9924 38.8421 11.0026C39.5843 11.0153 40.0876 11.5824 40.0977 12.4547C40.1282 15.1707 40.7637 17.7239 42.1464 20.0711C43.5723 22.4895 45.5396 24.4248 47.6925 26.2405C48.3559 25.7243 49.0015 25.2182 49.7081 24.6689C49.2785 24.2874 48.8718 23.934 48.4753 23.5754C46.2538 21.5715 44.2815 19.359 43.3664 16.4498C42.9547 15.1401 42.8174 13.7313 42.6598 12.3555C42.5607 11.5646 43.186 10.9924 43.9154 11.0026C44.617 11.0128 45.0872 11.5646 45.1812 12.325C45.3185 13.4287 45.5269 14.5273 45.7175 15.6233C45.776 15.9565 45.9641 16.0861 46.3352 16.0836C49.9521 16.0683 53.569 16.0683 57.1833 16.0836C57.5544 16.0836 57.74 15.9539 57.801 15.6208C57.9916 14.5654 58.2255 13.5151 58.3449 12.4496C58.4491 11.5748 58.866 11.0128 59.6158 11.0026C60.3834 10.9924 60.9146 11.5875 60.9045 12.4827C60.8612 15.7505 59.6361 18.558 57.5544 21.0324C55.4778 23.4966 52.8954 25.386 50.3943 27.3671C49.2861 28.2444 48.183 29.1319 47.0367 30.0449C47.6086 30.7086 48.1373 31.324 48.6761 31.9471C50.3588 30.6145 52.0261 29.287 53.7012 27.9698C55.8998 26.2456 58.0475 24.4705 59.842 22.3013C62.1499 19.5142 63.342 16.315 63.4411 12.7039C63.4437 12.5768 63.4411 12.4496 63.4462 12.3225C63.4792 11.5443 63.9876 11.0102 64.6967 11.0001C65.4211 10.9924 65.9803 11.5595 65.9803 12.3555C65.9803 14.9214 65.5076 17.3933 64.4426 19.7405C63.0776 22.7489 60.9477 25.1572 58.5 27.3162C58.3093 27.484 58.1238 27.6544 57.8747 27.8833C58.3043 28.2724 58.7236 28.6462 59.1354 29.0251C61.8932 31.5732 64.2036 34.452 65.2102 38.1368C67.0707 44.9623 65.6753 51.0478 60.8358 56.2839C59.931 57.263 59.0744 58.2878 58.195 59.2898C58.0933 59.2338 57.9916 59.1754 57.89 59.1194C58.1517 59.3483 58.4135 59.5746 58.6728 59.8035C61.9745 62.7254 64.4959 66.1636 65.5203 70.5198C65.8304 71.8422 65.8786 73.2333 65.9727 74.5989C66.0286 75.4076 65.4567 75.9797 64.7349 75.995C63.985 76.0103 63.4513 75.4482 63.4462 74.5836C63.4157 70.263 61.7763 66.6163 58.8024 63.5392C57.8772 62.583 56.8961 61.6828 55.9023 60.7215C55.1906 61.2734 54.5298 61.7845 53.8308 62.3287C54.2705 62.7178 54.6772 63.0713 55.0813 63.4349C57.3053 65.4388 59.265 67.6564 60.1851 70.5656C60.5817 71.8193 60.7367 73.157 60.8917 74.4717C60.9985 75.377 60.4291 75.9797 59.6666 75.9975C58.8965 76.0153 58.4517 75.4381 58.3525 74.5302C58.2382 73.4876 58.0094 72.4551 57.8213 71.4201C57.7578 71.0691 57.5748 70.9089 57.1681 70.9115C53.5741 70.9318 49.9775 70.9293 46.3835 70.9115C45.992 70.9115 45.7836 71.0386 45.7175 71.4023C45.5345 72.4373 45.3058 73.4698 45.1939 74.5124C45.0999 75.4152 44.6525 76.0026 43.8875 75.995C43.1148 75.9848 42.6064 75.3948 42.642 74.4819C42.7742 71.1658 44.0324 68.2998 46.1573 65.7822C48.1525 63.4197 50.585 61.5531 53.0022 59.6636C55.4524 57.7487 57.9103 55.8491 59.9233 53.4433C62.7243 50.0993 63.7639 46.2618 63.3674 41.9412C62.9912 37.8291 61.0824 34.5333 58.2204 31.7004C57.4706 30.9578 56.6826 30.2559 55.882 29.5083C55.1804 30.0525 54.5196 30.5687 54.0646 30.9222C55.1805 32.1429 56.3166 33.3356 57.3994 34.5791C62.0991 39.9703 62.0991 46.9942 57.4375 52.4007C55.3762 54.7912 52.8598 56.6577 50.3994 58.5879C47.967 60.4952 45.5472 62.4076 43.585 64.8285C41.3508 67.5852 40.1892 70.7309 40.1028 74.2759C40.1003 74.3827 40.1028 74.487 40.1003 74.5938C40.0774 75.4457 39.5462 76.0179 38.7964 75.9975C38.0694 75.9797 37.5636 75.4177 37.5636 74.5938C37.5585 70.8504 38.5244 67.3792 40.7764 64.3809C41.999 62.7509 43.5011 61.3318 44.8838 59.8238C45.1075 59.5797 45.3744 59.3762 45.654 59.1245H45.6489ZM49.8758 43.5077C49.8962 34.8538 43.8189 27.1763 33.4003 27.0212C24.4381 26.889 17.0187 34.4367 17.006 43.4645C16.9933 52.4821 24.3949 60.0934 33.3545 59.9612C43.9714 59.8035 49.8707 52.0243 49.8758 43.5102V43.5077ZM15.3513 59.5059C15.3183 59.5212 15.2725 59.5288 15.2446 59.5568C11.5463 63.0255 7.85065 66.4917 4.16004 69.968C3.96687 70.1511 3.79911 70.3901 3.69744 70.6368C3.32889 71.5294 3.6644 72.5517 4.46759 73.0883C5.34958 73.6757 6.34848 73.5766 7.10084 72.7806C9.46466 70.2782 11.8183 67.7657 14.1745 65.2557C15.298 64.058 16.4163 62.8551 17.522 61.6726C16.7823 60.9377 16.0834 60.2383 15.3488 59.5085L15.3513 59.5059ZM47.451 18.6495C47.4408 18.708 47.4281 18.7385 47.4358 18.7462C48.8032 20.1194 50.1681 21.4952 51.5559 22.8481C51.6347 22.9269 51.9601 22.871 52.0795 22.7692C52.8827 22.0826 53.6834 21.3935 54.4357 20.6534C55.0432 20.0558 55.582 19.3845 56.2378 18.6495H47.451ZM56.1666 68.3583C54.9644 66.6824 53.5131 65.4032 52.0084 64.18C51.9016 64.0936 51.5636 64.1394 51.439 64.2487C50.5621 65.0065 49.6903 65.7745 48.8591 66.5858C48.3279 67.1045 47.8729 67.7047 47.3036 68.3583H56.1641H56.1666ZM52.5447 44.797C52.3845 45.8473 52.2295 46.8747 52.0668 47.9428C53.7393 47.9428 55.3812 47.9453 57.0232 47.9377C57.1528 47.9377 57.3562 47.8843 57.3994 47.7953C57.8518 46.8543 58.1772 45.8753 58.2433 44.797H52.5472H52.5447ZM58.35 42.2031C58.1009 41.3436 57.8569 40.5476 57.6434 39.744C57.5036 39.2151 57.2291 39.0014 56.6547 39.0447C55.9201 39.1032 55.1754 39.0599 54.4357 39.0599H52.0643C52.232 40.1611 52.3871 41.1757 52.5447 42.2057H58.3475L58.35 42.2031ZM55.6913 50.6918C55.6481 50.6231 55.6024 50.5545 55.5592 50.4858C54.212 50.4858 52.8649 50.4782 51.5178 50.4985C51.378 50.4985 51.1772 50.6409 51.1111 50.7732C50.768 51.4445 50.4604 52.1337 50.1173 52.8635C50.5697 53.2526 51.0196 53.6646 51.5 54.0359C51.6093 54.1223 51.8914 54.1554 51.9753 54.0816C53.2259 52.9653 54.4561 51.8285 55.6913 50.6943V50.6918ZM55.6786 36.5169C55.5439 36.3338 55.4905 36.2448 55.4219 36.1761C54.7077 35.4565 54.0367 34.6859 53.2665 34.0349C51.3628 32.4277 52.2066 32.3921 50.1961 34.0908C50.1681 34.1137 50.1605 34.1646 50.1503 34.1875C50.4681 34.8639 50.7654 35.5404 51.106 36.1939C51.1823 36.3414 51.4009 36.5016 51.5559 36.5042C52.8853 36.5296 54.2171 36.5194 55.6761 36.5194L55.6786 36.5169ZM19.0521 55.9864C18.4777 56.5204 17.8753 57.0799 17.2958 57.619C17.9998 58.3209 18.6836 59.005 19.3851 59.7043C19.9265 59.1219 20.4831 58.5192 21.0245 57.9344C20.3738 57.291 19.7435 56.6679 19.0547 55.9838L19.0521 55.9864ZM49.7182 55.8847C49.3471 55.5693 49.032 55.2998 48.6939 55.0124C48.1322 55.6558 47.601 56.2661 47.0443 56.9044C47.268 57.1028 47.4663 57.2782 47.6874 57.4715C48.3635 56.9451 49.004 56.4441 49.7182 55.8872V55.8847Z" stroke="black" stroke-width="0.6" mask="url(#path-2-outside-1_22_760)"/>
<path d="M50.0259 43.5082V43.5081V43.5059C50.0464 34.7772 43.9105 27.0255 33.4026 26.8691L33.4026 26.8691C24.356 26.7355 16.8689 34.3541 16.8561 43.4621C16.8433 52.5594 24.3094 60.2425 33.3568 60.109C44.0644 59.95 50.0208 52.0952 50.0259 43.5082ZM33.4974 57.1973L33.4967 57.1973C26.4247 57.2099 19.8591 52.2977 19.7156 43.3582C19.5951 35.853 25.9381 29.6766 33.5502 29.6816C41.1051 29.6891 47.394 35.8771 47.291 43.3814C47.1702 52.104 40.7551 57.2174 33.4974 57.1973Z" stroke="black" stroke-width="0.3"/>
<path d="M47.451 18.4999H47.3249L47.3033 18.6242C47.3002 18.6418 47.2974 18.6541 47.2943 18.6674C47.293 18.673 47.2917 18.6787 47.2903 18.6851L47.2902 18.6852C47.2885 18.6929 47.2848 18.7098 47.2838 18.7279C47.2832 18.7374 47.2829 18.7543 47.2872 18.7742C47.2917 18.795 47.3026 18.8254 47.3295 18.8524C47.4663 18.9898 47.6031 19.1272 47.7399 19.2646C48.9702 20.5006 50.2014 21.7375 51.4513 22.9559L51.4512 22.9559L51.4533 22.9579C51.5111 23.0121 51.5888 23.027 51.6411 23.032C51.7004 23.0376 51.7651 23.0336 51.8266 23.024C51.9433 23.0058 52.0861 22.961 52.1768 22.8838L52.1772 22.8835C52.9772 22.1974 53.7843 21.505 54.5409 20.7608L54.541 20.7607C54.9582 20.3503 55.3447 19.9037 55.7548 19.4299C55.9461 19.2088 56.1426 18.9818 56.3498 18.7498L56.5728 18.4999H56.2379H47.451Z" stroke="black" stroke-width="0.3"/>
<path d="M47.1929 68.2577L46.9774 68.506H47.3062H56.1667H56.1692H56.4618L56.291 68.2685C55.0742 66.5759 53.6127 65.2866 52.1055 64.0614L52.1053 64.0613C52.0467 64.0138 51.9727 63.9955 51.9127 63.9882C51.8488 63.9804 51.7798 63.9824 51.7137 63.9909C51.5888 64.007 51.4388 64.0513 51.3439 64.1326L51.3437 64.1329C50.4637 64.8911 49.589 65.6616 48.757 66.4762C48.3864 66.8363 48.0514 67.2375 47.6964 67.6627C47.5345 67.8566 47.3684 68.0555 47.1929 68.2577ZM51.4416 64.2465C51.5661 64.1397 51.9042 64.0914 52.0109 64.1778L51.4416 64.2465Z" stroke="black" stroke-width="0.3"/>
<path d="M57.0212 48.0854C57.1031 48.0854 57.2023 48.0691 57.2892 48.0397C57.3332 48.0249 57.3788 48.0051 57.4194 47.9789C57.4583 47.9538 57.5043 47.9154 57.5319 47.8585L57.5322 47.8579C57.9898 46.9035 58.3254 45.905 58.3905 44.8036L58.3999 44.6448H58.2408H52.5447H52.5422H52.4131L52.3938 44.7725C52.2878 45.4776 52.1818 46.1733 52.0742 46.8794C52.0219 47.2224 51.9692 47.5679 51.916 47.918L51.8898 48.0905H52.0643C52.4836 48.0905 52.901 48.0909 53.3171 48.0912C54.56 48.0921 55.7907 48.0931 57.0212 48.0854ZM57.0212 48.0854C57.0211 48.0854 57.0209 48.0854 57.0207 48.0854V47.9355L57.0217 48.0854C57.0215 48.0854 57.0214 48.0854 57.0212 48.0854Z" stroke="black" stroke-width="0.3"/>
<path d="M58.4123 42.3535H58.3501H52.5473H52.4185L52.399 42.2262C52.2414 41.1987 52.0864 40.1814 51.9186 39.0803L51.8923 38.9077H52.0669H54.4383C54.6647 38.9077 54.8887 38.9116 55.1112 38.9155C55.6275 38.9245 56.1356 38.9334 56.6453 38.8929L58.4123 42.3535ZM58.4123 42.3535L58.4562 42.3095M58.4123 42.3535L58.4562 42.3095M58.4562 42.3095L58.4588 42.3069L58.5214 42.2442L58.4967 42.1592C58.4214 41.8992 58.3465 41.6459 58.2729 41.3968C58.1021 40.8187 57.9381 40.2636 57.7911 39.7037L57.791 39.7035M58.4562 42.3095L57.791 39.7035M57.791 39.7035C57.7168 39.4226 57.5995 39.1982 57.4016 39.0551M57.791 39.7035L57.4016 39.0551M57.4016 39.0551C57.2032 38.9116 56.95 38.8686 56.6454 38.8929L57.4016 39.0551Z" stroke="black" stroke-width="0.3"/>
<path d="M55.7929 50.8L55.8415 50.7555L51.5001 54.0311L51.4071 54.1487C51.4072 54.1489 51.4074 54.149 51.4075 54.1491C51.4942 54.2174 51.6244 54.2527 51.7313 54.2642C51.788 54.2702 51.8479 54.2708 51.9036 54.2624C51.9552 54.2546 52.0233 54.2361 52.0764 54.1878L51.9754 54.0769L52.0753 54.1888C53.1316 53.2458 54.1734 52.2883 55.2151 51.3309C55.4077 51.1539 55.6003 50.9769 55.7929 50.8Z" stroke="black" stroke-width="0.3"/>
<path d="M55.7408 36.6672H55.6787C55.3501 36.6672 55.0277 36.6678 54.7102 36.6683C53.6196 36.67 52.5867 36.6717 51.5557 36.652C51.435 36.6498 51.3121 36.5903 51.2177 36.5239C51.1212 36.4559 51.028 36.3622 50.9755 36.2609C50.9755 36.2608 50.9754 36.2607 50.9754 36.2606L51.1086 36.1917C50.8615 35.7175 50.6371 35.2312 50.4112 34.7417C50.3258 34.5565 50.2401 34.3709 50.153 34.1853L55.7408 36.6672ZM55.7408 36.6672L55.7848 36.6233L55.7873 36.6208L55.8793 36.5288L55.8013 36.4247C55.7505 36.357 55.7123 36.3035 55.6796 36.2577C55.6689 36.2426 55.6587 36.2284 55.6489 36.2147C55.6101 36.1608 55.5749 36.1138 55.5325 36.0698L55.5325 36.0698L55.5308 36.0681C55.3145 35.8509 55.1002 35.6261 54.8845 35.3998C54.3985 34.8899 53.9054 34.3726 53.3658 33.918L55.7408 36.6672Z" stroke="black" stroke-width="0.3"/>
<path d="M19.1577 55.8801L19.0516 55.7751L18.9461 55.8807L18.9455 55.8813C18.7301 56.0815 18.5107 56.2854 18.2901 56.4904C17.9231 56.8315 17.5527 57.1757 17.1912 57.512L17.0771 57.6181L17.1874 57.7281C17.5391 58.0787 17.8857 58.4248 18.232 58.7707L18.2329 58.7716C18.5796 59.1178 18.9259 59.4637 19.2767 59.8134L19.387 59.9233L19.4927 59.8091C19.7634 59.5166 20.0379 59.2204 20.3124 58.9241C20.5869 58.6279 20.8614 58.3316 21.1322 58.0391L21.2307 57.9326L21.1275 57.8305C20.7741 57.481 20.4268 57.137 20.0729 56.7863C19.7751 56.4913 19.4726 56.1916 19.1577 55.8801Z" stroke="black" stroke-width="0.3"/>
<path d="M49.808 56.0033L49.8658 55.9583V55.8851V55.8825V55.8131L49.8129 55.7682C49.6166 55.6014 49.4373 55.4486 49.2619 55.299C49.1042 55.1646 48.9496 55.0328 48.7886 54.896L48.6758 54.8001L48.5785 54.9116C48.2306 55.3101 47.8943 55.696 47.5565 56.0836C47.3489 56.3219 47.1407 56.5608 46.9288 56.8037L46.8305 56.9164L46.943 57.0151C47.1489 57.1956 47.3317 57.3572 47.528 57.5308C47.5471 57.5477 47.5662 57.5646 47.5856 57.5817L47.679 57.6644L47.7773 57.5876C48.303 57.1767 48.81 56.7814 49.3469 56.3629C49.4979 56.2451 49.6512 56.1256 49.808 56.0033Z" stroke="black" stroke-width="0.3"/>
<path d="M47.591 43.3855L47.591 43.3854C47.6938 35.7079 41.2664 29.3866 33.5505 29.3815C25.7798 29.3738 19.2923 35.6812 19.4157 43.3629C19.562 52.4838 26.2792 57.5124 33.4968 57.4972C40.9075 57.5202 47.4703 52.2859 47.591 43.3855ZM22.2549 43.6547L22.2549 43.6547C22.3352 36.5007 27.498 32.336 33.4674 32.2957C39.8655 32.2632 44.7369 37.0989 44.7696 43.5113C44.7997 49.6428 39.7127 54.746 33.5473 54.7661C27.4096 54.7836 22.1847 49.726 22.2549 43.6547Z" fill="black" stroke="black" stroke-width="0.3"/>
<path d="M32.0432 44.8138L31.9369 44.7024C31.7551 44.5115 31.5779 44.324 31.4035 44.1396C30.979 43.6904 30.5711 43.2589 30.1524 42.8381C29.8569 42.5413 29.5492 42.3926 29.2646 42.3697C28.9829 42.3471 28.7056 42.4462 28.4613 42.6804C28.1991 42.9323 28.0854 43.2134 28.1003 43.4982C28.1153 43.7865 28.2634 44.1021 28.5711 44.4148C29.3863 45.2432 30.2093 46.0615 31.0353 46.8803L31.0357 46.8806C31.4551 47.299 31.7833 47.4748 32.0878 47.4735C32.3927 47.4722 32.7234 47.293 33.1469 46.8704C34.8803 45.1387 36.6137 43.4045 38.3445 41.6677L38.3446 41.6675C38.4918 41.5203 38.6306 41.3733 38.7299 41.2139L32.0432 44.8138ZM32.0432 44.8138L32.1518 44.7048M32.0432 44.8138L32.1518 44.7048M32.1518 44.7048C33.6792 43.1716 35.1288 41.7162 36.5779 40.2613L36.6073 40.2317M32.1518 44.7048L36.6073 40.2317M37.0995 39.7657L37.0991 39.766C36.9598 39.8744 36.8355 40.0006 36.7046 40.1334C36.6727 40.1658 36.6405 40.1986 36.6075 40.2315C36.6074 40.2316 36.6074 40.2317 36.6073 40.2317M37.0995 39.7657L36.5012 40.1257L36.6073 40.2317M37.0995 39.7657C37.5468 39.4154 38.1288 39.4376 38.531 39.7974M37.0995 39.7657L38.531 39.7974M38.531 39.7974C38.9472 40.171 39.0321 40.7264 38.7301 41.2136L38.531 39.7974ZM33.4657 31.9957L33.4654 31.9957C27.3462 32.0343 22.0371 36.3201 21.9548 43.6512L21.9548 43.6512C21.8852 49.8983 27.2516 55.084 33.5481 55.066H33.5482C39.878 55.0454 45.1004 49.8086 45.0695 43.5097C45.036 36.9348 40.0277 31.9647 33.4657 31.9957Z" stroke="black" stroke-width="0.3"/>
<path d="M38.9852 41.3716C39.3636 40.7583 39.2558 40.0422 38.7311 39.5739C38.2183 39.1152 37.4741 39.0917 36.9149 39.5293C36.7471 39.6599 36.5975 39.813 36.4568 39.9569C36.4359 39.9782 36.4152 39.9994 36.3947 40.0202C35.4588 40.9582 34.5249 41.8963 33.5705 42.855C33.0698 43.358 32.5634 43.8666 32.048 44.384C31.9048 44.2332 31.7638 44.0841 31.6243 43.9365C31.1987 43.4861 30.7866 43.0502 30.365 42.6266L30.3648 42.6264C30.0325 42.2938 29.6615 42.1026 29.2886 42.0727C28.913 42.0425 28.5536 42.1779 28.254 42.4636L28.2538 42.4638C27.9376 42.7662 27.7793 43.1287 27.7998 43.5141C27.82 43.8959 28.0145 44.277 28.3573 44.6254L28.3575 44.6255C28.9925 45.2688 29.6338 45.9076 30.2748 46.546C30.4579 46.7284 30.6409 46.9107 30.8238 47.0931L30.824 47.0933C31.2597 47.5266 31.6622 47.7755 32.0901 47.7736C32.5175 47.7718 32.9208 47.5198 33.3588 47.0829L33.2529 46.9767L33.3588 47.0829C35.095 45.351 36.826 43.6165 38.557 41.8796L38.4508 41.7737L38.5568 41.8797C38.7037 41.7328 38.8656 41.5665 38.9852 41.3716ZM38.9852 41.3716C38.9852 41.3717 38.9851 41.3717 38.9851 41.3718L38.8575 41.2931L38.9853 41.3715C38.9853 41.3715 38.9852 41.3716 38.9852 41.3716Z" fill="black" stroke="black" stroke-width="0.3"/>
</svg>
