<svg width="55" height="55" viewBox="0 0 55 55" fill="none" xmlns="http://www.w3.org/2000/svg">
<path d="M12.3328 40.8318C9.38622 40.8318 6.52459 40.8381 3.66072 40.8297C2.00634 40.8255 0.756612 39.9212 0.358666 38.4372C0.273711 38.121 0.264768 37.7795 0.264768 37.4486C0.260297 32.4506 0.293832 27.4527 0.242412 22.4547C0.222291 20.6187 1.55474 19.0293 3.88205 19.0483C6.66991 19.0715 9.45999 19.0546 12.3328 19.0546C12.3328 18.827 12.3328 18.6246 12.3328 18.4222C12.3328 13.8796 12.3283 9.33911 12.3328 4.79648C12.335 2.71594 13.5557 1.12655 15.5812 0.593238C16.0216 0.477301 16.4956 0.42671 16.9561 0.42671C24.0051 0.41617 31.0564 0.422494 38.1054 0.414062C38.6464 0.414062 39.0667 0.565834 39.4423 0.934725C44.0947 5.50054 48.7471 10.0642 53.4173 14.6132C53.9069 15.0896 54.1059 15.5849 54.1059 16.249C54.088 27.4379 54.0858 38.6269 54.0992 49.8138C54.1014 51.6498 53.3637 53.06 51.5908 53.8631C50.9939 54.1351 50.2718 54.2847 49.6078 54.2868C38.6889 54.3121 27.77 54.31 16.8511 54.3016C14.2331 54.2995 12.344 52.4824 12.3328 49.9887C12.3194 47.1472 12.3306 44.3078 12.3306 41.4663C12.3306 41.2766 12.3306 41.0869 12.3306 40.836L12.3328 40.8318ZM14.5573 19.0546H15.3129C21.1547 19.0546 26.9942 19.0546 32.8359 19.0546C35.1454 19.0546 36.5337 20.3447 36.5359 22.5053C36.5404 27.4674 36.5404 32.4317 36.5359 37.3938C36.5337 39.5418 35.161 40.8297 32.8918 40.8297C27.0143 40.8297 21.1368 40.8297 15.2593 40.8297C15.0424 40.8297 14.8256 40.8297 14.5863 40.8297C14.5752 40.9709 14.5617 41.0553 14.5617 41.1396C14.5617 44.1561 14.5617 47.1725 14.5662 50.189C14.5662 50.3618 14.5908 50.5389 14.64 50.7054C14.9418 51.7004 15.7444 52.2105 17.021 52.2126C27.8102 52.2126 38.5972 52.2126 49.3865 52.2126C51.0744 52.2126 51.9038 51.4243 51.9038 49.8117C51.906 39.0801 51.9038 28.3465 51.9038 17.6149C51.9038 17.4294 51.8837 17.2439 51.8703 17.0099C51.5975 17.0099 51.3762 17.0099 51.1571 17.0099C46.8222 17.0099 42.4895 17.0099 38.1546 17.0099C36.8534 17.0099 36.5292 16.7085 36.5292 15.5027C36.5292 11.3986 36.5292 7.29651 36.5292 3.19234C36.5292 2.98576 36.5292 2.78129 36.5292 2.53887C36.29 2.52833 36.1089 2.51358 35.9301 2.51358C29.6434 2.51358 23.3568 2.53887 17.0679 2.49461C15.494 2.48407 14.5215 3.53171 14.5372 4.85972C14.5908 9.40024 14.5573 13.9429 14.5573 18.4855V19.0588V19.0546ZM18.3735 38.7428C23.1914 38.7428 28.0092 38.7428 32.827 38.7428C33.9717 38.7428 34.3227 38.4119 34.3227 37.3305C34.3227 32.419 34.3227 27.5096 34.3227 22.5981C34.3227 21.483 33.9739 21.1499 32.8002 21.1499C23.2025 21.1499 13.6027 21.1499 4.00501 21.1499C2.78882 21.1499 2.45794 21.464 2.4557 22.6234C2.4557 27.5159 2.4557 32.4106 2.4557 37.3031C2.4557 38.4414 2.7754 38.7407 3.97595 38.7407C8.77589 38.7407 13.5736 38.7407 18.3735 38.7407V38.7428ZM50.6541 14.9125C46.6523 10.9938 42.7376 7.1616 38.7537 3.25979V14.9125H50.6541Z" fill="black"/>
<path d="M15.5257 25.6349C17.2091 25.7024 18.8613 25.7003 20.4978 25.8563C21.5999 25.9617 22.3779 26.6594 22.834 27.608C23.5897 29.1805 23.6075 30.7952 22.9905 32.4078C22.4472 33.8243 21.2892 34.5073 19.751 34.5789C18.3605 34.6443 16.9654 34.5916 15.5234 34.5916V25.6328L15.5257 25.6349ZM17.4483 27.277V33.057C18.2129 33.057 18.9373 33.0949 19.6549 33.0465C20.5693 32.9853 21.1193 32.5574 21.2422 31.6953C21.3652 30.8352 21.4121 29.9499 21.3384 29.0877C21.2445 28.0106 20.623 27.3866 19.646 27.2897C18.9328 27.2201 18.204 27.2749 17.4506 27.2749L17.4483 27.277Z" fill="black"/>
<path d="M8.62013 31.2759V34.5938H6.74219V25.7763C8.31161 25.7763 9.8475 25.7362 11.3812 25.7889C12.7784 25.8353 13.7644 26.7291 13.8963 27.9411C14.0729 29.5643 13.3575 30.8058 11.9155 31.0841C10.9832 31.2633 9.99729 31.2106 9.03596 31.2591C8.92642 31.2654 8.81911 31.2675 8.6179 31.278L8.62013 31.2759ZM8.66485 29.7856C9.45627 29.7371 10.2119 29.7308 10.9564 29.6359C11.5712 29.5558 11.9714 29.0415 11.9691 28.4871C11.9691 27.9243 11.5891 27.3931 10.972 27.3277C10.2142 27.2476 9.43838 27.3088 8.66261 27.3088V29.7856H8.66485Z" fill="black"/>
<path d="M25.0898 25.7228H31.4838V27.2089H26.9879V29.3148H30.8399V30.8177H26.979V34.5741H25.0898V25.7207V25.7228Z" fill="black"/>
</svg>
