<svg width="95" height="90" viewBox="0 0 95 90" fill="none" xmlns="http://www.w3.org/2000/svg">
<circle cx="44" cy="46" r="44" fill="#D2DF3F"/>
<path d="M35.8113 69.4439C35.8113 71.3961 35.8153 73.2365 35.8092 75.0768C35.8052 75.9224 35.3453 76.6001 34.617 76.8757C33.4006 77.3379 32.17 76.4612 32.1458 75.0747C32.1175 73.4189 32.1377 71.765 32.1377 70.1091C32.1377 69.9268 32.1377 69.7444 32.1377 69.4397C31.6778 69.7879 31.3187 70.0573 30.9616 70.333C29.9126 71.1371 28.8717 71.9495 27.8186 72.7474C26.8927 73.4479 25.7569 73.3173 25.1396 72.4531C24.5022 71.564 24.6777 70.447 25.6036 69.7278C27.6633 68.1258 29.7371 66.5445 31.7948 64.9384C31.9562 64.812 32.1236 64.5653 32.1256 64.3726C32.1438 60.9593 32.1377 57.5439 32.1357 54.1305C32.1357 54.0808 32.1175 54.0331 32.0974 53.9295C31.9703 53.9896 31.8553 54.0311 31.7524 54.0953C28.9786 55.8051 26.2108 57.5252 23.4269 59.2163C23.0416 59.4505 23.0497 59.78 23.0154 60.1324C22.7552 62.7188 22.509 65.3073 22.2246 67.8916C22.1056 68.9672 21.2623 69.6781 20.3041 69.6014C19.2612 69.5185 18.5107 68.6916 18.5874 67.5808C18.6963 66.0181 18.8819 64.4617 19.0332 62.9012C19.0614 62.611 19.0816 62.3209 19.1159 61.923C18.89 62.0473 18.7367 62.124 18.5894 62.2152C17.1793 63.0815 15.7833 63.9705 14.3611 64.814C13.1527 65.529 11.7184 64.7664 11.5953 63.3612C11.5247 62.5447 11.8737 61.9333 12.5576 61.5147C13.9395 60.6691 15.3193 59.8174 16.6992 58.9676C16.8545 58.8723 17.0038 58.7645 17.2176 58.6195C15.983 58.1034 14.8109 57.6123 13.6389 57.1232C13.1588 56.9221 12.6746 56.7273 12.1985 56.5159C11.1999 56.0745 10.7541 55.0383 11.1354 54.0559C11.5207 53.0591 12.5737 52.5969 13.5945 53.0176C16.0032 54.0083 18.4018 55.0258 20.8105 56.0144C20.9961 56.0911 21.2845 56.1139 21.4419 56.0185C24.3549 54.2466 27.2538 52.4519 30.1567 50.6592C30.2112 50.626 30.2596 50.5784 30.3483 50.5079C30.2112 50.4084 30.0982 50.3152 29.9772 50.2405C27.1751 48.51 24.371 46.7858 21.575 45.047C21.3067 44.8791 21.0949 44.8563 20.7943 44.9827C18.428 45.9879 16.0516 46.9681 13.6792 47.9608C12.9913 48.2489 12.3296 48.2323 11.7305 47.7598C10.5947 46.8645 10.8227 45.0967 12.1642 44.5123C13.6429 43.8678 15.1398 43.2626 16.6286 42.6409C16.798 42.5704 16.9675 42.4958 17.2136 42.3901C17.0199 42.2616 16.8807 42.1601 16.7335 42.0689C15.3133 41.1881 13.885 40.3197 12.4709 39.4286C11.7668 38.9851 11.4662 38.2514 11.6296 37.4349C11.793 36.6245 12.2953 36.0774 13.072 35.9821C13.532 35.9261 14.0827 36.0588 14.4942 36.2909C15.8721 37.0743 17.2055 37.9405 18.5571 38.7716C18.7104 38.8649 18.8698 38.9478 19.128 39.0928C19.0231 38.0255 18.9303 37.0598 18.8355 36.0919C18.7508 35.2173 18.6358 34.3448 18.5894 33.4703C18.5289 32.3201 19.2511 31.4849 20.3162 31.404C21.2724 31.3315 22.1096 32.0444 22.2327 33.1221C22.4828 35.3458 22.7209 37.5716 22.9105 39.8016C23.0578 41.5238 23.0214 41.528 24.4336 42.3984C26.818 43.8698 29.2045 45.3413 31.589 46.8127C31.7423 46.908 31.8997 46.9951 32.1155 47.1215C32.1276 46.8915 32.1438 46.7257 32.1438 46.5599C32.1438 43.3186 32.1397 40.0772 32.1518 36.8339C32.1518 36.4732 32.059 36.2391 31.7665 36.0173C29.729 34.4713 27.7057 32.9066 25.6823 31.3398C24.7765 30.6393 24.5223 29.6445 25.0105 28.7637C25.5673 27.7586 26.8039 27.4871 27.748 28.1959C29.0613 29.1824 30.3544 30.1958 31.6576 31.1989C31.7847 31.2963 31.9158 31.3937 32.1458 31.5657C32.1458 31.2569 32.1458 31.0745 32.1458 30.8921C32.1458 29.2197 32.1417 27.5472 32.1539 25.8747C32.1599 25.0955 32.5311 24.5276 33.2109 24.194C33.8565 23.8769 34.4899 23.9556 35.0648 24.3784C35.5752 24.7535 35.8213 25.2799 35.8193 25.9307C35.8153 27.6032 35.8193 29.2756 35.8193 30.9481C35.8193 31.116 35.8193 31.2838 35.8193 31.5595C36.0352 31.402 36.1804 31.3025 36.3216 31.1947C37.6248 30.1937 38.9159 29.1761 40.2312 28.1938C41.2399 27.4394 42.5894 27.8228 43.0534 28.9606C43.4004 29.8145 43.1301 30.6953 42.3171 31.3211C40.6952 32.5729 39.0692 33.8205 37.4473 35.0743C36.9127 35.4888 36.1845 35.808 35.9121 36.3634C35.6418 36.9168 35.8213 37.7084 35.8193 38.3965C35.8173 41.242 35.8193 44.0874 35.8213 46.9329C35.8213 46.9661 35.8314 47.0013 35.8496 47.1111C36.0231 47.0158 36.1784 46.9391 36.3277 46.8479C39.043 45.1734 41.7563 43.4947 44.4777 41.8285C44.7439 41.6647 44.8831 41.4948 44.9154 41.1591C45.1575 38.5871 45.4359 36.0194 45.678 33.4495C45.7829 32.3283 46.384 31.5574 47.308 31.4621C48.6132 31.3294 49.5371 32.3574 49.3818 33.719C49.1821 35.4785 49.0186 37.2421 48.831 39.097C49.0469 38.9788 49.2022 38.9022 49.3515 38.811C50.7757 37.9343 52.1899 37.0452 53.6222 36.1852C54.4372 35.6961 55.4136 35.8992 55.9784 36.6245C56.5312 37.3333 56.5231 38.3675 55.934 39.0493C55.7605 39.2503 55.5285 39.4099 55.3026 39.5508C53.9712 40.384 52.6337 41.2047 51.2982 42.0316C51.1429 42.129 50.9916 42.2347 50.7596 42.388C51.8368 42.8398 52.8455 43.2605 53.8562 43.6854C54.5078 43.9589 55.1634 44.218 55.8069 44.5102C56.7934 44.9599 57.217 46.0148 56.8216 46.9889C56.4303 47.9526 55.3813 48.4085 54.3888 48.0002C51.966 47.0013 49.5532 45.9754 47.1284 44.9807C46.9469 44.9061 46.6604 44.9123 46.497 45.0118C43.6001 46.7796 40.7154 48.566 37.8286 50.3504C37.7721 50.3856 37.7257 50.4333 37.6369 50.5058C37.7701 50.6012 37.881 50.6923 38.0021 50.769C40.8021 52.5016 43.6042 54.2279 46.4002 55.9667C46.6705 56.1367 46.8863 56.1533 47.1809 56.0268C49.5795 55.0093 51.9821 54.0062 54.3888 53.0114C55.2219 52.6674 56.0389 52.8809 56.5735 53.5461C57.0738 54.1678 57.1666 55.115 56.6764 55.7491C56.4 56.1077 55.9865 56.4082 55.5749 56.5926C54.0095 57.289 52.4199 57.9273 50.7596 58.6195C50.9775 58.7645 51.1328 58.8765 51.2962 58.978C52.7023 59.8484 54.1184 60.7064 55.5164 61.5914C56.2144 62.0328 56.5271 62.8038 56.3456 63.5975C56.164 64.3913 55.6637 64.9508 54.879 65.0296C54.417 65.0772 53.8703 64.9405 53.4588 64.7083C52.0809 63.925 50.7475 63.0587 49.3979 62.2255C49.2426 62.1302 49.0832 62.0411 48.8411 61.9002C48.9501 63.0338 49.0489 64.0825 49.1538 65.1332C49.2325 65.9207 49.3334 66.7083 49.3979 67.4958C49.4786 68.5071 48.7867 69.4149 47.8647 69.5434C46.8198 69.6884 45.918 69.0916 45.7647 68.018C45.5509 66.5197 45.4379 65.0068 45.2826 63.5001C45.1535 62.2504 45.0324 60.9986 44.8892 59.751C44.871 59.5915 44.7702 59.3842 44.6431 59.3055C41.7765 57.5211 38.9018 55.7512 36.0251 53.9813C35.9868 53.9565 35.9343 53.9544 35.8213 53.9212C35.8213 54.0953 35.8213 54.2404 35.8213 54.3875C35.8213 57.6641 35.8274 60.9406 35.8133 64.2172C35.8133 64.5716 35.9283 64.7809 36.1945 64.984C38.2421 66.5445 40.2816 68.1154 42.3191 69.6884C43.2612 70.4138 43.471 71.5764 42.8295 72.451C42.1799 73.3339 41.0603 73.4541 40.1081 72.7287C38.8413 71.763 37.5845 70.7848 36.3216 69.8149C36.1885 69.7133 36.0533 69.618 35.8193 69.448L35.8113 69.4439Z" fill="black"/>
<g clip-path="url(#clip0_22_753)">
<path d="M84.3066 25.7491C85.0363 27.0167 85.7803 28.2742 86.4889 29.5524C86.8876 30.2695 86.7892 31.0042 86.2886 31.5732C85.7986 32.1288 85.0123 32.4054 84.3923 32.0954C83.9903 31.8949 83.5973 31.5413 83.3693 31.153C82.1189 29.0335 80.9268 26.8763 79.6901 24.7488C79.5519 24.5122 79.268 24.29 79.0069 24.2131C77.8496 23.8658 76.6757 23.5722 75.46 23.2464C75.1044 24.5736 74.7526 25.8438 74.435 27.1231C74.3936 27.2861 74.5003 27.5119 74.5909 27.6777C75.7998 29.9091 77.0175 32.1335 78.2345 34.3601C78.5651 34.9638 78.5825 35.5741 78.2261 36.1608C77.8458 36.7852 77.2585 37.0711 76.5429 37.0325C75.8949 36.9981 75.4661 36.6071 75.1552 36.0666C74.5486 35.0061 73.942 33.9455 73.3462 32.8785C73.2472 32.7012 73.1992 32.4957 73.1289 32.3052C73.0743 32.3207 73.0192 32.3384 72.9625 32.3534C72.9128 32.4793 72.8523 32.6023 72.8175 32.7322C72.5093 33.8656 72.216 35.0029 71.9019 36.1324C71.6218 37.1433 70.6896 37.708 69.7435 37.4615C68.7974 37.2149 68.2359 36.2593 68.4865 35.2474C68.7737 34.0899 69.0994 32.9426 69.4059 31.7903C69.4518 31.6192 69.4826 31.4442 69.5499 31.142C69.0271 31.4521 68.6043 31.7054 68.1799 31.956C67.3969 32.4168 66.6145 32.8755 65.8327 33.332C64.7254 33.9774 63.7549 33.7962 63.2078 32.8468C62.6452 31.8699 62.9738 30.9254 64.1154 30.2543C66.1916 29.0355 68.2615 27.8056 70.3511 26.6136C70.8214 26.3451 71.092 26.0278 71.2133 25.4895C71.4471 24.4545 71.7514 23.4385 72.0368 22.3733C71.8871 22.3169 71.7588 22.257 71.6248 22.2188C70.8803 22.0146 70.098 21.9002 69.3936 21.5977C68.179 21.0797 67.2003 21.3651 66.1506 22.1118C64.5977 23.2156 62.9366 24.1674 61.3272 25.1911C60.7996 25.5278 60.2458 25.6462 59.6427 25.487C58.912 25.2912 58.4592 24.8102 58.3506 24.0617C58.243 23.3182 58.5166 22.707 59.1644 22.2981C60.3542 21.5495 61.5515 20.8075 62.8162 20.0186C62.6319 19.946 62.5134 19.8841 62.3879 19.8482C61.2524 19.5393 60.114 19.2412 58.9769 18.9296C57.8814 18.6337 57.2977 17.7185 57.5469 16.7202C57.7978 15.7153 58.8699 15.1069 59.9411 15.3823C61.1988 15.7054 62.4501 16.0523 63.873 16.4336C63.3331 15.4999 62.8721 14.7081 62.4164 13.9131C62.1304 13.4164 61.8423 12.9192 61.5672 12.4162C61.0589 11.4841 61.294 10.5214 62.1515 9.98775C63.0307 9.44133 64.0234 9.66787 64.5799 10.599C65.2721 11.7591 65.9235 12.943 66.5934 14.118C67.2259 15.2273 67.8551 16.3403 68.4931 17.4464C68.5802 17.5997 68.6942 17.8066 68.8368 17.8471C70.2112 18.2386 71.5959 18.6004 73.0381 18.9868C73.3984 17.6423 73.7548 16.3548 74.0749 15.0576C74.1151 14.899 73.9757 14.676 73.8792 14.5062C72.613 12.2665 71.3365 10.0309 70.0676 7.79277C69.7283 7.19598 69.6262 6.57692 70.0125 5.94715C70.3955 5.32114 70.9579 5.01702 71.676 5.03772C72.3511 5.0562 72.7943 5.4534 73.1113 6.01402C73.8307 7.28583 74.5442 8.56299 75.3112 9.93106C75.3968 9.7057 75.4572 9.58267 75.492 9.45277C75.8028 8.30154 76.1071 7.14859 76.4222 5.99851C76.706 4.9561 77.6487 4.37796 78.6166 4.6373C79.5845 4.89664 80.1048 5.86911 79.831 6.91654C79.505 8.15883 79.1667 9.39551 78.81 10.727C79.0213 10.6305 79.1636 10.5781 79.2956 10.5044C80.3747 9.89554 81.4534 9.2796 82.5326 8.67073C83.5553 8.09313 84.54 8.31522 85.0624 9.2372C85.5869 10.1597 85.2831 11.1481 84.2747 11.7411C82.137 13.0015 79.99 14.2455 77.8623 15.5201C77.6417 15.6513 77.4369 15.9283 77.3632 16.1777C77.0073 17.3864 76.6972 18.6121 76.3572 19.8808C77.637 20.2237 78.8557 20.5642 80.0832 20.8629C80.2596 20.9055 80.5016 20.7801 80.6824 20.6777C82.9067 19.3848 85.1252 18.0788 87.3463 16.7805C87.9597 16.4227 88.5901 16.3178 89.2203 16.735C89.8256 17.1338 90.1084 17.7108 90.0655 18.4349C90.0251 19.0901 89.6351 19.5286 89.0999 19.8423C87.8393 20.5812 86.5714 21.3136 85.2181 22.0996C85.4275 22.1812 85.5444 22.2404 85.6705 22.2742C86.8066 22.5809 87.9444 22.8812 89.082 23.1906C90.1129 23.4715 90.6821 24.4153 90.4214 25.3966C90.1608 26.3779 89.1957 26.9199 88.1663 26.651C86.9082 26.3209 85.6536 25.9778 84.3973 25.6412C84.3671 25.6771 84.3368 25.7131 84.306 25.7513L84.3066 25.7491Z" fill="black"/>
</g>
<defs>
<clipPath id="clip0_22_753">
<rect width="34" height="34" fill="white" transform="translate(61.9791 0.179321) rotate(15)"/>
</clipPath>
</defs>
</svg>
