<svg width="181" height="47" viewBox="0 0 181 47" fill="none" xmlns="http://www.w3.org/2000/svg">
<g clip-path="url(#clip0_1010_7167)">
<path fill-rule="evenodd" clip-rule="evenodd" d="M36.3396 20.9036C34.2323 19.8515 31.8837 18.7232 29.7603 17.7274C28.5538 17.1653 27.0095 16.1735 25.7387 16.0289C24.1301 15.8482 22.7627 17.3058 24.5523 18.7995C28.6624 22.2286 42.3037 25.4169 43.2085 30.8778C43.9043 35.0738 38.9014 36.7282 36.5809 40.0529C33.3114 44.7389 30.1946 44.0402 26.5551 39.8682L24.7132 43.3094C28.6544 47.7825 34.1841 48.4009 38.2539 43.9759C39.2432 42.8958 39.7258 41.7474 40.7393 40.7395C42.0141 39.4707 47.2784 37.0534 47.0371 31.4439C46.7837 25.6056 41.1294 23.2927 36.3437 20.9036" fill="#03AFE1"/>
<path fill-rule="evenodd" clip-rule="evenodd" d="M30.819 26.4208C31.7721 23.7426 29.3913 22.6424 27.7505 24.895C24.497 29.3882 21.3481 44.5704 14.1615 43.0927C11.093 42.4623 10.719 40.0571 8.69616 38.0413C6.6733 36.0256 -0.766657 33.0703 7.07144 26.5614L3.6008 24.7946C1.75852 26.0968 0.507666 28.0744 0.121804 30.295C-0.264058 32.5155 0.246471 34.7983 1.54174 36.644C3.29516 39.1416 5.32204 39.4186 7.0835 41.8238C12.5006 49.2242 19.8963 48.2123 23.7329 41.2496C25.7437 37.6037 27.7545 32.9097 29.4918 29.1754C29.8216 28.4607 30.461 27.4126 30.8149 26.4168" fill="#03AFE1"/>
<path fill-rule="evenodd" clip-rule="evenodd" d="M16.1832 20.3575C14.9767 23.2928 17.7918 24.4934 19.3522 21.9637C20.0882 20.7591 20.619 19.0726 21.0453 18.2173C22.473 15.3704 25.2237 8.79727 27.0777 6.42418C32.6798 -0.679023 37.2282 7.97813 38.3382 9.03418C41.4428 11.9975 46.9363 13.953 39.9468 20.4138L43.4617 22.2126C52.8079 13.0496 41.3343 7.17506 39.9347 5.31995C38.0567 2.81034 37.4011 1.41299 34.3286 0.445283C24.5562 -2.6586 20.0399 12.6079 16.5451 19.5705C16.4164 19.8315 16.2918 20.0965 16.1832 20.3736" fill="#03AFE1"/>
<path fill-rule="evenodd" clip-rule="evenodd" d="M10.105 25.9793C14.6011 28.1556 17.9833 29.9666 20.3319 30.6532C22.2864 31.2234 24.5706 29.7297 21.8279 27.7461C17.4042 24.5338 5.68522 21.723 3.89561 16.8001C2.25882 12.2989 7.78851 10.508 10.4589 6.68942C13.6761 2.09181 17.1066 3.13983 20.2957 7.0508L22.2743 3.58553C18.4015 -0.305368 13.3021 -1.63446 8.97086 2.69813C7.88905 3.78229 7.44668 4.8825 6.46943 5.93453C4.65167 7.90608 0.0268324 9.25926 0.0469404 15.3506C0.0469404 21.2693 5.29915 23.8391 10.1009 25.9833" fill="#03AFE1"/>
<path fill-rule="evenodd" clip-rule="evenodd" d="M122.857 17.1411V2.07943H121.087L115.332 9.26696L109.602 2.07943H107.832V17.1411H110.808V7.50421L115.336 13.1257L119.885 7.50421V17.1411H122.857ZM138.497 4.87815V2.06738H127.381V4.85807C130.739 4.85807 135.131 4.85807 138.497 4.85807M127.381 8.16674V10.9454H136.856V8.13462C133.671 8.13462 130.558 8.13462 127.381 8.13462M127.381 14.3183V17.0889H138.497V14.2781C135.127 14.2781 130.743 14.3022 127.381 14.3022M157.245 19.9198V14.3464H155.263L150.304 2.07943H148.539L143.492 14.3464H141.481V19.9198H144.457V17.1411H154.285V19.9157L157.245 19.9198ZM149.375 7.52428L152.09 14.3504H146.681L149.375 7.52428Z" fill="#03AFE1"/>
<path fill-rule="evenodd" clip-rule="evenodd" d="M63.6956 17.1459L72.2938 2.08022H68.9116L65.1514 8.64536L61.347 2.08022H57.9648L63.4382 11.7171L60.3255 17.1459H63.6956ZM74.9883 2.08022V17.1459H77.9602V13.6806H79.9429C84.1696 13.6806 86.667 11.2072 86.667 7.87039C86.667 4.53362 84.1696 2.08022 79.9429 2.08022H74.9883ZM77.9602 10.8819V4.85886H80.1801C82.0984 4.85886 83.8438 5.82657 83.8438 7.85032C83.8438 9.98248 82.0984 10.8619 80.1801 10.8619L77.9602 10.8819ZM96.8416 1.93165C95.32 1.93165 93.8326 2.38216 92.5674 3.2262C91.3023 4.07025 90.3162 5.26992 89.7339 6.67352C89.1516 8.07711 88.9993 9.62159 89.2961 11.1116C89.593 12.6017 90.3257 13.9704 91.4016 15.0447C92.4775 16.1189 93.8484 16.8505 95.3407 17.1469C96.8331 17.4433 98.3799 17.2912 99.7857 16.7098C101.191 16.1284 102.393 15.1438 103.238 13.8806C104.084 12.6174 104.535 11.1323 104.535 9.61307C104.537 8.60389 104.339 7.60431 103.953 6.67164C103.566 5.73897 103 4.89155 102.285 4.17795C101.57 3.46435 100.722 2.8986 99.7876 2.51313C98.8535 2.12767 97.8524 1.93006 96.8416 1.93165ZM181.002 17.1459V2.08022H179.236L173.481 9.26775L167.75 2.08022H165.985V17.1459H168.961V7.50901L173.485 13.1305L178.034 7.50901V17.1459H181.002ZM96.8416 4.72635C99.4918 4.72635 101.563 6.73404 101.563 9.61307C101.563 12.4921 99.4918 14.4958 96.8416 14.4958C94.1914 14.4958 92.1444 12.5162 92.1444 9.60905C92.1444 6.70192 94.2155 4.72234 96.8416 4.72234" fill="#2A3A7E"/>
<path d="M62.4535 32.2636L64.4482 27.7383H65.6989V33.5887H64.6975V29.3324L62.7994 33.5887H62.1076L60.1732 29.24V33.5887H59.1719V27.7383H60.4708L62.4535 32.2636Z" fill="#2A3A7E"/>
<path d="M69.7416 33.697C69.3627 33.7024 68.9865 33.6314 68.6357 33.4882C68.3148 33.3544 68.0257 33.1547 67.7871 32.9019C67.5468 32.6436 67.3621 32.3389 67.2442 32.0065C67.1148 31.6418 67.0508 31.2571 67.0552 30.8702V30.6413C67.0477 30.2062 67.12 29.7735 67.2684 29.3644C67.3952 29.0145 67.5892 28.6926 67.8394 28.4168C68.065 28.169 68.3387 27.9696 68.6437 27.8305C68.9449 27.696 69.271 27.6262 69.6009 27.6257C69.9736 27.6166 70.3435 27.6921 70.6827 27.8466C70.9777 27.985 71.2354 28.1914 71.4347 28.4489C71.6381 28.7198 71.7857 29.0282 71.8691 29.3564C71.9655 29.7288 72.0128 30.1121 72.0098 30.4967V30.9465H68.0405C68.0451 31.2048 68.0899 31.4608 68.1732 31.7054C68.2483 31.929 68.3657 32.1362 68.5191 32.3157C68.674 32.4967 68.8674 32.641 69.0851 32.7383C69.3028 32.8355 69.5394 32.8832 69.7778 32.8779C70.0922 32.8877 70.4034 32.8128 70.6787 32.661C70.9282 32.5127 71.1466 32.3178 71.3221 32.0868L71.9334 32.5647C71.8326 32.7091 71.7182 32.8436 71.5916 32.9662C71.452 33.1058 71.2952 33.2273 71.1251 33.3276C70.9323 33.4392 70.7253 33.5243 70.5098 33.5805C70.2473 33.6491 69.9767 33.6815 69.7055 33.6769M69.5808 28.4328C69.3908 28.4299 69.2024 28.467 69.0277 28.5418C68.8531 28.6165 68.6962 28.7271 68.5673 28.8665C68.425 29.0201 68.3119 29.1984 68.2335 29.3925C68.1517 29.6255 68.103 29.8688 68.0888 30.1153H71.0245V30.039C71.0129 29.8434 70.9805 29.6496 70.928 29.4608C70.8783 29.276 70.7952 29.1018 70.6827 28.9468C70.5705 28.7929 70.4248 28.6666 70.2564 28.5774C70.057 28.4778 69.8358 28.4295 69.613 28.4368" fill="#2A3A7E"/>
<path d="M73.1342 32.7737C73.2549 32.6331 73.3675 32.4886 73.4801 32.34C73.6013 32.173 73.7026 31.9924 73.7817 31.802C73.8831 31.5541 73.9612 31.2973 74.015 31.035C74.0885 30.6708 74.1355 30.3018 74.1557 29.9308L74.2402 27.7344H78.0205V32.7737H78.7725V35.3114H77.7711V33.5888H73.6772V35.3074H72.6758V32.7737H73.1342ZM75.145 29.9348C75.1296 30.2497 75.096 30.5634 75.0445 30.8744C75.0003 31.1366 74.9385 31.3955 74.8595 31.6494C74.7919 31.8646 74.7072 32.074 74.6061 32.2758C74.5197 32.4511 74.4188 32.619 74.3045 32.7777H77.003V28.6619H75.2054L75.145 29.9348Z" fill="#2A3A7E"/>
<path d="M83.6726 27.7383H84.674V33.5887H83.6726V29.3203L80.9701 33.5887H79.9688V27.7383H80.9701V32.0106L83.6726 27.7383Z" fill="#2A3A7E"/>
<path d="M86.3711 27.7383H87.3765V32.7736H90.075V27.7383H91.0764V32.7736H91.7761L91.6796 35.3233H90.7788V33.5887H86.3711V27.7383Z" fill="#2A3A7E"/>
<path d="M96.6454 27.7383H97.6468V33.5887H96.6454V29.3203L93.9429 33.5887H92.9375V27.7383H93.9429V32.0106L96.6454 27.7383Z" fill="#2A3A7E"/>
<path d="M104.045 33.5887H103.044V31.0911H100.349V33.5887H99.3438V27.7383H100.349V30.272H103.044V27.7383H104.045V33.5887Z" fill="#2A3A7E"/>
<path d="M108 32.8817C108.174 32.8831 108.347 32.8546 108.511 32.7973C108.667 32.7431 108.812 32.663 108.941 32.5604C109.064 32.4603 109.166 32.3376 109.243 32.199C109.32 32.0605 109.367 31.9072 109.38 31.7493H110.329C110.314 32.0097 110.241 32.2635 110.116 32.4922C109.987 32.7294 109.815 32.9405 109.609 33.1145C109.393 33.2984 109.147 33.4438 108.881 33.5442C108.6 33.6521 108.301 33.7066 108 33.7048C107.604 33.7134 107.211 33.6324 106.85 33.4679C106.538 33.3182 106.264 33.1016 106.046 32.8335C105.825 32.5576 105.661 32.2411 105.563 31.9019C105.455 31.5384 105.401 31.1609 105.402 30.7816V30.5527C105.401 30.1734 105.455 29.796 105.563 29.4324C105.661 29.0933 105.825 28.7768 106.046 28.5009C106.264 28.2328 106.538 28.0161 106.85 27.8664C107.209 27.7019 107.601 27.6209 107.996 27.6295C108.315 27.6249 108.631 27.6794 108.929 27.7902C109.198 27.8909 109.445 28.0422 109.657 28.2359C109.861 28.4258 110.024 28.6553 110.136 28.9104C110.253 29.1755 110.32 29.4601 110.333 29.7497H109.388C109.374 29.5749 109.331 29.4037 109.259 29.2437C109.189 29.0936 109.093 28.9575 108.974 28.8422C108.851 28.7235 108.706 28.6294 108.547 28.5651C108.372 28.4939 108.185 28.4584 107.996 28.4607C107.727 28.4505 107.46 28.5144 107.224 28.6454C107.023 28.7639 106.853 28.9292 106.73 29.1273C106.602 29.3345 106.514 29.5631 106.468 29.8019C106.418 30.0503 106.392 30.3032 106.392 30.5567V30.7856C106.392 31.0432 106.417 31.3001 106.468 31.5526C106.514 31.7914 106.602 32.0199 106.73 32.2271C106.853 32.4255 107.023 32.5909 107.224 32.709C107.463 32.8403 107.732 32.9042 108.004 32.8937" fill="#2A3A7E"/>
<path d="M113.284 31.0951H112.552V33.5887H111.543V27.7383H112.552V30.2158H113.208L115.178 27.7383H116.393L114.073 30.549L116.586 33.5887H115.315L113.284 31.0951Z" fill="#2A3A7E"/>
<path d="M121.051 33.588C121.011 33.501 120.982 33.4092 120.966 33.315C120.946 33.2066 120.926 33.0901 120.91 32.9697C120.812 33.0704 120.705 33.1631 120.592 33.2467C120.466 33.338 120.332 33.416 120.19 33.4796C120.046 33.5477 119.895 33.6002 119.74 33.6362C119.571 33.6743 119.398 33.6932 119.225 33.6924C118.951 33.6945 118.678 33.6483 118.42 33.5559C118.191 33.4752 117.98 33.3511 117.797 33.1905C117.626 33.0374 117.489 32.8499 117.395 32.6404C117.301 32.4266 117.253 32.1954 117.254 31.9618C117.249 31.674 117.312 31.389 117.439 31.1306C117.569 30.8821 117.76 30.6707 117.994 30.5163C118.247 30.3445 118.529 30.2206 118.827 30.1509C119.183 30.0639 119.549 30.0221 119.917 30.0264H120.914V29.5807C120.921 29.4275 120.898 29.2743 120.844 29.1307C120.79 28.987 120.707 28.856 120.6 28.7455C120.474 28.6355 120.327 28.5515 120.169 28.4984C120.01 28.4454 119.842 28.4242 119.675 28.4363C119.501 28.4341 119.327 28.4599 119.16 28.5126C119.016 28.556 118.88 28.6239 118.758 28.7134C118.653 28.7922 118.565 28.892 118.501 29.0065C118.44 29.1144 118.408 29.2361 118.408 29.3598H117.403C117.405 29.1418 117.462 28.9278 117.568 28.7374C117.685 28.5235 117.843 28.335 118.034 28.1833C118.254 28.0094 118.502 27.8737 118.766 27.7818C119.076 27.6761 119.401 27.6245 119.728 27.6292C120.025 27.626 120.322 27.6666 120.608 27.7497C120.862 27.823 121.098 27.9489 121.3 28.1191C121.495 28.2873 121.649 28.4973 121.75 28.7334C121.863 29.0056 121.918 29.2982 121.911 29.5927V32.3151C121.912 32.525 121.93 32.7344 121.964 32.9415C121.99 33.1359 122.042 33.3261 122.116 33.5077V33.592L121.051 33.588ZM119.39 32.8251C119.563 32.8265 119.735 32.8007 119.9 32.7488C120.053 32.7015 120.199 32.6354 120.335 32.5521C120.459 32.4752 120.573 32.382 120.673 32.275C120.763 32.1779 120.839 32.0684 120.898 31.9497V30.7451H120.061C119.603 30.7202 119.146 30.8128 118.734 31.0142C118.589 31.0909 118.468 31.2069 118.386 31.3489C118.303 31.4909 118.262 31.6532 118.268 31.8172C118.265 31.9542 118.289 32.0903 118.336 32.2188C118.381 32.3397 118.454 32.4484 118.549 32.536C118.651 32.6279 118.77 32.6989 118.899 32.7448C119.055 32.8007 119.22 32.8279 119.386 32.8251" fill="#2A3A7E"/>
<path d="M127.963 27.7377V33.5881H126.954V31.3194H125.442L124.062 33.5962H122.977L124.448 31.1869C124.097 31.0605 123.796 30.8256 123.588 30.5164C123.422 30.2658 123.32 29.9778 123.294 29.6784C123.267 29.379 123.316 29.0777 123.435 28.8018C123.535 28.5863 123.682 28.3956 123.865 28.2437C124.072 28.0756 124.31 27.9488 124.565 27.8702C124.871 27.7752 125.19 27.7292 125.51 27.7337L127.963 27.7377ZM124.296 29.5326C124.295 29.653 124.315 29.7726 124.356 29.8859C124.397 30.0014 124.465 30.1057 124.553 30.1911C124.65 30.2851 124.765 30.3588 124.891 30.4079C125.05 30.4678 125.219 30.4964 125.39 30.4923H126.954V28.5488H125.514C125.325 28.5448 125.137 28.5748 124.959 28.6372C124.819 28.6862 124.691 28.7626 124.581 28.862C124.486 28.95 124.411 29.0585 124.364 29.1792C124.317 29.2926 124.293 29.414 124.292 29.5366" fill="#2A3A7E"/>
<path d="M136.676 28.5494H134.709V33.5887H133.704V28.5494H131.777V27.7383H136.676V28.5494Z" fill="#2A3A7E"/>
<path d="M139.652 33.697C139.273 33.7025 138.897 33.6315 138.546 33.4882C138.225 33.3547 137.936 33.1549 137.698 32.902C137.452 32.6453 137.261 32.3404 137.139 32.0066C137.009 31.6418 136.945 31.2572 136.95 30.8702V30.6413C136.942 30.2063 137.014 29.7736 137.163 29.3644C137.29 29.0146 137.484 28.6928 137.734 28.4168C137.959 28.1689 138.233 27.9694 138.538 27.8306C138.839 27.6961 139.166 27.6263 139.495 27.6258C139.869 27.6163 140.241 27.6918 140.581 27.8466C140.875 27.9856 141.131 28.192 141.329 28.4489C141.534 28.7194 141.683 29.0279 141.768 29.3564C141.864 29.7288 141.911 30.1122 141.908 30.4968V30.9465H137.939C137.944 31.2048 137.988 31.4608 138.072 31.7054C138.147 31.9291 138.264 32.1363 138.418 32.3158C138.573 32.4968 138.766 32.6411 138.984 32.7383C139.201 32.8356 139.438 32.8832 139.676 32.8779C139.991 32.888 140.302 32.8131 140.577 32.6611C140.827 32.5128 141.045 32.3178 141.221 32.0869L141.832 32.5647C141.731 32.7092 141.617 32.8437 141.49 32.9662C141.35 33.1065 141.191 33.2279 141.02 33.3276C140.827 33.4395 140.62 33.5246 140.404 33.5806C140.142 33.649 139.871 33.6814 139.6 33.677M139.475 28.4329C139.285 28.43 139.097 28.4671 138.922 28.5418C138.748 28.6165 138.591 28.7272 138.462 28.8665C138.319 29.0198 138.206 29.1982 138.128 29.3926C138.035 29.6226 137.974 29.8645 137.947 30.1113H140.883V30.035C140.872 29.8394 140.839 29.6455 140.786 29.4568C140.736 29.2723 140.653 29.0982 140.541 28.9428C140.429 28.789 140.283 28.6626 140.115 28.5734C139.915 28.4738 139.694 28.4255 139.471 28.4329" fill="#2A3A7E"/>
<path d="M145.06 29.8745L146.359 27.7383H147.529L145.611 30.6294L147.59 33.5887H146.431L145.076 31.4003L143.721 33.5887H142.559L144.533 30.6294L142.619 27.7383H143.777L145.06 29.8745Z" fill="#2A3A7E"/>
<path d="M153.381 33.5887H152.38V31.0911H149.685V33.5887H148.68V27.7383H149.685V30.272H152.38V27.7383H153.381V33.5887Z" fill="#2A3A7E"/>
<path d="M158.782 27.7383H159.783V33.5887H158.782V29.3203L156.08 33.5887H155.078V27.7383H156.08V32.0106L158.782 27.7383Z" fill="#2A3A7E"/>
<path d="M163.218 31.0951H162.486V33.5887H161.477V27.7383H162.486V30.2158H163.142L165.112 27.7383H166.327L164.006 30.549L166.52 33.5887H165.249L163.218 31.0951Z" fill="#2A3A7E"/>
<path d="M171 33.588C170.962 33.5046 170.935 33.417 170.919 33.327C170.899 33.2186 170.879 33.1022 170.863 32.9817C170.765 33.0825 170.659 33.1751 170.545 33.2588C170.42 33.35 170.285 33.4281 170.143 33.4917C169.999 33.5598 169.848 33.6123 169.693 33.6483C169.524 33.6863 169.351 33.7052 169.178 33.7045C168.904 33.7066 168.632 33.6604 168.374 33.5679C168.144 33.4872 167.933 33.3632 167.75 33.2025C167.579 33.0494 167.442 32.862 167.348 32.6524C167.254 32.4387 167.206 32.2074 167.207 31.9738C167.202 31.686 167.265 31.401 167.392 31.1427C167.516 30.9018 167.697 30.695 167.919 30.5403C168.172 30.3685 168.454 30.2447 168.752 30.1749C169.108 30.088 169.474 30.0461 169.842 30.0505H170.839V29.5807C170.846 29.4275 170.822 29.2743 170.769 29.1307C170.715 28.987 170.632 28.856 170.525 28.7455C170.399 28.6355 170.252 28.5515 170.094 28.4984C169.935 28.4454 169.767 28.4242 169.6 28.4363C169.426 28.4341 169.252 28.4599 169.085 28.5126C168.941 28.556 168.805 28.6239 168.683 28.7134C168.578 28.7922 168.49 28.892 168.426 29.0065C168.365 29.1144 168.333 29.2361 168.333 29.3598H167.328C167.33 29.1419 167.387 28.9278 167.493 28.7374C167.61 28.5235 167.768 28.335 167.959 28.1833C168.179 28.0094 168.427 27.8737 168.691 27.7818C169.001 27.6761 169.326 27.6245 169.653 27.6292C169.95 27.626 170.247 27.6666 170.533 27.7497C170.787 27.823 171.023 27.9489 171.225 28.1191C171.42 28.2873 171.574 28.4973 171.675 28.7334C171.788 29.0056 171.843 29.2982 171.836 29.5927V32.3151C171.837 32.525 171.855 32.7344 171.889 32.9415C171.915 33.1359 171.967 33.3261 172.041 33.5077V33.592L171 33.588ZM169.339 32.8251C169.512 32.8265 169.684 32.8007 169.85 32.7488C170.002 32.7015 170.148 32.6354 170.284 32.5521C170.408 32.4752 170.522 32.382 170.622 32.275C170.712 32.1779 170.788 32.0684 170.847 31.9497V30.7451H170.01C169.552 30.7202 169.095 30.8128 168.683 31.0142C168.538 31.0909 168.417 31.2069 168.335 31.3489C168.252 31.4909 168.211 31.6532 168.217 31.8172C168.215 31.9542 168.238 32.0903 168.285 32.2188C168.334 32.3362 168.41 32.4407 168.506 32.5239C168.608 32.6159 168.727 32.6868 168.856 32.7327C169.012 32.7887 169.177 32.8159 169.343 32.8131" fill="#2A3A7E"/>
<path d="M179.954 27.7383H180.955V33.5887H179.954V29.3203L177.251 33.5887H176.25V27.7383H177.251V32.0106L179.954 27.7383Z" fill="#2A3A7E"/>
<path d="M64.0839 41.6354C64.0887 42.042 64.0373 42.4474 63.931 42.84C63.8412 43.1771 63.6913 43.4954 63.4887 43.7796C63.2985 44.045 63.0464 44.2602 62.7542 44.4064C62.462 44.5527 62.1384 44.6256 61.8117 44.6188C61.4816 44.6257 61.1536 44.567 60.8465 44.4462C60.5745 44.3342 60.3313 44.1627 60.1347 43.9442V46.755H59.1172V38.648H60.0341L60.0824 39.2984C60.2751 39.0575 60.5216 38.865 60.8022 38.7363C61.111 38.5998 61.4459 38.5327 61.7835 38.5395C62.1219 38.5332 62.4569 38.6075 62.7608 38.7564C63.0479 38.8946 63.2986 39.0981 63.4927 39.3506C63.6982 39.6332 63.8483 39.952 63.9351 40.2902C64.0371 40.6836 64.0871 41.0886 64.0839 41.4949V41.6354ZM63.0825 41.523C63.0837 41.2459 63.0527 40.9697 62.99 40.6998C62.9358 40.4585 62.8391 40.2287 62.7045 40.0212C62.5781 39.8307 62.4087 39.6725 62.2098 39.5594C61.9929 39.4419 61.7487 39.3837 61.502 39.3908C61.3458 39.3895 61.1902 39.4097 61.0395 39.451C60.7771 39.523 60.542 39.6712 60.3639 39.8767C60.278 39.9757 60.2025 40.0834 60.1387 40.1979V43.0087C60.2025 43.1232 60.278 43.2308 60.3639 43.3299C60.4504 43.428 60.5507 43.5132 60.6615 43.5829C60.779 43.6554 60.9063 43.7108 61.0395 43.7475C61.1928 43.7892 61.3512 43.8095 61.51 43.8077C61.7546 43.8141 61.9964 43.7544 62.2098 43.6351C62.4068 43.5193 62.5747 43.3599 62.7004 43.1693C62.8354 42.9604 62.9321 42.7293 62.986 42.4867C63.0486 42.2141 63.0797 41.9352 63.0785 41.6555L63.0825 41.523Z" fill="#2A3A7E"/>
<path d="M69.2108 44.4982C69.1707 44.4113 69.1423 44.3195 69.1263 44.2252C69.1062 44.1168 69.0861 44.0003 69.07 43.8799C68.9715 43.9803 68.8653 44.073 68.7523 44.1569C68.6267 44.2482 68.4919 44.3262 68.3502 44.3898C68.2061 44.4581 68.0551 44.5106 67.8997 44.5464C67.7308 44.5846 67.5581 44.6034 67.385 44.6026C67.1109 44.6048 66.8386 44.5585 66.5807 44.4661C66.3513 44.3855 66.1396 44.2614 65.9573 44.1007C65.7854 43.9482 65.6483 43.7606 65.5552 43.5506C65.4607 43.3369 65.4127 43.1056 65.4144 42.872C65.4089 42.5842 65.4723 42.2992 65.5994 42.0408C65.7228 41.7999 65.9037 41.593 66.1262 41.4385C66.3785 41.2652 66.6608 41.14 66.9587 41.0691C67.3154 40.9826 67.6815 40.9408 68.0485 40.9446H69.0459V40.4869C69.0534 40.3337 69.0295 40.1805 68.9756 40.0369C68.9216 39.8933 68.8388 39.7622 68.7322 39.6517C68.6063 39.5415 68.4596 39.4574 68.3008 39.4043C68.142 39.3512 67.9743 39.3302 67.8073 39.3425C67.6327 39.3407 67.459 39.3664 67.2925 39.4188C67.1475 39.4631 67.0114 39.5324 66.8903 39.6236C66.785 39.7022 66.6973 39.8021 66.6329 39.9167C66.5725 40.0247 66.5406 40.1463 66.5404 40.2701H65.5552C65.5572 40.0521 65.6139 39.8381 65.72 39.6477C65.8371 39.4339 65.9957 39.2455 66.1865 39.0935C66.4061 38.9195 66.6536 38.7837 66.9185 38.692C67.2276 38.5858 67.5528 38.5342 67.8796 38.5394C68.1775 38.5363 68.4743 38.5769 68.7604 38.6599C69.0139 38.7324 69.2494 38.8568 69.4521 39.0253C69.6466 39.1936 69.8006 39.4036 69.9025 39.6396C70.0154 39.9118 70.0702 40.2044 70.0634 40.4989V43.2173C70.0643 43.4272 70.0817 43.6366 70.1156 43.8437C70.1425 44.0381 70.1939 44.2284 70.2685 44.4099V44.4942L69.2108 44.4982ZM67.5499 43.7353C67.723 43.7364 67.8953 43.7106 68.0606 43.659C68.2129 43.6115 68.3588 43.5454 68.4949 43.4623C68.6196 43.3857 68.7333 43.2925 68.8328 43.1852C68.9231 43.0882 68.999 42.9786 69.058 42.86V41.6554H68.2255C67.7674 41.6304 67.3105 41.723 66.8984 41.9244C66.753 42.0011 66.6322 42.1171 66.5497 42.2591C66.4672 42.4011 66.4264 42.5634 66.4319 42.7275C66.4292 42.8644 66.4524 43.0006 66.5002 43.129C66.5447 43.2503 66.6178 43.3591 66.7134 43.4462C66.8162 43.5397 66.9364 43.612 67.0673 43.659C67.2222 43.7132 67.3857 43.739 67.5499 43.7353Z" fill="#2A3A7E"/>
<path d="M74.2075 43.7877C74.3813 43.7892 74.5541 43.7606 74.7182 43.7034C74.8741 43.6494 75.0197 43.5693 75.1485 43.4664C75.2708 43.3675 75.3732 43.2462 75.4501 43.1091C75.5268 42.9704 75.5734 42.8172 75.5869 42.6594H76.536C76.5212 42.9197 76.4484 43.1735 76.3228 43.4022C76.1939 43.6392 76.0221 43.8502 75.8161 44.0246C75.5994 44.2066 75.3533 44.3506 75.0882 44.4502C74.8072 44.5581 74.5085 44.6126 74.2075 44.6108C73.8111 44.6196 73.4179 44.5386 73.0573 44.3739C72.7455 44.2245 72.4707 44.0078 72.253 43.7395C72.0316 43.4651 71.8663 43.1499 71.7664 42.8119C71.6582 42.4484 71.604 42.0709 71.6055 41.6917V41.4668C71.604 41.0875 71.6582 40.7101 71.7664 40.3465C71.866 40.0072 72.0313 39.6907 72.253 39.4149C72.471 39.1469 72.7457 38.9303 73.0573 38.7805C73.4156 38.6179 73.806 38.5383 74.1994 38.5476C74.5177 38.5431 74.8341 38.5975 75.1324 38.7082C75.3999 38.8095 75.6456 38.9608 75.8563 39.1539C76.0604 39.3437 76.2233 39.5733 76.3349 39.8285C76.4514 40.0937 76.5169 40.3784 76.5279 40.6677H75.607C75.5932 40.493 75.5497 40.3219 75.4783 40.1618C75.4087 40.0115 75.3119 39.8754 75.1928 39.7603C75.0699 39.6413 74.9251 39.5472 74.7665 39.4832C74.5887 39.4002 74.3956 39.355 74.1994 39.3507C73.93 39.3405 73.6629 39.4044 73.4273 39.5354C73.226 39.6539 73.0563 39.8192 72.9326 40.0172C72.8053 40.2244 72.7167 40.453 72.6712 40.6918C72.6208 40.9403 72.5952 41.1932 72.5948 41.4467V41.6716C72.5947 41.9291 72.6203 42.186 72.6712 42.4385C72.7173 42.6772 72.8059 42.9056 72.9326 43.1131C73.0558 43.3115 73.2256 43.4769 73.4273 43.5949C73.6657 43.7261 73.9354 43.7899 74.2075 43.7796" fill="#2A3A7E"/>
<path d="M79.8569 40.7796L81.1599 38.6475H82.3262L80.4119 41.5385L82.3865 44.4979H81.2283L79.877 42.3055L78.5217 44.4979H77.3555L79.3341 41.5385L77.4158 38.6475H78.574L79.8569 40.7796Z" fill="#2A3A7E"/>
<path d="M83.3558 41.5188C83.3514 41.1178 83.4139 40.7188 83.5408 40.3383C83.6562 39.993 83.8364 39.6728 84.0716 39.3947C84.3013 39.1273 84.5868 38.9135 84.9081 38.7683C85.2559 38.6136 85.6334 38.5368 86.0141 38.5434C86.3987 38.5363 86.7802 38.6131 87.1321 38.7683C87.4543 38.914 87.741 39.1277 87.9726 39.3947C88.2091 39.6719 88.3894 39.9924 88.5034 40.3383C88.6295 40.719 88.692 41.1178 88.6884 41.5188V41.6393C88.6921 42.0402 88.6296 42.4391 88.5034 42.8198C88.39 43.1647 88.2096 43.484 87.9726 43.7594C87.7406 44.0249 87.4539 44.2372 87.1321 44.3818C86.7807 44.5295 86.4034 44.6057 86.0221 44.6057C85.6409 44.6057 85.2635 44.5295 84.9122 44.3818C84.5903 44.2373 84.3036 44.025 84.0716 43.7594C83.8342 43.4837 83.6525 43.1646 83.5368 42.8198C83.4099 42.4393 83.3474 42.0403 83.3518 41.6393L83.3558 41.5188ZM84.3612 41.6393C84.3599 41.9184 84.3951 42.1964 84.4658 42.4664C84.5273 42.7106 84.6322 42.9418 84.7754 43.1491C84.9107 43.3416 85.0881 43.5009 85.2942 43.6148C85.5193 43.7285 85.7679 43.7877 86.0201 43.7877C86.2723 43.7877 86.521 43.7285 86.746 43.6148C86.9528 43.5018 87.1304 43.3424 87.2648 43.1491C87.407 42.9412 87.5118 42.7102 87.5745 42.4664C87.646 42.1966 87.6812 41.9184 87.679 41.6393V41.5188C87.6806 41.241 87.6455 40.9642 87.5745 40.6957C87.5117 40.45 87.4055 40.2174 87.2608 40.009C87.1242 39.8151 86.9454 39.6545 86.738 39.5392C86.5135 39.4178 86.2612 39.3569 86.006 39.3626C85.7547 39.3569 85.5063 39.4179 85.2862 39.5392C85.0808 39.6559 84.9037 39.8163 84.7674 40.009C84.6238 40.2175 84.5189 40.4501 84.4577 40.6957C84.3877 40.9644 84.3525 41.2411 84.3532 41.5188L84.3612 41.6393Z" fill="#2A3A7E"/>
<path d="M90.134 43.6789C90.252 43.5397 90.3659 43.3952 90.4758 43.2453C90.5975 43.0786 90.6988 42.8979 90.7775 42.7072C90.879 42.4594 90.9571 42.2026 91.0107 41.9403C91.0842 41.5761 91.1312 41.207 91.1515 40.8361L91.2359 38.6396H95.0122V43.6749H95.7642V46.2126H94.7629V44.4941H90.6769V46.2126H89.6836V43.6749L90.134 43.6789ZM92.1448 40.8401C92.1297 41.155 92.0961 41.4687 92.0443 41.7797C92.0003 42.0419 91.9385 42.3008 91.8593 42.5546C91.7914 42.7698 91.7067 42.9792 91.6059 43.181C91.5189 43.3548 91.4181 43.5213 91.3043 43.6789H94.0028V39.5712H92.2011L92.1448 40.8401Z" fill="#2A3A7E"/>
<path d="M101.897 44.4979H100.891V41.9963H98.2007V44.4979H97.1953V38.6475H98.2007V41.1812H100.891V38.6475H101.897V44.4979Z" fill="#2A3A7E"/>
<path d="M104.83 40.6632H106.318C106.639 40.6579 106.958 40.7068 107.263 40.8077C107.516 40.8936 107.748 41.0303 107.946 41.2093C108.124 41.3757 108.262 41.5803 108.349 41.8076C108.444 42.0491 108.492 42.3068 108.489 42.5665C108.491 42.8261 108.443 43.0836 108.349 43.3254C108.262 43.5573 108.124 43.7672 107.946 43.9397C107.748 44.1181 107.515 44.2547 107.263 44.3413C106.959 44.4477 106.639 44.4994 106.318 44.4938H103.824V38.6475H104.826L104.83 40.6632ZM104.83 41.4663V43.6667H106.318C106.505 43.6713 106.693 43.6399 106.869 43.5743C107.008 43.5214 107.133 43.4377 107.235 43.3294C107.326 43.2305 107.395 43.1126 107.436 42.9841C107.477 42.8542 107.497 42.7187 107.496 42.5825C107.497 42.4464 107.476 42.3109 107.436 42.181C107.394 42.0481 107.326 41.9251 107.235 41.8196C107.134 41.7057 107.009 41.6164 106.869 41.5586C106.694 41.4874 106.506 41.4533 106.318 41.4582L104.83 41.4663ZM110.597 44.4979H109.591V38.6475H110.597V44.4979Z" fill="#2A3A7E"/>
<path d="M115.019 44.6072C114.64 44.6113 114.264 44.539 113.913 44.3944C113.592 44.2609 113.303 44.0611 113.065 43.8081C112.824 43.5498 112.639 43.245 112.522 42.9127C112.392 42.548 112.328 42.1633 112.333 41.7763V41.5475C112.325 41.1124 112.397 40.6796 112.546 40.2706C112.672 39.9205 112.866 39.5985 113.117 39.3229C113.342 39.0749 113.616 38.8754 113.921 38.7367C114.222 38.6021 114.548 38.5323 114.878 38.5319C115.251 38.5233 115.621 38.5988 115.96 38.7528C116.254 38.8917 116.51 39.0981 116.708 39.3551C116.913 39.6258 117.062 39.9342 117.146 40.2625C117.243 40.6349 117.29 41.0183 117.287 41.4029V41.8526H113.318C113.323 42.1109 113.368 42.3668 113.451 42.6115C113.526 42.8352 113.643 43.0423 113.796 43.2219C113.951 43.4029 114.145 43.5472 114.362 43.6444C114.58 43.7417 114.817 43.7893 115.055 43.784C115.37 43.7939 115.681 43.719 115.956 43.5672C116.205 43.4188 116.424 43.2239 116.599 42.993L117.211 43.4708C117.11 43.6155 116.996 43.7499 116.869 43.8724C116.728 44.0124 116.57 44.1338 116.398 44.2337C116.206 44.346 115.999 44.4312 115.783 44.4867C115.521 44.5552 115.25 44.5877 114.979 44.5831M114.886 39.351C114.696 39.3481 114.508 39.3852 114.333 39.46C114.159 39.5347 114.002 39.6453 113.873 39.7847C113.73 39.9382 113.617 40.1165 113.539 40.3107C113.445 40.5407 113.385 40.7826 113.358 41.0295H116.294V40.9572C116.284 40.7617 116.253 40.5678 116.201 40.379C116.152 40.1941 116.069 40.0199 115.956 39.865C115.844 39.711 115.698 39.5846 115.53 39.4956C115.33 39.396 115.109 39.3477 114.886 39.3551" fill="#2A3A7E"/>
<path d="M125.039 43.1728L127.03 38.6475H128.281V44.4979H127.279V40.2416L125.385 44.4979H124.694L122.759 40.1492V44.4979H121.758V38.6475H123.057L125.039 43.1728Z" fill="#2A3A7E"/>
<path d="M133.742 44.4982C133.702 44.4112 133.674 44.3195 133.657 44.2252C133.637 44.1168 133.617 44.0003 133.601 43.8799C133.503 43.9806 133.397 44.0733 133.283 44.1569C133.158 44.2482 133.023 44.3262 132.881 44.3898C132.737 44.4582 132.586 44.5107 132.431 44.5464C132.262 44.5846 132.089 44.6034 131.916 44.6026C131.642 44.6048 131.37 44.5585 131.112 44.4661C130.882 44.3854 130.671 44.2613 130.488 44.1007C130.317 43.9455 130.18 43.7557 130.087 43.544C129.994 43.3322 129.947 43.1032 129.95 42.872C129.944 42.5842 130.007 42.2992 130.135 42.0408C130.258 41.8001 130.439 41.5933 130.661 41.4385C130.914 41.2653 131.196 41.1401 131.494 41.0691C131.851 40.9826 132.217 40.9408 132.584 40.9446H133.581V40.4869C133.589 40.3337 133.565 40.1805 133.511 40.0369C133.457 39.8933 133.374 39.7622 133.267 39.6517C133.141 39.5415 132.995 39.4574 132.836 39.4043C132.677 39.3512 132.509 39.3302 132.342 39.3425C132.168 39.3407 131.994 39.3664 131.828 39.4188C131.683 39.4631 131.547 39.5324 131.425 39.6236C131.32 39.7022 131.232 39.8021 131.168 39.9167C131.107 40.0246 131.075 40.1463 131.076 40.2701H130.07C130.072 40.0521 130.129 39.8381 130.235 39.6477C130.352 39.4339 130.511 39.2455 130.702 39.0935C130.921 38.9196 131.169 38.7839 131.434 38.692C131.743 38.5858 132.068 38.5342 132.395 38.5394C132.693 38.5363 132.989 38.5769 133.275 38.6599C133.529 38.7321 133.765 38.8565 133.967 39.0253C134.162 39.1934 134.316 39.4035 134.418 39.6396C134.53 39.9118 134.585 40.2044 134.578 40.4989V43.2173C134.579 43.4272 134.597 43.6366 134.631 43.8437C134.658 44.0381 134.709 44.2282 134.784 44.4099V44.4942L133.742 44.4982ZM132.081 43.7353C132.253 43.736 132.424 43.7103 132.588 43.659C132.74 43.6114 132.886 43.5453 133.022 43.4623C133.147 43.3857 133.26 43.2925 133.36 43.1852C133.45 43.0881 133.526 42.9786 133.585 42.86V41.6554H132.753C132.294 41.6304 131.838 41.723 131.425 41.9244C131.28 42.0007 131.159 42.1166 131.076 42.2587C130.994 42.4008 130.953 42.5633 130.959 42.7275C130.956 42.8644 130.98 43.0006 131.027 43.129C131.072 43.2503 131.145 43.3591 131.24 43.4462C131.342 43.5393 131.461 43.6116 131.59 43.659C131.747 43.7136 131.911 43.7394 132.077 43.7353" fill="#2A3A7E"/>
<path d="M140.746 39.4586H138.779V44.4939H137.778V39.4586H135.848V38.6475H140.746V39.4586Z" fill="#2A3A7E"/>
<path d="M144.378 44.6072C143.999 44.6113 143.623 44.539 143.272 44.3944C142.951 44.2609 142.662 44.0611 142.424 43.8081C142.184 43.5498 141.999 43.245 141.881 42.9127C141.751 42.548 141.687 42.1633 141.692 41.7763V41.5475C141.684 41.1124 141.757 40.6796 141.905 40.2706C142.032 39.9205 142.226 39.5985 142.476 39.3229C142.702 39.0749 142.975 38.8754 143.28 38.7367C143.582 38.6021 143.908 38.5323 144.238 38.5319C144.61 38.5233 144.98 38.5988 145.319 38.7528C145.613 38.8917 145.869 39.0981 146.067 39.3551C146.272 39.6258 146.421 39.9342 146.506 40.2625C146.602 40.6349 146.65 41.0183 146.647 41.4029V41.8526H142.677C142.682 42.1109 142.727 42.3668 142.81 42.6115C142.885 42.8352 143.003 43.0423 143.156 43.2219C143.311 43.4029 143.504 43.5472 143.722 43.6444C143.939 43.7417 144.176 43.7893 144.415 43.784C144.729 43.7939 145.04 43.719 145.315 43.5672C145.565 43.4188 145.783 43.2239 145.959 42.993L146.57 43.4708C146.47 43.6155 146.355 43.7499 146.228 43.8724C146.088 44.0124 145.929 44.1338 145.758 44.2337C145.565 44.346 145.358 44.4312 145.142 44.4867C144.88 44.5552 144.609 44.5877 144.338 44.5831M144.262 39.351C144.072 39.3481 143.883 39.3852 143.709 39.46C143.534 39.5347 143.377 39.6453 143.248 39.7847C143.106 39.9382 142.993 40.1165 142.915 40.3107C142.821 40.5407 142.76 40.7826 142.734 41.0295H145.669V40.9572C145.659 40.7617 145.628 40.5678 145.577 40.379C145.527 40.1941 145.444 40.0199 145.331 39.865C145.22 39.711 145.074 39.5846 144.905 39.4956C144.706 39.396 144.485 39.3477 144.262 39.3551" fill="#2A3A7E"/>
<path d="M153.013 41.6354C153.018 42.0421 152.966 42.4474 152.86 42.84C152.77 43.1728 152.622 43.4869 152.422 43.7676C152.232 44.033 151.98 44.2482 151.687 44.3944C151.395 44.5406 151.072 44.6135 150.745 44.6068C150.415 44.6137 150.087 44.555 149.78 44.4341C149.508 44.3221 149.264 44.1506 149.068 43.9322V46.743H148.066V38.648H148.983L149.032 39.2985C149.224 39.0576 149.471 38.865 149.751 38.7363C150.06 38.5997 150.395 38.5326 150.733 38.5396C151.071 38.5333 151.406 38.6077 151.71 38.7564C151.99 38.8971 152.234 39.1005 152.422 39.3507C152.628 39.633 152.778 39.9519 152.864 40.2903C152.966 40.6836 153.016 41.0886 153.013 41.4949V41.6354ZM152.012 41.523C152.013 41.2459 151.982 40.9697 151.919 40.6998C151.865 40.4583 151.769 40.2285 151.634 40.0212C151.509 39.831 151.34 39.6728 151.143 39.5595C150.925 39.4412 150.679 39.383 150.431 39.3908C150.275 39.3895 150.119 39.4098 149.969 39.451C149.835 39.4889 149.708 39.5457 149.591 39.6197C149.48 39.6911 149.38 39.7776 149.293 39.8767C149.206 39.9756 149.129 40.0832 149.064 40.1979V43.0087C149.129 43.1234 149.206 43.231 149.293 43.3299C149.379 43.4282 149.48 43.5134 149.591 43.5829C149.708 43.6554 149.835 43.7109 149.969 43.7475C150.122 43.7892 150.28 43.8094 150.439 43.8077C150.684 43.8139 150.925 43.7543 151.139 43.6351C151.336 43.5195 151.504 43.3601 151.63 43.1693C151.765 42.9608 151.862 42.7295 151.915 42.4867C151.978 42.2141 152.009 41.9352 152.008 41.6555L152.012 41.523Z" fill="#2A3A7E"/>
<path d="M158.305 38.6475H159.311V44.4979H158.305V40.2295L155.607 44.4979H154.605V38.6475H155.607V42.9158L158.305 38.6475Z" fill="#2A3A7E"/>
<path d="M164.765 44.4982C164.726 44.4112 164.697 44.3195 164.681 44.2252C164.661 44.1168 164.641 44.0003 164.625 43.8799C164.526 43.9806 164.42 44.0733 164.307 44.1569C164.181 44.2482 164.046 44.3262 163.905 44.3898C163.761 44.4582 163.61 44.5107 163.454 44.5464C163.285 44.5846 163.113 44.6034 162.94 44.6026C162.665 44.6048 162.393 44.5585 162.135 44.4661C161.906 44.3854 161.694 44.2613 161.512 44.1007C161.34 43.9455 161.204 43.7557 161.111 43.544C161.018 43.3322 160.971 43.1032 160.973 42.872C160.967 42.5842 161.031 42.2992 161.158 42.0408C161.282 41.8001 161.463 41.5933 161.685 41.4385C161.937 41.2653 162.219 41.1401 162.517 41.0691C162.874 40.9826 163.24 40.9408 163.607 40.9446H164.604V40.4869C164.612 40.3337 164.588 40.1805 164.534 40.0369C164.48 39.8933 164.397 39.7622 164.291 39.6517C164.165 39.5415 164.018 39.4574 163.859 39.4043C163.701 39.3512 163.533 39.3302 163.366 39.3425C163.191 39.3407 163.018 39.3664 162.851 39.4188C162.706 39.4631 162.57 39.5324 162.449 39.6236C162.344 39.7022 162.256 39.8021 162.192 39.9167C162.131 40.0246 162.099 40.1463 162.099 40.2701H161.094C161.096 40.0521 161.152 39.8381 161.259 39.6477C161.376 39.4339 161.534 39.2455 161.725 39.0935C161.945 38.9196 162.192 38.7839 162.457 38.692C162.766 38.5858 163.091 38.5342 163.418 38.5394C163.716 38.5363 164.013 38.5769 164.299 38.6599C164.552 38.7321 164.788 38.8565 164.991 39.0253C165.185 39.1934 165.339 39.4035 165.441 39.6396C165.554 39.9118 165.609 40.2044 165.602 40.4989V43.2173C165.603 43.4272 165.62 43.6366 165.654 43.8437C165.681 44.0381 165.733 44.2282 165.807 44.4099V44.4942L164.765 44.4982ZM163.104 43.7353C163.276 43.736 163.447 43.7103 163.611 43.659C163.763 43.6114 163.909 43.5453 164.045 43.4623C164.17 43.3857 164.284 43.2925 164.383 43.1852C164.474 43.0881 164.549 42.9786 164.609 42.86V41.6554H163.776C163.318 41.6304 162.861 41.723 162.449 41.9244C162.303 42.0007 162.182 42.1166 162.1 42.2587C162.017 42.4008 161.976 42.5633 161.982 42.7275C161.98 42.8644 162.003 43.0006 162.051 43.129C162.095 43.2503 162.168 43.3591 162.264 43.4462C162.365 43.5393 162.484 43.6116 162.614 43.659C162.77 43.7136 162.935 43.7394 163.1 43.7353" fill="#2A3A7E"/>
<path d="M172.22 38.6475V44.4979H171.214V39.4746H169.228L169.155 41.149C169.137 41.6387 169.088 42.1268 169.01 42.6106C168.959 42.9751 168.849 43.3289 168.685 43.6587C168.553 43.9212 168.347 44.1402 168.094 44.2891C167.809 44.4393 167.49 44.5127 167.169 44.5019H166.875L166.895 43.6105H167.112C167.282 43.6166 167.45 43.5688 167.591 43.4739C167.73 43.3608 167.835 43.2104 167.892 43.0403C167.979 42.795 168.036 42.5402 168.061 42.2814C168.099 41.9709 168.128 41.5974 168.15 41.1611L168.258 38.6595L172.22 38.6475Z" fill="#2A3A7E"/>
<path d="M175.154 40.6632H176.642C176.963 40.6578 177.283 40.7066 177.587 40.8077C177.84 40.8935 178.073 41.0302 178.271 41.2093C178.449 41.3757 178.586 41.5803 178.673 41.8076C178.769 42.0491 178.817 42.3068 178.814 42.5665C178.816 42.8261 178.768 43.0836 178.673 43.3254C178.586 43.5573 178.449 43.7672 178.271 43.9397C178.072 44.1182 177.84 44.2548 177.587 44.3413C177.284 44.4479 176.964 44.4995 176.642 44.4939H174.137V38.6475H175.138L175.154 40.6632ZM175.154 41.4663V43.6667H176.642C176.83 43.6713 177.017 43.6399 177.193 43.5743C177.332 43.5214 177.457 43.4377 177.559 43.3294C177.651 43.2305 177.719 43.1126 177.76 42.9841C177.801 42.8542 177.822 42.7187 177.821 42.5825C177.821 42.4464 177.801 42.3109 177.76 42.181C177.719 42.0481 177.65 41.9251 177.559 41.8196C177.459 41.7057 177.334 41.6164 177.193 41.5586C177.018 41.4874 176.831 41.4533 176.642 41.4582L175.154 41.4663ZM180.921 44.4818H179.916V38.6475H180.921V44.4818Z" fill="#2A3A7E"/>
</g>
<defs>
<clipPath id="clip0_1010_7167">
<rect width="181" height="47" fill="white"/>
</clipPath>
</defs>
</svg>
