<?xml version="1.0" encoding="utf-8"?>
<!-- Generator: Adobe Illustrator 22.1.0, SVG Export Plug-In . SVG Version: 6.00 Build 0)  -->
<svg version="1.1" id="Слой_1" xmlns="http://www.w3.org/2000/svg" xmlns:xlink="http://www.w3.org/1999/xlink" x="0px" y="0px"
	 viewBox="0 0 150 50" style="enable-background:new 0 0 150 50;" xml:space="preserve">
<style type="text/css">
	.st0{fill:#36AFEB;}
	.st1{fill:#333333;}
	.st2{fill-rule:evenodd;clip-rule:evenodd;fill:#36AFEB;}
</style>
<g>
	<path class="st0" d="M91.1,33.2c0.1-1,0.1-2.4,0.1-3.6V12.7h2.5v8.8h0.1c0.9-1.6,2.5-2.6,4.8-2.6c3.5,0,5.9,2.9,5.9,7.1
		c0,5-3.1,7.5-6.3,7.5c-2,0-3.6-0.8-4.7-2.6h-0.1l-0.1,2.3H91.1z M93.7,27.6c0,0.3,0.1,0.6,0.1,0.9c0.5,1.8,2,3,3.8,3
		c2.6,0,4.2-2.2,4.2-5.4c0-2.8-1.4-5.2-4.1-5.2c-1.7,0-3.3,1.2-3.9,3.1c-0.1,0.3-0.1,0.6-0.1,1V27.6z"/>
	<path class="st0" d="M115.3,33.2l-0.2-1.8H115c-0.8,1.1-2.3,2.1-4.3,2.1c-2.8,0-4.3-2-4.3-4c0-3.4,3-5.2,8.4-5.2V24
		c0-1.2-0.3-3.2-3.2-3.2c-1.3,0-2.6,0.4-3.6,1l-0.6-1.7c1.2-0.7,2.8-1.2,4.6-1.2c4.3,0,5.3,2.9,5.3,5.7v5.2c0,1.2,0.1,2.4,0.2,3.3
		H115.3z M114.9,26.1c-2.8-0.1-5.9,0.4-5.9,3.1c0,1.6,1.1,2.4,2.4,2.4c1.8,0,3-1.2,3.4-2.3c0.1-0.3,0.1-0.5,0.1-0.8V26.1z"/>
	<path class="st0" d="M121.4,33.2c0.1-1,0.1-2.4,0.1-3.6V12.7h2.5v8.8h0.1c0.9-1.6,2.5-2.6,4.8-2.6c3.5,0,5.9,2.9,5.9,7.1
		c0,5-3.1,7.5-6.3,7.5c-2,0-3.6-0.8-4.7-2.6h-0.1l-0.1,2.3H121.4z M124,27.6c0,0.3,0.1,0.6,0.1,0.9c0.5,1.8,2,3,3.8,3
		c2.6,0,4.2-2.2,4.2-5.4c0-2.8-1.4-5.2-4.1-5.2c-1.7,0-3.3,1.2-3.9,3.1c-0.1,0.3-0.1,0.6-0.1,1V27.6z"/>
	<path class="st0" d="M138.6,19.2l3.1,8.2c0.3,0.9,0.7,2,0.9,2.9h0.1c0.3-0.8,0.5-1.9,0.9-2.9l2.8-8.2h2.7l-3.8,9.9
		c-1.8,4.8-3.1,7.2-4.8,8.7c-1.2,1.1-2.5,1.5-3.1,1.6l-0.6-2.1c0.6-0.2,1.5-0.6,2.2-1.2c0.7-0.5,1.6-1.5,2.1-2.8
		c0.1-0.3,0.2-0.5,0.2-0.6c0-0.1-0.1-0.3-0.2-0.7l-5.2-12.8H138.6z"/>
</g>
<g>
	<path class="st1" d="M46.5,22.9c0-1.4,0-2.6-0.1-3.8h2.2l0.1,2.2h0.1c0.8-1.3,2.1-2.6,4.4-2.6c1.9,0,3.3,1.2,3.9,2.8h0.1
		c0.4-0.8,1-1.4,1.6-1.8c0.8-0.6,1.8-1,3.1-1c1.8,0,4.6,1.2,4.6,6v8.2h-2.5v-7.9c0-2.7-1-4.3-3-4.3c-1.4,0-2.6,1.1-3,2.3
		c-0.1,0.3-0.2,0.8-0.2,1.3v8.6h-2.5v-8.4c0-2.2-1-3.8-2.9-3.8c-1.6,0-2.7,1.3-3.1,2.5C49,23.8,49,24.3,49,24.7v8.4h-2.5V22.9z"/>
	<path class="st1" d="M73.3,15.2c0,0.9-0.6,1.6-1.6,1.6c-0.9,0-1.5-0.7-1.5-1.6c0-0.9,0.7-1.6,1.6-1.6
		C72.7,13.7,73.3,14.3,73.3,15.2z M70.5,33.1V19.2H73v13.9H70.5z"/>
	<path class="st1" d="M85,33.1l-0.2-1.8h-0.1c-0.8,1.1-2.3,2.1-4.3,2.1c-2.8,0-4.3-2-4.3-4c0-3.4,3-5.2,8.4-5.2v-0.3
		c0-1.2-0.3-3.2-3.2-3.2c-1.3,0-2.6,0.4-3.6,1l-0.6-1.7c1.2-0.7,2.8-1.2,4.6-1.2c4.3,0,5.3,2.9,5.3,5.7v5.2c0,1.2,0.1,2.4,0.2,3.3
		H85z M84.6,26c-2.8-0.1-5.9,0.4-5.9,3.1c0,1.6,1.1,2.4,2.4,2.4c1.8,0,3-1.2,3.4-2.3c0.1-0.3,0.1-0.5,0.1-0.8V26z"/>
</g>
<g>
	<path class="st2" d="M5.3,29.9c0,8.4,9.6,14.1,16,18.2c2.5,1.6,13.4-6.6,15.4-9.3c1.2-1.8,2.5-3.2,3.3-5.3c0.2-0.4,0.8-2,0.9-2.5
		c0.1-0.3,0.3-1.7-0.5-1.1c-0.5,0.4-0.8,1.2-1.6,2.1c-0.3,0.4-0.8,0.9-1.3,1.3c-1.8,1.2-3.4,1.5-5,1.5c-3.3-0.1-6.1-2.6-7.3-5.5
		c-0.8-1.8-0.9-4.1-3.6-6.9l-0.9-0.8c-0.7-0.4-1.1-0.7-1.8-1c-2.1-0.7-2.7-0.9-5-0.5C9.2,20.9,5.3,25.4,5.3,29.9L5.3,29.9z"/>
	<path class="st2" d="M16.4,1.4c4.9,0,8.9,4,8.9,8.9s-4,8.9-8.9,8.9c-4.9,0-8.9-4-8.9-8.9S11.5,1.4,16.4,1.4L16.4,1.4z"/>
	<path class="st2" d="M32.8,20.2c3.5,0,6.3,2.8,6.3,6.3c0,3.5-2.8,6.3-6.3,6.3c-3.5,0-6.3-2.8-6.3-6.3
		C26.5,23.1,29.3,20.2,32.8,20.2L32.8,20.2z"/>
</g>
</svg>
