<svg width="229" height="53" viewBox="0 0 229 53" fill="none" xmlns="http://www.w3.org/2000/svg">
<g clip-path="url(#clip0_1010_7336)" filter="url(#filter0_d_1010_7336)">
<path fill-rule="evenodd" clip-rule="evenodd" d="M156.198 18.79L155.828 18.97C156.388 20.57 156.108 22.81 154.308 25.91C153.058 28.05 151.528 30.16 149.898 32.18C148.388 34.04 146.778 35.81 145.218 37.42C142.688 40.03 140.308 42.21 138.648 43.65H150.378C151.178 42.55 152.228 40.93 153.408 38.63C153.488 38.48 153.568 38.31 153.648 38.16C154.628 36.21 155.678 33.83 156.738 30.91C158.358 26.46 157.708 22.19 156.198 18.79Z" fill="#0C54A0"/>
<path fill-rule="evenodd" clip-rule="evenodd" d="M20.4805 38.33C21.5805 38.33 22.5605 38.27 23.4305 38.16C24.2905 38.05 24.9705 37.91 25.4705 37.76L28.7905 23.72H35.8605L31.3305 42.52C30.3505 42.97 28.8105 43.41 26.7205 43.82C24.6305 44.24 22.1605 44.44 19.3305 44.44C16.8405 44.44 14.6305 44.07 12.7005 43.34C10.7805 42.6 9.17047 41.55 7.89047 40.17C6.61047 38.8 5.63047 37.12 4.97047 35.16C4.31047 33.19 3.98047 30.99 3.98047 28.53C3.98047 25.36 4.51047 22.27 5.57047 19.27C6.63047 16.27 8.16047 13.6 10.1805 11.26C12.2005 8.91 14.6705 7.04 17.5905 5.62C20.5205 4.21 23.8305 3.5 27.5305 3.5C30.1705 3.5 32.4305 3.82 34.3005 4.46C36.1705 5.1 37.6705 5.8 38.8005 6.55L36.0305 12.21C35.0505 11.57 33.8005 10.98 32.2905 10.45C30.7805 9.93 29.0605 9.66 27.1405 9.66C24.6505 9.66 22.4305 10.19 20.4905 11.25C18.5505 12.3 16.8905 13.69 15.5405 15.41C14.1805 17.13 13.1505 19.08 12.4505 21.27C11.7505 23.46 11.4005 25.69 11.4005 27.95C11.4005 34.86 14.4205 38.31 20.4705 38.31" fill="#0C54A0"/>
<path fill-rule="evenodd" clip-rule="evenodd" d="M36.8906 32.95C36.8906 30.41 37.3006 27.97 38.1106 25.61C38.9206 23.25 40.0906 21.15 41.6206 19.33C43.1506 17.5 44.9906 16.03 47.1406 14.94C49.2906 13.84 51.7106 13.29 54.3906 13.29C57.2606 13.29 59.4906 14.03 61.0706 15.5C62.6606 16.97 63.4506 18.86 63.4506 21.16C63.4506 23.46 62.8706 25.46 61.7006 26.93C60.5306 28.4 59.0106 29.55 57.1506 30.38C55.2806 31.21 53.1606 31.78 50.8106 32.08C48.4506 32.39 46.0606 32.57 43.6506 32.65C43.6106 32.72 43.6006 32.8 43.6006 32.88V33.44C43.6006 36.88 45.7706 38.59 50.1106 38.59C52.6706 38.59 55.2406 38.06 57.8106 37L58.3806 42.56C57.4706 42.97 56.1906 43.39 54.5306 43.8C52.8706 44.22 50.9806 44.42 48.8706 44.42C46.7606 44.42 44.9406 44.12 43.4306 43.51C41.9206 42.91 40.6906 42.08 39.7206 41.02C38.7606 39.97 38.0506 38.75 37.5906 37.37C37.1406 35.99 36.9106 34.5 36.9106 32.93M53.3806 18.88C52.2506 18.88 51.1706 19.11 50.1606 19.56C49.1406 20 48.2306 20.63 47.4406 21.42C46.6506 22.22 45.9606 23.15 45.3706 24.23C44.7906 25.31 44.3606 26.47 44.1006 27.71C48.6306 27.56 51.9206 27.02 53.9806 26.07C56.0406 25.13 57.0606 23.71 57.0606 21.83C57.0606 21.07 56.7906 20.39 56.2406 19.78C55.6906 19.17 54.7406 18.88 53.3806 18.88Z" fill="#0C54A0"/>
<path fill-rule="evenodd" clip-rule="evenodd" d="M69.0991 15.2799C70.6091 14.8199 72.3291 14.3999 74.2791 14.0099C76.2191 13.6099 78.3491 13.4199 80.6491 13.4199C84.1191 13.4199 86.6591 14.2599 88.2891 15.9599C89.9091 17.6499 90.7191 19.9399 90.7191 22.8099C90.7191 23.5999 90.6591 24.4499 90.5191 25.3299C90.3891 26.2199 90.2291 27.1299 90.0291 28.0799L86.2991 43.6499H79.4591L82.9591 28.8199C83.1491 27.9799 83.3291 27.1299 83.5191 26.2699C83.7091 25.3999 83.8191 24.5699 83.8591 23.7799C83.8991 22.4599 83.5891 21.3699 82.9291 20.4999C82.2691 19.6299 80.9791 19.1999 79.0491 19.1999C77.4291 19.1999 76.0291 19.3699 74.8591 19.7099L69.1791 43.6599H62.2891L69.0891 15.2899L69.0991 15.2799Z" fill="#0C54A0"/>
<path fill-rule="evenodd" clip-rule="evenodd" d="M92.6992 32.95C92.6992 30.41 93.1092 27.97 93.9192 25.61C94.7292 23.25 95.8992 21.15 97.4292 19.33C98.9592 17.5 100.799 16.03 102.949 14.94C105.099 13.84 107.519 13.29 110.199 13.29C113.069 13.29 115.299 14.03 116.879 15.5C118.469 16.97 119.259 18.86 119.259 21.16C119.259 23.46 118.669 25.46 117.509 26.93C116.339 28.4 114.819 29.55 112.949 30.38C111.089 31.21 108.969 31.78 106.609 32.08C104.249 32.39 101.869 32.57 99.4492 32.65C99.4092 32.72 99.3992 32.8 99.3992 32.88V33.44C99.3992 36.88 101.569 38.59 105.909 38.59C108.479 38.59 111.049 38.06 113.609 37L114.179 42.56C113.279 42.97 111.989 43.39 110.329 43.8C108.669 44.22 106.779 44.42 104.669 44.42C102.559 44.42 100.749 44.12 99.2292 43.51C97.7192 42.91 96.4792 42.08 95.5192 41.02C94.5592 39.97 93.8492 38.75 93.3892 37.37C92.9392 35.99 92.7092 34.5 92.7092 32.93M109.189 18.88C108.059 18.88 106.979 19.11 105.959 19.56C104.939 20 104.029 20.63 103.239 21.42C102.449 22.22 101.759 23.15 101.179 24.23C100.589 25.31 100.169 26.47 99.8992 27.71C104.429 27.56 107.719 27.02 109.779 26.07C111.829 25.13 112.859 23.71 112.859 21.83C112.859 21.07 112.589 20.39 112.039 19.78C111.489 19.17 110.539 18.88 109.179 18.88H109.189Z" fill="#0C54A0"/>
<path fill-rule="evenodd" clip-rule="evenodd" d="M126.33 6.21984L133.46 5.08984L131.29 14.0298H140.98L139.62 19.6998H129.92L127.09 31.4198C126.91 32.2498 126.78 32.9398 126.71 33.4898C126.64 34.0398 126.6 34.5298 126.6 34.9898C126.6 35.4498 126.64 35.8898 126.74 36.3198C126.84 36.7498 127.02 37.1298 127.31 37.4498C127.59 37.7698 128.01 38.0398 128.56 38.2398C129.1 38.4398 129.85 38.5498 130.79 38.5498C131.81 38.5498 132.79 38.4098 133.73 38.1498C134.67 37.8898 135.51 37.5998 136.22 37.2998L136.73 42.7998C135.86 43.1698 134.77 43.5298 133.45 43.8798C132.13 44.2198 130.58 44.3898 128.81 44.3898C125.56 44.3898 123.24 43.6798 121.85 42.2598C120.45 40.8498 119.75 38.9098 119.75 36.4598C119.75 35.5598 119.81 34.6198 119.95 33.6598C120.08 32.6898 120.28 31.6698 120.54 30.5698L126.32 6.21984H126.33Z" fill="#0C54A0"/>
<path fill-rule="evenodd" clip-rule="evenodd" d="M160.522 32.43C160.522 29.86 160.932 27.42 161.742 25.1C162.552 22.78 163.712 20.75 165.222 18.99C166.732 17.23 168.582 15.85 170.762 14.82C172.952 13.81 175.442 13.29 178.232 13.29C179.702 13.29 181.052 13.42 182.282 13.66C183.512 13.91 184.672 14.28 185.762 14.77L183.332 20.27C182.652 19.97 181.902 19.7 181.062 19.47C180.232 19.24 179.212 19.13 178.002 19.13C176.382 19.13 174.912 19.46 173.622 20.12C172.312 20.77 171.212 21.67 170.302 22.8C169.402 23.94 168.702 25.28 168.212 26.83C167.722 28.38 167.482 30.02 167.482 31.75C167.482 32.73 167.592 33.62 167.802 34.44C168.002 35.25 168.342 35.97 168.822 36.59C169.292 37.21 169.942 37.69 170.772 38.03C171.602 38.37 172.642 38.54 173.892 38.54C175.142 38.54 176.412 38.37 177.592 38.03C178.782 37.69 179.702 37.35 180.342 37.01L180.912 42.62C180.042 43.03 178.892 43.43 177.452 43.83C176.012 44.23 174.392 44.42 172.582 44.42C170.512 44.42 168.712 44.11 167.202 43.49C165.692 42.87 164.432 42.02 163.432 40.94C162.432 39.86 161.692 38.6 161.222 37.14C160.752 35.69 160.512 34.12 160.512 32.41" fill="#0C54A0"/>
<path fill-rule="evenodd" clip-rule="evenodd" d="M193.871 44.44C190.361 44.44 187.681 43.4 185.831 41.32C183.981 39.25 183.051 36.51 183.051 33.11C183.051 30.92 183.391 28.66 184.071 26.31C184.751 23.98 185.791 21.85 187.181 19.92C188.581 17.99 190.331 16.41 192.451 15.16C194.561 13.91 197.051 13.29 199.921 13.29C203.431 13.29 206.111 14.32 207.961 16.38C209.811 18.44 210.731 21.16 210.731 24.56C210.731 26.79 210.401 29.07 209.741 31.42C209.081 33.76 208.061 35.89 206.681 37.82C205.301 39.74 203.551 41.32 201.421 42.58C199.291 43.82 196.771 44.44 193.861 44.44M199.071 19.07C197.601 19.07 196.291 19.5 195.141 20.35C193.991 21.2 193.031 22.29 192.251 23.6C191.481 24.92 190.881 26.37 190.471 27.93C190.051 29.5 189.841 31.02 189.841 32.49C189.841 34.38 190.201 35.87 190.921 36.96C191.641 38.06 192.901 38.61 194.711 38.61C196.181 38.61 197.491 38.18 198.641 37.33C199.791 36.48 200.751 35.41 201.531 34.11C202.311 32.8 202.901 31.36 203.311 29.78C203.721 28.2 203.931 26.69 203.931 25.25C203.931 23.36 203.571 21.86 202.861 20.75C202.141 19.64 200.881 19.07 199.071 19.07Z" fill="#0C54A0"/>
<path fill-rule="evenodd" clip-rule="evenodd" d="M158.02 9.0698C159.35 9.0698 160.53 8.5998 161.58 7.6498C162.63 6.6998 163.15 5.4798 163.15 3.9898C163.15 2.6898 162.74 1.7198 161.91 1.0498C161.09 0.379805 160.13 0.0498047 159.05 0.0498047C157.72 0.0498047 156.55 0.539805 155.52 1.5098C154.49 2.4698 153.98 3.6998 153.98 5.1998C153.98 6.4898 154.38 7.4598 155.19 8.1098C156 8.7498 156.94 9.0798 158.03 9.0798" fill="#0C54A0"/>
<path fill-rule="evenodd" clip-rule="evenodd" d="M147.751 14.4705C149.751 15.1305 151.991 15.4005 153.711 16.5105C153.991 16.3105 154.291 16.1505 154.601 15.9505C153.441 14.2505 150.921 12.0105 149.611 11.4905C145.781 9.96047 144.451 10.0105 140.961 8.23047C143.291 12.3505 144.821 13.5105 147.761 14.4705" fill="#0C54A0"/>
<path fill-rule="evenodd" clip-rule="evenodd" d="M149.129 33.1004C148.199 31.2204 147.749 28.3204 147.879 26.0804C147.919 25.3904 147.989 24.7504 148.099 24.1504C144.979 26.5704 142.839 29.5204 142.879 33.2404C142.889 34.6504 143.379 37.1004 144.049 38.6104C145.689 37.1104 147.639 34.8904 149.119 33.1204" fill="#00A095"/>
<path fill-rule="evenodd" clip-rule="evenodd" d="M153.011 38.7801C152.911 38.6701 152.781 38.5201 152.661 38.3701C152.491 38.5701 152.321 38.7701 152.141 38.9601C150.051 41.1701 149.271 42.0301 147.891 42.7901C148.381 43.2501 148.801 43.5701 149.071 43.6501H158.411C156.681 42.4401 154.761 40.7801 153.021 38.7901" fill="#00A095"/>
<path fill-rule="evenodd" clip-rule="evenodd" d="M46.4605 3.37023H48.8805L48.5505 4.69023H46.1305L45.1005 8.86023C44.9805 9.34023 44.8705 9.77023 44.7605 10.1402C44.6505 10.5102 44.5305 10.8502 44.3905 11.1602C44.2505 11.4702 44.0905 11.7602 43.9005 12.0402C43.7105 12.3102 43.4705 12.5802 43.1905 12.8402L41.7305 12.6302C41.9005 12.4202 42.0705 12.2002 42.2205 11.9802C42.3705 11.7602 42.5105 11.5302 42.6305 11.2802C42.7505 11.0402 42.8705 10.7702 42.9805 10.4902C43.0805 10.2002 43.1805 9.89024 43.2605 9.52024L44.9105 2.86023C45.0205 2.41023 45.1705 2.00023 45.3605 1.65023C45.5505 1.29023 45.7905 0.990234 46.0605 0.740234C46.3405 0.500234 46.6805 0.310234 47.0705 0.180234C47.4605 0.0502344 47.9105 -0.00976562 48.4305 -0.00976562C48.8005 -0.00976562 49.1305 0.0302344 49.4305 0.100234C49.7305 0.180234 49.9605 0.260234 50.1205 0.320234L49.5105 1.58023C49.3905 1.53023 49.2305 1.48023 49.0305 1.43023C48.8405 1.39023 48.6005 1.36023 48.3305 1.36023C48.0605 1.36023 47.8205 1.40023 47.6205 1.47023C47.4305 1.55023 47.2605 1.65023 47.1205 1.78023C46.9805 1.91023 46.8705 2.08023 46.7805 2.27023C46.6905 2.46023 46.6205 2.67023 46.5705 2.89023L46.4505 3.36023L46.4605 3.37023Z" fill="#00A095"/>
<path fill-rule="evenodd" clip-rule="evenodd" d="M55.43 3.36961L54.4 7.49961C54.36 7.70961 54.32 7.90961 54.3 8.10961C54.28 8.31961 54.27 8.51961 54.27 8.72961C54.27 8.98961 54.29 9.23961 54.33 9.47961C54.37 9.72961 54.45 9.97961 54.55 10.2196L53.06 10.4296C53.01 10.3296 52.95 10.2196 52.91 10.0996C52.87 9.97961 52.83 9.84961 52.8 9.72961C52.57 9.90961 52.28 10.0796 51.94 10.2396C51.6 10.3996 51.2 10.4896 50.75 10.4896C50.34 10.4896 50 10.4296 49.71 10.3096C49.42 10.1996 49.19 10.0396 49.01 9.83961C48.83 9.63961 48.7 9.40961 48.62 9.13961C48.54 8.86961 48.5 8.57961 48.5 8.26961C48.5 7.88961 48.56 7.45961 48.66 7.01961L49.57 3.34961H51.25L50.34 6.96961C50.22 7.43961 50.17 7.79961 50.17 8.08961C50.17 8.23961 50.18 8.36961 50.21 8.48961C50.24 8.60961 50.29 8.71961 50.36 8.81961C50.43 8.91961 50.52 8.98961 50.65 9.03961C50.77 9.08961 50.93 9.11961 51.11 9.11961C51.42 9.11961 51.69 9.06961 51.93 8.93961C52.17 8.81961 52.39 8.65961 52.6 8.45961C52.63 8.07961 52.69 7.67961 52.8 7.28961L53.76 3.34961H55.43V3.36961Z" fill="#00A095"/>
<path fill-rule="evenodd" clip-rule="evenodd" d="M57.5297 1.52953L59.2697 1.26953L58.7397 3.36953H61.1097L60.7797 4.68953H58.4097L57.7197 7.44953C57.6797 7.64953 57.6497 7.79953 57.6297 7.93953C57.6097 8.06953 57.5997 8.17953 57.5997 8.28953C57.5997 8.39953 57.6097 8.50953 57.6397 8.60953C57.6597 8.70953 57.7097 8.79953 57.7797 8.87953C57.8497 8.94953 57.9497 9.01953 58.0797 9.05953C58.2197 9.10953 58.3997 9.12953 58.6297 9.12953C58.8797 9.12953 59.1197 9.09953 59.3497 9.03953C59.5797 8.96953 59.7797 8.90953 59.9597 8.83953L60.0797 10.1295C59.8597 10.2195 59.5997 10.3095 59.2797 10.3895C58.9497 10.4695 58.5797 10.5095 58.1397 10.5095C57.3497 10.5095 56.7797 10.3395 56.4397 10.0095C56.0997 9.67953 55.9297 9.21953 55.9297 8.63953C55.9297 8.42953 55.9497 8.20953 55.9797 7.97953C56.0097 7.74953 56.0597 7.51953 56.1197 7.25953L57.5297 1.52953Z" fill="#00A095"/>
<path fill-rule="evenodd" clip-rule="evenodd" d="M68.1314 3.36961L67.1114 7.49961C67.0614 7.70961 67.0314 7.90961 67.0114 8.10961C66.9814 8.31961 66.9814 8.51961 66.9814 8.72961C66.9814 8.98961 67.0014 9.23961 67.0414 9.47961C67.0814 9.72961 67.1514 9.97961 67.2514 10.2196L65.7614 10.4296C65.7014 10.3296 65.6514 10.2196 65.6114 10.0996C65.5714 9.97961 65.5314 9.84961 65.4914 9.72961C65.2614 9.90961 64.9814 10.0796 64.6314 10.2396C64.2914 10.3996 63.8914 10.4896 63.4414 10.4896C63.0314 10.4896 62.6914 10.4296 62.4014 10.3096C62.1214 10.1996 61.8814 10.0396 61.7014 9.83961C61.5214 9.63961 61.3914 9.40961 61.3114 9.13961C61.2314 8.86961 61.1914 8.57961 61.1914 8.26961C61.1914 7.88961 61.2414 7.45961 61.3614 7.01961L62.2714 3.34961H63.9514L63.0414 6.96961C62.9314 7.43961 62.8714 7.79961 62.8714 8.08961C62.8714 8.23961 62.8914 8.36961 62.9114 8.48961C62.9414 8.60961 62.9914 8.71961 63.0614 8.81961C63.1314 8.91961 63.2314 8.98961 63.3514 9.03961C63.4814 9.08961 63.6314 9.11961 63.8114 9.11961C64.1214 9.11961 64.3914 9.06961 64.6314 8.93961C64.8714 8.81961 65.0914 8.65961 65.3014 8.45961C65.3314 8.07961 65.3914 7.67961 65.4914 7.28961L66.4514 3.34961H68.1214L68.1314 3.36961Z" fill="#00A095"/>
<path fill-rule="evenodd" clip-rule="evenodd" d="M73.5805 4.78996C73.4005 4.72996 73.2005 4.67996 72.9805 4.63996C72.7705 4.60996 72.5205 4.58996 72.2305 4.58996C72.0705 4.58996 71.9105 4.60996 71.7305 4.61996C71.5505 4.63996 71.4105 4.67996 71.2905 4.70996L69.9005 10.32H68.2305L69.8905 3.67996C70.2705 3.55996 70.7005 3.45996 71.1505 3.34996C71.6005 3.25996 72.0905 3.20996 72.6205 3.20996C72.7305 3.20996 72.8505 3.20996 72.9905 3.22996C73.1305 3.23996 73.2705 3.24996 73.4005 3.27996C73.5305 3.29996 73.6605 3.31996 73.7705 3.33996C73.8905 3.36996 73.9805 3.38996 74.0605 3.43996L73.5805 4.77996V4.78996Z" fill="#00A095"/>
<path fill-rule="evenodd" clip-rule="evenodd" d="M73.7305 7.8202C73.7305 7.2202 73.8305 6.6502 74.0305 6.1002C74.2305 5.5402 74.5205 5.0502 74.8905 4.6202C75.2605 4.1802 75.7205 3.8402 76.2405 3.5902C76.7705 3.3302 77.3605 3.2002 78.0105 3.2002C78.7105 3.2002 79.2605 3.3702 79.6405 3.7202C80.0305 4.0702 80.2205 4.5102 80.2205 5.0502C80.2205 5.6102 80.0805 6.0602 79.7905 6.4102C79.5005 6.7502 79.1405 7.03019 78.6805 7.22019C78.2205 7.42019 77.7105 7.5502 77.1305 7.6202C76.5505 7.6902 75.9705 7.7302 75.3805 7.7502C75.3705 7.7702 75.3705 7.7802 75.3705 7.8002V7.9402C75.3705 8.7502 75.9005 9.1502 76.9605 9.1502C77.5905 9.1502 78.2105 9.0202 78.8405 8.7802L78.9805 10.0802C78.7605 10.1802 78.4505 10.2802 78.0405 10.3802C77.6405 10.4702 77.1805 10.5202 76.6605 10.5202C76.1405 10.5202 75.7005 10.4502 75.3305 10.3102C74.9605 10.1702 74.6605 9.9702 74.4205 9.7202C74.1905 9.4702 74.0205 9.1802 73.9005 8.8602C73.7905 8.5402 73.7305 8.1902 73.7305 7.8202ZM77.7605 4.5202C77.4905 4.5202 77.2305 4.5702 76.9805 4.6802C76.7305 4.7902 76.5105 4.9302 76.3105 5.1202C76.1205 5.3102 75.9505 5.5302 75.8005 5.7802C75.6605 6.0302 75.5505 6.3102 75.4905 6.6002C76.6005 6.5702 77.4005 6.4402 77.9005 6.2202C78.4105 5.9902 78.6505 5.6602 78.6505 5.2302C78.6505 5.0502 78.5805 4.9002 78.4505 4.7402C78.3205 4.6002 78.0905 4.5302 77.7505 4.5302L77.7605 4.5202Z" fill="#00A095"/>
<path fill-rule="evenodd" clip-rule="evenodd" d="M84.8692 10.3201H83.1992L84.9392 3.36008H86.6092L84.8692 10.3201ZM86.1192 2.31008C85.8692 2.31008 85.6592 2.25008 85.4692 2.10008C85.2792 1.96008 85.1892 1.75008 85.1892 1.46008C85.1892 1.14008 85.3092 0.860078 85.5392 0.650078C85.7692 0.430078 86.0392 0.330078 86.3492 0.330078C86.5892 0.330078 86.8192 0.410078 87.0092 0.550078C87.1992 0.690078 87.2892 0.900078 87.2892 1.20008C87.2892 1.52008 87.1692 1.79008 86.9292 2.00008C86.6892 2.21008 86.4192 2.31008 86.1092 2.31008H86.1192Z" fill="#00A095"/>
<path fill-rule="evenodd" clip-rule="evenodd" d="M88.2811 3.65973C88.6511 3.54973 89.0711 3.45973 89.5411 3.35973C90.0211 3.26973 90.5311 3.21973 91.1011 3.21973C91.9511 3.21973 92.5711 3.41973 92.9711 3.81973C93.3711 4.20973 93.5711 4.75973 93.5711 5.42973C93.5711 5.61973 93.5511 5.81973 93.5211 6.01973C93.4911 6.22973 93.4511 6.44973 93.4011 6.66973L92.4911 10.3297H90.8211L91.6811 6.83973C91.7311 6.64973 91.7711 6.44973 91.8211 6.24973C91.8711 6.03973 91.8911 5.84973 91.9011 5.65973C91.9011 5.34973 91.8311 5.08973 91.6711 4.88973C91.5111 4.68973 91.1911 4.57973 90.7211 4.57973C90.3211 4.57973 89.9811 4.62973 89.6911 4.69973L88.3011 10.3297H86.6211L88.2811 3.65973Z" fill="#00A095"/>
<path fill-rule="evenodd" clip-rule="evenodd" d="M96.1492 9.20043C96.5892 9.20043 96.9392 9.13043 97.1992 8.99043C97.4592 8.85043 97.5892 8.64043 97.5892 8.36043C97.5892 8.12043 97.5092 7.94043 97.3392 7.80043C97.1792 7.67043 96.8792 7.50043 96.4692 7.32043C96.2492 7.22043 96.0392 7.12043 95.8492 7.01043C95.6592 6.90043 95.4992 6.78043 95.3592 6.64043C95.2192 6.50043 95.1092 6.32043 95.0292 6.14043C94.9492 5.95043 94.9092 5.72043 94.9092 5.45043C94.9092 4.76043 95.1792 4.20043 95.6992 3.80043C96.2292 3.40043 96.9792 3.19043 97.9892 3.19043C98.4492 3.19043 98.8592 3.24043 99.2292 3.33043C99.5892 3.43043 99.8692 3.52043 100.049 3.62043L99.4592 4.88043C99.2992 4.79043 99.0792 4.70043 98.7792 4.62043C98.4792 4.53043 98.1792 4.49043 97.8492 4.49043C97.6892 4.49043 97.5392 4.50043 97.3892 4.53043C97.2392 4.55043 97.0992 4.60043 96.9792 4.66043C96.8592 4.72043 96.7592 4.81043 96.6792 4.91043C96.5992 5.02043 96.5592 5.16043 96.5592 5.32043C96.5592 5.52043 96.6492 5.69043 96.8192 5.82043C96.9892 5.95043 97.2392 6.08043 97.5592 6.22043C97.8592 6.35043 98.1292 6.48043 98.3392 6.61043C98.5492 6.73043 98.7192 6.87043 98.8592 7.03043C98.9992 7.19043 99.0992 7.35043 99.1692 7.54043C99.2292 7.73043 99.2592 7.96043 99.2592 8.23043C99.2592 8.56043 99.1892 8.86043 99.0492 9.14043C98.9092 9.41043 98.7192 9.66043 98.4492 9.85043C98.1892 10.0504 97.8592 10.2104 97.4792 10.3304C97.0892 10.4504 96.6492 10.5004 96.1492 10.5004C95.8092 10.5004 95.4992 10.4804 95.2292 10.4304C94.9592 10.3804 94.7192 10.3304 94.5192 10.2804C94.3092 10.2204 94.1492 10.1604 94.0092 10.0904C93.8692 10.0304 93.7692 9.98043 93.6992 9.93043L94.2892 8.67043C94.3492 8.71043 94.4492 8.75043 94.5692 8.81043C94.6992 8.87043 94.8392 8.93043 94.9992 8.98043C95.1592 9.03043 95.3392 9.08043 95.5392 9.12043C95.7392 9.15043 95.9492 9.18043 96.1692 9.18043" fill="#00A095"/>
<path fill-rule="evenodd" clip-rule="evenodd" d="M101.43 10.3201H99.75L101.5 3.36008H103.17L101.43 10.3201ZM102.68 2.31008C102.43 2.31008 102.21 2.25008 102.03 2.10008C101.84 1.96008 101.75 1.75008 101.75 1.46008C101.75 1.14008 101.87 0.860078 102.11 0.650078C102.34 0.430078 102.61 0.330078 102.92 0.330078C103.17 0.330078 103.39 0.410078 103.58 0.550078C103.77 0.690078 103.86 0.900078 103.86 1.20008C103.86 1.52008 103.74 1.79008 103.51 2.00008C103.27 2.21008 103 2.31008 102.69 2.31008H102.68Z" fill="#00A095"/>
<path fill-rule="evenodd" clip-rule="evenodd" d="M105.939 10.52C105.509 10.52 105.129 10.45 104.819 10.32C104.509 10.18 104.249 9.99 104.049 9.75C103.859 9.51 103.709 9.23 103.609 8.9C103.519 8.57 103.469 8.22 103.469 7.83C103.469 7.24 103.579 6.66 103.799 6.11C104.019 5.55 104.329 5.06 104.729 4.64C105.129 4.22 105.619 3.88 106.209 3.63C106.789 3.38 107.449 3.25 108.189 3.25C108.279 3.25 108.389 3.25 108.519 3.27C108.649 3.27 108.789 3.3 108.949 3.33L109.699 0.27L111.449 0L109.549 7.54C109.509 7.75 109.469 7.95 109.449 8.16C109.429 8.37 109.419 8.57 109.419 8.75C109.419 8.99 109.439 9.23 109.489 9.47C109.539 9.7 109.609 9.96 109.709 10.22L108.219 10.43C108.119 10.24 108.019 10.02 107.949 9.75C107.719 9.94 107.439 10.11 107.109 10.27C106.779 10.42 106.389 10.5 105.949 10.5M108.619 4.62C108.439 4.58 108.229 4.57 107.979 4.57C107.559 4.57 107.169 4.66 106.819 4.83C106.469 5.01 106.169 5.24 105.919 5.52C105.669 5.81 105.479 6.14 105.349 6.51C105.219 6.89 105.149 7.27 105.149 7.67C105.149 7.88 105.169 8.07 105.209 8.25C105.249 8.42 105.319 8.58 105.409 8.72C105.499 8.85 105.619 8.96 105.769 9.04C105.919 9.12 106.109 9.16 106.329 9.16C106.629 9.16 106.889 9.1 107.109 8.99C107.339 8.87 107.549 8.72 107.749 8.51C107.749 8.32 107.779 8.13 107.809 7.92C107.839 7.72 107.879 7.52 107.929 7.32L108.609 4.63L108.619 4.62Z" fill="#00A095"/>
<path fill-rule="evenodd" clip-rule="evenodd" d="M111.07 7.8202C111.07 7.2202 111.17 6.6502 111.37 6.1002C111.57 5.5402 111.85 5.0502 112.23 4.6202C112.6 4.1802 113.05 3.8402 113.58 3.5902C114.11 3.3302 114.7 3.2002 115.36 3.2002C116.06 3.2002 116.6 3.3702 116.99 3.7202C117.38 4.0702 117.57 4.5102 117.57 5.0502C117.57 5.5902 117.43 6.0602 117.14 6.4102C116.85 6.7502 116.48 7.03019 116.03 7.22019C115.57 7.42019 115.06 7.5502 114.48 7.6202C113.91 7.6902 113.32 7.7302 112.73 7.7502C112.72 7.7702 112.72 7.7802 112.72 7.8002V7.9402C112.72 8.7502 113.25 9.1502 114.31 9.1502C114.94 9.1502 115.56 9.0202 116.19 8.7802L116.33 10.0802C116.11 10.1802 115.79 10.2802 115.39 10.3802C114.98 10.4702 114.52 10.5202 114.01 10.5202C113.5 10.5202 113.05 10.4502 112.68 10.3102C112.31 10.1702 112.01 9.9702 111.78 9.7202C111.54 9.4702 111.37 9.1802 111.26 8.8602C111.15 8.5402 111.09 8.1902 111.09 7.8202M115.12 4.5202C114.84 4.5202 114.58 4.5702 114.33 4.6802C114.08 4.7902 113.86 4.9302 113.67 5.1202C113.48 5.3102 113.31 5.5302 113.16 5.7802C113.02 6.0302 112.91 6.3102 112.85 6.6002C113.96 6.5702 114.76 6.4402 115.26 6.2202C115.76 5.9902 116.01 5.6602 116.01 5.2302C116.01 5.0502 115.94 4.9002 115.81 4.7402C115.68 4.6002 115.45 4.5302 115.12 4.5302V4.5202Z" fill="#00A095"/>
<path fill-rule="evenodd" clip-rule="evenodd" d="M153.499 16.3398C153.199 16.5398 152.909 16.7498 152.639 16.9498C149.729 19.1198 148.569 21.2598 148.129 24.1298C150.029 22.3398 152.359 20.8498 154.789 19.5498C154.899 19.4898 155.009 19.4298 155.129 19.3698C155.609 19.1098 156.109 18.8998 156.589 18.6298C162.319 15.4398 165.589 11.8198 168.009 8.62977C168.469 8.02977 168.909 7.39977 169.329 6.75977C166.309 9.07977 162.879 11.4298 159.769 12.8998C157.149 14.1298 155.109 15.2498 153.499 16.3298" fill="#00A095"/>
<path fill-rule="evenodd" clip-rule="evenodd" d="M172.918 0.0800781C172.028 1.98008 170.508 5.00008 169.328 6.79008C171.708 4.96008 174.178 2.27008 176.008 0.0900781H172.918V0.0800781Z" fill="#00A095"/>
<path fill-rule="evenodd" clip-rule="evenodd" d="M221.32 16.7302V16.7102C221.75 16.5602 222.1 16.1902 222.1 15.6402C222.1 15.3102 221.99 15.0302 221.78 14.8402C221.53 14.6102 221.15 14.4902 220.56 14.4902C220.19 14.4902 219.79 14.5302 219.52 14.5802V18.7402H220.06V16.9102H220.57C221.07 16.9302 221.3 17.1502 221.42 17.7302C221.53 18.2502 221.62 18.6102 221.69 18.7402H222.25C222.16 18.5802 222.06 18.1702 221.93 17.5802C221.83 17.1402 221.64 16.8402 221.32 16.7302ZM220.62 16.4902H220.06V14.9502C220.15 14.9302 220.33 14.9102 220.6 14.9102C221.17 14.9102 221.56 15.1502 221.56 15.6902C221.56 16.1702 221.2 16.4902 220.62 16.4802V16.4902Z" fill="#0C54A0"/>
<path fill-rule="evenodd" clip-rule="evenodd" d="M220.749 13.2998C218.879 13.2998 217.359 14.8198 217.359 16.6798C217.359 18.5398 218.879 20.0698 220.749 20.0698C222.619 20.0698 224.129 18.5498 224.129 16.6798C224.129 14.8098 222.619 13.2998 220.749 13.2998ZM220.749 19.5698C219.159 19.5698 217.869 18.2798 217.869 16.6798C217.869 15.0798 219.159 13.7998 220.749 13.7998C222.329 13.7998 223.619 15.0998 223.619 16.6798C223.619 18.2598 222.339 19.5698 220.749 19.5698Z" fill="#0C54A0"/>
</g>
<defs>
<filter id="filter0_d_1010_7336" x="0" y="0" width="228.129" height="52.4404" filterUnits="userSpaceOnUse" color-interpolation-filters="sRGB">
<feFlood flood-opacity="0" result="BackgroundImageFix"/>
<feColorMatrix in="SourceAlpha" type="matrix" values="0 0 0 0 0 0 0 0 0 0 0 0 0 0 0 0 0 0 127 0" result="hardAlpha"/>
<feOffset dy="4"/>
<feGaussianBlur stdDeviation="2"/>
<feComposite in2="hardAlpha" operator="out"/>
<feColorMatrix type="matrix" values="0 0 0 0 0 0 0 0 0 0 0 0 0 0 0 0 0 0 0.25 0"/>
<feBlend mode="normal" in2="BackgroundImageFix" result="effect1_dropShadow_1010_7336"/>
<feBlend mode="normal" in="SourceGraphic" in2="effect1_dropShadow_1010_7336" result="shape"/>
</filter>
<clipPath id="clip0_1010_7336">
<rect width="220.13" height="44.44" fill="white" transform="translate(4)"/>
</clipPath>
</defs>
</svg>
