<svg width="97" height="88" viewBox="0 0 97 88" fill="none" xmlns="http://www.w3.org/2000/svg">
<path d="M44 88C68.3005 88 88 68.3005 88 44C88 19.6995 68.3005 0 44 0C19.6995 0 0 19.6995 0 44C0 68.3005 19.6995 88 44 88Z" fill="#D2DF3F"/>
<path d="M95.39 37.9199C92.17 25.7699 79.84 18.5899 67.71 21.8199C55.66 25.0199 48.5 37.3499 51.69 49.4199C54.88 61.4899 67.29 68.6899 79.35 65.4799C91.35 62.2799 98.56 49.8999 95.39 37.9199ZM83.11 26.8699C91.62 31.7299 94.54 41.6099 91.9 49.4099C81.01 43.1299 70.17 36.8699 59.34 30.6099C64.54 24.6399 74.52 21.9699 83.11 26.8699ZM89.92 53.8399C78.79 47.4099 67.68 40.9899 56.49 34.5299C56.7 34.1499 56.91 33.7499 57.13 33.3599C68.34 39.8299 79.44 46.2299 90.61 52.6799C90.38 53.0699 90.15 53.4599 89.92 53.8399ZM55.12 37.9299C65.98 44.1999 76.82 50.4599 87.65 56.7199C82.85 62.3099 73.28 65.1799 64.78 60.8599C55.91 56.3499 52.38 46.2399 55.12 37.9399V37.9299Z" fill="black"/>
<path d="M31.78 38.01C34.52 41.29 38.14 42.24 41.85 41.47L41.79 41.17L41.87 41.47C44.81 40.63 46.85 39.19 48.28 36.92L47.94 36.71H47.95L48.27 36.92C48.97 35.81 49.6 34.66 50.25 33.54C52.94 28.89 55.63 24.25 58.3 19.59C60.21 16.25 60.3 12.79 58.46 9.43001C56.57 5.98001 53.51 4.15001 49.58 4.11001C45.61 4.07001 42.55 5.91001 40.55 9.30001C38.5 12.76 36.51 16.26 34.51 19.75L34.85 19.94H34.86L34.51 19.75C33.14 22.15 31.59 24.54 30.38 27.07L30.74 27.24L30.65 27.2L30.38 27.07C29.46 28.99 29.12 30.91 29.36 32.76C29.6 34.61 30.41 36.38 31.78 38.02V38.01ZM33.3 28.56C34.66 25.97 36.25 23.51 37.78 20.96C40.29 22.41 42.85 23.89 45.5 25.42C44.99 26.29 44.47 27.19 43.94 28.1C43.72 28.47 43.46 28.89 43.25 29.32C43.05 29.72 43.01 30.14 43.12 30.53C43.23 30.92 43.49 31.25 43.86 31.47C44.62 31.92 45.62 31.7 46.1 30.89C46.85 29.62 47.57 28.33 48.29 27.04C48.77 27.35 49.24 27.65 49.72 27.95C49.72 27.97 49.7 27.98 49.69 28C48.31 30.39 47 32.78 45.56 35.1C42.82 39.53 36.46 39.52 33.73 35.1C32.42 32.98 32.19 30.72 33.32 28.55L33.3 28.56ZM40.5 15.93C41.57 14.11 42.55 12.29 43.67 10.52L43.33 10.31H43.34L43.66 10.52C45.64 7.39001 49.81 6.42001 53.02 8.30001C56.22 10.18 57.44 14.31 55.67 17.55C54.32 20.02 52.86 22.43 51.42 24.9C50.94 24.63 50.46 24.36 49.98 24.09C50.5 23.2 51.03 22.32 51.54 21.44C51.8 20.98 51.93 20.51 51.85 20.07C51.77 19.62 51.49 19.26 51.07 19.02C50.65 18.78 50.19 18.72 49.76 18.87C49.34 19.02 48.98 19.35 48.72 19.79C48.21 20.66 47.72 21.54 47.24 22.38C45.92 21.62 44.61 20.86 43.3 20.1C41.99 19.34 40.67 18.58 39.33 17.81C39.7 17.21 40.11 16.57 40.5 15.91V15.93Z" fill="black"/>
<path d="M56.82 61.0899C51.07 57.7499 45.31 54.4299 39.55 51.1299L39.35 51.4799L39.37 51.4499L39.55 51.1399C37.33 49.8699 34.95 49.5399 33.11 49.8799V49.8499L32.72 49.9499C27.93 51.2199 24.96 54.5099 24.38 58.5999C23.8 62.7499 25.66 66.7699 29.27 68.8799L29.47 68.5299L29.4 68.6499L29.27 68.8799C35.05 72.2599 40.85 75.5999 46.66 78.9199C48.79 80.1299 51.1 80.4699 53.49 80.0399C57.7 79.2799 60.98 75.9499 61.74 71.7199C62.5 67.5299 60.55 63.2699 56.83 61.0999L56.82 61.0899ZM55.41 75.7799C53.26 77.1699 50.96 77.3999 48.75 76.2499C46.16 74.8999 43.72 73.2999 41.23 71.7899C42.66 69.3199 44.16 66.7399 45.72 64.0699C46.47 64.5299 47.28 65.0199 48.11 65.5099C48.58 65.7899 49.06 65.9199 49.52 65.8499C49.99 65.7699 50.35 65.4799 50.6 65.0499C50.84 64.6299 50.88 64.1599 50.71 63.7199C50.54 63.2899 50.19 62.9399 49.73 62.6699C48.89 62.1899 48.04 61.7199 47.18 61.2299C47.47 60.7399 47.76 60.2599 48.05 59.7899C50.49 61.1999 52.94 62.5399 55.32 64.0099C59.69 66.7099 59.73 72.9799 55.43 75.7799H55.41ZM45.14 58.0599C44.84 58.5699 44.55 59.0499 44.26 59.5299C43.02 58.8099 41.76 58.0599 40.49 57.3499L40.33 57.6399L40.29 57.6999L40.48 57.3499C39.94 57.0499 39.36 57.0199 38.87 57.2399C38.38 57.4599 38.03 57.9199 37.96 58.5099C37.91 58.9199 37.99 59.2699 38.19 59.5699C38.38 59.8599 38.66 60.0699 38.95 60.2399C40.17 60.9299 41.39 61.6299 42.63 62.3399C41.1 64.9899 39.6 67.5899 38.09 70.1999C35.73 68.8499 33.38 67.5299 31.06 66.1399C26.3 63.2799 26.37 56.6399 31.15 53.9599C33.03 52.9099 35.04 52.6499 36.89 53.5499C39.69 54.8999 42.36 56.5099 45.13 58.0699L45.14 58.0599Z" fill="black"/>
<path d="M46.65 78.9101L46.85 78.5601L46.65 78.9101Z" fill="black"/>
<path d="M52.05 14.1101L52.36 14.3601L52.05 14.1101Z" fill="black"/>
<path d="M51.53 17.2601L51.84 17.0201L51.52 17.2601C51.63 17.4001 51.8 17.6001 52.01 17.7401C52.23 17.8801 52.52 17.9501 52.84 17.8401C53.12 17.8101 53.37 17.6701 53.58 17.5101C53.81 17.3301 54.03 17.0801 54.22 16.8201C54.41 16.5601 54.57 16.2801 54.69 16.0101C54.81 15.7401 54.9 15.4701 54.92 15.2201C54.95 14.8501 54.87 14.5201 54.68 14.2401C54.5 13.9701 54.23 13.7801 53.94 13.6501L53.78 14.0001L53.95 13.6501C53.6 13.4901 53.24 13.4501 52.9 13.5401C52.56 13.6301 52.27 13.8401 52.05 14.1201C51.71 14.5501 51.33 15.1001 51.18 15.7001C51.12 15.9701 51.13 16.2601 51.19 16.5201C51.25 16.7801 51.36 17.0501 51.53 17.2601Z" fill="black"/>
<path d="M55.57 66.1301L55.29 66.4001L55.58 66.1201C55.16 65.6901 54.57 65.3501 53.98 65.2001C53.72 65.1301 53.42 65.1501 53.15 65.2001C52.89 65.2601 52.6 65.3701 52.39 65.5501C52.18 65.7301 52.05 66.0101 51.97 66.2601C51.89 66.5101 51.86 66.8001 51.89 67.0501C51.92 67.3701 52.12 67.6501 52.34 67.8701C52.57 68.1001 52.86 68.3001 53.18 68.4601C53.79 68.7701 54.59 68.9901 55.24 68.8101L55.38 68.7701L55.46 68.6601C55.46 68.6601 55.5 68.6201 55.56 68.5501C55.61 68.4901 55.68 68.4201 55.75 68.3401C55.88 68.1901 56.05 67.9501 56.09 67.6501L55.69 67.6001L56.08 67.6501C56.11 67.3801 56.06 67.0901 55.98 66.8401C55.89 66.5801 55.76 66.3201 55.57 66.1301Z" fill="black"/>
</svg>
