<svg width="88" height="92" viewBox="0 0 88 92" fill="none" xmlns="http://www.w3.org/2000/svg">
<circle cx="44" cy="48" r="44" fill="#D2DF3F"/>
<mask id="path-2-outside-1_22_758" maskUnits="userSpaceOnUse" x="11" y="0.31189" width="53" height="82" fill="black">
<rect fill="white" x="11" y="0.31189" width="53" height="82"/>
<path d="M28.6492 70.9477C28.3753 71.8959 28.1388 72.7909 27.8619 73.6733C27.0498 76.2456 25.6091 78.4518 23.879 80.4796C23.3593 81.0898 22.6437 81.1618 22.0898 80.7111C21.5173 80.2417 21.4457 79.5001 21.9996 78.8429C23.546 76.9998 24.909 75.0346 25.55 72.6876C25.9358 71.27 26.1287 69.793 26.359 68.3379C26.4025 68.0687 26.2687 67.7245 26.1163 67.4742C23.4714 63.1557 22.208 58.4618 22.2454 53.3954C22.2734 49.5151 22.2143 45.6347 22.2796 41.7575C22.2952 40.825 22.6468 39.8956 22.8521 38.9662C22.9019 38.7409 23.0295 38.5281 23.0482 38.3027C23.3593 34.5976 23.6581 30.8925 23.9599 27.1843C23.9692 27.0591 23.9599 26.9308 23.9599 26.7118C22.5597 27.3815 21.1687 27.7726 19.6658 27.7257C15.7234 27.6036 12.2725 24.2647 12.0174 20.2842C11.7498 16.1598 14.6032 12.4265 18.5581 11.7944C19.2582 11.6817 19.5258 11.4282 19.6316 10.7116C20.4686 5.01942 24.7752 1.32058 30.5068 1.31745C32.8623 1.31745 35.2179 1.30494 37.5703 1.31745C43.7625 1.355 48.5917 6.97837 47.7609 13.165C47.624 14.1946 47.5058 15.2304 47.4 16.263C47.2631 17.5867 47.6178 18.7821 48.3833 19.8649C48.654 20.2466 48.9216 20.6315 49.1643 21.029C49.9547 22.3182 49.5439 23.7702 48.125 24.2866C47.344 24.5713 47.1759 25.0376 47.0795 25.7636C46.7341 28.4141 45.5454 30.6516 43.61 32.4728C42.2066 33.7934 40.5295 34.0625 38.6998 33.615C38.4104 33.5431 38.1148 33.493 37.6636 33.3991C38.9674 35.4426 40.5357 37.0041 42.3218 38.3528C43.5198 39.2572 44.808 40.0489 45.9593 41.0096C49.0056 43.5475 50.8353 46.8176 51.4638 50.7511C51.5416 51.2393 51.6972 51.5554 52.2137 51.7838C54.0309 52.5818 55.1418 54.5001 54.9333 56.4402C54.8835 56.9127 55.0515 57.0723 55.4032 57.2695C59.2958 59.4193 61.8474 62.6456 62.6782 67.0455C63.6335 72.1024 62.4884 76.643 58.8913 80.4389C58.493 80.8582 58.0387 81.1273 57.4413 80.9396C56.4518 80.6267 56.2682 79.522 57.0959 78.6896C58.5646 77.2188 59.4981 75.4539 60.0457 73.4637C61.5549 67.9874 59.3798 62.486 54.5879 59.6884C54.367 59.5601 54.1367 59.4475 53.8691 59.3067C53.0539 60.7743 51.9088 61.7788 50.2471 61.9916C48.2339 62.2482 46.5723 61.5598 45.3992 59.8793C44.2914 58.2959 44.3101 56.1961 45.3587 54.5939C46.4945 52.8603 47.1479 52.2908 49.0429 51.4114C48.6913 48.7233 47.5836 46.3764 45.8099 44.3329C45.4863 43.9605 45.1285 43.6194 44.7738 43.2784C43.8994 42.4397 43.0157 41.8796 41.6403 41.9859C39.5213 42.1518 37.4271 41.6668 35.4014 40.9846C35.1836 40.9126 34.9658 40.8437 34.6702 40.7467C34.6702 41.1661 34.6702 41.5228 34.6702 41.8764C34.6702 47.0054 34.6827 52.1343 34.664 57.2632C34.6515 60.4051 35.6255 63.1682 37.5983 65.606C41.0927 69.9244 44.5559 74.2679 48.0317 78.602C48.1281 78.724 48.2277 78.8461 48.3117 78.9744C48.7287 79.6159 48.6478 80.2699 48.1032 80.7143C47.5618 81.1555 46.8835 81.1148 46.3825 80.5171C45.2498 79.1621 44.1608 77.7758 43.0561 76.399C40.4734 73.1789 37.869 69.9745 35.3174 66.7325C33.2233 64.0757 32.1933 61.0184 32.1871 57.6262C32.1778 52.3158 32.1902 47.0022 32.1809 41.6918C32.1809 40.0301 31.1758 38.6125 29.6885 38.09C28.1949 37.5674 26.5177 37.9836 25.5935 39.3041C25.1423 39.9488 24.7845 40.8156 24.772 41.5854C24.6974 45.9852 24.6289 50.3881 24.772 54.7848C24.9556 60.3612 26.9564 65.2868 30.7153 69.4112C33.5127 72.4811 36.4096 75.457 39.263 78.4768C39.3875 78.6082 39.5182 78.7334 39.6333 78.8742C40.1 79.4438 40.0845 80.1635 39.6084 80.6329C39.1137 81.118 38.4135 81.143 37.8721 80.611C37.0755 79.8318 36.3194 79.0057 35.5539 78.1952C33.3944 75.917 31.2349 73.6326 29.0755 71.3545C28.9541 71.2262 28.8203 71.1104 28.646 70.9446L28.6492 70.9477ZM39.2163 39.4199C39.2879 39.3041 39.3595 39.1883 39.431 39.0726C39.2194 38.9349 38.9799 38.8285 38.7963 38.6564C37.2124 37.1762 35.862 35.502 34.8725 33.565C34.5364 32.9078 34.1568 32.5229 33.41 32.404C32.5107 32.2632 32.0595 31.6217 32.212 30.9051C32.3738 30.1384 33.0522 29.7848 33.9701 29.985C35.834 30.395 37.701 30.7924 39.5617 31.2211C40.5668 31.4527 41.3883 31.1836 42.1008 30.4607C43.7625 28.7771 44.5622 26.7181 44.7582 24.3867C44.836 23.4479 45.3245 22.7939 46.1709 22.4027C46.3763 22.3089 46.5785 22.2118 46.7683 22.1242C46.7621 22.0241 46.7777 21.9646 46.7528 21.9271C46.647 21.7487 46.5381 21.5703 46.4167 21.4045C45.1627 19.6896 44.7022 17.762 44.9324 15.6622C45.0445 14.6546 45.2032 13.6532 45.3214 12.6487C45.4894 11.2092 45.2374 9.84482 44.6151 8.4867C42.5085 10.8994 41.0335 11.6066 37.9623 11.7975C37.7476 11.81 37.4334 12.076 37.3618 12.2919C36.7083 14.2728 35.6504 16.0096 34.2968 17.5742C33.242 18.7915 32.2058 18.9574 30.79 18.1594C30.0058 17.7182 29.2715 17.9184 28.8608 18.7258C28.4625 19.5081 28.5309 20.2873 29.007 21.0165C29.6947 22.0679 30.706 22.5592 31.9195 22.7188C32.7161 22.8221 33.1797 23.3759 33.1144 24.0769C33.0459 24.806 32.436 25.2973 31.6239 25.1972C31.0638 25.1284 30.4259 25.0939 29.9841 24.7998C28.8732 24.0581 27.9397 24.1927 27.0311 25.0846C26.9938 25.119 26.9253 25.1284 26.9004 25.1659C26.7915 25.3443 26.6235 25.5195 26.6017 25.7104C26.4025 27.3846 26.2127 29.0619 26.054 30.7423C25.8922 32.4666 25.7678 34.1971 25.6215 36.0152C25.9576 35.8869 26.1661 35.7993 26.3839 35.7273C28.3784 35.0639 30.2268 35.3487 32.0097 36.469C33.0739 37.1386 34.1848 37.7708 35.3454 38.237C36.5932 38.7377 37.9219 39.0287 39.2163 39.4137V39.4199ZM32.2618 16.0972C33.4722 14.761 34.3839 13.2964 34.944 11.6254C35.5975 9.6821 36.0953 9.3191 38.1366 9.27528C39.8853 9.23773 41.3572 8.59622 42.4307 7.15987C43.1059 6.2555 43.0841 6.09278 42.1942 5.43562C40.7784 4.3873 39.1914 3.83342 37.4334 3.8209C34.9503 3.80525 32.4672 3.79899 29.9841 3.8209C26.7511 3.84906 23.8977 5.82053 22.7152 8.86222C20.6367 14.2102 22.6219 18.6757 25.802 22.9441C26.1287 22.6875 26.443 22.4434 26.7386 22.2118C25.7491 19.9838 25.9669 17.9435 27.3827 16.5509C28.8545 15.1083 30.513 15.0019 32.2556 16.0909L32.2618 16.0972ZM19.4356 14.2352C17.1734 14.3698 15.1695 16.1253 14.6529 18.3471C14.0804 20.8162 15.1695 23.3165 17.3445 24.5244C19.3204 25.6197 21.9093 25.385 23.378 23.9298C21.4675 20.957 19.5351 17.9591 19.4356 14.2384V14.2352ZM47.0857 57.2382C47.095 58.2427 47.7049 59.0688 48.6789 59.3912C49.7213 59.7354 50.7295 59.4819 51.3113 58.6526C51.6816 58.1269 52.0021 57.5543 52.2697 56.9722C52.6369 56.1774 52.5187 55.395 51.9866 54.7035C51.4763 54.04 50.773 53.7365 49.9453 53.8429C48.7038 53.9994 47.0702 55.9614 47.0826 57.2413L47.0857 57.2382Z"/>
</mask>
<path d="M28.6492 70.9477C28.3753 71.8959 28.1388 72.7909 27.8619 73.6733C27.0498 76.2456 25.6091 78.4518 23.879 80.4796C23.3593 81.0898 22.6437 81.1618 22.0898 80.7111C21.5173 80.2417 21.4457 79.5001 21.9996 78.8429C23.546 76.9998 24.909 75.0346 25.55 72.6876C25.9358 71.27 26.1287 69.793 26.359 68.3379C26.4025 68.0687 26.2687 67.7245 26.1163 67.4742C23.4714 63.1557 22.208 58.4618 22.2454 53.3954C22.2734 49.5151 22.2143 45.6347 22.2796 41.7575C22.2952 40.825 22.6468 39.8956 22.8521 38.9662C22.9019 38.7409 23.0295 38.5281 23.0482 38.3027C23.3593 34.5976 23.6581 30.8925 23.9599 27.1843C23.9692 27.0591 23.9599 26.9308 23.9599 26.7118C22.5597 27.3815 21.1687 27.7726 19.6658 27.7257C15.7234 27.6036 12.2725 24.2647 12.0174 20.2842C11.7498 16.1598 14.6032 12.4265 18.5581 11.7944C19.2582 11.6817 19.5258 11.4282 19.6316 10.7116C20.4686 5.01942 24.7752 1.32058 30.5068 1.31745C32.8623 1.31745 35.2179 1.30494 37.5703 1.31745C43.7625 1.355 48.5917 6.97837 47.7609 13.165C47.624 14.1946 47.5058 15.2304 47.4 16.263C47.2631 17.5867 47.6178 18.7821 48.3833 19.8649C48.654 20.2466 48.9216 20.6315 49.1643 21.029C49.9547 22.3182 49.5439 23.7702 48.125 24.2866C47.344 24.5713 47.1759 25.0376 47.0795 25.7636C46.7341 28.4141 45.5454 30.6516 43.61 32.4728C42.2066 33.7934 40.5295 34.0625 38.6998 33.615C38.4104 33.5431 38.1148 33.493 37.6636 33.3991C38.9674 35.4426 40.5357 37.0041 42.3218 38.3528C43.5198 39.2572 44.808 40.0489 45.9593 41.0096C49.0056 43.5475 50.8353 46.8176 51.4638 50.7511C51.5416 51.2393 51.6972 51.5554 52.2137 51.7838C54.0309 52.5818 55.1418 54.5001 54.9333 56.4402C54.8835 56.9127 55.0515 57.0723 55.4032 57.2695C59.2958 59.4193 61.8474 62.6456 62.6782 67.0455C63.6335 72.1024 62.4884 76.643 58.8913 80.4389C58.493 80.8582 58.0387 81.1273 57.4413 80.9396C56.4518 80.6267 56.2682 79.522 57.0959 78.6896C58.5646 77.2188 59.4981 75.4539 60.0457 73.4637C61.5549 67.9874 59.3798 62.486 54.5879 59.6884C54.367 59.5601 54.1367 59.4475 53.8691 59.3067C53.0539 60.7743 51.9088 61.7788 50.2471 61.9916C48.2339 62.2482 46.5723 61.5598 45.3992 59.8793C44.2914 58.2959 44.3101 56.1961 45.3587 54.5939C46.4945 52.8603 47.1479 52.2908 49.0429 51.4114C48.6913 48.7233 47.5836 46.3764 45.8099 44.3329C45.4863 43.9605 45.1285 43.6194 44.7738 43.2784C43.8994 42.4397 43.0157 41.8796 41.6403 41.9859C39.5213 42.1518 37.4271 41.6668 35.4014 40.9846C35.1836 40.9126 34.9658 40.8437 34.6702 40.7467C34.6702 41.1661 34.6702 41.5228 34.6702 41.8764C34.6702 47.0054 34.6827 52.1343 34.664 57.2632C34.6515 60.4051 35.6255 63.1682 37.5983 65.606C41.0927 69.9244 44.5559 74.2679 48.0317 78.602C48.1281 78.724 48.2277 78.8461 48.3117 78.9744C48.7287 79.6159 48.6478 80.2699 48.1032 80.7143C47.5618 81.1555 46.8835 81.1148 46.3825 80.5171C45.2498 79.1621 44.1608 77.7758 43.0561 76.399C40.4734 73.1789 37.869 69.9745 35.3174 66.7325C33.2233 64.0757 32.1933 61.0184 32.1871 57.6262C32.1778 52.3158 32.1902 47.0022 32.1809 41.6918C32.1809 40.0301 31.1758 38.6125 29.6885 38.09C28.1949 37.5674 26.5177 37.9836 25.5935 39.3041C25.1423 39.9488 24.7845 40.8156 24.772 41.5854C24.6974 45.9852 24.6289 50.3881 24.772 54.7848C24.9556 60.3612 26.9564 65.2868 30.7153 69.4112C33.5127 72.4811 36.4096 75.457 39.263 78.4768C39.3875 78.6082 39.5182 78.7334 39.6333 78.8742C40.1 79.4438 40.0845 80.1635 39.6084 80.6329C39.1137 81.118 38.4135 81.143 37.8721 80.611C37.0755 79.8318 36.3194 79.0057 35.5539 78.1952C33.3944 75.917 31.2349 73.6326 29.0755 71.3545C28.9541 71.2262 28.8203 71.1104 28.646 70.9446L28.6492 70.9477ZM39.2163 39.4199C39.2879 39.3041 39.3595 39.1883 39.431 39.0726C39.2194 38.9349 38.9799 38.8285 38.7963 38.6564C37.2124 37.1762 35.862 35.502 34.8725 33.565C34.5364 32.9078 34.1568 32.5229 33.41 32.404C32.5107 32.2632 32.0595 31.6217 32.212 30.9051C32.3738 30.1384 33.0522 29.7848 33.9701 29.985C35.834 30.395 37.701 30.7924 39.5617 31.2211C40.5668 31.4527 41.3883 31.1836 42.1008 30.4607C43.7625 28.7771 44.5622 26.7181 44.7582 24.3867C44.836 23.4479 45.3245 22.7939 46.1709 22.4027C46.3763 22.3089 46.5785 22.2118 46.7683 22.1242C46.7621 22.0241 46.7777 21.9646 46.7528 21.9271C46.647 21.7487 46.5381 21.5703 46.4167 21.4045C45.1627 19.6896 44.7022 17.762 44.9324 15.6622C45.0445 14.6546 45.2032 13.6532 45.3214 12.6487C45.4894 11.2092 45.2374 9.84482 44.6151 8.4867C42.5085 10.8994 41.0335 11.6066 37.9623 11.7975C37.7476 11.81 37.4334 12.076 37.3618 12.2919C36.7083 14.2728 35.6504 16.0096 34.2968 17.5742C33.242 18.7915 32.2058 18.9574 30.79 18.1594C30.0058 17.7182 29.2715 17.9184 28.8608 18.7258C28.4625 19.5081 28.5309 20.2873 29.007 21.0165C29.6947 22.0679 30.706 22.5592 31.9195 22.7188C32.7161 22.8221 33.1797 23.3759 33.1144 24.0769C33.0459 24.806 32.436 25.2973 31.6239 25.1972C31.0638 25.1284 30.4259 25.0939 29.9841 24.7998C28.8732 24.0581 27.9397 24.1927 27.0311 25.0846C26.9938 25.119 26.9253 25.1284 26.9004 25.1659C26.7915 25.3443 26.6235 25.5195 26.6017 25.7104C26.4025 27.3846 26.2127 29.0619 26.054 30.7423C25.8922 32.4666 25.7678 34.1971 25.6215 36.0152C25.9576 35.8869 26.1661 35.7993 26.3839 35.7273C28.3784 35.0639 30.2268 35.3487 32.0097 36.469C33.0739 37.1386 34.1848 37.7708 35.3454 38.237C36.5932 38.7377 37.9219 39.0287 39.2163 39.4137V39.4199ZM32.2618 16.0972C33.4722 14.761 34.3839 13.2964 34.944 11.6254C35.5975 9.6821 36.0953 9.3191 38.1366 9.27528C39.8853 9.23773 41.3572 8.59622 42.4307 7.15987C43.1059 6.2555 43.0841 6.09278 42.1942 5.43562C40.7784 4.3873 39.1914 3.83342 37.4334 3.8209C34.9503 3.80525 32.4672 3.79899 29.9841 3.8209C26.7511 3.84906 23.8977 5.82053 22.7152 8.86222C20.6367 14.2102 22.6219 18.6757 25.802 22.9441C26.1287 22.6875 26.443 22.4434 26.7386 22.2118C25.7491 19.9838 25.9669 17.9435 27.3827 16.5509C28.8545 15.1083 30.513 15.0019 32.2556 16.0909L32.2618 16.0972ZM19.4356 14.2352C17.1734 14.3698 15.1695 16.1253 14.6529 18.3471C14.0804 20.8162 15.1695 23.3165 17.3445 24.5244C19.3204 25.6197 21.9093 25.385 23.378 23.9298C21.4675 20.957 19.5351 17.9591 19.4356 14.2384V14.2352ZM47.0857 57.2382C47.095 58.2427 47.7049 59.0688 48.6789 59.3912C49.7213 59.7354 50.7295 59.4819 51.3113 58.6526C51.6816 58.1269 52.0021 57.5543 52.2697 56.9722C52.6369 56.1774 52.5187 55.395 51.9866 54.7035C51.4763 54.04 50.773 53.7365 49.9453 53.8429C48.7038 53.9994 47.0702 55.9614 47.0826 57.2413L47.0857 57.2382Z" fill="black"/>
<path d="M28.6492 70.9477C28.3753 71.8959 28.1388 72.7909 27.8619 73.6733C27.0498 76.2456 25.6091 78.4518 23.879 80.4796C23.3593 81.0898 22.6437 81.1618 22.0898 80.7111C21.5173 80.2417 21.4457 79.5001 21.9996 78.8429C23.546 76.9998 24.909 75.0346 25.55 72.6876C25.9358 71.27 26.1287 69.793 26.359 68.3379C26.4025 68.0687 26.2687 67.7245 26.1163 67.4742C23.4714 63.1557 22.208 58.4618 22.2454 53.3954C22.2734 49.5151 22.2143 45.6347 22.2796 41.7575C22.2952 40.825 22.6468 39.8956 22.8521 38.9662C22.9019 38.7409 23.0295 38.5281 23.0482 38.3027C23.3593 34.5976 23.6581 30.8925 23.9599 27.1843C23.9692 27.0591 23.9599 26.9308 23.9599 26.7118C22.5597 27.3815 21.1687 27.7726 19.6658 27.7257C15.7234 27.6036 12.2725 24.2647 12.0174 20.2842C11.7498 16.1598 14.6032 12.4265 18.5581 11.7944C19.2582 11.6817 19.5258 11.4282 19.6316 10.7116C20.4686 5.01942 24.7752 1.32058 30.5068 1.31745C32.8623 1.31745 35.2179 1.30494 37.5703 1.31745C43.7625 1.355 48.5917 6.97837 47.7609 13.165C47.624 14.1946 47.5058 15.2304 47.4 16.263C47.2631 17.5867 47.6178 18.7821 48.3833 19.8649C48.654 20.2466 48.9216 20.6315 49.1643 21.029C49.9547 22.3182 49.5439 23.7702 48.125 24.2866C47.344 24.5713 47.1759 25.0376 47.0795 25.7636C46.7341 28.4141 45.5454 30.6516 43.61 32.4728C42.2066 33.7934 40.5295 34.0625 38.6998 33.615C38.4104 33.5431 38.1148 33.493 37.6636 33.3991C38.9674 35.4426 40.5357 37.0041 42.3218 38.3528C43.5198 39.2572 44.808 40.0489 45.9593 41.0096C49.0056 43.5475 50.8353 46.8176 51.4638 50.7511C51.5416 51.2393 51.6972 51.5554 52.2137 51.7838C54.0309 52.5818 55.1418 54.5001 54.9333 56.4402C54.8835 56.9127 55.0515 57.0723 55.4032 57.2695C59.2958 59.4193 61.8474 62.6456 62.6782 67.0455C63.6335 72.1024 62.4884 76.643 58.8913 80.4389C58.493 80.8582 58.0387 81.1273 57.4413 80.9396C56.4518 80.6267 56.2682 79.522 57.0959 78.6896C58.5646 77.2188 59.4981 75.4539 60.0457 73.4637C61.5549 67.9874 59.3798 62.486 54.5879 59.6884C54.367 59.5601 54.1367 59.4475 53.8691 59.3067C53.0539 60.7743 51.9088 61.7788 50.2471 61.9916C48.2339 62.2482 46.5723 61.5598 45.3992 59.8793C44.2914 58.2959 44.3101 56.1961 45.3587 54.5939C46.4945 52.8603 47.1479 52.2908 49.0429 51.4114C48.6913 48.7233 47.5836 46.3764 45.8099 44.3329C45.4863 43.9605 45.1285 43.6194 44.7738 43.2784C43.8994 42.4397 43.0157 41.8796 41.6403 41.9859C39.5213 42.1518 37.4271 41.6668 35.4014 40.9846C35.1836 40.9126 34.9658 40.8437 34.6702 40.7467C34.6702 41.1661 34.6702 41.5228 34.6702 41.8764C34.6702 47.0054 34.6827 52.1343 34.664 57.2632C34.6515 60.4051 35.6255 63.1682 37.5983 65.606C41.0927 69.9244 44.5559 74.2679 48.0317 78.602C48.1281 78.724 48.2277 78.8461 48.3117 78.9744C48.7287 79.6159 48.6478 80.2699 48.1032 80.7143C47.5618 81.1555 46.8835 81.1148 46.3825 80.5171C45.2498 79.1621 44.1608 77.7758 43.0561 76.399C40.4734 73.1789 37.869 69.9745 35.3174 66.7325C33.2233 64.0757 32.1933 61.0184 32.1871 57.6262C32.1778 52.3158 32.1902 47.0022 32.1809 41.6918C32.1809 40.0301 31.1758 38.6125 29.6885 38.09C28.1949 37.5674 26.5177 37.9836 25.5935 39.3041C25.1423 39.9488 24.7845 40.8156 24.772 41.5854C24.6974 45.9852 24.6289 50.3881 24.772 54.7848C24.9556 60.3612 26.9564 65.2868 30.7153 69.4112C33.5127 72.4811 36.4096 75.457 39.263 78.4768C39.3875 78.6082 39.5182 78.7334 39.6333 78.8742C40.1 79.4438 40.0845 80.1635 39.6084 80.6329C39.1137 81.118 38.4135 81.143 37.8721 80.611C37.0755 79.8318 36.3194 79.0057 35.5539 78.1952C33.3944 75.917 31.2349 73.6326 29.0755 71.3545C28.9541 71.2262 28.8203 71.1104 28.646 70.9446L28.6492 70.9477ZM39.2163 39.4199C39.2879 39.3041 39.3595 39.1883 39.431 39.0726C39.2194 38.9349 38.9799 38.8285 38.7963 38.6564C37.2124 37.1762 35.862 35.502 34.8725 33.565C34.5364 32.9078 34.1568 32.5229 33.41 32.404C32.5107 32.2632 32.0595 31.6217 32.212 30.9051C32.3738 30.1384 33.0522 29.7848 33.9701 29.985C35.834 30.395 37.701 30.7924 39.5617 31.2211C40.5668 31.4527 41.3883 31.1836 42.1008 30.4607C43.7625 28.7771 44.5622 26.7181 44.7582 24.3867C44.836 23.4479 45.3245 22.7939 46.1709 22.4027C46.3763 22.3089 46.5785 22.2118 46.7683 22.1242C46.7621 22.0241 46.7777 21.9646 46.7528 21.9271C46.647 21.7487 46.5381 21.5703 46.4167 21.4045C45.1627 19.6896 44.7022 17.762 44.9324 15.6622C45.0445 14.6546 45.2032 13.6532 45.3214 12.6487C45.4894 11.2092 45.2374 9.84482 44.6151 8.4867C42.5085 10.8994 41.0335 11.6066 37.9623 11.7975C37.7476 11.81 37.4334 12.076 37.3618 12.2919C36.7083 14.2728 35.6504 16.0096 34.2968 17.5742C33.242 18.7915 32.2058 18.9574 30.79 18.1594C30.0058 17.7182 29.2715 17.9184 28.8608 18.7258C28.4625 19.5081 28.5309 20.2873 29.007 21.0165C29.6947 22.0679 30.706 22.5592 31.9195 22.7188C32.7161 22.8221 33.1797 23.3759 33.1144 24.0769C33.0459 24.806 32.436 25.2973 31.6239 25.1972C31.0638 25.1284 30.4259 25.0939 29.9841 24.7998C28.8732 24.0581 27.9397 24.1927 27.0311 25.0846C26.9938 25.119 26.9253 25.1284 26.9004 25.1659C26.7915 25.3443 26.6235 25.5195 26.6017 25.7104C26.4025 27.3846 26.2127 29.0619 26.054 30.7423C25.8922 32.4666 25.7678 34.1971 25.6215 36.0152C25.9576 35.8869 26.1661 35.7993 26.3839 35.7273C28.3784 35.0639 30.2268 35.3487 32.0097 36.469C33.0739 37.1386 34.1848 37.7708 35.3454 38.237C36.5932 38.7377 37.9219 39.0287 39.2163 39.4137V39.4199ZM32.2618 16.0972C33.4722 14.761 34.3839 13.2964 34.944 11.6254C35.5975 9.6821 36.0953 9.3191 38.1366 9.27528C39.8853 9.23773 41.3572 8.59622 42.4307 7.15987C43.1059 6.2555 43.0841 6.09278 42.1942 5.43562C40.7784 4.3873 39.1914 3.83342 37.4334 3.8209C34.9503 3.80525 32.4672 3.79899 29.9841 3.8209C26.7511 3.84906 23.8977 5.82053 22.7152 8.86222C20.6367 14.2102 22.6219 18.6757 25.802 22.9441C26.1287 22.6875 26.443 22.4434 26.7386 22.2118C25.7491 19.9838 25.9669 17.9435 27.3827 16.5509C28.8545 15.1083 30.513 15.0019 32.2556 16.0909L32.2618 16.0972ZM19.4356 14.2352C17.1734 14.3698 15.1695 16.1253 14.6529 18.3471C14.0804 20.8162 15.1695 23.3165 17.3445 24.5244C19.3204 25.6197 21.9093 25.385 23.378 23.9298C21.4675 20.957 19.5351 17.9591 19.4356 14.2384V14.2352ZM47.0857 57.2382C47.095 58.2427 47.7049 59.0688 48.6789 59.3912C49.7213 59.7354 50.7295 59.4819 51.3113 58.6526C51.6816 58.1269 52.0021 57.5543 52.2697 56.9722C52.6369 56.1774 52.5187 55.395 51.9866 54.7035C51.4763 54.04 50.773 53.7365 49.9453 53.8429C48.7038 53.9994 47.0702 55.9614 47.0826 57.2413L47.0857 57.2382Z" stroke="black" stroke-width="0.8" mask="url(#path-2-outside-1_22_758)"/>
<path d="M38.0105 39.2902C38.3493 39.3822 38.6862 39.4738 39.0181 39.5698V40.1301L39.3882 39.5313L39.4956 39.3576L39.6029 39.1839L39.7064 39.0166L39.5408 38.9104C39.4708 38.8656 39.3928 38.8203 39.3201 38.7781C39.2795 38.7546 39.2406 38.732 39.2056 38.711C39.1001 38.6475 39.0094 38.5865 38.9347 38.5166L38.9346 38.5165C37.3644 37.0491 36.0296 35.3931 35.0526 33.4806C34.88 33.14 34.6863 32.8531 34.4266 32.6356C34.1642 32.4157 33.8467 32.277 33.4434 32.2127C33.0339 32.1472 32.746 31.9727 32.5767 31.7533C32.4087 31.5355 32.3446 31.2575 32.4094 30.9529L32.4095 30.9524C32.4793 30.6205 32.6551 30.3926 32.9019 30.2636C33.1536 30.132 33.5017 30.0919 33.9286 30.1865L33.9289 30.1866C34.4663 30.3048 35.0036 30.4219 35.5407 30.5389C36.8682 30.8282 38.1946 31.1172 39.5185 31.4222C40.0488 31.5448 40.5415 31.5366 41.0001 31.3963C41.4581 31.2561 41.8701 30.9877 42.245 30.6074C43.945 28.885 44.7632 26.7791 44.9593 24.4094L44.9593 24.4094C45.0308 23.5439 45.4713 22.9535 46.2564 22.5906C46.3715 22.538 46.4894 22.4826 46.6033 22.4291C46.6901 22.3883 46.7747 22.3486 46.8539 22.312L46.9782 22.2547L46.9697 22.118C46.9679 22.0891 46.968 22.0689 46.9682 22.0459C46.9682 22.0339 46.9683 22.0211 46.9681 22.006L46.9681 22.0042C46.9677 21.9732 46.9669 21.9008 46.9275 21.8329L46.9265 21.8313C46.8204 21.6522 46.7073 21.4668 46.5799 21.2926L46.5798 21.2925C45.3544 19.6209 44.9048 17.7442 45.133 15.6906C45.1887 15.1911 45.256 14.6919 45.3245 14.1899L45.3381 14.0907C45.402 13.6221 45.4663 13.1509 45.5218 12.6782L45.5218 12.6781C45.6946 11.1982 45.4345 9.79714 44.7986 8.4096L44.6697 8.12825L44.4662 8.36138C43.4209 9.55852 42.5459 10.3166 41.5636 10.8022C40.5815 11.2877 39.475 11.5094 37.9517 11.6041L37.9517 11.6041L37.9496 11.6043C37.7814 11.6165 37.6098 11.7165 37.4826 11.8218C37.3536 11.9286 37.226 12.0774 37.1737 12.2352L37.1736 12.2356C36.5297 14.1906 35.4865 15.9016 34.1473 17.4496L34.1472 17.4497C33.6386 18.0384 33.1545 18.3471 32.6492 18.4302C32.143 18.5135 31.5765 18.3768 30.8897 17.9912C30.464 17.7517 30.0298 17.6733 29.6331 17.7872C29.2353 17.9013 28.9103 18.1988 28.6846 18.6407C28.2478 19.492 28.3292 20.3476 28.8413 21.132C29.5657 22.2445 30.64 22.7582 31.8952 22.9233L31.8956 22.9234C32.2532 22.9697 32.5205 23.1154 32.6908 23.312C32.8601 23.5076 32.9449 23.7664 32.917 24.0645L32.917 24.0653C32.889 24.3769 32.7464 24.6298 32.5304 24.7956C32.314 24.9616 32.0116 25.0493 31.6501 25.0049L31.649 25.0048C31.5803 24.9967 31.5117 24.9892 31.4434 24.9817C31.2248 24.9577 31.0087 24.934 30.7989 24.8939C30.5253 24.8417 30.2854 24.7652 30.0967 24.6395C29.5155 24.2516 28.958 24.0781 28.412 24.137C27.8712 24.1953 27.3746 24.4782 26.9036 24.9375C26.9006 24.9389 26.8971 24.9405 26.8916 24.943C26.8885 24.9444 26.8847 24.9461 26.8799 24.9483C26.867 24.9542 26.8437 24.9649 26.8203 24.9798C26.7965 24.995 26.7627 25.0206 26.7355 25.0616L26.7354 25.0615L26.7315 25.0679C26.7081 25.1062 26.6807 25.1457 26.6492 25.1903C26.6455 25.1955 26.6418 25.2008 26.6379 25.2062C26.6105 25.245 26.5803 25.2877 26.5523 25.3309C26.4902 25.4267 26.4214 25.5502 26.4049 25.693C26.2056 27.3678 26.0156 29.047 25.8567 30.7298L25.8567 30.7299C25.7405 31.9677 25.6435 33.2094 25.5441 34.4826C25.5049 34.9847 25.4653 35.4918 25.4239 36.0054L25.3985 36.3213L25.6946 36.2083C25.8044 36.1664 25.8997 36.1293 25.9854 36.0959C26.1676 36.0251 26.3066 35.971 26.4491 35.9232C28.3825 35.2803 30.1687 35.5505 31.9049 36.6444L31.905 36.6445C32.9737 37.317 34.0959 37.9529 35.2722 38.4286C36.1562 38.7865 37.0902 39.0402 38.0105 39.2902Z" stroke="black" stroke-width="0.4"/>
<path d="M46.8923 57.7186L46.8876 57.24C46.8807 56.5295 47.3217 55.6731 47.8955 54.989C48.1862 54.6425 48.5194 54.3297 48.8639 54.092C49.2065 53.8557 49.5718 53.6857 49.9253 53.6412L49.9256 53.6411C50.8249 53.5289 51.5973 53.8597 52.1499 54.578C52.7244 55.3214 52.8535 56.1855 52.4566 57.0522L52.4562 57.0529C52.1814 57.647 51.8582 58.2274 51.4798 58.7645L51.4798 58.7646C50.8343 59.6796 49.7269 59.944 48.621 59.5777L46.8923 57.7186ZM46.8923 57.7186L46.931 57.6796M46.8923 57.7186L46.931 57.6796M46.931 57.6796C47.0908 58.5706 47.7144 59.2777 48.621 59.5777L46.931 57.6796Z" stroke="black" stroke-width="0.4"/>
</svg>
