<svg width="87" height="90" viewBox="0 0 87 90" fill="none" xmlns="http://www.w3.org/2000/svg">
<circle cx="43.5" cy="46.5" r="43.5" fill="#D2DF3F"/>
<g clip-path="url(#clip0_903_9153)">
<path d="M54.8988 75.5881C55.8555 78.6339 55.4034 81.0698 53.3216 82.7417C51.373 84.3014 48.6919 84.4206 46.6486 83.0326C44.3285 81.4589 43.7397 79.1071 44.8121 75.6336H23.9204C24.5408 77.0321 24.8282 78.4551 24.3795 79.9342C23.9274 81.4203 23.0372 82.5665 21.6634 83.32C19.55 84.4767 16.9916 84.1507 15.1796 82.4964C13.3151 80.8 12.9296 78.3114 14.1387 75.532C13.3712 74.9922 13.3467 74.1651 13.3887 73.3028C13.4132 72.8086 13.3922 72.3109 13.3922 71.8167C13.3922 69.1214 14.7976 67.5232 17.5348 67.1621V56.0058C16.203 56.0058 14.8712 56.0199 13.5429 56.0023C12.4249 55.9848 11.8151 55.2383 12.0499 54.1517C13.4132 47.7832 14.7871 41.4147 16.1645 35.0497C16.4133 33.893 16.7883 33.6091 17.9694 33.6056C20.3842 33.6056 22.7989 33.6056 25.2522 33.6056C25.4835 32.2597 25.6938 30.9734 25.9321 29.6906C26.1985 28.25 26.4999 28.0152 27.9649 28.0082C28.1962 28.0082 28.4275 28.0082 28.7254 28.0082V25.2112C28.4205 25.2112 28.1086 25.2112 27.8002 25.2112C24.5338 25.2112 21.2709 25.2112 18.0044 25.2112C16.6832 25.2112 16.196 24.7345 16.196 23.4447C16.196 16.214 16.196 8.97972 16.196 1.74898C16.196 0.490695 16.6902 0 17.9449 0C28.9077 0 39.867 0 50.8298 0C52.0845 0 52.5821 0.490695 52.5821 1.73496C52.5821 8.9657 52.5821 16.1999 52.5821 23.4307C52.5821 24.7205 52.088 25.1972 50.7702 25.1972C47.2164 25.1972 43.6626 25.1972 40.0492 25.1972V27.9626C40.249 27.9731 40.4452 27.9907 40.638 27.9942C42.3658 28.0117 42.6042 28.208 42.9091 29.9359C43.1194 31.1346 43.3051 32.3368 43.5119 33.5951C45.9512 33.5951 48.3344 33.5951 50.7211 33.5951C52.0109 33.5951 52.3403 33.8615 52.6347 35.1303C52.7854 35.7822 52.9957 36.4271 53.0588 37.0895C53.1219 37.7274 53.4373 37.8046 53.977 37.8081C55.3123 37.8186 56.6792 37.738 57.9794 37.9728C60.5659 38.4425 62.3358 40.7137 62.3743 43.3319C62.3814 43.8261 62.3638 44.3238 62.3779 44.818C62.4304 46.3427 63.58 47.5378 65.0975 47.5799C66.5555 47.6185 68.0135 47.622 69.4714 47.5799C70.9504 47.5343 72.121 46.3602 72.1561 44.8776C72.1981 43.069 72.1841 41.2605 72.1455 39.4554C72.142 39.2171 71.9002 38.8946 71.6794 38.7649C70.1338 37.8606 69.3523 36.5463 69.3628 34.7447C69.3768 32.5296 69.3523 30.3109 69.3768 28.0958C69.3838 27.5806 69.2997 27.1985 68.7985 26.9637C65.8896 25.6003 64.7961 23.3185 65.1361 20.1465C65.3218 18.387 65.2412 16.589 65.1466 14.8155C65.0765 13.5222 65.6443 12.6494 66.5625 11.8923C68.1291 10.599 69.9866 10.0663 71.9563 9.86998C74.2168 9.64917 76.4458 9.79287 78.5592 10.6972C79.2742 11.0021 79.9471 11.4367 80.5709 11.9029C81.5207 12.6179 82.0394 13.5257 81.9938 14.8155C81.9062 17.2339 81.9588 19.6558 81.9728 22.0743C81.9798 23.6866 81.4226 25.1061 79.9891 25.8106C78.0545 26.7639 77.4973 28.1554 77.7356 30.1988C77.9108 31.7234 77.7706 33.2867 77.7706 34.8323C77.7706 36.5568 77.0241 37.8676 75.5136 38.6878C75.086 38.9191 74.9563 39.168 74.9633 39.6306C74.9879 41.3516 74.9844 43.0725 74.9704 44.7935C74.9458 47.9234 72.489 50.3664 69.3453 50.3909C67.9469 50.4014 66.545 50.4049 65.1466 50.3909C62.0624 50.3593 59.4935 47.9059 59.6091 44.8285C59.7248 41.7196 58.6698 40.3211 55.2492 40.591C54.8181 40.6261 54.3801 40.5945 53.8298 40.5945C54.2574 42.6274 54.6674 44.6007 55.088 46.5705C55.6242 49.073 56.1745 51.5721 56.7107 54.0746C56.956 55.2207 56.3742 55.9708 55.2107 55.9883C53.9034 56.0058 52.5961 55.9918 51.2363 55.9918V67.1131C54.1908 67.6599 55.3789 69.0969 55.3824 72.0901C55.3824 72.5843 55.442 73.089 55.3684 73.5762C55.2632 74.2527 55.06 74.9151 54.8988 75.5846V75.5881ZM18.7264 36.4271C17.5278 42.0245 16.3397 47.5624 15.1446 53.1388H53.63C52.4314 47.5378 51.2433 42.007 50.0587 36.4657H43.9885C44.0551 36.8512 44.1287 37.1631 44.1638 37.4786C44.2829 38.495 43.7081 39.1925 42.6778 39.196C37.1403 39.21 31.6028 39.21 26.0688 39.196C25.0525 39.196 24.4882 38.474 24.6144 37.4541C24.6564 37.1246 24.716 36.7986 24.7721 36.4341H18.7264V36.4271ZM49.7398 2.86356H19.0629V22.3547H49.7398V2.86356ZM23.1914 67.1621C23.1914 64.8559 23.1844 62.6407 23.1914 60.4291C23.195 59.3356 23.7101 58.8063 24.7826 58.7993C26.5315 58.7853 28.2803 58.7853 30.0292 58.7993C31.0526 58.8063 31.5783 59.3426 31.5853 60.373C31.5993 62.3533 31.5888 64.3371 31.5888 66.3175C31.5888 66.5943 31.5888 66.8712 31.5888 67.1481H37.0842C37.1228 67.0535 37.1648 67.0044 37.1648 66.9519C37.1718 64.7963 37.1718 62.6372 37.1823 60.4817C37.1893 59.2935 37.6905 58.7993 38.8926 58.7958C40.4663 58.7888 42.0399 58.7958 43.6135 58.7958C45.1626 58.7958 45.5797 59.2129 45.5797 60.7551C45.5797 62.8756 45.5797 64.9926 45.5797 67.1376H48.3099V56.0409H20.4472V67.1621H23.1914ZM16.1995 72.735H52.5296C52.7188 70.3482 52.4034 69.9977 50.1043 69.9977C39.5305 69.9977 28.9602 69.9977 18.3865 69.9977C18.1236 69.9977 17.8607 69.9836 17.6014 70.0047C16.7743 70.0643 16.2591 70.569 16.203 71.3926C16.175 71.8238 16.1995 72.2584 16.1995 72.735ZM72.1771 30.7981C72.1771 32.0809 72.1736 33.3638 72.1771 34.6466C72.1841 35.7471 72.7063 36.3956 73.5755 36.3921C74.4446 36.3921 74.9668 35.7436 74.9704 34.6396C74.9774 32.6873 74.9563 30.7315 74.9739 28.7793C75.0054 25.3479 74.4902 26.105 77.4587 24.2333C78.794 23.3921 79.4494 22.4213 79.1515 20.8896C79.0779 20.5181 78.8816 20.0519 78.5872 19.8556C75.7204 17.9384 72.7378 17.6685 69.5836 19.2072C68.4095 19.7785 67.7786 20.4585 67.9399 21.8605C68.038 22.6911 68.2588 23.287 68.9843 23.7251C69.7588 24.1878 70.4773 24.7415 71.2448 25.2182C71.9002 25.6283 72.2086 26.1646 72.1841 26.9532C72.1455 28.236 72.1736 29.5188 72.1736 30.8016L72.1771 30.7981ZM28.5817 30.8297C28.2768 32.6628 27.9789 34.4818 27.667 36.3535H41.1146C40.7992 34.4748 40.4978 32.6558 40.1929 30.8297H28.5817ZM67.9819 16.8519C71.739 14.9136 75.4155 14.9241 79.1725 16.8449C79.1725 16.3016 79.1094 15.867 79.1865 15.4534C79.3583 14.5035 78.9027 13.9112 78.1071 13.6168C77.0837 13.2383 76.0323 12.8352 74.9633 12.6985C72.8009 12.4251 70.6595 12.5828 68.7495 13.8061C68.4375 14.0058 68.0765 14.3563 68.0205 14.6858C67.9083 15.3517 67.9854 16.0527 67.9854 16.8554L67.9819 16.8519ZM19.0313 81.189C20.5454 81.168 21.7931 79.8957 21.7896 78.378C21.786 76.8744 20.4998 75.5951 18.9998 75.5986C17.4472 75.5986 16.168 76.9059 16.1995 78.4551C16.231 79.9693 17.5208 81.21 19.0313 81.189ZM49.7398 75.6021C48.2292 75.6231 46.9781 76.9059 46.9886 78.4166C46.9991 79.9658 48.3204 81.2381 49.8695 81.1925C51.373 81.147 52.6172 79.8326 52.5786 78.3325C52.5366 76.8148 51.2538 75.5811 49.7398 75.6021ZM37.1122 27.9801V25.2603H31.6589V27.9801H37.1122ZM28.7535 61.6629H26.0338V67.1411H28.7535V61.6629ZM42.7408 67.1551V61.6488H40.0457V67.1551H42.7408Z" fill="black"/>
<path d="M28.7961 44.8006C26.5846 44.8006 24.3697 44.8006 22.1582 44.8006C21.0437 44.8006 20.4163 44.3029 20.3988 43.4266C20.3813 42.5399 21.0121 42.0036 22.1056 42.0036C26.5601 42.0001 31.0146 42.0001 35.4726 42.0036C36.5696 42.0036 37.2005 42.5329 37.19 43.4196C37.1794 44.2959 36.5486 44.8006 35.4376 44.8006C33.2261 44.8041 31.0111 44.8006 28.7996 44.8006H28.7961Z" fill="black"/>
<path d="M27.3899 50.3982C25.1469 50.3982 22.9038 50.4017 20.6643 50.3982C19.6234 50.3982 19.0101 49.8795 18.9925 49.0243C18.975 48.1375 19.6059 47.6013 20.6993 47.6013C25.1539 47.5978 29.6084 47.5978 34.0664 47.6013C35.1669 47.6013 35.7942 48.1305 35.7837 49.0173C35.7732 49.8935 35.1423 50.3982 34.0313 50.4017C31.8199 50.4052 29.6049 50.4017 27.3934 50.4017L27.3899 50.3982Z" fill="black"/>
<path d="M44.1876 41.9969C45.0603 41.9969 45.9329 41.9863 46.8056 41.9969C47.7694 42.0109 48.3687 42.5471 48.3828 43.3743C48.3968 44.2015 47.7905 44.7833 46.8477 44.7938C45.0743 44.8078 43.2974 44.8078 41.524 44.7938C40.5812 44.7868 39.9784 44.2015 39.9924 43.3743C40.0064 42.5471 40.6058 42.0144 41.5696 42.0004C42.4422 41.9863 43.3149 42.0004 44.1876 42.0004V41.9969Z" fill="black"/>
<path d="M45.6524 47.5971C46.5251 47.5971 47.3978 47.5831 48.2704 47.6006C49.1676 47.6181 49.7564 48.1614 49.781 48.9535C49.8055 49.7807 49.1992 50.3836 48.2669 50.3906C46.462 50.4081 44.6606 50.4116 42.8556 50.3906C41.9724 50.3801 41.3871 49.7912 41.3906 48.9956C41.3906 48.1965 41.9724 47.6251 42.8591 47.6041C43.7879 47.5831 44.7201 47.6006 45.6524 47.6006V47.5971Z" fill="black"/>
<path d="M34.2974 19.5994C30.7437 19.5994 27.1863 19.5994 23.6326 19.5994C22.2587 19.5994 21.7891 19.1368 21.7891 17.7803C21.7891 14.3104 21.7891 10.844 21.7891 7.3741C21.7891 6.07376 22.2692 5.60059 23.587 5.60059C30.7857 5.60059 37.9809 5.60059 45.1796 5.60059C46.4939 5.60059 46.9811 6.07726 46.9811 7.3741C46.9846 10.8721 46.9846 14.37 46.9811 17.868C46.9811 19.1087 46.4799 19.5994 45.2252 19.5994C41.5838 19.6029 37.9389 19.5994 34.2974 19.5994ZM24.6524 8.43961V16.7289H44.1317V8.43961H24.6524Z" fill="black"/>
</g>
<defs>
<clipPath id="clip0_903_9153">
<rect width="70" height="84" fill="white" transform="translate(12)"/>
</clipPath>
</defs>
</svg>
