<svg width="92" height="87" viewBox="0 0 92 87" fill="none" xmlns="http://www.w3.org/2000/svg">
<circle cx="48.5" cy="43.5" r="43.5" fill="#D2DF3F"/>
<path d="M56.4568 22.2065C57.8289 22.2065 59.1312 22.2065 60.4311 22.2065C62.4954 22.209 63.6633 23.3769 63.6633 25.4387C63.6633 38.2232 63.6658 51.0077 63.6633 63.7921C63.6633 68.0154 60.5133 71.1804 56.285 71.1829C39.977 71.1904 23.6664 71.1904 7.35841 71.1829C3.14009 71.1804 0.00249016 68.003 0 63.7722C0 48.5847 0 33.3948 0 18.2073C0 16.1928 1.1878 15 3.20234 15C19.8839 15 36.5679 15 53.2495 15C55.2765 15 56.4518 16.1778 56.4568 18.1949C56.4593 19.4997 56.4568 20.8021 56.4568 22.2065ZM56.4568 25.115C56.4568 25.3815 56.4568 25.6031 56.4568 25.8247C56.4568 37.6355 56.4568 49.4438 56.4568 61.2547C56.4568 62.298 56.5041 62.3578 57.4952 62.6018C58.1974 62.7737 58.6233 63.3314 58.5909 64.0461C58.561 64.7508 58.0804 65.2937 57.3508 65.3609C56.9897 65.3958 56.6012 65.3659 56.2526 65.2713C54.5419 64.8131 53.5832 63.441 53.5832 61.4887C53.5832 47.2351 53.5832 32.9789 53.5832 18.7253V17.9185H2.87364V18.5609C2.87364 33.5616 2.87364 48.5623 2.88111 63.563C2.88111 64.076 2.9334 64.6039 3.06787 65.0945C3.62318 67.119 5.26917 68.2993 7.54019 68.2993C23.7461 68.3043 39.9496 68.3043 56.1555 68.2943C56.6262 68.2943 57.1117 68.2346 57.5625 68.1101C59.6492 67.5323 60.7922 65.8963 60.7922 63.5307C60.7922 50.9554 60.7922 38.3776 60.7922 25.8023V25.1125H56.4568V25.115Z" fill="black"/>
<path d="M17.2805 48.296C15.0443 48.296 12.8057 48.296 10.5695 48.296C9.15512 48.296 8.63468 47.7706 8.63468 46.3437C8.63219 41.8291 8.63219 37.3144 8.63468 32.7998C8.63468 31.348 9.12773 30.8525 10.567 30.8525C15.1041 30.85 19.6387 30.8475 24.1757 30.8525C25.5603 30.8525 26.0857 31.3804 26.0857 32.7649C26.0882 37.2995 26.0882 41.8366 26.0857 46.3711C26.0857 47.7482 25.5428 48.296 24.1782 48.296C21.8798 48.301 19.5789 48.296 17.2805 48.296ZM11.593 33.7809V45.3502H23.1324V33.7809H11.5955H11.593Z" fill="black"/>
<path d="M28.2541 23.6611C34.1384 23.6611 40.0251 23.6611 45.9093 23.6611C46.5219 23.6611 47.1096 23.6835 47.5205 24.2513C48.1032 25.0581 47.7446 26.1812 46.7884 26.4377C46.4746 26.5223 46.1359 26.5472 45.8072 26.5472C34.0985 26.5522 22.3923 26.5522 10.6836 26.5472C10.3549 26.5472 10.0187 26.5198 9.70246 26.4426C9.03012 26.2808 8.63916 25.7105 8.67403 25.0158C8.70889 24.3385 9.187 23.7931 9.85436 23.7035C10.1407 23.6636 10.4321 23.6636 10.7234 23.6636C16.5678 23.6636 22.4097 23.6636 28.2541 23.6636V23.6611Z" fill="black"/>
<path d="M39.1013 38.0418C41.3997 38.0418 43.6981 38.0368 45.9965 38.0418C47.0499 38.0443 47.6251 38.4452 47.762 39.2296C47.904 40.0488 47.4657 40.6988 46.6465 40.8681C46.4248 40.9129 46.1982 40.9453 45.9716 40.9453C41.3947 40.9503 36.8203 40.9503 32.2434 40.9453C31.1652 40.9453 30.5675 40.5294 30.443 39.7226C30.316 38.9034 30.7692 38.2211 31.591 38.114C32.2036 38.0343 32.8286 38.0418 33.4461 38.0393C35.3312 38.0318 37.2137 38.0368 39.0988 38.0368L39.1013 38.0418Z" fill="black"/>
<path d="M39.094 48.1465C36.7956 48.1465 34.4972 48.1514 32.1987 48.144C31.1056 48.139 30.5005 47.6758 30.4208 46.8217C30.3535 46.0971 30.7968 45.4795 31.514 45.3276C31.7754 45.2728 32.0444 45.2405 32.3108 45.2405C36.8454 45.2355 41.38 45.2355 45.9145 45.238C47.0127 45.238 47.6128 45.6264 47.7572 46.4133C47.9116 47.2525 47.451 47.9672 46.6018 48.0693C45.927 48.1514 45.2397 48.139 44.5599 48.1415C42.7371 48.149 40.9168 48.144 39.094 48.144V48.1465Z" fill="black"/>
<path d="M17.3969 55.3375C15.0586 55.3375 12.7179 55.3475 10.3796 55.3325C9.26156 55.3251 8.63155 54.7449 8.67388 53.8185C8.71123 52.9669 9.34871 52.4415 10.3996 52.434C11.8687 52.4215 13.3404 52.4315 14.8096 52.4315C17.9572 52.4315 21.1023 52.429 24.2498 52.4315C25.2857 52.4315 25.8634 52.8324 26.0128 53.6243C26.1697 54.451 25.6841 55.1757 24.8474 55.2753C24.2747 55.3425 23.692 55.3325 23.1143 55.335C21.2093 55.3425 19.3044 55.335 17.3994 55.335L17.3969 55.3375Z" fill="black"/>
<path d="M39.0406 33.7537C36.7422 33.7537 34.4438 33.7611 32.1453 33.7512C31.1418 33.7462 30.5467 33.2905 30.4371 32.4911C30.3275 31.6868 30.8181 31.0244 31.6274 30.9024C31.8714 30.8651 32.1204 30.8526 32.3695 30.8501C36.8617 30.8476 41.3539 30.8402 45.8462 30.8601C46.2845 30.8601 46.7626 30.9398 47.1485 31.134C47.6964 31.4079 47.8707 31.9483 47.7586 32.5584C47.6515 33.1461 47.3054 33.5221 46.7252 33.6516C46.4463 33.7138 46.155 33.7487 45.8686 33.7487C43.5901 33.7561 41.3141 33.7537 39.0356 33.7537H39.0406Z" fill="black"/>
<path d="M39.044 55.3377C36.7655 55.3377 34.4895 55.3377 32.211 55.3377C31.5909 55.3377 31.0182 55.2431 30.6397 54.6654C30.1392 53.8959 30.5077 52.8028 31.3867 52.5537C31.698 52.4641 32.0392 52.4392 32.3654 52.4392C36.8576 52.4317 41.3499 52.4317 45.8421 52.4392C46.1683 52.4392 46.507 52.4716 46.8207 52.5537C47.4209 52.7131 47.8342 53.3431 47.7969 53.9682C47.757 54.6206 47.3038 55.1634 46.6763 55.273C46.3924 55.3228 46.1011 55.3352 45.8122 55.3352C43.5561 55.3402 41.3001 55.3377 39.0415 55.3377H39.044Z" fill="black"/>
<path d="M39.1381 62.5276C36.7774 62.5276 34.4192 62.5375 32.0585 62.5226C30.8732 62.5151 30.2108 61.7357 30.4698 60.7073C30.6391 60.0324 31.2368 59.6415 32.1557 59.639C34.8674 59.634 37.5792 59.639 40.291 59.639C42.2358 59.639 44.1831 59.629 46.1279 59.644C47.1738 59.6514 47.8411 60.269 47.8063 61.1431C47.7764 61.91 47.2311 62.4803 46.4018 62.5077C45.2439 62.545 44.0835 62.5276 42.9256 62.5276C41.6631 62.5276 40.4006 62.5276 39.1381 62.5276Z" fill="black"/>
<path d="M17.3409 62.5276C15.0226 62.5276 12.7042 62.5276 10.3859 62.5276C9.8032 62.5276 9.28027 62.4255 8.91671 61.9026C8.37386 61.1207 8.74489 60.015 9.65629 59.7511C9.87293 59.6888 10.102 59.644 10.3261 59.644C15.0051 59.639 19.6817 59.6365 24.3607 59.6465C24.662 59.6465 24.9832 59.7137 25.2596 59.8308C25.8274 60.0723 26.1212 60.6874 26.0191 61.3074C25.9145 61.9599 25.4862 62.4031 24.8512 62.4878C24.5848 62.5226 24.3158 62.5251 24.0469 62.5276C21.8107 62.5301 19.5746 62.5276 17.3409 62.5276Z" fill="black"/>
</svg>
