<svg width="102" height="87" viewBox="0 0 102 87" fill="none" xmlns="http://www.w3.org/2000/svg">
<circle cx="58.5" cy="43.5" r="43.5" fill="#D2DF3F"/>
<mask id="path-2-outside-1_903_9155" maskUnits="userSpaceOnUse" x="0" y="17" width="88" height="61" fill="black">
<rect fill="white" y="17" width="88" height="61"/>
<path d="M27.4493 40.0443C30.0864 42.352 33.6324 41.6984 35.145 38.5874C35.7737 37.2911 36.2336 35.9036 36.7078 34.5343C36.9629 33.8003 37.3725 33.3877 38.1414 33.2344C40.4515 32.7743 42.7473 32.2302 45.061 31.7884C45.5101 31.7044 46.0957 31.7884 46.4802 32.0257C53.0046 36.0606 59.4752 40.1904 66.032 44.1741C69.5349 46.3029 73.1888 48.1797 76.76 50.2026C79.1384 51.55 80.2629 53.6605 79.9647 56.4028C79.6917 58.8857 78.2474 60.5398 75.9444 61.3906C74.5253 61.9164 73.1241 61.7631 71.7696 61.1314C71.263 60.894 70.7636 60.6384 70.1205 60.3208C70.3433 62.9681 69.5206 65.0457 67.4583 66.4953C65.3494 67.9778 63.1578 67.8281 60.8871 66.5319C60.9231 69.3836 59.8416 71.4102 57.298 72.4691C54.8261 73.4988 52.6274 72.6699 50.4825 71.2532C50.3927 71.5489 50.3172 71.7352 50.2849 71.925C49.5879 75.9197 45.9592 78.0047 42.194 76.5259C41.3353 76.1899 40.5629 75.4085 39.7114 75.3464C38.9318 75.288 38.1234 76.0074 37.2863 76.241C33.9055 77.1868 30.1008 74.7659 29.896 70.4499C27.9415 71.1655 26.0409 71.1363 24.2697 69.9606C22.5164 68.7994 21.7009 67.0759 21.5356 64.9325C19.0314 65.7687 16.7752 65.4985 14.9321 63.5998C13.1178 61.7302 12.8483 59.4663 13.7177 56.9359C11.095 56.7496 9.08667 55.636 8.12022 53.1603C7.17532 50.7357 7.72861 48.5193 9.55733 46.5256C8.23519 45.861 6.99568 45.1636 5.6987 44.6049C1.58498 42.8194 -0.247328 38.0214 1.91552 33.731C3.72268 30.1489 5.29271 26.4427 6.98491 22.7985C8.95015 18.5629 12.8267 17.0183 17.1093 18.7454C20.3787 20.0636 23.641 21.3927 26.9104 22.7109C27.6361 23.003 28.175 23.4339 28.1355 24.2993C28.0852 25.3874 27.09 25.9242 25.9403 25.4677C22.9188 24.2591 19.9045 23.0213 16.8866 21.8053C15.6435 21.3051 14.4363 20.6917 13.01 21.0276C11.5765 21.3635 10.4663 22.123 9.83756 23.4558C7.91902 27.5272 6.01127 31.6022 4.17896 35.7137C3.18376 37.9484 4.11429 40.4788 6.26276 41.6254C7.9801 42.5382 9.73337 43.3781 11.4866 44.2179C11.7525 44.3457 12.1549 44.4151 12.4064 44.3019C15.956 42.7427 20.6626 45.4083 20.5656 50.1442C20.5656 50.2026 20.5943 50.2574 20.6374 50.4254C22.6027 50.0675 24.4745 50.3377 26.0553 51.7143C27.6182 53.0763 28.2181 54.8582 28.1391 57.0199C30.09 56.7606 31.9043 56.9979 33.4241 58.3599C34.9366 59.7146 35.5366 61.46 35.4935 63.4646C41.806 62.5993 44.3676 69.139 41.6587 72.9584C42.7329 73.6522 43.8036 74.2547 45.1616 73.9443C47.1161 73.4952 48.0574 71.3627 47.0047 69.6173C46.5448 68.8542 46.2466 68.1531 46.9328 67.3973C47.479 66.7984 48.2047 66.7911 49.2286 67.3352C50.6298 68.0801 51.9915 68.9199 53.4465 69.5333C54.1974 69.851 55.1423 69.9496 55.9435 69.8145C57.0034 69.6319 57.7435 68.825 57.8944 67.693C58.0453 66.5465 57.9339 65.4766 56.7806 64.7609C55.6094 64.0343 54.5136 63.1871 53.389 62.3838C52.401 61.6827 52.1603 60.9707 52.6238 60.182C53.0801 59.4115 53.8848 59.2764 54.9016 59.8351C57.5028 61.2592 60.1039 62.6796 62.6871 64.1292C63.7218 64.7098 64.7314 64.7719 65.7302 64.1146C66.7613 63.4354 67.2823 62.4532 67.2427 61.2008C67.2104 60.2076 66.6931 59.5028 65.8883 58.977C64.2069 57.8779 62.529 56.7716 60.8512 55.6652C59.8884 55.0298 59.6189 54.2557 60.0752 53.467C60.5171 52.7075 61.2644 52.5578 62.2668 53.0617C65.6871 54.7815 69.1038 56.5123 72.5205 58.2321C74.3025 59.1304 75.8869 58.7178 76.76 57.144C77.6186 55.5921 77.1085 53.7336 75.3911 52.817C65.2452 47.3837 55.6022 41.085 45.8083 35.0455C45.4957 34.8519 45.0215 34.7899 44.655 34.8556C43.0994 35.1404 41.5653 35.5165 40.0096 35.8123C39.503 35.9072 39.2515 36.13 39.0791 36.6192C38.6946 37.7001 38.3066 38.7882 37.7965 39.8106C35.4001 44.6196 29.6517 45.7734 25.6062 42.2899C24.1691 41.0521 24.1044 40.8659 24.7152 39.0146C25.6457 36.203 26.8026 33.4498 27.4673 30.5761C27.9343 28.5532 28.9223 27.3117 30.593 26.2747C34.1031 24.0875 37.5629 21.8163 40.9725 19.4684C43.2 17.9385 45.5748 17.7632 48.0825 18.2233C53.4789 19.2165 58.8716 20.2316 64.2607 21.2613C64.7134 21.3489 65.22 21.5205 65.547 21.8273C66.0967 22.3421 66.5457 22.364 67.2032 22.0244C68.5541 21.3197 69.9553 20.7099 71.3385 20.0673C75.5241 18.1137 79.839 19.7459 81.7 24.0145C83.2557 27.5856 84.7898 31.1713 86.3095 34.7607C88.0448 38.8612 86.4676 43.0604 82.494 44.9774C81.1216 45.6383 79.742 46.2883 78.3588 46.9273C77.3312 47.402 76.53 47.161 76.1564 46.3065C75.8007 45.4886 76.142 44.762 77.1372 44.2873C78.5132 43.63 79.9036 43.002 81.2797 42.3411C83.8269 41.1178 84.7862 38.5874 83.676 35.962C82.1419 32.3471 80.5935 28.7394 79.027 25.1355C77.8522 22.437 75.3013 21.4731 72.6427 22.7036C70.7708 23.569 68.9026 24.4453 67.0487 25.3545C66.1505 25.7964 65.4428 25.6978 64.6991 24.9821C64.25 24.5476 63.6356 24.1496 63.0392 24.0327C57.8261 23.0176 52.6022 22.0756 47.3819 21.1006C45.6143 20.7683 43.9868 20.9655 42.4383 22.0135C38.691 24.5549 34.8971 27.0269 31.1355 29.5428C30.9343 29.6779 30.751 29.9189 30.672 30.1525C29.6552 33.2198 28.6565 36.2943 27.6541 39.3688C27.5822 39.5952 27.5211 39.8252 27.4601 40.037L27.4493 40.0443ZM19.1644 62.6321C19.8147 62.3071 20.5656 62.1027 21.0901 61.6389C22.2577 60.6056 23.3428 59.4663 24.4098 58.3234C25.5559 57.0929 25.5236 55.3365 24.3954 54.1389C23.2925 52.9668 21.4997 52.8536 20.2781 53.9819C19.0853 55.0809 17.9464 56.2494 16.847 57.4471C15.9956 58.3782 15.8734 59.5211 16.38 60.6676C16.8866 61.8178 17.8099 62.4167 19.1608 62.6358L19.1644 62.6321ZM32.4863 62.8512C32.472 61.6316 31.9367 60.6421 30.8229 60.1017C29.7163 59.5649 28.5774 59.6818 27.6361 60.5106C26.7379 61.3066 25.89 62.172 25.096 63.0739C24.2374 64.0489 24.1942 65.4036 24.8769 66.5428C25.5415 67.6529 26.8206 68.3357 28.0134 67.8938C30.0828 67.1234 31.4552 65.5058 32.4217 63.5267C32.5079 63.3515 32.4684 63.1068 32.4899 62.8476L32.4863 62.8512ZM17.6195 49.8776C17.5943 48.5814 17.0231 47.6503 15.9057 47.0989C14.8135 46.5621 13.7501 46.679 12.8196 47.464C12.2267 47.9643 11.6555 48.5156 11.1848 49.1291C10.4483 50.0967 10.3801 51.1885 10.9334 52.2839C11.4687 53.3428 12.3561 53.7956 13.5166 53.9453C15.0866 54.1462 17.9033 51.4076 17.6195 49.874V49.8776ZM32.7989 70.4206C32.7917 72.4508 34.5701 73.9333 36.4851 73.3491C38.0767 72.8635 39.2264 71.7133 39.7222 70.0957C40.2503 68.3649 38.8958 66.5355 37.121 66.3968C35.163 66.2434 32.8061 68.4379 32.7989 70.4243V70.4206Z"/>
</mask>
<path d="M27.4493 40.0443C30.0864 42.352 33.6324 41.6984 35.145 38.5874C35.7737 37.2911 36.2336 35.9036 36.7078 34.5343C36.9629 33.8003 37.3725 33.3877 38.1414 33.2344C40.4515 32.7743 42.7473 32.2302 45.061 31.7884C45.5101 31.7044 46.0957 31.7884 46.4802 32.0257C53.0046 36.0606 59.4752 40.1904 66.032 44.1741C69.5349 46.3029 73.1888 48.1797 76.76 50.2026C79.1384 51.55 80.2629 53.6605 79.9647 56.4028C79.6917 58.8857 78.2474 60.5398 75.9444 61.3906C74.5253 61.9164 73.1241 61.7631 71.7696 61.1314C71.263 60.894 70.7636 60.6384 70.1205 60.3208C70.3433 62.9681 69.5206 65.0457 67.4583 66.4953C65.3494 67.9778 63.1578 67.8281 60.8871 66.5319C60.9231 69.3836 59.8416 71.4102 57.298 72.4691C54.8261 73.4988 52.6274 72.6699 50.4825 71.2532C50.3927 71.5489 50.3172 71.7352 50.2849 71.925C49.5879 75.9197 45.9592 78.0047 42.194 76.5259C41.3353 76.1899 40.5629 75.4085 39.7114 75.3464C38.9318 75.288 38.1234 76.0074 37.2863 76.241C33.9055 77.1868 30.1008 74.7659 29.896 70.4499C27.9415 71.1655 26.0409 71.1363 24.2697 69.9606C22.5164 68.7994 21.7009 67.0759 21.5356 64.9325C19.0314 65.7687 16.7752 65.4985 14.9321 63.5998C13.1178 61.7302 12.8483 59.4663 13.7177 56.9359C11.095 56.7496 9.08667 55.636 8.12022 53.1603C7.17532 50.7357 7.72861 48.5193 9.55733 46.5256C8.23519 45.861 6.99568 45.1636 5.6987 44.6049C1.58498 42.8194 -0.247328 38.0214 1.91552 33.731C3.72268 30.1489 5.29271 26.4427 6.98491 22.7985C8.95015 18.5629 12.8267 17.0183 17.1093 18.7454C20.3787 20.0636 23.641 21.3927 26.9104 22.7109C27.6361 23.003 28.175 23.4339 28.1355 24.2993C28.0852 25.3874 27.09 25.9242 25.9403 25.4677C22.9188 24.2591 19.9045 23.0213 16.8866 21.8053C15.6435 21.3051 14.4363 20.6917 13.01 21.0276C11.5765 21.3635 10.4663 22.123 9.83756 23.4558C7.91902 27.5272 6.01127 31.6022 4.17896 35.7137C3.18376 37.9484 4.11429 40.4788 6.26276 41.6254C7.9801 42.5382 9.73337 43.3781 11.4866 44.2179C11.7525 44.3457 12.1549 44.4151 12.4064 44.3019C15.956 42.7427 20.6626 45.4083 20.5656 50.1442C20.5656 50.2026 20.5943 50.2574 20.6374 50.4254C22.6027 50.0675 24.4745 50.3377 26.0553 51.7143C27.6182 53.0763 28.2181 54.8582 28.1391 57.0199C30.09 56.7606 31.9043 56.9979 33.4241 58.3599C34.9366 59.7146 35.5366 61.46 35.4935 63.4646C41.806 62.5993 44.3676 69.139 41.6587 72.9584C42.7329 73.6522 43.8036 74.2547 45.1616 73.9443C47.1161 73.4952 48.0574 71.3627 47.0047 69.6173C46.5448 68.8542 46.2466 68.1531 46.9328 67.3973C47.479 66.7984 48.2047 66.7911 49.2286 67.3352C50.6298 68.0801 51.9915 68.9199 53.4465 69.5333C54.1974 69.851 55.1423 69.9496 55.9435 69.8145C57.0034 69.6319 57.7435 68.825 57.8944 67.693C58.0453 66.5465 57.9339 65.4766 56.7806 64.7609C55.6094 64.0343 54.5136 63.1871 53.389 62.3838C52.401 61.6827 52.1603 60.9707 52.6238 60.182C53.0801 59.4115 53.8848 59.2764 54.9016 59.8351C57.5028 61.2592 60.1039 62.6796 62.6871 64.1292C63.7218 64.7098 64.7314 64.7719 65.7302 64.1146C66.7613 63.4354 67.2823 62.4532 67.2427 61.2008C67.2104 60.2076 66.6931 59.5028 65.8883 58.977C64.2069 57.8779 62.529 56.7716 60.8512 55.6652C59.8884 55.0298 59.6189 54.2557 60.0752 53.467C60.5171 52.7075 61.2644 52.5578 62.2668 53.0617C65.6871 54.7815 69.1038 56.5123 72.5205 58.2321C74.3025 59.1304 75.8869 58.7178 76.76 57.144C77.6186 55.5921 77.1085 53.7336 75.3911 52.817C65.2452 47.3837 55.6022 41.085 45.8083 35.0455C45.4957 34.8519 45.0215 34.7899 44.655 34.8556C43.0994 35.1404 41.5653 35.5165 40.0096 35.8123C39.503 35.9072 39.2515 36.13 39.0791 36.6192C38.6946 37.7001 38.3066 38.7882 37.7965 39.8106C35.4001 44.6196 29.6517 45.7734 25.6062 42.2899C24.1691 41.0521 24.1044 40.8659 24.7152 39.0146C25.6457 36.203 26.8026 33.4498 27.4673 30.5761C27.9343 28.5532 28.9223 27.3117 30.593 26.2747C34.1031 24.0875 37.5629 21.8163 40.9725 19.4684C43.2 17.9385 45.5748 17.7632 48.0825 18.2233C53.4789 19.2165 58.8716 20.2316 64.2607 21.2613C64.7134 21.3489 65.22 21.5205 65.547 21.8273C66.0967 22.3421 66.5457 22.364 67.2032 22.0244C68.5541 21.3197 69.9553 20.7099 71.3385 20.0673C75.5241 18.1137 79.839 19.7459 81.7 24.0145C83.2557 27.5856 84.7898 31.1713 86.3095 34.7607C88.0448 38.8612 86.4676 43.0604 82.494 44.9774C81.1216 45.6383 79.742 46.2883 78.3588 46.9273C77.3312 47.402 76.53 47.161 76.1564 46.3065C75.8007 45.4886 76.142 44.762 77.1372 44.2873C78.5132 43.63 79.9036 43.002 81.2797 42.3411C83.8269 41.1178 84.7862 38.5874 83.676 35.962C82.1419 32.3471 80.5935 28.7394 79.027 25.1355C77.8522 22.437 75.3013 21.4731 72.6427 22.7036C70.7708 23.569 68.9026 24.4453 67.0487 25.3545C66.1505 25.7964 65.4428 25.6978 64.6991 24.9821C64.25 24.5476 63.6356 24.1496 63.0392 24.0327C57.8261 23.0176 52.6022 22.0756 47.3819 21.1006C45.6143 20.7683 43.9868 20.9655 42.4383 22.0135C38.691 24.5549 34.8971 27.0269 31.1355 29.5428C30.9343 29.6779 30.751 29.9189 30.672 30.1525C29.6552 33.2198 28.6565 36.2943 27.6541 39.3688C27.5822 39.5952 27.5211 39.8252 27.4601 40.037L27.4493 40.0443ZM19.1644 62.6321C19.8147 62.3071 20.5656 62.1027 21.0901 61.6389C22.2577 60.6056 23.3428 59.4663 24.4098 58.3234C25.5559 57.0929 25.5236 55.3365 24.3954 54.1389C23.2925 52.9668 21.4997 52.8536 20.2781 53.9819C19.0853 55.0809 17.9464 56.2494 16.847 57.4471C15.9956 58.3782 15.8734 59.5211 16.38 60.6676C16.8866 61.8178 17.8099 62.4167 19.1608 62.6358L19.1644 62.6321ZM32.4863 62.8512C32.472 61.6316 31.9367 60.6421 30.8229 60.1017C29.7163 59.5649 28.5774 59.6818 27.6361 60.5106C26.7379 61.3066 25.89 62.172 25.096 63.0739C24.2374 64.0489 24.1942 65.4036 24.8769 66.5428C25.5415 67.6529 26.8206 68.3357 28.0134 67.8938C30.0828 67.1234 31.4552 65.5058 32.4217 63.5267C32.5079 63.3515 32.4684 63.1068 32.4899 62.8476L32.4863 62.8512ZM17.6195 49.8776C17.5943 48.5814 17.0231 47.6503 15.9057 47.0989C14.8135 46.5621 13.7501 46.679 12.8196 47.464C12.2267 47.9643 11.6555 48.5156 11.1848 49.1291C10.4483 50.0967 10.3801 51.1885 10.9334 52.2839C11.4687 53.3428 12.3561 53.7956 13.5166 53.9453C15.0866 54.1462 17.9033 51.4076 17.6195 49.874V49.8776ZM32.7989 70.4206C32.7917 72.4508 34.5701 73.9333 36.4851 73.3491C38.0767 72.8635 39.2264 71.7133 39.7222 70.0957C40.2503 68.3649 38.8958 66.5355 37.121 66.3968C35.163 66.2434 32.8061 68.4379 32.7989 70.4243V70.4206Z" fill="black"/>
<path d="M27.4493 40.0443C30.0864 42.352 33.6324 41.6984 35.145 38.5874C35.7737 37.2911 36.2336 35.9036 36.7078 34.5343C36.9629 33.8003 37.3725 33.3877 38.1414 33.2344C40.4515 32.7743 42.7473 32.2302 45.061 31.7884C45.5101 31.7044 46.0957 31.7884 46.4802 32.0257C53.0046 36.0606 59.4752 40.1904 66.032 44.1741C69.5349 46.3029 73.1888 48.1797 76.76 50.2026C79.1384 51.55 80.2629 53.6605 79.9647 56.4028C79.6917 58.8857 78.2474 60.5398 75.9444 61.3906C74.5253 61.9164 73.1241 61.7631 71.7696 61.1314C71.263 60.894 70.7636 60.6384 70.1205 60.3208C70.3433 62.9681 69.5206 65.0457 67.4583 66.4953C65.3494 67.9778 63.1578 67.8281 60.8871 66.5319C60.9231 69.3836 59.8416 71.4102 57.298 72.4691C54.8261 73.4988 52.6274 72.6699 50.4825 71.2532C50.3927 71.5489 50.3172 71.7352 50.2849 71.925C49.5879 75.9197 45.9592 78.0047 42.194 76.5259C41.3353 76.1899 40.5629 75.4085 39.7114 75.3464C38.9318 75.288 38.1234 76.0074 37.2863 76.241C33.9055 77.1868 30.1008 74.7659 29.896 70.4499C27.9415 71.1655 26.0409 71.1363 24.2697 69.9606C22.5164 68.7994 21.7009 67.0759 21.5356 64.9325C19.0314 65.7687 16.7752 65.4985 14.9321 63.5998C13.1178 61.7302 12.8483 59.4663 13.7177 56.9359C11.095 56.7496 9.08667 55.636 8.12022 53.1603C7.17532 50.7357 7.72861 48.5193 9.55733 46.5256C8.23519 45.861 6.99568 45.1636 5.6987 44.6049C1.58498 42.8194 -0.247328 38.0214 1.91552 33.731C3.72268 30.1489 5.29271 26.4427 6.98491 22.7985C8.95015 18.5629 12.8267 17.0183 17.1093 18.7454C20.3787 20.0636 23.641 21.3927 26.9104 22.7109C27.6361 23.003 28.175 23.4339 28.1355 24.2993C28.0852 25.3874 27.09 25.9242 25.9403 25.4677C22.9188 24.2591 19.9045 23.0213 16.8866 21.8053C15.6435 21.3051 14.4363 20.6917 13.01 21.0276C11.5765 21.3635 10.4663 22.123 9.83756 23.4558C7.91902 27.5272 6.01127 31.6022 4.17896 35.7137C3.18376 37.9484 4.11429 40.4788 6.26276 41.6254C7.9801 42.5382 9.73337 43.3781 11.4866 44.2179C11.7525 44.3457 12.1549 44.4151 12.4064 44.3019C15.956 42.7427 20.6626 45.4083 20.5656 50.1442C20.5656 50.2026 20.5943 50.2574 20.6374 50.4254C22.6027 50.0675 24.4745 50.3377 26.0553 51.7143C27.6182 53.0763 28.2181 54.8582 28.1391 57.0199C30.09 56.7606 31.9043 56.9979 33.4241 58.3599C34.9366 59.7146 35.5366 61.46 35.4935 63.4646C41.806 62.5993 44.3676 69.139 41.6587 72.9584C42.7329 73.6522 43.8036 74.2547 45.1616 73.9443C47.1161 73.4952 48.0574 71.3627 47.0047 69.6173C46.5448 68.8542 46.2466 68.1531 46.9328 67.3973C47.479 66.7984 48.2047 66.7911 49.2286 67.3352C50.6298 68.0801 51.9915 68.9199 53.4465 69.5333C54.1974 69.851 55.1423 69.9496 55.9435 69.8145C57.0034 69.6319 57.7435 68.825 57.8944 67.693C58.0453 66.5465 57.9339 65.4766 56.7806 64.7609C55.6094 64.0343 54.5136 63.1871 53.389 62.3838C52.401 61.6827 52.1603 60.9707 52.6238 60.182C53.0801 59.4115 53.8848 59.2764 54.9016 59.8351C57.5028 61.2592 60.1039 62.6796 62.6871 64.1292C63.7218 64.7098 64.7314 64.7719 65.7302 64.1146C66.7613 63.4354 67.2823 62.4532 67.2427 61.2008C67.2104 60.2076 66.6931 59.5028 65.8883 58.977C64.2069 57.8779 62.529 56.7716 60.8512 55.6652C59.8884 55.0298 59.6189 54.2557 60.0752 53.467C60.5171 52.7075 61.2644 52.5578 62.2668 53.0617C65.6871 54.7815 69.1038 56.5123 72.5205 58.2321C74.3025 59.1304 75.8869 58.7178 76.76 57.144C77.6186 55.5921 77.1085 53.7336 75.3911 52.817C65.2452 47.3837 55.6022 41.085 45.8083 35.0455C45.4957 34.8519 45.0215 34.7899 44.655 34.8556C43.0994 35.1404 41.5653 35.5165 40.0096 35.8123C39.503 35.9072 39.2515 36.13 39.0791 36.6192C38.6946 37.7001 38.3066 38.7882 37.7965 39.8106C35.4001 44.6196 29.6517 45.7734 25.6062 42.2899C24.1691 41.0521 24.1044 40.8659 24.7152 39.0146C25.6457 36.203 26.8026 33.4498 27.4673 30.5761C27.9343 28.5532 28.9223 27.3117 30.593 26.2747C34.1031 24.0875 37.5629 21.8163 40.9725 19.4684C43.2 17.9385 45.5748 17.7632 48.0825 18.2233C53.4789 19.2165 58.8716 20.2316 64.2607 21.2613C64.7134 21.3489 65.22 21.5205 65.547 21.8273C66.0967 22.3421 66.5457 22.364 67.2032 22.0244C68.5541 21.3197 69.9553 20.7099 71.3385 20.0673C75.5241 18.1137 79.839 19.7459 81.7 24.0145C83.2557 27.5856 84.7898 31.1713 86.3095 34.7607C88.0448 38.8612 86.4676 43.0604 82.494 44.9774C81.1216 45.6383 79.742 46.2883 78.3588 46.9273C77.3312 47.402 76.53 47.161 76.1564 46.3065C75.8007 45.4886 76.142 44.762 77.1372 44.2873C78.5132 43.63 79.9036 43.002 81.2797 42.3411C83.8269 41.1178 84.7862 38.5874 83.676 35.962C82.1419 32.3471 80.5935 28.7394 79.027 25.1355C77.8522 22.437 75.3013 21.4731 72.6427 22.7036C70.7708 23.569 68.9026 24.4453 67.0487 25.3545C66.1505 25.7964 65.4428 25.6978 64.6991 24.9821C64.25 24.5476 63.6356 24.1496 63.0392 24.0327C57.8261 23.0176 52.6022 22.0756 47.3819 21.1006C45.6143 20.7683 43.9868 20.9655 42.4383 22.0135C38.691 24.5549 34.8971 27.0269 31.1355 29.5428C30.9343 29.6779 30.751 29.9189 30.672 30.1525C29.6552 33.2198 28.6565 36.2943 27.6541 39.3688C27.5822 39.5952 27.5211 39.8252 27.4601 40.037L27.4493 40.0443ZM19.1644 62.6321C19.8147 62.3071 20.5656 62.1027 21.0901 61.6389C22.2577 60.6056 23.3428 59.4663 24.4098 58.3234C25.5559 57.0929 25.5236 55.3365 24.3954 54.1389C23.2925 52.9668 21.4997 52.8536 20.2781 53.9819C19.0853 55.0809 17.9464 56.2494 16.847 57.4471C15.9956 58.3782 15.8734 59.5211 16.38 60.6676C16.8866 61.8178 17.8099 62.4167 19.1608 62.6358L19.1644 62.6321ZM32.4863 62.8512C32.472 61.6316 31.9367 60.6421 30.8229 60.1017C29.7163 59.5649 28.5774 59.6818 27.6361 60.5106C26.7379 61.3066 25.89 62.172 25.096 63.0739C24.2374 64.0489 24.1942 65.4036 24.8769 66.5428C25.5415 67.6529 26.8206 68.3357 28.0134 67.8938C30.0828 67.1234 31.4552 65.5058 32.4217 63.5267C32.5079 63.3515 32.4684 63.1068 32.4899 62.8476L32.4863 62.8512ZM17.6195 49.8776C17.5943 48.5814 17.0231 47.6503 15.9057 47.0989C14.8135 46.5621 13.7501 46.679 12.8196 47.464C12.2267 47.9643 11.6555 48.5156 11.1848 49.1291C10.4483 50.0967 10.3801 51.1885 10.9334 52.2839C11.4687 53.3428 12.3561 53.7956 13.5166 53.9453C15.0866 54.1462 17.9033 51.4076 17.6195 49.874V49.8776ZM32.7989 70.4206C32.7917 72.4508 34.5701 73.9333 36.4851 73.3491C38.0767 72.8635 39.2264 71.7133 39.7222 70.0957C40.2503 68.3649 38.8958 66.5355 37.121 66.3968C35.163 66.2434 32.8061 68.4379 32.7989 70.4243V70.4206Z" stroke="black" stroke-width="0.4" mask="url(#path-2-outside-1_903_9155)"/>
</svg>
