<svg width="93" height="87" viewBox="0 0 93 87" fill="none" xmlns="http://www.w3.org/2000/svg">
<g clip-path="url(#clip0_777_9290)">
<path d="M48.7969 87C72.8213 87 92.2969 67.5244 92.2969 43.5C92.2969 19.4756 72.8213 0 48.7969 0C24.7725 0 5.29688 19.4756 5.29688 43.5C5.29688 67.5244 24.7725 87 48.7969 87Z" fill="#D2DF3F"/>
<path d="M55.4851 80.4702C53.6751 79.5702 52.0851 78.7702 50.4851 77.9802C48.5951 77.0302 46.6851 76.1202 44.8151 75.1202C44.0851 74.7302 43.5051 74.7802 42.8051 75.1402C39.3651 76.9002 35.8951 78.6202 32.2751 80.4402C32.2451 79.8802 32.2051 79.4702 32.2051 79.0602C32.2051 72.0202 32.1751 64.9802 32.2251 57.9402C32.2251 56.6602 31.8951 55.7002 31.0151 54.7402C23.3751 46.3302 26.4051 35.6102 31.6551 30.6902C36.9151 25.7702 43.2051 24.3202 49.9751 26.9202C56.6751 29.4902 60.4051 34.6002 61.0751 41.8102C61.5551 46.9802 59.7451 51.3502 56.3751 55.2002C55.9051 55.7402 55.5651 56.5902 55.5651 57.3002C55.4951 64.5402 55.5051 71.7802 55.4851 79.0102C55.4851 79.4102 55.4851 79.8102 55.4851 80.4602V80.4702ZM43.8051 56.8702C51.6051 56.8702 57.6851 50.8502 57.6851 43.1102C57.6851 35.4602 51.5651 29.2802 43.9451 29.2702C36.1451 29.2602 30.0451 35.2902 30.0451 43.0202C30.0451 50.8402 36.0151 56.8702 43.8051 56.8702ZM51.9251 58.4502C46.5051 61.0902 41.1851 61.0602 35.8451 58.5002V74.7602C37.5751 73.9102 39.2451 73.2902 40.6751 72.3202C42.8851 70.8202 44.8651 70.9202 47.0551 72.3202C48.5451 73.2802 50.2251 73.9302 51.9351 74.7702V58.4502H51.9251Z" fill="black"/>
<path d="M24.2563 31.5098V34.8898H9.65625V31.5098H24.2563Z" fill="black"/>
<path d="M9.64062 43.2998V40.0498H21.3606V43.2998H9.64062Z" fill="black"/>
<path d="M29.8878 26.34H21.0078V23.04H29.8878V26.34Z" fill="black"/>
<path d="M9.55469 26.3198V23.0498H15.7347V26.3198H9.55469Z" fill="black"/>
<path d="M52.6478 43.0998C52.6478 48.0898 48.8778 51.9298 43.9078 51.9798C38.9178 52.0298 34.9978 48.0698 35.0078 42.9698C35.0178 38.0398 38.8578 34.2798 43.9078 34.2598C48.8778 34.2398 52.6478 38.0498 52.6478 43.0998ZM43.8878 48.4198C46.7978 48.3898 49.2278 45.8998 49.1678 43.0098C49.1078 40.1398 46.7078 37.7698 43.8578 37.7498C40.9978 37.7298 38.4778 40.2498 38.4978 43.0998C38.5178 45.9798 41.0178 48.4398 43.8978 48.4098L43.8878 48.4198Z" fill="black"/>
<path fill-rule="evenodd" clip-rule="evenodd" d="M7.00313 15.3002C5.23581 15.3002 3.80312 16.7329 3.80312 18.5002V62.5002C3.80312 64.2675 5.23581 65.7002 7.00312 65.7002H27.0031V69.3002H7.00312C3.24759 69.3002 0.203125 66.2557 0.203125 62.5002V18.5002C0.203125 14.7447 3.24759 11.7002 7.00313 11.7002H62.5031C66.2587 11.7002 69.3031 14.7447 69.3031 18.5002V62.5002C69.3031 66.2557 66.2587 69.3002 62.5031 69.3002H60.5031V65.7002H62.5031C64.2704 65.7002 65.7031 64.2675 65.7031 62.5002V18.5002C65.7031 16.7329 64.2704 15.3002 62.5031 15.3002H7.00313Z" fill="black"/>
</g>
<defs>
<clipPath id="clip0_777_9290">
<rect width="92.3" height="87" fill="white"/>
</clipPath>
</defs>
</svg>
