<svg width="122" height="116" viewBox="0 0 122 116" fill="none" xmlns="http://www.w3.org/2000/svg">
<g clip-path="url(#clip0_777_9210)">
<path d="M63.8581 115.06C95.6311 115.06 121.388 89.3029 121.388 57.53C121.388 25.7571 95.6311 0 63.8581 0C32.0852 0 6.32812 25.7571 6.32812 57.53C6.32812 89.3029 32.0852 115.06 63.8581 115.06Z" fill="#D2DF3F"/>
<path d="M100.854 22.3801C100.274 23.5001 99.3538 23.8901 98.1038 23.8301C94.3538 23.6701 90.5838 23.7401 86.8538 23.4201C83.3738 23.1201 80.3438 21.3501 77.2538 19.8501C74.3838 18.4601 71.5038 17.0701 68.6338 15.6801C66.0338 14.4201 63.2938 13.8401 60.4038 13.8501C55.3238 13.8701 50.2438 13.8301 45.1638 13.8801C44.2638 13.8801 43.3238 14.0601 42.4938 14.3801C38.4438 15.9801 34.4438 17.6701 30.4038 19.2801C29.4038 19.6801 29.1638 20.2401 29.5338 21.2301C30.1238 22.8201 31.5038 23.6301 33.3938 23.2301C36.0438 22.6701 38.6738 21.9801 41.3138 21.3501C42.9538 20.9601 44.2138 21.9801 43.9438 23.5601C43.8638 24.0001 43.5038 24.6001 43.1238 24.7601C39.4438 26.2201 35.7638 27.6701 31.6538 27.1901C27.3938 26.6901 24.7438 23.2701 25.4938 19.1201C25.7638 17.6401 26.5438 16.5501 27.9538 15.9601C32.6438 14.0301 37.3238 12.0901 42.0238 10.1801C42.4938 9.99012 43.0338 9.87012 43.5338 9.87012C50.0038 9.93012 56.4738 9.98012 62.9438 10.1001C66.4738 10.1701 69.5938 11.6801 72.7138 13.1401C75.9638 14.6701 79.1938 16.2501 82.4238 17.8301C85.3138 19.2401 88.3938 19.8301 91.5838 19.8501C93.7838 19.8601 95.9838 19.8701 98.1838 19.8501C99.4138 19.8401 100.364 20.2201 100.864 21.4201V22.3801H100.854Z" fill="black"/>
<path d="M0.112187 90.9499C0.882187 90.0699 1.86219 89.8599 3.03219 89.9199C6.46219 90.0999 9.91219 90.0799 13.3322 90.3399C17.7222 90.6799 21.4722 92.9599 25.3722 94.7199C27.2422 95.5699 29.1022 96.4399 30.9122 97.4199C33.9722 99.0899 37.2122 99.9299 40.6722 99.8999C45.7422 99.8599 50.8222 99.8999 55.8922 99.8699C56.6522 99.8699 57.4122 99.7199 58.1122 99.4399C62.2322 97.7999 66.3122 96.0799 70.4322 94.4499C71.5022 94.0299 71.5922 93.3799 71.2922 92.4699C70.8122 91.0099 69.4922 90.1599 67.7622 90.4899C65.0622 91.0099 62.3922 91.6899 59.7122 92.3399C57.9722 92.7599 56.7122 91.9599 56.8922 90.3599C56.9522 89.8199 57.3822 89.0399 57.8322 88.8699C61.3422 87.5099 64.8822 86.2299 68.7422 86.4899C72.9622 86.7699 75.6722 89.8099 75.3922 93.9899C75.2722 95.7499 74.5222 97.1099 72.7822 97.8099C67.8922 99.7799 63.0222 101.78 58.1422 103.78C57.1622 103.92 56.8722 103.93 56.0422 103.99C55.8322 104 55.5322 103.99 55.3122 103.99H48.5822C48.1322 103.99 47.6822 103.96 47.2522 103.85C47.0722 103.8 46.8822 103.77 46.7022 103.76C44.3422 103.74 41.9922 103.68 39.6322 103.76C36.3222 103.88 33.2522 103.09 30.2822 101.65C25.9822 99.5699 21.6722 97.4799 17.3022 95.5399C15.7622 94.8499 14.0622 94.2999 12.3922 94.1599C9.18219 93.8899 5.94219 93.9399 2.71219 93.9199C1.57219 93.9199 0.642187 93.6199 -0.0078125 92.6299L0.102187 90.9499H0.112187Z" fill="black"/>
<path d="M0.0546875 71.1005C0.674688 70.2205 1.51469 69.8705 2.60469 69.8905C5.76469 69.9505 8.92469 70.0705 12.0747 69.8905C14.3647 69.7605 16.6447 69.2105 18.9147 68.8105C25.6147 67.6305 31.5547 68.9505 35.9047 74.5005C37.2147 76.1705 38.6547 77.2405 40.5647 77.9605C42.8047 78.8005 45.0047 79.7605 47.1947 80.7205C49.5447 81.7405 51.5747 83.1905 52.9947 85.3905C54.9847 88.4705 54.8647 91.6405 53.4047 94.8705C52.9447 95.8805 52.1247 96.1905 51.1347 95.8505C49.7747 95.3905 48.4447 94.8405 47.1247 94.2905C42.2947 92.2905 37.4747 90.2705 32.6447 88.2605C32.3847 88.1505 32.1247 88.0405 31.8847 87.9105C30.6647 87.2705 30.2747 86.3605 30.7447 85.2705C31.2047 84.1905 32.2547 83.7805 33.5747 84.3105C36.7947 85.6005 39.9947 86.9505 43.2047 88.2805C45.5247 89.2405 47.8347 90.1905 50.2847 91.2005C50.6747 89.3605 50.2347 87.8405 48.9447 86.7805C47.6347 85.7105 46.1547 84.7705 44.6147 84.0505C41.6547 82.6705 38.5747 81.5205 35.5947 80.1905C34.9447 79.9005 34.2547 79.3605 33.9347 78.7505C31.5847 74.2805 27.7347 72.4805 22.9047 72.4905C21.5247 72.4905 20.1447 72.8705 18.7647 73.0605C16.8447 73.3305 14.9147 73.7405 12.9847 73.8105C9.63469 73.9305 6.27469 73.8105 2.91469 73.8605C1.76469 73.8805 0.814687 73.6205 0.0546875 72.7605V71.0805V71.1005Z" fill="black"/>
<path d="M100.848 42.2998C100.328 43.5498 99.3285 43.8598 98.0585 43.8798C93.9085 43.9498 89.7485 43.9998 85.5985 44.2498C83.5385 44.3698 81.5185 45.0298 79.4585 45.2498C72.9985 45.9498 67.9585 43.5098 64.1485 38.2698C63.5585 37.4498 62.5685 36.8098 61.6285 36.3798C58.9485 35.1398 56.1485 34.1698 53.5185 32.8398C51.8685 32.0098 50.3185 30.8598 48.9485 29.6198C45.5885 26.5798 45.8385 22.1598 47.4485 18.7998C47.9785 17.6998 48.9685 17.5098 50.4685 18.1298C54.3385 19.7298 58.2085 21.3398 62.0785 22.9498C64.2185 23.8398 66.3785 24.6698 68.4785 25.6498C69.1385 25.9598 69.8585 26.5698 70.0985 27.2198C70.2985 27.7398 70.0085 28.8598 69.5885 29.0998C68.9285 29.4798 67.8785 29.6198 67.1685 29.3698C64.6485 28.4798 62.2085 27.3798 59.7385 26.3598C57.0485 25.2398 54.3585 24.1198 51.6685 22.9998C51.3085 22.8498 50.9485 22.7198 50.5285 22.5598C50.1685 24.5498 50.7285 26.1398 52.1785 27.2798C53.2885 28.1598 54.5285 28.9498 55.8285 29.5398C58.8385 30.9098 61.9385 32.0898 64.9585 33.4598C65.7385 33.8198 66.5985 34.4398 66.9785 35.1798C69.6485 40.3098 75.1085 41.6198 79.3385 41.2498C80.4085 41.1598 81.5085 40.9998 82.4985 40.6298C84.3485 39.9498 86.2285 39.8698 88.1485 39.8798C91.4285 39.8898 94.7085 39.9098 97.9885 39.8698C99.2585 39.8498 100.258 40.1698 100.848 41.3698V42.3298V42.2998Z" fill="black"/>
<path d="M43.2741 63.9002C41.0241 63.9002 38.7141 63.9002 36.4141 63.9002C33.9241 63.9002 33.4141 63.3802 33.4141 60.8702C33.4141 58.0702 33.4141 55.2702 33.4141 52.4702C33.4141 50.5602 33.9741 49.9302 35.8841 49.8802C37.9241 49.8202 39.9641 49.8602 42.0041 49.8602C42.4341 49.8602 42.8641 49.8602 43.4541 49.8602C43.4541 48.3902 43.4541 47.0402 43.4541 45.6902C43.4541 44.4502 43.4341 43.2102 43.4541 41.9702C43.4841 40.6302 44.1341 39.9202 45.4241 39.9102C48.7441 39.8802 52.0641 39.8802 55.3841 39.9102C56.7041 39.9202 57.3841 40.6702 57.4041 42.0702C57.4341 44.2302 57.4041 46.3902 57.4041 48.5502C57.4041 48.9402 57.4041 49.3302 57.4041 49.8602C58.6741 49.8602 59.8241 49.8602 60.9641 49.8602C62.4441 49.8702 63.9241 49.8902 65.3941 49.9202C66.5841 49.9502 67.3241 50.5602 67.3441 51.7502C67.3941 55.1802 67.4341 58.6202 67.3441 62.0502C67.3041 63.3702 66.5141 63.8702 65.0041 63.8902C62.5241 63.9102 60.0541 63.8902 57.3941 63.8902C57.3941 64.6802 57.3941 65.4202 57.3941 66.1602C57.3941 67.9202 57.4041 69.6802 57.3941 71.4402C57.3741 73.1302 56.8141 73.8302 55.1241 73.8802C51.9641 73.9602 48.8041 73.9602 45.6541 73.8802C43.9441 73.8302 43.4541 73.1702 43.4441 71.4302C43.4341 69.0302 43.4241 66.6302 43.4141 64.2302C43.4141 64.1602 43.3541 64.0902 43.2641 63.8902L43.2741 63.9002ZM47.3741 69.7502H53.3741C53.3741 67.7202 53.3741 65.7602 53.3741 63.8102C53.3741 60.1602 53.6741 59.8602 57.3241 59.8602C59.3041 59.8602 61.2841 59.8602 63.3041 59.8602V53.8602C61.1341 53.8602 59.0241 53.8602 56.9141 53.8602C53.7441 53.8602 53.3741 53.4902 53.3741 50.2702C53.3741 48.2002 53.3741 46.1402 53.3741 44.0402H47.3741C47.3741 44.5602 47.3741 45.0002 47.3741 45.4302C47.3741 47.5002 47.4241 49.5802 47.3641 51.6502C47.3141 53.3202 46.7341 53.8302 45.0541 53.8602C43.5741 53.8902 42.0941 53.8602 40.6241 53.8602C39.6041 53.8602 38.5841 53.8602 37.5041 53.8602V59.8002C37.8641 59.8202 38.1041 59.8502 38.3341 59.8502C40.4941 59.8502 42.6541 59.8302 44.8041 59.8502C46.7641 59.8802 47.3241 60.3902 47.3741 62.3202C47.4341 64.7502 47.3841 67.1902 47.3841 69.7302L47.3741 69.7502Z" fill="black"/>
<path d="M14.8538 55.7997C15.3038 48.6697 17.4537 42.2197 21.5737 36.4297C21.8937 35.9797 22.2737 35.5397 22.7137 35.2297C23.4337 34.7397 24.2337 34.7397 24.9237 35.3497C25.6037 35.9597 25.9238 36.7097 25.5138 37.5997C25.3338 37.9997 25.0938 38.3697 24.8438 38.7297C19.8238 46.0197 18.0238 54.0097 19.6238 62.7297C19.6838 63.0797 19.7337 63.4497 19.7137 63.7997C19.6737 64.9597 18.9737 65.7097 17.8937 65.7997C16.8737 65.8797 16.0138 65.3197 15.8538 64.1997C15.4638 61.3997 15.1738 58.5897 14.8438 55.7797L14.8538 55.7997Z" fill="black"/>
<path d="M85.8151 55.9301C85.5651 64.2701 83.6951 70.9901 79.5251 76.9801C79.1851 77.4701 78.8251 77.9601 78.4051 78.3801C77.7551 79.0401 76.9851 79.0301 76.2051 78.5801C75.4351 78.1401 75.0151 77.4901 75.2851 76.5801C75.4251 76.0901 75.6351 75.5901 75.9151 75.1701C80.9251 67.8301 82.8151 59.8101 81.2151 51.0201C81.1551 50.7101 81.1451 50.3801 81.1551 50.0601C81.1951 48.9201 81.8051 48.2001 82.8351 48.0501C83.8651 47.9101 84.8451 48.5201 85.0251 49.6401C85.3951 52.0801 85.6551 54.5401 85.8251 55.9101L85.8151 55.9301Z" fill="black"/>
<path d="M28.836 33.9297C27.736 33.9597 26.796 33.0997 26.736 32.0497C26.686 30.9597 27.786 29.8197 28.936 29.7797C30.056 29.7397 30.936 30.5497 30.986 31.6597C31.036 32.8297 30.016 33.8997 28.836 33.9297Z" fill="black"/>
<path d="M74.2835 81.9703C74.2535 83.0003 73.2135 84.0103 72.1735 84.0103C71.0735 84.0103 70.1035 83.0403 70.1335 81.9503C70.1635 80.8503 71.2235 79.8903 72.3735 79.9403C73.4535 79.9803 74.3135 80.8903 74.2935 81.9703H74.2835Z" fill="black"/>
</g>
<defs>
<clipPath id="clip0_777_9210">
<rect width="121.39" height="115.05" fill="white"/>
</clipPath>
</defs>
</svg>
