<svg width="87" height="87" viewBox="0 0 87 87" fill="none" xmlns="http://www.w3.org/2000/svg">
<circle cx="43.5" cy="43.5" r="43.5" fill="#D2DF3F"/>
<g clip-path="url(#clip0_903_9154)">
<path d="M47.3098 25.8578C53.5313 25.8578 59.7528 25.8536 65.9743 25.86C68.3375 25.8621 70.3015 27.3753 70.8358 29.5989C70.9435 30.0453 70.9921 30.5153 70.9921 30.9746C71.0005 41.2404 71.0005 51.5062 70.9963 61.772C70.9963 64.8584 68.895 66.9961 65.8666 66.9983C53.5651 67.0004 41.2615 67.0004 28.9599 66.9983C25.8302 66.9983 23.75 64.8777 23.75 61.6926C23.75 51.4805 23.75 41.2683 23.75 31.0562C23.75 28.5965 25.1966 26.594 27.3951 26.0381C27.8829 25.9137 28.4003 25.8664 28.905 25.8664C35.0378 25.8557 41.1728 25.86 47.3056 25.86L47.3098 25.8578ZM27.129 53.2834C28.1279 53.2662 29.0085 53.0666 29.7709 52.5708C30.9387 51.8153 32.0644 50.9911 33.1963 50.1776C36.9554 47.4776 40.7462 47.4368 44.5412 50.0832C45.5105 50.7593 46.4439 51.489 47.4133 52.1651C49.1218 53.3606 50.9823 53.5688 52.9379 52.9464C54.4141 52.4763 55.5186 51.4654 56.5217 50.3193C57.8163 48.8384 59.0538 47.3037 60.4223 45.8958C61.8309 44.447 63.5732 43.5262 65.5752 43.1893C66.2425 43.0777 66.9204 43.0176 67.6258 42.9296C67.6258 41.6976 67.6258 40.4678 67.6258 39.2379C67.6258 36.5057 67.63 33.7756 67.6237 31.0433C67.6216 29.9122 67.0535 29.3263 65.949 29.2855C65.8096 29.2791 65.6681 29.2834 65.5266 29.2834C53.4025 29.2834 41.2762 29.2834 29.1521 29.2834C28.9599 29.2834 28.7635 29.2748 28.5735 29.2941C27.8259 29.3671 27.3866 29.7427 27.2134 30.4896C27.1543 30.7471 27.1332 31.0176 27.1332 31.2837C27.129 38.4245 27.129 45.5652 27.129 52.706V53.2812V53.2834ZM67.6237 46.3873C67.0577 46.4602 66.5678 46.4967 66.0905 46.5912C64.2384 46.956 62.8678 48.0936 61.6598 49.4844C60.4033 50.9267 59.208 52.4313 57.8712 53.792C55.9261 55.7731 53.5165 56.7217 50.7479 56.7196C48.6044 56.7174 46.7502 55.9169 45.0332 54.6935C43.9139 53.8951 42.8158 53.0601 41.6543 52.3304C40.5286 51.6243 39.2573 51.3517 37.9628 51.6972C37.1624 51.9097 36.3979 52.2939 35.6503 52.6695C35.1983 52.8949 34.7992 53.2361 34.3958 53.5495C32.246 55.2258 30.037 56.7561 27.1416 56.7174C27.1416 58.559 27.1184 60.3404 27.1522 62.1218C27.167 62.8795 27.5915 63.3173 28.3327 63.4912C28.603 63.5534 28.8881 63.5706 29.1669 63.5706C41.3438 63.5749 53.5186 63.5727 65.6956 63.5727C65.8708 63.5727 66.0482 63.5813 66.2214 63.5577C66.8655 63.4676 67.3534 63.1607 67.516 62.4846C67.5899 62.1777 67.6216 61.8514 67.6216 61.5338C67.6279 56.696 67.6258 51.8604 67.6258 47.0226C67.6258 46.8466 67.6258 46.6727 67.6258 46.3894L67.6237 46.3873Z" fill="black"/>
<path d="M39.613 19.0001C45.5367 19.0001 51.4583 19.0001 57.3821 19.0001C58.6745 19.0001 59.5108 20.1462 59.0821 21.3073C58.8413 21.9598 58.2458 22.3977 57.551 22.4256C57.3757 22.432 57.2004 22.4256 57.023 22.4256C45.4754 22.4256 33.9279 22.4256 22.3803 22.4256C22.1353 22.4256 21.884 22.417 21.6453 22.4642C20.883 22.608 20.4669 23.1102 20.3888 23.9623C20.3698 24.1748 20.3782 24.3894 20.3782 24.6041C20.3782 34.0671 20.3782 43.5302 20.374 52.9933C20.374 53.2916 20.3529 53.6071 20.2579 53.8861C20.0065 54.633 19.223 55.0902 18.4607 54.985C17.6814 54.8777 17.0521 54.1888 17.0035 53.386C16.9972 53.298 17.0014 53.2079 17.0014 53.1177C17.0014 43.4572 16.9993 33.7988 17.0014 24.1383C17.0077 21.8868 18.3276 19.9122 20.298 19.2877C20.8745 19.1052 21.5038 19.0151 22.1078 19.0129C27.9429 18.9936 33.7779 19.0001 39.613 19.0001Z" fill="black"/>
<path d="M35.5685 32.715C38.3498 32.715 40.6221 35.0266 40.6242 37.849C40.6263 40.6972 38.3392 43.0087 35.5304 43.0001C32.7597 42.9894 30.4937 40.665 30.5 37.8361C30.5063 35.018 32.7871 32.7107 35.5685 32.7129V32.715ZM35.5516 39.5703C36.4597 39.5768 37.2347 38.8063 37.2495 37.8833C37.2643 36.9411 36.4787 36.1384 35.5494 36.1448C34.6435 36.1534 33.8769 36.939 33.879 37.8597C33.879 38.7805 34.6456 39.5639 35.5537 39.5703H35.5516Z" fill="black"/>
</g>
<defs>
<clipPath id="clip0_903_9154">
<rect width="54" height="48" fill="white" transform="translate(17 19)"/>
</clipPath>
</defs>
</svg>
