<svg width="217" height="50" viewBox="0 0 217 50" fill="none" xmlns="http://www.w3.org/2000/svg">
<g clip-path="url(#clip0_312_64)">
<path d="M56.435 19.6475C55.0914 21.3594 53.8909 22.1138 51.6898 22.1138C48.6312 22.1138 46.0397 19.8216 46.0397 16.7171C46.0397 13.6996 48.5168 11.3784 51.7184 11.3784C53.6336 11.3784 55.12 12.3359 56.1777 13.8157L59.5222 10.392C57.5784 7.60661 54.6627 6.62012 51.3468 6.62012C45.4582 6.62012 40.8086 10.9723 40.8086 16.8622C40.8086 22.7811 45.4867 26.9881 51.3468 26.9881C54.8627 26.9881 57.6928 25.6245 59.8367 22.8972L56.435 19.6475Z" fill="#13AB7B"/>
<path d="M62.3672 26.5586H67.2994L67.4584 15.214L71.0223 21.1977H73.7588L77.3227 15.2184L77.4818 26.5586H82.4199L82.1017 7.20605H77.3058L72.3789 15.0176L67.4584 7.20605H62.6854L62.3672 26.5586Z" fill="#13AB7B"/>
<path d="M85.3281 19.7936H90.0448H94.7609V15.7998H90.0448H85.3281V19.7936Z" fill="#13AB7B"/>
<path d="M103.063 18.6069H104.264C105.665 18.6069 106.841 20.0458 107.499 21.4095L110.128 26.5586H115.902L112.243 19.3032C111.357 17.6494 110.385 16.6339 108.67 16.0827C110.043 15.5024 110.927 14.661 111.842 12.804L114.814 7.20605H109.24L106.868 11.7886C106.181 13.2683 105.379 13.9066 103.921 13.9066H103.063V7.20605H98.0039V26.5586H103.063V18.6069Z" fill="#13AB7B"/>
<path d="M121.035 12.4141C121.035 20.2265 120.197 22.3651 117.348 22.3651V26.5697C117.348 26.5697 117.919 26.5645 118.234 26.5645C122.378 26.5645 125.237 23.5898 125.237 16.5341H127.495V26.5722H132.326V12.4141H121.035Z" fill="#13AB7B"/>
<path d="M149.448 26.5722V12.4141H145.274L140.157 19.6437V12.4141H135.555V26.5722H139.443L144.845 19.3417V26.5722H149.448Z" fill="#13AB7B"/>
<path d="M161.709 12.4141V17.3858H157.507V12.4141H152.676V26.5722H157.507V21.3794H161.709V26.5722H166.54V12.4141H161.709Z" fill="#13AB7B"/>
<path d="M183.661 26.5722V12.4141H179.488L174.371 19.6437V12.4141H169.77V26.5722H173.657L179.06 19.3101V26.5722H183.661Z" fill="#13AB7B"/>
<path d="M191.636 21.2216H192.493C193.523 21.2216 194.149 22.2073 194.578 22.9906L196.321 26.5722H201.47L199.183 21.8599C198.297 20.235 197.496 19.4226 196.153 18.9875C197.268 18.6102 198.04 18.0428 198.812 16.5631L200.869 12.4141H195.953L194.352 15.7507C193.866 16.7662 193.466 17.1015 192.466 17.1015H191.636V12.4141H186.891V26.5722H191.636V21.2216Z" fill="#13AB7B"/>
<path d="M215.419 26.5585V18.2024C215.419 14.3435 212.875 12.3125 209.159 12.3125C205.958 12.3125 203.507 13.2965 202.505 14.4966L204.731 16.8968C205.532 16.3164 206.758 15.8813 208.473 15.8813C209.444 15.8813 210.703 16.2004 210.703 17.6221V17.8832C210.045 17.7962 209.674 17.7671 208.788 17.7671C205.329 17.7671 202.355 19.479 202.355 22.8446C202.355 26.1523 204.785 27.0228 206.558 27.0228C208.387 27.0228 209.473 26.5875 210.703 25.2819V26.5585H215.419ZM210.703 21.452C210.555 23.3235 209.328 23.8129 208.327 23.8129C207.27 23.8129 206.737 23.1638 206.737 22.1193C206.737 21.1619 207.786 20.4075 209.388 20.4075C210.017 20.4075 210.446 20.4365 210.703 20.5236V21.452Z" fill="#13AB7B"/>
<path d="M1.19141 10.7959C1.19141 6.07492 1.19141 3.71445 2.66912 2.24785C4.14683 0.78125 6.52517 0.78125 11.2818 0.78125H23.6914C28.448 0.78125 30.8264 0.78125 32.3041 2.24785C33.7818 3.71445 33.7818 6.07492 33.7818 10.7959V23.112C33.7818 27.8329 33.7818 30.1934 32.3041 31.66C30.8264 33.1266 28.448 33.1266 23.6914 33.1266H11.2818C6.52517 33.1266 4.14683 33.1266 2.66912 31.66C1.19141 30.1934 1.19141 27.8329 1.19141 23.112V10.7959Z" fill="#13AB7B"/>
<path fill-rule="evenodd" clip-rule="evenodd" d="M11.2177 2.37862e-07H23.747C26.0746 -1.36982e-05 27.9015 -2.46534e-05 29.3277 0.190271C30.7886 0.385209 31.9458 0.792595 32.8547 1.69474C33.7637 2.59688 34.1742 3.74542 34.3706 5.19534C34.5624 6.61074 34.5624 8.42396 34.5623 10.734V23.1692C34.5624 25.4792 34.5624 27.2924 34.3706 28.7079C34.1742 30.1578 33.7637 31.3063 32.8547 32.2084C31.9458 33.1105 30.7886 33.518 29.3277 33.7129C27.9015 33.9032 26.0746 33.9032 23.747 33.9031H11.2177C8.89012 33.9032 7.06317 33.9032 5.63704 33.7129C4.17614 33.518 3.0189 33.1105 2.10992 32.2084C1.20094 31.3063 0.790471 30.1578 0.594057 28.7079C0.402319 27.2924 0.40233 25.4792 0.402344 23.1691V10.734C0.40233 8.42397 0.402319 6.61075 0.594057 5.19534C0.790471 3.74542 1.20094 2.59688 2.10992 1.69474C3.0189 0.792595 4.17613 0.385209 5.63704 0.190271C7.06317 -2.46002e-05 8.89013 -1.36982e-05 11.2177 2.37862e-07ZM5.84619 1.73421C4.55933 1.90591 3.78854 2.23183 3.21981 2.79629C2.65108 3.36074 2.32269 4.12574 2.14969 5.40292C1.97363 6.70251 1.97197 8.41101 1.97197 10.7935V23.1097C1.97197 25.4921 1.97363 27.2006 2.14969 28.5003C2.32269 29.7774 2.65108 30.5424 3.21981 31.1069C3.78854 31.6713 4.55933 31.9972 5.84619 32.1689C7.15563 32.3437 8.87707 32.3454 11.2776 32.3454H23.6871C26.0876 32.3454 27.809 32.3437 29.1185 32.1689C30.4053 31.9972 31.1761 31.6713 31.7449 31.1069C32.3136 30.5424 32.642 29.7774 32.815 28.5003C32.991 27.2006 32.9927 25.4921 32.9927 23.1096V10.7935C32.9927 8.41101 32.991 6.70251 32.815 5.40292C32.642 4.12574 32.3136 3.36074 31.7449 2.79629C31.1761 2.23183 30.4053 1.90591 29.1185 1.73421C27.809 1.55947 26.0876 1.55782 23.6871 1.55782H11.2776C8.87707 1.55782 7.15562 1.55947 5.84619 1.73421Z" fill="white"/>
<path fill-rule="evenodd" clip-rule="evenodd" d="M17.72 26.5877C11.1177 26.5877 5.34635 22.2908 5.47463 17.7074C5.31084 14.3554 7.19813 10.8139 11.4453 8.93054C13.0324 8.22426 15.7376 7.63569 18.3639 7.60766C18.9425 7.59057 19.3174 7.5177 19.8273 7.41858C20.1535 7.35515 20.5351 7.28098 21.0607 7.20381C21.9276 7.0765 23.1132 6.94918 24.1473 7.36102C25.3581 7.96772 26.5363 8.85893 26.5363 9.30054C26.5363 9.74206 25.7429 10.514 25.2298 10.5777C24.3424 10.6878 23.2105 10.5114 21.8121 10.2936C20.7327 10.1254 19.4943 9.93241 18.0872 9.82741C12.1399 9.74331 7.77642 13.7236 7.91197 17.5801C8.04751 22.5073 14.2579 24.6462 18.0872 24.6462C28.7559 24.7078 28.4144 15.2721 25.9129 14.8212C25.0953 14.6738 24.4468 16.0795 23.7321 17.6287C22.9034 19.4252 21.9855 21.4146 20.6118 21.3996C19.3222 21.3864 18.3065 19.2556 17.4598 17.4795C16.8677 16.2375 16.3584 15.1689 15.8958 15.1189C15.0728 15.03 14.4439 16.9583 13.893 18.6471C13.5219 19.7846 13.1864 20.8135 12.8508 21.0441C12.0811 21.8079 10.0642 20.1529 10.3493 19.5163C10.628 18.8939 10.887 19.1301 11.1687 19.3869C11.4057 19.6029 11.6586 19.8335 11.9528 19.5799C12.0626 19.4841 12.2192 19.0264 12.4344 18.3975C13.0497 16.5993 14.1442 13.4008 15.9936 13.2513C17.3245 13.1495 18.3846 15.5304 19.2274 17.4235C19.7759 18.6554 20.2325 19.6808 20.6118 19.6808C21.0476 19.6724 21.4809 18.7235 22.0097 17.5654C22.8926 15.6321 24.0416 13.1157 25.9129 13.4206C30.7071 14.202 31.0828 26.5933 17.72 26.5877ZM23.875 8.38311C23.875 8.59988 23.5402 8.60879 22.8505 8.57811C22.3331 8.56277 22.007 8.40937 22.0879 8.14539C22.1689 7.8814 22.6237 7.8534 23.1175 7.96849C23.355 8.02383 23.875 8.16634 23.875 8.38311Z" fill="white"/>
<path d="M8.24991 45.3308H9.08387V48.7754H7.31865V47.0462H2.05078V40.4219H4.05229V45.3308H6.2484V40.4219H8.24991V45.3308Z" fill="#13AB7B"/>
<path d="M13.4355 45.6919C14.4085 45.6919 15.1174 45.2736 15.3676 45.0644L16.1877 46.3334C15.8957 46.5148 14.9922 47.2678 13.3521 47.2678C11.0727 47.2678 9.73828 45.8174 9.73828 43.7674C9.73828 41.815 10.9892 40.1973 13.102 40.1973C15.2008 40.1973 16.3267 41.7592 16.3267 43.9906V44.3253H11.6565C11.8232 45.2317 12.4209 45.6919 13.4355 45.6919ZM11.6565 43.0423H14.4363C14.3668 42.4425 14.0888 41.7592 13.1158 41.7592C12.268 41.7592 11.8093 42.2752 11.6565 43.0423Z" fill="#13AB7B"/>
<path d="M21.8718 40.4219H23.8734V47.0462H21.8718V44.5638H19.4116V47.0462H17.4102V40.4219H19.4116V42.8763H21.8718V40.4219Z" fill="#13AB7B"/>
<path d="M24.9062 40.4219H31.1055V42.1372H29.0066V47.0462H27.0051V42.1372H24.9062V40.4219Z" fill="#13AB7B"/>
<path d="M32.1211 49.8339V40.4204H34.0392C34.0809 40.6575 34.0948 40.8946 34.1087 41.1316C34.5673 40.4762 35.2484 40.1973 36.0268 40.1973C37.8615 40.1973 38.8484 41.8429 38.8484 43.6698C38.8484 46.1103 37.0553 47.2539 35.4013 47.2539C34.8315 47.2539 34.4284 47.1144 34.1087 47.0029V49.8339H32.1211ZM34.1087 43.5304V45.3154C34.3728 45.4967 34.7897 45.5804 35.1651 45.5804C36.277 45.5804 36.8469 44.8691 36.8469 43.6977C36.8469 42.7633 36.4577 41.9126 35.5125 41.9126C34.5813 41.9126 34.1087 42.7075 34.1087 43.5304Z" fill="#13AB7B"/>
<path d="M42.4062 49.8339V40.4204H44.3243C44.3661 40.6575 44.3799 40.8946 44.3939 41.1316C44.8525 40.4762 45.5336 40.1973 46.312 40.1973C48.1466 40.1973 49.1335 41.8429 49.1335 43.6698C49.1335 46.1103 47.3405 47.2539 45.6864 47.2539C45.1166 47.2539 44.7135 47.1144 44.3939 47.0029V49.8339H42.4062ZM44.3939 43.5304V45.3154C44.6579 45.4967 45.0749 45.5804 45.4502 45.5804C46.5621 45.5804 47.132 44.8691 47.132 43.6977C47.132 42.7633 46.7429 41.9126 45.7976 41.9126C44.8664 41.9126 44.3939 42.7075 44.3939 43.5304Z" fill="#13AB7B"/>
<path d="M53.6581 45.6919C54.6311 45.6919 55.34 45.2736 55.5901 45.0644L56.4102 46.3334C56.1183 46.5148 55.2149 47.2678 53.5747 47.2678C51.2953 47.2678 49.9609 45.8174 49.9609 43.7674C49.9609 41.815 51.2119 40.1973 53.3245 40.1973C55.4233 40.1973 56.5492 41.7592 56.5492 43.9906V44.3253H51.879C52.0458 45.2317 52.6435 45.6919 53.6581 45.6919ZM51.879 43.0423H54.6589C54.5894 42.4425 54.3114 41.7592 53.3385 41.7592C52.4906 41.7592 52.032 42.2752 51.879 43.0423Z" fill="#13AB7B"/>
<path d="M57.6328 40.4219H63.9849V47.0462H61.9834V42.1372H59.6344V47.0462H57.6328V40.4219Z" fill="#13AB7B"/>
<path d="M65.4102 49.8339V40.4204H67.3282C67.37 40.6575 67.3838 40.8946 67.3978 41.1316C67.8564 40.4762 68.5375 40.1973 69.3159 40.1973C71.1505 40.1973 72.1374 41.8429 72.1374 43.6698C72.1374 46.1103 70.3444 47.2539 68.6903 47.2539C68.1205 47.2539 67.7174 47.1144 67.3978 47.0029V49.8339H65.4102ZM67.3978 43.5304V45.3154C67.6618 45.4967 68.0788 45.5804 68.4541 45.5804C69.566 45.5804 70.136 44.8691 70.136 43.6977C70.136 42.7633 69.7468 41.9126 68.8015 41.9126C67.8703 41.9126 67.3978 42.7075 67.3978 43.5304Z" fill="#13AB7B"/>
<path d="M76.4635 45.5246C77.4782 45.5246 78.0203 44.646 78.0203 43.7256C78.0203 42.7912 77.4782 41.9405 76.4635 41.9405C75.4489 41.9405 74.8929 42.7912 74.8929 43.7256C74.8929 44.646 75.4489 45.5246 76.4635 45.5246ZM72.9609 43.7256C72.9609 41.7592 74.3925 40.1973 76.4635 40.1973C78.5207 40.1973 79.9523 41.7592 79.9523 43.7256C79.9523 45.678 78.5207 47.2678 76.4635 47.2678C74.3925 47.2678 72.9609 45.678 72.9609 43.7256Z" fill="#13AB7B"/>
<path d="M82.2737 40.4219H87.3052V45.4563H88.1392V48.7754H86.374V47.0462H81.9956V48.7754H80.2305V45.4563H80.9949C81.8844 44.2571 82.1207 42.7229 82.2737 40.4219ZM83.0103 45.4563H85.3871V42.0117H83.9138C83.7887 43.6155 83.5107 44.6196 83.0103 45.4563Z" fill="#13AB7B"/>
<path d="M88.4295 49.4588L89.2357 48.0782C89.458 48.2455 89.7221 48.3989 90.0418 48.3989C90.4731 48.3989 90.7232 48.1758 90.9868 47.5064L91.182 46.9764L88.207 40.4219H90.4866L92.1131 44.6336L93.5858 40.4219H95.7125L92.8076 47.5762C92.1824 49.0822 91.6678 50.0027 90.1808 50.0027C89.4719 50.0027 88.9159 49.8075 88.4295 49.4588Z" fill="#13AB7B"/>
<path d="M98.4876 44.5638V47.0462H96.5273V40.4219H98.4876V42.8763H99.085C99.5717 42.8763 99.7804 42.6114 100.044 42.1233L100.947 40.4219H102.991L101.893 42.472C101.559 43.0996 101.156 43.49 100.669 43.6434C101.267 43.8247 101.615 44.2152 102.004 44.8985L103.255 47.0462H101.017L100.003 45.2471C99.7939 44.8706 99.613 44.5638 99.0715 44.5638H98.4876Z" fill="#13AB7B"/>
<path d="M103.629 40.4219H109.828V42.1372H107.729V47.0462H105.728V42.1372H103.629V40.4219Z" fill="#13AB7B"/>
<path d="M117.322 47.0462H115.418V43.0158L112.499 47.0462H110.859V40.4219H112.763V44.3128L115.585 40.4219H117.322V47.0462Z" fill="#13AB7B"/>
<path d="M120.621 41.7886V43.0716H122.038C122.525 43.0716 122.761 42.8624 122.761 42.4301C122.761 41.942 122.427 41.7886 121.871 41.7886H120.621ZM122.552 47.0462H118.758V40.4219H122.552C123.942 40.4219 124.651 41.1471 124.651 42.1094C124.651 42.8904 124.207 43.3505 123.706 43.5597C124.415 43.7689 124.971 44.2571 124.971 45.2193C124.971 46.4465 124.012 47.0462 122.552 47.0462ZM120.621 44.3407V45.6795H122.289C122.789 45.6795 123.039 45.4563 123.039 45.0101C123.039 44.5778 122.789 44.3407 122.289 44.3407H120.621Z" fill="#13AB7B"/>
<path d="M130.508 40.4219H132.51V47.0462H130.508V44.5638H128.049V47.0462H126.047V40.4219H128.049V42.8763H130.508V40.4219Z" fill="#13AB7B"/>
<path d="M137.136 45.5246C138.151 45.5246 138.692 44.646 138.692 43.7256C138.692 42.7912 138.151 41.9405 137.136 41.9405C136.121 41.9405 135.565 42.7912 135.565 43.7256C135.565 44.646 136.121 45.5246 137.136 45.5246ZM133.633 43.7256C133.633 41.7592 135.065 40.1973 137.136 40.1973C139.192 40.1973 140.625 41.7592 140.625 43.7256C140.625 45.678 139.192 47.2678 137.136 47.2678C135.065 47.2678 133.633 45.678 133.633 43.7256Z" fill="#13AB7B"/>
<path d="M146.432 40.4219V42.1372H143.763V47.0462H141.762V40.4219H146.432Z" fill="#13AB7B"/>
<path d="M150.233 45.5246C151.247 45.5246 151.79 44.646 151.79 43.7256C151.79 42.7912 151.247 41.9405 150.233 41.9405C149.218 41.9405 148.662 42.7912 148.662 43.7256C148.662 44.646 149.218 45.5246 150.233 45.5246ZM146.73 43.7256C146.73 41.7592 148.162 40.1973 150.233 40.1973C152.29 40.1973 153.721 41.7592 153.721 43.7256C153.721 45.678 152.29 47.2678 150.233 47.2678C148.162 47.2678 146.73 45.678 146.73 43.7256Z" fill="#13AB7B"/>
<path d="M158.42 44.4229V42.9725H159.782C160.241 42.9725 160.588 42.8051 160.588 42.3728C160.588 41.9126 160.213 41.7174 159.56 41.7174C158.726 41.7174 158.142 42.0382 157.711 42.4147L156.849 41.2711C157.461 40.6993 158.42 40.1973 159.754 40.1973C161.381 40.1973 162.521 40.9504 162.521 42.1637C162.521 42.8331 162.159 43.4188 161.506 43.6838C162.243 43.9069 162.687 44.5066 162.687 45.2875C162.687 46.6124 161.422 47.2678 159.797 47.2678C158.462 47.2678 157.364 46.8076 156.711 46.208L157.573 45.0225C158.004 45.3712 158.642 45.7338 159.588 45.7338C160.269 45.7338 160.728 45.5525 160.728 45.0365C160.728 44.5484 160.338 44.4229 159.825 44.4229H158.42Z" fill="#13AB7B"/>
<path d="M165.211 40.4219H170.243V45.4563H171.077V48.7754H169.311V47.0462H164.933V48.7754H163.168V45.4563H163.933C164.822 44.2571 165.058 42.7229 165.211 40.4219ZM165.948 45.4563H168.325V42.0117H166.851C166.726 43.6155 166.448 44.6196 165.948 45.4563Z" fill="#13AB7B"/>
<path d="M175.233 45.5246C176.247 45.5246 176.79 44.646 176.79 43.7256C176.79 42.7912 176.247 41.9405 175.233 41.9405C174.219 41.9405 173.663 42.7912 173.663 43.7256C173.663 44.646 174.219 45.5246 175.233 45.5246ZM171.73 43.7256C171.73 41.7592 173.162 40.1973 175.233 40.1973C177.29 40.1973 178.721 41.7592 178.721 43.7256C178.721 45.678 177.29 47.2678 175.233 47.2678C173.162 47.2678 171.73 45.678 171.73 43.7256Z" fill="#13AB7B"/>
<path d="M179.832 49.8339V40.4204H181.75C181.792 40.6575 181.806 40.8946 181.82 41.1316C182.279 40.4762 182.96 40.1973 183.738 40.1973C185.573 40.1973 186.559 41.8429 186.559 43.6698C186.559 46.1103 184.766 47.2539 183.113 47.2539C182.543 47.2539 182.14 47.1144 181.82 47.0029V49.8339H179.832ZM181.82 43.5304V45.3154C182.084 45.4967 182.501 45.5804 182.876 45.5804C183.988 45.5804 184.558 44.8691 184.558 43.6977C184.558 42.7633 184.169 41.9126 183.224 41.9126C182.292 41.9126 181.82 42.7075 181.82 43.5304Z" fill="#13AB7B"/>
<path d="M190.89 45.5246C191.904 45.5246 192.446 44.646 192.446 43.7256C192.446 42.7912 191.904 41.9405 190.89 41.9405C189.875 41.9405 189.319 42.7912 189.319 43.7256C189.319 44.646 189.875 45.5246 190.89 45.5246ZM187.387 43.7256C187.387 41.7592 188.818 40.1973 190.89 40.1973C192.946 40.1973 194.379 41.7592 194.379 43.7256C194.379 45.678 192.946 47.2678 190.89 47.2678C188.818 47.2678 187.387 45.678 187.387 43.7256Z" fill="#13AB7B"/>
<path d="M197.374 41.7886V43.0716H198.792C199.278 43.0716 199.515 42.8624 199.515 42.4301C199.515 41.942 199.181 41.7886 198.625 41.7886H197.374ZM199.306 47.0462H195.512V40.4219H199.306C200.696 40.4219 201.405 41.1471 201.405 42.1094C201.405 42.8904 200.96 43.3505 200.46 43.5597C201.169 43.7689 201.724 44.2571 201.724 45.2193C201.724 46.4465 200.765 47.0462 199.306 47.0462ZM197.374 44.3407V45.6795H199.042C199.542 45.6795 199.793 45.4563 199.793 45.0101C199.793 44.5778 199.542 44.3407 199.042 44.3407H197.374Z" fill="#13AB7B"/>
<path d="M205.632 43.8526H204.729V45.5679H205.632C206.341 45.5679 206.744 45.3308 206.744 44.7172C206.744 44.0896 206.341 43.8526 205.632 43.8526ZM202.77 40.4219H204.729V42.3743H206.16C207.662 42.3743 208.676 43.225 208.676 44.7312C208.676 46.3071 207.495 47.0462 206.132 47.0462H202.77V40.4219Z" fill="#13AB7B"/>
<path d="M213.46 43.5179V41.8862H212.445C211.876 41.8862 211.528 42.1652 211.528 42.709C211.528 43.3087 211.931 43.5179 212.585 43.5179H213.46ZM215.42 47.0462H213.46V44.9543H212.792C212.389 44.9543 212.195 45.0937 211.958 45.5819L211.208 47.0462H209.109L210.083 45.3587C210.402 44.8148 210.624 44.5917 211.055 44.4383C210.291 44.2152 209.568 43.5737 209.568 42.4998C209.568 41.1471 210.721 40.4219 211.986 40.4219H215.42V47.0462Z" fill="#13AB7B"/>
</g>
<defs>
<clipPath id="clip0_312_64">
<rect width="215.909" height="50" fill="white" transform="translate(0.414062)"/>
</clipPath>
</defs>
</svg>
