<svg width="94" height="88" viewBox="0 0 94 88" fill="none" xmlns="http://www.w3.org/2000/svg">
<circle cx="44" cy="44" r="44" fill="#D2DF3F"/>
<g clip-path="url(#clip0_22_754)">
<path d="M94 44.0279C93.9947 62.747 78.6873 78.0133 59.9376 78C41.2277 77.984 25.9867 62.6699 26 43.9029C26.0133 25.2423 41.3393 9.98671 60.0624 10C78.7458 10.0133 94.0053 25.3115 94 44.0279ZM37.9208 23.7633C27.4078 34.9836 26.9403 53.5059 38.9195 65.3114C51.0847 77.3004 70.347 76.8801 81.957 64.4122C93.413 52.1093 92.5471 33.0391 80.1668 21.8161C67.6563 10.4735 50.41 12.6069 41.079 20.8239C42.569 24.7635 43.9237 28.7723 47.3289 31.6159C48.2107 30.1502 49.4564 29.142 51.1271 28.7377C52.7899 28.336 54.3623 28.626 55.8392 29.5331C55.956 29.3203 56.0516 29.15 56.1473 28.9771C59.0504 23.5824 65.0613 20.7095 71.0748 21.8427C76.9821 22.9573 81.6595 27.9556 82.2997 33.8451C82.977 40.0804 79.7152 45.8288 74.0577 48.2974C73.5264 48.5288 73.3485 48.8347 73.2953 49.3614C73.0616 51.7582 72.3577 54.0219 71.359 56.2085C69.8264 59.5656 67.3349 62.1618 64.6947 64.6357C60.6494 68.429 54.6439 69.4265 49.5706 67.1761C44.1946 64.79 40.8877 59.4113 40.994 53.2292C40.9993 52.9526 40.994 52.6759 40.994 52.3806C40.7894 52.3806 40.6779 52.3833 40.569 52.3806C38.0244 52.2769 36.1704 51.0665 35.1876 48.739C34.2181 46.4406 34.5847 44.2461 36.2846 42.3946C38.4626 40.0218 41.1958 38.8408 44.4363 38.9365C45.2199 38.9605 46.0008 39.0908 46.8109 39.1759C46.7339 38.4311 46.6064 37.6889 46.6011 36.9494C46.5958 36.4493 46.4178 36.1461 46.038 35.8481C43.0976 33.5339 40.8718 30.653 39.3285 27.2507C38.8186 26.1282 38.4016 24.9657 37.9181 23.7607L37.9208 23.7633ZM46.2983 48.848C45.9609 49.5769 45.4961 50.3164 45.273 51.1224C44.8082 52.8116 44.8932 54.538 45.2597 56.2458C46.6436 62.6912 53.6717 66.1945 59.5524 63.3854C61.2338 62.5821 62.4503 61.2361 63.7492 59.9725C67.5209 56.3043 69.4731 51.8672 69.4652 46.5869C69.4652 45.5681 69.4838 45.5681 70.4905 45.3101C75.1042 44.1184 77.9648 40.8092 78.3633 36.2046C78.9051 29.964 73.1174 24.6545 66.9126 25.7052C62.4662 26.458 59.1965 29.831 58.567 34.3133C57.9827 38.471 60.2669 42.6261 64.1901 44.544C64.3601 44.6265 64.5221 44.7275 64.7133 44.8339C64.214 46.0682 63.7385 47.2467 63.2445 48.465C62.9815 48.3612 62.7743 48.2974 62.5805 48.2016C59.1115 46.5337 56.6865 43.9056 55.3425 40.2932C54.6704 38.4843 54.4659 36.6116 54.5376 34.6883C54.5828 33.5206 53.762 32.6268 52.6969 32.5736C51.576 32.515 50.6411 33.3024 50.5773 34.4037C50.3808 37.7209 51.005 40.8757 52.5774 43.8098C53.5203 45.5708 54.0197 47.4169 53.8842 49.4093C53.7169 51.8805 52.7607 54.0086 51.082 55.735C50.1311 54.7747 49.2068 53.8437 48.2798 52.9047C50.1417 50.6702 50.4472 48.0154 49.066 45.7277C47.0101 42.3228 42.4044 41.9132 39.4162 44.8712C38.5423 45.7357 38.4653 46.9594 39.2329 47.776C40.0298 48.6219 41.2728 48.6086 42.1786 47.7201C42.6965 47.2121 43.1773 46.6641 43.6421 46.1693C44.6037 47.1402 45.4882 48.0314 46.3009 48.8507L46.2983 48.848Z" fill="black"/>
</g>
<defs>
<clipPath id="clip0_22_754">
<rect width="68" height="68" fill="white" transform="translate(26 10)"/>
</clipPath>
</defs>
</svg>
