<svg width="22" height="28" viewBox="0 0 22 28" fill="none" xmlns="http://www.w3.org/2000/svg">
<g clip-path="url(#clip0_312_24136)">
<path d="M19.3387 21.4645C19.7074 21.4645 20.052 21.4623 20.3955 21.4645C21.0847 21.4711 21.4118 21.8029 21.4118 22.4918C21.4118 23.9955 21.4118 25.4992 21.4118 27.0029C21.4118 27.6535 21.0694 27.9985 20.4207 27.9985C13.9478 27.9985 7.47601 27.9985 1.00315 27.9985C0.339123 27.9985 0 27.6568 0 26.9887C0 25.485 0 23.9813 0 22.4776C0 21.7963 0.330371 21.4667 1.0294 21.4656C3.3234 21.4634 5.6174 21.4656 7.9114 21.4656H8.25928V19.3639C8.13894 19.3639 8.03174 19.3639 7.92453 19.3639C5.87667 19.3639 3.82771 19.3639 1.77985 19.3639C1.40462 19.3639 1.13333 19.1941 0.971422 18.8623C0.806237 18.5239 0.866404 18.203 1.1016 17.9204C1.30179 17.6795 1.57747 17.6094 1.88487 17.6105C3.5411 17.6137 5.19842 17.6127 6.85465 17.6127C8.96706 17.6127 11.0784 17.6127 13.1908 17.6127C13.7553 17.6127 14.148 17.9642 14.1589 18.4658C14.1709 18.9696 13.8056 19.3584 13.2991 19.3617C12.3255 19.3672 11.3508 19.3639 10.3772 19.3639C10.2787 19.3639 10.1791 19.3639 10.0577 19.3639V21.4492H17.5873C17.5873 21.3331 17.5873 21.2345 17.5873 21.1359C17.5873 18.9028 17.5884 16.6697 17.5873 14.4377C17.5841 10.1445 14.7803 6.61789 10.608 5.66178C10.2918 5.5895 9.96802 5.55335 9.61358 5.49421V5.83044C9.61358 7.78976 9.61139 9.74908 9.61577 11.7084C9.61577 12.1563 9.44621 12.475 9.02285 12.6558C8.95284 12.6853 8.88611 12.8157 8.88501 12.9011C8.87298 13.4837 8.88173 14.0675 8.87736 14.6512C8.87298 15.3292 8.5448 15.6588 7.87202 15.6599C6.47943 15.6621 5.08684 15.6632 3.69315 15.6599C3.04007 15.6588 2.70751 15.3226 2.70204 14.6644C2.69767 14.0806 2.69767 13.498 2.70314 12.9142C2.70423 12.7708 2.67251 12.6886 2.52263 12.6295C2.14522 12.4805 1.96582 12.1826 1.96582 11.7763C1.96582 8.15775 1.96582 4.54029 1.96582 0.921733C1.9691 0.364274 2.33448 0.00176145 2.89458 0.000666244C4.82429 -0.00152416 6.75401 -0.00152416 8.68373 0.000666244C9.25477 0.000666244 9.61249 0.36756 9.61358 0.945828C9.61577 1.8658 9.61358 2.78577 9.61358 3.71998C10.0512 3.79336 10.48 3.8525 10.9044 3.93683C14.975 4.74728 18.2984 8.06466 19.1068 12.1629C19.2534 12.9077 19.318 13.6798 19.3278 14.4398C19.3562 16.6631 19.3376 18.8875 19.3376 21.1107C19.3376 21.2181 19.3376 21.3254 19.3376 21.4645H19.3387ZM19.6549 23.2431H1.76781V26.2286H19.6549V23.2431ZM3.72816 10.9177H7.84467V1.76614H3.72816V10.9177ZM4.45016 13.8725H7.10845V12.7039H4.45016V13.8725Z" fill="#13AB7B"/>
</g>
<defs>
<clipPath id="clip0_312_24136">
<rect width="21.4118" height="28" fill="white"/>
</clipPath>
</defs>
</svg>
