<svg width="30" height="30" viewBox="0 0 30 30" fill="none" xmlns="http://www.w3.org/2000/svg">
<g clip-path="url(#clip0_312_24101)">
<path d="M3.05445 5.90946C2.59564 5.90946 2.1779 5.91767 1.76015 5.90711C1.20395 5.89303 0.823754 5.5328 0.820234 5.03293C0.816714 4.56241 1.14997 4.1658 1.62286 4.15876C2.77517 4.14116 3.92749 4.14468 5.0798 4.15876C5.47407 4.16345 5.75569 4.39461 5.86482 4.78887C6.16288 5.85783 6.45506 6.92796 6.73082 8.00278C6.8552 8.48856 6.56302 8.97082 6.11829 9.08464C5.62896 9.20902 5.18658 8.95557 5.03403 8.4428C4.88266 7.93238 4.75124 7.41609 4.59517 6.84817C4.49777 6.9702 4.42385 7.05468 4.35814 7.14503C2.86436 9.19494 2.00071 11.476 1.80944 14.0117C1.33068 20.3867 5.50927 26.2396 11.6768 27.8225C18.7632 29.6412 25.9763 25.4041 27.8268 18.3345C29.6843 11.2402 25.318 3.90062 18.1906 2.164C14.8451 1.3485 11.6522 1.78617 8.61535 3.40897C8.41587 3.51574 8.18001 3.6014 7.95823 3.6061C7.57217 3.61431 7.23539 3.30336 7.15912 2.95017C7.07229 2.54653 7.2354 2.17222 7.61207 1.95866C8.74443 1.31447 9.94133 0.827514 11.2016 0.498965C12.9477 0.0413439 14.7207 -0.10885 16.5149 0.0788924C19.3769 0.378106 21.9596 1.39895 24.2197 3.18368C27.2882 5.60672 29.2326 8.74671 29.8064 12.6154C30.6137 18.0693 28.9028 22.6807 24.7841 26.3534C22.5722 28.3259 19.9507 29.4969 17.0124 29.8642C12.5992 30.4168 8.65525 29.2657 5.26168 26.3792C2.48886 24.023 0.782684 21.0203 0.206529 17.4298C-0.448247 13.3511 0.45999 9.60915 2.84441 6.22979C2.889 6.16643 2.93711 6.10424 2.9817 6.04087C2.99813 6.01741 3.00986 5.99159 3.05445 5.90946Z" fill="#13AB7B"/>
<path d="M22.4765 17.7626C22.4765 18.2753 22.4765 18.7611 22.4765 19.2469C22.4765 19.4123 22.4824 19.579 22.4695 19.7444C22.4308 20.2431 22.0694 20.5846 21.5918 20.5834C21.12 20.581 20.7446 20.2372 20.7199 19.7362C20.6953 19.2293 20.7117 18.7212 20.7105 18.2131C20.7105 18.077 20.7105 17.9409 20.7105 17.7626C20.585 17.7626 20.4817 17.7626 20.3784 17.7626C18.9433 17.7626 17.507 17.7626 16.0719 17.7626C15.3878 17.7626 15.0205 17.3789 15.071 16.6959C15.1308 15.8875 15.4535 15.1928 16.0285 14.6179C17.6514 12.9951 19.2754 11.3746 20.8959 9.74949C21.194 9.45028 21.5343 9.33294 21.9321 9.49487C22.3357 9.65797 22.4777 9.99238 22.4777 10.4101C22.4754 12.1385 22.4777 13.8657 22.4777 15.5941C22.4777 15.7185 22.4777 15.8441 22.4777 16.0036C22.8063 16.0036 23.1067 16.0013 23.4059 16.0036C23.9598 16.0095 24.3705 16.3956 24.3622 16.8966C24.354 17.3941 23.9574 17.7579 23.4141 17.7614C23.1137 17.7637 22.8133 17.7614 22.4765 17.7614V17.7626ZM20.6859 15.9919V12.575C19.5535 13.7085 18.4024 14.8608 17.2724 15.9919H20.6859Z" fill="#13AB7B"/>
<path d="M9.17687 18.8237C9.32941 18.8237 9.48196 18.8237 9.63333 18.8237C10.7469 18.8237 11.8605 18.8143 12.9729 18.8319C13.1959 18.8354 13.4423 18.8999 13.6336 19.0114C13.9586 19.2003 14.0713 19.6051 13.961 19.9595C13.8401 20.3467 13.5538 20.5779 13.1372 20.5814C12.1515 20.5908 11.1647 20.5861 10.1778 20.5861C9.34819 20.5861 8.51622 20.5556 7.68778 20.5955C6.91566 20.6318 6.38761 20.1073 6.67159 19.2332C6.79949 18.8377 7.00601 18.4141 7.30172 18.1349C8.02925 17.4473 8.8354 16.843 9.59813 16.1918C10.3092 15.5851 11.0673 15.0184 11.6939 14.3319C12.6056 13.3357 12.3181 11.9593 11.1658 11.3856C9.94077 10.7754 8.49393 11.5803 8.37541 12.9497C8.33786 13.3838 8.23929 13.764 7.79104 13.9412C7.18438 14.1806 6.58006 13.7241 6.59414 13.0424C6.63404 11.0523 8.26393 9.44712 10.2658 9.426C12.3416 9.4037 14.049 11.1086 14.0055 13.1797C13.9832 14.2486 13.4881 15.1334 12.7312 15.8245C11.7748 16.6963 10.7352 17.4778 9.73073 18.2968C9.5418 18.4505 9.35053 18.6007 9.16044 18.7533C9.1663 18.7767 9.17217 18.8014 9.17804 18.8248L9.17687 18.8237Z" fill="#13AB7B"/>
</g>
<defs>
<clipPath id="clip0_312_24101">
<rect width="30" height="30" fill="white"/>
</clipPath>
</defs>
</svg>
