<svg width="42" height="43" viewBox="0 0 42 43" fill="none" xmlns="http://www.w3.org/2000/svg">
<path fill-rule="evenodd" clip-rule="evenodd" d="M18.9229 0.0783001C11.7041 1.02883 5.65871 5.53127 2.61007 12.2275C-0.523347 19.1102 0.022812 27.1045 4.0565 33.398C9.81169 42.3773 20.9191 45.5359 30.1906 40.8296C39.4888 36.1096 44.0203 24.9064 40.7556 14.71C38.3497 7.19615 32.2058 1.66813 24.7301 0.291014C23.2851 0.0247764 20.1897 -0.0886017 18.9229 0.0783001ZM24.3994 1.85206C27.3206 2.40871 29.9699 3.56954 32.391 5.35389C33.5509 6.20866 35.7641 8.51617 36.6019 9.74399C39.7744 14.3939 40.9382 19.9999 39.8755 25.5133C39.639 26.7405 38.928 28.9143 38.3581 30.1527C35.0935 37.2465 27.9099 41.7227 20.3754 41.3582C11.866 40.9465 4.75866 34.8742 2.6986 26.2561C2.28187 24.5124 2.1886 23.6406 2.1886 21.4847C2.1886 19.2025 2.28341 18.3997 2.79341 16.3625C4.54622 9.36092 9.82249 3.94766 16.6322 2.16446C17.3935 1.96521 17.9642 1.86012 19.4934 1.63808C20.1896 1.53702 23.5047 1.68159 24.3994 1.85206ZM20.3203 8.23336C19.3741 8.55841 18.6653 9.1817 18.2099 10.0893L17.95 10.6073V17.0531V23.499L18.1987 23.985C18.5888 24.7472 19.07 25.2469 19.749 25.5951C20.2655 25.8598 20.5205 25.9162 21.2022 25.9162C22.5494 25.9162 23.545 25.2761 24.2058 23.985L24.4545 23.499V17.0531V10.6073L24.1945 10.0893C23.5916 8.88784 22.6272 8.23474 21.3676 8.17511C20.9431 8.15508 20.4718 8.18121 20.3203 8.23336ZM22.2566 10.1447C22.9887 10.7276 22.9752 10.5895 22.9415 17.221C22.9118 23.0493 22.9055 23.2023 22.6837 23.5124C22.2517 24.1163 21.8994 24.3047 21.2022 24.3047C20.505 24.3047 20.1528 24.1163 19.7207 23.5124C19.4991 23.2026 19.4925 23.0458 19.4599 17.3038C19.4381 13.4718 19.4664 11.2698 19.5407 11.0032C19.8633 9.84735 21.3092 9.39016 22.2566 10.1447ZM20.2502 28.0491C19.2779 28.3625 18.2628 29.4664 17.9943 30.5023C17.7063 31.6132 18.1047 33.0887 18.9048 33.8748C19.5989 34.5568 20.1589 34.7765 21.2022 34.7765C21.9709 34.7765 22.2285 34.7279 22.6354 34.5065C23.3117 34.1385 23.8118 33.6236 24.1596 32.9376C24.409 32.4457 24.4514 32.2198 24.4516 31.3837C24.4518 30.5906 24.405 30.3132 24.2045 29.9193C23.5771 28.6871 22.6213 28.0295 21.375 27.973C20.9465 27.9536 20.4403 27.9877 20.2502 28.0491ZM22.1683 29.8496C22.7301 30.2875 22.911 30.6613 22.911 31.3837C22.911 31.887 22.8527 32.1397 22.6804 32.3824C21.9204 33.4534 20.6372 33.5226 19.8417 32.5354C19.1222 31.6427 19.45 30.1856 20.4801 29.6975C20.9264 29.4862 21.8034 29.5651 22.1683 29.8496Z" fill="#FD5E5E"/>
</svg>
