<svg width="87" height="87" viewBox="0 0 87 87" fill="none" xmlns="http://www.w3.org/2000/svg">
<path d="M43.5 87C67.5244 87 87 67.5244 87 43.5C87 19.4756 67.5244 0 43.5 0C19.4756 0 0 19.4756 0 43.5C0 67.5244 19.4756 87 43.5 87Z" fill="#D2DF3F"/>
<path d="M60.9899 68.87C60.8899 64 58.9398 60.01 55.1498 56.93C52.8598 55.07 50.2099 54.01 47.2299 53.65C47.3199 53.49 47.3799 53.37 47.4499 53.26C49.3299 50.27 50.2299 47.02 50.2199 43.5C50.1999 36.67 50.2199 29.84 50.2199 23.01C50.2199 17.98 46.2299 14.02 41.1799 14.02C35.3899 14.02 29.6099 14.02 23.8199 14.02C18.7699 14.02 14.7898 17.99 14.7798 23.01C14.7798 29.96 14.7798 36.91 14.7798 43.86C14.7798 46 15.1299 48.09 15.9599 50.07C16.4699 51.29 17.0899 52.46 17.6699 53.66C15.8899 53.89 14.1299 54.36 12.4999 55.23C7.64994 57.82 4.75994 61.81 4.12994 67.28C3.90994 69.18 4.01994 71.12 3.99994 73.05C3.98994 74.2 4.73986 75.01 5.78986 75.01C6.82986 75.01 7.58991 74.2 7.58991 73.05C7.58991 71.6 7.55991 70.15 7.58991 68.7C7.66991 65.75 8.69991 63.16 10.7199 60.99C13.1699 58.36 16.2399 57.11 19.8399 57.13C20.5199 57.13 21.0699 57.25 21.6299 57.7C24.6999 60.11 28.2199 61.35 32.1299 61.42C36.4599 61.5 40.3099 60.14 43.6899 57.45C43.8799 57.3 44.1399 57.14 44.3599 57.15C45.5499 57.2 46.7599 57.19 47.9299 57.4C52.8199 58.31 56.7899 62.6 57.2599 67.52C57.4399 69.37 57.3598 71.25 57.3898 73.11C57.4098 74.21 58.1699 75 59.1999 75C60.2299 75 60.9799 74.2 60.9799 73.09C60.9799 71.68 61.0099 70.27 60.9799 68.86L60.9899 68.87ZM21.1099 52.08C19.9299 50.47 19.1099 48.69 18.6799 46.58C19.5999 47.1 20.3899 47.56 21.1899 48.02C21.2499 48.06 21.2999 48.18 21.2999 48.26C21.2999 49.52 21.2999 50.78 21.2999 52.04C21.2399 52.05 21.1699 52.06 21.1099 52.07V52.08ZM40.1599 52.25C40.1599 53.22 40.1798 54.19 40.1398 55.16C40.1398 55.38 39.9598 55.69 39.7698 55.8C34.9198 58.55 30.0499 58.56 25.2099 55.8C25.0199 55.69 24.8599 55.38 24.8499 55.16C24.8199 53.24 24.8499 51.31 24.8299 49.39C24.8299 49.03 24.9398 48.88 25.2798 48.76C27.5698 47.97 29.8498 47.14 32.1398 46.35C32.3598 46.28 32.6599 46.27 32.8799 46.35C35.1499 47.14 37.4099 47.96 39.6799 48.74C40.0799 48.88 40.1899 49.07 40.1699 49.47C40.1399 50.4 40.1699 51.33 40.1699 52.27L40.1599 52.25ZM43.8898 52.08C43.8198 52.07 43.7399 52.05 43.6699 52.04V47.48C44.4499 47.03 45.3899 46.49 46.4399 45.88C46.0899 48.25 45.2098 50.25 43.8898 52.07V52.08ZM46.6099 41.36C46.6099 41.52 46.4298 41.75 46.2798 41.84C44.4598 42.9 42.6299 43.95 40.7899 44.98C40.5799 45.1 40.2199 45.1 39.9799 45.02C37.8399 44.29 35.6999 43.54 33.5699 42.76C32.8399 42.49 32.1699 42.5 31.4299 42.77C29.0799 43.64 26.7199 44.46 24.3499 45.27C24.1199 45.35 23.7899 45.34 23.5899 45.23C21.9699 44.33 20.3698 43.41 18.7798 42.47C18.6098 42.37 18.4098 42.14 18.3998 41.96C18.3698 40.02 18.3799 38.07 18.3799 36.09H46.6199C46.6199 37.87 46.6199 39.62 46.6099 41.36ZM18.3799 32.46V31.89C18.3799 28.99 18.3799 26.09 18.3799 23.19C18.3799 19.89 20.7098 17.58 24.0298 17.58C29.6698 17.58 35.3199 17.58 40.9699 17.58C44.2999 17.58 46.6199 19.88 46.6299 23.18C46.6299 26.08 46.6299 28.98 46.6299 31.88V32.46H18.3799Z" fill="black"/>
</svg>
