<svg width="87" height="87" viewBox="0 0 87 87" fill="none" xmlns="http://www.w3.org/2000/svg">
<path d="M43.5 87C67.5244 87 87 67.5244 87 43.5C87 19.4756 67.5244 0 43.5 0C19.4756 0 0 19.4756 0 43.5C0 67.5244 19.4756 87 43.5 87Z" fill="#D2DF3F"/>
<path d="M44.6799 19.34C31.7299 19.04 21.0999 28.74 20.3399 41.89C19.5999 54.77 29.7798 65.98 42.7698 66.68C55.8598 67.38 67.0799 57.22 67.6599 43.99C68.2199 31.48 58.5299 19.74 44.6799 19.34ZM44.76 15.01C60.36 15.53 72.5799 28.46 71.9799 44.01C71.3899 59.22 58.94 71.59 42.76 70.99C27.57 70.43 15.3098 57.41 16.0198 41.89C16.7198 26.74 28.8799 14.77 44.7499 15.01H44.76Z" fill="black"/>
<path d="M41.85 46.23V37.95C41.85 36.52 42.7299 35.57 44.0199 35.58C45.2799 35.58 46.1599 36.55 46.1599 37.92C46.1599 43.46 46.1599 49.01 46.1599 54.55C46.1599 55.93 45.28 56.88 44.01 56.88C42.74 56.88 41.85 55.94 41.85 54.57C41.85 51.79 41.85 49 41.85 46.22V46.23Z" fill="black"/>
<path d="M41.8499 31.29C41.8399 30.07 42.79 29.12 44.01 29.13C45.2 29.13 46.1499 30.07 46.1599 31.24C46.1599 32.42 45.1699 33.43 43.9899 33.42C42.8299 33.42 41.8599 32.45 41.8499 31.28V31.29Z" fill="black"/>
</svg>
