<svg width="88" height="92" viewBox="0 0 88 92" fill="none" xmlns="http://www.w3.org/2000/svg">
<path d="M43.5 91.02C67.5244 91.02 87 71.5444 87 47.52C87 23.4956 67.5244 4.01999 43.5 4.01999C19.4756 4.01999 0 23.4956 0 47.52C0 71.5444 19.4756 91.02 43.5 91.02Z" fill="#D2DF3F"/>
<path d="M86.99 14.84C87.04 13.55 86.52 12.64 85.57 11.93C84.95 11.46 84.27 11.03 83.56 10.72C81.45 9.82 79.22 9.66998 76.96 9.88998C74.99 10.09 73.13 10.62 71.57 11.91C70.65 12.67 70.08 13.54 70.15 14.83C70.24 16.6 70.33 18.4 70.14 20.16C69.8 23.33 70.89 25.61 73.8 26.98C74.3 27.21 74.39 27.6 74.38 28.11C74.36 30.33 74.38 32.54 74.37 34.76C74.36 36.56 75.14 37.88 76.69 38.78C76.91 38.91 77.15 39.23 77.16 39.47C77.2 41.28 77.21 43.08 77.17 44.89C77.13 46.37 75.96 47.55 74.49 47.59C73.03 47.63 71.57 47.63 70.12 47.59C68.6 47.55 67.45 46.35 67.4 44.83C67.39 44.34 67.4 43.84 67.4 43.34C67.36 40.72 65.59 38.45 63.01 37.98C61.71 37.75 60.34 37.83 59.01 37.82C58.47 37.82 58.15 37.74 58.09 37.1C58.03 36.44 57.82 35.79 57.67 35.14C57.38 33.87 57.05 33.6 55.76 33.6H48.55C48.34 32.34 48.16 31.14 47.95 29.94C47.65 28.21 47.41 28.02 45.68 28C45.49 28 45.29 27.98 45.09 27.97V25.2H55.81C57.13 25.2 57.62 24.72 57.62 23.43V1.72998C57.62 0.48998 57.12 0 55.87 0H22.99C21.74 0 21.24 0.49 21.24 1.75V23.45C21.24 24.74 21.73 25.22 23.05 25.22H33.77V28.02H33.01C31.55 28.02 31.24 28.26 30.98 29.7C30.74 30.98 30.53 32.27 30.3 33.62H23.02C21.84 33.62 21.46 33.91 21.22 35.06C19.84 41.43 18.47 47.79 17.11 54.16C16.88 55.25 17.49 55.99 18.6 56.01C19.93 56.03 21.26 56.01 22.59 56.01V67.17C19.85 67.53 18.45 69.13 18.45 71.82C18.45 72.31 18.47 72.81 18.45 73.31C18.41 74.17 18.43 75 19.2 75.54C17.99 78.32 18.38 80.81 20.24 82.5C22.05 84.15 24.61 84.48 26.72 83.32C28.09 82.57 28.98 81.42 29.44 79.93C29.89 78.45 29.6 77.03 28.98 75.63H49.87C48.8 79.1 49.39 81.46 51.71 83.03C53.75 84.42 56.43 84.3 58.38 82.74C60.46 81.07 60.91 78.63 59.96 75.59C60.12 74.92 60.32 74.25 60.43 73.58C60.5 73.09 60.44 72.59 60.44 72.09C60.44 69.1 59.25 67.66 56.29 67.11V55.99C57.65 55.99 58.96 56 60.26 55.99C61.42 55.97 62.01 55.22 61.76 54.08C61.22 51.58 60.67 49.08 60.14 46.58C59.72 44.61 59.31 42.64 58.88 40.6C59.43 40.6 59.87 40.63 60.3 40.6C63.72 40.33 64.78 41.73 64.66 44.84C64.54 47.92 67.11 50.37 70.2 50.4C71.6 50.41 73 50.41 74.4 50.4C77.54 50.38 80 47.93 80.03 44.8C80.04 43.08 80.05 41.36 80.03 39.64C80.03 39.18 80.15 38.93 80.58 38.7C82.09 37.88 82.84 36.57 82.84 34.84C82.84 33.29 82.98 31.73 82.8 30.21C82.56 28.17 83.12 26.78 85.05 25.82C86.48 25.12 87.04 23.7 87.03 22.08C87.02 19.66 86.96 17.24 87.05 14.82L86.99 14.84ZM24.06 22.38V2.88998H54.74V22.38H24.06ZM42.11 25.29V28.01H36.66V25.29H42.11ZM33.58 30.86H45.19C45.49 32.69 45.8 34.51 46.11 36.38H32.66C32.97 34.51 33.27 32.69 33.57 30.86H33.58ZM24.03 81.22C22.52 81.24 21.23 80 21.2 78.49C21.17 76.94 22.45 75.63 24 75.63C25.5 75.63 26.79 76.91 26.79 78.41C26.79 79.93 25.55 81.2 24.03 81.22ZM54.87 81.22C53.32 81.27 52 79.99 51.99 78.44C51.98 76.93 53.23 75.65 54.74 75.63C56.25 75.61 57.54 76.84 57.58 78.36C57.62 79.86 56.37 81.17 54.87 81.22ZM57.53 72.76H21.2C21.2 72.28 21.18 71.85 21.2 71.42C21.26 70.6 21.77 70.09 22.6 70.03C22.86 70.01 23.12 70.03 23.39 70.03H55.11C57.41 70.03 57.72 70.38 57.54 72.77L57.53 72.76ZM48.61 58.82C47.04 58.82 45.46 58.82 43.89 58.82C42.69 58.82 42.19 59.32 42.18 60.51C42.17 62.67 42.17 64.82 42.16 66.98C42.16 67.03 42.12 67.08 42.08 67.18H36.58V66.35C36.58 64.37 36.59 62.39 36.58 60.41C36.58 59.38 36.05 58.84 35.02 58.84C33.27 58.83 31.52 58.83 29.77 58.84C28.7 58.84 28.18 59.38 28.18 60.47C28.18 62.68 28.18 64.9 28.18 67.2H25.44V56.08H53.3V67.18H50.57V60.8C50.57 59.26 50.15 58.84 48.6 58.84L48.61 58.82ZM47.74 61.67V67.18H45.04V61.67H47.74ZM33.75 61.68V67.16H31.03V61.68H33.75ZM20.14 53.16C21.34 47.58 22.52 42.05 23.72 36.45H29.77C29.71 36.81 29.65 37.14 29.61 37.47C29.48 38.49 30.05 39.21 31.06 39.21C36.59 39.22 42.13 39.22 47.67 39.21C48.7 39.21 49.28 38.51 49.16 37.49C49.12 37.17 49.05 36.86 48.98 36.48H55.05C56.23 42.02 57.42 47.55 58.62 53.15H20.13L20.14 53.16ZM82.45 24.25C79.48 26.12 80 25.36 79.97 28.8C79.95 30.75 79.97 32.71 79.97 34.66C79.97 35.76 79.44 36.41 78.58 36.41C77.71 36.41 77.19 35.77 77.18 34.66C77.18 33.38 77.18 32.09 77.18 30.81C77.18 29.53 77.15 28.25 77.19 26.97C77.21 26.18 76.91 25.65 76.25 25.24C75.48 24.76 74.76 24.21 73.99 23.75C73.26 23.31 73.04 22.72 72.95 21.89C72.79 20.49 73.42 19.81 74.59 19.24C77.74 17.7 80.73 17.97 83.59 19.89C83.88 20.09 84.08 20.55 84.15 20.92C84.45 22.45 83.79 23.42 82.46 24.26L82.45 24.25ZM84.18 15.47C84.1 15.88 84.17 16.32 84.17 16.86C80.41 14.94 76.74 14.93 72.98 16.86C72.98 16.06 72.9 15.36 73.02 14.7C73.08 14.37 73.44 14.02 73.75 13.82C75.66 12.6 77.8 12.44 79.96 12.71C81.03 12.85 82.08 13.25 83.1 13.63C83.9 13.92 84.35 14.52 84.18 15.47Z" fill="black"/>
<path d="M40.47 42.02C36.01 42.02 31.56 42.02 27.1 42.02C26.01 42.02 25.38 42.56 25.39 43.44C25.41 44.32 26.03 44.81 27.15 44.81H33.79C36 44.81 38.22 44.81 40.43 44.81C41.54 44.81 42.17 44.31 42.18 43.43C42.19 42.54 41.56 42.01 40.46 42.01L40.47 42.02Z" fill="black"/>
<path d="M39.07 47.62C34.61 47.62 30.16 47.62 25.7 47.62C24.61 47.62 23.98 48.16 23.99 49.04C24.01 49.9 24.62 50.41 25.66 50.41C27.9 50.41 30.14 50.41 32.39 50.41C34.6 50.41 36.82 50.41 39.03 50.41C40.14 50.41 40.77 49.9 40.78 49.03C40.79 48.14 40.16 47.61 39.06 47.61L39.07 47.62Z" fill="black"/>
<path d="M51.84 44.81C52.78 44.8 53.39 44.22 53.38 43.39C53.37 42.56 52.77 42.03 51.8 42.01C50.93 42 50.05 42.01 49.18 42.01C48.31 42.01 47.43 42 46.56 42.01C45.6 42.02 45 42.56 44.98 43.38C44.97 44.21 45.57 44.79 46.51 44.8C48.28 44.81 50.06 44.81 51.83 44.8L51.84 44.81Z" fill="black"/>
<path d="M53.27 47.62C52.4 47.6 51.52 47.62 50.65 47.62C49.72 47.62 48.79 47.61 47.86 47.62C46.97 47.64 46.39 48.21 46.39 49.01C46.39 49.81 46.97 50.39 47.85 50.4C49.65 50.42 51.46 50.42 53.26 50.4C54.19 50.4 54.8 49.79 54.77 48.96C54.75 48.17 54.16 47.62 53.26 47.61L53.27 47.62Z" fill="black"/>
<path d="M50.18 5.62H28.59C27.27 5.62 26.79 6.08998 26.79 7.38998V17.8C26.79 19.16 27.26 19.62 28.63 19.62H39.29C42.93 19.62 46.58 19.62 50.22 19.62C51.47 19.62 51.98 19.13 51.98 17.89C51.98 14.39 51.98 10.89 51.98 7.39999C51.98 6.09999 51.49 5.62997 50.18 5.62997V5.62ZM49.13 16.75H29.65V8.45999H49.13V16.75Z" fill="black"/>
</svg>
