<svg width="87" height="87" viewBox="0 0 87 87" fill="none" xmlns="http://www.w3.org/2000/svg">
<path d="M43.5 87C67.5244 87 87 67.5244 87 43.5C87 19.4756 67.5244 0 43.5 0C19.4756 0 0 19.4756 0 43.5C0 67.5244 19.4756 87 43.5 87Z" fill="#D2DF3F"/>
<path d="M71.42 71.85C71.36 70.85 71.29 69.8 71.07 68.79L70.71 68.87H70.69L71.07 68.79C70.37 65.59 68.3 63.34 65.85 61.49C62.49 58.95 58.68 57.12 55.07 55.13C54.72 54.93 54.38 54.68 54.1 54.4C52.17 52.44 50.22 50.4 47.77 48.91C47.77 48.91 47.77 48.91 47.77 48.9C47.76 48.88 47.74 48.86 47.72 48.82C47.69 48.75 47.67 48.68 47.67 48.65H47.27L47.28 48.66H47.67C47.64 47.62 47.65 46.6 47.67 45.56C47.67 45.41 47.73 45.27 47.77 45.23C49.77 43.06 50.83 40.47 51.45 37.69C51.46 37.63 51.5 37.54 51.58 37.45C51.66 37.35 51.74 37.28 51.81 37.25C53.06 36.6 53.98 35.63 54.5 34.32L54.25 34.22H54.22L54.49 34.32C55.26 32.38 55.33 30.38 54.65 28.38C54.61 28.27 54.58 28.17 54.57 28.08C54.55 27.98 54.56 27.93 54.57 27.9C55.43 24.56 55.44 21.19 54.94 17.84C54.16 12.66 51.4 8.85002 46.34 7.10002C40.58 5.10002 34.71 5.13 28.92 7.02C24.78 8.37 21.94 11.21 20.67 15.41C19.49 19.33 19.56 23.31 20.31 27.27C20.34 27.44 20.37 27.57 20.39 27.7C20.4 27.83 20.39 27.9 20.39 27.94C19.92 29.09 19.76 30.28 19.84 31.48C20.01 33.92 20.87 36.05 23.33 37.23C23.33 37.23 23.33 37.23 23.34 37.24C23.36 37.26 23.38 37.29 23.4 37.33C23.45 37.41 23.48 37.51 23.5 37.59C24.05 39.88 24.75 42.26 26.44 44.09C27.58 45.32 27.87 46.59 27.71 48.15C27.71 48.2 27.71 48.25 27.71 48.28C27.71 48.3 27.71 48.31 27.71 48.32C27.71 48.32 27.71 48.33 27.71 48.34C27.69 48.38 27.68 48.42 27.66 48.45C27.64 48.5 27.62 48.54 27.61 48.58C27.57 48.65 27.57 48.65 27.59 48.64C25.06 50.16 23.04 52.26 21.06 54.3C20.84 54.52 20.64 54.71 20.43 54.82C18.68 55.77 16.81 56.67 15.08 57.72C12.84 59.08 10.57 60.47 8.45997 62.07C5.31997 64.45 3.58997 67.69 3.60997 71.73C3.60997 72.19 3.70997 72.61 3.96997 72.93C4.23997 73.25 4.61997 73.4 5.04997 73.41V73.01V73.15V73.41C5.47997 73.41 5.87997 73.29 6.15997 72.98C6.43997 72.68 6.55997 72.26 6.55997 71.79C6.57997 69.05 7.62997 66.78 9.63997 64.92L9.36997 64.63L9.39997 64.66L9.63997 64.92C12.95 61.85 17.02 60.02 20.88 57.84C22.07 59.24 23.21 60.61 24.38 61.96C24.74 62.38 25.17 62.64 25.66 62.64C26.14 62.64 26.57 62.36 26.92 61.95C26.92 61.95 26.95 61.91 26.96 61.9C29.46 66.06 32.57 69.61 36.18 72.74C36.64 73.14 37.1 73.41 37.62 73.42C38.14 73.42 38.6 73.16 39.07 72.75L38.84 72.48L38.81 72.45L39.07 72.75C41.74 70.47 44.12 67.92 46.16 65.05L45.83 64.82L45.85 64.83L46.16 65.05C46.87 64.05 47.55 63.01 48.23 61.99C48.7 62.4 49.17 62.66 49.68 62.65C50.33 62.64 50.89 62.2 51.46 61.56C52.45 60.42 53.39 59.23 54.37 58.03C54.59 58.15 54.83 58.27 55.07 58.4C58.15 60.11 61.26 61.66 64.03 63.77C66.77 65.86 68.5 68.41 68.48 71.93C68.48 72.37 68.62 72.76 68.91 73.03C69.2 73.3 69.58 73.43 69.99 73.42C70.41 73.42 70.79 73.27 71.06 72.99C71.34 72.7 71.46 72.3 71.43 71.86L71.42 71.85ZM29.37 55.63C27.87 56.3 26.7 57.43 25.58 58.71C24.88 57.82 24.18 56.94 23.43 55.98C24.8 54.69 26.08 53.47 27.32 52.3C28.03 53.45 28.7 54.55 29.36 55.63H29.37ZM51.7 56.21L51.71 56.23C51.71 56.23 51.7 56.26 51.66 56.31C51 57.15 50.34 58.01 49.66 58.89C48.49 57.51 47.2 56.27 45.48 55.68C46.21 54.56 46.91 53.49 47.62 52.38C47.85 52.56 48.09 52.75 48.32 52.97C49.43 54.01 50.47 55.04 51.58 56.09C51.63 56.14 51.66 56.18 51.68 56.2L51.7 56.21ZM29.4 43.19C27.92 42.02 27.34 40.24 26.68 38.34C26.44 37.66 26.3 36.92 26.17 36.18C26.11 35.81 25.97 35.48 25.73 35.23C25.5 34.98 25.19 34.82 24.85 34.73C24.36 34.61 23.99 34.41 23.7 34.15C23.6 34.06 23.52 33.97 23.44 33.86C23.12 33.44 22.92 32.9 22.79 32.25C22.74 32 22.73 31.74 22.72 31.44C22.71 31.16 22.7 30.84 22.66 30.53C22.54 29.68 22.93 29.05 23.62 28.57C25.98 26.94 26.74 24.59 26.84 21.97C26.89 20.78 26.93 19.6 27.08 18.44C27.29 16.85 27.79 15.7 28.58 14.9C29.37 14.1 30.51 13.59 32.12 13.36C33.88 13.11 35.65 13.01 37.68 12.82C39.56 13.03 41.6 13.17 43.62 13.51C44.67 13.69 45.48 14.06 46.11 14.57C46.32 14.74 46.51 14.93 46.68 15.13C47.36 15.94 47.76 17 47.92 18.22C48.03 19.04 48.09 19.87 48.15 20.71C48.2 21.55 48.25 22.4 48.33 23.24C48.52 25.16 49.34 26.78 50.8 28.06C51.53 28.71 52 29.71 52.12 30.77C52.24 31.83 52.01 32.91 51.43 33.69C51.11 34.12 50.58 34.51 50.12 34.62C49.67 34.73 49.32 34.91 49.07 35.21C48.83 35.49 48.7 35.84 48.61 36.2C48.21 37.69 47.88 39.15 47.26 40.48C46.75 41.59 46.05 42.71 45.17 43.43C43.44 44.84 41.69 46.2 39.54 46.58C36.95 47.04 34.47 46.95 32.35 45.24C32.13 45.06 31.89 44.94 31.68 44.83C31.45 44.72 31.27 44.63 31.09 44.52C30.97 44.44 30.87 44.36 30.76 44.26C30.65 44.16 30.54 44.05 30.41 43.93C30.41 43.93 30.41 43.93 30.41 43.92C30.4 43.9 30.39 43.89 30.37 43.86C30.34 43.82 30.28 43.75 30.19 43.68C30.17 43.66 30.15 43.64 30.12 43.62C29.87 43.48 29.64 43.33 29.43 43.16L29.4 43.19ZM30.37 9.65C30.98 9.47 31.58 9.31002 32.19 9.17002C36.44 8.22002 40.72 8.38 44.94 9.74C48.93 11.03 51.22 13.87 51.96 17.99C52.37 20.3 52.34 22.64 52.05 25.11C52.03 25.08 52.01 25.06 51.99 25.03C51.36 24.1 51.26 23.02 51.16 21.82C51.03 20.25 51.02 18.55 50.67 16.95C50.26 15.1 49.45 13.62 48.25 12.52C47.05 11.43 45.49 10.75 43.63 10.45C39.22 9.76002 34.8 9.73002 30.4 10.67C26.24 11.56 24.49 14.88 24.16 17.85C24.06 18.7 24 19.54 23.94 20.38C23.88 21.22 23.82 22.06 23.74 22.89C23.66 23.73 23.38 24.47 22.89 25.1C22.86 23.3 22.79 21.54 22.89 19.78C22.96 18.51 23.23 17.22 23.63 16C24.72 12.71 27.08 10.62 30.38 9.63001L30.37 9.65ZM30.54 52.01C30.37 51.74 30.24 51.41 30.12 51.06C30.1 51 30.08 50.91 30.08 50.84V50.82C30.49 50.38 30.63 49.88 30.66 49.41C30.68 49.17 30.66 48.93 30.66 48.71C30.66 48.48 30.65 48.28 30.66 48.09C30.67 47.93 30.67 47.79 30.68 47.65C32.56 49.03 34.66 49.57 36.9 49.67C37.16 49.68 37.42 49.69 37.68 49.69C40.29 49.69 42.6 48.94 44.67 47.4C44.67 47.87 44.66 48.36 44.68 48.83C44.7 49.11 44.74 49.39 44.78 49.63C44.82 49.89 44.86 50.12 44.87 50.34C44.87 50.55 44.89 50.75 44.87 50.93C44.86 51.12 44.83 51.26 44.77 51.37C44.41 52.1 44 52.8 43.5 53.39C41.52 55.75 39.49 58.08 37.43 60.48C36.63 59.38 35.81 58.26 34.98 57.15C34.75 56.84 34.48 56.55 34.18 56.3C32.71 55.09 31.56 53.61 30.52 51.99L30.54 52.01ZM46.08 59.49C46.08 59.49 46.08 59.51 46.08 59.53C46.06 59.61 46.03 59.7 45.99 59.76C44.35 62.68 42.35 65.34 39.99 67.72C39.24 68.47 38.47 69.2 37.65 69.97C34.21 66.88 31.33 63.46 29.1 59.53C29.06 59.47 29.05 59.42 29.04 59.39C29.04 59.37 29.04 59.38 29.04 59.38C29.04 59.38 29.05 59.36 29.09 59.34C29.78 58.93 30.39 58.51 31.07 58.21C31.14 58.18 31.21 58.17 31.28 58.16C31.49 58.15 31.71 58.25 31.9 58.49C33.31 60.3 34.73 62.08 36.1 63.91C36.47 64.41 36.94 64.77 37.47 64.76C37.47 64.76 37.47 64.76 37.48 64.76C38.03 64.76 38.47 64.38 38.79 63.85C39.89 62.06 41.07 60.38 42.66 59.04C43.19 58.59 43.86 58.42 44.49 58.51C45.11 58.6 45.69 58.93 46.07 59.49H46.08Z" fill="black"/>
<path d="M65.84 61.49L65.6 61.81L65.84 61.49Z" fill="black"/>
</svg>
