<svg width="92" height="87" viewBox="0 0 92 87" fill="none" xmlns="http://www.w3.org/2000/svg">
<path d="M47.8 87C71.8244 87 91.3 67.5244 91.3 43.5C91.3 19.4756 71.8244 0 47.8 0C23.7756 0 4.29999 19.4756 4.29999 43.5C4.29999 67.5244 23.7756 87 47.8 87Z" fill="#D2DF3F"/>
<path d="M73.85 21.97C71.5 16.32 67.34 12.38 61.63 10.14L61.52 10.42V10.38L61.63 10.14C58.55 8.94 55.36 8.61 52.12 8.72H50.51C45.59 8.74 41.15 10.18 37.21 13.15L37.38 13.38H37.39L37.21 13.15C30.48 18.22 27.25 27.17 29.31 35.33C30.99 41.97 34.96 46.81 41.11 49.82L41.22 49.6L41.24 49.55L41.11 49.82C43.58 51.03 46.2 51.68 48.95 51.82C52.24 51.98 55.57 52.09 58.85 51.33C59.04 51.28 59.16 51.29 59.26 51.31C59.35 51.34 59.45 51.39 59.59 51.53C61.18 53.15 62.8 54.75 64.4 56.35C64.68 56.63 64.99 56.87 65.35 57C65.72 57.13 66.13 57.13 66.56 56.95C66.99 56.77 67.28 56.49 67.45 56.13C67.61 55.78 67.66 55.39 67.66 55C67.64 52.67 67.69 50.31 67.63 47.97C67.63 47.6 67.67 47.31 67.78 47.06C67.89 46.81 68.07 46.58 68.35 46.34C70.48 44.54 72.11 42.33 73.32 39.84C76.17 33.98 76.34 27.95 73.85 21.98V21.97ZM49.63 48.62V48.32C46.38 48.22 43.36 47.31 40.63 45.53C36.13 42.6 33.4 38.5 32.49 33.19L32.22 33.24H32.2L32.5 33.19C31.14 25.23 35.43 17.11 43.13 13.75C44.97 12.95 46.89 12.43 48.88 12.35V12.05H48.87V12.35C52.28 12.21 55.62 12 58.88 12.97C64.53 14.65 68.51 18.21 70.72 23.66C72.68 28.51 72.45 33.36 70.26 38.11C69.13 40.56 67.48 42.64 65.35 44.3C64.92 44.63 64.59 45 64.38 45.44C64.17 45.88 64.09 46.36 64.11 46.92C64.17 48.27 64.14 49.62 64.13 51.12C63.18 50.18 62.32 49.34 61.5 48.45L61.29 48.65L61.51 48.45C61.13 48.04 60.73 47.77 60.26 47.64C59.8 47.52 59.31 47.55 58.78 47.71C55.81 48.59 52.76 48.43 49.65 48.34V48.54V48.64L49.63 48.62Z" fill="black"/>
<path d="M52.71 57.64C52.71 57.32 52.69 56.95 52.57 56.61C52.45 56.25 52.24 55.96 51.95 55.76C51.66 55.56 51.32 55.46 50.95 55.46C50.58 55.46 50.23 55.56 49.95 55.76C49.66 55.96 49.45 56.25 49.33 56.61C49.21 56.95 49.19 57.32 49.19 57.64C49.19 60.74 49.19 63.84 49.19 66.94C49.19 69.12 48.42 70.97 47.12 72.27C45.82 73.57 43.98 74.34 41.81 74.34C36.79 74.34 31.76 74.34 26.73 74.34C26.05 74.34 25.49 74.48 25.11 74.85C24.73 75.23 24.59 75.78 24.58 76.45C24.58 77.02 24.58 77.6 24.58 78.2C23.53 77.18 22.54 76.26 21.64 75.26L21.42 75.45L21.64 75.25C21.36 74.94 21.06 74.7 20.73 74.54C20.39 74.38 20.02 74.31 19.6 74.31C16.7 74.33 13.8 74.31 10.9 74.31C6.6 74.31 3.53 71.25 3.53 66.98C3.53 59.66 3.53 52.34 3.53 45.01C3.53 40.79 6.62 37.72 10.86 37.71H24.76C24.98 37.71 25.26 37.72 25.53 37.68L25.49 37.39L25.53 37.67C26.42 37.54 27.09 36.79 27.08 35.92C27.08 35.05 26.4 34.31 25.51 34.19C25.27 34.15 25.01 34.17 24.81 34.17C20.13 34.17 15.44 34.17 10.76 34.17V34.47V34.37V34.17C4.65 34.21 0.01 38.83 0 44.95C0 52.35 0 59.74 0 67.14H0.24H0.3H0C0 73.21 4.65 77.85 10.73 77.86C13.39 77.86 16.05 77.85 18.7 77.88C18.96 77.88 19.31 78.03 19.5 78.21L19.71 78L19.51 78.21C21.31 79.96 23.07 81.75 24.85 83.52C25.12 83.8 25.44 84.06 25.81 84.19C26.19 84.33 26.62 84.33 27.08 84.13C27.51 83.94 27.79 83.65 27.95 83.29C28.11 82.94 28.15 82.55 28.15 82.16H27.87H27.85H28.15C28.13 80.75 28.15 79.34 28.15 77.85H41.85C48.16 77.85 52.73 73.26 52.74 66.92C52.74 63.82 52.74 60.72 52.74 57.62L52.71 57.64Z" fill="black"/>
<path d="M40.73 54.14C40.46 54.1 40.18 54.12 39.96 54.12H25.11C20.06 54.12 15.02 54.12 9.96998 54.12C9.38998 54.12 8.87998 54.28 8.50998 54.59C8.12998 54.9 7.91998 55.35 7.91998 55.87C7.91998 56.39 8.11998 56.84 8.48998 57.16C8.85998 57.47 9.35998 57.64 9.93998 57.65H40.01C40.21 57.65 40.46 57.66 40.7 57.63C41.62 57.52 42.33 56.76 42.32 55.85H42.02H42.08H42.32C42.31 54.98 41.63 54.25 40.73 54.13V54.14Z" fill="black"/>
<path d="M36.54 64.09C36.54 63.73 36.46 63.38 36.26 63.09C36.07 62.8 35.77 62.58 35.4 62.46C35.04 62.35 34.65 62.32 34.3 62.32C30.3 62.32 26.31 62.32 22.31 62.32H22.01C18.02 62.32 14.02 62.32 10.03 62.32C9.41998 62.32 8.89998 62.47 8.51998 62.78C8.12998 63.09 7.91998 63.55 7.91998 64.08C7.91998 64.61 8.12998 65.07 8.51998 65.38C8.89998 65.69 9.42998 65.85 10.03 65.85H10.18C18.22 65.85 26.26 65.85 34.3 65.85C34.65 65.85 35.03 65.83 35.39 65.72C35.77 65.6 36.06 65.39 36.26 65.1C36.46 64.81 36.54 64.47 36.54 64.1V64.09Z" fill="black"/>
<path d="M27.07 45.92H20.62H20.43C16.92 45.92 13.41 45.92 9.89997 45.92C9.33997 45.92 8.84997 46.09 8.48997 46.4C8.12997 46.71 7.91997 47.15 7.90997 47.66C7.90997 48.17 8.09997 48.62 8.45997 48.94C8.80997 49.26 9.29997 49.44 9.84997 49.45H30.49C30.64 49.45 30.84 49.45 31.02 49.45C32.04 49.38 32.82 48.65 32.8 47.67C32.79 46.69 32 45.99 30.98 45.93C30.8 45.93 30.61 45.93 30.46 45.93H27.07V45.92Z" fill="black"/>
<path d="M42.31 64.12C42.33 63.2 41.53 62.36 40.61 62.33C40.13 62.31 39.67 62.52 39.34 62.84C39.01 63.16 38.79 63.61 38.79 64.09C38.79 64.56 39.01 64.99 39.32 65.3C39.63 65.61 40.06 65.83 40.53 65.83C41.44 65.83 42.27 65.03 42.3 64.11L42.31 64.12Z" fill="black"/>
<path d="M52.96 22.55C54.72 22.88 55.81 24.49 55.43 26.1L55.62 26.15L55.72 26.17L55.43 26.1C55.15 27.26 54.43 27.99 53.28 28.35L53.35 28.58V28.56L53.28 28.35C52.41 28.62 51.77 28.99 51.36 29.55C50.95 30.11 50.79 30.83 50.79 31.74V31.76V31.78V31.8V31.82V31.84V31.86V31.88V31.9V31.92V31.94V31.96V31.98V32V32.02V32.04V32.06V32.08V32.1V32.12V32.14V32.16V32.18V32.2V32.22V32.24V32.26V32.28V32.3V32.32V32.34V32.36V32.38V32.4V32.42V32.44V32.46V32.48V32.5V32.52V32.54V32.56V32.58V32.6V32.62V32.64V32.66V32.68V32.7V32.72V32.74V32.76V32.78V32.8V32.82V32.84V32.85V33.15C50.79 33.7 50.79 34.28 50.79 34.84C50.79 35.4 50.96 35.89 51.26 36.25C51.56 36.61 52 36.83 52.5 36.84C53.53 36.87 54.27 36.01 54.31 34.9C54.34 34.07 54.35 33.23 54.31 32.38L54.01 32.4L54.3 32.38C54.28 32.13 54.32 32.01 54.37 31.94C54.42 31.87 54.53 31.79 54.77 31.7C57.11 30.91 58.87 28.57 59 26.16C59.28 20.95 54.11 17.52 49.47 19.93L49.61 20.2L49.48 19.93C47.23 21.1 46.13 23.1 46.07 25.61H46.37H46.31H46.07C46.05 26.55 46.74 27.27 47.62 27.35C48.09 27.39 48.52 27.29 48.85 27.03C49.19 26.78 49.41 26.39 49.51 25.93C49.56 25.68 49.6 25.43 49.64 25.19C49.85 23.6 51.44 22.42 52.97 22.7L52.96 22.55Z" fill="black"/>
<path d="M52.49 38.94C51.55 38.96 50.78 39.77 50.79 40.71C50.79 41.67 51.56 42.43 52.53 42.43H52.83V42.4C53.63 42.26 54.29 41.56 54.3 40.72C54.3 40.24 54.08 39.79 53.76 39.47C53.43 39.15 52.98 38.93 52.49 38.94Z" fill="black"/>
</svg>
