<svg width="89" height="87" viewBox="0 0 89 87" fill="none" xmlns="http://www.w3.org/2000/svg">
<path d="M43.8 87C67.8244 87 87.3 67.5244 87.3 43.5C87.3 19.4756 67.8244 0 43.8 0C19.7756 0 0.299988 19.4756 0.299988 43.5C0.299988 67.5244 19.7756 87 43.8 87Z" fill="#D2DF3F"/>
<path d="M41.7489 64.0345L41.6821 64.3574L41.7489 64.0345Z" fill="black"/>
<path d="M66.5322 48.1024C66.1648 48.0022 65.7862 48.0356 65.4745 48.2137C65.1628 48.3919 64.929 48.6814 64.7954 49.0599C64.7397 49.2158 64.7063 49.3828 64.6729 49.5164C62.1344 59.7036 51.9584 66.1499 41.7489 64.0345C31.918 62.0082 25.249 53.1125 26.0951 43.0589C26.5627 37.5812 29.0121 33.0944 33.2095 29.565C35.5587 27.5833 38.2752 26.3029 41.259 25.5681C41.6932 25.4568 42.0495 25.2341 42.2611 24.9001C42.4726 24.5661 42.5171 24.1653 42.4058 23.7533C42.1831 22.9628 41.4038 22.64 40.591 22.8181C30.1923 25.1896 23.2227 34.4749 23.0557 44.3727H23L23.0445 44.7401C23.2115 46.1986 23.3006 47.735 23.5901 49.2158L23.8796 49.1601H23.913L23.5901 49.2158C25.9059 60.906 37.0728 68.7663 48.8967 66.996C55.9665 65.9384 61.3328 62.242 65.0181 56.1297C66.2093 54.1591 67.0332 52.0214 67.5008 49.7613C67.6678 48.982 67.2559 48.2805 66.5322 48.0913V48.1024Z" fill="black"/>
<path d="M42.9736 26.7817C34.167 28.0175 27.4646 35.7553 27.3866 44.7067V44.7623L27.7207 44.7178L27.3978 44.7623C27.5425 45.9314 27.6427 47.1561 27.8654 48.3473C29.5911 57.5882 38.6426 64.1347 47.9392 62.7876C54.6082 61.8189 59.4067 58.1783 62.2569 52.0548C63.0251 50.4182 63.4259 48.6813 63.6709 46.9222C63.7822 46.0761 63.2812 45.3079 62.4573 45.1965C61.6446 45.0852 61.0211 45.6642 60.8764 46.4769C60.843 46.6328 60.8096 46.8109 60.7873 46.9891L61.1102 47.0336H61.0879L60.7761 46.9891C59.4847 55.6064 51.3683 61.4404 42.8734 59.8594C35.0688 58.4121 29.6467 51.3311 30.4038 43.3706C30.9605 37.4699 34.089 33.2948 39.3997 30.7341C40.8248 30.0438 42.3724 29.6875 43.9645 29.4871C44.7884 29.3869 45.4007 28.7189 45.3005 27.9284C45.2003 27.1268 44.51 26.6369 43.6862 26.6814C43.4412 26.6926 43.1629 26.7594 42.9736 26.7817Z" fill="black"/>
<path d="M45.3117 27.9284L44.9888 27.9729L45.3117 27.9284Z" fill="black"/>
<path d="M65.2741 17.2736L65.3298 17.5965V17.5631L65.2741 17.2736C64.0383 17.4851 62.8804 17.9527 61.934 18.81C59.4847 20.9922 57.8035 23.642 57.3693 27.0043C57.1355 28.808 57.6142 30.3889 58.6051 31.4911C59.6071 32.5934 61.1102 33.1723 62.8693 33.0164C65.1962 32.816 67.345 32.0478 69.2154 30.6116C70.7852 29.398 72.3662 28.0175 72.8561 25.8687C73.0676 24.9558 73.4907 24.2432 74.0808 23.5418C74.2812 23.308 74.4593 23.063 74.6374 22.8404C74.8156 22.6066 74.9937 22.3839 75.183 22.1724C75.8287 21.4598 76.2629 20.6916 76.3854 19.8566C76.4967 19.1106 76.3409 18.3424 75.9178 17.5631C77.9107 16.4163 79.0909 14.6906 79.4805 12.3971C79.7811 10.6046 81.0615 9.40218 82.8874 9.10157C85.8267 8.62283 87.9866 6.52972 88.5544 3.61273C88.6434 3.17852 88.5878 2.75545 88.3985 2.42144C88.2092 2.0763 87.8864 1.83136 87.4744 1.75343C87.0625 1.66436 86.6839 1.75343 86.3722 2.0095C86.0716 2.25444 85.8712 2.62184 85.7821 3.06718C85.4259 4.81515 84.2012 6.01758 82.4421 6.30705C79.3135 6.83033 77.2093 8.90117 76.6526 12.0408C76.3965 13.4659 75.684 14.4902 74.4147 15.1582L74.5484 15.4032L74.5706 15.4477L74.4147 15.1582C74.2032 15.2696 74.0696 15.303 73.9583 15.2918C73.8581 15.2918 73.7245 15.225 73.5352 15.0358C72.8561 14.3343 72.0322 13.9558 71.186 13.9113C70.3287 13.8667 69.4715 14.1562 68.7033 14.7574L68.8814 14.9912L68.9037 15.0246L68.7033 14.7685C67.7235 15.5368 66.8105 16.2938 65.8308 17.0509C65.6638 17.1845 65.4411 17.2847 65.2519 17.3181L65.2741 17.2736ZM71.0747 16.8171C71.2639 16.8394 71.4198 16.9062 71.4866 16.9619C72.1658 17.5074 72.7559 18.1643 73.3905 18.8323C73.5352 18.977 73.602 19.1329 73.6132 19.2665C73.6243 19.4001 73.5909 19.5448 73.4907 19.6896C73.0676 20.2908 72.6 20.8475 72.1324 21.4264C71.6425 20.8363 71.1638 20.2463 70.6405 19.723C70.1172 19.1886 69.516 18.7098 68.9148 18.1977C69.516 17.7078 70.0838 17.2179 70.7184 16.8283C70.7518 16.806 70.8743 16.7837 71.0747 16.806V16.8171ZM60.1416 27.4051C60.3754 25.5236 61.2104 23.5975 62.7468 22.0165C63.3703 21.3707 64.1274 20.8252 64.9067 20.3131C65.4411 19.9568 66.0646 19.9568 66.6881 20.2574C67.4452 20.6248 68.1132 21.0924 68.6699 21.6602C68.7478 21.7382 68.8146 21.8272 68.8814 21.9163C69.0818 22.1278 69.2711 22.3394 69.4492 22.5843C69.683 22.9183 69.8945 23.2746 70.0838 23.6531C70.4289 24.3545 70.3622 25.0448 69.9502 25.6794C68.2245 28.3515 65.8419 29.9547 62.6577 30.1997C61.767 30.2665 61.1658 30.0661 60.7761 29.643C60.6759 29.5316 60.5869 29.4092 60.5089 29.2644C60.2751 28.8302 60.1416 28.229 60.1416 27.4163V27.4051Z" fill="black"/>
<path d="M73.5575 15.0135L73.3237 15.2473L73.5575 15.0135Z" fill="black"/>
<path d="M69.4715 37.6035H69.4826L69.2599 37.3585L69.4715 37.6035Z" fill="black"/>
<path d="M87.4856 22.2837L87.4188 22.5843V22.6066L87.4856 22.2837C87.0959 22.1946 86.7062 22.2837 86.4056 22.5286C86.105 22.7624 85.9046 23.1187 85.8044 23.5418C85.6485 24.1987 85.3702 24.6997 84.9805 25.0671C84.5908 25.4345 84.0787 25.6794 83.3995 25.8019C80.9724 26.225 79.2579 27.9729 78.8237 30.4335L79.102 30.478H79.1465L78.8237 30.4335C78.6678 31.313 78.2447 31.981 77.4876 32.4486C77.3206 32.5488 77.2427 32.5711 77.187 32.5711C77.1425 32.5711 77.0534 32.5488 76.9087 32.4041C75.7397 31.3241 74.1587 31.313 72.9006 32.2705L73.0899 32.5154L72.8895 32.2705C72.6111 32.4932 72.3328 32.727 72.0767 32.9385C71.8095 33.1612 71.5534 33.3727 71.2751 33.5509C71.0636 33.6956 70.8409 33.8069 70.5959 33.9294C70.351 34.0407 70.0838 34.1632 69.8389 34.2968L69.9948 34.5863L69.9391 34.4861L69.8389 34.2968C69.4381 34.5083 69.0595 34.6753 68.6253 34.898C68.2134 35.1096 67.8014 35.3434 67.434 35.6551C65.5859 37.2583 64.4168 39.3292 64.0828 41.7786C63.9158 42.981 64.1496 44.2836 64.8844 45.2745C65.6304 46.2765 66.8551 46.9223 68.5808 46.8443V46.5771L68.5696 46.5103V46.8443C70.0059 46.7775 71.353 46.3656 72.5666 45.6308C74.2366 44.6287 75.9066 43.404 76.5079 41.2998C76.7528 40.4425 77.1759 39.7522 77.7437 39.0954C77.855 38.9618 77.9664 38.817 78.0666 38.6946C78.1668 38.561 78.267 38.4385 78.3783 38.316C78.8459 37.7816 79.1465 37.2027 79.2578 36.5569C79.3469 36.0002 79.2579 35.4102 79.0352 34.8089C80.4492 33.8626 81.3287 32.5822 81.6293 30.9011C81.7518 30.2108 82.0079 29.7098 82.3753 29.3424C82.7427 28.975 83.2548 28.7189 83.934 28.5853C86.3945 28.1065 88.0645 26.5144 88.5655 24.1541L88.2426 24.0873H88.276L88.5655 24.143C88.6546 23.7088 88.61 23.2968 88.4208 22.9517C88.2315 22.6066 87.8975 22.3728 87.4967 22.2726L87.4856 22.2837ZM69.4826 37.6035C70.017 37.1359 70.4735 36.9466 70.9077 36.9466C71.3419 36.9466 71.7873 37.147 72.3217 37.6035C72.8115 38.0377 73.2458 38.561 73.68 39.0954L73.936 38.895L73.8581 38.9506L73.6688 39.0954C74.0362 39.563 74.0919 40.0863 73.8136 40.565C72.6334 42.6247 70.7852 43.6601 68.6587 44.0164C67.9573 44.0053 67.4786 43.7937 67.2002 43.4931C66.9219 43.1925 66.7994 42.736 66.8996 42.1348C67.2002 40.3089 68.0909 38.8059 69.4826 37.5923L69.2711 37.3474L69.4937 37.5923L69.4826 37.6035ZM76.3297 36.3008C76.2295 36.479 76.1071 36.6571 75.9512 36.8352C75.8844 36.9132 75.8065 37.0134 75.7174 37.1025C75.4056 36.7462 75.105 36.3899 74.7822 36.067C74.4816 35.7553 74.1364 35.4658 73.8024 35.1764C73.9026 35.0873 74.0028 35.0093 74.0919 34.9314C74.2812 34.7755 74.4593 34.6419 74.6486 34.5306C74.6708 34.5195 74.7488 34.4972 74.8601 34.4972C74.9158 34.4972 74.9603 34.4972 74.9937 34.5195C75.0382 34.5306 75.0494 34.5417 75.0494 34.5417C75.517 34.9203 75.9623 35.3545 76.3297 35.8221C76.3297 35.8221 76.3297 35.8332 76.352 35.8778C76.352 35.9223 76.3743 35.9668 76.3743 36.0225C76.3743 36.145 76.352 36.2452 76.3297 36.2897V36.3008Z" fill="black"/>
<path d="M72.5221 37.3585L72.3105 37.6035L72.5221 37.3585Z" fill="black"/>
<path d="M47.5606 26.2361C48.6963 26.2806 49.8987 26.0246 50.9452 25.6238C53.2388 24.7331 55.2317 23.2969 56.0889 20.7807C56.3784 19.9234 56.757 19.2108 57.3248 18.5651C57.4027 18.4649 57.4806 18.3647 57.5586 18.2756C57.6254 18.1866 57.6922 18.1086 57.759 18.0307C58.2711 17.474 58.6608 16.8617 58.8278 16.2048C58.9837 15.5924 58.928 14.9467 58.6497 14.2787C58.7387 14.2119 58.8278 14.1562 58.928 14.0783C60.0636 13.2433 60.843 12.141 61.1324 10.7382C61.3328 9.76958 61.5778 9.17951 61.9675 8.78983C62.3571 8.40016 62.9249 8.14409 63.8824 7.95482L63.8156 7.63194V7.66534L63.8824 7.95482C65.6749 7.58741 66.9442 6.50745 67.7235 4.89309C67.9128 4.51455 67.9573 4.11374 67.846 3.75747C67.7458 3.40119 67.5008 3.11172 67.1557 2.92245C66.7883 2.73318 66.4097 2.68864 66.0423 2.83338C65.6861 2.96698 65.3966 3.25646 65.1962 3.64613L65.4857 3.79087L65.43 3.75747L65.1962 3.635C64.7174 4.57022 63.9715 5.06009 62.9138 5.27163C62.179 5.4275 61.4219 5.71697 60.7762 6.12891C59.4735 6.96393 58.6608 8.19975 58.4381 9.75845C58.3045 10.6937 57.8703 11.3951 57.0687 11.885C56.9128 11.9852 56.8238 12.0074 56.7681 12.0074C56.7236 12.0074 56.6345 11.9852 56.4898 11.8516C55.3207 10.7605 53.7509 10.7605 52.4928 11.7291L52.6932 11.9963L52.4928 11.7402C51.9918 12.1299 51.4796 12.5196 51.0009 12.9426C50.5222 13.3546 50.01 13.6329 49.3866 13.7888C48.7742 13.9447 48.1396 14.223 47.6274 14.6238C45.3785 16.4052 43.9422 18.721 43.6973 21.6491L43.9756 21.6714H44.0202L43.6862 21.6491C43.586 22.9294 43.8977 24.0539 44.5768 24.889C45.256 25.7128 46.2914 26.2027 47.5495 26.2472L47.5606 26.2361ZM55.6102 16.1825C55.51 16.305 55.4098 16.4275 55.3096 16.5499C55.0201 16.2159 54.7306 15.8819 54.4189 15.5702C54.096 15.2473 53.7398 14.9467 53.3946 14.6461C53.6841 14.39 53.929 14.1896 54.1072 14.056C54.3521 13.8779 54.4412 13.8667 54.4746 13.8667C54.508 13.8667 54.5748 13.889 54.7752 14.0783C54.8643 14.1673 54.9756 14.2787 55.0981 14.4123C55.2317 14.5459 55.3764 14.7017 55.5657 14.8799C55.7772 15.0914 55.9108 15.225 55.9999 15.3364C56.089 15.4477 56.0889 15.4811 56.0889 15.4922C56.0889 15.4922 56.0889 15.5368 56.011 15.6704C55.9442 15.7817 55.8329 15.9264 55.677 16.1157C55.6547 16.1491 55.6436 16.1602 55.6213 16.1936L55.6102 16.1825ZM51.3795 16.6835C52.0475 17.2625 52.6821 17.8971 53.261 18.5651C53.6507 19.0216 53.6618 19.556 53.3612 20.1572C53.0272 20.8029 52.4483 21.4375 51.7357 21.9831C51.5242 22.1501 51.2904 22.306 51.0566 22.4507C50.3218 22.896 49.5201 23.2189 48.7742 23.3637C48.7519 23.3637 48.7185 23.3748 48.6963 23.3859C48.6406 23.3859 48.5849 23.3859 48.5292 23.3971C48.3288 23.4193 48.1396 23.4527 47.9503 23.4527C47.8056 23.4527 47.672 23.4527 47.5495 23.4305C47.1932 23.3859 46.9483 23.2635 46.7924 23.1076C46.592 22.9072 46.4696 22.562 46.503 21.9831C46.67 19.6339 47.839 17.8637 49.8207 16.6056C49.9098 16.5499 49.9989 16.5165 50.088 16.4831C50.5333 16.3161 50.9898 16.3718 51.3683 16.7058L51.3795 16.6835Z" fill="black"/>
<path d="M50.9564 25.6238L50.8339 25.312L50.9564 25.6238Z" fill="black"/>
<path d="M57.7701 18.0307L57.5251 17.808L57.7701 18.0307Z" fill="black"/>
<path d="M52.9715 44.7401C52.9715 40.6429 49.6649 37.3697 45.59 37.4031C41.6376 37.4365 38.4534 40.5427 38.3086 44.4395H38.2864V44.7735C38.3086 48.8483 41.6598 52.1773 45.6902 52.1216C49.7651 52.0659 52.9827 48.8038 52.9715 44.7401ZM45.6122 49.2714C43.1072 49.2492 41.1477 47.2785 41.1366 44.7735C41.1254 42.2461 43.1072 40.2532 45.6345 40.2421C48.1618 40.2421 50.1436 42.235 50.1436 44.7623C50.1436 46.9779 48.596 48.7815 46.5252 49.1824C46.2357 49.238 45.924 49.2714 45.6122 49.2714Z" fill="black"/>
<path d="M39.7671 36.5681C40.0566 36.8575 40.4129 37.0023 40.8026 36.98C41.1811 36.9577 41.5485 36.7796 41.8602 36.479C42.5282 35.8332 43.1963 35.1764 43.8309 34.4972C43.9645 34.3525 44.0647 34.1855 44.1537 34.0185C44.2205 33.896 44.2873 33.7735 44.3541 33.6399H44.922L44.3987 33.0832C44.3319 33.0164 44.2651 32.9385 44.1983 32.8494C44.1315 32.7715 44.0647 32.6713 43.9867 32.5822C43.8531 32.4152 43.6527 32.2148 43.3967 32.1369C43.1629 32.059 42.8845 32.0701 42.6507 32.1146C42.4058 32.1592 42.1497 32.2594 41.9604 32.4152C41.2033 33.0498 40.5242 33.7847 39.8562 34.4749C39.5556 34.7867 39.3663 35.1541 39.344 35.5326C39.3218 35.9112 39.4665 36.2786 39.756 36.5681H39.7671Z" fill="black"/>
<path d="M52.6264 55.4283C52.7823 55.3726 52.9047 55.3392 53.0495 55.2947C53.1719 55.2613 53.3389 55.2056 53.4614 55.072C54.2853 54.2704 55.1314 53.4576 55.9219 52.5892C56.4563 51.9992 56.2448 51.2087 55.7438 50.7633C55.4877 50.5407 55.1871 50.3848 54.8642 50.3625C54.5302 50.3403 54.2073 50.4627 53.9401 50.7077C53.1163 51.4647 52.3035 52.2552 51.5687 53.1125C51.4017 53.3129 51.3349 53.5913 51.3238 53.8251C51.3126 54.07 51.3349 54.3372 51.4239 54.5487L51.7246 54.4263H51.7023L51.4239 54.5487C51.5242 54.7937 51.7246 54.9607 51.8916 55.072C51.9695 55.1277 52.0586 55.1833 52.1365 55.239C52.1588 55.2613 52.181 55.2724 52.2033 55.2836V55.5842L52.6486 55.4172L52.6264 55.4283Z" fill="black"/>
<path d="M44.0758 56.8422C44.1315 56.7643 44.1871 56.6752 44.2317 56.6084C44.2762 56.5305 44.3207 56.4748 44.3541 56.4303L44.5323 56.1965L44.3876 56.0518C44.3542 55.9404 44.3319 55.8514 44.2985 55.74C44.2651 55.6287 44.2205 55.4728 44.0981 55.3392C43.2742 54.4819 42.4392 53.5913 41.5373 52.7896C41.259 52.5447 40.925 52.4556 40.6021 52.5113C40.2904 52.567 40.0009 52.7451 39.7782 52.9789C39.5556 53.2127 39.3886 53.5022 39.3552 53.8251C39.3218 54.1479 39.4109 54.4708 39.6558 54.7491L39.9007 54.5265H39.8896L39.6558 54.7491C40.4351 55.6176 41.2479 56.4526 42.1386 57.2208C42.339 57.3989 42.6396 57.4435 42.8622 57.4435C43.1072 57.4435 43.3633 57.3989 43.5748 57.3099C43.8086 57.2097 43.9644 57.0093 44.0758 56.8534V56.8422Z" fill="black"/>
<path d="M37.9524 47.5569L38.2419 47.0559H37.8188C37.7186 46.9445 37.6295 46.8221 37.5182 46.6884C37.3846 46.5214 37.2176 46.3544 37.0172 46.2208C36.7277 46.0316 36.416 45.9982 36.1265 46.065C35.8482 46.1318 35.6032 46.2988 35.4028 46.488C34.7014 47.1672 34.0222 47.8463 33.3431 48.5477C32.7419 49.1712 32.6974 50.073 33.3097 50.6409L33.5212 50.4071L33.2986 50.6409C33.588 50.9081 33.9332 51.0417 34.3117 51.0194C34.6791 50.9971 35.0354 50.819 35.336 50.5295C36.0152 49.8726 36.6943 49.2046 37.3512 48.5032C37.4848 48.3585 37.585 48.2026 37.6629 48.0467C37.752 47.8797 37.8299 47.7239 37.9413 47.5346L37.9524 47.5569Z" fill="black"/>
<path d="M59.0505 44.1055L58.8167 43.8828L59.0616 44.1055C59.1952 43.9719 59.262 43.8049 59.3288 43.649C59.3956 43.4931 59.4401 43.3484 59.5292 43.1703L59.6183 42.981L59.4847 42.814C59.3622 42.6692 59.2843 42.5468 59.1507 42.3686C59.0282 42.2128 58.8835 42.0346 58.6831 41.9122C58.1152 41.5448 57.4917 41.7118 57.0575 42.1348C56.3339 42.8474 55.6102 43.5599 54.9088 44.2836C54.6304 44.5731 54.4746 44.9294 54.4746 45.2856C54.4746 45.653 54.6082 45.987 54.8754 46.2654C55.1426 46.5437 55.4877 46.6996 55.844 46.7107C56.2114 46.7107 56.5677 46.5771 56.8571 46.2988C57.6142 45.5862 58.3379 44.8403 59.0505 44.0943V44.1055Z" fill="black"/>
<path d="M51.5465 36.401C52.3147 37.2472 53.1163 38.0711 53.9847 38.8282C54.1851 38.9952 54.4746 39.0508 54.6972 39.062C54.9422 39.062 55.2094 39.0397 55.4209 38.9395C55.6658 38.8282 55.8217 38.6278 55.9331 38.4608C55.9887 38.3717 56.0444 38.2826 56.1001 38.2158C56.1557 38.1379 56.1891 38.0711 56.2337 38.0154L56.0444 37.8707L56.3005 37.815V36.8575L56.0667 37.1581C56.0221 37.0691 55.9776 36.98 55.8997 36.9021C55.1203 36.0893 54.3298 35.2543 53.4837 34.4861C53.2053 34.23 52.8825 34.1187 52.5373 34.1521C52.2144 34.1855 51.9138 34.3525 51.6689 34.5974C51.424 34.8423 51.2458 35.143 51.2124 35.4658C51.179 35.7998 51.2792 36.1338 51.5353 36.4122L51.5465 36.401Z" fill="black"/>
<path d="M33.2206 39.6854C33.9777 40.4982 34.7682 41.3221 35.6254 42.0569C35.8258 42.2239 36.1153 42.2796 36.3491 42.2907C36.5941 42.2907 36.8613 42.2684 37.0728 42.1682C37.3178 42.0569 37.4736 41.8565 37.585 41.6895C37.6406 41.6004 37.6963 41.5114 37.7408 41.4445C37.7854 41.3666 37.8299 41.2998 37.8744 41.2553L37.9858 41.1105L37.9189 40.9324C37.8633 40.7877 37.8299 40.6763 37.7853 40.5539C37.7519 40.4425 37.6963 40.2978 37.5738 40.1753C36.7611 39.3403 35.9372 38.4608 35.0465 37.6814C34.7682 37.4365 34.4453 37.3585 34.1224 37.4142C33.8107 37.4587 33.5212 37.6369 33.2874 37.8595C32.7975 38.3383 32.7085 39.151 33.2095 39.6966L33.2206 39.6854Z" fill="black"/>
</svg>
