<svg width="87" height="87" viewBox="0 0 87 87" fill="none" xmlns="http://www.w3.org/2000/svg">
<path d="M43.5 87C67.5244 87 87 67.5244 87 43.5C87 19.4756 67.5244 0 43.5 0C19.4756 0 0 19.4756 0 43.5C0 67.5244 19.4756 87 43.5 87Z" fill="#D2DF3F"/>
<path d="M22.3 30.23H42.7V26.68H22.3V30.23ZM18.58 30.27H16.05C13.86 30.27 12.64 31.48 12.64 33.66C12.63 48.49 12.61 63.32 12.6 78.15C12.6 80.09 13.87 81.36 15.81 81.36H49.07C49.33 81.36 49.6 81.36 49.85 81.3C51.41 80.98 52.32 79.79 52.32 78.05C52.33 73.83 52.34 69.61 52.34 65.4C52.34 54.75 52.35 44.09 52.36 33.44C52.36 31.81 51.38 30.52 49.82 30.33C48.7 30.2 47.55 30.3 46.38 30.3C46.38 30.53 46.36 30.73 46.35 30.93C46.29 32.62 45.02 33.9 43.34 33.9C36.11 33.9 28.88 33.9 21.65 33.9C20.32 33.9 19.11 33 18.78 31.73C18.66 31.29 18.65 30.82 18.57 30.27H18.58ZM18.58 26.63C18.64 26.16 18.65 25.76 18.73 25.37C19.01 24.02 20.19 23.01 21.55 23C28.84 22.99 36.13 22.99 43.42 23C45.01 23 46.28 24.29 46.35 25.87C46.35 26.09 46.35 26.31 46.35 26.63C46.74 26.63 47.09 26.62 47.44 26.63C48.58 26.68 49.75 26.59 50.85 26.83C53.92 27.49 55.97 30.17 55.97 33.35C55.97 44.57 55.97 55.78 55.95 67C55.95 70.67 55.95 74.34 55.93 78.02C55.92 80.87 54.72 83.06 52.13 84.31C51.29 84.71 50.29 84.96 49.36 84.96C38.07 85 26.79 85 15.5 84.98C11.93 84.98 8.96002 82.01 8.96002 78.43C8.96002 63.46 8.96002 48.49 8.99002 33.52C8.99002 29.45 11.88 26.63 15.93 26.62H18.55L18.58 26.63Z" fill="black"/>
<path d="M39.55 67.8H45.81C47 67.8 47.79 68.52 47.81 69.59C47.82 70.69 47.02 71.43 45.8 71.43H33.33C32.13 71.43 31.29 70.68 31.29 69.61C31.29 68.54 32.13 67.8 33.34 67.8H39.55Z" fill="black"/>
<path d="M39.57 43.59H45.78C46.93 43.59 47.77 44.35 47.78 45.39C47.78 46.43 46.94 47.22 45.8 47.22C41.62 47.22 37.44 47.22 33.27 47.22C32.12 47.22 31.29 46.43 31.3 45.39C31.31 44.35 32.14 43.59 33.3 43.59C35.39 43.59 37.48 43.59 39.57 43.59Z" fill="black"/>
<path d="M39.49 55.69H45.76C46.95 55.69 47.81 56.48 47.78 57.54C47.76 58.58 46.92 59.33 45.76 59.33H33.29C32.14 59.33 31.3 58.56 31.3 57.51C31.3 56.46 32.13 55.7 33.28 55.69C35.35 55.69 37.42 55.69 39.49 55.69Z" fill="black"/>
<path d="M21.18 57.75C22.6 56.32 23.91 54.99 25.24 53.68C25.5 53.42 25.83 53.18 26.17 53.05C26.94 52.78 27.79 53.12 28.21 53.79C28.65 54.49 28.62 55.36 28.03 55.97C26.19 57.86 24.33 59.72 22.45 61.57C21.76 62.25 20.77 62.25 20.05 61.59C19.21 60.82 18.39 60 17.62 59.16C16.95 58.42 17.03 57.31 17.72 56.65C18.39 56.01 19.46 55.97 20.18 56.62C20.53 56.94 20.82 57.34 21.17 57.74L21.18 57.75Z" fill="black"/>
<path d="M21.22 69.85C22.68 68.38 24.03 67 25.39 65.64C25.92 65.11 26.56 64.95 27.27 65.17C27.93 65.38 28.33 65.87 28.48 66.55C28.61 67.17 28.42 67.72 27.99 68.16C26.18 69.99 24.37 71.82 22.54 73.63C21.8 74.36 20.81 74.39 20.05 73.69C19.22 72.93 18.43 72.13 17.67 71.3C16.99 70.56 17.05 69.47 17.73 68.79C18.41 68.12 19.49 68.09 20.23 68.76C20.57 69.07 20.86 69.44 21.23 69.85H21.22Z" fill="black"/>
<path d="M21.22 44.81C21.71 44.26 22.06 43.85 22.43 43.46C23.43 42.44 24.43 41.42 25.45 40.43C26.16 39.75 27.27 39.77 27.95 40.43C28.65 41.11 28.72 42.22 28.02 42.93C26.18 44.82 24.32 46.68 22.45 48.53C21.74 49.23 20.74 49.21 20.01 48.53C19.21 47.77 18.43 46.99 17.67 46.18C16.99 45.46 17.02 44.36 17.69 43.67C18.36 42.97 19.44 42.93 20.18 43.6C20.53 43.92 20.81 44.33 21.21 44.81H21.22Z" fill="black"/>
</svg>
