<svg width="87" height="89" viewBox="0 0 87 89" fill="none" xmlns="http://www.w3.org/2000/svg">
<path d="M43.5 87C67.5244 87 87 67.5244 87 43.5C87 19.4756 67.5244 0 43.5 0C19.4756 0 0 19.4756 0 43.5C0 67.5244 19.4756 87 43.5 87Z" fill="#D2DF3F"/>
<path d="M62.87 22.57C62.56 22.52 62.41 22.45 62.32 22.36C62.23 22.27 62.16 22.12 62.11 21.81C61.3 16.31 57.12 12.72 51.58 12.71C49.37 12.71 47.15 12.7 44.93 12.71V13.01V12.97V12.71C38.92 12.75 34.24 18.2 35.04 24.2C35.17 25.17 35.28 26.14 35.38 27.11C35.5 28.28 35.19 29.33 34.51 30.3C34.25 30.66 34 31.03 33.76 31.41C33.35 32.08 33.24 32.81 33.44 33.46C33.64 34.11 34.14 34.64 34.89 34.91C35.21 35.03 35.37 35.17 35.47 35.33C35.58 35.5 35.63 35.73 35.68 36.06C36.01 38.63 37.17 40.79 39.04 42.55C40.45 43.88 42.14 44.14 43.94 43.7C44.01 43.68 44.09 43.67 44.16 43.65C43.04 45.24 41.75 46.52 40.28 47.63C39.72 48.05 39.14 48.45 38.56 48.85C37.98 49.26 37.4 49.67 36.84 50.14C33.92 52.58 32.16 55.72 31.56 59.49L31.86 59.54H31.8L31.56 59.49C31.53 59.7 31.48 59.84 31.41 59.95C31.34 60.05 31.23 60.15 31.03 60.24C29.2 61.04 28.08 62.97 28.29 64.93C28.31 65.12 28.29 65.19 28.26 65.22C28.23 65.27 28.17 65.32 28 65.41C24.27 67.47 21.81 70.58 21.01 74.82C20.09 79.67 21.19 84.04 24.65 87.69C24.85 87.9 25.09 88.1 25.37 88.21C25.66 88.33 25.98 88.35 26.32 88.24C26.89 88.06 27.25 87.64 27.33 87.13C27.41 86.62 27.21 86.08 26.77 85.63L26.57 85.83L26.78 85.63C25.44 84.29 24.58 82.68 24.08 80.84C22.69 75.81 24.69 70.78 29.08 68.22C29.21 68.14 29.35 68.07 29.5 68C30.29 69.3 31.4 70.23 32.98 70.43C34.98 70.68 36.66 69.99 37.83 68.32C38.95 66.72 38.92 64.62 37.87 63.01C37.33 62.19 36.89 61.62 36.35 61.15C35.85 60.72 35.27 60.38 34.49 60.01C34.84 57.63 35.84 55.54 37.43 53.72C37.72 53.38 38.05 53.07 38.39 52.75C39.18 51.99 39.93 51.53 41.11 51.62C43.16 51.78 45.18 51.31 47.1 50.66C47.2 50.63 47.29 50.6 47.39 50.56V50.58V50.6V50.62V50.64V50.66V50.68V50.7V50.72V50.74V50.76V50.78V50.8V50.82V50.84V50.86V50.88V50.9V50.92V50.94V50.96V50.98V51V51.02V51.04V51.06V51.08V51.1V51.12V51.14V51.16V51.18V51.2V51.22V51.24V51.26V51.28V51.3V51.32V51.34V51.36C47.39 56.2 47.38 61.02 47.39 65.85C47.4 68.74 46.51 71.27 44.7 73.51C41.41 77.57 38.15 81.66 34.88 85.74C34.79 85.85 34.69 85.98 34.6 86.11C34.37 86.46 34.27 86.83 34.31 87.2C34.35 87.57 34.55 87.89 34.86 88.15L35.05 87.92L35.03 87.94L34.86 88.15C35.17 88.4 35.53 88.53 35.9 88.49C36.27 88.45 36.62 88.26 36.9 87.92C37.97 86.64 39 85.33 40.03 84.04C42.46 81.01 44.91 77.99 47.31 74.94C49.32 72.39 50.31 69.44 50.32 66.19C50.32 63.69 50.32 61.19 50.32 58.69C50.32 56.19 50.32 53.69 50.32 51.19C50.32 49.75 51.19 48.53 52.46 48.08C53.76 47.63 55.19 47.99 55.97 49.11C56.37 49.68 56.68 50.44 56.69 51.09C56.76 55.24 56.82 59.37 56.69 63.5C56.52 68.68 54.66 73.24 51.18 77.07C48.55 79.96 45.83 82.75 43.14 85.6C43.04 85.71 42.89 85.85 42.78 85.99C42.26 86.63 42.25 87.48 42.83 88.05C43.11 88.33 43.47 88.48 43.84 88.48C44.21 88.48 44.58 88.32 44.88 88.03C45.63 87.29 46.35 86.51 47.07 85.75C48.09 84.68 49.1 83.6 50.12 82.53C51.14 81.46 52.15 80.38 53.17 79.31C53.18 79.3 53.19 79.29 53.2 79.28C53.4 79.99 53.59 80.7 53.81 81.38L54.09 81.29L53.8 81.38C54.58 83.85 55.96 85.96 57.61 87.89C57.9 88.22 58.25 88.43 58.63 88.48C59.01 88.53 59.39 88.41 59.71 88.15L59.58 87.99L59.71 88.14C60.04 87.87 60.23 87.51 60.26 87.11C60.28 86.71 60.14 86.31 59.84 85.95C58.39 84.23 57.14 82.42 56.56 80.27C56.2 78.96 56.02 77.59 55.81 76.21C55.8 76.15 55.81 76.05 55.85 75.93C55.89 75.82 55.94 75.7 56 75.6C58.52 71.49 59.72 67.01 59.69 62.19C59.66 58.55 59.72 54.88 59.66 51.24C59.66 50.77 59.56 50.3 59.45 49.86C59.34 49.4 59.21 48.99 59.12 48.56C59.09 48.43 59.04 48.3 59.01 48.21C58.97 48.11 58.95 48.04 58.95 47.98C58.66 44.5 58.38 41.03 58.09 37.55C59.3 38.07 60.52 38.39 61.84 38.35C65.71 38.23 69.08 34.97 69.33 31.07C69.59 27.04 66.81 23.39 62.92 22.76L62.87 22.57ZM52.07 15.36V15.66C54.99 15.69 57.56 17.46 58.63 20.21C60.49 25 58.81 29.02 55.94 32.93C55.78 32.81 55.63 32.69 55.48 32.57C56.34 30.48 56.12 28.5 54.73 27.13L54.54 27.33L54.52 27.35L54.73 27.14C54 26.42 53.2 26.02 52.35 25.95C51.57 25.88 50.79 26.1 50 26.55C48.96 25.37 48.18 24.08 47.69 22.63C47.38 21.72 47.09 21.09 46.57 20.71C46.05 20.33 45.37 20.24 44.41 20.22C42.84 20.19 41.55 19.62 40.6 18.35C40.44 18.14 40.34 17.99 40.27 17.87C40.21 17.75 40.21 17.7 40.21 17.68C40.21 17.66 40.23 17.61 40.32 17.52C40.41 17.43 40.55 17.31 40.76 17.16C42.04 16.21 43.48 15.71 45.06 15.7C47.4 15.69 49.73 15.68 52.07 15.7V15.5V15.4V15.36ZM48.66 46.62C48.56 46.67 48.46 46.73 48.36 46.78C47.93 47.01 47.49 47.22 47.05 47.4C47 47.42 46.95 47.44 46.91 47.46C45.96 47.84 44.97 48.09 43.96 48.37C43.96 48.37 43.96 48.37 43.97 48.36C45.48 46.95 46.77 45.35 47.72 43.49C47.87 43.2 48.01 42.99 48.19 42.85C48.36 42.71 48.57 42.61 48.88 42.56C49.36 42.48 49.76 42.27 50 41.94C50.13 41.78 50.21 41.59 50.25 41.4C50.29 41.2 50.29 40.99 50.25 40.78C50.16 40.34 49.91 40 49.54 39.8C49.17 39.61 48.72 39.58 48.24 39.68C46.49 40.07 44.73 40.44 42.97 40.84C42.54 40.94 42.17 40.93 41.83 40.82C41.49 40.72 41.17 40.51 40.86 40.2C39.35 38.67 38.62 36.81 38.44 34.67C38.36 33.67 37.83 32.97 36.94 32.56C36.83 32.51 36.72 32.46 36.61 32.41C36.68 32.3 36.75 32.18 36.82 32.08C37.78 30.78 38.25 29.35 38.32 27.81C38.34 27.37 38.32 26.92 38.28 26.46C38.23 25.98 38.16 25.51 38.1 25.03C38.04 24.56 37.97 24.09 37.92 23.62C37.81 22.65 37.9 21.72 38.2 20.79C38.25 20.63 38.33 20.46 38.39 20.3C39.26 21.24 40.05 21.91 40.94 22.36C41.95 22.86 43.06 23.07 44.52 23.16C44.52 23.16 44.54 23.16 44.57 23.18C44.6 23.2 44.64 23.22 44.68 23.25C44.77 23.32 44.81 23.39 44.82 23.42C45.45 25.33 46.47 27 47.76 28.49C48.28 29.09 48.83 29.47 49.46 29.58C50.09 29.68 50.74 29.5 51.43 29.11C51.75 28.93 52.02 28.9 52.24 28.97C52.45 29.03 52.67 29.2 52.83 29.53C52.99 29.85 53.06 30.16 53.04 30.47C53.02 30.78 52.91 31.08 52.71 31.38C52.12 32.28 51.26 32.71 50.18 32.85C49.74 32.91 49.38 33.09 49.13 33.38C49 33.53 48.91 33.7 48.85 33.88C48.79 34.06 48.77 34.26 48.79 34.46C48.83 34.88 49.03 35.25 49.34 35.49C49.66 35.73 50.07 35.84 50.52 35.78C50.77 35.75 51.07 35.72 51.35 35.67C51.63 35.62 51.93 35.53 52.19 35.36C52.67 35.04 53.09 34.93 53.45 34.97C53.82 35.01 54.19 35.21 54.59 35.6C54.59 35.6 54.66 35.66 54.69 35.67C54.69 35.67 54.7 35.67 54.71 35.67C54.73 35.7 54.75 35.73 54.76 35.75C54.79 35.79 54.82 35.83 54.84 35.87C54.89 35.95 54.9 35.98 54.9 36C55.09 37.57 55.27 39.15 55.41 40.73C55.55 42.19 55.66 43.67 55.78 45.21C55.68 45.17 55.59 45.14 55.5 45.11C53.53 44.46 51.7 44.74 49.95 45.84C49.88 45.88 49.81 45.92 49.74 45.96C49.37 46.19 48.99 46.41 48.61 46.62H48.66ZM63.81 34.58C62.13 35.51 59.97 35.34 58.67 34.22C60.36 31.59 62.06 28.85 62.25 25.5C64.12 25.74 65.75 27.22 66.19 29.09C66.7 31.29 65.73 33.5 63.8 34.57L63.81 34.58ZM33.24 62.73C33.47 62.76 33.74 62.87 34.02 63.07C34.3 63.27 34.58 63.53 34.83 63.82C35.33 64.42 35.66 65.1 35.66 65.6V65.62C35.66 66.44 35.17 67.1 34.37 67.36C33.71 67.58 33.1 67.51 32.64 67.18C32.49 67.07 32.35 66.94 32.24 66.78C31.9 66.3 31.61 65.78 31.37 65.25C31.08 64.61 31.16 63.99 31.6 63.42C32.02 62.88 32.58 62.64 33.24 62.72V62.73Z" fill="black"/>
</svg>
