<svg width="89" height="88" viewBox="0 0 89 88" fill="none" xmlns="http://www.w3.org/2000/svg">
<path d="M44.76 88C69.0605 88 88.76 68.3005 88.76 44C88.76 19.6995 69.0605 0 44.76 0C20.4595 0 0.76001 19.6995 0.76001 44C0.76001 68.3005 20.4595 88 44.76 88Z" fill="#D2DF3F"/>
<path fill-rule="evenodd" clip-rule="evenodd" d="M47.38 45.5099C47.35 45.4099 47.31 45.3099 47.26 45.2199L42.18 36.4399C41.89 35.9399 41.35 35.6299 40.77 35.6299C40.19 35.6299 39.65 35.9399 39.36 36.4399L34.35 45.1099C34.3 45.1799 34.24 45.2499 34.2 45.3299C33.64 46.3899 33.27 47.6199 33.27 48.9499C33.27 53.1099 36.63 56.3899 40.71 56.3899C44.79 56.3899 48.21 53.0499 48.21 48.9499C48.21 47.6999 47.88 46.5299 47.37 45.5199L47.38 45.5099ZM40.72 53.1299C38.41 53.1299 36.53 51.2799 36.53 48.9399C36.53 48.2599 36.71 47.5999 37.02 46.9799C37.05 46.9399 37.09 46.8899 37.11 46.8499L40.78 40.4999L44.26 46.5199C44.31 46.6799 44.38 46.8199 44.48 46.9599C44.8 47.5899 44.98 48.2599 44.98 48.9399C44.98 51.2299 43.09 53.1299 40.73 53.1299H40.72Z" fill="black"/>
<path fill-rule="evenodd" clip-rule="evenodd" d="M18.75 60.49V60.5L19.34 60.59L18.75 60.49Z" fill="black"/>
<path fill-rule="evenodd" clip-rule="evenodd" d="M80.39 10.95V6.55994C80.39 5.65994 79.66 4.93994 78.77 4.93994C77.88 4.93994 77.15 5.66994 77.15 6.55994V9.32993H74.52V6.55994C74.52 5.65994 73.79 4.93994 72.9 4.93994C72.01 4.93994 71.28 5.66994 71.28 6.55994V9.32993H42.22C41.32 9.32993 40.6 10.06 40.6 10.95V15.14H34.92C34.02 15.14 33.3 15.8699 33.3 16.7599V16.8699C33.3 18.3199 32.13 19.5199 30.65 19.5199H29.17C26.14 19.5199 23.31 20.7999 21.3 23.0199C19.18 25.3399 18.32 28.4599 18.78 31.5499L19.81 37.9999C20.64 43.3099 20.64 48.7299 19.81 54.0399L18.78 60.4799C18.31 63.5099 19.18 66.6199 21.28 68.9399C23.25 71.1799 26.15 72.4399 29.16 72.4399H31.87V74.0099C31.87 74.9099 32.6 75.6299 33.49 75.6299C34.38 75.6299 35.11 74.8999 35.11 74.0099V72.4399H39.16V85.42C39.16 86.32 39.89 87.0399 40.78 87.0399C41.67 87.0399 42.4 86.31 42.4 85.42V72.4399H46.45V74.0099C46.45 74.9099 47.18 75.6299 48.07 75.6299C48.96 75.6299 49.69 74.8999 49.69 74.0099V72.4399H52.29C55.32 72.4399 58.15 71.1599 60.16 68.9399C62.27 66.6199 63.15 63.4999 62.67 60.4699L61.64 54.0199C60.81 48.7099 60.81 43.2899 61.64 37.9799L62.67 31.5399C63.14 28.4999 62.26 25.3899 60.17 23.0299C58.22 20.8099 55.36 19.5399 52.38 19.5199C52.38 19.5199 52.36 19.5199 52.35 19.5199C50.9 19.5199 49.7 18.3499 49.7 16.8699V16.7599C49.7 15.8599 48.97 15.14 48.08 15.14H43.83V12.5699H71.27V85.4399C71.27 86.3399 72 87.0599 72.89 87.0599C73.78 87.0599 74.51 86.3299 74.51 85.4399V12.5699H77.14V85.4399C77.14 86.3399 77.87 87.0599 78.76 87.0599C79.65 87.0599 80.38 86.3299 80.38 85.4399V10.95H80.39ZM20.36 54.14L20.2 54.1199L20.35 54.14H20.36ZM21.37 31.1499L21.85 31.0799L21.38 31.1499H21.37ZM60.06 60.8999L59.85 60.9299L60.05 60.8999H60.06ZM59.47 31.0499L58.44 37.4899V37.5099C57.56 43.1399 57.56 48.8899 58.44 54.5299V54.5399L59.47 60.9799C59.8 63.0799 59.19 65.1999 57.76 66.7599C56.35 68.3099 54.39 69.1899 52.29 69.1899H49.69V65.5699C49.69 64.6699 48.96 63.95 48.07 63.95C47.18 63.95 46.45 64.6799 46.45 65.5699V69.1899H42.4V64.9999C42.4 64.0999 41.67 63.3799 40.78 63.3799C39.89 63.3799 39.16 64.1099 39.16 64.9999V69.1899H35.11V65.5699C35.11 64.6699 34.38 63.95 33.49 63.95C32.6 63.95 31.87 64.6799 31.87 65.5699V69.1899H29.16C27.04 69.1899 25.04 68.2899 23.71 66.7799L23.7 66.7599C22.28 65.1899 21.67 63.0699 21.99 60.9699L23.02 54.5299C23.9 48.8899 23.9 43.1299 23.02 37.4899L22.44 37.5799L23.03 37.4899L22 31.0499C21.67 28.8899 22.29 26.7599 23.71 25.2099C25.12 23.6599 27.08 22.7799 29.18 22.7799H30.66C33.43 22.7799 35.68 20.89 36.34 18.39H46.7C47.36 20.9 49.61 22.7199 52.26 22.7799C52.26 22.7799 52.26 22.7799 52.27 22.7799C52.27 22.7799 52.31 22.7799 52.33 22.7799C54.45 22.7799 56.45 23.6799 57.78 25.1899C59.22 26.8199 59.83 28.9499 59.5 31.0499H59.47Z" fill="black"/>
<path fill-rule="evenodd" clip-rule="evenodd" d="M39.31 23.92C39.77 24.15 40.24 24.26 40.78 24.26C41.68 24.26 42.4 23.53 42.4 22.64C42.4 21.75 41.74 21.09 40.9 21.03C40.81 20.22 40.13 19.59 39.29 19.59C38.39 19.59 37.67 20.32 37.67 21.21C37.67 22.27 38.24 23.38 39.31 23.92Z" fill="black"/>
</svg>
