<svg width="105" height="88" viewBox="0 0 105 88" fill="none" xmlns="http://www.w3.org/2000/svg">
<path d="M60.76 88C85.0605 88 104.76 68.3005 104.76 44C104.76 19.6995 85.0605 0 60.76 0C36.4595 0 16.76 19.6995 16.76 44C16.76 68.3005 36.4595 88 60.76 88Z" fill="#D2DF3F"/>
<path d="M0.799988 84.6799L1.16 85.1599L0.799988 84.6799Z" fill="black"/>
<path d="M36.62 27.5299C36.71 27.5799 36.82 27.6499 36.96 27.7199C37.24 27.8699 37.64 28.0499 38.15 28.2099L38.29 27.7799L38.34 27.6299L38.16 28.2C39.17 28.52 40.6 28.7699 42.37 28.5299C44.68 28.2199 46.08 27.9799 47.01 27.8199L47.37 27.7599C48.32 27.5899 49.1 27.5899 50.05 27.7599L50.41 27.8199C51.33 27.9799 52.73 28.2199 55.04 28.5299H55.05C56.81 28.7599 58.25 28.52 59.26 28.2C59.76 28.04 60.16 27.8599 60.45 27.7099C60.59 27.6399 60.71 27.5699 60.79 27.5199C61.53 27.0699 61.98 26.0399 61.36 25.1499C60.85 24.4199 59.85 24.2399 59.12 24.7399C59.12 24.7399 59.12 24.7399 59.1 24.7399C59.1 24.7399 59.03 24.7799 58.96 24.8199C58.82 24.8899 58.59 24.9999 58.28 25.0999L58.45 25.6299V25.67H58.46L58.28 25.0999C57.66 25.2999 56.71 25.4699 55.48 25.3099C53.22 25.0099 51.86 24.7799 50.97 24.6199C50.85 24.5999 50.73 24.5799 50.62 24.5599C49.3 24.3199 48.1 24.3299 46.79 24.5599C46.68 24.5799 46.56 24.5999 46.44 24.6199C45.55 24.7799 44.2 25.0099 41.93 25.3099C40.7 25.4699 39.75 25.2999 39.13 25.0999L38.98 25.5599V25.5299L39.13 25.0999C38.82 24.9999 38.59 24.8999 38.45 24.8199L38.22 25.2599L38.17 25.3499L38.45 24.8199C38.38 24.7799 38.33 24.7599 38.31 24.7399C38.31 24.7399 38.31 24.7399 38.3 24.7399C37.57 24.2499 36.58 24.4399 36.07 25.1599C35.46 26.0299 35.91 27.0899 36.64 27.5299H36.62Z" fill="black"/>
<path d="M96.27 84.6799C93.07 82.2399 89.8 81.1499 86.97 80.4599C86.08 80.2399 85.2 80.06 84.39 79.89L84.27 80.48V80.42L84.39 79.89C83.94 79.8 83.52 79.7099 83.13 79.6199C81.99 79.3699 81.1 79.1199 80.41 78.8099L80.25 79.1499L80.16 79.35L80.41 78.8099C79.15 78.2299 78.22 77.18 77.29 75.38C76.54 73.92 75.87 72.12 75.04 69.89C74.83 69.33 74.61 68.7399 74.38 68.1199C73.9 66.8199 73.48 64.5899 73.13 61.8299C72.78 59.1099 72.53 56.0199 72.33 53.0899C72.14 50.1699 72.02 47.42 71.94 45.41C71.9 44.4 71.88 43.58 71.86 43.01C71.86 42.72 71.85 42.5 71.84 42.35V42.23C75.29 38.3 77.97 33.92 80.01 29.66C82.65 24.16 84.29 18.81 85.26 14.85C85.75 12.87 86.07 11.22 86.28 10.07C86.36 9.58996 86.42 9.21996 86.47 8.91996H86.48L86.57 8.22996V8.20994V8.18995C86.67 7.26995 86.04 6.40994 85.1 6.28994C84.15 6.16994 83.31 6.85994 83.2 7.78994V7.80995V7.88995C83.18 7.95995 83.17 8.06994 83.14 8.20994C83.1 8.48994 83.03 8.91994 82.94 9.45994C82.75 10.5499 82.44 12.11 81.97 14.01C81.03 17.81 79.47 22.9099 76.96 28.1499C72.15 38.1899 64 48.43 50.37 51.23C49.01 51.51 47.98 51.5199 46.63 51.2499L46.49 51.9399V51.88L46.63 51.26C32.95 48.49 24.78 38.22 19.95 28.17C17.44 22.94 15.88 17.8399 14.94 14.0299C14.47 12.1299 14.16 10.57 13.97 9.47996L13.31 9.59995H13.28L13.97 9.47996C13.87 8.93996 13.81 8.50996 13.77 8.22996C13.75 8.08996 13.73 7.97995 13.72 7.90995V7.82995L13.71 7.81996C13.59 6.88996 12.76 6.19995 11.81 6.32995C10.87 6.44995 10.24 7.31994 10.34 8.23994V8.25996L10.43 8.94996H10.44C10.49 9.24996 10.55 9.61995 10.63 10.1C10.83 11.25 11.16 12.9 11.65 14.88C12.63 18.84 14.26 24.18 16.9 29.69C18.97 34.01 21.7 38.4699 25.23 42.4399C25.23 42.5899 25.23 42.78 25.21 43.04C25.19 43.61 25.17 44.4299 25.13 45.4399C25.05 47.4499 24.93 50.1899 24.74 53.1199C24.55 56.0499 24.29 59.1399 23.94 61.8599C23.59 64.6199 23.17 66.8599 22.69 68.1499C22.46 68.7599 22.24 69.35 22.03 69.92L22.59 70.13L22.27 70.01L22.03 69.92C21.2 72.15 20.53 73.94 19.78 75.41C18.86 77.2 17.92 78.2599 16.66 78.8399C15.97 79.1599 15.08 79.3999 13.94 79.6499C13.55 79.7399 13.13 79.82 12.68 79.92L12.8 80.51L12.77 80.3399L12.68 79.92C11.88 80.09 10.99 80.2699 10.1 80.4899C7.27001 81.1799 3.99999 82.2699 0.79999 84.7099C0.0899895 85.2499 -0.0500081 86.2699 0.489992 86.9899C1.02999 87.6999 2.04999 87.8399 2.76999 87.2999C5.46999 85.2399 8.26 84.2899 10.87 83.6499L10.73 83.07L10.83 83.4599L10.88 83.6499C11.72 83.4399 12.51 83.2799 13.29 83.1199C13.74 83.0299 14.2 82.9299 14.65 82.8299L14.52 82.2399V82.2999L14.65 82.8299C15.82 82.5699 17 82.27 18.03 81.79C20.21 80.78 21.59 79.0199 22.68 76.8999C23.54 75.2399 24.29 73.2099 25.11 70.9899C25.31 70.4399 25.52 69.8699 25.74 69.2999L25.18 69.0899L25.74 69.29C26.36 67.61 26.82 65.0499 27.17 62.2799L26.57 62.2H26.61L27.17 62.2699C27.53 59.4599 27.79 56.2899 27.99 53.3299C28.18 50.3999 28.31 47.67 28.38 45.64C33.07 49.92 38.93 53.2999 46.27 54.7199C47.8 55.0199 49.09 55.0199 50.64 54.7199C58.06 53.2799 63.98 49.8499 68.69 45.4999C68.69 45.5199 68.69 45.5399 68.69 45.5599C68.77 47.5899 68.89 50.3699 69.08 53.3299C69.27 56.2899 69.54 59.4599 69.9 62.2699C70.25 65.0399 70.71 67.5999 71.33 69.2799L71.89 69.0799L71.33 69.29C71.55 69.87 71.76 70.4399 71.96 70.9899C72.79 73.2099 73.54 75.2399 74.39 76.8999C75.48 79.0199 76.86 80.78 79.04 81.79C80.07 82.26 81.25 82.5699 82.42 82.8299L82.54 82.2699V82.2399L82.41 82.8299C82.86 82.9299 83.31 83.0199 83.77 83.1199C84.55 83.2799 85.34 83.4499 86.18 83.6499C88.79 84.2799 91.58 85.2399 94.28 87.2999C94.99 87.8399 96.01 87.7099 96.56 86.9899C97.1 86.2799 96.97 85.2599 96.25 84.7099L96.27 84.6799Z" fill="black"/>
<path d="M43.62 35.5099C44.12 36.2499 45.13 36.4499 45.88 35.9499C46.33 35.6499 47.28 35.3699 48.46 35.3499C49.63 35.3399 50.64 35.5899 51.22 35.9599C51.97 36.4499 52.98 36.2399 53.47 35.4799C53.96 34.7299 53.75 33.7199 52.99 33.2299C51.67 32.3699 49.94 32.0699 48.41 32.0899C46.9 32.1099 45.23 32.4499 44.05 33.2399C43.31 33.7399 43.11 34.7499 43.61 35.4999L43.62 35.5099Z" fill="black"/>
<path d="M46.27 69.0099C46.27 67.8499 45.33 66.9099 44.17 66.9099C43.01 66.9099 42.07 67.8499 42.07 69.0099C42.07 70.1699 43.01 71.1099 44.17 71.1099C45.33 71.1099 46.27 70.1699 46.27 69.0099Z" fill="black"/>
<path d="M52.85 66.9099C51.69 66.9099 50.75 67.8499 50.75 69.0099C50.75 70.1699 51.69 71.1099 52.85 71.1099C54.01 71.1099 54.95 70.1699 54.95 69.0099C54.95 67.8499 54.01 66.9099 52.85 66.9099Z" fill="black"/>
<path d="M52.19 74.1799C51.03 74.1799 50.09 75.1199 50.09 76.2799C50.09 77.4399 51.03 78.3799 52.19 78.3799C53.35 78.3799 54.29 77.4399 54.29 76.2799C54.29 75.1199 53.35 74.1799 52.19 74.1799Z" fill="black"/>
<path d="M44.88 74.1799C43.72 74.1799 42.78 75.1199 42.78 76.2799C42.78 77.4399 43.72 78.3799 44.88 78.3799C46.04 78.3799 46.98 77.4399 46.98 76.2799C46.98 75.1199 46.04 74.1799 44.88 74.1799Z" fill="black"/>
<path d="M11.8 6.30994L11.89 7.00993L11.8 6.30994Z" fill="black"/>
</svg>
