<svg width="102" height="90" viewBox="0 0 102 90" fill="none" xmlns="http://www.w3.org/2000/svg">
<path d="M44.76 88C69.0606 88 88.76 68.3005 88.76 44C88.76 19.6995 69.0606 0 44.76 0C20.4595 0 0.76001 19.6995 0.76001 44C0.76001 68.3005 20.4595 88 44.76 88Z" fill="#D2DF3F"/>
<path d="M64.76 49.12L66 48.27L64.76 49.12Z" fill="black"/>
<path d="M98.51 36.04C98.45 35.96 98.37 35.88 98.29 35.81L98.2 35.74C93.65 31.95 87.64 31.74 83.48 35.9C82.9 36.48 82.4 37.12 81.98 37.79C81.59 37.17 81.13 36.58 80.58 36.04C76.54 32 70.05 32 66 36.04C62.42 39.62 62.01 45.11 64.76 49.13C65.11 49.65 65.64 49.79 65.96 49.82C66.26 49.85 66.51 49.79 66.64 49.75C66.93 49.67 67.21 49.54 67.42 49.43C67.87 49.2 68.41 48.86 68.88 48.57C69.38 48.26 69.8 48 70.13 47.83L74.61 49.46L76.58 54.36L74.48 57.71L73.83 58.74L74.71 59.58L80.78 65.39L81.05 65.66L81.14 65.75L81.19 65.8L82.25 66.86L98.37 50.74C102.31 46.75 102.83 40.29 98.49 36.03L98.51 36.04ZM96.25 48.64L82.24 62.65L77.67 58.27L79.01 56.12C78.51 54.88 78.48 53.43 78.92 52.17L77.14 47.72L76.89 47.1L76.26 46.87L70.8 44.88C70.56 44.78 70.33 44.74 70.18 44.74C69.92 44.74 69.7 44.79 69.56 44.83C69.28 44.91 69 45.04 68.78 45.16C68.32 45.4 67.78 45.74 67.3 46.03C67.07 46.17 66.86 46.3 66.66 46.42C65.39 43.72 65.87 40.41 68.12 38.16C70.99 35.29 75.58 35.29 78.46 38.16C79.59 39.29 80.26 40.7 80.5 42.21H83.46C83.7 40.67 84.4 39.21 85.6 38.02C88.49 35.13 92.71 35.08 96.27 38.03C99.45 40.98 99.24 45.63 96.27 48.65L96.25 48.64Z" fill="black"/>
<path fill-rule="evenodd" clip-rule="evenodd" d="M57.7 13.9401L58.19 13.6001L57.7 13.9401Z" fill="black"/>
<path fill-rule="evenodd" clip-rule="evenodd" d="M35.32 43.8201L34.93 44.2801L35.32 43.8201Z" fill="black"/>
<path fill-rule="evenodd" clip-rule="evenodd" d="M71.7 58.46C70.82 58.46 70.1 59.18 70.1 60.06V72.75C70.1 80.16 64.09 86.16 56.69 86.16C49.29 86.16 43.28 80.15 43.28 72.75V55.28C44.16 55.23 45.39 55.1001 46.74 54.7301C51.41 53.4701 54.46 50.2 55.41 49.16C57.64 46.77 60.86 42.02 63.15 36.37C63.91 34.54 63.26 32.6 61.88 31.49C63.7 25.4 64.25 17.8 60.39 12.2C60.36 12.14 60.32 12.09 60.3 12.05C60.26 12 60.23 11.95 60.21 11.93C60.21 11.92 60.2 11.91 60.19 11.91C60.17 11.88 60.15 11.84 60.12 11.81C58.15 9.11004 55.06 7.60005 51.77 7.60005C50.89 7.60005 50.17 8.32004 50.17 9.20004C50.17 10.08 50.89 10.8 51.77 10.8C54.05 10.8 56.15 11.83 57.5 13.65C57.52 13.68 57.54 13.71 57.55 13.73C57.55 13.73 57.62 13.8201 57.63 13.8501C57.63 13.8501 57.63 13.87 57.64 13.87C57.66 13.9 57.67 13.93 57.69 13.95C60.77 18.36 60.52 24.81 58.8 30.55C57.29 30.71 55.97 31.6601 55.35 33.1001V33.12C53.38 37.93 50.64 41.8801 49.26 43.3901C49.25 43.4001 49.23 43.42 49.22 43.43L49.65 43.84L49.23 43.43C48.43 44.28 46.83 45.96 44.58 46.58C43.56 46.85 42.56 46.86 42.35 46.86C41.94 46.86 40.92 46.79 39.63 46.36C39.63 46.36 39.54 46.32 39.51 46.31C39.51 46.31 39.49 46.31 39.48 46.3C39.4 46.27 39.31 46.23 39.2 46.19C38.94 46.08 38.59 45.93 38.18 45.72C37.34 45.3 36.3 44.69 35.38 43.87L35.36 43.8501C34.45 43.0801 33.27 41.6501 32.04 39.7601C30.82 37.8801 29.57 35.59 28.5 33.12C27.88 31.68 26.56 30.7301 25.04 30.5701C24.11 27.7101 23.46 24.6501 23.4 21.7601C23.33 18.5301 23.99 15.6501 25.65 13.4601C25.71 13.3901 25.78 13.3 25.86 13.19C27.21 11.57 29.24 10.62 31.39 10.62H31.82C32.7 10.62 33.42 9.90005 33.42 9.02005C33.42 8.14005 32.7 7.42004 31.82 7.42004H31.39C28.26 7.42004 25.29 8.82004 23.33 11.23C23.3 11.27 23.27 11.32 23.24 11.37C23.21 11.4 23.19 11.4301 23.16 11.4601C20.87 14.4301 20.12 18.14 20.2 21.83C20.27 25.08 20.99 28.43 21.98 31.49C20.6 32.62 19.97 34.59 20.72 36.4V36.41C23.34 42.56 27.1 47.91 29.81 50.25C32.98 53.01 36.57 54.2701 36.79 54.3501C38.02 54.7601 39.13 55.01 40.1 55.15V72.77C40.1 81.94 47.54 89.3801 56.71 89.3801C65.88 89.3801 73.32 81.94 73.32 72.77V60.08C73.32 59.2 72.6 58.4801 71.72 58.4801L71.7 58.46ZM37.56 51.84L37.76 51.28C37.76 51.28 37.7 51.26 37.65 51.24L37.44 51.8V51.77L37.65 51.24C37.55 51.2 37.42 51.15 37.24 51.08C36.89 50.94 36.4 50.72 35.83 50.43C34.68 49.85 33.23 48.98 31.89 47.81C29.67 45.89 26.15 41.0101 23.65 35.1401C23.38 34.4801 23.9 33.71 24.59 33.71C24.99 33.71 25.36 33.9401 25.53 34.3501L26.08 34.12L25.53 34.36C27.74 39.51 30.84 44.21 33.24 46.25C34.44 47.31 35.74 48.07 36.72 48.56C37.22 48.81 37.64 48.99 37.95 49.12C38.08 49.17 38.19 49.22 38.26 49.25C38.26 49.25 38.28 49.2501 38.29 49.2601C38.29 49.2601 38.33 49.28 38.34 49.28C38.39 49.3 38.44 49.33 38.5 49.34C40.2 49.93 41.61 50.0401 42.34 50.0401C42.61 50.0401 43.97 50.04 45.41 49.65C48.58 48.79 50.71 46.5001 51.52 45.6401C51.52 45.6401 51.58 45.58 51.6 45.55V45.5401C53.25 43.7301 56.19 39.45 58.29 34.33C58.44 33.99 58.72 33.78 59.04 33.72C59.11 33.72 59.17 33.74 59.24 33.74C59.96 33.74 60.44 34.49 60.18 35.12V35.1301C58.02 40.4601 54.99 44.8901 53.06 46.9501L53.49 47.3501L53.05 46.9501H53.04L53.33 47.2301L53.04 46.96L53.48 47.37L53.04 46.97C52.18 47.93 49.64 50.6 45.9 51.61C44.34 52.03 42.93 52.08 42.34 52.08H42.25C41.33 52.08 39.75 51.9201 37.78 51.2601C37.78 51.2601 37.77 51.2601 37.76 51.2601L37.56 51.8201V51.84ZM59.95 12.12L59.74 12.28L59.96 12.12H59.95Z" fill="black"/>
<path d="M69.76 63C75.2829 63 79.76 58.5228 79.76 53C79.76 47.4772 75.2829 43 69.76 43C64.2372 43 59.76 47.4772 59.76 53C59.76 58.5228 64.2372 63 69.76 63Z" fill="#D2DF3F"/>
<path d="M69.67 49.42C67.8 49.42 66.18 50.89 66.18 52.87C66.18 54.85 67.75 56.36 69.67 56.36C71.59 56.36 73.16 54.79 73.16 52.87C73.16 50.95 71.56 49.42 69.67 49.42Z" fill="black"/>
<path d="M69.67 44.4C65.01 44.4 61.15 48.18 61.15 52.87C61.15 57.56 64.94 61.39 69.67 61.39C74.4 61.39 78.14 57.59 78.14 52.87C78.14 48.15 74.34 44.4 69.67 44.4ZM69.67 58.18C66.72 58.18 64.35 55.78 64.35 52.86C64.35 49.94 66.75 47.59 69.67 47.59C72.59 47.59 74.94 49.95 74.94 52.86C74.94 55.77 72.57 58.18 69.67 58.18Z" fill="black"/>
</svg>
