<svg width="101" height="93" viewBox="0 0 101 93" fill="none" xmlns="http://www.w3.org/2000/svg">
<path d="M56.76 88C81.0606 88 100.76 68.3005 100.76 44C100.76 19.6995 81.0606 0 56.76 0C32.4595 0 12.76 19.6995 12.76 44C12.76 68.3005 32.4595 88 56.76 88Z" fill="#D2DF3F"/>
<path d="M61.35 32.1701L61.38 32.1901L61.41 32.2101L61.51 32.2801C63.06 33.5101 65.08 33.8201 67.09 33.3901H67.15L67.22 33.3701C69.13 32.9001 71.05 31.6901 72.56 29.9301L72.58 29.9001L72.6 29.8701L72.66 29.7801C74.16 27.9601 74.97 25.8401 75.08 23.8701C75.19 21.7401 74.5 19.7401 72.89 18.3901C71.28 17.0801 69.17 16.7201 67.11 17.2301C65.17 17.7001 63.19 18.8701 61.66 20.7101C60.15 22.5401 59.29 24.6701 59.18 26.6901L59.16 27.0801L59.25 27.1201C59.24 29.0801 59.89 30.9001 61.37 32.1601L61.35 32.1701ZM66.36 30.1901C65.19 30.4601 64.15 30.2701 63.42 29.6701C62.71 29.0901 62.34 28.1001 62.4 26.8901C62.49 25.6501 63.03 24.2501 64 23.0201L64.14 22.8601C65.24 21.5701 66.58 20.7401 67.84 20.4401C69.01 20.1701 70.05 20.3701 70.77 20.9601C71.48 21.5401 71.85 22.5301 71.79 23.7401C71.7 25.0401 71.12 26.4901 70.05 27.7801C69 29.0501 67.69 29.8701 66.43 30.1801H66.42L66.35 30.2001L66.36 30.1901Z" fill="black"/>
<path d="M31.76 27.25C32.4 27.89 33.41 27.89 34.05 27.25L34.25 27.0499C34.96 26.3399 36.11 25.35 37.53 24.69C38.48 24.25 39.56 23.94 40.69 23.94C42.1 23.94 43.37 24.4 44.48 25.03C45.59 25.67 46.52 26.47 47.13 27.08C47.77 27.72 48.78 27.72 49.42 27.08C50.06 26.44 50.06 25.4399 49.42 24.7999C48.68 24.0299 47.53 23.0599 46.08 22.2199C44.58 21.3799 42.74 20.7 40.7 20.7C39.02 20.7 37.49 21.13 36.15 21.76C34.29 22.64 32.86 23.9 31.97 24.75L32.39 25.18L31.98 24.75L31.78 24.9599C31.14 25.5999 31.14 26.61 31.78 27.25H31.76Z" fill="black"/>
<path d="M80.63 17.79V17.75L80.6 17.72L80.57 17.66C80.31 16.93 79.9 16.31 79.42 15.82C78.81 15.21 78.08 14.78 77.26 14.59C76.45 14.4 75.6 14.44 74.75 14.74C74.06 14.97 73.38 15.39 72.79 15.99C72.15 16.63 72.15 17.64 72.79 18.28C73.39 18.88 74.33 18.91 74.97 18.37L75.06 18.33L75.15 18.29L75.22 18.22C75.48 17.96 75.74 17.8 75.94 17.73H75.96L75.98 17.72C76.22 17.63 76.44 17.63 76.69 17.68C76.89 17.73 77.1 17.84 77.23 17.99V18.01L77.26 18.02C77.41 18.17 77.55 18.39 77.65 18.66L77.68 18.75C78.31 20.64 78.58 23.89 77.48 27.32L77.94 27.47L78.05 27.51L77.48 27.33C76.68 29.84 75.13 32.42 72.48 34.59C71.63 35.28 70.65 35.82 69.61 36.2C68.4 36.65 67.04 36.91 65.71 37.04C63.94 37.21 61.63 37.2 59.03 36.62V36.52L58.8 36.56C58.03 36.38 57.24 36.16 56.42 35.87C53.78 34.93 50.91 33.33 48.02 30.67L47.97 30.62L47.95 30.6L47.93 30.58C47.75 30.43 47.54 30.22 47.3 29.98L47.07 29.75C46.54 29.22 45.49 28.27 44.11 27.56C43.16 27.1 42.07 26.73 40.9 26.73C39.42 26.73 38.03 27.28 36.97 27.96C35.95 28.59 35.14 29.33 34.72 29.75L35.14 30.17L35.06 30.09L34.72 29.75L34.52 29.95C34.24 30.22 34.06 30.44 33.81 30.66V30.67C30.4 33.82 26.96 35.52 23.91 36.36C23.53 36.46 23.16 36.55 22.8 36.63C22.67 36.63 22.54 36.67 22.41 36.71C19.94 37.21 17.77 37.21 16.08 37.05C14.74 36.92 13.42 36.66 12.17 36.21C11.12 35.83 10.15 35.29 9.29999 34.6C6.64999 32.4 5.09999 29.85 4.29999 27.34C3.19999 23.87 3.46999 20.59 4.12999 18.75L4.15999 18.65C4.26999 18.37 4.37999 18.17 4.51999 18.03H4.52998L4.53998 18C4.67998 17.83 4.86999 17.73 5.07999 17.69H5.08998C5.29998 17.64 5.53999 17.65 5.73999 17.73C6.00999 17.84 6.26998 18 6.50998 18.23C7.14998 18.87 8.15999 18.87 8.79999 18.23C9.43999 17.59 9.43999 16.58 8.79999 15.94C8.20999 15.35 7.52998 14.93 6.83998 14.7C5.99998 14.4 5.14999 14.36 4.32999 14.55C3.50999 14.75 2.77998 15.17 2.16998 15.78V15.8C1.72998 16.27 1.33999 16.89 1.06999 17.58L1.03998 17.65L1.01999 17.68V17.72L1.56999 17.92L0.999984 17.72C0.149984 20.15 -0.180012 24.21 1.15999 28.39C2.12999 31.41 3.99998 34.52 7.17998 37.14C8.33998 38.09 9.63998 38.79 11 39.28C12.5 39.84 14.13 40.15 15.69 40.32C17.6 40.52 20.05 40.52 22.82 39.97C22.89 40 22.98 40.04 23.08 40.1C23.42 40.29 23.91 40.64 24.45 41.3C25.52 42.61 26.78 45.15 27.29 50.04C27.39 51.25 27.64 52.46 27.94 53.62C28.25 54.75 28.63 55.87 29.15 56.92V56.93C29.47 57.54 29.82 58.24 30.28 58.91C30.28 58.91 30.28 58.92 30.29 58.93C30.53 59.31 30.82 59.71 31.13 60.1C30.99 61.17 30.78 63.3 30.84 65.68C30.9 68.1 31.25 70.83 32.31 72.91C31.71 73.76 31.3 74.72 31.11 75.69C30.89 76.85 30.93 78.09 31.29 79.27L35.04 91.4C35.25 92.08 35.87 92.56 36.58 92.56H40.51C40.62 92.58 40.72 92.59 40.84 92.59H44.96C45.67 92.59 46.3 92.11 46.51 91.43L50.23 79.3C50.6 78.12 50.63 76.89 50.41 75.73C50.22 74.73 49.81 73.79 49.21 72.94C50.26 70.86 50.61 68.13 50.66 65.71C50.72 63.33 50.5 61.19 50.38 60.13C50.7 59.73 51.02 59.3 51.3 58.84C51.71 58.19 52.05 57.57 52.36 56.96V56.95C52.84 55.92 53.26 54.81 53.57 53.67L52.99 53.51L53.57 53.66C53.88 52.49 54.09 51.28 54.22 50.09L53.62 50.02L54.21 50.09C54.72 45.17 55.99 42.62 57.06 41.32C57.6 40.67 58.09 40.32 58.43 40.13C58.55 40.06 58.65 40.02 58.73 39.99C61.54 40.56 64.05 40.57 65.97 40.37C67.54 40.2 69.13 39.89 70.66 39.33C72.02 38.84 73.32 38.14 74.49 37.19C77.67 34.6 79.54 31.48 80.51 28.43C81.82 24.29 81.52 20.27 80.67 17.83L80.63 17.79ZM50.41 52.71C50.19 53.63 49.84 54.53 49.41 55.4C49.15 55.95 48.86 56.46 48.54 56.98C48.22 57.49 47.84 58 47.42 58.48C47.11 58.85 47.01 59.3 47.04 59.71C47.04 59.71 47.04 59.75 47.04 59.76C47.04 59.76 47.04 59.77 47.04 59.78C47.04 59.78 47.04 59.78 47.04 59.79C47.04 59.79 47.04 59.79 47.04 59.8V59.82C47.04 59.84 47.04 59.86 47.05 59.9C47.05 59.97 47.07 60.07 47.09 60.19C47.12 60.44 47.17 60.81 47.21 61.25C47.3 62.15 47.39 63.37 47.4 64.71C47.41 66.05 47.34 67.47 47.11 68.78C46.9 69.96 46.56 70.97 46.07 71.74L46.02 71.78C46.02 71.78 45.98 71.8 45.96 71.82C45.77 71.93 45.5 72.08 45.16 72.22C44.47 72.52 43.51 72.81 42.37 72.81C41.47 72.81 40.73 73.55 40.73 74.45C40.73 75.35 41.47 76.09 42.37 76.09C44.05 76.09 45.47 75.65 46.47 75.22C46.57 75.18 46.65 75.13 46.75 75.09C46.96 75.46 47.11 75.87 47.18 76.27V76.3L47.76 76.17L47.17 76.3C47.31 76.93 47.29 77.63 47.08 78.26L43.69 89.27H40.94C40.83 89.25 40.73 89.24 40.62 89.24H37.68L34.3 78.26C34.12 77.61 34.09 76.9 34.21 76.25L33.62 76.14L34.21 76.24C34.28 75.82 34.43 75.43 34.63 75.06C34.73 75.1 34.81 75.15 34.91 75.19C35.91 75.62 37.33 76.06 39.01 76.06C39.91 76.06 40.65 75.32 40.65 74.42C40.65 73.52 39.91 72.78 39.01 72.78C37.87 72.78 36.91 72.49 36.22 72.19C35.88 72.04 35.61 71.9 35.43 71.79C35.38 71.76 35.36 71.75 35.33 71.72C34.83 70.95 34.48 69.91 34.27 68.71C34.04 67.41 33.97 65.98 33.98 64.64C33.99 63.31 34.08 62.08 34.17 61.18C34.21 60.73 34.26 60.37 34.29 60.12C34.31 59.99 34.32 59.9 34.33 59.83C34.33 59.8 34.33 59.77 34.34 59.75V59.73C34.34 59.73 34.34 59.73 34.34 59.72C34.34 59.72 34.34 59.72 34.34 59.71C34.34 59.71 34.34 59.7 34.34 59.69C34.34 59.69 34.34 59.66 34.34 59.64C34.37 59.24 34.27 58.8 33.96 58.45C33.58 58 33.22 57.52 32.9 57.04C32.54 56.48 32.22 55.94 31.97 55.41C31.55 54.54 31.23 53.64 30.97 52.69C30.71 51.72 30.52 50.68 30.42 49.64C29.84 43.91 28.15 40.67 26.52 38.84C29.5 37.73 32.68 35.94 35.82 33.06C36.1 32.81 36.38 32.53 36.64 32.27L36.84 32.07C37.15 31.76 37.75 31.22 38.51 30.75C39.2 30.31 39.95 30.01 40.7 30.01C41.27 30.01 41.84 30.2 42.44 30.48C43.4 30.98 44.22 31.7 44.6 32.08L44.83 32.31C44.96 32.44 45.08 32.55 45.2 32.66C45.32 32.77 45.44 32.88 45.57 33.01L45.64 33.08V33.1C48.74 35.96 51.87 37.75 54.83 38.86C53.19 40.69 51.5 43.93 50.91 49.65L51.51 49.71L50.92 49.65C50.82 50.69 50.63 51.69 50.37 52.71L50.95 52.86L50.37 52.72L50.41 52.71Z" fill="black"/>
<path d="M47.02 29.72L46.59 30.14L47.02 29.72Z" fill="black"/>
<path d="M38.54 30.75L38.22 30.25L38.53 30.75H38.54Z" fill="black"/>
<path d="M8.87999 29.89V29.9L9.33998 29.51L8.87999 29.89Z" fill="black"/>
<path d="M8.54999 18.43C6.96999 19.78 6.28998 21.79 6.39998 23.91C6.50998 25.93 7.37 28.06 8.88 29.89L9.33999 29.51L8.88 29.9C10.4 31.7 12.38 32.91 14.32 33.38C16.32 33.88 18.41 33.57 19.99 32.29L20.09 32.22L20.12 32.2L20.15 32.17C21.69 30.82 22.37 28.82 22.26 26.73C22.15 24.71 21.29 22.58 19.78 20.75L19.6 20.53H19.55C18.07 18.86 16.23 17.71 14.37 17.26L14.3 17.24H14.25C12.19 16.77 10.14 17.08 8.54999 18.42V18.43ZM9.03998 23.75L9.63999 23.72C9.57999 22.5 9.94999 21.51 10.66 20.93C11.38 20.32 12.4 20.15 13.59 20.42L13.66 20.44H13.67C14.92 20.75 16.23 21.57 17.29 22.84C18.39 24.17 18.97 25.62 19.03 26.91C19.09 28.13 18.72 29.12 18.01 29.7V29.72C17.33 30.32 16.29 30.5 15.09 30.22C13.82 29.92 12.46 29.09 11.39 27.81C10.29 26.48 9.70998 25.03 9.64998 23.74L9.04999 23.77L9.03998 23.75Z" fill="black"/>
<path d="M40.69 56.98C39.79 56.98 39.05 57.72 39.05 58.62V68.91C39.05 69.81 39.79 70.55 40.69 70.55C41.59 70.55 42.33 69.81 42.33 68.91V58.62C42.33 57.72 41.59 56.98 40.69 56.98Z" fill="black"/>
</svg>
