<svg width="123" height="96" viewBox="0 0 123 96" fill="none" xmlns="http://www.w3.org/2000/svg">
<path d="M78.76 88C103.061 88 122.76 68.3005 122.76 44C122.76 19.6995 103.061 0 78.76 0C54.4595 0 34.76 19.6995 34.76 44C34.76 68.3005 54.4595 88 78.76 88Z" fill="#D2DF3F"/>
<path d="M91.53 13.4H72.32C71.41 13.4 70.65 14.15 70.65 15.07V34.28C70.65 35.19 71.4 35.95 72.32 35.95H72.59V67.11C72.31 67.11 72.04 67.09 71.75 67.09C70.28 67.06 68.72 67.09 67.04 67.19C66.22 67.22 65.4 67.29 64.6 67.35C64.38 67.37 64.13 67.39 63.89 67.42C64.01 66.45 64.11 65.49 64.15 64.75L63.61 64.72H63.55L64.15 64.75C64.51 58.07 63.89 52.45 62.31 47.83C60.69 43.11 58.14 39.42 54.61 36.68C51.18 33.98 46.94 32.34 42.01 31.58C37.67 30.91 32.77 30.94 27.32 31.58C27.48 30.08 27.61 28.52 27.7 26.9C27.83 24.53 27.86 22.02 27.73 19.44C27.73 19.44 27.73 19.44 27.73 19.43C27.69 18.12 27.09 17.01 26.24 16.24C25.39 15.46 24.28 15.02 23.05 15.05H22.95H22.93C21.62 15.09 20.5 15.69 19.72 16.54C18.94 17.39 18.5 18.5 18.53 19.73V19.86C18.66 22.35 18.59 24.85 18.43 27.23C18.33 29.16 18.14 31.01 17.91 32.76C16.09 32.93 14.5 33.08 13.08 33.14H13.07C11.54 33.24 10.16 33.24 8.87001 33.24C7.58001 33.24 6.35003 33.18 5.02003 33.11H5.01002C3.75002 33.07 2.59998 33.52 1.71998 34.29C0.829983 35.07 0.260014 36.16 0.190014 37.42V37.44V37.46V37.49C0.130014 38.71 0.570009 39.85 1.31001 40.7V40.72L1.34004 40.73L1.40004 40.79C2.18004 41.66 3.27001 42.2 4.50001 42.28V42.32H4.53004C5.91004 42.38 7.27003 42.45 8.77003 42.45C10.24 42.48 11.8 42.45 13.49 42.35C14.48 42.29 15.52 42.22 16.63 42.13C16.61 42.26 16.6 42.39 16.58 42.51C16.48 43.33 16.42 44.09 16.38 44.85C16.02 51.53 16.64 57.14 18.22 61.76C19.84 66.48 22.39 70.17 25.92 72.91C29.35 75.61 33.59 77.25 38.52 78.01C42.86 78.68 47.77 78.65 53.21 78.01C53.06 79.53 52.92 81.1 52.82 82.76C52.69 85.1 52.66 87.58 52.79 90.12C52.79 90.12 52.79 90.12 52.79 90.13C52.83 91.44 53.43 92.55 54.28 93.32C55.13 94.09 56.31 94.58 57.58 94.51C58.88 94.47 60 93.87 60.77 93.02C61.55 92.17 62.03 90.98 61.96 89.71C61.86 87.3 61.9 84.77 62.06 82.37L61.46 82.33L62.06 82.36C62.16 80.42 62.35 78.56 62.55 76.84C63.23 76.77 63.9 76.71 64.56 76.65L64.51 76.05L64.53 76.25L64.57 76.65C65.63 76.55 66.59 76.49 67.42 76.46C68.95 76.36 70.33 76.36 71.62 76.36C71.94 76.36 72.26 76.37 72.57 76.38V86.24C72.57 88.8 73.61 91.15 75.3 92.84L75.36 92.9L75.78 92.48L75.36 92.91C77.02 94.53 79.34 95.57 81.89 95.57C84.44 95.57 86.8 94.53 88.49 92.84L88.55 92.78C90.17 91.09 91.21 88.81 91.21 86.25V35.95H91.48C92.39 35.95 93.15 35.2 93.15 34.28V15.07C93.15 14.16 92.4 13.4 91.48 13.4H91.53ZM64.75 70.16L64.79 70.76C65.67 70.69 66.47 70.63 67.17 70.6C68.83 70.5 70.3 70.5 71.7 70.5C72.39 70.5 73.07 70.52 73.75 70.54C73.91 70.59 74.08 70.63 74.26 70.63H74.3C74.77 70.6 75.28 70.66 75.84 70.69C76.2 70.71 76.5 70.87 76.72 71.11L76.73 71.13H76.74C76.84 71.25 76.92 71.39 76.97 71.53C77 71.63 77.01 71.74 77.02 71.85C77.02 71.9 77.04 71.95 77.04 72C77.02 72.36 76.86 72.66 76.62 72.88C76.37 73.1 76.05 73.23 75.7 73.21C74.38 73.15 73.1 73.08 71.69 73.08C70.28 73.08 68.89 73.11 67.3 73.18C66.32 73.21 65.34 73.28 64.32 73.38C63.43 73.47 62.4 73.56 61.3 73.68C61.14 73.66 60.97 73.65 60.8 73.68L59.64 73.86C59.11 73.92 58.55 73.99 57.94 74.07C56.88 74.2 55.8 74.33 54.76 74.49C48.78 75.33 43.54 75.45 39.02 74.75C34.6 74.08 30.89 72.63 27.94 70.34C24.97 68.02 22.74 64.86 21.35 60.75L20.78 60.94L21.34 60.75C19.92 56.57 19.34 51.38 19.66 45.09C19.69 44.43 19.75 43.73 19.85 42.97C19.88 42.69 19.91 42.42 19.95 42.14C19.96 42.03 19.98 41.93 19.99 41.82C20.84 41.73 21.71 41.63 22.64 41.51C22.6 41.85 22.55 42.18 22.51 42.52C22.38 43.46 22.28 44.38 22.25 45.18C21.96 50.78 22.41 55.45 23.6 59.26C24.8 63.18 26.8 66.16 29.53 68.29C32.29 70.44 35.83 71.73 40.04 72.29C44.15 72.82 48.96 72.68 54.4 71.9C55.75 71.71 57.07 71.55 58.37 71.38C58.6 71.35 58.81 71.33 59.02 71.3L62.04 70.99C62.04 70.99 62.13 70.96 62.17 70.96C62.59 70.93 63.02 70.89 63.44 70.85C63.88 70.81 64.32 70.77 64.77 70.74L64.73 70.14L64.75 70.16ZM86.25 90.44L86.19 90.5C85.1 91.59 83.6 92.27 81.92 92.27C80.24 92.27 78.8 91.62 77.71 90.56L77.65 90.5C76.56 89.41 75.88 87.91 75.88 86.23V76.49C76.99 76.44 78.03 76.04 78.81 75.33C79.7 74.54 80.26 73.43 80.33 72.17C80.4 70.93 79.96 69.78 79.21 68.93V68.91L79.18 68.9L79.12 68.84C78.82 68.52 78.47 68.25 78.09 68.03C77.68 67.77 77.23 67.58 76.74 67.46L76.81 67.24H75.96C75.96 67.24 75.9 67.24 75.87 67.24V36H87.93V86.25C87.93 87.87 87.28 89.37 86.22 90.46L86.25 90.44ZM84.07 32.65H79.74V16.74H84.07V32.65ZM89.86 32.65H87.4V16.74H89.86V32.65ZM76.4 32.65H73.95V16.74H76.4V32.65ZM58.77 82.19L58.73 82.83H58.77C58.64 85.15 58.59 87.56 58.71 89.9L59.31 89.87L58.71 89.91C58.73 90.25 58.6 90.58 58.38 90.83C58.16 91.07 57.85 91.23 57.49 91.25C57.15 91.27 56.82 91.14 56.57 90.92C56.33 90.7 56.17 90.39 56.15 90.03C56.02 87.6 56.05 85.26 56.18 82.98C56.27 81.15 56.44 79.41 56.62 77.71L59.2 77.32C59.02 78.87 58.88 80.53 58.77 82.2V82.19ZM21.73 27.44L21.77 26.8H21.73C21.86 24.53 21.91 22.17 21.79 19.76V19.64C21.79 19.29 21.9 18.99 22.12 18.75C22.34 18.51 22.65 18.35 22.97 18.33H23.06C23.41 18.33 23.71 18.44 23.95 18.66C24.19 18.88 24.35 19.19 24.37 19.55C24.5 22.01 24.47 24.41 24.34 26.69C24.22 28.53 24.07 30.32 23.87 32.02L21.98 32.28L21.25 32.37C21.44 30.78 21.6 29.13 21.72 27.44H21.73ZM4.76002 35.82L4.71998 36.42C6.03998 36.48 7.31999 36.55 8.72999 36.55C10.14 36.55 11.53 36.52 13.12 36.45C14.75 36.38 16.54 36.25 18.59 36.03C18.78 36.01 18.99 35.99 19.19 35.97C19.3 35.98 19.42 35.98 19.53 35.97C20.38 35.87 21.25 35.75 22.38 35.61C22.92 35.54 23.45 35.47 23.97 35.4C24.49 35.33 25.01 35.25 25.52 35.19C25.55 35.19 25.58 35.17 25.62 35.16C25.63 35.16 25.65 35.16 25.66 35.16C31.64 34.32 36.88 34.2 41.4 34.9C45.82 35.57 49.53 37.02 52.48 39.31C55.45 41.63 57.68 44.79 59.07 48.89L59.64 48.7L59.08 48.89C60.5 53.07 61.08 58.26 60.76 64.55C60.7 65.38 60.57 66.61 60.41 67.79C59.58 67.88 58.76 67.98 57.96 68.07C57.94 68.07 57.92 68.07 57.91 68.07H57.81C58 66.73 58.17 65.4 58.23 64.42C58.52 58.81 58.07 54.14 56.88 50.33C55.68 46.41 53.68 43.42 50.95 41.3C48.19 39.15 44.65 37.86 40.44 37.3C36.33 36.77 31.52 36.91 26.08 37.69C25.6 37.76 25.15 37.82 24.7 37.88C24.59 37.87 24.47 37.87 24.35 37.88C23.31 38.01 22.28 38.14 21.18 38.27C20.09 38.4 19.21 38.53 18.42 38.59C18.3 38.59 18.19 38.64 18.08 38.67C16.35 38.84 14.78 38.95 13.36 39.04C11.7 39.14 10.23 39.14 8.83003 39.14C7.43003 39.14 6.11999 39.08 4.72999 39.01C4.36999 38.99 4.06004 38.83 3.84004 38.59L3.72999 38.47L3.65999 38.45C3.48999 38.23 3.38004 37.94 3.40004 37.64C3.42004 37.28 3.58002 36.97 3.82002 36.75C4.07002 36.53 4.4 36.4 4.74 36.42L4.78004 35.82H4.76002ZM40.45 69C36.77 68.52 33.81 67.42 31.56 65.66C29.41 63.97 27.79 61.56 26.75 58.25C25.68 54.88 25.26 50.59 25.55 45.33L25.24 45.31H25.55C25.58 44.66 25.64 43.84 25.77 42.88L25.51 42.84L25.77 42.87C25.85 42.28 25.92 41.68 26.01 41.06C26.18 41.04 26.35 41.01 26.53 40.99C31.74 40.25 36.24 40.09 40.02 40.6C43.7 41.08 46.66 42.18 48.91 43.94C51.06 45.63 52.68 48.04 53.72 51.35L54.28 51.17L53.71 51.35C54.78 54.72 55.2 59.01 54.91 64.27C54.85 65.26 54.63 66.87 54.39 68.53C54.24 68.55 54.09 68.57 53.94 68.6C48.73 69.34 44.23 69.5 40.45 68.99V69Z" fill="black"/>
<path d="M75.39 92.93V92.94L75.81 92.51L75.39 92.93Z" fill="black"/>
<path d="M64.79 70.76L64.75 70.16L64.79 70.76Z" fill="black"/>
<path d="M30.75 50.99H41.97C42.88 50.99 43.64 50.24 43.64 49.32C43.64 48.4 42.89 47.65 41.97 47.65H30.75C29.84 47.65 29.08 48.4 29.08 49.32C29.08 50.24 29.83 50.99 30.75 50.99Z" fill="black"/>
<path d="M53.35 54.8601C53.35 53.9501 52.6 53.1901 51.68 53.1901H29.59C28.68 53.1901 27.92 53.9401 27.92 54.8601C27.92 55.7801 28.67 56.5301 29.59 56.5301H51.68C52.59 56.5301 53.35 55.7801 53.35 54.8601Z" fill="black"/>
<path d="M51.99 60.29C51.99 59.38 51.24 58.62 50.32 58.62H39.1C38.19 58.62 37.43 59.37 37.43 60.29C37.43 61.21 38.18 61.96 39.1 61.96H50.32C51.23 61.96 51.99 61.21 51.99 60.29Z" fill="black"/>
</svg>
