<svg width="98" height="90" viewBox="0 0 98 90" fill="none" xmlns="http://www.w3.org/2000/svg">
<path d="M53.76 88C78.0605 88 97.76 68.3005 97.76 44C97.76 19.6995 78.0605 0 53.76 0C29.4595 0 9.76001 19.6995 9.76001 44C9.76001 68.3005 29.4595 88 53.76 88Z" fill="#D2DF3F"/>
<path fill-rule="evenodd" clip-rule="evenodd" d="M43.13 6.43997C42.27 6.25997 41.42 6.79997 41.23 7.65997C41.2 7.81997 39.76 15.14 21.52 25.17C21.5 25.17 21.48 25.19 21.45 25.2C21.38 25.23 21.29 25.28 21.17 25.34C20.93 25.47 20.58 25.65 20.14 25.9C19.27 26.39 18.06 27.11 16.65 28.07C14.13 29.78 10.97 32.25 8.09003 35.43C5.79003 34.17 2.89001 34.79 1.26001 36.86L1.25 36.88L1.72998 37.25L1.25 36.89C-0.519996 39.22 -0.0999737 42.58 2.21003 44.42C-2.18997 55.19 1.93002 67.85 12.14 73.78C14.65 75.24 17.72 76.35 21.31 76.62C21.2 77.24 21.1 77.97 21.02 78.83C20.79 81.3 20.79 84.71 21.72 88.4C21.94 89.26 22.81 89.78 23.66 89.56L23.54 89.08L23.51 88.97L23.66 89.55C24.52 89.33 25.04 88.46 24.82 87.61C24 84.37 24 81.34 24.21 79.12C24.31 78.01 24.47 77.11 24.59 76.5C24.62 76.33 24.66 76.19 24.68 76.07C24.82 75.97 24.98 75.86 25.16 75.73C25.79 75.27 26.66 74.6 27.65 73.74C29.63 72.02 32.13 69.5 34.13 66.34C34.6 65.59 34.38 64.61 33.63 64.13C32.88 63.66 31.89 63.88 31.42 64.63C29.64 67.45 27.38 69.74 25.54 71.33C24.63 72.12 23.83 72.74 23.26 73.15C23.06 73.3 22.9 73.41 22.77 73.5C19.16 73.46 16.15 72.44 13.74 71.03C4.59999 65.72 1.07999 54.11 5.60999 44.59C5.93999 43.9 5.72999 43.07 5.10999 42.61L4.19001 41.93C3.24001 41.17 3.08003 39.79 3.78003 38.84C4.56003 37.86 5.93998 37.7 6.84998 38.42L7.34003 38.81C8.02003 39.35 9.01001 39.25 9.57001 38.59C12.44 35.18 15.79 32.53 18.44 30.73C19.76 29.83 20.9 29.15 21.71 28.7L21.46 28.26L21.42 28.18L21.71 28.7C22.11 28.47 22.43 28.3 22.64 28.19C22.75 28.13 22.83 28.09 22.88 28.07L22.94 28.04H22.95C22.97 28.03 23 28.02 23.02 28.01C41.88 17.65 44.07 9.63997 44.35 8.34997C44.54 7.48997 43.98 6.63996 43.12 6.44996L43.13 6.43997ZM2.62 44.01L2.58002 44.07L2.63001 44L2.62 44.01Z" fill="black"/>
<path fill-rule="evenodd" clip-rule="evenodd" d="M69.34 60.74C68.68 60.15 67.67 60.2 67.08 60.86L67.53 61.26L67.44 61.18L67.08 60.86C63.27 65.09 61.19 70.61 61.19 76.28V87.94C61.19 88.82 61.91 89.54 62.79 89.54C63.67 89.54 64.39 88.82 64.39 87.94V76.28C64.39 71.39 66.19 66.64 69.46 62.99C70.05 62.33 70 61.32 69.34 60.73V60.74Z" fill="black"/>
</svg>
