<svg width="103" height="88" viewBox="0 0 103 88" fill="none" xmlns="http://www.w3.org/2000/svg">
<path d="M58.6 88C82.9005 88 102.6 68.3005 102.6 44C102.6 19.6995 82.9005 0 58.6 0C34.2994 0 14.6 19.6995 14.6 44C14.6 68.3005 34.2994 88 58.6 88Z" fill="#D2DF3F"/>
<path d="M76.17 28.0601C71.69 28.0601 68.05 31.7001 68.05 36.1801C68.05 38.8601 69.36 41.2201 71.35 42.7001V54.0401C71.35 56.0901 72.63 57.8301 74.44 58.5201V77.0101C74.44 79.6801 72.28 81.8401 69.61 81.8401H8.22996C5.44996 81.8401 3.21996 79.4601 3.46996 76.6201C3.69996 74.1501 5.94996 72.2801 8.50996 72.2801H49.79C50.72 72.2801 51.46 71.5201 51.46 70.6101V70.5201C51.46 69.6001 50.71 68.8301 49.77 68.8301H42.65V60.4601H12.67V68.8301H8.23996C3.35996 68.8301 -0.550041 73.0901 0.0699589 78.0901H0.0599589C0.569959 82.2901 4.35996 85.2801 8.52996 85.2801H68.14L69.6 85.2901C74.17 85.2901 77.87 81.5801 77.87 77.0201V58.5401C79.68 57.8501 80.97 56.1101 80.97 54.0501V42.7101C82.96 41.2401 84.27 38.8801 84.27 36.1901C84.27 31.7101 80.63 28.0701 76.15 28.0701L76.17 28.0601ZM73.62 40.7901L73.91 40.2701C73.2 39.8701 72.6 39.3001 72.17 38.6001H75.43C76.3 38.6001 76.89 37.8401 76.89 37.0401V36.9601C76.89 36.1601 76.29 35.4001 75.43 35.4001H71.57C71.94 33.2001 73.85 31.5101 76.16 31.5101C78.47 31.5101 80.22 33.0601 80.7 35.1301H79.51C78.58 35.1301 77.83 35.8801 77.83 36.8101V36.9001C77.83 37.8301 78.58 38.5801 79.51 38.5801H80.17C79.75 39.2901 79.14 39.8701 78.42 40.2701L77.84 40.5901L77.53 40.7601V54.0301C77.53 54.7901 76.92 55.4001 76.16 55.4001C75.4 55.4001 74.79 54.7901 74.79 54.0301V40.7601L74.48 40.5901L73.9 40.2701L73.61 40.7901H73.62ZM16.12 63.9001H39.2V68.5201H16.12V63.9001Z" fill="black"/>
<path d="M76.23 21.8101C72.83 21.8101 69.64 23.1301 67.23 25.5401C66.57 26.2001 66.57 27.2801 67.23 27.9401C67.56 28.2701 67.99 28.4401 68.43 28.4401C68.87 28.4401 69.3 28.2601 69.63 27.9401C71.39 26.1801 73.74 25.2101 76.23 25.2101C78.72 25.2101 81.06 26.1801 82.83 27.9401C83.49 28.6001 84.57 28.6001 85.23 27.9401C85.89 27.2801 85.89 26.2001 85.23 25.5401C82.82 23.1401 79.63 21.8101 76.23 21.8101Z" fill="black"/>
<path d="M63.3699 21.67C62.7099 22.33 62.7099 23.41 63.3699 24.07C64.0299 24.73 65.1099 24.73 65.7699 24.07C71.5399 18.3 80.9199 18.3 86.6899 24.07C87.0199 24.4 87.4499 24.57 87.8899 24.57C88.3299 24.57 88.7599 24.39 89.0899 24.07C89.7499 23.41 89.7499 22.33 89.0899 21.67C81.9999 14.58 70.4599 14.58 63.3699 21.67Z" fill="black"/>
<path d="M92.5899 18.17C88.2199 13.8 82.4099 11.4 76.2299 11.4C70.0499 11.4 64.2399 13.81 59.8699 18.17L60.2899 18.59L60.2699 18.57L59.8699 18.17C59.2099 18.83 59.2099 19.91 59.8699 20.57C60.5299 21.23 61.6099 21.23 62.2699 20.57C65.9999 16.84 70.9499 14.79 76.2299 14.79C81.5099 14.79 86.4599 16.84 90.1899 20.57C90.5199 20.9 90.9499 21.07 91.3899 21.07C91.8299 21.07 92.2599 20.89 92.5899 20.57C93.2499 19.91 93.2499 18.83 92.5899 18.17Z" fill="black"/>
<rect x="1.8" y="12.8" width="51.4" height="48.4" rx="3.2" stroke="black" stroke-width="3.6"/>
<mask id="path-7-inside-1_7_1559" fill="white">
<rect x="6" y="18" width="43" height="36" rx="2"/>
</mask>
<rect x="6" y="18" width="43" height="36" rx="2" stroke="black" stroke-width="7.2" mask="url(#path-7-inside-1_7_1559)"/>
</svg>
