<svg width="95" height="96" viewBox="0 0 95 96" fill="none" xmlns="http://www.w3.org/2000/svg">
<path d="M50.76 88C75.0605 88 94.76 68.3005 94.76 44C94.76 19.6995 75.0605 0 50.76 0C26.4595 0 6.76001 19.6995 6.76001 44C6.76001 68.3005 26.4595 88 50.76 88Z" fill="#D2DF3F"/>
<path d="M9.23993 43.88V43.87L9.22992 43.85L8.63995 43.93L9.23993 43.88Z" fill="black"/>
<path d="M27.31 88.34L26.71 88.38L27.31 88.33C27.17 86.71 27.0199 85.36 26.7999 84.18C26.7999 84.18 26.7999 84.18 26.7999 84.17C26.4499 82.04 25.2899 80.22 23.6599 79.02C22.0699 77.82 19.9799 77.2 17.8499 77.39L13.03 77.85C12 77.86 11.3299 77.59 10.8699 77.21C10.3999 76.82 10.0999 76.27 9.92995 75.63C9.53995 74.08 9.79993 72.22 9.97993 71.21C10.0799 70.67 9.97995 70.14 9.74995 69.68L9.72993 69.65L9.70998 69.62L9.63997 69.51C9.32997 69.01 8.84996 68.69 8.31996 68.52H8.30995C8.23995 68.5 8.19997 68.48 8.13997 68.46C8.40997 67.9 8.44996 67.26 8.31996 66.71V66.69L8.30995 66.67C8.12995 66.14 7.80995 65.67 7.30995 65.34C7.36995 65.25 7.42994 65.15 7.48994 65.04L7.52998 64.97C7.78998 64.45 7.77996 63.9 7.68996 63.47C7.58996 62.95 7.27994 62.52 6.91994 62.2L6.89998 62.18H6.87996C6.74996 62.07 6.54993 61.92 6.28993 61.81C6.28993 61.81 6.28998 61.81 6.27998 61.81C5.77998 61.59 5.25996 61.47 4.87996 61.39C4.67996 61.35 4.51998 61.33 4.39998 61.32C4.33998 61.32 4.28996 61.31 4.25996 61.3C3.95996 61.24 3.78998 61.15 3.70998 61.08C3.62998 61.01 3.58996 60.94 3.56996 60.86C3.51996 60.69 3.56993 60.52 3.59993 60.44L7.68996 54.5C8.93996 52.61 9.46993 50.64 9.65993 49.02L9.05995 48.95L9.64998 49.02C9.79998 47.39 9.64993 46.08 9.53993 45.37V45.34L9.52998 45.31L9.49995 45.19C9.41995 44.67 9.32993 44.3 9.28993 43.9L8.68996 43.95L9.28993 43.87C9.00993 41.69 9.00998 39.71 9.14998 37.95C9.28998 36.23 9.60998 34.65 9.95998 33.31C10.45 31.6 11.15 29.96 12.08 28.47C13.06 26.93 14.2499 25.5 15.6099 24.24C19.1399 21.03 22.8799 19.02 26.5399 17.86C31.1999 16.38 35.75 16.2 39.57 16.62C40.45 16.73 41.2299 16.08 41.3499 15.2C41.4699 14.31 40.8099 13.53 39.9299 13.41L39.75 13.39L39.6699 13.43C35.5099 13.01 30.56 13.17 25.5 14.8C21.43 16.09 17.2499 18.32 13.3699 21.87C11.8199 23.31 10.42 24.97 9.30995 26.78C8.23995 28.55 7.38997 30.44 6.82997 32.47C6.42997 33.97 6.05993 35.74 5.90993 37.73C5.75993 39.7 5.75994 41.89 6.04994 44.26C6.04994 44.26 6.04994 44.28 6.04994 44.29C6.08994 44.82 6.19997 45.37 6.26997 45.78V45.81L6.27998 45.84L6.30995 45.96C6.40995 46.44 6.50995 47.46 6.36995 48.68C6.22995 49.86 5.82994 51.32 4.91994 52.7L0.749954 58.77L0.729935 58.8L0.709976 58.84L0.639969 58.98L0.579971 59.11V59.14C0.579971 59.14 0.559942 59.19 0.549942 59.22C0.499942 59.34 0.449969 59.52 0.389969 59.73C0.279969 60.15 0.179944 60.73 0.239944 61.36C0.299944 62 0.52993 62.69 1.09993 63.28C1.65993 63.87 2.50998 64.3 3.70998 64.52H3.72993H3.74995C3.74995 64.52 3.74997 64.52 3.76997 64.52C3.78997 64.52 3.80998 64.52 3.83998 64.52C3.88998 64.52 3.95997 64.54 4.01997 64.55C3.88997 64.92 3.82994 65.32 3.85994 65.72V65.74V65.76C3.94994 66.4 4.23994 67 4.85994 67.53L4.91994 67.58H4.94997C4.77997 68.11 4.67994 68.72 4.85994 69.36L4.87996 69.42L4.90993 69.47L4.94997 69.54C5.18997 70.29 5.77996 70.89 6.68996 71.32C6.48996 72.61 6.32995 74.6 6.80995 76.44C7.13995 77.66 7.72996 78.84 8.75996 79.71C9.79996 80.59 11.2399 81.1 13.1599 81.06H13.1799H13.2L18.1699 80.59C19.4499 80.46 20.71 80.85 21.71 81.59C22.71 82.33 23.41 83.42 23.64 84.7C23.82 85.77 23.9899 87.04 24.0999 88.53C24.2099 90.06 24.28 91.85 24.28 93.92C24.28 94.83 25.0199 95.56 25.9199 95.56C26.8199 95.56 27.56 94.82 27.56 93.92C27.56 91.78 27.49 89.93 27.38 88.3L27.31 88.34ZM6.81996 65.72V65.74H6.80995V65.72H6.81996Z" fill="black"/>
<path d="M61.2599 60.48C60.5399 59.92 59.5499 60.03 58.9799 60.77L59.45 61.13L58.9699 60.77C56.4899 64.01 55.2799 67.51 54.6899 70.19C54.3999 71.53 54.2499 72.68 54.1899 73.49C54.1599 73.9 54.1399 74.22 54.1299 74.45C54.1299 74.56 54.1299 74.65 54.1299 74.71C54.1299 74.77 54.1299 74.81 54.1299 74.8V93.91C54.1299 94.82 54.87 95.55 55.77 95.55C56.67 95.55 57.4099 94.81 57.4099 93.91V93.31H57.34V74.8C57.34 74.8 57.34 74.79 57.34 74.78C57.34 74.77 57.34 74.75 57.34 74.73C57.34 74.68 57.34 74.61 57.34 74.52C57.34 74.34 57.36 74.06 57.39 73.71C57.45 73.01 57.57 72.03 57.83 70.86C58.35 68.53 59.4 65.51 61.53 62.74C62.09 62.02 61.9799 61.03 61.2399 60.46L61.2599 60.48Z" fill="black"/>
<path d="M55.9699 19.79C54.1099 19.79 52.4499 20.54 51.2299 21.77L51.5099 22.05L51.65 22.19L51.2299 21.77C50.0099 22.99 49.2499 24.65 49.2499 26.51C49.2499 28.37 49.9999 30.03 51.2299 31.25C52.4499 32.47 54.1099 33.23 55.9699 33.23C57.8299 33.23 59.49 32.48 60.71 31.25L60.4999 31.04L60.4299 30.97L60.71 31.25C61.93 30.03 62.6899 28.37 62.6899 26.51C62.6899 24.65 61.94 22.99 60.71 21.77C59.49 20.55 57.8299 19.79 55.9699 19.79ZM58.4299 28.96C57.7699 29.58 56.9099 29.98 55.9699 29.98C55.0299 29.98 54.13 29.58 53.52 28.97C52.9 28.31 52.4999 27.45 52.4999 26.51C52.4999 25.57 52.8999 24.67 53.5099 24.06C54.1699 23.44 55.0299 23.04 55.9699 23.04C56.9099 23.04 57.8099 23.44 58.4199 24.05C59.0399 24.71 59.4399 25.57 59.4399 26.51C59.4399 27.45 59.0399 28.35 58.4299 28.96Z" fill="black"/>
<path d="M50.8599 14.4299L50.83 14.4399L50.7999 14.4599L51.0699 14.9899L50.8599 14.4299Z" fill="black"/>
<path d="M72.0099 25.18C72.0099 24.59 71.8799 23.97 71.3699 23.4C71.3699 23.4 71.3699 23.39 71.3599 23.38C71.3599 23.38 71.3599 23.37 71.3499 23.36C70.9399 22.87 70.3099 22.55 69.4499 22.32L68.2 21.97C68.13 21.78 68.0599 21.58 67.9799 21.39V21.36L67.95 21.33C67.88 21.2 67.8299 21.07 67.7599 20.92C67.7399 20.88 67.72 20.83 67.7 20.79L68.33 19.7C68.76 18.95 68.95 18.31 68.95 17.71C68.95 16.89 68.5899 16.35 68.1599 15.92L66.4 14.16C66 13.76 65.4799 13.42 64.6899 13.38C64.0599 13.34 63.37 13.54 62.59 14L61.45 14.67C61.27 14.59 61.0599 14.49 60.8699 14.42C60.7299 14.35 60.58 14.29 60.46 14.24C60.39 14.21 60.34 14.2 60.28 14.18L59.9799 13L59.4 13.15L59.9799 12.99C59.7499 12.13 59.4199 11.52 58.9999 11.1C58.4199 10.52 57.7799 10.38 57.1699 10.38H54.65C54.06 10.38 53.4399 10.51 52.8699 11.02C52.8699 11.02 52.8699 11.02 52.8599 11.03C52.8599 11.03 52.85 11.03 52.84 11.04C52.35 11.45 52.0299 12.08 51.7999 12.94L51.45 14.19C51.4 14.21 51.3499 14.23 51.2999 14.24C51.1599 14.29 51.0099 14.35 50.8699 14.4L51.08 14.96L50.8099 14.42C50.6799 14.49 50.55 14.54 50.4 14.61C50.36 14.63 50.31 14.65 50.27 14.67L49.1799 14.04C48.4299 13.61 47.7899 13.42 47.1899 13.42C46.3699 13.42 45.83 13.78 45.4 14.21L43.64 15.97C43.24 16.37 42.8999 16.89 42.8599 17.68C42.8099 18.31 43.0099 19 43.4799 19.78L44.15 20.91C44.07 21.09 43.97 21.3 43.9 21.49C43.83 21.63 43.7599 21.78 43.7199 21.9C43.6999 21.95 43.6899 21.99 43.6799 22.03L42.4799 22.34C41.6199 22.57 41.01 22.9 40.59 23.32C40.01 23.9 39.8699 24.54 39.8699 25.15V27.67C39.8699 28.26 39.9999 28.88 40.5099 29.45C40.5099 29.45 40.51 29.46 40.52 29.47C40.52 29.47 40.52 29.48 40.53 29.49C40.94 29.98 41.5699 30.3 42.4299 30.53L43.6799 30.88C43.6999 30.93 43.7199 30.98 43.7299 31.03C43.7799 31.17 43.84 31.32 43.89 31.46V31.49L43.9199 31.52C43.9899 31.65 44.0399 31.78 44.1099 31.93C44.1299 31.97 44.1499 32.02 44.1699 32.06L43.5399 33.15C43.1099 33.9 42.9199 34.54 42.9199 35.14C42.9199 35.96 43.28 36.5 43.71 36.93L45.4699 38.69C45.8699 39.09 46.3899 39.43 47.1799 39.47C47.8099 39.51 48.5 39.31 49.28 38.85L50.4199 38.18C50.5999 38.26 50.8099 38.36 50.9999 38.43C51.1399 38.5 51.2799 38.56 51.4099 38.61C51.4599 38.63 51.4999 38.64 51.5399 38.65L51.8499 39.85C52.0799 40.71 52.41 41.32 52.83 41.74C53.41 42.32 54.0499 42.46 54.6599 42.46H57.1799C57.7699 42.46 58.39 42.33 58.96 41.82C58.96 41.82 58.9599 41.82 58.9699 41.81C58.9699 41.81 58.9799 41.81 58.9899 41.8C59.4799 41.39 59.8 40.76 60.03 39.9L60.3799 38.65C60.5699 38.58 60.77 38.51 60.96 38.43H60.9899L61.02 38.4C61.15 38.33 61.2799 38.28 61.4299 38.21C61.4699 38.19 61.5199 38.17 61.5599 38.15L62.65 38.78C63.4 39.21 64.04 39.4 64.64 39.4C65.46 39.4 65.9999 39.04 66.4299 38.61L68.1899 36.85C68.5899 36.45 68.9299 35.93 68.9699 35.14C69.0199 34.51 68.8199 33.82 68.3499 33.04L67.6799 31.9C67.7599 31.72 67.8599 31.51 67.9299 31.32C67.9999 31.18 68.0699 31.03 68.1099 30.91C68.1299 30.86 68.14 30.82 68.15 30.78L69.39 30.46C70.25 30.23 70.86 29.9 71.28 29.48C71.86 28.9 71.9999 28.26 71.9999 27.65V25.13L72.0099 25.18ZM54.7399 39.57V39.78L55.03 39.64L54.89 39.78H54.7499C54.7499 39.78 54.6999 39.68 54.6699 39.61C54.6999 39.6 54.7199 39.58 54.7499 39.57H54.7399ZM68.58 27.29L66.4899 27.83C65.8999 27.99 65.4599 28.47 65.3199 29.03C65.2199 29.37 65.0799 29.74 64.9399 30.09C64.7999 30.43 64.6399 30.8 64.4399 31.12V31.14C64.1699 31.63 64.1499 32.24 64.4399 32.73L65.52 34.64V34.65C65.56 34.72 65.5999 34.78 65.6299 34.84L64.4299 36.04C64.3799 36.01 64.3199 35.98 64.2499 35.94L62.3799 34.86C61.8799 34.58 61.3099 34.58 60.8099 34.86C60.4199 35.05 60.0699 35.24 59.7399 35.38C59.3299 35.53 59.0099 35.66 58.6299 35.75H58.6199H58.6099C58.0699 35.91 57.6199 36.34 57.4899 36.93L56.95 39.02V39.04V39.06C56.95 39.11 56.9299 39.14 56.9199 39.18H55.1799C55.1799 39.18 55.15 39.1 55.14 39.04V39.02L54.5999 36.93L54.02 37.08L54.5999 36.92C54.4399 36.33 53.96 35.89 53.4 35.75C53.06 35.64 52.68 35.51 52.33 35.37C51.99 35.23 51.6199 35.07 51.2999 34.87V34.86C50.8099 34.59 50.2 34.57 49.71 34.86L47.7999 35.94C47.7299 35.98 47.6699 36.02 47.6099 36.05L46.4099 34.85C46.4399 34.8 46.4699 34.74 46.5099 34.67L47.59 32.8C47.87 32.3 47.87 31.73 47.59 31.23C47.4 30.84 47.1999 30.49 47.0699 30.16C46.9199 29.75 46.79 29.43 46.7 29.05V29.02C46.54 28.48 46.11 28.03 45.52 27.9L43.4299 27.36H43.4099H43.39C43.34 27.36 43.31 27.34 43.27 27.33V25.59C43.27 25.59 43.3499 25.56 43.4099 25.55H43.4199L45.5099 25.01C46.0999 24.85 46.5399 24.37 46.6799 23.81C46.7799 23.47 46.9199 23.1 47.0599 22.75C47.1999 22.41 47.3599 22.04 47.5599 21.72V21.7C47.8299 21.21 47.8499 20.6 47.5599 20.11L46.4799 18.2V18.19C46.4399 18.12 46.3999 18.06 46.3699 18L47.5699 16.8C47.6199 16.83 47.6799 16.86 47.7499 16.9L49.6199 17.98C50.1299 18.26 50.71 18.26 51.21 17.98V17.97C51.56 17.76 51.9199 17.56 52.2399 17.44C52.6499 17.29 52.9699 17.16 53.3499 17.07H53.3599H53.3699C53.9099 16.91 54.3599 16.48 54.4899 15.89L55.03 13.8V13.78V13.76C55.03 13.71 55.0499 13.68 55.0599 13.64H56.7999C56.7999 13.64 56.83 13.72 56.84 13.78V13.8L57.3799 15.89L57.96 15.74L57.3799 15.9C57.5399 16.49 58.02 16.93 58.58 17.07C58.8 17.14 59.03 17.22 59.27 17.31V17.34L59.65 17.49C59.99 17.63 60.3599 17.79 60.6799 17.99V18C61.1699 18.27 61.78 18.29 62.27 18L64.1799 16.92C64.2499 16.88 64.3099 16.84 64.3699 16.81L65.5699 18.01C65.5399 18.06 65.5099 18.12 65.4699 18.19L64.39 20.05C64.11 20.55 64.11 21.12 64.39 21.62C64.58 22.01 64.7799 22.36 64.9099 22.69C65.0599 23.1 65.19 23.42 65.28 23.8L65.8599 23.65L65.2899 23.82C65.4499 24.36 65.8799 24.81 66.4699 24.94L68.5599 25.48L68.71 24.9L68.5999 25.49C68.5999 25.49 68.6799 25.51 68.7199 25.52V27.26C68.7199 27.26 68.64 27.29 68.58 27.3H68.5699H68.5599L68.58 27.29ZM57.21 13.01L57.14 13.05L57.1799 13.01H57.2199H57.21ZM57.21 13.22V13.01C57.21 13.01 57.25 13.11 57.28 13.18C57.26 13.2 57.23 13.21 57.21 13.23V13.22ZM42.7499 25.47L42.6099 25.33V25.19L42.7499 25.48V25.47ZM42.7399 25.18H42.6099C42.6099 25.18 42.68 25.15 42.71 25.14C42.72 25.15 42.7299 25.17 42.7399 25.18ZM69.3499 27.59V27.66L69.28 27.52L69.3499 27.59ZM69.06 27.66H69.3499C69.3499 27.66 69.2099 27.72 69.0899 27.77C69.0799 27.73 69.07 27.7 69.06 27.66Z" fill="black"/>
<path d="M65.3199 23.8L65.9 23.63L65.3199 23.78V23.79V23.8Z" fill="black"/>
<path d="M68.64 25.48L68.7399 24.89L68.59 25.47L68.6099 25.48H68.64Z" fill="black"/>
<path d="M47.15 40.85H47.14L47.1799 41.45L47.15 40.85Z" fill="black"/>
<path d="M40.4699 33.76C40.4699 33.76 40.46 33.76 40.45 33.76C40.19 33.73 39.9199 33.72 39.7299 33.72C37.2299 33.72 34.9599 34.72 33.2999 36.37C31.6399 38 30.64 40.31 30.64 42.8C30.64 45.29 31.6399 47.54 33.2599 49.19L33.33 49.26C34.96 50.92 37.2699 51.92 39.7599 51.92C42.2499 51.92 44.5399 50.92 46.1899 49.26C47.8499 47.6 48.8499 45.33 48.8499 42.83V42.36C48.7899 41.52 48.0699 40.77 47.1299 40.83C46.4999 40.87 45.9099 41.3 45.6899 41.91H45.4899V42.87C45.4899 44.51 44.8399 45.97 43.7899 47.02C42.7499 48.06 41.28 48.72 39.64 48.72C38 48.72 36.5399 48.04 35.4899 46.99L35.46 46.96C34.44 45.87 33.7899 44.43 33.7899 42.84C33.7899 41.25 34.47 39.74 35.52 38.69C36.6 37.61 38.0399 36.96 39.6699 36.96C39.7299 36.96 39.7899 36.96 39.8799 36.98C39.9599 36.98 40.0599 37 40.1699 37C40.1699 37 40.1699 37 40.1799 37H40.2C41.05 37.03 41.8599 36.43 41.9099 35.5L41.3099 35.46H41.4399L41.9099 35.5C41.9599 34.65 41.3799 33.85 40.4699 33.76C40.4699 33.76 40.4399 33.76 40.4299 33.76H40.4699Z" fill="black"/>
<path d="M24.5699 51.36L24.5599 51.37L25.09 51.67L24.5699 51.36Z" fill="black"/>
<path d="M58.34 45.36L57.7599 45.51L58.34 45.36Z" fill="black"/>
<path d="M36.3599 30.62H36.3699L36.3799 30.61L36.21 30.04L36.3599 30.62Z" fill="black"/>
<path d="M54.8799 55.62H54.89V55.6C55.3 55.15 55.6799 54.59 55.7299 53.72C55.7699 53.01 55.5299 52.25 54.9999 51.34L54.08 49.74C54.21 49.48 54.3299 49.23 54.4399 48.96L54.4799 48.89C54.6299 48.59 54.74 48.26 54.84 47.97L57.1899 47.37C58.0599 47.14 58.56 46.23 58.33 45.37C58.23 44.98 57.9899 44.68 57.6799 44.47L58.5699 43.58L56.45 44.12L53.21 44.95C52.64 45.1 52.1799 45.53 52.0399 46.12C51.8999 46.61 51.7599 47.05 51.5699 47.51L51.5499 47.56V47.59L51.53 47.62C51.36 48.06 51.1599 48.5 50.9199 48.9C50.6499 49.4 50.6299 50.02 50.9199 50.51L52.28 52.87C52.4 53.1 52.47 53.27 52.52 53.4L50.53 55.39C50.42 55.34 50.2699 55.27 50.0599 55.14H50.0499L49.7499 55.65L50.0499 55.13L47.71 53.76H47.7C47.19 53.48 46.6099 53.48 46.1099 53.76H46.0999L46.09 53.77C45.66 54.03 45.2 54.23 44.71 54.46L44.96 55L44.9099 54.9L44.71 54.46C44.28 54.66 43.7999 54.83 43.2999 54.96C42.7699 55.12 42.3099 55.55 42.1799 56.14L41.4999 58.76C41.4299 59.01 41.38 59.17 41.34 59.29H38.59C38.54 59.17 38.4799 59 38.4199 58.76L37.7399 56.17C37.5799 55.57 37.0999 55.13 36.5399 55C36.0999 54.86 35.6199 54.69 35.1599 54.51L35.1199 54.49H35.09L35.0599 54.47C34.6199 54.3 34.18 54.1 33.78 53.86H33.77C33.28 53.58 32.6599 53.57 32.1699 53.86L29.8099 55.21C29.5799 55.33 29.41 55.4 29.28 55.45L27.2999 53.47C27.3499 53.35 27.4199 53.2 27.5499 53L28.9199 50.65C29.1999 50.13 29.1999 49.55 28.9199 49.05V49.03C28.6599 48.6 28.4599 48.14 28.2299 47.65C28.0299 47.22 27.8599 46.74 27.7199 46.24V46.22C27.5599 45.69 27.1299 45.23 26.5399 45.1L23.9199 44.41C23.6699 44.34 23.51 44.29 23.39 44.25V41.5C23.51 41.45 23.6799 41.39 23.9199 41.33L26.5099 40.65C27.0599 40.48 27.4699 40.08 27.6299 39.53V39.51C27.7699 39 27.9399 38.52 28.1099 38.07C28.3199 37.58 28.5299 37.13 28.7599 36.69C29.0299 36.2 29.0399 35.59 28.7599 35.1L27.4 32.74C27.28 32.51 27.2099 32.34 27.1599 32.21L29.14 30.23C29.26 30.28 29.4099 30.35 29.6099 30.48H29.6199L29.9199 29.97L29.6199 30.49L31.96 31.86H31.9699C32.4799 32.15 33.0599 32.15 33.5599 31.86H33.5699L33.58 31.85C34.01 31.59 34.47 31.39 34.96 31.16L34.71 30.62L34.7499 30.7L34.96 31.16C35.39 30.96 35.8699 30.79 36.3699 30.66L36.2199 30.08L36.39 30.65C36.93 30.49 37.39 30.05 37.52 29.46L38.3499 26.15C38.5799 25.23 37.9999 24.39 37.1699 24.17C36.2499 23.94 35.4099 24.52 35.1899 25.35L35.77 25.5L35.1899 25.36L34.59 27.78C34.3 27.88 33.9999 27.99 33.6899 28.13C33.3999 28.26 33.1099 28.4 32.8199 28.54L31.2599 27.62C30.3799 27.12 29.63 26.89 28.95 26.89C28.06 26.89 27.4499 27.28 26.9799 27.75L24.7499 29.98H24.7399V30C24.3299 30.45 23.95 31.01 23.9 31.88C23.86 32.59 24.0999 33.35 24.6299 34.26L25.5399 35.85C25.3899 36.14 25.25 36.43 25.14 36.74C25 37.05 24.88 37.36 24.78 37.68L23.0499 38.14C22.0699 38.37 21.3299 38.73 20.8599 39.25C20.2799 39.88 20.09 40.54 20.09 41.24V44.41C20.09 45.04 20.2199 45.75 20.8199 46.4C21.2799 46.9 21.9699 47.31 23.0099 47.58L24.78 48.07C24.88 48.39 25 48.7 25.14 49.01V49.03C25.23 49.2 25.31 49.39 25.4 49.58C25.44 49.67 25.49 49.76 25.53 49.85L24.6099 51.41C24.1099 52.29 23.8799 53.04 23.8799 53.72C23.8799 54.61 24.2699 55.22 24.7399 55.69L26.9699 57.92H26.9799L26.9899 57.94C27.4399 58.35 27.9999 58.73 28.8699 58.78C29.5799 58.82 30.3399 58.58 31.2499 58.05L32.8499 57.13C33.1099 57.26 33.3599 57.38 33.6299 57.49L33.7 57.53H33.71H33.7199C34.0299 57.67 34.3599 57.78 34.6599 57.88L35.1199 59.62C35.3499 60.56 35.71 61.29 36.21 61.76C36.21 61.76 36.2099 61.76 36.2199 61.77C36.2199 61.77 36.2199 61.77 36.2199 61.78C36.8599 62.41 37.53 62.55 38.21 62.55H41.3799C42.0099 62.55 42.7199 62.42 43.3699 61.82C43.8699 61.36 44.2799 60.67 44.5499 59.63L45.0399 57.86C45.3599 57.76 45.6699 57.64 45.9799 57.5H45.9899H45.9999C46.1699 57.41 46.3599 57.33 46.5499 57.24C46.6399 57.2 46.7299 57.15 46.8199 57.11L48.3799 58.03C49.2599 58.53 50.0099 58.76 50.6899 58.76C51.5799 58.76 52.1899 58.37 52.6599 57.9L54.89 55.67L54.8799 55.62ZM23.2 41.55L22.78 41.13L22.8099 41.16L23.2 41.55Z" fill="black"/>
</svg>
