<svg width="89" height="95" viewBox="0 0 89 95" fill="none" xmlns="http://www.w3.org/2000/svg">
<path d="M44.76 88C69.0605 88 88.76 68.3005 88.76 44C88.76 19.6995 69.0605 0 44.76 0C20.4595 0 0.76001 19.6995 0.76001 44C0.76001 68.3005 20.4595 88 44.76 88Z" fill="#D2DF3F"/>
<path fill-rule="evenodd" clip-rule="evenodd" d="M65.19 81.4201V61.2C65.19 60.33 64.48 59.62 63.61 59.62H60.86V53.94C60.86 53.94 60.86 53.8501 60.86 53.8101L60.81 53.21H60.79C60.78 53.13 60.77 53.04 60.75 52.94C60.67 52.42 60.53 51.6801 60.3 50.7901C59.85 49.0101 59.04 46.5901 57.62 44.0401C54.77 38.9301 49.45 33.3401 39.74 31.3301L38.48 30.9101L38.34 30.7701L48.86 20.3001C49.16 20.0001 49.32 19.6001 49.32 19.1901C49.32 18.7701 49.15 18.3701 48.86 18.0701L44.64 13.8501L44.22 14.2701L44.43 14.0601L44.64 13.8501C44.03 13.2401 43.03 13.2301 42.41 13.8501L31.86 24.3501L30.01 22.5101C29.39 21.9001 28.4 21.9001 27.79 22.5101L20.59 29.7101C20.29 30.0101 20.13 30.4101 20.13 30.8201V33.42L19.33 32.6301C18.71 32.0201 17.72 32.0201 17.1 32.6301L17.44 32.9701L17.52 33.0501L17.1 32.6301L13.33 36.4001C13.03 36.7001 12.87 37.1001 12.87 37.5201C12.87 37.9401 13.04 38.3401 13.33 38.6301L14.21 39.5001L9.01001 44.6601C8.71001 44.9601 8.53998 45.36 8.53998 45.78H8.94H9.14001H8.53998C8.53998 46.2 8.71 46.6001 9 46.9001L12.88 50.78C13.18 51.08 13.58 51.2401 14 51.2401C14.42 51.2401 14.82 51.0701 15.12 50.7701L20.13 45.7201V55.4001C20.13 56.2701 20.84 56.98 21.71 56.98H27.5C28.37 56.98 29.08 56.2701 29.08 55.4001V52.2701C29.08 52.2701 29.15 52.22 29.18 52.19L32.95 48.42C33.25 48.12 33.41 47.72 33.41 47.3C33.41 46.88 33.24 46.48 32.95 46.19L32.53 45.7701L37.7 41.5301C42.09 44.9001 44.72 50.1801 44.72 55.7401V59.62H43.43C42.56 59.62 41.85 60.33 41.85 61.2V62.5501H11.6C10.73 62.5501 10.02 63.26 10.02 64.13C10.02 65 10.73 65.71 11.6 65.71H41.85V79.8801H8.72998C7.85998 79.8801 7.15002 80.5901 7.15002 81.4601V87.2501C7.15002 88.1201 7.85998 88.8301 8.72998 88.8301H11.48V93.0501C11.48 93.9201 12.19 94.6301 13.06 94.6301H21.72C22.59 94.6301 23.3 93.9201 23.3 93.0501V88.8301H49.05V93.0501C49.05 93.9201 49.76 94.6301 50.63 94.6301H59.29C60.16 94.6301 60.87 93.9201 60.87 93.0501V88.8301H63.62C64.49 88.8301 65.2 88.1201 65.2 87.2501V81.4601C65.2 81.4601 65.2 81.4501 65.2 81.4401L65.19 81.4201ZM62.04 85.6501H10.31V83.0101H62.04V85.6501ZM57.71 88.8001V91.4401H52.2V88.8001H57.71ZM20.14 88.8001V91.4401H14.63V88.8001H20.14ZM44.99 64.13C44.99 64.13 44.99 64.1201 44.99 64.1101C44.99 64.1001 44.99 64.1 44.99 64.09V62.7601H46.28H59.27H62.02V79.8501H44.98V64.13H44.99ZM47.86 59.6101V55.73C47.86 49.03 44.61 42.6701 39.2 38.7301V34.4401C47.79 36.2501 52.38 41.14 54.85 45.57C56.11 47.82 56.82 49.97 57.22 51.55C57.42 52.34 57.54 52.98 57.61 53.42C57.64 53.64 57.67 53.81 57.68 53.92C57.68 53.92 57.68 53.98 57.68 54.01V59.6101H47.84H47.86ZM18.23 35.9701L28.85 46.55C28.85 46.55 28.9 46.63 28.93 46.66C29.03 46.78 29.15 46.88 29.27 46.96L29.6 47.2901L28.06 48.8301L22.94 43.7301C22.86 43.6301 22.77 43.5401 22.67 43.4601L21.56 42.3601C21.51 42.3001 21.47 42.2301 21.41 42.1801C21.36 42.1301 21.29 42.0801 21.23 42.0401L17.79 38.6201C17.73 38.5301 17.67 38.4501 17.59 38.3701C17.51 38.2901 17.42 38.2201 17.33 38.1601L16.68 37.51L18.22 35.9701H18.23ZM18.07 43.3301L14.01 47.43L12.37 45.7901L16.46 41.7301L18.07 43.3301ZM25.93 51.16V53.82H23.29V48.53L25.93 51.16ZM23.29 36.5601V31.4701L28.92 25.8401L36.06 32.9301V38.7801L30.29 43.51L23.3 36.5501L23.29 36.5601ZM43.53 17.1901L45.52 19.1801L36.11 28.5501L34.11 26.5701L43.53 17.1901Z" fill="black"/>
<path fill-rule="evenodd" clip-rule="evenodd" d="M53.55 65.41C50.25 65.41 47.64 68.1 47.64 71.32C47.64 74.54 50.33 77.23 53.55 77.23C56.77 77.23 59.46 74.54 59.46 71.32C59.46 68.1 56.77 65.41 53.55 65.41ZM53.55 74.07C52.05 74.07 50.8 72.85 50.8 71.32C50.8 69.79 52.02 68.57 53.55 68.57C55.08 68.57 56.3 69.79 56.3 71.32C56.3 72.85 55.08 74.07 53.55 74.07Z" fill="black"/>
</svg>
