<svg width="55" height="37" viewBox="0 0 55 37" fill="none" xmlns="http://www.w3.org/2000/svg">
<path d="M0.368408 4.79382C0.368408 2.30854 2.37134 0.293823 4.84209 0.293823H49.5789C52.0497 0.293823 54.0526 2.30854 54.0526 4.79382V31.7938C54.0526 34.2791 52.0497 36.2938 49.5789 36.2938H4.84209C2.37134 36.2938 0.368408 34.2791 0.368408 31.7938V4.79382Z" fill="#FFDBC7"/>
<path d="M32.9949 7.63769L21.2591 7.73901L21.425 28.9517L33.1607 28.8504L32.9949 7.63769Z" fill="#FF5F00"/>
<path d="M22.0824 18.3271C22.0486 14.0184 24.0308 10.1793 27.1044 7.67971C24.8171 5.90091 21.9393 4.83914 18.8091 4.86619C11.3935 4.93027 5.44131 11.0144 5.4998 18.4704C5.5583 25.9265 11.6052 31.9069 19.0207 31.8428C22.1509 31.8158 25.0117 30.7044 27.2707 28.8863C24.1587 26.4777 22.1162 22.6359 22.0824 18.3271Z" fill="#EB001B"/>
<path d="M48.9211 18.1188C48.9796 25.5749 43.0273 31.659 35.6117 31.7231C32.4815 31.7501 29.6036 30.6884 27.3164 28.9096C30.4272 26.4097 32.3722 22.5709 32.3384 18.2621C32.3046 13.9534 30.2624 10.1491 27.15 7.70294C29.409 5.88485 32.2699 4.77349 35.4001 4.74645C42.8157 4.68237 48.8629 10.7003 48.9211 18.1188Z" fill="#FE8B4B"/>
</svg>
