<svg width="101" height="87" viewBox="0 0 101 87" fill="none" xmlns="http://www.w3.org/2000/svg">
<circle cx="57.5" cy="43.5" r="43.5" fill="#D2DF3F"/>
<g clip-path="url(#clip0_612_6077)">
<path d="M10.1215 31.4926C10.257 30.3065 10.3894 29.1926 10.5099 28.0786C10.7688 25.6913 10.9976 23.3009 11.2806 20.9195C11.6358 17.909 14.544 15.7444 17.7081 16.0244C23.0188 16.494 28.3324 16.9155 33.643 17.3641C38.7309 17.7946 43.8157 18.2401 48.9036 18.6646C53.3923 19.0409 57.8841 19.3932 62.3728 19.7635C65.5158 20.0224 68.6679 20.194 71.7959 20.5884C75.255 21.0249 77.257 23.7796 76.9409 27.2236C76.5104 31.9081 76.1522 36.5955 75.7548 41.283C75.3754 45.7687 74.9871 50.2575 74.6047 54.7432C74.4482 56.5887 74.2104 58.4311 74.1592 60.2766C74.0779 63.2691 71.4436 66.4121 67.2289 65.8341C66.8405 65.7799 66.4491 65.7618 65.9765 65.7197C65.9765 67.526 65.9795 69.2481 65.9765 70.9671C65.9704 72.5808 65.4857 74.0198 64.3477 75.197C63.1556 76.4343 61.6804 77.0003 59.9674 77.0003C50.1981 77.0003 40.4288 77.0003 30.6626 77.0003C22.4979 77.0003 14.3303 77.0003 6.16563 77.0003C2.4506 77.0003 0 74.5527 0 70.8437C0 59.7769 0 48.71 0 37.6432C0 33.9884 2.45361 31.5167 6.10843 31.4956C7.40899 31.4866 8.70955 31.4956 10.1215 31.4956V31.4926ZM62.9569 52.7081H3.01056V53.5841C3.01056 59.2681 3.01056 64.955 3.01056 70.639C3.01056 72.9541 4.04017 73.9867 6.34927 73.9867C24.1116 73.9867 41.8739 73.9867 59.6362 73.9867C61.8791 73.9867 62.9569 72.918 62.9569 70.6811C62.9569 64.946 62.9569 59.2109 62.9569 53.4757V52.705V52.7081ZM65.9734 62.6911C66.8586 62.7603 67.6323 62.8657 68.403 62.8657C69.7637 62.8687 70.968 61.8331 71.0914 60.5084C71.4196 56.9469 71.7056 53.3794 72.0036 49.8119C72.3257 45.9463 72.6358 42.0808 72.961 38.2152C73.2861 34.3496 73.6383 30.4871 73.9424 26.6215C74.0719 24.9507 73.0121 23.6862 71.3443 23.5387C66.982 23.1504 62.6137 22.8102 58.2483 22.4489C55.006 22.181 51.7636 21.916 48.5212 21.6481C44.5292 21.3169 40.5402 20.9797 36.5482 20.6456C33.2547 20.3686 29.9641 20.0856 26.6706 19.8086C23.5035 19.5407 20.3363 19.2547 17.1662 19.0199C15.685 18.9115 14.4567 19.9291 14.2731 21.3892C13.9931 23.623 13.7733 25.8629 13.5325 28.0997C13.4121 29.2046 13.3037 30.3125 13.1833 31.4836H14.2701C29.35 31.4836 44.4329 31.4836 59.5128 31.4926C60.2082 31.4926 60.9217 31.5408 61.5961 31.7064C64.2755 32.3627 65.9674 34.6627 65.9704 37.6101C65.9765 45.6483 65.9704 53.6865 65.9704 61.7277V62.6881L65.9734 62.6911ZM62.8997 49.5951V43.4355H3.07378V49.5951H62.8997ZM3.01959 40.3166H62.9569C62.9569 39.5007 62.9569 38.73 62.9569 37.9593C62.9569 35.5298 61.9242 34.5062 59.4767 34.5062C41.8197 34.5062 24.1598 34.5062 6.50281 34.5062C6.20176 34.5062 5.9007 34.4942 5.60266 34.5273C4.19371 34.6868 3.11593 35.6954 3.03465 37.0321C2.96841 38.1008 3.0226 39.1786 3.0226 40.3136L3.01959 40.3166Z" fill="black"/>
<path d="M49.3793 69.531C47.1003 69.531 44.8213 69.5371 42.5453 69.531C41.1875 69.525 40.7028 69.0343 40.6998 67.6645C40.6938 64.7623 40.6938 61.8571 40.6998 58.9549C40.7028 57.6062 41.2056 57.1034 42.5664 57.1004C47.1485 57.0944 51.7305 57.0914 56.3126 57.1004C57.6493 57.1004 58.1731 57.6453 58.1761 58.976C58.1792 61.8782 58.1792 64.7834 58.1761 67.6856C58.1761 68.9771 57.6433 69.522 56.3668 69.528C54.0396 69.5371 51.7095 69.528 49.3823 69.531H49.3793ZM43.7495 66.4512H55.1144V60.1742H43.7495V66.4512Z" fill="black"/>
</g>
<defs>
<clipPath id="clip0_612_6077">
<rect width="76.971" height="61" fill="white" transform="translate(0 16)"/>
</clipPath>
</defs>
</svg>
