<svg width="123" height="123" viewBox="0 0 123 123" fill="none" xmlns="http://www.w3.org/2000/svg">
<circle cx="61.5" cy="61.5" r="61.5" fill="#D2DF3F"/>
<g clip-path="url(#clip0_612_6075)">
<path d="M61.5111 93C44.1432 93.0074 30 78.8636 30 61.4963C30 44.1314 44.1505 29.9901 61.5185 30C78.8839 30.0099 93.0148 44.1659 93 61.5357C92.9828 78.876 78.8519 92.9951 61.5111 93.0025V93ZM61.4618 88.9484C76.6002 88.9804 88.9105 76.7121 88.945 61.5505C88.9795 46.4012 76.7283 34.096 61.5653 34.0516C46.3973 34.0073 34.0673 46.2953 34.0476 61.4791C34.0279 76.6234 46.2963 88.9163 61.4594 88.9484H61.4618Z" fill="black"/>
<path d="M57.4461 64.547V67.29H58.094C61.4148 67.29 64.7381 67.2851 68.059 67.2974C68.4408 67.2974 68.8448 67.3393 69.2021 67.465C70.0668 67.7706 70.6087 68.7687 70.4461 69.6362C70.2564 70.6492 69.4632 71.3318 68.4162 71.3367C65.9157 71.3491 63.4127 71.3417 60.9123 71.3417C59.7692 71.3417 58.6261 71.3417 57.419 71.3417C57.419 72.606 57.419 73.8086 57.419 75.0113C57.419 75.7137 57.2687 76.3594 56.7045 76.835C56.0887 77.3551 55.3865 77.4955 54.6401 77.1899C53.8764 76.8769 53.4157 76.2855 53.3886 75.45C53.3541 74.3237 53.3763 73.195 53.3738 72.0662C53.3738 71.8469 53.3738 71.6251 53.3738 71.3417C52.5412 71.3417 51.7701 71.3466 50.9965 71.3417C49.7204 71.3318 48.8311 70.5037 48.8286 69.3282C48.8286 68.16 49.7106 67.3172 50.9867 67.2925C51.7602 67.2777 52.5338 67.29 53.3418 67.29V64.5446C52.5215 64.5446 51.7282 64.5717 50.9374 64.5397C49.3928 64.4756 48.4394 63.1448 48.9666 61.7967C49.2794 60.9982 49.8855 60.5447 50.7477 60.5151C51.5878 60.4856 52.4278 60.5077 53.3763 60.5077V59.7733C53.3763 55.8375 53.3763 51.8992 53.3763 47.9634C53.3763 46.4453 54.1671 45.6296 55.6772 45.6394C58.9759 45.6616 62.2869 45.5507 65.5733 45.7824C69.2809 46.0461 72.2839 47.7638 74.0651 51.1451C76.6247 56.0076 74.4642 61.5502 69.3203 63.5785C67.4973 64.2981 65.6004 64.5273 63.664 64.5397C61.6168 64.552 59.5672 64.5421 57.4485 64.5421L57.4461 64.547ZM57.4387 60.5028C57.6875 60.5028 57.8673 60.5028 58.0496 60.5028C60.2422 60.4856 62.4372 60.4954 64.6297 60.4387C65.4008 60.419 66.1867 60.313 66.9307 60.1183C68.6502 59.6723 70.0643 58.7703 70.7467 57.0427C71.5966 54.8862 70.7664 52.4439 68.7709 51.0441C67.4702 50.1322 65.9945 49.7379 64.4351 49.7058C62.2204 49.6615 60.0057 49.6886 57.791 49.6886C57.6752 49.6886 57.5594 49.7256 57.4411 49.7477V60.5003L57.4387 60.5028Z" fill="black"/>
</g>
<defs>
<clipPath id="clip0_612_6075">
<rect width="63" height="63" fill="white" transform="translate(30 30)"/>
</clipPath>
</defs>
</svg>
