<svg width="87" height="98" viewBox="0 0 87 98" fill="none" xmlns="http://www.w3.org/2000/svg">
<circle cx="43.5" cy="43.5" r="43.5" fill="#D2DF3F"/>
<g clip-path="url(#clip0_612_6076)">
<path d="M57.1302 91.7909C55.5942 93.291 54.0977 94.7533 52.6036 96.213C52.1746 96.6334 51.753 97.0637 51.3166 97.474C50.5646 98.1812 49.9039 98.1787 49.1642 97.4413C47.4803 95.755 45.8062 94.0586 44.1346 92.3597C43.9621 92.1836 43.8363 91.9621 43.6637 91.728C42.1894 93.1173 40.8334 94.3934 39.4823 95.6694C38.8486 96.2659 38.2224 96.8674 37.5888 97.4664C36.8343 98.1812 36.1736 98.1837 35.4414 97.4513C33.7278 95.7374 32.0217 94.0133 30.3131 92.2943C30.1677 92.1483 30.0198 92.0074 29.8151 91.8086C28.8733 92.6542 27.9389 93.4898 27.0094 94.3304C25.8432 95.385 24.6746 96.4396 23.5158 97.5017C23.0548 97.9245 22.5469 98.151 21.9453 97.8792C21.3486 97.6099 21.1317 97.0914 21.1391 96.4496C21.1415 96.2407 21.1391 96.0318 21.1391 95.8204C21.1391 78.1068 21.1391 60.3932 21.1391 42.6796V41.7207C19.9902 41.7207 18.8906 41.7283 17.791 41.7157C17.4877 41.7132 17.1721 41.6955 16.8812 41.6125C16.3215 41.4514 15.9788 40.9254 16.001 40.3239C16.0257 39.7148 16.3265 39.292 16.8911 39.1082C17.1401 39.0252 17.4162 39.0076 17.68 39.0076C34.8891 39.0025 52.1006 39.005 69.3097 39C69.9902 39 70.5893 39.1435 70.8851 39.8431C71.2771 40.7668 70.6287 41.6855 69.5538 41.7157C68.5701 41.7434 67.5839 41.7232 66.6001 41.7232C66.3782 41.7232 66.1563 41.7232 65.8432 41.7232C65.8432 42.0605 65.8432 42.3449 65.8432 42.6293C65.8432 60.4058 65.8432 78.1823 65.8457 95.9563C65.8457 96.729 65.8703 97.5092 65.0272 97.8817C64.2111 98.2416 63.6859 97.698 63.1386 97.1996C61.3191 95.5385 59.4872 93.8925 57.6603 92.2414C57.5074 92.103 57.3472 91.9772 57.1302 91.7909ZM36.3733 94.9445C38.5281 92.9134 40.4857 91.0661 42.4409 89.2187C43.321 88.3882 43.9226 88.3831 44.7658 89.2313C46.4621 90.9352 48.1534 92.6441 49.8472 94.3506C49.9852 94.4915 50.1307 94.6224 50.2786 94.7633C52.2436 92.8455 54.1519 90.9755 56.0676 89.113C56.7555 88.4435 57.3595 88.4209 58.0794 89.0375C58.5972 89.4805 59.0927 89.9511 59.6006 90.4092C60.7619 91.4562 61.9231 92.5032 63.1583 93.6157V41.761H23.8289V93.5729C23.9473 93.4898 24.0163 93.4495 24.073 93.3992C25.5622 92.0527 27.0562 90.7112 28.538 89.3571C29.6573 88.3328 30.148 88.3101 31.181 89.3949C32.9241 91.2246 34.6376 93.0846 36.3782 94.9471L36.3733 94.9445Z" fill="black"/>
<path d="M43.4346 75.1976C39.1521 75.1976 34.8671 75.2001 30.5845 75.1976C29.5811 75.1976 29.0387 74.6891 29.0633 73.8158C29.0806 73.1614 29.5539 72.6253 30.195 72.5372C30.296 72.5221 30.3996 72.5272 30.5031 72.5272C39.1521 72.5272 47.801 72.5272 56.4499 72.5272C57.3769 72.5272 57.9341 73.0708 57.9095 73.9165C57.8897 74.5935 57.441 75.1019 56.7778 75.1749C56.5337 75.2026 56.2872 75.195 56.0406 75.195C51.8394 75.195 47.6383 75.195 43.4371 75.195L43.4346 75.1976Z" fill="black"/>
<path d="M38.3326 67.1462C37.3045 67.1588 36.6758 66.2326 37.0284 65.3215C37.1023 65.1302 37.2207 64.9541 37.3292 64.7754C40.6945 59.188 44.0575 53.5955 47.4426 48.0182C47.6546 47.6709 48.0022 47.3235 48.3647 47.1801C48.8775 46.9737 49.4297 47.097 49.7872 47.6105C50.1472 48.1264 50.1201 48.665 49.802 49.1961C48.732 50.978 47.6571 52.7549 46.5846 54.5343C44.235 58.4304 41.8854 62.3265 39.5407 66.2276C39.2399 66.7284 38.9021 67.1588 38.3301 67.1462H38.3326Z" fill="black"/>
<path d="M40.3305 53.0217C40.3502 55.5083 38.3803 57.5646 35.9641 57.5822C33.4937 57.5998 31.4621 55.5939 31.4301 53.1098C31.398 50.6206 33.4074 48.5366 35.8482 48.5215C38.331 48.509 40.3107 50.4948 40.3305 53.0217ZM34.0829 53.0192C34.0657 54.0561 34.8891 54.9194 35.8926 54.9169C36.8763 54.9169 37.6875 54.0913 37.6998 53.0796C37.7146 52.0351 36.9034 51.1844 35.8901 51.1844C34.9064 51.1844 34.0977 52.0049 34.0805 53.0192H34.0829Z" fill="black"/>
<path d="M51.0692 56.6455C53.515 56.6355 55.5441 58.6917 55.5466 61.1784C55.5466 63.6525 53.5002 65.7389 51.0766 65.7339C48.6679 65.7289 46.6708 63.6902 46.6486 61.2161C46.6264 58.7043 48.6062 56.6581 51.0717 56.6455H51.0692ZM51.1087 59.3335C50.0781 59.3235 49.2744 60.1339 49.2744 61.1834C49.2744 62.2053 50.0559 63.0081 51.0594 63.0232C52.1023 63.0383 52.8962 62.238 52.8937 61.1759C52.8937 60.1515 52.1097 59.3461 51.1087 59.3361V59.3335Z" fill="black"/>
<path d="M38.2059 79.209C40.7281 79.209 43.2528 79.209 45.775 79.209C46.3519 79.209 46.882 79.3097 47.2173 79.8584C47.6808 80.6185 47.3405 81.5698 46.5023 81.8316C46.2903 81.897 46.0585 81.9247 45.8366 81.9247C40.77 81.9298 35.7035 81.9298 30.6369 81.9247C29.7247 81.9247 29.1527 81.4843 29.0738 80.7544C28.9727 79.8383 29.557 79.2191 30.5777 79.2116C32.3627 79.199 34.1477 79.209 35.9328 79.2065C36.6921 79.2065 37.4515 79.2065 38.2109 79.2065L38.2059 79.209Z" fill="black"/>
</g>
<defs>
<clipPath id="clip0_612_6076">
<rect width="55" height="59" fill="white" transform="translate(16 39)"/>
</clipPath>
</defs>
</svg>
