<svg width="87" height="87" viewBox="0 0 87 87" fill="none" xmlns="http://www.w3.org/2000/svg">
<circle cx="43.5" cy="43.5" r="43.5" fill="#D2DF3F"/>
<g clip-path="url(#clip0_312_19710)">
<path d="M51.8677 11.0205C55.2129 10.9032 58.4878 11.2728 61.6044 12.5694C67.1925 14.8928 71.2063 18.8444 73.4286 24.468C75.7184 30.2648 75.5014 36.0469 72.7719 41.6794C71.5815 44.1377 69.9719 46.3115 67.8874 48.0893C67.2805 48.6085 67.0108 49.1277 67.0313 49.9403C67.087 52.2813 67.0401 54.6253 67.0577 56.9663C67.0635 57.7055 66.9081 58.3392 66.1722 58.656C65.407 58.9846 64.8148 58.6502 64.2783 58.1104C62.6951 56.5204 61.0972 54.9421 59.5228 53.3433C59.2267 53.0411 58.9804 52.915 58.5201 53.0235C55.2804 53.7833 51.9908 53.6777 48.6983 53.5193C45.9629 53.3873 43.3565 52.739 40.9025 51.5333C34.8365 48.5528 30.9371 43.7828 29.2923 37.2203C27.2811 29.2087 30.4709 20.3698 37.0618 15.415C40.9787 12.4668 45.3765 11.0322 50.2581 11.0205C50.7946 11.0205 51.3312 11.0205 51.8677 11.0205ZM64.1229 53.8215C64.1229 52.0379 64.1756 50.4596 64.1053 48.8872C64.0584 47.8516 64.4161 47.1446 65.2253 46.5169C67.4007 44.83 69.0748 42.7091 70.227 40.2185C72.4523 35.4015 72.6898 30.4643 70.6932 25.5359C68.4503 20.0031 64.3926 16.3802 58.6579 14.6728C55.3449 13.6871 51.9468 13.8954 48.5635 14.0392C46.5258 14.1242 44.5703 14.6523 42.7056 15.4678C34.8805 18.8913 30.5149 27.1405 31.9017 35.2372C32.8252 40.6321 35.6046 44.8066 40.1754 47.7783C42.9519 49.5854 46.0186 50.5183 49.3346 50.6151C52.4306 50.706 55.5354 50.8674 58.5553 49.9756C59.5374 49.6851 60.2821 49.8758 60.9799 50.6327C61.9445 51.6829 62.9824 52.6686 64.1287 53.8215H64.1229Z" fill="black"/>
<path d="M27.5309 79.5637C27.5309 81.1566 27.5163 82.6645 27.5368 84.1724C27.5456 84.9116 27.3785 85.5365 26.6514 85.8621C25.8774 86.2112 25.2881 85.8474 24.7574 85.3165C22.9807 83.5416 21.2128 81.7522 19.4126 80.0008C19.1693 79.7632 18.7529 79.5872 18.4128 79.5813C15.7536 79.5461 13.0944 79.5666 10.4352 79.5608C4.52167 79.549 0.0153923 75.0518 0.00659669 69.1436C-0.0021989 61.748 -0.0021989 54.3525 0.00659669 46.9599C0.0124604 41.0047 4.50994 36.5134 10.4704 36.5046C15.1555 36.4987 19.8377 36.5046 24.5228 36.5046C24.7193 36.5046 24.9157 36.4958 25.1092 36.5163C25.9067 36.6014 26.493 37.2145 26.4989 37.9567C26.5077 38.6989 25.9272 39.3296 25.1356 39.4205C24.9186 39.4469 24.6958 39.4352 24.4789 39.4352C19.8436 39.4352 15.2083 39.4352 10.573 39.4352C6.13419 39.4381 2.94139 42.6445 2.93846 47.1007C2.93553 54.3965 2.93553 61.6952 2.93846 68.9911C2.93846 73.4325 6.14592 76.6243 10.6024 76.6272C13.5547 76.6272 16.5071 76.6389 19.4595 76.6213C20.1514 76.6184 20.6147 76.8941 21.0896 77.4017C22.1861 78.5751 23.3706 79.6634 24.6049 80.8721C24.6049 80.0507 24.6049 79.2879 24.6049 78.5252C24.6108 77.1406 25.1209 76.6301 26.5165 76.6301C31.5183 76.6301 36.52 76.6301 41.5189 76.6301C46.0163 76.6301 49.1945 73.4413 49.1974 68.9353C49.1974 65.8345 49.1974 62.7367 49.2033 59.6359C49.2033 59.322 49.2238 58.9934 49.3235 58.703C49.5346 58.0869 50.0213 57.7554 50.6604 57.7554C51.2995 57.7554 51.7862 58.084 52.0003 58.7001C52.0999 58.9905 52.1205 59.322 52.1205 59.6329C52.1293 62.8071 52.1322 65.9783 52.1234 69.1524C52.1087 75.0548 47.6025 79.552 41.6889 79.5608C37.2735 79.5696 32.8581 79.5608 28.4427 79.5608C28.1759 79.5608 27.9091 79.5608 27.5309 79.5608V79.5637Z" fill="black"/>
<path d="M24.748 59.3518C19.8459 59.3518 14.9468 59.3518 10.0447 59.3518C9.82482 59.3518 9.60493 59.3635 9.38797 59.3459C8.54653 59.2814 7.93377 58.6741 7.92204 57.9026C7.91031 57.134 8.52014 56.5033 9.35572 56.427C9.54923 56.4094 9.74566 56.4182 9.9421 56.4182C19.8665 56.4182 29.7908 56.4182 39.7152 56.4182C41.0199 56.4182 41.744 56.9551 41.7294 57.9026C41.7147 58.8296 41.0052 59.3489 39.7474 59.3489C34.7486 59.3489 29.7498 59.3489 24.7509 59.3489L24.748 59.3518Z" fill="black"/>
<path d="M21.8876 64.6234C26.0069 64.6234 30.1262 64.6204 34.2425 64.6234C35.2921 64.6234 35.9723 65.2336 35.9547 66.1107C35.9401 66.8089 35.4299 67.3985 34.7028 67.5218C34.4419 67.5658 34.1692 67.554 33.9024 67.554C25.9336 67.554 17.9648 67.554 9.996 67.554C9.92271 67.554 9.84941 67.554 9.77611 67.554C8.60923 67.5482 7.89679 66.9761 7.91438 66.0638C7.93197 65.1749 8.62682 64.6234 9.75266 64.6234C13.7986 64.6234 17.8446 64.6234 21.8906 64.6234H21.8876Z" fill="black"/>
<path d="M20.1451 48.2184C23.5109 48.2184 26.8738 48.2184 30.2395 48.2184C30.4594 48.2184 30.6823 48.2067 30.8963 48.236C31.6498 48.3416 32.2039 48.9548 32.2127 49.6706C32.2215 50.3805 31.6703 51.0112 30.9227 51.1256C30.7086 51.1579 30.4858 51.1491 30.2659 51.1491C23.464 51.1491 16.6621 51.1491 9.86016 51.1491C9.81032 51.1491 9.76341 51.1491 9.71356 51.1491C8.61118 51.1373 7.9046 50.5506 7.9222 49.6588C7.93979 48.7905 8.62584 48.2214 9.68718 48.2184C13.1732 48.2126 16.6591 48.2184 20.1451 48.2184Z" fill="black"/>
<path d="M40.2268 67.5481C39.4704 67.5246 38.7931 66.8235 38.8048 66.0725C38.8166 65.2921 39.5642 64.5852 40.3353 64.6321C41.0917 64.679 41.7543 65.4007 41.722 66.1429C41.6869 66.9027 40.9773 67.5715 40.2297 67.5481H40.2268Z" fill="black"/>
<path d="M50.7866 35.0471C50.7866 34.5835 50.7836 34.12 50.7866 33.6565C50.7983 32.0167 51.4345 31.1395 53.0148 30.6555C54.2579 30.2741 55.0788 29.5026 55.3984 28.2294C55.8558 26.4253 54.6742 24.6534 52.7656 24.272C51.0299 23.9258 49.2561 25.2254 49.0333 27.0208C48.9336 27.8187 48.8163 28.6049 47.8957 28.8689C46.9693 29.1329 46.122 28.4934 46.0575 27.5224C45.8229 23.9669 49.5259 20.7077 53.0588 21.359C56.4304 21.9809 58.468 24.4304 58.4094 27.7923C58.3684 30.1656 56.6825 32.4802 54.3693 33.2693C53.8826 33.4365 53.6715 33.6419 53.7038 34.1846C53.7565 35.0119 53.7331 35.8421 53.7126 36.6723C53.6862 37.7049 53.0382 38.4119 52.188 38.3767C51.3407 38.3415 50.7983 37.6785 50.7836 36.6547C50.7778 36.1178 50.7836 35.581 50.7836 35.0441L50.7866 35.0471Z" fill="black"/>
<path d="M52.2365 44.141C51.4331 44.141 50.8028 43.5161 50.7969 42.7182C50.7911 41.932 51.4302 41.2661 52.2071 41.2455C52.9841 41.225 53.7229 41.9555 53.7083 42.7241C53.6936 43.4897 53.0163 44.1381 52.2365 44.1381V44.141Z" fill="black"/>
</g>
<defs>
<clipPath id="clip0_312_19710">
<rect width="75" height="75" fill="white" transform="translate(0 11)"/>
</clipPath>
</defs>
</svg>
