<svg width="87" height="92" viewBox="0 0 87 92" fill="none" xmlns="http://www.w3.org/2000/svg">
<circle cx="43.5" cy="48.5" r="43.5" fill="#D2DF3F"/>
<g clip-path="url(#clip0_612_6078)">
<path d="M48.1185 63.111V57.5833C47.893 57.57 47.6834 57.5567 47.4737 57.5487C46.6378 57.5141 46.0249 56.9502 46.0355 56.216C46.0461 55.5031 46.6352 54.9498 47.4366 54.9099C47.6117 54.9019 47.7895 54.9099 47.9673 54.9099C51.3904 54.9099 54.8135 54.9125 58.234 54.9099C60.0145 54.9072 61.1316 53.798 61.1343 52.021C61.1423 47.3738 61.1343 42.7266 61.1343 38.0794C61.1343 37.9012 61.129 37.7256 61.1343 37.5474C61.1608 36.6536 61.7128 36.0391 62.477 36.0524C63.2465 36.0657 63.7666 36.6696 63.7666 37.5873C63.7693 42.4553 63.7826 47.3259 63.7613 52.1939C63.7481 55.1679 61.3811 57.5221 58.3985 57.5514C56.1244 57.5726 53.8503 57.5567 51.5761 57.5567C51.3373 57.5567 51.0985 57.5567 50.7641 57.5567C50.7641 57.836 50.7641 58.0701 50.7641 58.3042C50.7641 60.6504 50.7588 62.9966 50.7641 65.3428C50.7641 65.9732 50.6527 66.5425 50.0371 66.8617C49.4241 67.1783 48.904 66.9522 48.3866 66.5797C44.3744 63.6909 40.3568 60.8047 36.3234 57.9424C36.0103 57.7189 35.5672 57.5753 35.185 57.5753C28.6944 57.554 22.2011 57.562 15.7105 57.5593C12.29 57.546 10 55.2504 10 51.7949C10 36.4355 10 21.0787 10 5.71926C10 2.85167 11.6505 0.699646 14.3014 0.127724C14.7711 0.0266402 15.2673 0.0266402 15.7503 0.0266402C29.8593 0.0186599 43.971 0.047921 58.08 3.91496e-05C61.2564 -0.0106013 63.3262 2.1494 63.7003 4.41847C63.7693 4.83079 63.7799 5.25374 63.7826 5.67404C63.7905 8.10803 63.7852 10.542 63.7852 12.976C63.7852 13.1915 63.7852 13.407 63.7852 13.7448C64.0134 13.5506 64.162 13.4389 64.2947 13.3085C65.5472 12.0583 66.7917 10.8027 68.0442 9.55513C69.8592 7.75158 72.0776 7.74892 73.8927 9.54449C74.5375 10.1829 75.1796 10.8213 75.8059 11.4757C77.406 13.1409 77.4033 15.4074 75.774 17.0433C66.8819 25.9706 57.9819 34.8899 49.0738 43.8013C48.8085 44.0673 48.4317 44.2854 48.0681 44.3812C45.6003 45.0382 43.1245 45.6607 40.6461 46.2832C39.3963 46.5971 38.5869 45.7857 38.916 44.5435C39.5661 42.0908 40.2162 39.6382 40.9141 37.2016C41.0415 36.7627 41.344 36.3291 41.673 35.9992C47.9832 29.6495 54.3067 23.3105 60.6407 16.9821C60.9963 16.6283 61.1502 16.2799 61.1476 15.7718C61.1263 12.3855 61.1396 8.99917 61.1343 5.61286C61.1316 3.74812 60.041 2.61492 58.1862 2.61492C43.9896 2.60694 29.7903 2.60694 15.5937 2.61492C13.7256 2.61492 12.6217 3.73482 12.6191 5.58625C12.6164 21.0335 12.6191 36.4807 12.6191 51.9279C12.6191 53.8299 13.7097 54.8992 15.6362 54.9019C22.3258 54.9019 29.0181 54.8913 35.7078 54.9258C36.2571 54.9285 36.8913 55.1386 37.3424 55.4552C40.7602 57.8493 44.1435 60.2913 47.5374 62.7199C47.6966 62.8343 47.8611 62.9381 48.1185 63.1083V63.111ZM71.6504 17.3678C70.3767 16.0883 69.103 14.8142 67.8983 13.6065C60.0198 21.4963 52.0936 29.4341 44.2072 37.3319C45.4411 38.5742 46.7121 39.8537 47.962 41.1119C55.8537 33.2008 63.7666 25.2684 71.6504 17.3678ZM73.6804 15.3808C74.5773 14.62 74.6171 14.0028 73.7839 13.1516C73.1974 12.5531 72.6083 11.9599 72.0086 11.3746C71.2046 10.5872 70.5094 10.6564 69.8513 11.5475C71.1303 12.8271 72.404 14.1039 73.6804 15.3834V15.3808ZM42.0153 43.224C43.1935 42.8969 44.2311 42.6069 45.0988 42.3648C44.3478 41.6147 43.5995 40.8699 42.8777 40.149C42.623 41.0561 42.3338 42.0829 42.0153 43.224Z" fill="black"/>
<path d="M39.7429 21.5681C42.0595 21.5681 44.3734 21.5548 46.6899 21.5734C47.8151 21.5814 48.5103 22.6667 47.9026 23.5153C47.6585 23.8558 47.1198 24.1776 46.7138 24.1803C42.0621 24.2255 37.4078 24.2175 32.7561 24.2042C31.9202 24.2042 31.3125 23.5951 31.3284 22.8635C31.3417 22.1294 31.9547 21.5734 32.7985 21.5707C35.1151 21.5628 37.429 21.5681 39.7456 21.5681H39.7429Z" fill="black"/>
<path d="M28.5867 43.4763C30.5928 43.4763 32.5989 43.4763 34.6049 43.4763C35.5496 43.4763 36.1812 44.0136 36.1759 44.7957C36.1679 45.5831 35.5496 46.1098 34.5917 46.1098C30.6007 46.1151 26.6124 46.1151 22.6214 46.1098C21.6608 46.1098 21.0346 45.5937 21.016 44.8117C20.9974 44.0136 21.6449 43.4736 22.6373 43.4736C24.6222 43.4736 26.6044 43.4736 28.5893 43.4736L28.5867 43.4763Z" fill="black"/>
<path d="M27.6472 13.2255C25.9489 13.2255 24.2506 13.2309 22.555 13.2255C21.6183 13.2202 21.0319 12.7228 21.0159 11.9487C21 11.1773 21.5812 10.6266 22.5099 10.6213C25.9277 10.608 29.3455 10.608 32.7633 10.6213C33.7053 10.624 34.2546 11.1427 34.2466 11.9381C34.2413 12.7414 33.6947 13.2176 32.7421 13.2229C31.0438 13.2309 29.3455 13.2229 27.6499 13.2229L27.6472 13.2255Z" fill="black"/>
<path d="M42.717 13.2262C41.4379 13.2262 40.1563 13.2341 38.8772 13.2262C37.9618 13.2182 37.4231 12.7527 37.3992 11.9812C37.3753 11.1726 37.914 10.6326 38.8427 10.6272C41.4459 10.6086 44.0517 10.6086 46.6549 10.6272C47.5491 10.6326 48.1117 11.1619 48.1249 11.9147C48.1382 12.6888 47.5438 13.2208 46.623 13.2288C45.3201 13.2395 44.0199 13.2315 42.717 13.2315V13.2262Z" fill="black"/>
<path d="M24.8031 24.1993C24.0548 24.1993 23.3065 24.21 22.5582 24.1993C21.6161 24.1834 20.9899 23.6221 21.0164 22.84C21.0403 22.0792 21.6533 21.5712 22.5608 21.5685C24.1025 21.5658 25.6416 21.5632 27.1833 21.5685C28.0431 21.5712 28.6375 22.0925 28.6587 22.84C28.6799 23.5769 28.0935 24.1648 27.247 24.1914C26.4324 24.218 25.6177 24.1967 24.8031 24.1967V24.1993Z" fill="black"/>
<path d="M34.5894 35.1291C33.8411 35.1291 33.0902 35.1478 32.3419 35.1238C31.5644 35.0999 31.0416 34.5519 31.0469 33.823C31.0522 33.1261 31.5617 32.5675 32.3021 32.5542C33.8438 32.5249 35.3882 32.5276 36.9299 32.5542C37.6729 32.5675 38.185 33.1234 38.1956 33.8177C38.2062 34.5413 37.6755 35.0999 36.9033 35.1238C36.1312 35.1478 35.359 35.1291 34.5894 35.1291Z" fill="black"/>
<path d="M25.0006 35.1268C24.515 35.1268 24.032 35.148 23.5491 35.1214C22.822 35.0815 22.3099 34.5282 22.3125 33.8313C22.3152 33.1636 22.8061 32.5917 23.4987 32.5651C24.5097 32.5252 25.5233 32.5252 26.5343 32.5651C27.2561 32.5917 27.7603 33.1875 27.7364 33.8818C27.7125 34.5575 27.219 35.0815 26.5211 35.1214C26.0169 35.1507 25.5074 35.1268 25.0032 35.1268H25.0006Z" fill="black"/>
<path d="M52.9619 13.2127C52.5214 13.2127 52.0809 13.2367 51.643 13.2074C50.9611 13.1622 50.4516 12.6169 50.4304 11.9572C50.4091 11.3028 50.8894 10.6989 51.582 10.659C52.524 10.6058 53.4714 10.6058 54.4134 10.659C55.106 10.6989 55.5756 11.2975 55.5571 11.9598C55.5358 12.6355 55.0449 13.1462 54.347 13.2127C54.3046 13.2181 54.2595 13.2207 54.2144 13.2207C53.7977 13.2207 53.3785 13.2207 52.9619 13.2207C52.9619 13.2181 52.9619 13.2154 52.9619 13.2127Z" fill="black"/>
</g>
<defs>
<clipPath id="clip0_612_6078">
<rect width="67" height="67" fill="white" transform="translate(10)"/>
</clipPath>
</defs>
</svg>
