<svg width="143" height="123" viewBox="0 0 143 123" fill="none" xmlns="http://www.w3.org/2000/svg">
<circle cx="81.5" cy="61.5" r="61.5" fill="#D2DF3F"/>
<g clip-path="url(#clip0_612_6079)">
<path d="M43.8711 43.1757H46.9185C46.9185 44.8703 47.1023 46.5539 46.8891 48.1862C45.6135 57.8596 39.9524 63.8986 30.8505 66.9583C29.9646 67.2585 29.6963 67.6171 29.7257 68.5285C29.7735 70.0437 29.7698 71.5809 29.5603 73.0778C29.2404 75.3727 28.0751 77.0343 25.5754 77.4515C25.3843 77.4845 25.1196 77.8358 25.1086 78.0481C24.8071 83.9297 26.2959 89.1891 30.6226 93.4311C37.1366 99.8214 47.7052 99.2504 53.5574 92.2269C56.6233 88.5486 57.9687 84.303 57.9724 79.5816C57.9797 69.685 57.9393 59.7884 57.9871 49.8955C58.0165 44.3542 60.3691 39.9842 65.2399 37.2246C71.2833 33.8025 78.8082 36.0387 82.4621 42.1473C83.9252 44.5921 84.5685 47.242 84.6053 50.0602C84.6163 50.88 84.6053 51.6998 84.6053 52.6221C88.3034 53.3212 91.1413 55.2573 92.8322 58.6282C94.0453 61.0474 94.3357 63.6204 93.6116 66.2593C92.2477 71.2186 87.7336 74.6516 82.4438 74.3332C77.0069 74.0038 72.6949 69.89 72.1288 64.8795C71.4965 59.276 74.9924 53.7604 81.4108 52.5819C81.6534 48.9914 81.3446 45.5291 78.9478 42.5791C74.2499 36.7963 65.8575 37.7406 62.402 44.4347C61.505 46.1696 61.1007 48.0106 61.1043 49.9687C61.1227 59.8653 61.1227 69.7619 61.108 79.6548C61.1007 85.1375 59.4648 90.0419 55.8954 94.2875C48.3889 103.225 34.6626 103.225 27.1377 94.2985C23.5352 90.0273 21.9325 85.0936 21.9141 79.5816C21.9141 78.9155 21.9141 78.2531 21.9141 77.6016C21.2267 77.3893 20.5834 77.2795 20.0246 76.9977C18.0396 76.0058 17.4514 74.1685 17.2896 72.1592C17.1941 70.9477 17.1794 69.718 17.2676 68.5102C17.3374 67.5842 17.025 67.2255 16.1354 66.9547C9.94859 65.0588 5.25429 61.3036 2.24361 55.5648C0.762165 52.7466 0.0343097 49.7234 0.00490139 46.5356C-0.00612673 45.4449 0.00490139 44.3579 0.00490139 43.1977H3.12586V42.0777C3.12586 35.9253 3.19203 29.7765 3.1038 23.6277C3.04499 19.4956 5.53734 16.1613 9.16927 15.3451C9.456 15.2829 9.74641 14.9316 9.89712 14.6424C10.9852 12.5379 13.2938 11.5241 15.5251 12.2158C17.694 12.8856 19.1424 15.0743 18.8152 17.1934C18.4329 19.6712 16.5581 21.4097 14.1613 21.3841C12.4336 21.3658 10.9889 20.6338 10.1361 19.104C9.74273 18.3976 9.39351 18.4671 8.8421 18.7636C7.25773 19.6163 6.30931 20.9596 6.29461 22.72C6.23579 29.4471 6.27255 36.1778 6.27622 42.9049C6.27622 42.9598 6.31666 43.011 6.37915 43.1611H11.044C10.5919 48.3363 11.6653 52.893 16.0288 56.1138C18.6571 58.0536 21.6641 58.8588 24.9027 58.6941C28.8618 58.4964 32.2548 57.0471 34.8207 53.9324C37.3902 50.8105 37.7983 47.1139 37.5777 43.2013H40.6692C40.695 42.8719 40.7317 42.6121 40.7281 42.3522C40.6987 36.0204 40.6509 29.685 40.6398 23.3532C40.6398 21.2816 39.8568 19.7042 37.9857 18.7197C37.5152 18.4744 37.2211 18.4598 36.894 19.0161C35.7911 20.901 33.6223 21.7465 31.6225 21.1572C29.4941 20.5313 28.1744 18.6648 28.2553 16.3992C28.3251 14.3935 29.9132 12.5489 31.9166 12.1426C34.0597 11.7071 36.0779 12.7099 37.1108 14.679C37.2616 14.9645 37.5667 15.2939 37.8571 15.3634C41.0332 16.1211 43.827 19.0088 43.8159 23.452C43.8012 29.663 43.8417 35.874 43.8601 42.085C43.8601 42.4108 43.8601 42.7402 43.8601 43.1684L43.8711 43.1757ZM3.14424 46.327C3.17365 49.2659 3.7949 52.0036 5.22488 54.4997C9.07369 61.2195 15.0215 64.6599 22.6861 64.9014C31.0233 65.1649 37.552 61.7868 41.7831 54.4741C43.2204 51.989 43.8343 49.2476 43.849 46.3379H40.8053C40.3237 55.4733 33.7179 61.0511 25.8181 61.8124C18.227 62.5444 8.22453 57.6876 7.73929 46.327H3.14424ZM83.0209 71.1966C87.3108 71.182 90.8509 67.6647 90.8472 63.4301C90.8398 59.2028 87.263 55.6453 83.0135 55.6416C78.7493 55.6416 75.2203 59.1699 75.224 63.4374C75.2277 67.7416 78.7162 71.2149 83.0209 71.1966ZM26.7003 68.1039C25.4982 68.1039 24.4984 68.1039 23.4985 68.1039C22.4986 68.1039 21.4583 68.1039 20.293 68.1039C20.3849 69.7106 20.4143 71.3137 20.5944 72.9022C20.712 73.9489 21.2892 74.3369 22.3552 74.3588C23.0868 74.3735 23.8183 74.3698 24.5498 74.3588C25.7298 74.3405 26.2739 73.9782 26.4099 72.807C26.59 71.2515 26.6084 69.6777 26.7003 68.1039ZM14.0694 18.1743C14.9664 18.189 15.6281 17.5375 15.6207 16.6518C15.617 15.8209 14.9627 15.1585 14.1319 15.1402C13.2791 15.1219 12.5512 15.8356 12.5623 16.6774C12.5696 17.4972 13.2386 18.1597 14.0694 18.1743ZM34.4384 16.7067C34.4641 15.9051 33.8024 15.1914 32.9863 15.1402C32.1261 15.0889 31.3946 15.7587 31.3762 16.6188C31.3578 17.4753 31.9607 18.1267 32.8062 18.167C33.6848 18.2073 34.4053 17.5594 34.4347 16.7067H34.4384Z" fill="black"/>
<path d="M78.3438 63.4407C78.3438 60.8494 80.4979 58.6973 83.0564 58.7449C85.6113 58.7888 87.7213 60.908 87.7287 63.4297C87.736 65.999 85.5745 68.1181 82.9792 68.0925C80.384 68.0669 78.3511 66.0246 78.3474 63.4443L78.3438 63.4407ZM83.0381 64.9449C83.8615 64.9376 84.5489 64.2678 84.5636 63.4553C84.5783 62.6245 83.8358 61.8925 82.9939 61.9071C82.1632 61.9218 81.4978 62.5842 81.4904 63.4114C81.4794 64.2935 82.1448 64.9523 83.0381 64.9449Z" fill="black"/>
</g>
<defs>
<clipPath id="clip0_612_6079">
<rect width="94" height="89" fill="white" transform="translate(0 12)"/>
</clipPath>
</defs>
</svg>
