<svg width="54" height="37" viewBox="0 0 54 37" fill="none" xmlns="http://www.w3.org/2000/svg">
<path d="M0 4.79382C0 2.30854 2.00294 0.293823 4.47368 0.293823H49.2105C51.6813 0.293823 53.6842 2.30854 53.6842 4.79382V31.7938C53.6842 34.2791 51.6813 36.2938 49.2105 36.2938H4.47368C2.00294 36.2938 0 34.2791 0 31.7938V4.79382Z" fill="white"/>
<path d="M4.77554 12.7133H8.96934C9.35059 12.7133 10.4944 12.5862 11.0027 14.3654C11.384 15.5092 11.8923 17.2883 12.6548 19.9571H12.909C13.6715 17.1613 14.3069 15.255 14.5611 14.3654C15.0694 12.5862 16.3403 12.7133 16.8486 12.7133H20.7882V24.9134H16.7215V17.6696H16.4673L14.3069 24.9134H11.2569L9.09642 17.6696H8.71517V24.9134H4.77554M22.4403 12.7133H26.507V19.9571H26.8883L29.5571 13.9841C30.0654 12.8404 31.2092 12.7133 31.2092 12.7133H35.0217V24.9134H30.955V17.6696H30.7008L28.0321 23.6426C27.5237 24.7863 26.2529 24.9134 26.2529 24.9134H22.4403M40.4864 21.228V24.9134H36.6738V18.5592H49.1281C48.6198 20.0842 46.8406 21.228 44.8072 21.228" fill="#37A72D"/>
<path d="M49.3826 17.797C49.891 15.5095 48.366 12.7136 45.0617 12.7136H36.42C36.6742 15.3824 38.9617 17.797 41.3763 17.797" fill="url(#paint0_linear_13_174)"/>
<defs>
<linearGradient id="paint0_linear_13_174" x1="47.8576" y1="11.0615" x2="37.6908" y2="11.0615" gradientUnits="userSpaceOnUse">
<stop stop-color="#1F5CD7"/>
<stop offset="1" stop-color="#02AEFF"/>
</linearGradient>
</defs>
</svg>
