<svg width="95" height="88" viewBox="0 0 95 88" fill="none" xmlns="http://www.w3.org/2000/svg">
<circle cx="50" cy="44" r="44" fill="#D2DF3F"/>
<path d="M75.9057 41.1156V40.9388L75.7511 40.8532L75.1722 40.5324C75.1722 40.5324 75.1722 40.5324 75.1722 40.5324C73.6386 39.6823 72.6021 38.0465 72.6021 36.1816C72.6021 33.4394 74.8301 31.2115 77.5721 31.2115C80.3142 31.2115 82.5422 33.4394 82.5422 36.1816C82.5422 38.0563 81.5069 39.6815 79.9721 40.5324C79.9721 40.5324 79.972 40.5324 79.972 40.5324L79.3932 40.8532L79.2386 40.9388V41.1156V54.037C79.2386 54.9587 78.4939 55.7034 77.5721 55.7034C76.6504 55.7034 75.9057 54.9587 75.9057 54.037V41.1156ZM77.5721 28.3641C73.2575 28.3641 69.7547 31.8669 69.7547 36.1816C69.7547 38.8153 71.0652 41.1469 73.0583 42.5612V54.037C73.0583 56.5312 75.0778 58.5508 77.5721 58.5508C80.0664 58.5508 82.086 56.5313 82.086 54.037V42.5615C84.0782 41.1495 85.3896 38.8264 85.3896 36.1816C85.3896 31.8669 81.8868 28.3641 77.5721 28.3641Z" fill="black" stroke="black" stroke-width="0.6"/>
<path d="M76.8447 35.7H72.5693C71.8978 35.7 71.407 36.2953 71.407 36.96V37.04C71.407 37.7047 71.8978 38.3 72.5693 38.3H76.8447C77.5161 38.3 78.007 37.7048 78.007 37.04V36.96C78.007 36.2952 77.5161 35.7 76.8447 35.7Z" fill="black" stroke="black" stroke-width="0.6"/>
<path d="M82.8889 35.4305H80.9224C80.161 35.4305 79.5437 36.0478 79.5437 36.8093V36.8992C79.5437 37.6606 80.1611 38.2779 80.9224 38.2779H82.8889C83.6504 38.2779 84.2677 37.6605 84.2677 36.8992V36.8093C84.2677 36.0478 83.6505 35.4305 82.8889 35.4305Z" fill="black" stroke="black" stroke-width="0.6"/>
<path d="M14.668 60.7508H14.368V61.0508V71.3662V71.6662H14.668H43.4456H43.7456V71.3662V61.0508V60.7508H43.4456H14.668ZM40.8983 68.8189H17.2154V63.5982H40.8983V68.8189Z" fill="black" stroke="black" stroke-width="0.6"/>
<path d="M78.7731 55.7472C78.7731 55.7472 78.773 55.7472 78.6391 56.0156L78.773 55.7472L78.7098 55.7156H78.6391H76.4928C76.3887 55.7156 76.3174 55.7656 76.2889 55.7884C76.2561 55.8146 76.2339 55.8421 76.222 55.858C76.2088 55.8756 76.199 55.8915 76.1927 55.9022C76.1895 55.9078 76.1867 55.9127 76.1846 55.9167L76.1818 55.9221L76.1806 55.9243L76.1801 55.9252L76.1799 55.9257L76.1798 55.9259L76.1797 55.926C76.1797 55.9261 76.1797 55.9261 76.4479 56.0605L76.1797 55.9261L76.1479 55.9896V56.0605V77.006C76.1479 79.8406 73.855 82.1334 71.0205 82.1334H9.63351C6.67376 82.1334 4.30723 79.5981 4.57233 76.5834C4.81517 73.9365 7.21828 71.9685 9.91441 71.9685H51.1874C51.9508 71.9685 52.5549 71.3489 52.5549 70.601V70.5111C52.5549 69.752 51.9394 69.1211 51.1649 69.1211H9.63351C4.92774 69.1211 1.16667 73.2314 1.7621 78.0427C2.25453 82.0748 5.90311 84.9696 9.93691 84.9696H70.2917L70.2804 84.9808H71.0092C75.4112 84.9808 78.984 81.408 78.984 77.006V56.0605C78.984 55.9566 78.9343 55.8854 78.9113 55.8567C78.885 55.8238 78.8574 55.8015 78.8415 55.7896C78.8238 55.7763 78.8078 55.7665 78.7971 55.7602C78.7915 55.7569 78.7865 55.7542 78.7825 55.7521L78.7771 55.7492L78.7749 55.7481L78.7739 55.7476L78.7735 55.7474L78.7732 55.7473L78.7731 55.7472Z" fill="black" stroke="black" stroke-width="0.6"/>
<path d="M77.6283 22.1062C74.3127 22.1062 71.1911 23.3964 68.8425 25.745C68.2983 26.2892 68.2983 27.1758 68.8425 27.72C69.1121 27.9896 69.4693 28.1337 69.83 28.1337C70.1907 28.1337 70.5478 27.9896 70.8175 27.72C72.6378 25.8996 75.0561 24.8975 77.6283 24.8975C80.2006 24.8975 82.6189 25.8996 84.4393 27.72C84.9835 28.2641 85.8701 28.2641 86.4143 27.72C86.9584 27.1758 86.9584 26.2892 86.4143 25.745L86.2021 25.9571L86.4143 25.745C84.0655 23.3964 80.9441 22.1062 77.6283 22.1062Z" fill="black" stroke="black" stroke-width="0.6"/>
<path d="M64.987 21.878C64.4429 22.4221 64.4429 23.3088 64.987 23.8529C65.5312 24.3971 66.4178 24.3971 66.962 23.8529C72.8453 17.9696 82.4202 17.9696 88.3035 23.8529C88.5731 24.1225 88.9303 24.2666 89.291 24.2666C89.6516 24.2666 90.0089 24.1225 90.2785 23.8529C90.8226 23.3088 90.8226 22.4221 90.2785 21.878C83.3068 14.9063 71.9587 14.9063 64.987 21.878Z" fill="black" stroke="black" stroke-width="0.6"/>
<path d="M61.4834 18.3836L61.4831 18.3839C60.939 18.928 60.939 19.8147 61.4831 20.3588C62.0273 20.903 62.9139 20.903 63.4581 20.3588C67.2448 16.5722 72.27 14.4912 77.6291 14.4912C82.9882 14.4912 88.0134 16.5721 91.8001 20.3588C92.0697 20.6284 92.4269 20.7726 92.7876 20.7726C93.1484 20.7726 93.5055 20.6284 93.7751 20.3588C94.3192 19.8147 94.3192 18.928 93.7751 18.3839C89.46 14.0688 83.7315 11.7 77.6291 11.7C71.5264 11.7 65.7982 14.0802 61.4834 18.3836Z" fill="black" stroke="black" stroke-width="0.6"/>
<path d="M46.0526 12.2H12.9474C6.86317 12.2 2.2 17.5432 2.2 23.7873V50.2127C2.2 56.4568 6.86318 61.8 12.9474 61.8H46.0526C52.1368 61.8 56.8 56.4568 56.8 50.2127V23.7873C56.8 17.5432 52.1368 12.2 46.0526 12.2Z" stroke="black" stroke-width="3.6"/>
<rect x="8.8" y="19.8" width="41.4" height="31.4" rx="4.2" stroke="black" stroke-width="3.6"/>
</svg>
