<svg width="23" height="14" viewBox="0 0 23 14" fill="none" xmlns="http://www.w3.org/2000/svg">
<path d="M22.3001 12.371C22.3001 12.2838 22.2129 12.2838 22.2129 12.1966C21.8642 11.4992 21.0797 10.6275 20.0336 9.66858C19.5105 9.23271 19.249 8.88401 19.0746 8.70966C18.8131 8.36096 18.8131 8.09945 18.9003 7.75075C18.9875 7.48923 19.3362 7.05335 19.9464 6.26878C20.2951 5.83291 20.4694 5.5714 20.731 5.30988C22.0386 3.56639 22.6488 2.43312 22.4744 1.91008L22.3873 1.82291C22.3001 1.73574 22.2129 1.64857 22.0386 1.64857C21.8642 1.56139 21.6027 1.56139 21.3412 1.64857H18.0286C17.9414 1.64857 17.9414 1.64857 17.767 1.64857C17.6799 1.64857 17.5927 1.64857 17.5927 1.64857H17.5055H17.4183L17.3312 1.73573C17.244 1.82291 17.244 1.8229 17.244 1.91008C16.8953 2.86899 16.4594 3.65356 16.0236 4.5253C15.762 4.96117 15.5005 5.39705 15.239 5.74575C14.9775 6.09444 14.8031 6.35596 14.6288 6.53031C14.4544 6.70466 14.2801 6.79183 14.1929 6.96618C14.1057 7.05335 13.9314 7.14053 13.9314 7.05336C13.8442 7.05336 13.757 7.05335 13.757 6.96618C13.6699 6.879 13.5827 6.79183 13.4955 6.70465C13.4083 6.61748 13.4083 6.44313 13.3212 6.26878C13.3212 6.09444 13.3212 5.92009 13.3212 5.83291C13.3212 5.74574 13.3212 5.48422 13.3212 5.30988C13.3212 5.04835 13.3212 4.874 13.3212 4.78683C13.3212 4.5253 13.3212 4.17662 13.3212 3.82792C13.3212 3.47922 13.3212 3.21769 13.3212 3.04334C13.3212 2.869 13.3212 2.60748 13.3212 2.43313C13.3212 2.17161 13.3212 1.99725 13.3212 1.91008C13.3212 1.8229 13.234 1.64856 13.234 1.56139C13.1468 1.47421 13.0596 1.38704 12.9725 1.29986C12.8853 1.21269 12.7109 1.21269 12.6238 1.12552C12.1879 1.03834 11.6649 0.951172 11.0547 0.951172C9.65987 0.951172 8.70095 1.03835 8.35225 1.2127C8.1779 1.29987 8.00355 1.38704 7.91638 1.56139C7.74203 1.73574 7.74203 1.82291 7.8292 1.82291C8.26507 1.91009 8.61377 2.08443 8.78812 2.34595L8.8753 2.52031C8.96247 2.60748 8.96246 2.78182 9.04963 3.04334C9.13681 3.30487 9.13681 3.56639 9.13681 3.91509C9.13681 4.43813 9.13681 4.96118 9.13681 5.30988C9.13681 5.74575 9.04963 6.00726 9.04963 6.26878C9.04963 6.53031 8.96247 6.70466 8.8753 6.79183C8.78813 6.96618 8.78812 7.05336 8.70094 7.05336C8.70094 7.05336 8.70094 7.14052 8.61376 7.14052C8.52659 7.14052 8.43942 7.2277 8.26507 7.2277C8.1779 7.2277 8.00355 7.14053 7.91638 7.05336C7.74203 6.96618 7.56768 6.79184 7.48051 6.61749C7.30616 6.44314 7.13181 6.18161 6.95746 5.83291C6.78311 5.48422 6.52158 5.13553 6.34723 4.61248L6.1729 4.26379C6.08572 4.08944 5.91138 3.74074 5.73703 3.30487C5.56268 2.869 5.38833 2.52031 5.21398 2.08444C5.1268 1.91009 5.03964 1.82291 4.95247 1.73573H4.86529C4.86529 1.73573 4.7781 1.64857 4.69093 1.64857C4.60375 1.64857 4.51659 1.56139 4.42942 1.56139H1.29115C0.942449 1.56139 0.768103 1.64856 0.680929 1.73573L0.59375 1.82291C0.59375 1.82291 0.59375 1.91008 0.59375 1.99726C0.59375 2.08443 0.593755 2.1716 0.680929 2.34595C1.1168 3.39204 1.63984 4.43813 2.16289 5.48422C2.68593 6.44314 3.20898 7.31488 3.55768 7.9251C3.99355 8.53532 4.34224 9.14554 4.77811 9.66858C5.21398 10.1916 5.4755 10.5403 5.56267 10.7147C5.73702 10.889 5.82419 10.9762 5.91136 11.0634L6.1729 11.3249C6.34725 11.4992 6.60876 11.7608 6.95746 12.0223C7.30616 12.2838 7.74202 12.5453 8.17789 12.8068C8.61376 13.0684 9.13682 13.2427 9.65986 13.4171C10.2701 13.5914 10.7931 13.6786 11.3162 13.5914H12.6238C12.8853 13.5914 13.0597 13.5042 13.234 13.3299L13.3212 13.2427C13.3212 13.1555 13.4083 13.1555 13.4083 13.0684C13.4083 12.9812 13.4083 12.894 13.4083 12.7197C13.4083 12.371 13.4083 12.1095 13.4955 11.8479C13.5827 11.5864 13.5827 11.4121 13.6699 11.2377C13.757 11.0634 13.8442 10.9762 13.9314 10.889C14.0186 10.8018 14.1057 10.7147 14.1057 10.7147H14.1929C14.3672 10.6275 14.6288 10.7147 14.8031 10.889C15.0646 11.0634 15.3262 11.3249 15.5005 11.5864C15.6749 11.8479 15.9364 12.1095 16.2851 12.4581C16.6338 12.8068 16.8953 13.0684 17.0697 13.1555L17.3312 13.3299C17.5055 13.4171 17.6799 13.5042 17.9414 13.5914C18.2029 13.6786 18.3773 13.6786 18.5516 13.6786L21.5155 13.5914C21.7771 13.5914 22.0386 13.5042 22.2129 13.4171C22.3873 13.3299 22.4744 13.2427 22.4744 13.0684C22.4744 12.9812 22.4744 12.8068 22.4744 12.7197C22.3001 12.5453 22.3001 12.4581 22.3001 12.371Z" fill="white"/>
</svg>
