<svg width="22" height="23" viewBox="0 0 22 23" fill="none" xmlns="http://www.w3.org/2000/svg">
<g clip-path="url(#clip0_312_19484)">
<path d="M21.4526 4.95605L14.9609 11.4059L21.4526 17.8557C21.5699 17.6104 21.6411 17.3393 21.6411 17.0497V5.76204C21.6411 5.47245 21.5699 5.20133 21.4526 4.95605Z" fill="white"/>
<path d="M19.7529 3.88086H2.11067C1.82108 3.88086 1.54996 3.95206 1.30469 4.06941L9.60169 12.3246C10.3353 13.0582 11.5283 13.0582 12.2619 12.3246L20.5589 4.06941C20.3136 3.95206 20.0425 3.88086 19.7529 3.88086Z" fill="white"/>
<path d="M0.422921 4.95605C0.305571 5.20133 0.234375 5.47245 0.234375 5.76204V17.0497C0.234375 17.3393 0.305571 17.6105 0.422921 17.8557L6.91456 11.4059L0.422921 4.95605Z" fill="white"/>
<path d="M14.0673 12.292L13.1487 13.2106C11.9263 14.433 9.93727 14.433 8.71489 13.2106L7.79632 12.292L1.30469 18.7418C1.54996 18.8592 1.82108 18.9304 2.11067 18.9304H19.7529C20.0425 18.9304 20.3136 18.8592 20.5589 18.7418L14.0673 12.292Z" fill="white"/>
</g>
<defs>
<clipPath id="clip0_312_19484">
<rect width="21.4048" height="21.4048" fill="white" transform="translate(0.234375 0.703125)"/>
</clipPath>
</defs>
</svg>
