<svg width="16" height="24" viewBox="0 0 16 24" fill="none" xmlns="http://www.w3.org/2000/svg">
<path d="M14.8917 14.9327C15.4427 14.3817 15.5214 13.5946 15.0491 12.8075C14.6556 12.1779 13.9472 11.863 13.1601 12.0204C12.8453 12.0991 12.5304 12.2566 12.2156 12.4927C9.77562 14.1456 6.46985 14.0669 4.02986 12.414C3.87245 12.3353 3.71502 12.2566 3.55761 12.1778C2.69181 11.7843 1.82602 11.9417 1.35376 12.7288C0.802798 13.5159 0.881497 14.3817 1.58988 15.0901C1.7473 15.2475 1.90471 15.3262 1.98342 15.4836L2.06214 15.5623C3.16406 16.4281 4.50212 16.9791 6.23372 17.2152L5.2105 18.2385C4.3447 19.1043 3.4002 20.0488 2.5344 20.9146C2.29827 21.1507 1.98342 21.5442 1.98342 22.0952C1.98342 22.8036 2.37698 23.512 3.08536 23.8268C3.32149 23.9842 3.55761 23.9842 3.79374 23.9842C4.18728 23.9842 4.65953 23.8268 4.97437 23.4332C6.15501 22.2526 7.09952 21.3081 8.04403 20.3636C8.12274 20.2849 8.12273 20.2849 8.12273 20.2849C8.12273 20.2849 8.20145 20.2849 8.20145 20.3636C8.83112 21.072 9.5395 21.7016 10.1692 22.41C10.484 22.7249 10.7988 23.0397 11.1137 23.3545C11.5072 23.7481 11.8221 23.9055 12.2943 23.9055C13.0027 23.9842 13.7898 23.512 14.1046 22.8036C14.4195 22.1739 14.262 21.3868 13.7111 20.9146C12.924 20.1275 12.1369 19.2617 11.2711 18.4746L9.93304 17.1365C10.6414 17.0578 11.4285 16.9004 12.1369 16.5856C13.3175 16.192 14.1833 15.641 14.8917 14.9327Z" fill="white"/>
<path d="M8.12273 12.7288C11.5072 12.7288 14.262 10.0527 14.262 6.66821C14.262 5.01532 13.6324 3.44114 12.4517 2.26051C11.2711 1.07987 9.77563 0.450195 8.20145 0.450195C4.81696 0.450195 2.14085 3.20501 2.06214 6.51079C2.06214 8.16368 2.69181 9.65915 3.87245 10.8398C4.97437 12.0991 6.46984 12.7288 8.12273 12.7288ZM6.39114 4.85791C6.86339 4.38565 7.49306 4.14952 8.12273 4.14952C9.5395 4.14952 10.5627 5.25145 10.5627 6.5895C10.5627 8.00627 9.46079 9.02948 8.12273 9.02948C6.70597 9.02948 5.68276 7.92756 5.68276 6.5895C5.68276 5.95983 5.91888 5.33016 6.39114 4.85791Z" fill="white"/>
<path d="M14.8917 14.9327C15.4427 14.3817 15.5214 13.5946 15.0491 12.8075C14.6556 12.1779 13.9472 11.863 13.1601 12.0204C12.8453 12.0991 12.5304 12.2566 12.2156 12.4927C9.77562 14.1456 6.46985 14.0669 4.02986 12.414C3.87245 12.3353 3.71502 12.2566 3.55761 12.1778C2.69181 11.7843 1.82602 11.9417 1.35376 12.7288C0.802798 13.5159 0.881497 14.3817 1.58988 15.0901C1.7473 15.2475 1.90471 15.3262 1.98342 15.4836L2.06214 15.5623C3.16406 16.4281 4.50212 16.9791 6.23372 17.2152L5.2105 18.2385C4.3447 19.1043 3.4002 20.0488 2.5344 20.9146C2.29827 21.1507 1.98342 21.5442 1.98342 22.0952C1.98342 22.8036 2.37698 23.512 3.08536 23.8268C3.32149 23.9842 3.55761 23.9842 3.79374 23.9842C4.18728 23.9842 4.65953 23.8268 4.97437 23.4332C6.15501 22.2526 7.09952 21.3081 8.04403 20.3636C8.12274 20.2849 8.12273 20.2849 8.12273 20.2849C8.12273 20.2849 8.20145 20.2849 8.20145 20.3636C8.83112 21.072 9.5395 21.7016 10.1692 22.41C10.484 22.7249 10.7988 23.0397 11.1137 23.3545C11.5072 23.7481 11.8221 23.9055 12.2943 23.9055C13.0027 23.9842 13.7898 23.512 14.1046 22.8036C14.4195 22.1739 14.262 21.3868 13.7111 20.9146C12.924 20.1275 12.1369 19.2617 11.2711 18.4746L9.93304 17.1365C10.6414 17.0578 11.4285 16.9004 12.1369 16.5856C13.3175 16.192 14.1833 15.641 14.8917 14.9327Z" fill="white"/>
</svg>
