<svg width="54" height="37" viewBox="0 0 54 37" fill="none" xmlns="http://www.w3.org/2000/svg">
<g clip-path="url(#clip0_13_261)">
<path d="M0.77832 4.74883C0.77832 2.30609 2.7615 0.325867 5.20788 0.325867H49.5035C51.9499 0.325867 53.9331 2.30609 53.9331 4.74883V31.2866C53.9331 33.7293 51.9499 35.7095 49.5035 35.7095H5.20788C2.7615 35.7095 0.77832 33.7293 0.77832 31.2866V4.74883Z" fill="#0066CB"/>
<path d="M49.5992 18.0183C49.6012 25.3448 43.6547 31.2852 36.3173 31.2871C28.9798 31.2889 23.0307 25.3515 23.0287 18.025C23.0287 18.0226 23.0287 18.0207 23.0287 18.0183C23.0268 10.692 28.9733 4.75126 36.3104 4.74931C43.648 4.74736 49.5972 10.6851 49.5992 18.0116C49.5992 18.0138 49.5992 18.0159 49.5992 18.0183Z" fill="#FF9900"/>
<path d="M18.4073 4.75407C11.1134 4.80033 5.20758 10.7256 5.20758 18.0196C5.20758 25.342 11.1594 31.2849 18.4929 31.2849C21.9348 31.2849 25.0721 29.9752 27.4328 27.8286L27.4318 27.828H27.4346C27.918 27.3882 28.3689 26.9136 28.7833 26.4076H26.0615C25.6981 25.9692 25.3677 25.5124 25.071 25.0411H29.7653C30.0508 24.5849 30.3093 24.1112 30.5386 23.6206H24.296C24.0832 23.1652 23.8985 22.6994 23.7407 22.2269H31.0945C31.5377 20.9046 31.7782 19.49 31.7782 18.0194C31.7782 17.0445 31.6723 16.094 31.472 15.1788H23.3507C23.4514 14.7077 23.5783 14.2424 23.7298 13.7852H31.0863C30.9218 13.2986 30.7308 12.8244 30.5135 12.3648H24.2953C24.5195 11.8864 24.7736 11.4209 25.0575 10.9715H29.7483C29.4362 10.4748 29.0907 10.0004 28.7172 9.55091H26.1019C26.5062 9.07571 26.9514 8.62827 27.4346 8.21099C25.0737 6.06407 21.9355 4.75407 18.4929 4.75407C18.4642 4.75407 18.4359 4.75391 18.4073 4.75407Z" fill="#CC0000"/>
<path d="M22.9015 21.8227L23.0784 20.622C22.9817 20.622 22.8395 20.6639 22.7139 20.6639C22.2215 20.6639 22.16 20.4011 22.1987 20.2091L22.6839 17.7943H23.4324L23.5867 16.4314H22.8813L23.0249 15.6055H21.5492C21.518 15.6367 20.7144 20.25 20.7144 20.812C20.7144 21.6437 21.1819 22.0138 21.8412 22.0079C22.3574 22.0036 22.7596 21.861 22.9015 21.8227Z" fill="#000066"/>
<path d="M23.3487 19.534C23.3487 21.53 24.668 22.0042 25.7923 22.0042C26.83 22.0042 27.3741 21.764 27.3741 21.764L27.6233 20.4016C27.6233 20.4016 26.7465 20.7577 26.0338 20.7577C24.5148 20.7577 24.7811 19.6267 24.7811 19.6267L27.6993 19.6355C27.6993 19.6355 27.8851 18.7207 27.8851 18.3477C27.8851 17.4169 27.3773 16.2743 25.8242 16.2743C24.4019 16.2746 23.3487 17.8048 23.3487 19.534ZM25.8296 17.5391C26.6279 17.5391 26.4806 18.435 26.4806 18.5076H24.9102C24.9102 18.4147 25.0585 17.5391 25.8296 17.5391Z" fill="#000066"/>
<path d="M34.7866 21.8227L35.0398 20.283C35.0398 20.283 34.3454 20.6304 33.8693 20.6304C32.8657 20.6304 32.4632 19.8654 32.4632 19.0433C32.4632 17.3759 33.3265 16.4585 34.2876 16.4585C35.0085 16.4585 35.5868 16.8626 35.5868 16.8626L35.8177 15.3665C35.8177 15.3665 35.1349 14.874 34.3999 14.8712C32.1891 14.8625 30.924 16.3995 30.924 19.0565C30.924 20.8176 31.8608 22.0161 33.5489 22.0161C34.0261 22.0161 34.7866 21.8227 34.7866 21.8227Z" fill="#000066"/>
<path d="M15.1207 16.2962C14.1507 16.2962 13.4073 16.6075 13.4073 16.6075L13.2019 17.8242C13.2019 17.8242 13.8156 17.5752 14.7434 17.5752C15.2702 17.5752 15.6555 17.6343 15.6555 18.0618C15.6555 18.3214 15.6084 18.4172 15.6084 18.4172C15.6084 18.4172 15.1928 18.3826 15.0002 18.3826C13.6193 18.3826 12.4919 18.9039 12.4919 20.4756C12.4919 21.7142 13.335 21.9983 13.8576 21.9983C14.8557 21.9983 15.2508 21.369 15.2736 21.3671L15.2621 21.8894H16.5076L17.0632 17.9998C17.0632 16.3491 15.6214 16.2962 15.1207 16.2962ZM15.3363 19.4546C15.3634 19.692 15.2748 20.8149 14.4228 20.8149C13.9835 20.8149 13.8694 20.4795 13.8694 20.2816C13.8694 19.8947 14.0797 19.4307 15.1162 19.4307C15.3576 19.4307 15.2956 19.4481 15.3363 19.4546Z" fill="#000066"/>
<path d="M18.3865 21.9686C18.7051 21.9686 20.5265 22.0496 20.5265 20.1729C20.5265 18.4181 18.8405 18.765 18.8405 18.0599C18.8405 17.7092 19.1153 17.5988 19.6178 17.5988C19.8171 17.5988 20.5845 17.662 20.5845 17.662L20.7627 16.4149C20.7627 16.4149 20.2662 16.304 19.4577 16.304C18.4112 16.304 17.3491 16.7211 17.3491 18.1482C17.3491 19.7654 19.1201 19.603 19.1201 20.2842C19.1201 20.7388 18.6254 20.7763 18.2439 20.7763C17.584 20.7763 16.99 20.55 16.9879 20.561L16.7991 21.7954C16.8334 21.8059 17.2001 21.9686 18.3865 21.9686Z" fill="#000066"/>
<path d="M46.4544 15.1649L46.1987 17.0676C46.1987 17.0676 45.666 16.3333 44.8325 16.3333C43.2643 16.3333 42.4561 17.8938 42.4561 19.6863C42.4561 20.8436 43.0325 21.978 44.2102 21.978C45.0575 21.978 45.5273 21.388 45.5273 21.388L45.4651 21.8918H46.8412L47.9218 15.1752L46.4544 15.1649ZM45.8469 18.8631C45.8469 19.6091 45.4768 20.6057 44.7101 20.6057C44.201 20.6057 43.9622 20.1789 43.9622 19.5092C43.9622 18.414 44.4548 17.6917 45.0766 17.6917C45.5855 17.6917 45.8469 18.0405 45.8469 18.8631Z" fill="#000066"/>
<path d="M7.46167 21.897L8.32277 16.8262L8.44928 21.897H9.42377L11.2418 16.8262L10.4365 21.897H11.8846L12.9997 15.1715L10.6993 15.154L9.331 19.2718L9.2935 15.1715H7.18533L6.0542 21.897H7.46167Z" fill="#000066"/>
<path d="M29.2558 21.9061C29.6675 19.5683 29.8141 17.722 31.0148 18.1044C31.1872 17.1995 31.5982 16.4127 31.786 16.0297C31.786 16.0297 31.7266 15.9415 31.3555 15.9415C30.722 15.9415 29.8762 17.2251 29.8762 17.2251L30.0026 16.4315H28.6853L27.803 21.906L29.2558 21.9061Z" fill="#000066"/>
<path d="M37.7498 16.2962C36.7794 16.2962 36.036 16.6075 36.036 16.6075L35.8307 17.8242C35.8307 17.8242 36.4447 17.5752 37.3721 17.5752C37.899 17.5752 38.2842 17.6343 38.2842 18.0618C38.2842 18.3214 38.2372 18.4172 38.2372 18.4172C38.2372 18.4172 37.8217 18.3826 37.6292 18.3826C36.2482 18.3826 35.1209 18.9039 35.1209 20.4756C35.1209 21.7142 35.9638 21.9983 36.4864 21.9983C37.4843 21.9983 37.8797 21.369 37.9023 21.3671L37.8906 21.8894H39.1364L39.692 17.9998C39.6921 16.3491 38.2503 16.2962 37.7498 16.2962ZM37.9651 19.4546C37.9921 19.692 37.9035 20.8149 37.0517 20.8149C36.6121 20.8149 36.4981 20.4795 36.4981 20.2816C36.4981 19.8947 36.7083 19.4307 37.7448 19.4307C37.9864 19.4307 37.9246 19.4481 37.9651 19.4546Z" fill="#000066"/>
<path d="M41.1261 21.9069C41.3522 20.187 41.7707 17.7723 42.885 18.1051C43.0573 17.2003 42.8911 17.2027 42.5202 17.2027C41.8863 17.2027 41.7459 17.2258 41.7459 17.2258L41.8725 16.4321H40.5552L39.673 21.9067L41.1261 21.9069Z" fill="#000066"/>
<path d="M23.2703 21.3948L23.4474 20.1943C23.3507 20.1943 23.2084 20.2355 23.0828 20.2355C22.5905 20.2355 22.5362 19.9742 22.5675 19.7809L22.9653 17.3312H23.7137L23.8944 16.0032H23.1888L23.3323 15.1775H21.9178C21.8867 15.2086 21.0828 19.822 21.0828 20.3838C21.0828 21.2155 21.5505 21.5859 22.2099 21.5799C22.7263 21.5755 23.1284 21.4328 23.2703 21.3948Z" fill="white"/>
<path d="M23.718 19.1061C23.718 21.1021 25.0375 21.5764 26.1616 21.5764C27.1991 21.5764 27.6557 21.3448 27.6557 21.3448L27.9049 19.9825C27.9049 19.9825 27.1156 20.3297 26.4028 20.3297C24.8839 20.3297 25.1499 19.1989 25.1499 19.1989H28.0245C28.0245 19.1989 28.2102 18.2837 28.2102 17.9108C28.2102 16.9801 27.7463 15.8462 26.1932 15.8462C24.7709 15.8465 23.718 17.3768 23.718 19.1061ZM26.1986 17.1112C26.9969 17.1112 26.8496 18.0069 26.8496 18.0793H25.2791C25.2791 17.9868 25.4276 17.1112 26.1986 17.1112Z" fill="white"/>
<path d="M35.1556 21.3941L35.4087 19.8543C35.4087 19.8543 34.7146 20.2018 34.2383 20.2018C33.2349 20.2018 32.8325 19.4367 32.8325 18.6148C32.8325 16.9474 33.6958 16.0301 34.6569 16.0301C35.3777 16.0301 35.9562 16.4342 35.9562 16.4342L36.1871 14.9381C36.1871 14.9381 35.3292 14.5915 34.594 14.5915C32.961 14.5915 31.3724 16.006 31.3724 18.6626C31.3724 20.4241 32.2301 21.5875 33.9182 21.5875C34.3954 21.5877 35.1556 21.3941 35.1556 21.3941Z" fill="white"/>
<path d="M15.4893 15.868C14.5194 15.868 13.7758 16.1793 13.7758 16.1793L13.5705 17.396C13.5705 17.396 14.1842 17.1471 15.1119 17.1471C15.6386 17.1471 16.024 17.2062 16.024 17.6336C16.024 17.8932 15.9767 17.9891 15.9767 17.9891C15.9767 17.9891 15.5613 17.9543 15.3689 17.9543C14.1455 17.9543 12.8604 18.4756 12.8604 20.0474C12.8604 21.2858 13.7035 21.5699 14.226 21.5699C15.2241 21.5699 15.6543 20.9233 15.6772 20.9214L15.6305 21.4611H16.8761L17.4318 17.5714C17.4318 15.9212 15.9901 15.868 15.4893 15.868ZM15.7923 19.0351C15.8193 19.2727 15.6431 20.3864 14.7915 20.3864C14.3522 20.3864 14.2379 20.0514 14.2379 19.8531C14.2379 19.4666 14.4483 19.0025 15.4848 19.0025C15.7259 19.0028 15.7517 19.0285 15.7923 19.0351Z" fill="white"/>
<path d="M18.7564 21.5407C19.075 21.5407 20.8965 21.6215 20.8965 19.7448C20.8965 17.9903 19.2104 18.3369 19.2104 17.632C19.2104 17.2811 19.4853 17.1706 19.9876 17.1706C20.187 17.1706 20.9542 17.2339 20.9542 17.2339L21.1326 15.9868C21.1326 15.9868 20.636 15.8759 19.8276 15.8759C18.7811 15.8759 17.719 16.293 17.719 17.72C17.719 19.3372 19.4901 19.1748 19.4901 19.856C19.4901 20.3108 18.9953 20.3477 18.614 20.3477C17.9541 20.3477 17.3599 20.1216 17.3578 20.1324L17.1692 21.367C17.2033 21.3775 17.5698 21.5407 18.7564 21.5407Z" fill="white"/>
<path d="M46.8729 14.7484L46.5677 16.6389C46.5677 16.6389 46.0353 15.9045 45.2018 15.9045C43.9057 15.9045 42.8254 17.4648 42.8254 19.2577C42.8254 20.415 43.4016 21.5489 44.5795 21.5489C45.4269 21.5489 45.8966 20.9591 45.8966 20.9591L45.8343 21.4628H47.2102L48.2908 14.7462L46.8729 14.7484ZM46.216 18.4344C46.216 19.1804 45.846 20.177 45.0791 20.177C44.5701 20.177 44.3315 19.7503 44.3315 19.0806C44.3315 17.9855 44.8241 17.2631 45.4456 17.2631C45.9548 17.2629 46.216 17.6122 46.216 18.4344Z" fill="white"/>
<path d="M7.83113 21.4688L8.69225 16.3979L8.8186 21.4688H9.79325L11.6112 16.3979L10.8059 21.4688H12.254L13.3692 14.7431H11.13L9.73532 18.8696L9.66274 14.7431H7.59857L6.46729 21.4688H7.83113Z" fill="white"/>
<path d="M29.6257 21.4788C30.0374 19.1409 30.1137 17.2425 31.0963 17.5899C31.2682 16.6851 31.4342 16.3351 31.6219 15.9521C31.6219 15.9521 31.534 15.9337 31.3492 15.9337C30.7157 15.9337 30.2464 16.7979 30.2464 16.7979L30.3725 16.0042H29.0555L28.173 21.4788H29.6257Z" fill="white"/>
<path d="M38.4202 15.868C37.4502 15.868 36.7066 16.1793 36.7066 16.1793L36.5015 17.396C36.5015 17.396 37.1153 17.1471 38.043 17.1471C38.5697 17.1471 38.9547 17.2062 38.9547 17.6336C38.9547 17.8932 38.9078 17.9891 38.9078 17.9891C38.9078 17.9891 38.4923 17.9543 38.2998 17.9543C37.0766 17.9543 35.7914 18.4756 35.7914 20.0474C35.7914 21.2858 36.6344 21.5699 37.1569 21.5699C38.155 21.5699 38.5851 20.9233 38.6079 20.9214L38.5616 21.4611H39.8071L40.3627 17.5714C40.3628 15.9212 38.921 15.868 38.4202 15.868ZM38.7237 19.0351C38.7507 19.2727 38.5743 20.3864 37.7224 20.3864C37.283 20.3864 37.1691 20.0514 37.1691 19.8531C37.1691 19.4666 37.3795 19.0025 38.4158 19.0025C38.6569 19.0028 38.6826 19.0285 38.7237 19.0351Z" fill="white"/>
<path d="M41.5003 21.4788C41.9122 19.1409 41.9884 17.2425 42.9707 17.5899C43.143 16.6851 43.3091 16.3351 43.4967 15.9521C43.4967 15.9521 43.4087 15.9337 43.224 15.9337C42.5905 15.9337 42.1212 16.7979 42.1212 16.7979L42.2472 16.0042H40.9302L40.0478 21.4788H41.5003Z" fill="white"/>
<path d="M48.2599 20.6337C48.3317 20.6337 48.4025 20.6521 48.4707 20.6896C48.5396 20.7258 48.5931 20.7791 48.6315 20.8481C48.67 20.9167 48.6889 20.988 48.6889 21.0628C48.6889 21.1366 48.67 21.2079 48.632 21.276C48.5945 21.3441 48.5415 21.3976 48.4732 21.4351C48.4052 21.4725 48.3338 21.4914 48.2597 21.4914C48.185 21.4914 48.1137 21.4725 48.0455 21.4351C47.9774 21.3972 47.9247 21.3441 47.8868 21.276C47.8485 21.2079 47.8297 21.1366 47.8297 21.0628C47.8297 20.988 47.8488 20.9167 47.8873 20.8481C47.926 20.7791 47.9797 20.726 48.0482 20.6896C48.1173 20.6521 48.1881 20.6337 48.2599 20.6337ZM48.2599 20.7044C48.1998 20.7044 48.141 20.72 48.0835 20.7512C48.0263 20.7818 47.9818 20.826 47.9495 20.8837C47.9174 20.9408 47.9013 21.0005 47.9013 21.0624C47.9013 21.1244 47.9168 21.1837 47.9482 21.2404C47.9801 21.2968 48.0245 21.3411 48.0818 21.373C48.1384 21.4041 48.1977 21.4199 48.2599 21.4199C48.3216 21.4199 48.3813 21.4041 48.4381 21.373C48.4947 21.3411 48.5391 21.2968 48.5706 21.2404C48.6022 21.1833 48.6177 21.1244 48.6177 21.0624C48.6177 21.0005 48.6016 20.9408 48.5695 20.8837C48.5376 20.826 48.493 20.7818 48.4355 20.7512C48.3785 20.72 48.3202 20.7044 48.2599 20.7044ZM48.0718 21.2996V20.838H48.2308C48.2849 20.838 48.3245 20.8424 48.3485 20.8512C48.3728 20.8595 48.3918 20.8743 48.4067 20.8957C48.4212 20.9169 48.4286 20.9392 48.4286 20.9632C48.4286 20.9969 48.4163 21.0264 48.392 21.0512C48.3683 21.0761 48.3364 21.0904 48.2965 21.0932C48.3124 21.1 48.3256 21.1083 48.3357 21.1176C48.3542 21.1358 48.377 21.1664 48.404 21.2091L48.4605 21.2995H48.3692L48.3285 21.2268C48.2962 21.1696 48.2702 21.1339 48.2504 21.1194C48.2368 21.1088 48.2168 21.1035 48.1907 21.1035H48.147V21.2998L48.0718 21.2996ZM48.1464 21.0399H48.237C48.2803 21.0399 48.3095 21.0334 48.3251 21.0205C48.3409 21.008 48.3491 20.9908 48.3491 20.9693C48.3491 20.9557 48.3454 20.9435 48.3378 20.9332C48.3302 20.922 48.3196 20.9141 48.3059 20.9086C48.2923 20.9033 48.2679 20.9006 48.2313 20.9006H48.1466L48.1464 21.0399Z" fill="white"/>
</g>
<defs>
<clipPath id="clip0_13_261">
<rect width="53.68" height="36" fill="white" transform="translate(0.252563 0.325867)"/>
</clipPath>
</defs>
</svg>
