<svg width="36" height="36" viewBox="0 0 36 36" fill="none" xmlns="http://www.w3.org/2000/svg">
<g clip-path="url(#clip0_312_25321)">
<path d="M20.3398 32.3847C20.6311 32.3847 20.8672 32.1486 20.8672 31.8574V30.4355C20.8672 30.1443 20.6311 29.9082 20.3398 29.9082C20.0486 29.9082 19.8125 30.1443 19.8125 30.4355V31.8574C19.8125 32.1486 20.0486 32.3847 20.3398 32.3847Z" fill="black"/>
<path d="M15.6602 32.3925C15.9514 32.3925 16.1875 32.1564 16.1875 31.8651V30.4453C16.1875 30.1541 15.9514 29.918 15.6602 29.918C15.3689 29.918 15.1328 30.1541 15.1328 30.4453V31.8651C15.1328 32.1564 15.3689 32.3925 15.6602 32.3925Z" fill="black"/>
<path d="M30.2148 23.8066H33.2517C33.5429 23.8066 33.7791 23.5705 33.7791 23.2793C33.7791 22.9881 33.5429 22.752 33.2517 22.752H30.2148C29.9236 22.752 29.6875 22.9881 29.6875 23.2793C29.6875 23.5705 29.9236 23.8066 30.2148 23.8066Z" fill="black"/>
<path d="M30.2148 27.2754H33.2517C33.5429 27.2754 33.7791 27.0393 33.7791 26.748C33.7791 26.4568 33.5429 26.2207 33.2517 26.2207H30.2148C29.9236 26.2207 29.6875 26.4568 29.6875 26.748C29.6875 27.0393 29.9236 27.2754 30.2148 27.2754Z" fill="black"/>
<path d="M30.2148 30.7441H33.2517C33.5429 30.7441 33.7791 30.508 33.7791 30.2168C33.7791 29.9256 33.5429 29.6895 33.2517 29.6895H30.2148C29.9236 29.6895 29.6875 29.9256 29.6875 30.2168C29.6875 30.508 29.9236 30.7441 30.2148 30.7441Z" fill="black"/>
<path d="M30.2148 20.3398H33.2517C33.5429 20.3398 33.7791 20.1037 33.7791 19.8125C33.7791 19.5213 33.5429 19.2852 33.2517 19.2852H30.2148C29.9236 19.2852 29.6875 19.5213 29.6875 19.8125C29.6875 20.1037 29.9236 20.3398 30.2148 20.3398Z" fill="black"/>
<path d="M5.78299 22.752H2.7461C2.45486 22.752 2.21875 22.9881 2.21875 23.2793C2.21875 23.5705 2.45486 23.8066 2.7461 23.8066H5.78299C6.07423 23.8066 6.31034 23.5705 6.31034 23.2793C6.31034 22.9881 6.07423 22.752 5.78299 22.752Z" fill="black"/>
<path d="M5.78299 26.2207H2.7461C2.45486 26.2207 2.21875 26.4568 2.21875 26.748C2.21875 27.0393 2.45486 27.2754 2.7461 27.2754H5.78299C6.07423 27.2754 6.31034 27.0393 6.31034 26.748C6.31034 26.4568 6.07423 26.2207 5.78299 26.2207Z" fill="black"/>
<path d="M5.78299 29.6895H2.7461C2.45486 29.6895 2.21875 29.9256 2.21875 30.2168C2.21875 30.508 2.45486 30.7441 2.7461 30.7441H5.78299C6.07423 30.7441 6.31034 30.508 6.31034 30.2168C6.31034 29.9256 6.07423 29.6895 5.78299 29.6895Z" fill="black"/>
<path d="M5.78299 19.2852H2.7461C2.45486 19.2852 2.21875 19.5213 2.21875 19.8125C2.21875 20.1037 2.45486 20.3398 2.7461 20.3398H5.78299C6.07423 20.3398 6.31034 20.1037 6.31034 19.8125C6.31034 19.5213 6.07423 19.2852 5.78299 19.2852Z" fill="black"/>
<path d="M14.3071 13.5039H11.8662C11.4532 13.5039 11.1172 13.8408 11.1172 14.255V16.4722C11.1172 16.8864 11.4532 17.2233 11.8662 17.2233H14.3071C14.7213 17.2233 15.0582 16.8864 15.0582 16.4722V14.255C15.0582 13.8408 14.7213 13.5039 14.3071 13.5039ZM14.0035 16.1686H12.1719V14.5586H14.0035V16.1686Z" fill="black"/>
<path d="M16.7823 13.5039C16.3682 13.5039 16.0312 13.8408 16.0312 14.255V16.4722C16.0312 16.8864 16.3682 17.2233 16.7823 17.2233H19.2232C19.6362 17.2233 19.9723 16.8864 19.9723 16.4722V14.255C19.9723 13.8408 19.6362 13.5039 19.2232 13.5039H16.7823ZM18.9176 16.1686H17.0859V14.5586H18.9176V16.1686Z" fill="black"/>
<path d="M21.6964 17.2233H24.1353C24.5494 17.2233 24.8863 16.8864 24.8863 16.4722V14.255C24.8863 13.8408 24.5494 13.5039 24.1353 13.5039H21.6964C21.2823 13.5039 20.9453 13.8408 20.9453 14.255V16.4722C20.9453 16.8864 21.2823 17.2233 21.6964 17.2233ZM22 14.5586H23.8316V16.1686H22V14.5586Z" fill="black"/>
<path d="M14.3071 18.3379H11.8662C11.4532 18.3379 11.1172 18.6748 11.1172 19.089V21.3062C11.1172 21.7192 11.4532 22.0552 11.8662 22.0552H14.3071C14.7213 22.0552 15.0582 21.7192 15.0582 21.3062V19.089C15.0582 18.6748 14.7213 18.3379 14.3071 18.3379ZM14.0035 21.0006H12.1719V19.3926H14.0035V21.0006Z" fill="black"/>
<path d="M19.2232 18.3379H16.7823C16.3682 18.3379 16.0312 18.6748 16.0312 19.089V21.3062C16.0312 21.7192 16.3682 22.0552 16.7823 22.0552H19.2232C19.6362 22.0552 19.9723 21.7192 19.9723 21.3062V19.089C19.9723 18.6748 19.6362 18.3379 19.2232 18.3379ZM18.9176 21.0006H17.086V19.3926H18.9176V21.0006Z" fill="black"/>
<path d="M21.6964 22.0552H24.1353C24.5494 22.0552 24.8863 21.7192 24.8863 21.3062V19.089C24.8863 18.6748 24.5494 18.3379 24.1353 18.3379H21.6964C21.2823 18.3379 20.9453 18.6748 20.9453 19.089V21.3062C20.9453 21.7192 21.2823 22.0552 21.6964 22.0552ZM22 19.3926H23.8316V21.0006H22V19.3926Z" fill="black"/>
<path d="M35.076 12.7205H28.5289V11.2183H28.7216C29.2669 11.2183 29.7107 10.7745 29.7107 10.2292V7.85742C29.7107 7.31201 29.2669 6.86834 28.7216 6.86834H24.4689V0.998395C24.4689 0.513592 24.0735 0.119141 23.5876 0.119141H12.4104C11.9256 0.119141 11.5312 0.513592 11.5312 0.998395V6.86834H7.27847C6.732 6.86834 6.28734 7.31208 6.28734 7.85742V10.2292C6.28734 10.7745 6.73193 11.2183 7.27847 11.2183H7.4712V12.7205H0.923977C0.414492 12.7205 0 13.1359 0 13.6465V35.3526C0 35.6438 0.236109 35.8799 0.527344 35.8799H35.4727C35.7639 35.8799 36 35.6438 36 35.3526V13.6465C36 13.1359 35.5855 12.7205 35.076 12.7205ZM24.4688 7.92303H28.6559V10.1636H24.4688V7.92303ZM7.34196 10.1636V7.92303H11.5311V10.1636H7.34196ZM1.05469 13.7752H7.47112V15.8164H1.05469V13.7752ZM17.4727 26.9599V34.8253H12.9845V26.7549L17.5139 26.755C17.4874 26.818 17.4727 26.8872 17.4727 26.9599ZM23.0135 34.8253H18.5273V26.9599C18.5273 26.8872 18.5126 26.818 18.4861 26.7551L23.0134 26.7552V34.8253H23.0135ZM27.4742 34.8253H24.0682V26.7198C24.0682 26.1576 23.5998 25.7002 23.0242 25.7002H12.9758C12.399 25.7002 11.9298 26.1576 11.9298 26.7198V34.8253H8.52581V26.7015C8.52581 26.4103 8.2897 26.1742 7.99847 26.1742C7.70723 26.1742 7.47112 26.4103 7.47112 26.7015V34.8253H1.05469V16.8711H7.47112V24.2158C7.47112 24.507 7.70723 24.7431 7.99847 24.7431C8.2897 24.7431 8.52581 24.507 8.52581 24.2158V11.2183H17.0745C17.3657 11.2183 17.6018 10.9822 17.6018 10.6909C17.6018 10.3997 17.3657 10.1636 17.0745 10.1636H12.5858V1.17382H23.4141V10.1636H19.5581C19.2669 10.1636 19.0308 10.3997 19.0308 10.6909C19.0308 10.9822 19.2669 11.2183 19.5581 11.2183H27.4742V34.8253ZM34.9453 34.8253H28.5289V16.8711H34.9453V34.8253ZM34.9453 15.8164H28.5289V13.7752H34.9453V15.8164Z" fill="black"/>
<path d="M19.6831 7.90181V7.35105H20.2338C20.8936 7.35105 21.4304 6.81429 21.4304 6.15448V5.18016C21.4304 4.52034 20.8937 3.98358 20.2338 3.98358H19.6831V3.43486C19.6831 2.77505 19.1472 2.23828 18.4885 2.23828H17.5122C16.8524 2.23828 16.3156 2.77505 16.3156 3.43486V3.98358H15.7669C15.1071 3.98358 14.5703 4.52034 14.5703 5.18016V6.15448C14.5703 6.81429 15.1071 7.35105 15.7669 7.35105H16.3156V7.90181C16.3156 8.56162 16.8524 9.09839 17.5122 9.09839H18.4885C19.1472 9.09839 19.6831 8.56155 19.6831 7.90181ZM17.3704 7.90181V6.82371C17.3704 6.53248 17.1343 6.29637 16.843 6.29637H15.767C15.69 6.29637 15.6251 6.2314 15.6251 6.15448V5.18016C15.6251 5.10323 15.69 5.03827 15.767 5.03827H16.843C17.1343 5.03827 17.3704 4.80216 17.3704 4.51092V3.43486C17.3704 3.35794 17.4353 3.29297 17.5123 3.29297H18.4886C18.5644 3.29297 18.6285 3.35794 18.6285 3.43486V4.51092C18.6285 4.80216 18.8646 5.03827 19.1558 5.03827H20.2339C20.3108 5.03827 20.3758 5.10323 20.3758 5.18016V6.15448C20.3758 6.2314 20.3108 6.29637 20.2339 6.29637H19.1558C18.8646 6.29637 18.6285 6.53248 18.6285 6.82371V7.90181C18.6285 7.97873 18.5644 8.0437 18.4886 8.0437H17.5123C17.4353 8.0437 17.3704 7.97866 17.3704 7.90181Z" fill="black"/>
</g>
<defs>
<clipPath id="clip0_312_25321">
<rect width="36" height="36" fill="white"/>
</clipPath>
</defs>
</svg>
