<svg width="38" height="38" viewBox="0 0 38 38" fill="none" xmlns="http://www.w3.org/2000/svg">
<g clip-path="url(#clip0_312_25347)">
<path d="M22.639 21.6424C25.5018 19.6327 26.1933 15.6826 24.1835 12.8199C22.1737 9.95715 18.2238 9.26555 15.361 11.2754C12.4983 13.2852 11.8067 17.2351 13.8165 20.0978C14.238 20.6982 14.7606 21.2209 15.361 21.6424C11.9793 22.2237 9.50586 25.1534 9.5 28.5848V37.3673C9.49992 37.717 9.78334 38.0006 10.133 38.0007C10.1331 38.0007 10.1333 38.0007 10.1333 38.0007H27.8667C28.2163 38.0008 28.4999 37.7173 28.5 37.3677C28.5 37.3676 28.5 37.3674 28.5 37.3673V28.5848C28.4941 25.1534 26.0207 22.2237 22.639 21.6424ZM13.9333 16.4673C13.9333 13.6691 16.2018 11.4007 19 11.4007C21.7982 11.4007 24.0667 13.6691 24.0667 16.4673C24.0667 19.2656 21.7982 21.534 19 21.534C16.2031 21.5308 13.9365 19.2642 13.9333 16.4673ZM27.2333 36.734H10.7667V28.5848C10.7702 25.3918 13.3578 22.8042 16.5508 22.8007H21.4493C24.6422 22.8042 27.2298 25.3918 27.2333 28.5848V36.734Z" fill="black"/>
<path d="M19.6339 3.80078H18.3672V6.33411H19.6339V3.80078Z" fill="black"/>
<path d="M26.4163 5.35907L24.625 7.15039L25.5207 8.04605L27.312 6.25473L26.4163 5.35907Z" fill="black"/>
<path d="M34.8302 36.7324H32.2969V37.9991H34.8302V36.7324Z" fill="black"/>
<path d="M34.8302 30.4004H32.2969V31.6671H34.8302V30.4004Z" fill="black"/>
<path d="M34.8302 24.0664H32.2969V25.3331H34.8302V24.0664Z" fill="black"/>
<path d="M33.9344 17.3625L31.5312 18.1641L31.932 19.3656L34.3351 18.5641L33.9344 17.3625Z" fill="black"/>
<path d="M31.9656 10.7961L29.5625 11.5977L29.9633 12.7992L32.3664 11.9977L31.9656 10.7961Z" fill="black"/>
<path d="M11.5833 5.36228L10.6875 6.25781L12.4786 8.04939L13.3743 7.15385L11.5833 5.36228Z" fill="black"/>
<path d="M5.6974 36.7324H3.16406V37.9991H5.6974V36.7324Z" fill="black"/>
<path d="M5.6974 30.4004H3.16406V31.6671H5.6974V30.4004Z" fill="black"/>
<path d="M5.6974 24.0664H3.16406V25.3331H5.6974V24.0664Z" fill="black"/>
<path d="M4.06446 17.3647L3.66406 18.5664L6.06744 19.3672L6.46783 18.1655L4.06446 17.3647Z" fill="black"/>
<path d="M6.03346 10.8003L5.63281 12.002L8.03618 12.8032L8.43683 11.6016L6.03346 10.8003Z" fill="black"/>
<path d="M37.3641 2.53333C36.3152 2.53222 35.4652 1.68221 35.4641 0.633333C35.4641 0.283575 35.1805 0 34.8307 0C34.481 0 34.1974 0.283575 34.1974 0.633333C34.1963 1.68221 33.3463 2.53222 32.2974 2.53333C31.9476 2.53333 31.6641 2.81691 31.6641 3.16667C31.6641 3.51642 31.9476 3.8 32.2974 3.8C33.3463 3.80111 34.1963 4.65112 34.1974 5.7C34.1974 6.04976 34.481 6.33333 34.8307 6.33333C35.1805 6.33333 35.4641 6.04976 35.4641 5.7C35.4652 4.65112 36.3152 3.80111 37.3641 3.8C37.7138 3.8 37.9974 3.51642 37.9974 3.16667C37.9974 2.81691 37.7138 2.53333 37.3641 2.53333ZM34.8307 3.80182C34.65 3.56123 34.4362 3.3474 34.1956 3.16667C34.4362 2.98593 34.65 2.7721 34.8307 2.53151C35.0115 2.7721 35.2253 2.98593 35.4659 3.16667C35.2253 3.3474 35.0115 3.56123 34.8307 3.80182Z" fill="black"/>
<path d="M5.7 2.53333C4.65112 2.53222 3.80111 1.68221 3.8 0.633333C3.8 0.283575 3.51642 0 3.16667 0C2.81691 0 2.53333 0.283575 2.53333 0.633333C2.53222 1.68221 1.68221 2.53222 0.633333 2.53333C0.283575 2.53333 0 2.81691 0 3.16667C0 3.51642 0.283575 3.8 0.633333 3.8C1.68221 3.80111 2.53222 4.65112 2.53333 5.7C2.53333 6.04976 2.81691 6.33333 3.16667 6.33333C3.51642 6.33333 3.8 6.04976 3.8 5.7C3.80111 4.65112 4.65112 3.80111 5.7 3.8C6.04976 3.8 6.33333 3.51642 6.33333 3.16667C6.33333 2.81691 6.04976 2.53333 5.7 2.53333ZM3.16667 3.80182C2.98593 3.56123 2.7721 3.3474 2.53151 3.16667C2.7721 2.98593 2.98593 2.7721 3.16667 2.53151C3.3474 2.7721 3.56123 2.98593 3.80182 3.16667C3.56123 3.3474 3.3474 3.56123 3.16667 3.80182Z" fill="black"/>
</g>
<defs>
<clipPath id="clip0_312_25347">
<rect width="38" height="38" fill="white"/>
</clipPath>
</defs>
</svg>
