<svg width="38" height="38" viewBox="0 0 38 38" fill="none" xmlns="http://www.w3.org/2000/svg">
<g clip-path="url(#clip0_312_25396)">
<path d="M8.70802 22.866H4.68689C4.37658 22.866 4.125 22.6144 4.125 22.3041C4.125 21.9938 4.37658 21.7422 4.68689 21.7422H8.70802C9.01834 21.7422 9.26992 21.9938 9.26992 22.3041C9.26992 22.6144 9.01834 22.866 8.70802 22.866Z" fill="black"/>
<path d="M12.4538 22.866H11.1088C10.7985 22.866 10.5469 22.6144 10.5469 22.3041C10.5469 21.9938 10.7985 21.7422 11.1088 21.7422H12.4538C12.7641 21.7422 13.0157 21.9938 13.0157 22.3041C13.0157 22.6144 12.7641 22.866 12.4538 22.866Z" fill="black"/>
<path d="M16.3288 22.866H14.9838C14.6735 22.866 14.4219 22.6144 14.4219 22.3041C14.4219 21.9938 14.6735 21.7422 14.9838 21.7422H16.3288C16.6391 21.7422 16.8907 21.9938 16.8907 22.3041C16.8907 22.6144 16.6391 22.866 16.3288 22.866Z" fill="black"/>
<path d="M19.8756 22.866H18.5306C18.2203 22.866 17.9688 22.6144 17.9688 22.3041C17.9688 21.9938 18.2203 21.7422 18.5306 21.7422H19.8756C20.186 21.7422 20.4375 21.9938 20.4375 22.3041C20.4375 22.6144 20.186 22.866 19.8756 22.866Z" fill="black"/>
<path d="M8.70802 26.4363H4.68689C4.37658 26.4363 4.125 26.1847 4.125 25.8744C4.125 25.5641 4.37658 25.3125 4.68689 25.3125H8.70802C9.01834 25.3125 9.26992 25.5641 9.26992 25.8744C9.26992 26.1847 9.01834 26.4363 8.70802 26.4363Z" fill="black"/>
<path d="M12.4538 26.4363H11.1088C10.7985 26.4363 10.5469 26.1847 10.5469 25.8744C10.5469 25.5641 10.7985 25.3125 11.1088 25.3125H12.4538C12.7641 25.3125 13.0157 25.5641 13.0157 25.8744C13.0157 26.1847 12.7641 26.4363 12.4538 26.4363Z" fill="black"/>
<path d="M16.3288 26.4363H14.9838C14.6735 26.4363 14.4219 26.1847 14.4219 25.8744C14.4219 25.5641 14.6735 25.3125 14.9838 25.3125H16.3288C16.6391 25.3125 16.8907 25.5641 16.8907 25.8744C16.8907 26.1847 16.6391 26.4363 16.3288 26.4363Z" fill="black"/>
<path d="M19.8756 26.4363H18.5306C18.2203 26.4363 17.9688 26.1847 17.9688 25.8744C17.9688 25.5641 18.2203 25.3125 18.5306 25.3125H19.8756C20.186 25.3125 20.4375 25.5641 20.4375 25.8744C20.4375 26.1847 20.186 26.4363 19.8756 26.4363Z" fill="black"/>
<path d="M18.8343 10.114H15.3197C15.0094 10.114 14.7578 9.86244 14.7578 9.55213C14.7578 9.24181 15.0094 8.99023 15.3197 8.99023H18.8343C19.1447 8.99023 19.3962 9.24181 19.3962 9.55213C19.3962 9.86244 19.1447 10.114 18.8343 10.114Z" fill="black"/>
<path d="M18.8343 12.5418H15.3197C15.0094 12.5418 14.7578 12.2902 14.7578 11.9799C14.7578 11.6695 15.0094 11.418 15.3197 11.418H18.8343C19.1447 11.418 19.3962 11.6695 19.3962 11.9799C19.3962 12.2902 19.1447 12.5418 18.8343 12.5418Z" fill="black"/>
<path d="M18.8343 14.9714H15.3197C15.0094 14.9714 14.7578 14.7199 14.7578 14.4095C14.7578 14.0992 15.0094 13.8477 15.3197 13.8477H18.8343C19.1447 13.8477 19.3962 14.0992 19.3962 14.4095C19.3962 14.7199 19.1447 14.9714 18.8343 14.9714Z" fill="black"/>
<path d="M22.895 30.0954H22.6244C22.314 30.0954 22.0625 29.8438 22.0625 29.5335V23.808C22.0625 23.4977 22.314 23.2461 22.6244 23.2461H22.895C24.7834 23.2461 26.3197 24.7824 26.3197 26.6707C26.3197 28.5591 24.7834 30.0954 22.895 30.0954ZM23.1863 24.3882V28.9534C24.3179 28.8097 25.1959 27.8409 25.1959 26.6708C25.1959 25.5007 24.3179 24.5319 23.1863 24.3882Z" fill="black"/>
<path d="M8.85501 30.9255C8.85501 29.6129 7.78704 28.5449 6.47438 28.5449C5.16172 28.5449 4.09375 29.6129 4.09375 30.9255C4.09375 32.2382 5.16172 33.3062 6.47438 33.3062C7.78704 33.3062 8.85501 32.2382 8.85501 30.9255ZM5.21746 30.9255C5.21746 30.2325 5.7813 29.6687 6.4743 29.6687C7.16731 29.6687 7.73115 30.2325 7.73115 30.9255C7.73115 31.6185 7.16731 32.1824 6.4743 32.1824C5.7813 32.1824 5.21746 31.6185 5.21746 30.9255Z" fill="black"/>
<path d="M14.8081 30.9255C14.8081 29.6129 13.7402 28.5449 12.4275 28.5449C11.1148 28.5449 10.0469 29.6129 10.0469 30.9255C10.0469 32.2382 11.1148 33.3062 12.4275 33.3062C13.7402 33.3062 14.8081 32.2382 14.8081 30.9255ZM11.1707 30.9255C11.1707 30.2325 11.7345 29.6687 12.4275 29.6687C13.1205 29.6687 13.6843 30.2325 13.6843 30.9255C13.6843 31.6185 13.1206 32.1824 12.4275 32.1824C11.7344 32.1824 11.1707 31.6185 11.1707 30.9255Z" fill="black"/>
<path d="M20.7691 30.9255C20.7691 29.6129 19.7011 28.5449 18.3884 28.5449C17.0758 28.5449 16.0078 29.6129 16.0078 30.9255C16.0078 32.2382 17.0758 33.3062 18.3884 33.3062C19.7011 33.3062 20.7691 32.2382 20.7691 30.9255ZM17.1316 30.9255C17.1316 30.2325 17.6954 29.6687 18.3884 29.6687C19.0815 29.6687 19.6453 30.2325 19.6453 30.9255C19.6453 31.6185 19.0815 32.1824 18.3884 32.1824C17.6954 32.1824 17.1316 31.6185 17.1316 30.9255Z" fill="black"/>
<path d="M10.3006 8.99061C9.76612 8.98095 9.25674 9.15746 8.85008 9.47968C8.44357 9.15761 7.9336 8.98147 7.4001 8.99061C6.79625 9.00147 6.23106 9.24931 5.80859 9.68848C5.38567 10.1281 5.15972 10.7033 5.17238 11.308C5.17942 11.6472 5.25966 11.9725 5.41092 12.2746C5.75165 12.9556 7.25625 14.1569 8.00417 14.697C8.25822 14.8804 8.55595 14.9721 8.85353 14.9721C9.14938 14.9721 9.44501 14.8814 9.69734 14.7C10.3013 14.2656 11.9464 12.9792 12.3001 12.2527C12.4466 11.9518 12.5233 11.6286 12.528 11.2923C12.5455 10.0458 11.5463 9.01331 10.3006 8.99061ZM11.2897 11.7607C11.1447 12.0584 10.1523 12.9885 9.04113 13.7876C8.92822 13.8687 8.77576 13.8681 8.66189 13.7858C7.51937 12.9609 6.56115 12.0623 6.41581 11.7718C6.33977 11.6198 6.29946 11.456 6.29587 11.2846C6.2895 10.9806 6.40405 10.6905 6.61847 10.4676C6.83236 10.2452 7.11713 10.1196 7.42025 10.1142C7.42722 10.1141 7.43419 10.114 7.44115 10.114C7.81942 10.114 8.17176 10.2992 8.38693 10.6123C8.49174 10.7648 8.66496 10.8559 8.85001 10.8559C9.03506 10.8559 9.20827 10.7648 9.31308 10.6123C9.53222 10.2934 9.89191 10.1084 10.2801 10.1142C10.9088 10.1256 11.4131 10.6471 11.4043 11.2765C11.4019 11.4465 11.3633 11.6094 11.2897 11.7607Z" fill="black"/>
<path d="M36.063 26.1096H26.2726C26.0193 24.5815 24.7512 23.3927 23.1861 23.2601V4.92038C23.1861 2.20727 20.9788 0 18.2657 0H6.29546C3.58234 0 1.375 2.20727 1.375 4.92038V24.8092C1.375 25.1195 1.62658 25.3711 1.93689 25.3711C2.24721 25.3711 2.49879 25.1195 2.49879 24.8092V18.7099H22.0623V23.8087V29.5342V33.0795C22.0623 35.173 20.3591 36.8761 18.2656 36.8761H6.29546C4.202 36.8761 2.49886 35.173 2.49886 33.0795V27.0568C2.49886 26.7465 2.24728 26.4949 1.93697 26.4949C1.62665 26.4949 1.37507 26.7465 1.37507 27.0568V33.0795C1.37507 35.7927 3.58234 37.9999 6.29546 37.9999H18.2657C20.9788 37.9999 23.1861 35.7927 23.1861 33.0795V30.0828C24.7512 29.9502 26.0193 28.7614 26.2726 27.2333H36.063C36.3734 27.2333 36.6249 26.9817 36.6249 26.6714C36.6249 26.3611 36.3733 26.1096 36.063 26.1096ZM2.49879 17.5862V6.77216H4.22717C4.53748 6.77216 4.78906 6.52058 4.78906 6.21027C4.78906 5.89995 4.53748 5.64837 4.22717 5.64837H2.49879V4.92038C2.49879 2.82692 4.202 1.12379 6.29546 1.12379H18.2657C20.3591 1.12379 22.0623 2.82692 22.0623 4.92038V5.64837H6.47482C6.1645 5.64837 5.91292 5.89995 5.91292 6.21027C5.91292 6.52058 6.1645 6.77216 6.47482 6.77216H22.0623V17.5862H2.49879ZM23.1861 28.954V24.3889C24.3178 24.5325 25.1957 25.5014 25.1957 26.6715C25.1957 27.8416 24.3178 28.8104 23.1861 28.954Z" fill="black"/>
</g>
<defs>
<clipPath id="clip0_312_25396">
<rect width="38" height="38" fill="white"/>
</clipPath>
</defs>
</svg>
