<svg width="39" height="38" viewBox="0 0 39 38" fill="none" xmlns="http://www.w3.org/2000/svg">
<g clip-path="url(#clip0_312_25154)">
<path d="M22.1078 35.6714V32.5471C21.9803 32.5396 21.8618 32.532 21.7433 32.5275C21.2708 32.508 20.9244 32.1892 20.9304 31.7743C20.9364 31.3713 21.2693 31.0586 21.7223 31.036C21.8213 31.0315 21.9218 31.036 22.0223 31.036C23.9571 31.036 25.8919 31.0375 27.8252 31.036C28.8316 31.0345 29.463 30.4075 29.4645 29.4032C29.469 26.7765 29.4645 24.1498 29.4645 21.5231C29.4645 21.4224 29.4615 21.3232 29.4645 21.2224C29.4795 20.7172 29.7915 20.3699 30.2234 20.3774C30.6584 20.385 30.9523 20.7263 30.9523 21.245C30.9538 23.9965 30.9613 26.7494 30.9493 29.5009C30.9418 31.1819 29.604 32.5125 27.9182 32.529C26.6328 32.5411 25.3474 32.532 24.0621 32.532C23.9271 32.532 23.7921 32.532 23.6031 32.532C23.6031 32.6899 23.6031 32.8222 23.6031 32.9545C23.6031 34.2806 23.6001 35.6068 23.6031 36.9329C23.6031 37.2892 23.5401 37.611 23.1921 37.7914C22.8457 37.9703 22.5517 37.8425 22.2592 37.632C19.9915 35.9992 17.7207 34.3679 15.441 32.75C15.264 32.6237 15.0135 32.5426 14.7975 32.5426C11.1289 32.5305 7.45878 32.535 3.79016 32.5335C1.85687 32.526 0.5625 31.2285 0.5625 29.2754C0.5625 20.594 0.5625 11.914 0.5625 3.23262C0.5625 1.61181 1.4954 0.395452 2.99375 0.0721919C3.25922 0.0150575 3.53969 0.0150575 3.81266 0.0150575C11.7873 0.0105469 19.7635 0.0270858 27.7382 2.2128e-05C29.5335 -0.00599202 30.7034 1.21488 30.9148 2.4974C30.9538 2.73044 30.9598 2.96951 30.9613 3.20706C30.9658 4.5828 30.9628 5.95854 30.9628 7.33427C30.9628 7.45606 30.9628 7.57784 30.9628 7.76879C31.0918 7.65904 31.1758 7.59589 31.2508 7.52221C31.9587 6.81555 32.6622 6.10588 33.3701 5.40072C34.396 4.38133 35.6499 4.37982 36.6757 5.39471C37.0402 5.75556 37.4032 6.11641 37.7571 6.48628C38.6615 7.42749 38.66 8.7085 37.7391 9.63318C32.7132 14.679 27.6827 19.7204 22.6477 24.7572C22.4977 24.9076 22.2847 25.0309 22.0793 25.085C20.6844 25.4564 19.2851 25.8082 17.8842 26.16C17.1778 26.3375 16.7203 25.8789 16.9063 25.1767C17.2738 23.7905 17.6412 22.4042 18.0357 21.027C18.1077 20.7789 18.2787 20.5338 18.4646 20.3474C22.0313 16.7584 25.6054 13.1755 29.1855 9.5986C29.3865 9.39863 29.4735 9.20166 29.472 8.91449C29.46 7.00049 29.4675 5.08648 29.4645 3.17248C29.463 2.1185 28.8466 1.478 27.7982 1.478C19.774 1.47349 11.7483 1.47349 3.72417 1.478C2.66828 1.478 2.04435 2.11099 2.04285 3.15745C2.04135 11.8885 2.04285 20.6195 2.04285 29.3506C2.04285 30.4256 2.65928 31.03 3.74817 31.0315C7.52928 31.0315 11.3119 31.0255 15.093 31.045C15.4035 31.0465 15.7619 31.1653 16.0169 31.3442C17.9487 32.6974 19.861 34.0777 21.7793 35.4504C21.8693 35.515 21.9623 35.5737 22.1078 35.6699V35.6714ZM35.4084 9.81661C34.6885 9.09341 33.9685 8.37321 33.2876 7.69061C28.8346 12.1501 24.3545 16.6367 19.897 21.1006C20.5944 21.8028 21.3128 22.526 22.0193 23.2372C26.4798 18.7657 30.9523 14.2821 35.4084 9.81661ZM36.5558 8.69347C37.0627 8.26346 37.0852 7.91464 36.6143 7.4335C36.2828 7.09521 35.9498 6.75992 35.6109 6.42914C35.1564 5.9841 34.7634 6.02319 34.3915 6.52687C35.1144 7.25007 35.8343 7.97177 36.5558 8.69497V8.69347ZM18.6581 24.431C19.324 24.246 19.9105 24.0822 20.4009 23.9453C19.9765 23.5213 19.5535 23.1004 19.1456 22.6929C19.0016 23.2056 18.8381 23.786 18.6581 24.431Z" fill="black"/>
<path d="M17.3812 12.1901C18.6905 12.1901 19.9984 12.1826 21.3078 12.1931C21.9437 12.1976 22.3367 12.8111 21.9932 13.2907C21.8552 13.4831 21.5507 13.6651 21.3213 13.6666C18.692 13.6921 16.0613 13.6876 13.4321 13.6801C12.9596 13.6801 12.6162 13.3358 12.6252 12.9223C12.6327 12.5073 12.9791 12.1931 13.4561 12.1916C14.7655 12.1871 16.0733 12.1901 17.3827 12.1901H17.3812Z" fill="black"/>
<path d="M11.0683 24.5738C12.2022 24.5738 13.3361 24.5738 14.47 24.5738C15.0039 24.5738 15.3609 24.8775 15.3579 25.3195C15.3534 25.7646 15.0039 26.0623 14.4625 26.0623C12.2067 26.0653 9.95245 26.0653 7.69669 26.0623C7.15375 26.0623 6.79978 25.7706 6.78928 25.3285C6.77878 24.8775 7.14475 24.5723 7.70569 24.5723C8.82757 24.5723 9.94795 24.5723 11.0698 24.5723L11.0683 24.5738Z" fill="black"/>
<path d="M10.5374 7.47565C9.57745 7.47565 8.61755 7.47865 7.65915 7.47565C7.12971 7.47264 6.79824 7.19148 6.78924 6.75395C6.78024 6.31792 7.10871 6.00669 7.63366 6.00369C9.56545 5.99617 11.4973 5.99617 13.4291 6.00369C13.9615 6.00519 14.272 6.29838 14.2675 6.74794C14.2645 7.202 13.9555 7.47114 13.4171 7.47414C12.4572 7.47865 11.4973 7.47414 10.5389 7.47414L10.5374 7.47565Z" fill="black"/>
<path d="M19.053 7.4749C18.3301 7.4749 17.6056 7.47941 16.8827 7.4749C16.3653 7.47038 16.0608 7.20727 16.0473 6.77124C16.0338 6.31417 16.3383 6.00895 16.8632 6.00594C18.3346 5.99542 19.8074 5.99542 21.2788 6.00594C21.7842 6.00895 22.1022 6.30815 22.1097 6.73365C22.1172 7.17118 21.7812 7.47189 21.2608 7.4764C20.5243 7.48241 19.7894 7.4779 19.053 7.4779V7.4749Z" fill="black"/>
<path d="M8.9298 13.6782C8.50684 13.6782 8.08389 13.6842 7.66093 13.6782C7.12849 13.6692 6.77452 13.3519 6.78952 12.9099C6.80302 12.4799 7.14948 12.1927 7.66243 12.1912C8.53384 12.1897 9.40375 12.1882 10.2752 12.1912C10.7611 12.1927 11.0971 12.4874 11.1091 12.9099C11.1211 13.3264 10.7896 13.6586 10.3112 13.6737C9.8507 13.6887 9.39025 13.6767 8.9298 13.6767V13.6782Z" fill="black"/>
<path d="M14.4633 19.8559C14.0403 19.8559 13.6158 19.8665 13.1929 19.8529C12.7534 19.8394 12.458 19.5297 12.461 19.1177C12.464 18.7238 12.7519 18.408 13.1704 18.4005C14.0418 18.384 14.9147 18.3855 15.7861 18.4005C16.2061 18.408 16.4955 18.7223 16.5015 19.1147C16.5075 19.5237 16.2076 19.8394 15.7711 19.8529C15.3347 19.8665 14.8982 19.8559 14.4633 19.8559Z" fill="black"/>
<path d="M9.04279 19.8535C8.76831 19.8535 8.49534 19.8655 8.22237 19.8505C7.81141 19.8279 7.52194 19.5152 7.52344 19.1213C7.52494 18.7439 7.80241 18.4206 8.19387 18.4056C8.76531 18.383 9.33825 18.383 9.90969 18.4056C10.3177 18.4206 10.6026 18.7574 10.5891 19.1498C10.5756 19.5317 10.2967 19.8279 9.9022 19.8505C9.61723 19.867 9.32926 19.8535 9.04428 19.8535H9.04279Z" fill="black"/>
<path d="M24.8453 7.4679C24.5963 7.4679 24.3473 7.48143 24.0999 7.46489C23.7144 7.43933 23.4264 7.13111 23.4144 6.75823C23.4024 6.38836 23.6739 6.04706 24.0654 6.02451C24.5978 5.99444 25.1333 5.99444 25.6657 6.02451C26.0572 6.04706 26.3226 6.38535 26.3121 6.75974C26.3001 7.14163 26.0227 7.43031 25.6282 7.4679C25.6042 7.47091 25.5787 7.47241 25.5532 7.47241C25.3177 7.47241 25.0808 7.47241 24.8453 7.47241C24.8453 7.47091 24.8453 7.4694 24.8453 7.4679Z" fill="black"/>
</g>
<defs>
<clipPath id="clip0_312_25154">
<rect width="37.8696" height="37.8696" fill="white" transform="translate(0.5625)"/>
</clipPath>
</defs>
</svg>
