<svg width="32" height="38" viewBox="0 0 32 38" fill="none" xmlns="http://www.w3.org/2000/svg">
<path d="M15.779 21.2136C10.8832 21.054 9.70899 16.8622 9.45765 15.5089C8.98633 15.3997 8.56638 15.1329 8.2672 14.7527C7.92566 14.2821 7.76722 13.7032 7.82153 13.1242C7.78273 12.8122 7.80984 12.4956 7.9011 12.1948C7.99237 11.894 8.14575 11.6157 8.35134 11.3779C8.46739 11.2589 8.60082 11.1582 8.74707 11.0793C7.83712 9.61022 7.38895 7.90187 7.46054 6.17528C8.02727 2.12568 11.2908 1.73158 12.313 1.70878C12.7834 1.16161 13.3715 0.727914 14.0333 0.440157C15.2728 -0.0598409 16.6429 -0.136178 17.9303 0.223021C20.4611 0.883659 22.1487 2.15065 22.9494 3.98926C24.0894 6.6025 23.0895 9.61038 22.5152 10.961C22.7342 11.0321 22.9361 11.148 23.108 11.3013C23.3418 11.5388 23.5181 11.8268 23.6231 12.1431C23.7282 12.4594 23.7592 12.7956 23.7138 13.1258C23.7686 13.7048 23.6103 14.2838 23.2686 14.7543C22.9691 15.1345 22.5491 15.4012 22.0776 15.5105C21.8263 16.8622 20.6548 21.054 15.779 21.2136ZM9.65416 11.9473C9.46164 11.9383 9.2733 12.0054 9.12978 12.1341C9.03042 12.2732 8.95964 12.4307 8.92153 12.5974C8.88342 12.7641 8.87874 12.9367 8.90776 13.1052C8.91003 13.1414 8.90875 13.1778 8.90396 13.2138C8.87445 13.5253 8.95492 13.8374 9.13141 14.0959C9.24149 14.2188 9.37502 14.3186 9.52417 14.3892C9.67332 14.4599 9.83508 14.5001 9.99995 14.5074C10.1241 14.522 10.2393 14.5791 10.3263 14.6689C10.4132 14.7587 10.4665 14.8757 10.4771 15.0003C10.495 15.2022 10.9765 19.9711 15.7801 20.1285C20.5571 19.9711 21.0408 15.2022 21.0587 14.9992C21.0696 14.8748 21.123 14.758 21.2099 14.6685C21.2968 14.5789 21.4119 14.522 21.5359 14.5074C21.7008 14.5001 21.8625 14.46 22.0117 14.3893C22.1609 14.3187 22.2944 14.2189 22.4044 14.0959C22.5817 13.8361 22.6622 13.5224 22.6319 13.2094C22.6274 13.1745 22.6261 13.1393 22.6281 13.1041C22.6574 12.9301 22.6508 12.7519 22.6087 12.5805C22.5666 12.4091 22.4899 12.2481 22.3833 12.1075C22.2137 11.9826 22.0027 11.9274 21.7937 11.9533C21.6933 11.9711 21.5898 11.9603 21.4953 11.922C21.4007 11.8837 21.3188 11.8195 21.259 11.7369C21.1992 11.6542 21.164 11.5563 21.1572 11.4545C21.1505 11.3527 21.1726 11.2511 21.221 11.1613C21.2411 11.1233 23.2295 7.34945 21.9517 4.41647C21.29 2.90086 19.8455 1.84286 17.6573 1.27179C16.6056 0.974163 15.4851 1.0314 14.4692 1.43464C13.8912 1.68365 13.3874 2.07784 13.0068 2.57895C12.9519 2.6535 12.8788 2.71265 12.7945 2.75068C12.7101 2.78872 12.6174 2.80436 12.5253 2.79609C12.3847 2.78469 9.06084 2.56973 8.53971 6.28548C8.53971 6.28548 8.38934 9.24125 10.1015 11.0326C10.1761 11.1106 10.2257 11.2091 10.2441 11.3155C10.2625 11.4218 10.2487 11.5312 10.2046 11.6298C10.1639 11.7308 10.0923 11.8163 9.99986 11.874C9.90747 11.9316 9.79916 11.9584 9.69053 11.9506L9.65416 11.9473Z" fill="black"/>
<path d="M21.6979 11.9598C21.5578 11.9599 21.4231 11.9059 21.3219 11.8089C21.2207 11.712 21.161 11.5797 21.1551 11.4397C21.1486 11.2991 20.9803 8.01984 18.5321 7.70445C17.4123 7.84666 16.2752 7.758 15.191 7.44394C14.1068 7.12987 13.0984 6.59705 12.228 5.87833C11.5359 6.39892 9.94106 7.9813 10.2478 11.3561C10.2518 11.4943 10.203 11.6288 10.1113 11.7322C10.0197 11.8356 9.892 11.9001 9.75437 11.9127C9.61674 11.9252 9.47952 11.8848 9.37067 11.7996C9.26183 11.7145 9.18955 11.591 9.16859 11.4544C8.71858 6.50314 11.898 4.78451 12.0332 4.71394C12.1338 4.66143 12.2483 4.64178 12.3607 4.65774C12.4731 4.67371 12.5776 4.7245 12.6596 4.80296C13.4333 5.50377 14.3493 6.02921 15.3448 6.34335C16.3404 6.65749 17.392 6.75292 18.4278 6.62311C18.4775 6.61507 18.5281 6.61325 18.5782 6.61768C21.338 6.90485 22.181 9.86985 22.2408 11.3947C22.2463 11.5383 22.1947 11.6783 22.0972 11.7839C21.9997 11.8896 21.8643 11.9522 21.7207 11.9582L21.6979 11.9598Z" fill="black"/>
<path d="M31.0386 37.9992H0.542842C0.398871 37.9992 0.260798 37.942 0.158995 37.8402C0.0571924 37.7384 0 37.6004 0 37.4564V31.4048C0.00388019 29.4921 0.766109 27.6591 2.11954 26.3076C3.47297 24.9561 5.30712 24.1965 7.21979 24.1953H8.26205C8.40602 24.1953 8.54409 24.2525 8.6459 24.3543C8.7477 24.4561 8.80489 24.5942 8.80489 24.7382C8.80489 24.8821 8.7477 25.0202 8.6459 25.122C8.54409 25.2238 8.40602 25.281 8.26205 25.281H7.21979C5.59498 25.2819 4.0368 25.927 2.88691 27.0749C1.73703 28.2229 1.08928 29.78 1.08568 31.4048V36.9136H30.4958V31.4048C30.4939 29.7812 29.8481 28.2247 28.7001 27.0767C27.552 25.9286 25.9955 25.2829 24.372 25.281H23.2548C23.1108 25.281 22.9727 25.2238 22.8709 25.122C22.7691 25.0202 22.7119 24.8821 22.7119 24.7382C22.7119 24.5942 22.7691 24.4561 22.8709 24.3543C22.9727 24.2525 23.1108 24.1953 23.2548 24.1953H24.372C26.2832 24.198 28.1154 24.9585 29.4668 26.3099C30.8183 27.6614 31.5787 29.4936 31.5814 31.4048V37.4564C31.5814 37.6004 31.5242 37.7384 31.4224 37.8402C31.3206 37.942 31.1826 37.9992 31.0386 37.9992Z" fill="black"/>
<path d="M17.6054 37.9993C17.5273 37.9993 17.4501 37.9825 17.3791 37.9499C17.308 37.9173 17.2449 37.8698 17.1939 37.8106C17.1429 37.7514 17.1054 37.6819 17.0837 37.6068C17.0621 37.5317 17.0569 37.4528 17.0686 37.3756L19.2654 22.8367C19.2771 22.7597 19.3051 22.6862 19.3476 22.6211C19.3902 22.5559 19.4462 22.5007 19.5119 22.4591C19.5777 22.4175 19.6516 22.3905 19.7286 22.38C19.8057 22.3695 19.8842 22.3756 19.9586 22.398L23.7498 23.5407C23.8253 23.5635 23.895 23.6024 23.9539 23.6548C24.0128 23.7073 24.0596 23.7719 24.091 23.8442C24.1224 23.9165 24.1377 23.9948 24.1358 24.0737C24.1339 24.1525 24.1148 24.23 24.0799 24.3007L22.573 27.3243L23.4469 28.3052C23.5244 28.3928 23.5715 28.503 23.5813 28.6195C23.5911 28.736 23.563 28.8525 23.5012 28.9518L18.0668 37.742C18.0182 37.8206 17.9503 37.8855 17.8695 37.9306C17.7888 37.9756 17.6979 37.9993 17.6054 37.9993ZM20.2458 23.6183L18.5386 34.9165L22.3672 28.7281L21.5188 27.7754C21.4466 27.6945 21.4003 27.5938 21.3859 27.4863C21.3715 27.3788 21.3896 27.2694 21.4379 27.1723L22.821 24.3962L20.2458 23.6183Z" fill="black"/>
<path d="M13.9155 37.9995C13.823 37.9995 13.7319 37.9759 13.6511 37.9309C13.5702 37.8858 13.5022 37.8209 13.4536 37.7422L8.01754 28.9536C7.95577 28.8543 7.92769 28.7378 7.93747 28.6213C7.94725 28.5048 7.99437 28.3946 8.07183 28.307L8.9458 27.3261L7.43887 24.3025C7.40397 24.2318 7.3849 24.1543 7.38297 24.0755C7.38105 23.9966 7.39633 23.9183 7.42774 23.846C7.45915 23.7737 7.50595 23.7091 7.56487 23.6566C7.62379 23.6042 7.69342 23.5653 7.76892 23.5425L11.5601 22.3998C11.6346 22.3775 11.713 22.3714 11.79 22.382C11.867 22.3926 11.9408 22.4196 12.0065 22.4612C12.0722 22.5028 12.1281 22.558 12.1706 22.6231C12.2131 22.6881 12.2411 22.7616 12.2528 22.8385L14.4508 37.3774C14.4621 37.4544 14.4568 37.5329 14.4351 37.6077C14.4135 37.6824 14.376 37.7517 14.3252 37.8107C14.2745 37.8697 14.2116 37.9171 14.1409 37.9496C14.0702 37.9822 13.9934 37.9992 13.9155 37.9995ZM9.15371 28.7267L12.9824 34.915L11.2751 23.6185L8.6999 24.3948L10.0825 27.1709C10.1309 27.2679 10.1491 27.3772 10.1348 27.4847C10.1205 27.5922 10.0743 27.693 10.0022 27.774L9.15371 28.7267Z" fill="black"/>
<path d="M15.8018 27.8782C14.6281 27.8774 13.4555 27.8063 12.2902 27.6655C12.2179 27.6588 12.1477 27.6378 12.0837 27.6036C12.0198 27.5694 11.9633 27.5227 11.9176 27.4662C11.872 27.4098 11.8382 27.3448 11.8181 27.2751C11.798 27.2053 11.7921 27.1323 11.8007 27.0602C11.8094 26.9882 11.8324 26.9186 11.8684 26.8556C11.9044 26.7926 11.9526 26.7374 12.0103 26.6934C12.068 26.6494 12.1339 26.6173 12.2042 26.5992C12.2744 26.5811 12.3476 26.5773 12.4194 26.5879C14.638 26.8607 16.8816 26.8607 19.1002 26.5879C19.2416 26.5726 19.3835 26.6135 19.4951 26.7017C19.6068 26.79 19.6793 26.9185 19.6971 27.0597C19.7149 27.2009 19.6765 27.3435 19.5903 27.4567C19.504 27.5698 19.3767 27.6446 19.2359 27.6649C18.0968 27.8079 16.9499 27.8791 15.8018 27.8782Z" fill="black"/>
<path d="M19.8077 23.4604C19.7232 23.4601 19.6399 23.44 19.5645 23.4019C19.4891 23.3637 19.4237 23.3084 19.3734 23.2405C18.5667 22.15 18.4207 19.9884 18.4072 19.7457C18.3989 19.602 18.4479 19.461 18.5436 19.3535C18.6393 19.246 18.7738 19.1809 18.9174 19.1725C19.0607 19.1658 19.2009 19.2154 19.3081 19.3108C19.4152 19.4061 19.4807 19.5397 19.4907 19.6827C19.5238 20.2538 19.7246 21.8905 20.2458 22.5951C20.3053 22.6757 20.3414 22.7713 20.3499 22.8712C20.3585 22.9711 20.3392 23.0714 20.2942 23.161C20.2493 23.2506 20.1803 23.3261 20.0951 23.3789C20.0099 23.4317 19.9117 23.4599 19.8115 23.4604H19.8077Z" fill="black"/>
<path d="M11.7123 23.4618C11.612 23.4613 11.5139 23.4331 11.4286 23.3803C11.3434 23.3274 11.2745 23.252 11.2295 23.1624C11.1846 23.0728 11.1653 22.9725 11.1739 22.8726C11.1824 22.7727 11.2185 22.6771 11.278 22.5965C11.8002 21.8908 12.0005 20.2547 12.0337 19.6841C12.0378 19.6129 12.0559 19.5431 12.087 19.4788C12.1181 19.4145 12.1616 19.357 12.2149 19.3095C12.2682 19.262 12.3304 19.2255 12.3978 19.2021C12.4653 19.1786 12.5367 19.1687 12.608 19.1728C12.6793 19.1769 12.749 19.1951 12.8133 19.2262C12.8776 19.2573 12.9351 19.3007 12.9826 19.354C13.0301 19.4074 13.0666 19.4695 13.0901 19.537C13.1135 19.6044 13.1235 19.6758 13.1193 19.7471C13.1058 19.9898 12.9565 22.1514 12.1531 23.2419C12.1022 23.3107 12.0357 23.3665 11.9591 23.4047C11.8825 23.4429 11.7979 23.4625 11.7123 23.4618Z" fill="black"/>
<path d="M26.7316 30.3913C26.5903 30.3914 26.4546 30.3364 26.3532 30.2379C26.2519 30.1395 26.1929 30.0055 26.1888 29.8642C26.0873 26.3293 24.7432 25.217 24.7302 25.2061C24.618 25.1171 24.5453 24.9876 24.5276 24.8454C24.5099 24.7033 24.5488 24.5599 24.6357 24.4461C24.7221 24.3333 24.8494 24.259 24.9902 24.2395C25.131 24.22 25.2738 24.2568 25.3875 24.3419C25.4592 24.3962 27.1556 25.7137 27.2745 29.8328C27.2786 29.9766 27.2254 30.1161 27.1267 30.2207C27.0279 30.3254 26.8917 30.3865 26.7479 30.3908L26.7316 30.3913Z" fill="black"/>
<path d="M26.7323 33.5964C26.3079 33.5965 25.893 33.4707 25.54 33.235C25.1871 32.9993 24.9119 32.6642 24.7494 32.2721C24.5869 31.88 24.5444 31.4485 24.6271 31.0322C24.7098 30.6159 24.9142 30.2335 25.2143 29.9334C25.5143 29.6332 25.8967 29.4288 26.313 29.346C26.7292 29.2631 27.1607 29.3056 27.5528 29.468C27.945 29.6304 28.2801 29.9054 28.516 30.2583C28.7518 30.6112 28.8776 31.0261 28.8776 31.4505C28.8771 32.0194 28.6509 32.5648 28.2487 32.9671C27.8465 33.3693 27.3012 33.5957 26.7323 33.5964ZM26.7323 30.3904C26.5226 30.3903 26.3176 30.4523 26.1432 30.5688C25.9688 30.6852 25.8328 30.8507 25.7525 31.0445C25.6722 31.2382 25.6511 31.4513 25.6919 31.657C25.7328 31.8627 25.8337 32.0517 25.9819 32.2C26.1302 32.3483 26.3191 32.4493 26.5248 32.4903C26.7304 32.5312 26.9436 32.5103 27.1374 32.4301C27.3311 32.3498 27.4967 32.214 27.6133 32.0396C27.7298 31.8652 27.792 31.6602 27.792 31.4505C27.7917 31.1695 27.68 30.9001 27.4813 30.7014C27.2827 30.5027 27.0133 30.3908 26.7323 30.3904Z" fill="black"/>
<path d="M4.43633 30.3908C4.29879 30.3911 4.16625 30.3393 4.06549 30.2456C3.96473 30.152 3.90325 30.0237 3.89349 29.8865C3.59764 25.7202 5.89331 24.3886 5.99103 24.3338C6.11642 24.263 6.2648 24.2449 6.4035 24.2836C6.54221 24.3222 6.65989 24.4144 6.73065 24.5398C6.80141 24.6652 6.81946 24.8135 6.78082 24.9522C6.74219 25.0909 6.65004 25.2086 6.52464 25.2794C6.44213 25.3282 4.73326 26.383 4.97591 29.8099C4.98606 29.9536 4.93875 30.0953 4.84438 30.204C4.75001 30.3128 4.61631 30.3795 4.4727 30.3897L4.43633 30.3908Z" fill="black"/>
<path d="M3.33992 34.7381C3.25592 34.7385 3.17298 34.7194 3.09763 34.6823C3.02227 34.6452 2.95655 34.5911 2.90565 34.5242C2.64067 34.1762 2.44546 33.7803 2.33078 33.3582C2.07879 32.5361 2.16146 31.6477 2.56083 30.8861C2.96021 30.1246 3.644 29.5514 4.4636 29.2912C4.85236 29.1819 5.259 29.1512 5.65978 29.2007C6.06055 29.2503 6.44743 29.3793 6.79782 29.58C7.41189 29.9348 7.90306 30.4686 8.2057 31.1099C8.50834 31.7513 8.60805 32.4698 8.49149 33.1693C8.46787 33.3113 8.38881 33.4382 8.27169 33.5219C8.15456 33.6056 8.00897 33.6394 7.86695 33.6158C7.72492 33.5922 7.59809 33.5131 7.51436 33.396C7.43062 33.2789 7.39685 33.1333 7.42046 32.9912C7.50013 32.5119 7.43246 32.0197 7.2264 31.5797C7.02033 31.1396 6.68558 30.7725 6.26638 30.5267C6.04035 30.3962 5.79058 30.3121 5.53166 30.2792C5.27274 30.2463 5.00986 30.2653 4.75837 30.3351C4.21443 30.517 3.76415 30.9061 3.50521 31.4179C3.24627 31.9296 3.19956 32.5229 3.37521 33.0689C3.45376 33.3578 3.5876 33.6288 3.76931 33.8669C3.83044 33.9473 3.86791 34.0432 3.87748 34.1438C3.88706 34.2444 3.86837 34.3457 3.82352 34.4362C3.77868 34.5268 3.70944 34.603 3.62362 34.6563C3.5378 34.7097 3.4388 34.738 3.33775 34.7381H3.33992Z" fill="black"/>
</svg>
