<svg width="38" height="38" viewBox="0 0 38 38" fill="none" xmlns="http://www.w3.org/2000/svg">
<path d="M2.96875 16.625H14.8438C15.3162 16.625 15.7692 16.4373 16.1033 16.1033C16.4373 15.7692 16.625 15.3162 16.625 14.8437V2.96875C16.625 2.49633 16.4373 2.04327 16.1033 1.70922C15.7692 1.37517 15.3162 1.1875 14.8438 1.1875H2.96875C2.49633 1.1875 2.04327 1.37517 1.70922 1.70922C1.37517 2.04327 1.1875 2.49633 1.1875 2.96875V14.8437C1.1875 15.3162 1.37517 15.7692 1.70922 16.1033C2.04327 16.4373 2.49633 16.625 2.96875 16.625ZM2.375 2.96875C2.375 2.81128 2.43756 2.66026 2.54891 2.54891C2.66026 2.43756 2.81128 2.375 2.96875 2.375H14.8438C15.0012 2.375 15.1522 2.43756 15.2636 2.54891C15.3749 2.66026 15.4375 2.81128 15.4375 2.96875V14.8437C15.4375 15.0012 15.3749 15.1522 15.2636 15.2636C15.1522 15.3749 15.0012 15.4375 14.8438 15.4375H2.96875C2.81128 15.4375 2.66026 15.3749 2.54891 15.2636C2.43756 15.1522 2.375 15.0012 2.375 14.8437V2.96875Z" fill="black"/>
<path d="M4.15625 10.6875H7.125V13.6562C7.125 13.8137 7.18756 13.9647 7.29891 14.0761C7.41026 14.1874 7.56128 14.25 7.71875 14.25H10.0938C10.2512 14.25 10.4022 14.1874 10.5136 14.0761C10.6249 13.9647 10.6875 13.8137 10.6875 13.6562V10.6875H13.6562C13.8137 10.6875 13.9647 10.6249 14.0761 10.5136C14.1874 10.4022 14.25 10.2512 14.25 10.0938V7.71875C14.25 7.56128 14.1874 7.41026 14.0761 7.29891C13.9647 7.18756 13.8137 7.125 13.6562 7.125H10.6875V4.15625C10.6875 3.99878 10.6249 3.84776 10.5136 3.73641C10.4022 3.62506 10.2512 3.5625 10.0938 3.5625H7.71875C7.56128 3.5625 7.41026 3.62506 7.29891 3.73641C7.18756 3.84776 7.125 3.99878 7.125 4.15625V7.125H4.15625C3.99878 7.125 3.84776 7.18756 3.73641 7.29891C3.62506 7.41026 3.5625 7.56128 3.5625 7.71875V10.0938C3.5625 10.2512 3.62506 10.4022 3.73641 10.5136C3.84776 10.6249 3.99878 10.6875 4.15625 10.6875ZM4.75 8.3125H7.71875C7.87622 8.3125 8.02725 8.24994 8.13859 8.13859C8.24994 8.02725 8.3125 7.87622 8.3125 7.71875V4.75H9.5V7.71875C9.5 7.87622 9.56256 8.02725 9.6739 8.13859C9.78525 8.24994 9.93628 8.3125 10.0938 8.3125H13.0625V9.5H10.0938C9.93628 9.5 9.78525 9.56256 9.6739 9.6739C9.56256 9.78525 9.5 9.93628 9.5 10.0938V13.0625H8.3125V10.0938C8.3125 9.93628 8.24994 9.78525 8.13859 9.6739C8.02725 9.56256 7.87622 9.5 7.71875 9.5H4.75V8.3125Z" fill="black"/>
<path d="M36.2188 23.7504H11.3887L8.3125 22.5967V20.1879C8.31258 20.0669 8.27572 19.9488 8.20685 19.8494C8.13799 19.75 8.0404 19.674 7.92716 19.6315L3.17716 17.8503C3.0873 17.8166 2.99062 17.8052 2.89539 17.817C2.80016 17.8289 2.70922 17.8637 2.63037 17.9184C2.55151 17.9731 2.48709 18.046 2.44262 18.1311C2.39814 18.2161 2.37494 18.3107 2.375 18.4066V20.3702L1.98966 20.2253C1.8998 20.1916 1.80312 20.1802 1.70789 20.1921C1.61266 20.2039 1.52172 20.2387 1.44287 20.2934C1.36401 20.3481 1.29959 20.421 1.25512 20.5061C1.21064 20.5911 1.18744 20.6857 1.1875 20.7816V23.1566C1.18742 23.2776 1.22428 23.3956 1.29315 23.4951C1.36201 23.5945 1.4596 23.6705 1.57284 23.713L2.375 24.0134V36.2191C2.375 36.3766 2.43756 36.5276 2.54891 36.639C2.66026 36.7503 2.81128 36.8129 2.96875 36.8129H5.34375C5.50122 36.8129 5.65225 36.7503 5.76359 36.639C5.87494 36.5276 5.9375 36.3766 5.9375 36.2191V33.2504H32.0625V36.2191C32.0625 36.3766 32.1251 36.5276 32.2364 36.639C32.3478 36.7503 32.4988 36.8129 32.6562 36.8129H35.0312C35.1887 36.8129 35.3397 36.7503 35.4511 36.639C35.5624 36.5276 35.625 36.3766 35.625 36.2191V27.3129H36.2188C36.3762 27.3129 36.5272 27.2503 36.6386 27.139C36.7499 27.0276 36.8125 26.8766 36.8125 26.7191V24.3441C36.8125 24.1866 36.7499 24.0356 36.6386 23.9243C36.5272 23.8129 36.3762 23.7504 36.2188 23.7504ZM3.5625 19.2634L7.125 20.5993V22.1514L3.5625 20.8155V19.2634ZM4.75 35.6254H3.5625V24.4587L4.75 24.904V35.6254ZM32.0625 29.6879H5.9375V25.3493L11.0728 27.2755C11.1395 27.3003 11.2101 27.313 11.2812 27.3129H32.0625V29.6879ZM5.9375 32.0629V30.8754H32.0625V32.0629H5.9375ZM34.4375 35.6254H33.25V27.3129H34.4375V35.6254ZM35.625 26.1254H11.3887L2.375 22.7452V21.6384L11.0728 24.9005C11.1395 24.9253 11.2101 24.938 11.2812 24.9379H35.625V26.1254Z" fill="black"/>
<path d="M27.8317 9.18167L26.9922 10.0212L28.6719 11.7004C28.7833 11.8117 28.9342 11.8742 29.0917 11.8742C29.2491 11.8742 29.4001 11.8117 29.5115 11.7004L32.8703 8.34152L32.0308 7.50195L29.0917 10.441L27.8317 9.18167Z" fill="black"/>
<path d="M36.4474 4.20202L29.3224 1.23327C29.2499 1.20306 29.1722 1.1875 29.0938 1.1875C29.0153 1.1875 28.9376 1.20306 28.8652 1.23327L21.7402 4.20202C21.632 4.24714 21.5396 4.32325 21.4747 4.42077C21.4097 4.51829 21.375 4.63286 21.375 4.75005V10.0089C21.3726 10.867 21.5404 11.7171 21.8688 12.51C22.1972 13.3028 22.6796 14.0226 23.2881 14.6277L28.674 20.0136C28.7853 20.1249 28.9363 20.1874 29.0938 20.1874C29.2512 20.1874 29.4022 20.1249 29.5136 20.0136L34.8995 14.6277C35.508 14.0226 35.9904 13.3028 36.3188 12.51C36.6472 11.7171 36.815 10.867 36.8125 10.0089V4.75005C36.8125 4.63286 36.7779 4.51829 36.7129 4.42077C36.6479 4.32325 36.5555 4.24714 36.4474 4.20202ZM35.625 10.0089C35.627 10.711 35.4896 11.4066 35.221 12.0553C34.9523 12.704 34.5577 13.2929 34.0599 13.7881L29.0938 18.7542L24.1277 13.7881C23.6299 13.2929 23.2352 12.704 22.9666 12.0553C22.6979 11.4066 22.5606 10.711 22.5625 10.0089V5.14608L29.0938 2.42433L35.625 5.14608V10.0089Z" fill="black"/>
<path d="M28.8652 3.16296L23.5214 5.38952C23.4133 5.43464 23.3209 5.51075 23.2559 5.60827C23.1909 5.70579 23.1563 5.82036 23.1563 5.93755V10.0089C23.1546 10.633 23.2767 11.2512 23.5153 11.8278C23.754 12.4044 24.1046 12.928 24.5468 13.3683L28.6734 17.4949C28.7847 17.6062 28.9357 17.6687 29.0932 17.6687C29.2506 17.6687 29.4016 17.6062 29.513 17.4949L33.6401 13.3683C34.0824 12.928 34.4331 12.4045 34.6719 11.8278C34.9107 11.2512 35.0328 10.633 35.0313 10.0089V5.93755C35.0313 5.82036 34.9966 5.70579 34.9316 5.60827C34.8666 5.51075 34.7743 5.43464 34.6661 5.38952L29.3224 3.16296C29.2499 3.13274 29.1722 3.11719 29.0938 3.11719C29.0153 3.11719 28.9376 3.13274 28.8652 3.16296ZM33.8438 6.33358V10.0089C33.845 10.4769 33.7534 10.9405 33.5743 11.373C33.3953 11.8054 33.1323 12.198 32.8005 12.5282L29.0938 16.2355L25.387 12.5282C25.0553 12.198 24.7923 11.8054 24.6132 11.373C24.4342 10.9405 24.3426 10.4769 24.3438 10.0089V6.33358L29.0938 4.35402L33.8438 6.33358Z" fill="black"/>
</svg>
