<svg width="33" height="44" viewBox="0 0 33 44" fill="none" xmlns="http://www.w3.org/2000/svg">
<path fill-rule="evenodd" clip-rule="evenodd" d="M6.41984 0.0665786C6.29074 0.117859 6.02004 0.31478 5.81814 0.504226C4.99184 1.28007 5.01154 1.01734 5.01154 11.2264V20.7278H3.40514C2.14234 20.7278 1.68234 20.792 1.25364 21.0283C-0.42036 21.9509 -0.41726 24.4384 1.25924 25.3119C1.67154 25.5268 2.19304 25.5957 3.40764 25.5958L5.01154 25.5961V28.3369V31.0777L3.32944 31.1378C1.92024 31.1882 1.55484 31.2574 1.07714 31.5641C-0.368261 32.4921 -0.335361 34.727 1.13734 35.6581C1.56244 35.9271 1.92704 35.9808 3.32944 35.9813L5.01154 35.9819V39.0412C5.01154 41.9466 5.02924 42.1274 5.36364 42.6369C5.91224 43.4729 6.43784 43.7984 7.23954 43.7984C8.11504 43.7984 8.78544 43.4542 9.26314 42.7594C9.60924 42.2563 9.63004 42.0731 9.67854 39.1057L9.72974 35.9819H15.1713C20.568 35.9819 20.6171 35.9789 21.1444 35.6136C22.5812 34.6181 22.5494 32.6655 21.0781 31.5342C20.6531 31.2073 20.4336 31.1929 15.1711 31.1464L9.70584 31.098V28.3586V25.6193L15.9257 25.5533C22.6934 25.4816 22.8569 25.462 24.9779 24.4646C27.4437 23.3051 29.6839 21.0784 30.8866 18.5918C31.9844 16.3219 32.2941 14.8212 32.2022 12.2151C32.1411 10.4761 32.052 9.86703 31.7032 8.80032C30.3982 4.80959 27.6188 1.92118 23.7103 0.494259L22.4585 0.0373051L14.5565 0.00533286C10.2104 -0.0123142 6.54894 0.0152983 6.41984 0.0665786ZM22.2096 5.13201C24.6434 5.91762 26.8164 8.32032 27.378 10.847C27.4651 11.2385 27.538 12.1173 27.5402 12.7997C27.5516 16.5196 24.9933 19.7871 21.4729 20.5485C20.9592 20.6597 18.5627 20.7278 15.1747 20.7278H9.70584V12.7762V4.82454H15.4814C20.7104 4.82454 21.3472 4.85361 22.2096 5.13201Z" fill="#090909"/>
</svg>
