<svg width="242" height="240" viewBox="0 0 242 240" fill="none" xmlns="http://www.w3.org/2000/svg">
<g id="Object" clip-path="url(#clip0_1117_7707)">
<path id="Vector" d="M231.615 127.775C231.615 66.4944 182.032 16.8164 120.86 16.8164C59.6882 16.8164 10.1055 66.4944 10.1055 127.775C10.1055 160.209 24.0036 189.391 46.149 209.683L32.3226 223.535C28.5659 227.303 28.5659 233.408 32.3226 237.175C36.0793 240.943 42.1809 240.947 45.9416 237.175L61.5945 221.498C78.7349 232.401 99.0537 238.737 120.86 238.737C142.666 238.737 162.985 232.397 180.126 221.498L195.775 237.175C199.531 240.947 205.633 240.947 209.394 237.175C213.154 233.412 213.154 227.307 209.394 223.535L195.567 209.687C217.721 189.395 231.619 160.213 231.619 127.775H231.615ZM120.86 213.419C73.6422 213.419 35.3694 175.076 35.3694 127.775C35.3694 80.4741 73.6422 42.1309 120.856 42.1309C168.07 42.1309 206.343 80.4741 206.343 127.775C206.343 175.076 168.07 213.419 120.856 213.419H120.86Z" fill="#20AF82"/>
<path id="Vector_2" d="M48.6973 127.775C48.6973 167.637 81.0718 200.067 120.856 200.067C160.64 200.067 193.011 167.637 193.011 127.775C193.011 87.9136 160.644 55.4834 120.856 55.4834C81.0678 55.4834 48.6973 87.9136 48.6973 127.775ZM125.028 84.3577V130.096L160.421 166.905C162.451 169.011 162.395 172.383 160.277 174.425C158.164 176.462 154.81 176.402 152.768 174.285L115.899 135.938C114.942 134.943 114.411 133.624 114.411 132.246V84.3617C114.411 81.4251 116.784 79.0399 119.719 79.0399C122.655 79.0399 125.024 81.4251 125.024 84.3617L125.028 84.3577Z" fill="white"/>
<path id="Vector_3" d="M35.3652 127.775C35.3652 175.076 73.638 213.419 120.856 213.419C168.074 213.419 206.343 175.076 206.343 127.775C206.343 80.4741 168.07 42.1309 120.856 42.1309C73.642 42.1309 35.3652 80.4741 35.3652 127.775ZM193.011 127.775C193.011 167.636 160.644 200.067 120.856 200.067C81.0677 200.067 48.6971 167.636 48.6971 127.775C48.6971 87.9134 81.0717 55.4833 120.856 55.4833C160.64 55.4833 193.011 87.9134 193.011 127.775Z" fill="#AAD4C8"/>
<path id="Vector_4" d="M119.724 79.0401C116.785 79.0401 114.416 81.4253 114.416 84.3619V132.246C114.416 133.628 114.946 134.943 115.904 135.938L152.773 174.285C154.814 176.403 158.168 176.466 160.282 174.425C162.4 172.387 162.455 169.015 160.426 166.906L125.032 130.097V84.3579C125.032 81.4213 122.659 79.0361 119.728 79.0361L119.724 79.0401Z" fill="#20AF82"/>
<path id="Vector_5" d="M175.244 3.73964C170.271 8.72182 170.271 16.8004 175.244 21.7866L219.974 66.5983C224.947 71.5805 233.015 71.5805 237.988 66.5983C242.965 61.6081 242.965 53.5375 237.988 48.5514L193.258 3.73964C188.285 -1.24655 180.217 -1.24655 175.244 3.73964Z" fill="#20AF82"/>
<path id="Vector_6" d="M48.4621 3.73964L3.73276 48.5514C-1.24425 53.5375 -1.24425 61.6081 3.73276 66.5983C8.7058 71.5805 16.7615 71.5805 21.7386 66.5983L66.464 21.7866C71.437 16.8004 71.437 8.72182 66.464 3.73964C61.4949 -1.24655 53.4312 -1.24655 48.4581 3.73964H48.4621Z" fill="#20AF82"/>
</g>
<defs>
<clipPath id="clip0_1117_7707">
<rect width="241.72" height="240" fill="white"/>
</clipPath>
</defs>
</svg>
