<svg width="64" height="65" viewBox="0 0 64 65" fill="none" xmlns="http://www.w3.org/2000/svg">
<circle cx="31.6359" cy="31.6359" r="31.6359" fill="#D2DF3F"/>
<mask id="path-2-outside-1_1024_12860" maskUnits="userSpaceOnUse" x="14.1787" y="8.4541" width="37" height="56" fill="black">
<rect fill="white" x="14.1787" y="8.4541" width="37" height="56"/>
<path d="M38.784 57.1128C38.9714 57.7617 39.1333 58.3742 39.3228 58.9782C39.8787 60.7387 40.8647 62.2486 42.0487 63.6364C42.4044 64.054 42.8942 64.1033 43.2733 63.7949C43.6651 63.4736 43.7141 62.966 43.335 62.5163C42.2766 61.2548 41.3438 59.9098 40.9051 58.3036C40.6411 57.3334 40.509 56.3225 40.3514 55.3266C40.3216 55.1424 40.4132 54.9068 40.5175 54.7355C42.3277 51.7799 43.1923 48.5674 43.1668 45.1C43.1476 42.4443 43.1881 39.7886 43.1434 37.135C43.1327 36.4968 42.8921 35.8607 42.7515 35.2246C42.7174 35.0704 42.6301 34.9248 42.6173 34.7706C42.4044 32.2348 42.1999 29.6991 41.9934 27.1612C41.987 27.0755 41.9934 26.9877 41.9934 26.8378C42.9517 27.2961 43.9036 27.5638 44.9322 27.5317C47.6305 27.4481 49.9922 25.163 50.1668 22.4387C50.35 19.616 48.3971 17.0609 45.6904 16.6283C45.2112 16.5512 45.0281 16.3777 44.9557 15.8873C44.3828 11.9915 41.4354 9.46005 37.5127 9.45791C35.9005 9.45791 34.2884 9.44934 32.6784 9.45791C28.4405 9.48361 25.1354 13.3322 25.704 17.5664C25.7977 18.271 25.8786 18.9799 25.951 19.6866C26.0447 20.5926 25.8019 21.4107 25.278 22.1517C25.0928 22.413 24.9096 22.6765 24.7435 22.9484C24.2026 23.8308 24.4837 24.8246 25.4548 25.178C25.9893 25.3728 26.1043 25.692 26.1703 26.1888C26.4067 28.0028 27.2202 29.5342 28.5449 30.7806C29.5053 31.6844 30.6532 31.8686 31.9054 31.5623C32.1034 31.5131 32.3058 31.4788 32.6146 31.4146C31.7222 32.8131 30.6489 33.8818 29.4265 34.8049C28.6066 35.4238 27.725 35.9657 26.937 36.6232C24.8521 38.3601 23.5999 40.5982 23.1697 43.2903C23.1165 43.6244 23.01 43.8407 22.6565 43.997C21.4128 44.5432 20.6525 45.856 20.7952 47.1839C20.8293 47.5073 20.7143 47.6165 20.4736 47.7514C17.8095 49.2228 16.0632 51.4309 15.4946 54.4421C14.8408 57.9031 15.6245 61.0107 18.0863 63.6085C18.3589 63.8955 18.6699 64.0797 19.0787 63.9512C19.756 63.737 19.8816 62.981 19.3151 62.4113C18.3099 61.4047 17.6711 60.1968 17.2962 58.8347C16.2634 55.0867 17.752 51.3216 21.0316 49.407C21.1828 49.3191 21.3404 49.242 21.5235 49.1457C22.0815 50.1501 22.8652 50.8376 24.0024 50.9832C25.3803 51.1589 26.5175 50.6877 27.3203 49.5376C28.0785 48.4539 28.0657 47.0168 27.348 45.9203C26.5707 44.7338 26.1235 44.344 24.8266 43.7422C25.0672 41.9025 25.8253 40.2962 27.0392 38.8977C27.2607 38.6428 27.5056 38.4093 27.7484 38.1759C28.3468 37.6019 28.9516 37.2186 29.8929 37.2914C31.3432 37.4049 32.7764 37.0729 34.1628 36.606C34.3119 36.5568 34.4609 36.5097 34.6632 36.4433C34.6632 36.7303 34.6632 36.9744 34.6632 37.2164C34.6632 40.7267 34.6547 44.2369 34.6675 47.7471C34.676 49.8974 34.0095 51.7885 32.6593 53.4569C30.2677 56.4124 27.8975 59.3851 25.5187 62.3514C25.4527 62.4349 25.3845 62.5184 25.327 62.6062C25.0417 63.0453 25.097 63.4929 25.4697 63.797C25.8403 64.099 26.3045 64.0711 26.6474 63.6621C27.4226 62.7347 28.1679 61.786 28.9239 60.8436C30.6915 58.6398 32.474 56.4467 34.2203 54.2279C35.6535 52.4096 36.3584 50.3172 36.3627 47.9956C36.3691 44.3611 36.3605 40.7245 36.3669 37.0901C36.3669 35.9528 37.0548 34.9826 38.0728 34.625C39.095 34.2673 40.2428 34.5522 40.8753 35.4559C41.1841 35.8971 41.429 36.4904 41.4375 37.0172C41.4887 40.0285 41.5355 43.0418 41.4375 46.0509C41.3119 49.8674 39.9426 53.2384 37.37 56.0612C35.4555 58.1622 33.4728 60.199 31.5199 62.2657C31.4347 62.3556 31.3453 62.4413 31.2665 62.5377C30.9471 62.9275 30.9577 63.4201 31.2835 63.7413C31.6222 64.0733 32.1013 64.0904 32.4719 63.7263C33.0171 63.193 33.5345 62.6276 34.0584 62.0729C35.5364 60.5138 37.0143 58.9504 38.4923 57.3912C38.5753 57.3034 38.6669 57.2241 38.7862 57.1106L38.784 57.1128ZM31.5519 35.5352C31.5029 35.4559 31.4539 35.3767 31.4049 35.2975C31.5497 35.2032 31.7137 35.1304 31.8394 35.0126C32.9233 33.9996 33.8476 32.8538 34.5248 31.5281C34.7548 31.0783 35.0146 30.8149 35.5257 30.7335C36.1412 30.6371 36.45 30.1981 36.3456 29.7076C36.2349 29.1829 35.7706 28.9409 35.1424 29.078C33.8668 29.3585 32.589 29.6305 31.3155 29.9239C30.6276 30.0824 30.0654 29.8982 29.5777 29.4035C28.4405 28.2513 27.8932 26.8421 27.759 25.2465C27.7058 24.604 27.3714 24.1564 26.7922 23.8887C26.6516 23.8244 26.5132 23.758 26.3833 23.698C26.3876 23.6295 26.3769 23.5888 26.394 23.5631C26.4664 23.441 26.5409 23.319 26.624 23.2055C27.4822 22.0318 27.7974 20.7125 27.6398 19.2754C27.5631 18.5858 27.4545 17.9005 27.3736 17.213C27.2586 16.2278 27.4311 15.294 27.857 14.3645C29.2987 16.0158 30.3082 16.4998 32.4101 16.6304C32.5571 16.639 32.7721 16.8211 32.8211 16.9688C33.2683 18.3245 33.9924 19.5132 34.9188 20.584C35.6407 21.4171 36.3499 21.5306 37.3189 20.9845C37.8555 20.6825 38.3581 20.8196 38.6392 21.3722C38.9118 21.9076 38.865 22.4409 38.5391 22.9399C38.0685 23.6595 37.3764 23.9957 36.5458 24.105C36.0006 24.1756 35.6833 24.5547 35.728 25.0345C35.7749 25.5335 36.1923 25.8697 36.7481 25.8012C37.1315 25.7541 37.568 25.7305 37.8704 25.5292C38.6307 25.0216 39.2696 25.1137 39.8914 25.7241C39.917 25.7476 39.9638 25.7541 39.9809 25.7798C40.0554 25.9018 40.1704 26.0218 40.1853 26.1524C40.3216 27.2982 40.4515 28.4462 40.5601 29.5963C40.6709 30.7763 40.7561 31.9607 40.8562 33.205C40.6262 33.1172 40.4835 33.0572 40.3344 33.008C38.9693 32.554 37.7043 32.7488 36.4841 33.5156C35.7557 33.9739 34.9955 34.4065 34.2011 34.7256C33.3471 35.0683 32.4378 35.2675 31.5519 35.5309V35.5352ZM36.3116 19.5731C35.4831 18.6586 34.8592 17.6563 34.4758 16.5127C34.0286 15.1827 33.6879 14.9342 32.2909 14.9042C31.094 14.8785 30.0867 14.4395 29.352 13.4565C28.8899 12.8375 28.9048 12.7261 29.5138 12.2764C30.4828 11.5589 31.5689 11.1798 32.7721 11.1713C34.4716 11.1606 36.171 11.1563 37.8704 11.1713C40.0831 11.1905 42.036 12.5398 42.8452 14.6215C44.2678 18.2817 42.9091 21.3379 40.7326 24.2592C40.509 24.0835 40.2939 23.9165 40.0916 23.758C40.7688 22.2331 40.6198 20.8367 39.6508 19.8837C38.6435 18.8964 37.5084 18.8235 36.3158 19.5689L36.3116 19.5731ZM45.0898 18.2988C46.6381 18.3909 48.0095 19.5924 48.363 21.113C48.7549 22.8028 48.0095 24.514 46.5209 25.3407C45.1686 26.0903 43.3968 25.9297 42.3916 24.9338C43.6992 22.8992 45.0217 20.8474 45.0898 18.301V18.2988ZM26.1661 47.73C26.1597 48.4175 25.7423 48.9829 25.0757 49.2035C24.3623 49.4391 23.6723 49.2656 23.2741 48.6981C23.0206 48.3382 22.8013 47.9463 22.6182 47.548C22.3669 47.004 22.4478 46.4685 22.8119 45.9952C23.1612 45.5412 23.6425 45.3335 24.209 45.4063C25.0587 45.5134 26.1767 46.8562 26.1682 47.7321L26.1661 47.73Z"/>
</mask>
<path d="M38.784 57.1128C38.9714 57.7617 39.1333 58.3742 39.3228 58.9782C39.8787 60.7387 40.8647 62.2486 42.0487 63.6364C42.4044 64.054 42.8942 64.1033 43.2733 63.7949C43.6651 63.4736 43.7141 62.966 43.335 62.5163C42.2766 61.2548 41.3438 59.9098 40.9051 58.3036C40.6411 57.3334 40.509 56.3225 40.3514 55.3266C40.3216 55.1424 40.4132 54.9068 40.5175 54.7355C42.3277 51.7799 43.1923 48.5674 43.1668 45.1C43.1476 42.4443 43.1881 39.7886 43.1434 37.135C43.1327 36.4968 42.8921 35.8607 42.7515 35.2246C42.7174 35.0704 42.6301 34.9248 42.6173 34.7706C42.4044 32.2348 42.1999 29.6991 41.9934 27.1612C41.987 27.0755 41.9934 26.9877 41.9934 26.8378C42.9517 27.2961 43.9036 27.5638 44.9322 27.5317C47.6305 27.4481 49.9922 25.163 50.1668 22.4387C50.35 19.616 48.3971 17.0609 45.6904 16.6283C45.2112 16.5512 45.0281 16.3777 44.9557 15.8873C44.3828 11.9915 41.4354 9.46005 37.5127 9.45791C35.9005 9.45791 34.2884 9.44934 32.6784 9.45791C28.4405 9.48361 25.1354 13.3322 25.704 17.5664C25.7977 18.271 25.8786 18.9799 25.951 19.6866C26.0447 20.5926 25.8019 21.4107 25.278 22.1517C25.0928 22.413 24.9096 22.6765 24.7435 22.9484C24.2026 23.8308 24.4837 24.8246 25.4548 25.178C25.9893 25.3728 26.1043 25.692 26.1703 26.1888C26.4067 28.0028 27.2202 29.5342 28.5449 30.7806C29.5053 31.6844 30.6532 31.8686 31.9054 31.5623C32.1034 31.5131 32.3058 31.4788 32.6146 31.4146C31.7222 32.8131 30.6489 33.8818 29.4265 34.8049C28.6066 35.4238 27.725 35.9657 26.937 36.6232C24.8521 38.3601 23.5999 40.5982 23.1697 43.2903C23.1165 43.6244 23.01 43.8407 22.6565 43.997C21.4128 44.5432 20.6525 45.856 20.7952 47.1839C20.8293 47.5073 20.7143 47.6165 20.4736 47.7514C17.8095 49.2228 16.0632 51.4309 15.4946 54.4421C14.8408 57.9031 15.6245 61.0107 18.0863 63.6085C18.3589 63.8955 18.6699 64.0797 19.0787 63.9512C19.756 63.737 19.8816 62.981 19.3151 62.4113C18.3099 61.4047 17.6711 60.1968 17.2962 58.8347C16.2634 55.0867 17.752 51.3216 21.0316 49.407C21.1828 49.3191 21.3404 49.242 21.5235 49.1457C22.0815 50.1501 22.8652 50.8376 24.0024 50.9832C25.3803 51.1589 26.5175 50.6877 27.3203 49.5376C28.0785 48.4539 28.0657 47.0168 27.348 45.9203C26.5707 44.7338 26.1235 44.344 24.8266 43.7422C25.0672 41.9025 25.8253 40.2962 27.0392 38.8977C27.2607 38.6428 27.5056 38.4093 27.7484 38.1759C28.3468 37.6019 28.9516 37.2186 29.8929 37.2914C31.3432 37.4049 32.7764 37.0729 34.1628 36.606C34.3119 36.5568 34.4609 36.5097 34.6632 36.4433C34.6632 36.7303 34.6632 36.9744 34.6632 37.2164C34.6632 40.7267 34.6547 44.2369 34.6675 47.7471C34.676 49.8974 34.0095 51.7885 32.6593 53.4569C30.2677 56.4124 27.8975 59.3851 25.5187 62.3514C25.4527 62.4349 25.3845 62.5184 25.327 62.6062C25.0417 63.0453 25.097 63.4929 25.4697 63.797C25.8403 64.099 26.3045 64.0711 26.6474 63.6621C27.4226 62.7347 28.1679 61.786 28.9239 60.8436C30.6915 58.6398 32.474 56.4467 34.2203 54.2279C35.6535 52.4096 36.3584 50.3172 36.3627 47.9956C36.3691 44.3611 36.3605 40.7245 36.3669 37.0901C36.3669 35.9528 37.0548 34.9826 38.0728 34.625C39.095 34.2673 40.2428 34.5522 40.8753 35.4559C41.1841 35.8971 41.429 36.4904 41.4375 37.0172C41.4887 40.0285 41.5355 43.0418 41.4375 46.0509C41.3119 49.8674 39.9426 53.2384 37.37 56.0612C35.4555 58.1622 33.4728 60.199 31.5199 62.2657C31.4347 62.3556 31.3453 62.4413 31.2665 62.5377C30.9471 62.9275 30.9577 63.4201 31.2835 63.7413C31.6222 64.0733 32.1013 64.0904 32.4719 63.7263C33.0171 63.193 33.5345 62.6276 34.0584 62.0729C35.5364 60.5138 37.0143 58.9504 38.4923 57.3912C38.5753 57.3034 38.6669 57.2241 38.7862 57.1106L38.784 57.1128ZM31.5519 35.5352C31.5029 35.4559 31.4539 35.3767 31.4049 35.2975C31.5497 35.2032 31.7137 35.1304 31.8394 35.0126C32.9233 33.9996 33.8476 32.8538 34.5248 31.5281C34.7548 31.0783 35.0146 30.8149 35.5257 30.7335C36.1412 30.6371 36.45 30.1981 36.3456 29.7076C36.2349 29.1829 35.7706 28.9409 35.1424 29.078C33.8668 29.3585 32.589 29.6305 31.3155 29.9239C30.6276 30.0824 30.0654 29.8982 29.5777 29.4035C28.4405 28.2513 27.8932 26.8421 27.759 25.2465C27.7058 24.604 27.3714 24.1564 26.7922 23.8887C26.6516 23.8244 26.5132 23.758 26.3833 23.698C26.3876 23.6295 26.3769 23.5888 26.394 23.5631C26.4664 23.441 26.5409 23.319 26.624 23.2055C27.4822 22.0318 27.7974 20.7125 27.6398 19.2754C27.5631 18.5858 27.4545 17.9005 27.3736 17.213C27.2586 16.2278 27.4311 15.294 27.857 14.3645C29.2987 16.0158 30.3082 16.4998 32.4101 16.6304C32.5571 16.639 32.7721 16.8211 32.8211 16.9688C33.2683 18.3245 33.9924 19.5132 34.9188 20.584C35.6407 21.4171 36.3499 21.5306 37.3189 20.9845C37.8555 20.6825 38.3581 20.8196 38.6392 21.3722C38.9118 21.9076 38.865 22.4409 38.5391 22.9399C38.0685 23.6595 37.3764 23.9957 36.5458 24.105C36.0006 24.1756 35.6833 24.5547 35.728 25.0345C35.7749 25.5335 36.1923 25.8697 36.7481 25.8012C37.1315 25.7541 37.568 25.7305 37.8704 25.5292C38.6307 25.0216 39.2696 25.1137 39.8914 25.7241C39.917 25.7476 39.9638 25.7541 39.9809 25.7798C40.0554 25.9018 40.1704 26.0218 40.1853 26.1524C40.3216 27.2982 40.4515 28.4462 40.5601 29.5963C40.6709 30.7763 40.7561 31.9607 40.8562 33.205C40.6262 33.1172 40.4835 33.0572 40.3344 33.008C38.9693 32.554 37.7043 32.7488 36.4841 33.5156C35.7557 33.9739 34.9955 34.4065 34.2011 34.7256C33.3471 35.0683 32.4378 35.2675 31.5519 35.5309V35.5352ZM36.3116 19.5731C35.4831 18.6586 34.8592 17.6563 34.4758 16.5127C34.0286 15.1827 33.6879 14.9342 32.2909 14.9042C31.094 14.8785 30.0867 14.4395 29.352 13.4565C28.8899 12.8375 28.9048 12.7261 29.5138 12.2764C30.4828 11.5589 31.5689 11.1798 32.7721 11.1713C34.4716 11.1606 36.171 11.1563 37.8704 11.1713C40.0831 11.1905 42.036 12.5398 42.8452 14.6215C44.2678 18.2817 42.9091 21.3379 40.7326 24.2592C40.509 24.0835 40.2939 23.9165 40.0916 23.758C40.7688 22.2331 40.6198 20.8367 39.6508 19.8837C38.6435 18.8964 37.5084 18.8235 36.3158 19.5689L36.3116 19.5731ZM45.0898 18.2988C46.6381 18.3909 48.0095 19.5924 48.363 21.113C48.7549 22.8028 48.0095 24.514 46.5209 25.3407C45.1686 26.0903 43.3968 25.9297 42.3916 24.9338C43.6992 22.8992 45.0217 20.8474 45.0898 18.301V18.2988ZM26.1661 47.73C26.1597 48.4175 25.7423 48.9829 25.0757 49.2035C24.3623 49.4391 23.6723 49.2656 23.2741 48.6981C23.0206 48.3382 22.8013 47.9463 22.6182 47.548C22.3669 47.004 22.4478 46.4685 22.8119 45.9952C23.1612 45.5412 23.6425 45.3335 24.209 45.4063C25.0587 45.5134 26.1767 46.8562 26.1682 47.7321L26.1661 47.73Z" fill="black"/>
<path d="M38.784 57.1128C38.9714 57.7617 39.1333 58.3742 39.3228 58.9782C39.8787 60.7387 40.8647 62.2486 42.0487 63.6364C42.4044 64.054 42.8942 64.1033 43.2733 63.7949C43.6651 63.4736 43.7141 62.966 43.335 62.5163C42.2766 61.2548 41.3438 59.9098 40.9051 58.3036C40.6411 57.3334 40.509 56.3225 40.3514 55.3266C40.3216 55.1424 40.4132 54.9068 40.5175 54.7355C42.3277 51.7799 43.1923 48.5674 43.1668 45.1C43.1476 42.4443 43.1881 39.7886 43.1434 37.135C43.1327 36.4968 42.8921 35.8607 42.7515 35.2246C42.7174 35.0704 42.6301 34.9248 42.6173 34.7706C42.4044 32.2348 42.1999 29.6991 41.9934 27.1612C41.987 27.0755 41.9934 26.9877 41.9934 26.8378C42.9517 27.2961 43.9036 27.5638 44.9322 27.5317C47.6305 27.4481 49.9922 25.163 50.1668 22.4387C50.35 19.616 48.3971 17.0609 45.6904 16.6283C45.2112 16.5512 45.0281 16.3777 44.9557 15.8873C44.3828 11.9915 41.4354 9.46005 37.5127 9.45791C35.9005 9.45791 34.2884 9.44934 32.6784 9.45791C28.4405 9.48361 25.1354 13.3322 25.704 17.5664C25.7977 18.271 25.8786 18.9799 25.951 19.6866C26.0447 20.5926 25.8019 21.4107 25.278 22.1517C25.0928 22.413 24.9096 22.6765 24.7435 22.9484C24.2026 23.8308 24.4837 24.8246 25.4548 25.178C25.9893 25.3728 26.1043 25.692 26.1703 26.1888C26.4067 28.0028 27.2202 29.5342 28.5449 30.7806C29.5053 31.6844 30.6532 31.8686 31.9054 31.5623C32.1034 31.5131 32.3058 31.4788 32.6146 31.4146C31.7222 32.8131 30.6489 33.8818 29.4265 34.8049C28.6066 35.4238 27.725 35.9657 26.937 36.6232C24.8521 38.3601 23.5999 40.5982 23.1697 43.2903C23.1165 43.6244 23.01 43.8407 22.6565 43.997C21.4128 44.5432 20.6525 45.856 20.7952 47.1839C20.8293 47.5073 20.7143 47.6165 20.4736 47.7514C17.8095 49.2228 16.0632 51.4309 15.4946 54.4421C14.8408 57.9031 15.6245 61.0107 18.0863 63.6085C18.3589 63.8955 18.6699 64.0797 19.0787 63.9512C19.756 63.737 19.8816 62.981 19.3151 62.4113C18.3099 61.4047 17.6711 60.1968 17.2962 58.8347C16.2634 55.0867 17.752 51.3216 21.0316 49.407C21.1828 49.3191 21.3404 49.242 21.5235 49.1457C22.0815 50.1501 22.8652 50.8376 24.0024 50.9832C25.3803 51.1589 26.5175 50.6877 27.3203 49.5376C28.0785 48.4539 28.0657 47.0168 27.348 45.9203C26.5707 44.7338 26.1235 44.344 24.8266 43.7422C25.0672 41.9025 25.8253 40.2962 27.0392 38.8977C27.2607 38.6428 27.5056 38.4093 27.7484 38.1759C28.3468 37.6019 28.9516 37.2186 29.8929 37.2914C31.3432 37.4049 32.7764 37.0729 34.1628 36.606C34.3119 36.5568 34.4609 36.5097 34.6632 36.4433C34.6632 36.7303 34.6632 36.9744 34.6632 37.2164C34.6632 40.7267 34.6547 44.2369 34.6675 47.7471C34.676 49.8974 34.0095 51.7885 32.6593 53.4569C30.2677 56.4124 27.8975 59.3851 25.5187 62.3514C25.4527 62.4349 25.3845 62.5184 25.327 62.6062C25.0417 63.0453 25.097 63.4929 25.4697 63.797C25.8403 64.099 26.3045 64.0711 26.6474 63.6621C27.4226 62.7347 28.1679 61.786 28.9239 60.8436C30.6915 58.6398 32.474 56.4467 34.2203 54.2279C35.6535 52.4096 36.3584 50.3172 36.3627 47.9956C36.3691 44.3611 36.3605 40.7245 36.3669 37.0901C36.3669 35.9528 37.0548 34.9826 38.0728 34.625C39.095 34.2673 40.2428 34.5522 40.8753 35.4559C41.1841 35.8971 41.429 36.4904 41.4375 37.0172C41.4887 40.0285 41.5355 43.0418 41.4375 46.0509C41.3119 49.8674 39.9426 53.2384 37.37 56.0612C35.4555 58.1622 33.4728 60.199 31.5199 62.2657C31.4347 62.3556 31.3453 62.4413 31.2665 62.5377C30.9471 62.9275 30.9577 63.4201 31.2835 63.7413C31.6222 64.0733 32.1013 64.0904 32.4719 63.7263C33.0171 63.193 33.5345 62.6276 34.0584 62.0729C35.5364 60.5138 37.0143 58.9504 38.4923 57.3912C38.5753 57.3034 38.6669 57.2241 38.7862 57.1106L38.784 57.1128ZM31.5519 35.5352C31.5029 35.4559 31.4539 35.3767 31.4049 35.2975C31.5497 35.2032 31.7137 35.1304 31.8394 35.0126C32.9233 33.9996 33.8476 32.8538 34.5248 31.5281C34.7548 31.0783 35.0146 30.8149 35.5257 30.7335C36.1412 30.6371 36.45 30.1981 36.3456 29.7076C36.2349 29.1829 35.7706 28.9409 35.1424 29.078C33.8668 29.3585 32.589 29.6305 31.3155 29.9239C30.6276 30.0824 30.0654 29.8982 29.5777 29.4035C28.4405 28.2513 27.8932 26.8421 27.759 25.2465C27.7058 24.604 27.3714 24.1564 26.7922 23.8887C26.6516 23.8244 26.5132 23.758 26.3833 23.698C26.3876 23.6295 26.3769 23.5888 26.394 23.5631C26.4664 23.441 26.5409 23.319 26.624 23.2055C27.4822 22.0318 27.7974 20.7125 27.6398 19.2754C27.5631 18.5858 27.4545 17.9005 27.3736 17.213C27.2586 16.2278 27.4311 15.294 27.857 14.3645C29.2987 16.0158 30.3082 16.4998 32.4101 16.6304C32.5571 16.639 32.7721 16.8211 32.8211 16.9688C33.2683 18.3245 33.9924 19.5132 34.9188 20.584C35.6407 21.4171 36.3499 21.5306 37.3189 20.9845C37.8555 20.6825 38.3581 20.8196 38.6392 21.3722C38.9118 21.9076 38.865 22.4409 38.5391 22.9399C38.0685 23.6595 37.3764 23.9957 36.5458 24.105C36.0006 24.1756 35.6833 24.5547 35.728 25.0345C35.7749 25.5335 36.1923 25.8697 36.7481 25.8012C37.1315 25.7541 37.568 25.7305 37.8704 25.5292C38.6307 25.0216 39.2696 25.1137 39.8914 25.7241C39.917 25.7476 39.9638 25.7541 39.9809 25.7798C40.0554 25.9018 40.1704 26.0218 40.1853 26.1524C40.3216 27.2982 40.4515 28.4462 40.5601 29.5963C40.6709 30.7763 40.7561 31.9607 40.8562 33.205C40.6262 33.1172 40.4835 33.0572 40.3344 33.008C38.9693 32.554 37.7043 32.7488 36.4841 33.5156C35.7557 33.9739 34.9955 34.4065 34.2011 34.7256C33.3471 35.0683 32.4378 35.2675 31.5519 35.5309V35.5352ZM36.3116 19.5731C35.4831 18.6586 34.8592 17.6563 34.4758 16.5127C34.0286 15.1827 33.6879 14.9342 32.2909 14.9042C31.094 14.8785 30.0867 14.4395 29.352 13.4565C28.8899 12.8375 28.9048 12.7261 29.5138 12.2764C30.4828 11.5589 31.5689 11.1798 32.7721 11.1713C34.4716 11.1606 36.171 11.1563 37.8704 11.1713C40.0831 11.1905 42.036 12.5398 42.8452 14.6215C44.2678 18.2817 42.9091 21.3379 40.7326 24.2592C40.509 24.0835 40.2939 23.9165 40.0916 23.758C40.7688 22.2331 40.6198 20.8367 39.6508 19.8837C38.6435 18.8964 37.5084 18.8235 36.3158 19.5689L36.3116 19.5731ZM45.0898 18.2988C46.6381 18.3909 48.0095 19.5924 48.363 21.113C48.7549 22.8028 48.0095 24.514 46.5209 25.3407C45.1686 26.0903 43.3968 25.9297 42.3916 24.9338C43.6992 22.8992 45.0217 20.8474 45.0898 18.301V18.2988ZM26.1661 47.73C26.1597 48.4175 25.7423 48.9829 25.0757 49.2035C24.3623 49.4391 23.6723 49.2656 23.2741 48.6981C23.0206 48.3382 22.8013 47.9463 22.6182 47.548C22.3669 47.004 22.4478 46.4685 22.8119 45.9952C23.1612 45.5412 23.6425 45.3335 24.209 45.4063C25.0587 45.5134 26.1767 46.8562 26.1682 47.7321L26.1661 47.73Z" stroke="black" stroke-width="0.6" mask="url(#path-2-outside-1_1024_12860)"/>
<path d="M31.7012 35.648C31.9248 35.5834 32.1519 35.5217 32.3803 35.4597C33.0105 35.2885 33.6509 35.1145 34.2567 34.8693L31.7012 35.648ZM31.7012 35.648V36.0678L31.4236 35.6187L31.2767 35.3809L31.1991 35.2554L31.3233 35.1758C31.3713 35.145 31.4253 35.1137 31.4753 35.0847C31.5029 35.0686 31.5294 35.0533 31.553 35.0391C31.625 34.9958 31.6861 34.9546 31.7362 34.9077L31.7363 34.9076C32.81 33.9042 33.7226 32.772 34.3904 31.4647C34.509 31.2308 34.6425 31.0327 34.822 30.8823C35.0038 30.73 35.2233 30.6343 35.5013 30.59C35.779 30.5456 35.9727 30.4275 36.0862 30.2805C36.1987 30.1347 36.2418 29.9484 36.1982 29.7435L36.1982 29.7431C36.1511 29.5194 36.033 29.3669 35.8679 29.2806C35.6991 29.1923 35.4642 29.1648 35.1742 29.229L35.1739 29.2291C34.8061 29.31 34.4384 29.3901 34.0709 29.4702C33.1623 29.6682 32.2546 29.866 31.3486 30.0747C30.9837 30.159 30.6441 30.1536 30.3278 30.0567C30.0118 29.96 29.7281 29.775 29.4703 29.5135C28.3043 28.3321 27.7433 26.8878 27.6089 25.2635L27.6089 25.2634C27.5604 24.6761 27.2621 24.2761 26.7289 24.0295C26.6501 23.9935 26.5692 23.9555 26.491 23.9188C26.4316 23.8909 26.3738 23.8638 26.3198 23.8388L26.2265 23.7958L26.2329 23.6933C26.2341 23.674 26.234 23.6608 26.2339 23.6452C26.2339 23.637 26.2338 23.6281 26.234 23.6173L26.234 23.6158C26.2342 23.5944 26.2348 23.5419 26.2635 23.4925L26.2635 23.4925L26.2643 23.4912C26.337 23.3686 26.4146 23.2412 26.5022 23.1215L26.5023 23.1214C27.3389 21.9802 27.6459 20.6991 27.49 19.2966C27.4519 18.955 27.4058 18.6135 27.359 18.2699C27.3559 18.2473 27.3528 18.2247 27.3497 18.202C27.3059 17.8813 27.2619 17.5587 27.2239 17.2351L27.2239 17.235C27.1054 16.2195 27.2839 15.2582 27.72 14.3067L27.8166 14.0956L27.9693 14.2705C28.6842 15.0892 29.2817 15.6066 29.9518 15.9379C30.6217 16.269 31.377 16.4206 32.4187 16.4853L32.4187 16.4853L32.4203 16.4855C32.5394 16.4941 32.6594 16.5646 32.7473 16.6373C32.8366 16.7112 32.9259 16.815 32.9628 16.9262L32.9629 16.9265C33.403 18.2626 34.116 19.4321 35.0316 20.4905L35.0316 20.4906C35.3786 20.8922 35.7074 21.1011 36.0491 21.1573C36.3915 21.2136 36.7761 21.1214 37.2448 20.8583C37.5383 20.6932 37.8391 20.6384 38.1148 20.7175C38.3913 20.7969 38.6163 21.0035 38.7721 21.3084C39.0732 21.8955 39.0169 22.4861 38.664 23.0265L38.5385 22.9445L31.7012 35.648ZM37.7865 25.409C38.186 25.1423 38.5706 25.0221 38.9483 25.0629C39.3217 25.1032 39.6636 25.2982 39.9868 25.6129C39.9883 25.6135 39.9901 25.6143 39.9925 25.6154C39.9947 25.6164 39.9974 25.6177 40.0009 25.6192C40.0097 25.6233 40.0264 25.6309 40.0433 25.6417C40.0604 25.6526 40.0852 25.6713 40.1052 25.7015L40.1053 25.7014L40.1082 25.7062C40.124 25.732 40.1425 25.7587 40.164 25.7892C40.1666 25.7928 40.1691 25.7964 40.1717 25.8001C40.1905 25.8266 40.2113 25.8561 40.2306 25.8859C40.2734 25.9519 40.3219 26.0385 40.3336 26.1393C40.4699 27.2856 40.6 28.4349 40.7088 29.5868L40.7088 29.5869C40.7883 30.4341 40.8547 31.2841 40.9228 32.1555C40.9496 32.4992 40.9767 32.8461 41.005 33.1976L41.024 33.4346L40.802 33.3498C40.7266 33.321 40.6613 33.2956 40.6026 33.2727C40.4782 33.2243 40.3835 33.1875 40.2864 33.1549C38.9671 32.7161 37.7486 32.9003 36.5633 33.6471L36.5633 33.6471C35.8315 34.1076 35.0628 34.5433 34.2567 34.8693L37.7865 25.409ZM37.7865 25.409C37.7865 25.409 37.7866 25.409 37.7866 25.4089L37.8698 25.5338L37.7865 25.409Z" stroke="black" stroke-width="0.3"/>
<path d="M26.3115 48.0906L26.315 47.7316C26.3198 47.2407 26.0156 46.6515 25.6221 46.1825C25.4226 45.9445 25.1937 45.7296 24.9567 45.5662C24.7212 45.4038 24.4693 45.2863 24.2245 45.2554L24.2243 45.2554C23.6041 45.178 23.071 45.4064 22.69 45.9016C22.294 46.414 22.2047 47.0105 22.4786 47.6084L22.4788 47.6089C22.6672 48.0162 22.8887 48.414 23.1482 48.7824L23.1483 48.7825C23.594 49.4143 24.3584 49.596 25.1196 49.3439L26.3115 48.0906ZM26.3115 48.0906L26.2804 48.0593M26.3115 48.0906L26.2804 48.0593M26.2804 48.0593C26.1633 48.6623 25.7362 49.1398 25.1197 49.3439L26.2804 48.0593Z" stroke="black" stroke-width="0.3"/>
</svg>
