<svg width="65" height="64" viewBox="0 0 65 64" fill="none" xmlns="http://www.w3.org/2000/svg">
<circle cx="32.5" cy="32" r="32" fill="#D2DF3F"/>
<mask id="path-2-outside-1_1024_12867" maskUnits="userSpaceOnUse" x="2.44238" y="3.41406" width="51" height="51" fill="black">
<rect fill="white" x="2.44238" y="3.41406" width="51" height="51"/>
<path d="M40.4238 42.3041C39.6433 43.2565 38.9145 44.193 38.134 45.0858C37.3216 46.0144 36.7681 46.0124 35.9258 45.1494C35.3544 45.9945 34.8028 46.8494 34.2135 47.6786C32.7281 49.7643 30.9918 51.6234 29.0465 53.2877C28.3854 53.8523 27.9553 53.8444 27.3062 53.2817C24.5744 50.9096 22.2268 48.2154 20.3731 45.0301C20.2596 45.1614 20.17 45.2667 20.0784 45.3701C19.6105 45.901 19.1187 45.9189 18.6527 45.3801C17.7468 44.3322 16.8587 43.2685 15.9269 42.1669C13.0576 43.8053 9.9216 45.1892 7.39087 47.5374C5.85968 48.9571 5.04531 50.7028 5.03137 52.8065C5.02739 53.403 4.72872 53.7191 4.21899 53.7092C3.71324 53.6992 3.44443 53.3791 3.44244 52.7727C3.43249 49.9015 4.65704 47.607 6.89507 45.905C8.42825 44.7378 10.0869 43.7238 11.7375 42.7217C13.0059 41.9502 14.3539 41.31 15.6601 40.5962C15.8572 40.4888 16.0304 40.3218 16.1897 40.1587C17.6532 38.6476 19.1127 37.1365 20.9366 36.0389C21.0501 35.9713 21.0978 35.7884 21.1596 35.6512C21.1835 35.5955 21.1596 35.52 21.1655 35.4544C21.295 34.2355 21.058 33.2135 20.156 32.2353C18.9753 30.9548 18.4715 29.2687 18.0653 27.5846C18.0235 27.4136 17.918 27.1909 17.7806 27.1233C16.0981 26.318 15.4968 24.8705 15.3793 23.1387C15.3216 22.2896 15.4331 21.4625 15.7616 20.6632C15.8373 20.4783 15.7696 20.2218 15.7278 20.0051C15.1842 17.124 15.1344 14.2469 15.9846 11.4215C16.8866 8.42307 18.9096 6.4069 21.8624 5.44257C26.0578 4.07261 30.3108 4.05074 34.4862 5.50023C38.0902 6.75287 40.0574 9.45103 40.615 13.1692C40.9793 15.6029 40.9754 18.0426 40.3521 20.4524C40.3123 20.6095 40.3701 20.8083 40.4258 20.9734C40.9037 22.3771 40.8519 23.771 40.3123 25.1389C39.9599 26.0317 39.3307 26.6898 38.4705 27.1392C38.2853 27.2366 38.0962 27.4653 38.0524 27.6641C37.6044 29.6803 36.8378 31.5334 35.4141 33.0763C35.3166 33.1817 35.2648 33.3666 35.2628 33.5157C35.2489 34.2773 35.2449 35.0368 35.2668 35.7983C35.2708 35.9475 35.3623 36.1582 35.4818 36.2318C37.244 37.3015 38.6517 38.7729 40.0794 40.2243C40.3063 40.455 40.5791 40.6558 40.8619 40.8129C43.538 42.2902 46.3056 43.6125 48.7567 45.4676C50.5368 46.8156 51.9923 48.4123 52.4881 50.669C52.6454 51.3888 52.6972 52.1384 52.743 52.8761C52.7748 53.399 52.4523 53.7052 51.9764 53.7151C51.4965 53.7251 51.164 53.4288 51.166 52.9138C51.1839 50.2097 49.8459 48.2512 47.7791 46.6765C45.7163 45.1057 43.4045 43.9505 41.1506 42.7018C40.8937 42.5586 40.6329 42.4254 40.4278 42.3181L40.4238 42.3041ZM28.242 9.14483C26.7447 9.286 25.4047 9.35758 24.0806 9.54846C21.6394 9.90039 20.4527 11.1133 20.1262 13.537C20.0107 14.404 19.9788 15.2828 19.945 16.1577C19.8733 18.0307 19.3337 19.6531 17.703 20.7825C17.1335 21.1782 16.7671 21.7369 16.8707 22.5024C16.9284 22.9259 16.8906 23.3673 16.9722 23.7849C17.1693 24.779 17.6173 25.5803 18.7145 25.8408C19.1266 25.9382 19.3855 26.2086 19.4611 26.666C19.5527 27.2167 19.6622 27.7754 19.8454 28.3023C20.391 29.8731 20.8967 31.4817 22.4936 32.3764C22.5613 32.4142 22.5952 32.5057 22.6549 32.5613C22.8341 32.7224 23.0034 32.8994 23.2045 33.0286C23.4952 33.2155 23.8416 33.3229 24.1065 33.5356C25.7651 34.8718 27.6905 34.9255 29.6319 34.5795C31.2964 34.2812 32.6425 33.2354 33.9088 32.2015C34.6077 31.6288 35.1433 30.7619 35.5276 29.9268C35.9916 28.9207 36.2444 27.8112 36.5351 26.7336C36.6725 26.2245 36.8477 25.9183 37.4311 25.7792C37.8533 25.6797 38.2993 25.3378 38.5661 24.9799C39.5358 23.6815 39.271 21.5043 38.0623 20.4405C37.0429 19.5438 36.4734 18.4224 36.342 17.0862C36.2205 15.8534 36.2026 14.6087 36.0373 13.382C35.7845 11.505 34.8168 10.0316 32.6265 9.66378C31.1312 9.41126 29.61 9.30588 28.244 9.15079L28.242 9.14483ZM28.021 44.9784C29.6239 43.1154 31.1969 41.312 32.7341 39.4787C33.1223 39.0154 33.4329 38.4746 33.7037 37.9318C33.8312 37.6753 33.8152 37.3293 33.8033 37.0271C33.7874 36.6533 33.6838 36.2815 33.6639 35.9077C33.638 35.4365 33.6579 34.9613 33.6579 34.488C33.6261 34.4383 33.5942 34.3886 33.5624 34.3409C31.9973 35.6413 30.2332 36.2596 28.2142 36.2576C26.2171 36.2537 24.3992 35.8341 22.8202 34.496C22.7565 34.838 22.7724 35.0965 22.7545 35.3549C22.7107 35.9952 22.9237 36.6871 22.3642 37.2319C22.2925 37.3015 22.3264 37.5242 22.3702 37.6554C22.4598 37.9199 22.5613 38.1883 22.7107 38.4209C23.4832 39.6199 24.3494 40.7413 25.4604 41.6559C25.6615 41.821 25.8427 42.0198 26 42.2306C26.685 43.1472 27.358 44.0737 28.019 44.9784H28.021ZM28.1982 51.8859C28.8653 51.2456 29.5124 50.6551 30.1257 50.0328C31.8799 48.2592 33.3672 46.2828 34.5898 44.1115C34.6655 43.9763 34.7371 43.7397 34.6714 43.6383C34.0144 42.6183 32.6046 42.4374 31.6907 43.2108C30.4861 44.2268 29.596 45.4934 28.7816 46.8176C28.3456 47.5255 27.802 47.5195 27.2923 46.8395C26.2848 45.4914 25.2314 44.1771 24.198 42.8489C23.9432 42.5229 23.5768 42.3996 23.2264 42.5567C22.7067 42.7873 22.2268 43.1094 21.737 43.4017C21.508 43.5389 21.512 43.7099 21.6434 43.9425C23.3498 46.9489 25.554 49.5436 28.2002 51.8879L28.1982 51.8859ZM17.0319 18.995C17.1036 19.001 17.1753 19.0069 17.247 19.0129C17.8583 18.4343 18.1629 17.6946 18.2446 16.8754C18.368 15.6427 18.4118 14.402 18.5512 13.1712C18.7881 11.0715 20.0167 8.76904 22.9138 8.14669C26.1095 7.46072 29.3252 7.48657 32.5389 7.98762C35.1851 8.4012 36.9015 9.91431 37.4789 12.5369C37.7318 13.6882 37.7358 14.8951 37.8353 16.0801C37.909 16.957 37.9847 17.8298 38.4964 18.5854C38.6258 18.7763 38.7931 18.9393 39.0061 19.1879C39.2968 17.1021 39.3586 15.1376 39.0101 13.1871C38.4526 10.0595 36.6924 7.8723 33.648 6.88808C30.042 5.72491 26.3764 5.73286 22.7505 6.81849C20.2437 7.56809 18.4317 9.17068 17.5934 11.6939C17.2888 12.6085 17.0877 13.5867 17.0319 14.5471C16.9443 16.0244 17.024 17.5097 17.0319 18.993V18.995ZM33.5026 41.131C34.988 41.5068 36.0294 42.5746 37.0429 43.7974C37.6263 43.0438 38.1798 42.324 38.7373 41.6102C38.9086 41.3895 38.8389 41.2324 38.6557 41.0594C37.8513 40.2959 37.0608 39.5205 36.2544 38.7609C35.9856 38.5064 35.6809 38.2897 35.4639 38.1127C34.8028 39.1308 34.1776 40.0931 33.5026 41.131ZM17.3366 41.1549C18.0355 42.0437 18.6607 42.835 19.3058 43.6522C20.2835 42.5149 21.2313 41.5347 22.5335 41.0634C21.9222 40.0673 21.3169 39.0791 20.6618 38.0074C19.6105 39.0035 18.5134 40.0414 17.3366 41.1549Z"/>
</mask>
<path d="M40.4238 42.3041C39.6433 43.2565 38.9145 44.193 38.134 45.0858C37.3216 46.0144 36.7681 46.0124 35.9258 45.1494C35.3544 45.9945 34.8028 46.8494 34.2135 47.6786C32.7281 49.7643 30.9918 51.6234 29.0465 53.2877C28.3854 53.8523 27.9553 53.8444 27.3062 53.2817C24.5744 50.9096 22.2268 48.2154 20.3731 45.0301C20.2596 45.1614 20.17 45.2667 20.0784 45.3701C19.6105 45.901 19.1187 45.9189 18.6527 45.3801C17.7468 44.3322 16.8587 43.2685 15.9269 42.1669C13.0576 43.8053 9.9216 45.1892 7.39087 47.5374C5.85968 48.9571 5.04531 50.7028 5.03137 52.8065C5.02739 53.403 4.72872 53.7191 4.21899 53.7092C3.71324 53.6992 3.44443 53.3791 3.44244 52.7727C3.43249 49.9015 4.65704 47.607 6.89507 45.905C8.42825 44.7378 10.0869 43.7238 11.7375 42.7217C13.0059 41.9502 14.3539 41.31 15.6601 40.5962C15.8572 40.4888 16.0304 40.3218 16.1897 40.1587C17.6532 38.6476 19.1127 37.1365 20.9366 36.0389C21.0501 35.9713 21.0978 35.7884 21.1596 35.6512C21.1835 35.5955 21.1596 35.52 21.1655 35.4544C21.295 34.2355 21.058 33.2135 20.156 32.2353C18.9753 30.9548 18.4715 29.2687 18.0653 27.5846C18.0235 27.4136 17.918 27.1909 17.7806 27.1233C16.0981 26.318 15.4968 24.8705 15.3793 23.1387C15.3216 22.2896 15.4331 21.4625 15.7616 20.6632C15.8373 20.4783 15.7696 20.2218 15.7278 20.0051C15.1842 17.124 15.1344 14.2469 15.9846 11.4215C16.8866 8.42307 18.9096 6.4069 21.8624 5.44257C26.0578 4.07261 30.3108 4.05074 34.4862 5.50023C38.0902 6.75287 40.0574 9.45103 40.615 13.1692C40.9793 15.6029 40.9754 18.0426 40.3521 20.4524C40.3123 20.6095 40.3701 20.8083 40.4258 20.9734C40.9037 22.3771 40.8519 23.771 40.3123 25.1389C39.9599 26.0317 39.3307 26.6898 38.4705 27.1392C38.2853 27.2366 38.0962 27.4653 38.0524 27.6641C37.6044 29.6803 36.8378 31.5334 35.4141 33.0763C35.3166 33.1817 35.2648 33.3666 35.2628 33.5157C35.2489 34.2773 35.2449 35.0368 35.2668 35.7983C35.2708 35.9475 35.3623 36.1582 35.4818 36.2318C37.244 37.3015 38.6517 38.7729 40.0794 40.2243C40.3063 40.455 40.5791 40.6558 40.8619 40.8129C43.538 42.2902 46.3056 43.6125 48.7567 45.4676C50.5368 46.8156 51.9923 48.4123 52.4881 50.669C52.6454 51.3888 52.6972 52.1384 52.743 52.8761C52.7748 53.399 52.4523 53.7052 51.9764 53.7151C51.4965 53.7251 51.164 53.4288 51.166 52.9138C51.1839 50.2097 49.8459 48.2512 47.7791 46.6765C45.7163 45.1057 43.4045 43.9505 41.1506 42.7018C40.8937 42.5586 40.6329 42.4254 40.4278 42.3181L40.4238 42.3041ZM28.242 9.14483C26.7447 9.286 25.4047 9.35758 24.0806 9.54846C21.6394 9.90039 20.4527 11.1133 20.1262 13.537C20.0107 14.404 19.9788 15.2828 19.945 16.1577C19.8733 18.0307 19.3337 19.6531 17.703 20.7825C17.1335 21.1782 16.7671 21.7369 16.8707 22.5024C16.9284 22.9259 16.8906 23.3673 16.9722 23.7849C17.1693 24.779 17.6173 25.5803 18.7145 25.8408C19.1266 25.9382 19.3855 26.2086 19.4611 26.666C19.5527 27.2167 19.6622 27.7754 19.8454 28.3023C20.391 29.8731 20.8967 31.4817 22.4936 32.3764C22.5613 32.4142 22.5952 32.5057 22.6549 32.5613C22.8341 32.7224 23.0034 32.8994 23.2045 33.0286C23.4952 33.2155 23.8416 33.3229 24.1065 33.5356C25.7651 34.8718 27.6905 34.9255 29.6319 34.5795C31.2964 34.2812 32.6425 33.2354 33.9088 32.2015C34.6077 31.6288 35.1433 30.7619 35.5276 29.9268C35.9916 28.9207 36.2444 27.8112 36.5351 26.7336C36.6725 26.2245 36.8477 25.9183 37.4311 25.7792C37.8533 25.6797 38.2993 25.3378 38.5661 24.9799C39.5358 23.6815 39.271 21.5043 38.0623 20.4405C37.0429 19.5438 36.4734 18.4224 36.342 17.0862C36.2205 15.8534 36.2026 14.6087 36.0373 13.382C35.7845 11.505 34.8168 10.0316 32.6265 9.66378C31.1312 9.41126 29.61 9.30588 28.244 9.15079L28.242 9.14483ZM28.021 44.9784C29.6239 43.1154 31.1969 41.312 32.7341 39.4787C33.1223 39.0154 33.4329 38.4746 33.7037 37.9318C33.8312 37.6753 33.8152 37.3293 33.8033 37.0271C33.7874 36.6533 33.6838 36.2815 33.6639 35.9077C33.638 35.4365 33.6579 34.9613 33.6579 34.488C33.6261 34.4383 33.5942 34.3886 33.5624 34.3409C31.9973 35.6413 30.2332 36.2596 28.2142 36.2576C26.2171 36.2537 24.3992 35.8341 22.8202 34.496C22.7565 34.838 22.7724 35.0965 22.7545 35.3549C22.7107 35.9952 22.9237 36.6871 22.3642 37.2319C22.2925 37.3015 22.3264 37.5242 22.3702 37.6554C22.4598 37.9199 22.5613 38.1883 22.7107 38.4209C23.4832 39.6199 24.3494 40.7413 25.4604 41.6559C25.6615 41.821 25.8427 42.0198 26 42.2306C26.685 43.1472 27.358 44.0737 28.019 44.9784H28.021ZM28.1982 51.8859C28.8653 51.2456 29.5124 50.6551 30.1257 50.0328C31.8799 48.2592 33.3672 46.2828 34.5898 44.1115C34.6655 43.9763 34.7371 43.7397 34.6714 43.6383C34.0144 42.6183 32.6046 42.4374 31.6907 43.2108C30.4861 44.2268 29.596 45.4934 28.7816 46.8176C28.3456 47.5255 27.802 47.5195 27.2923 46.8395C26.2848 45.4914 25.2314 44.1771 24.198 42.8489C23.9432 42.5229 23.5768 42.3996 23.2264 42.5567C22.7067 42.7873 22.2268 43.1094 21.737 43.4017C21.508 43.5389 21.512 43.7099 21.6434 43.9425C23.3498 46.9489 25.554 49.5436 28.2002 51.8879L28.1982 51.8859ZM17.0319 18.995C17.1036 19.001 17.1753 19.0069 17.247 19.0129C17.8583 18.4343 18.1629 17.6946 18.2446 16.8754C18.368 15.6427 18.4118 14.402 18.5512 13.1712C18.7881 11.0715 20.0167 8.76904 22.9138 8.14669C26.1095 7.46072 29.3252 7.48657 32.5389 7.98762C35.1851 8.4012 36.9015 9.91431 37.4789 12.5369C37.7318 13.6882 37.7358 14.8951 37.8353 16.0801C37.909 16.957 37.9847 17.8298 38.4964 18.5854C38.6258 18.7763 38.7931 18.9393 39.0061 19.1879C39.2968 17.1021 39.3586 15.1376 39.0101 13.1871C38.4526 10.0595 36.6924 7.8723 33.648 6.88808C30.042 5.72491 26.3764 5.73286 22.7505 6.81849C20.2437 7.56809 18.4317 9.17068 17.5934 11.6939C17.2888 12.6085 17.0877 13.5867 17.0319 14.5471C16.9443 16.0244 17.024 17.5097 17.0319 18.993V18.995ZM33.5026 41.131C34.988 41.5068 36.0294 42.5746 37.0429 43.7974C37.6263 43.0438 38.1798 42.324 38.7373 41.6102C38.9086 41.3895 38.8389 41.2324 38.6557 41.0594C37.8513 40.2959 37.0608 39.5205 36.2544 38.7609C35.9856 38.5064 35.6809 38.2897 35.4639 38.1127C34.8028 39.1308 34.1776 40.0931 33.5026 41.131ZM17.3366 41.1549C18.0355 42.0437 18.6607 42.835 19.3058 43.6522C20.2835 42.5149 21.2313 41.5347 22.5335 41.0634C21.9222 40.0673 21.3169 39.0791 20.6618 38.0074C19.6105 39.0035 18.5134 40.0414 17.3366 41.1549Z" fill="black"/>
<path d="M40.4238 42.3041C39.6433 43.2565 38.9145 44.193 38.134 45.0858C37.3216 46.0144 36.7681 46.0124 35.9258 45.1494C35.3544 45.9945 34.8028 46.8494 34.2135 47.6786C32.7281 49.7643 30.9918 51.6234 29.0465 53.2877C28.3854 53.8523 27.9553 53.8444 27.3062 53.2817C24.5744 50.9096 22.2268 48.2154 20.3731 45.0301C20.2596 45.1614 20.17 45.2667 20.0784 45.3701C19.6105 45.901 19.1187 45.9189 18.6527 45.3801C17.7468 44.3322 16.8587 43.2685 15.9269 42.1669C13.0576 43.8053 9.9216 45.1892 7.39087 47.5374C5.85968 48.9571 5.04531 50.7028 5.03137 52.8065C5.02739 53.403 4.72872 53.7191 4.21899 53.7092C3.71324 53.6992 3.44443 53.3791 3.44244 52.7727C3.43249 49.9015 4.65704 47.607 6.89507 45.905C8.42825 44.7378 10.0869 43.7238 11.7375 42.7217C13.0059 41.9502 14.3539 41.31 15.6601 40.5962C15.8572 40.4888 16.0304 40.3218 16.1897 40.1587C17.6532 38.6476 19.1127 37.1365 20.9366 36.0389C21.0501 35.9713 21.0978 35.7884 21.1596 35.6512C21.1835 35.5955 21.1596 35.52 21.1655 35.4544C21.295 34.2355 21.058 33.2135 20.156 32.2353C18.9753 30.9548 18.4715 29.2687 18.0653 27.5846C18.0235 27.4136 17.918 27.1909 17.7806 27.1233C16.0981 26.318 15.4968 24.8705 15.3793 23.1387C15.3216 22.2896 15.4331 21.4625 15.7616 20.6632C15.8373 20.4783 15.7696 20.2218 15.7278 20.0051C15.1842 17.124 15.1344 14.2469 15.9846 11.4215C16.8866 8.42307 18.9096 6.4069 21.8624 5.44257C26.0578 4.07261 30.3108 4.05074 34.4862 5.50023C38.0902 6.75287 40.0574 9.45103 40.615 13.1692C40.9793 15.6029 40.9754 18.0426 40.3521 20.4524C40.3123 20.6095 40.3701 20.8083 40.4258 20.9734C40.9037 22.3771 40.8519 23.771 40.3123 25.1389C39.9599 26.0317 39.3307 26.6898 38.4705 27.1392C38.2853 27.2366 38.0962 27.4653 38.0524 27.6641C37.6044 29.6803 36.8378 31.5334 35.4141 33.0763C35.3166 33.1817 35.2648 33.3666 35.2628 33.5157C35.2489 34.2773 35.2449 35.0368 35.2668 35.7983C35.2708 35.9475 35.3623 36.1582 35.4818 36.2318C37.244 37.3015 38.6517 38.7729 40.0794 40.2243C40.3063 40.455 40.5791 40.6558 40.8619 40.8129C43.538 42.2902 46.3056 43.6125 48.7567 45.4676C50.5368 46.8156 51.9923 48.4123 52.4881 50.669C52.6454 51.3888 52.6972 52.1384 52.743 52.8761C52.7748 53.399 52.4523 53.7052 51.9764 53.7151C51.4965 53.7251 51.164 53.4288 51.166 52.9138C51.1839 50.2097 49.8459 48.2512 47.7791 46.6765C45.7163 45.1057 43.4045 43.9505 41.1506 42.7018C40.8937 42.5586 40.6329 42.4254 40.4278 42.3181L40.4238 42.3041ZM28.242 9.14483C26.7447 9.286 25.4047 9.35758 24.0806 9.54846C21.6394 9.90039 20.4527 11.1133 20.1262 13.537C20.0107 14.404 19.9788 15.2828 19.945 16.1577C19.8733 18.0307 19.3337 19.6531 17.703 20.7825C17.1335 21.1782 16.7671 21.7369 16.8707 22.5024C16.9284 22.9259 16.8906 23.3673 16.9722 23.7849C17.1693 24.779 17.6173 25.5803 18.7145 25.8408C19.1266 25.9382 19.3855 26.2086 19.4611 26.666C19.5527 27.2167 19.6622 27.7754 19.8454 28.3023C20.391 29.8731 20.8967 31.4817 22.4936 32.3764C22.5613 32.4142 22.5952 32.5057 22.6549 32.5613C22.8341 32.7224 23.0034 32.8994 23.2045 33.0286C23.4952 33.2155 23.8416 33.3229 24.1065 33.5356C25.7651 34.8718 27.6905 34.9255 29.6319 34.5795C31.2964 34.2812 32.6425 33.2354 33.9088 32.2015C34.6077 31.6288 35.1433 30.7619 35.5276 29.9268C35.9916 28.9207 36.2444 27.8112 36.5351 26.7336C36.6725 26.2245 36.8477 25.9183 37.4311 25.7792C37.8533 25.6797 38.2993 25.3378 38.5661 24.9799C39.5358 23.6815 39.271 21.5043 38.0623 20.4405C37.0429 19.5438 36.4734 18.4224 36.342 17.0862C36.2205 15.8534 36.2026 14.6087 36.0373 13.382C35.7845 11.505 34.8168 10.0316 32.6265 9.66378C31.1312 9.41126 29.61 9.30588 28.244 9.15079L28.242 9.14483ZM28.021 44.9784C29.6239 43.1154 31.1969 41.312 32.7341 39.4787C33.1223 39.0154 33.4329 38.4746 33.7037 37.9318C33.8312 37.6753 33.8152 37.3293 33.8033 37.0271C33.7874 36.6533 33.6838 36.2815 33.6639 35.9077C33.638 35.4365 33.6579 34.9613 33.6579 34.488C33.6261 34.4383 33.5942 34.3886 33.5624 34.3409C31.9973 35.6413 30.2332 36.2596 28.2142 36.2576C26.2171 36.2537 24.3992 35.8341 22.8202 34.496C22.7565 34.838 22.7724 35.0965 22.7545 35.3549C22.7107 35.9952 22.9237 36.6871 22.3642 37.2319C22.2925 37.3015 22.3264 37.5242 22.3702 37.6554C22.4598 37.9199 22.5613 38.1883 22.7107 38.4209C23.4832 39.6199 24.3494 40.7413 25.4604 41.6559C25.6615 41.821 25.8427 42.0198 26 42.2306C26.685 43.1472 27.358 44.0737 28.019 44.9784H28.021ZM28.1982 51.8859C28.8653 51.2456 29.5124 50.6551 30.1257 50.0328C31.8799 48.2592 33.3672 46.2828 34.5898 44.1115C34.6655 43.9763 34.7371 43.7397 34.6714 43.6383C34.0144 42.6183 32.6046 42.4374 31.6907 43.2108C30.4861 44.2268 29.596 45.4934 28.7816 46.8176C28.3456 47.5255 27.802 47.5195 27.2923 46.8395C26.2848 45.4914 25.2314 44.1771 24.198 42.8489C23.9432 42.5229 23.5768 42.3996 23.2264 42.5567C22.7067 42.7873 22.2268 43.1094 21.737 43.4017C21.508 43.5389 21.512 43.7099 21.6434 43.9425C23.3498 46.9489 25.554 49.5436 28.2002 51.8879L28.1982 51.8859ZM17.0319 18.995C17.1036 19.001 17.1753 19.0069 17.247 19.0129C17.8583 18.4343 18.1629 17.6946 18.2446 16.8754C18.368 15.6427 18.4118 14.402 18.5512 13.1712C18.7881 11.0715 20.0167 8.76904 22.9138 8.14669C26.1095 7.46072 29.3252 7.48657 32.5389 7.98762C35.1851 8.4012 36.9015 9.91431 37.4789 12.5369C37.7318 13.6882 37.7358 14.8951 37.8353 16.0801C37.909 16.957 37.9847 17.8298 38.4964 18.5854C38.6258 18.7763 38.7931 18.9393 39.0061 19.1879C39.2968 17.1021 39.3586 15.1376 39.0101 13.1871C38.4526 10.0595 36.6924 7.8723 33.648 6.88808C30.042 5.72491 26.3764 5.73286 22.7505 6.81849C20.2437 7.56809 18.4317 9.17068 17.5934 11.6939C17.2888 12.6085 17.0877 13.5867 17.0319 14.5471C16.9443 16.0244 17.024 17.5097 17.0319 18.993V18.995ZM33.5026 41.131C34.988 41.5068 36.0294 42.5746 37.0429 43.7974C37.6263 43.0438 38.1798 42.324 38.7373 41.6102C38.9086 41.3895 38.8389 41.2324 38.6557 41.0594C37.8513 40.2959 37.0608 39.5205 36.2544 38.7609C35.9856 38.5064 35.6809 38.2897 35.4639 38.1127C34.8028 39.1308 34.1776 40.0931 33.5026 41.131ZM17.3366 41.1549C18.0355 42.0437 18.6607 42.835 19.3058 43.6522C20.2835 42.5149 21.2313 41.5347 22.5335 41.0634C21.9222 40.0673 21.3169 39.0791 20.6618 38.0074C19.6105 39.0035 18.5134 40.0414 17.3366 41.1549Z" stroke="black" stroke-width="0.588506" mask="url(#path-2-outside-1_1024_12867)"/>
<path d="M28.3464 9.00893L28.3372 8.98122L28.2208 8.9922C27.7464 9.03693 27.286 9.07477 26.8359 9.11177C25.8732 9.1909 24.9576 9.26616 24.0523 9.39666L28.3464 9.00893ZM28.3464 9.00893C28.7274 9.05136 29.1217 9.09044 29.5249 9.1304C30.5331 9.23032 31.5963 9.3357 32.6436 9.51255C33.7689 9.70256 34.5916 10.1788 35.1642 10.8574C35.735 11.5338 36.0478 12.4 36.1757 13.3562C36.1758 13.3562 36.1758 13.3562 36.1758 13.3563L28.3464 9.00893ZM24.0067 33.644C25.714 35.0193 27.6916 35.0692 29.6504 34.7182C31.3576 34.4143 32.7329 33.3428 33.9947 32.3091C34.7184 31.7161 35.2655 30.8281 35.6538 29.9823C36.0483 29.1267 36.2926 28.1968 36.5312 27.2885C36.5773 27.1132 36.6231 26.9387 36.6698 26.7657L36.6698 26.7656C36.7371 26.5152 36.809 26.3372 36.9212 26.2054C37.03 26.0777 37.1887 25.9796 37.4575 25.9162C37.9218 25.8068 38.395 25.4394 38.6766 25.0616C39.1884 24.3763 39.3692 23.4678 39.2698 22.5993C39.1705 21.7309 38.7889 20.8844 38.1521 20.3239L38.1521 20.3239C37.1608 19.4519 36.6088 18.365 36.481 17.0659L23.1971 33.0224L23.1175 33.1462C23.2486 33.2305 23.3908 33.2997 23.5232 33.3643C23.5468 33.3757 23.57 33.387 23.5928 33.3983C23.7483 33.4748 23.8881 33.5488 24.0067 33.644ZM24.0067 33.644L24.099 33.5295L24.0069 33.6442C24.0069 33.6441 24.0068 33.6441 24.0067 33.644ZM22.4128 32.4978C22.4133 32.498 22.4138 32.4983 22.4143 32.4986L22.4862 32.3703L22.4129 32.4978C22.4127 32.4977 22.4126 32.4976 22.4128 32.4978ZM22.4128 32.4978C20.8278 31.6089 20.2846 30.0379 19.7658 28.5373C19.7435 28.4729 19.7213 28.4086 19.699 28.3445L22.4128 32.4978ZM19.3086 26.6839L19.3086 26.6838C19.2744 26.4775 19.2009 26.3237 19.0982 26.2117C18.9957 26.1 18.8557 26.021 18.6732 25.9778L18.6731 25.9778C18.0929 25.8401 17.6769 25.5564 17.3817 25.1713C17.0889 24.7895 16.9214 24.3163 16.8205 23.8073C16.7762 23.5859 16.7645 23.3613 16.7566 23.1459C16.7555 23.1174 16.7545 23.0891 16.7535 23.0609C16.7469 22.873 16.7406 22.6929 16.7174 22.5154L16.8633 22.4962M19.3086 26.6839L19.973 13.5113C19.8598 14.3465 19.8273 15.1918 19.7952 16.0259C19.7936 16.0659 19.7921 16.1059 19.7906 16.1458L19.7906 16.1459C19.7199 17.9922 19.1908 19.5618 17.6118 20.6554C17.0085 21.0731 16.6045 21.681 16.7175 22.516L16.8633 22.4962M19.3086 26.6839C19.4005 27.2385 19.5116 27.8053 19.699 28.3445L19.3086 26.6839ZM16.8633 22.4962C16.7597 21.7307 17.1241 21.172 17.6956 20.7763L16.9648 23.7787C16.9175 23.5428 16.9091 23.2998 16.9006 23.0564C16.8941 22.869 16.8875 22.6813 16.8633 22.4962ZM21.1984 10.6547C21.8709 9.97432 22.8121 9.57446 24.0522 9.39667L21.1984 10.6547ZM21.1984 10.6547C20.5259 11.3351 20.1389 12.2789 19.973 13.5111L21.1984 10.6547Z" stroke="black" stroke-width="0.294253"/>
<path d="M22.2593 37.1254C22.2104 37.1729 22.1907 37.2341 22.1819 37.2805C22.1726 37.3293 22.1718 37.381 22.1747 37.4286C22.1806 37.5238 22.2029 37.6249 22.2283 37.701L22.2283 37.701L22.2286 37.7019C22.3185 37.9652 22.4248 38.2505 22.5845 38.4994L22.5847 38.4997C23.3612 39.7028 24.2369 40.8401 25.3643 41.7683C25.5553 41.9269 25.7305 42.1169 25.8796 42.3173L25.8798 42.3176C26.3764 42.9821 26.8654 43.6516 27.3499 44.3149C27.5332 44.5658 27.7159 44.8158 27.898 45.0644L27.9421 45.1245H28.0167H28.0187H28.0862L28.1302 45.0733C28.5464 44.5896 28.9608 44.1096 29.3731 43.632C30.5478 42.2714 31.7061 40.9299 32.8444 39.5722L32.8445 39.5722C33.2435 39.0961 33.5601 38.5436 33.833 37.9964L33.8331 37.9962C33.9091 37.8434 33.9392 37.6709 33.9502 37.5054C33.9609 37.346 33.9544 37.1823 33.9486 37.0372L33.948 37.0203L33.9479 37.0198C33.9395 36.8228 33.9081 36.6284 33.878 36.4434L33.8766 36.4352C33.8465 36.2503 33.8178 36.0747 33.8085 35.8989L33.8085 35.8986C33.7907 35.5752 33.7948 35.253 33.799 34.9251C33.8009 34.7803 33.8027 34.6345 33.8027 34.487V34.4424L33.778 34.4053C33.747 34.3589 33.7159 34.3104 33.6839 34.2605L33.5941 34.1204L33.4661 34.2266C31.9259 35.5047 30.1973 36.1134 28.2121 36.1095L28.212 36.1095C26.2364 36.1075 24.4569 35.6931 22.913 34.3828L22.7197 34.2186L22.6732 34.468C22.6267 34.7173 22.6203 34.9341 22.6146 35.1234C22.6123 35.2014 22.6101 35.2747 22.6054 35.3437H22.6054L22.6053 35.3443C22.5945 35.5096 22.5998 35.677 22.6049 35.8363L22.6051 35.8453C22.6103 36.0099 22.615 36.166 22.6044 36.3179C22.5835 36.6164 22.5048 36.8863 22.2593 37.1254ZM22.2593 37.1254C22.2593 37.1254 22.2594 37.1253 22.2594 37.1253L22.3619 37.2309M22.2593 37.1254C22.2593 37.1254 22.2593 37.1254 22.2592 37.1255L22.3619 37.2309M22.3619 37.2309C22.7832 36.8206 22.7676 36.327 22.752 35.8348C22.7469 35.6733 22.7418 35.512 22.7521 35.3539L25.9977 42.2295C25.8424 42.0207 25.6592 41.8219 25.4581 41.6549C24.347 40.7403 23.4809 39.6169 22.7083 38.4199C22.559 38.1873 22.4574 37.9168 22.3678 37.6544C22.324 37.5232 22.2902 37.3005 22.3619 37.2309Z" stroke="black" stroke-width="0.294253"/>
<path d="M28.0927 51.9965L28.1932 51.8896L28.2901 51.9906C28.5051 51.7843 28.7185 51.5822 28.9299 51.3821C29.3711 50.9644 29.8031 50.5555 30.2201 50.1349L30.2202 50.1348C31.9838 48.3538 33.4791 46.3648 34.708 44.1823L34.7082 44.1819C34.7528 44.1022 34.7951 43.9955 34.8175 43.8919C34.8287 43.8398 34.836 43.7838 34.8341 43.7295C34.8323 43.6769 34.8214 43.6134 34.7851 43.5572C34.0782 42.4597 32.565 42.2704 31.5858 43.097L31.5858 43.097C30.365 44.1283 29.4632 45.4109 28.6464 46.739C28.4392 47.0754 28.2328 47.1996 28.0533 47.2012C27.8696 47.2028 27.6449 47.0775 27.4001 46.75C26.6699 45.7729 25.9162 44.8129 25.1634 43.8541C24.8764 43.4886 24.5895 43.1232 24.3041 42.7571L24.304 42.7569C24.0162 42.3887 23.5809 42.233 23.1569 42.4207L23.1565 42.4208C22.7559 42.5993 22.3748 42.8329 22.0036 43.0604C21.8855 43.1328 21.7683 43.2046 21.6519 43.2738L21.6519 43.2738L21.6514 43.2741C21.5131 43.3569 21.4178 43.4678 21.3991 43.6165C21.3818 43.7538 21.4354 43.8896 21.5053 44.0135L21.5055 44.0137C23.2211 47.0383 25.4383 49.6433 28.0927 51.9965Z" stroke="black" stroke-width="0.294253"/>
<path d="M16.8784 14.5405L16.8784 14.5405C16.818 15.5817 16.8384 16.6301 16.8586 17.6723C16.8672 18.1148 16.8757 18.5561 16.8781 18.9953V18.9969V19.1323L17.013 19.1435L17.2281 19.1614L17.2938 19.1669L17.3416 19.1215C17.9807 18.5145 18.2997 17.74 18.3842 16.8922C18.4423 16.321 18.4826 15.7482 18.5226 15.1782C18.526 15.1304 18.5293 15.0826 18.5327 15.0348C18.5763 14.4166 18.6214 13.8016 18.6907 13.1896L18.6907 13.1896C18.9229 11.1314 20.1213 8.89751 22.9379 8.29244C26.1148 7.61094 29.31 7.63405 32.5095 8.13487L32.5095 8.13488C33.8091 8.33815 34.8713 8.8099 35.6782 9.54456C36.4847 10.2788 37.0453 11.2841 37.3285 12.5704L37.3286 12.5706C37.5114 13.3963 37.5629 14.2471 37.6152 15.1098C37.635 15.4365 37.6548 15.7648 37.682 16.0941C37.7532 16.9655 37.8313 17.8774 38.3678 18.6697C38.4588 18.8046 38.5738 18.9326 38.7016 19.0749C38.7612 19.1413 38.8236 19.2108 38.8877 19.2855L39.1001 19.5333L39.1451 19.2101C39.4372 17.1148 39.5003 15.1338 39.1482 13.1631C38.5819 9.98436 36.7868 7.75022 33.6864 6.74995L33.6413 6.88984L33.6864 6.74995C30.0509 5.57724 26.3547 5.58564 22.7016 6.67944C20.1514 7.44142 18.3019 9.07632 17.4471 11.6494L17.4471 11.6495C17.1409 12.5748 16.9349 13.5657 16.8784 14.5405Z" stroke="black" stroke-width="0.294253"/>
<path d="M33.3776 41.0504L33.2657 41.2225L33.4647 41.2732C34.9004 41.6383 35.9157 42.6695 36.9279 43.8908L37.0451 44.0322L37.1576 43.887C37.335 43.6578 37.5096 43.4318 37.6823 43.2083C38.0779 42.6963 38.4637 42.197 38.8516 41.7003L38.8519 41.7C38.9542 41.5681 39.0025 41.4302 38.9716 41.2857C38.943 41.1518 38.8518 41.0434 38.7552 40.9522C38.3819 40.5988 38.0075 40.238 37.6326 39.8766C37.2067 39.4663 36.7802 39.0552 36.3536 38.6534L36.3535 38.6533C36.1588 38.4703 35.9438 38.303 35.7615 38.1611C35.6859 38.1022 35.6158 38.0477 35.5552 37.9983L35.4281 37.8947L35.3389 38.0322C34.6778 39.0502 34.0526 40.0125 33.3776 41.0504ZM35.5778 38.2045C35.6101 38.2298 35.6435 38.2558 35.6778 38.2825C35.8582 38.4229 36.0633 38.5824 36.2527 38.7605L35.5778 38.2045Z" stroke="black" stroke-width="0.294253"/>
<path d="M17.2308 41.0485L17.1332 41.1411L17.2166 41.2466C17.9174 42.1332 18.5405 42.9245 19.1857 43.7437L19.2964 43.8843L19.4129 43.7485C20.3881 42.6117 21.3163 41.6611 22.5791 41.2022L22.7486 41.1406L22.6543 40.9869C22.3251 40.4505 21.9984 39.9167 21.6644 39.3708C21.378 38.9028 21.0861 38.4259 20.7827 37.9309L20.6879 37.7763L20.5561 37.9009C19.5048 38.8951 18.4056 39.935 17.2308 41.0485Z" stroke="black" stroke-width="0.294253"/>
</svg>
