<svg width="52" height="52" viewBox="0 0 52 52" fill="none" xmlns="http://www.w3.org/2000/svg">
<path fill-rule="evenodd" clip-rule="evenodd" d="M26 48C38.1503 48 48 38.1503 48 26C48 13.8497 38.1503 4 26 4C13.8497 4 4 13.8497 4 26C4 38.1503 13.8497 48 26 48ZM26 52C40.3594 52 52 40.3594 52 26C52 11.6406 40.3594 0 26 0C11.6406 0 0 11.6406 0 26C0 40.3594 11.6406 52 26 52Z" fill="#E0DC33"/>
<path d="M34.5997 27.6002H27.3197V34.7602H23.9597V27.6002H16.6797V24.4402H23.9597V17.2402H27.3197V24.4402H34.5997V27.6002Z" fill="#E0DC33"/>
</svg>
