<svg width="42" height="42" viewBox="0 0 42 42" fill="none" xmlns="http://www.w3.org/2000/svg">
<path d="M21 0C9.4206 0 0 9.42073 0 21.0001C0 32.5795 9.4206 42 21 42C32.5794 42 42 32.5795 42 21.0001C42 9.42073 32.5794 0 21 0ZM21 38.1818C11.5258 38.1818 3.81818 30.4742 3.81818 21.0001C3.81818 11.5261 11.5258 3.81818 21 3.81818C30.4742 3.81818 38.1818 11.5261 38.1818 21.0001C38.1818 30.4742 30.4741 38.1818 21 38.1818Z" fill="black"/>
<path d="M20.9981 8.9082C19.5948 8.9082 18.4531 10.0506 18.4531 11.4548C18.4531 12.8577 19.5948 13.9991 20.9981 13.9991C22.4014 13.9991 23.543 12.8577 23.543 11.4548C23.543 10.0506 22.4014 8.9082 20.9981 8.9082Z" fill="black"/>
<path d="M20.9989 17.8184C19.9446 17.8184 19.0898 18.6731 19.0898 19.7275V31.182C19.0898 32.2363 19.9446 33.0911 20.9989 33.0911C22.0533 33.0911 22.908 32.2363 22.908 31.182V19.7275C22.908 18.6731 22.0533 17.8184 20.9989 17.8184Z" fill="black"/>
</svg>
