<svg width="50" height="38" viewBox="0 0 50 38" fill="none" xmlns="http://www.w3.org/2000/svg">
<path d="M1.92859 15.032L4.49659 11.936C5.38459 12.824 6.89659 13.712 8.62459 13.712C9.48859 13.712 10.4726 13.448 10.4726 12.44C10.4726 11.6 9.60859 11.144 7.97659 10.592L7.08859 10.304C5.07259 9.656 2.88859 8.36 2.88859 5.768C2.88859 2.816 5.07259 0.559999 9.08059 0.559999C12.2246 0.559999 14.1686 1.856 14.8886 2.624L12.7286 5.36C11.6006 4.52 10.3766 3.944 9.10459 3.944C8.26459 3.944 7.35259 4.304 7.35259 5.168C7.35259 6.152 8.36059 6.464 9.72859 6.92L10.4966 7.16C12.6806 7.856 15.2006 8.888 15.2006 12.32C15.2006 15.296 12.2726 17.384 8.69659 17.384C5.50459 17.384 3.44059 16.472 1.92859 15.032ZM21.4001 17L15.5921 0.991999H20.2241L23.8241 12.128L27.1841 0.991999H31.7201L25.8881 17H21.4001ZM40.4477 11.144V7.856H47.0237V15.08C45.1037 16.712 42.4877 17.384 39.9917 17.384C34.7837 17.384 31.6637 14.144 31.6637 8.96C31.6637 4.064 35.0957 0.559999 39.9917 0.559999C42.6557 0.559999 45.0797 1.376 46.6397 3.416L43.8797 6.2C42.8957 5.216 41.8157 4.496 40.3037 4.496C37.5677 4.496 36.0317 6.536 36.0317 9.032C36.0317 11.768 37.7357 13.544 40.3277 13.544C41.3837 13.544 42.3437 13.328 43.2317 12.68V11.144H40.4477Z" fill="#D2DF3F"/>
<path d="M0.991219 37V25.661H2.62322V37H0.991219ZM13.708 34.059L14.847 35.011C14.354 35.827 12.756 37.272 10.41 37.272C7.07802 37.272 4.74902 34.773 4.74902 31.373C4.74902 28.058 7.06102 25.389 10.444 25.389C12.841 25.389 14.218 26.698 14.847 27.633L13.691 28.619C13.147 27.854 12.229 26.851 10.461 26.851C7.96202 26.851 6.46602 28.891 6.46602 31.339C6.46602 33.804 8.01302 35.742 10.41 35.742C12.45 35.742 13.266 34.535 13.708 34.059ZM21.7517 37.289C18.4877 37.289 15.9717 34.637 15.9717 31.322C15.9717 28.024 18.4707 25.372 21.7517 25.372C25.0327 25.372 27.5487 28.024 27.5487 31.322C27.5487 34.637 25.0327 37.289 21.7517 37.289ZM21.7517 35.759C24.2507 35.759 25.8487 33.702 25.8487 31.305C25.8487 28.857 24.2507 26.851 21.7517 26.851C19.2697 26.851 17.6717 28.857 17.6717 31.305C17.6717 33.702 19.2697 35.759 21.7517 35.759ZM29.6787 37V25.661H31.3277L37.5157 34.518V25.661H39.1137V37H37.4817L31.2767 28.126V37H29.6787ZM41.0353 35.3L42.1913 34.246C42.8373 34.977 43.7553 35.793 45.2343 35.793C46.7303 35.793 47.6143 35.062 47.6143 33.906C47.6143 32.665 46.6283 32.138 44.8433 31.747C42.9052 31.339 41.5793 30.285 41.5793 28.483C41.5793 26.817 42.8543 25.372 45.3703 25.372C47.5973 25.372 48.5323 26.494 48.9062 26.953L47.8183 27.956C47.5293 27.633 46.7473 26.817 45.3023 26.817C43.8573 26.817 43.2283 27.667 43.2283 28.432C43.2283 29.554 44.1973 29.979 45.9143 30.387C47.5973 30.795 49.2633 31.628 49.2633 33.94C49.2633 35.895 47.5293 37.289 45.2683 37.289C43.1773 37.289 41.6983 36.201 41.0353 35.3Z" fill="black"/>
</svg>
