<svg width="25" height="44" viewBox="0 0 25 44" fill="none" xmlns="http://www.w3.org/2000/svg">
<path d="M5.85386 21.9482H4.39062V23.4115H5.85386V21.9482Z" fill="black"/>
<path d="M8.77964 20.4854H7.31641V21.9486H8.77964V20.4854Z" fill="black"/>
<path d="M22.6801 2.19499H21.849C21.6942 1.56405 21.3307 1.00394 20.8176 0.605532C20.3044 0.207121 19.6717 -0.00621404 19.0221 0.000137846H8.04779C5.91416 0.00265495 3.86863 0.851354 2.35992 2.36006C0.851216 3.86877 0.00251711 5.9143 0 8.04793C0 8.24197 0.0770811 8.42806 0.214286 8.56526C0.351491 8.70247 0.537581 8.77955 0.731618 8.77955H5.85294V15.1073L3.10718 18.5408C1.46324 20.4159 0.731618 23.4412 0.731618 25.6068V41.7023C0.721398 41.9933 0.77118 42.2833 0.877865 42.5542C0.98455 42.8251 1.14585 43.0712 1.35174 43.2771C1.55762 43.483 1.80368 43.6443 2.0746 43.7509C2.34551 43.8576 2.63549 43.9074 2.92647 43.8972H17.5588C17.8498 43.9074 18.1398 43.8576 18.4107 43.7509C18.6816 43.6443 18.9277 43.483 19.1336 43.2771C19.3394 43.0712 19.5007 42.8251 19.6074 42.5542C19.7141 42.2833 19.7639 41.9933 19.7537 41.7023V30.6469C19.769 27.9677 19.7844 25.4363 18.1734 23.019L13.1691 15.1505V8.77955H14.764L15.8761 14.3545C15.9973 14.9096 16.3316 15.3949 16.8071 15.7059C17.2826 16.017 17.8613 16.1288 18.4184 16.0173C18.9756 15.9058 19.4667 15.58 19.7859 15.11C20.1052 14.64 20.2271 14.0633 20.1253 13.5043L19.1742 8.76419C19.7961 8.73988 20.3932 8.51419 20.8756 8.12109C21.358 7.728 21.6996 7.1888 21.849 6.5847H22.6801C23.2623 6.5847 23.8205 6.35346 24.2321 5.94184C24.6438 5.53023 24.875 4.97196 24.875 4.38984C24.875 3.80773 24.6438 3.24946 24.2321 2.83785C23.8205 2.42623 23.2623 2.19499 22.6801 2.19499ZM2.19485 38.0443H4.38971V36.581H2.19485V35.1178H6.58456V33.6545H2.19485V27.3729L8.04779 33.2258V39.5075H2.19485V38.0443ZM16.9501 23.818C18.3212 25.8753 18.308 28.0826 18.2934 30.6381V32.1913H13.1691C12.9751 32.1913 12.789 32.2684 12.6518 32.4056C12.5146 32.5428 12.4375 32.7289 12.4375 32.9229C12.4375 33.117 12.5146 33.3031 12.6518 33.4403C12.789 33.5775 12.9751 33.6545 13.1691 33.6545H18.2904V35.1178H13.1691C12.9751 35.1178 12.789 35.1949 12.6518 35.3321C12.5146 35.4693 12.4375 35.6554 12.4375 35.8494C12.4375 36.0434 12.5146 36.2295 12.6518 36.3667C12.789 36.5039 12.9751 36.581 13.1691 36.581H18.2904V38.0443H13.1691C12.9751 38.0443 12.789 38.1213 12.6518 38.2585C12.5146 38.3957 12.4375 38.5818 12.4375 38.7759C12.4375 38.9699 12.5146 39.156 12.6518 39.2932C12.789 39.4304 12.9751 39.5075 13.1691 39.5075H18.2904V41.7023C18.2996 41.8007 18.2869 41.8999 18.2534 41.9928C18.2198 42.0857 18.1662 42.1701 18.0964 42.2399C18.0265 42.3098 17.9422 42.3634 17.8492 42.3969C17.7563 42.4304 17.6572 42.4431 17.5588 42.434H2.92647C2.82811 42.4431 2.72895 42.4304 2.63604 42.3969C2.54313 42.3634 2.45875 42.3098 2.3889 42.2399C2.31906 42.1701 2.26546 42.0857 2.23192 41.9928C2.19838 41.8999 2.18572 41.8007 2.19485 41.7023V40.9707H8.77941C8.97345 40.9707 9.15954 40.8936 9.29674 40.7564C9.43395 40.6192 9.51103 40.4331 9.51103 40.2391V32.9229C9.51099 32.7289 9.43388 32.5429 9.29667 32.4057L2.20802 25.3141C2.24702 23.2033 2.95481 21.1594 4.22948 19.4765L6.93573 16.0957H12.0358L16.9501 23.818ZM7.31618 14.6325V8.77955H11.7059V14.6325H7.31618ZM18.548 14.375C18.4822 14.4559 18.399 14.5211 18.3047 14.5657C18.2104 14.6103 18.1072 14.6331 18.0029 14.6325C17.8406 14.632 17.6834 14.5756 17.5578 14.4727C17.4323 14.3698 17.3461 14.2268 17.3137 14.0677L16.2565 8.77955H17.6912L18.6936 13.7911C18.7145 13.8931 18.7123 13.9985 18.6871 14.0996C18.6619 14.2006 18.6143 14.2947 18.548 14.375ZM20.4853 5.85308C20.4874 6.04581 20.4509 6.237 20.3781 6.41546C20.3053 6.59392 20.1976 6.75604 20.0613 6.89233C19.925 7.02861 19.7629 7.13632 19.5844 7.20912C19.406 7.28193 19.2148 7.31837 19.0221 7.31632H1.50421C1.68602 5.70748 2.45344 4.22179 3.66021 3.14239C4.86698 2.06299 6.42872 1.46535 8.04779 1.46337H19.0221C19.2148 1.46132 19.406 1.49776 19.5844 1.57057C19.7629 1.64337 19.925 1.75108 20.0613 1.88736C20.1976 2.02365 20.3053 2.18577 20.3781 2.36423C20.4509 2.54269 20.4874 2.73388 20.4853 2.92661V5.85308ZM22.6801 5.12146H21.9485V3.65823H22.6801C22.8742 3.65823 23.0603 3.73531 23.1975 3.87251C23.3347 4.00972 23.4118 4.19581 23.4118 4.38984C23.4118 4.58388 23.3347 4.76997 23.1975 4.90718C23.0603 5.04438 22.8742 5.12146 22.6801 5.12146Z" fill="black"/>
</svg>
