<svg width="44" height="39" viewBox="0 0 44 39" fill="none" xmlns="http://www.w3.org/2000/svg">
<path d="M42.1243 10.084C41.6417 9.61567 41.0965 9.23936 40.5105 8.95452C41.5354 8.15326 42.1979 6.90874 42.1979 5.50983C42.1979 3.09796 40.2356 1.13574 37.8238 1.13574C35.4119 1.13574 33.4497 3.09796 33.4497 5.50983C33.4497 6.92205 34.1251 8.17642 35.1668 8.97671C33.095 10.0182 31.6484 12.2276 31.6484 14.7424V23.9992C31.6484 25.3389 32.6631 26.4462 33.9642 26.5925V34.9674C33.9642 37.0103 35.4945 38.7558 37.4477 38.9417C37.5706 38.9532 37.6935 38.959 37.8159 38.959C38.7756 38.959 39.708 38.6036 40.4196 37.9565C41.2227 37.2265 41.6834 36.1853 41.6834 35.1002V26.5925C42.9845 26.4462 43.9991 25.3389 43.9991 23.9992V14.5158C43.9991 12.8313 43.3332 11.2573 42.1243 10.084ZM37.8238 2.67958C39.3842 2.67958 40.654 3.94939 40.654 5.50983C40.654 7.07065 39.3842 8.34045 37.8238 8.34045C36.2634 8.34045 34.9935 7.07065 34.9935 5.50983C34.9935 3.94939 36.2634 2.67958 37.8238 2.67958ZM42.4553 23.9992C42.4553 24.5869 41.9771 25.0653 41.3893 25.0653H40.9115C40.4852 25.0653 40.1395 25.4109 40.1395 25.8372V35.1002C40.1395 35.7511 39.8632 36.376 39.3811 36.8144C38.8927 37.2581 38.2564 37.4694 37.5938 37.4048C36.4243 37.2936 35.508 36.2232 35.508 34.9676V25.8374C35.508 25.4111 35.1624 25.0654 34.7361 25.0654H34.2583C33.6707 25.0654 33.1923 24.5872 33.1923 23.9994V14.7426C33.1923 12.1393 35.2058 9.96091 37.6806 9.88642C37.7267 9.88487 37.7723 9.88449 37.8182 9.88429C37.8201 9.88429 37.8221 9.88468 37.8238 9.88468C37.8248 9.88468 37.8257 9.88449 37.8267 9.88449C39.0378 9.88526 40.1776 10.3461 41.0491 11.1921C41.9559 12.0723 42.4553 13.2528 42.4553 14.5162V23.9992Z" fill="black"/>
<path d="M12.3507 23.9992V14.5158C12.3507 12.8315 11.6847 11.2573 10.4759 10.084C9.99346 9.61586 9.44772 9.23993 8.86125 8.95509C9.88655 8.15384 10.5494 6.90912 10.5494 5.50983C10.5494 3.09796 8.58722 1.13574 6.17536 1.13574C3.76349 1.13574 1.80127 3.09796 1.80127 5.50983C1.80127 6.92205 2.4767 8.17642 3.51841 8.97671C1.44658 10.0182 0 12.2276 0 14.7424V23.9992C0 25.3389 1.01469 26.4462 2.31576 26.5925V34.9674C2.31576 37.0103 3.84609 38.7558 5.79924 38.9417C5.92217 38.9532 6.0451 38.959 6.16744 38.959C7.12713 38.959 8.05961 38.6036 8.77113 37.9565C9.57431 37.2265 10.035 36.1853 10.035 35.1002V26.5925C11.336 26.4462 12.3507 25.3389 12.3507 23.9992ZM6.17536 2.67958C7.73579 2.67958 9.0056 3.94939 9.0056 5.50983C9.0056 7.07065 7.73579 8.34045 6.17536 8.34045C4.61492 8.34045 3.34511 7.07065 3.34511 5.50983C3.34511 3.94939 4.61492 2.67958 6.17536 2.67958ZM10.8069 23.9992C10.8069 24.5869 10.3287 25.0653 9.74085 25.0653H9.26303C8.83674 25.0653 8.49112 25.4109 8.49112 25.8372V35.1002C8.49112 35.7511 8.21477 36.376 7.7327 36.8144C7.24427 37.2581 6.60802 37.4694 5.94532 37.4048C4.77587 37.2934 3.8596 36.223 3.8596 34.9674V25.8372C3.8596 25.4109 3.51397 25.0653 3.08768 25.0653H2.60967C2.02204 25.0653 1.54384 24.587 1.54384 23.9992V14.7424C1.54384 12.1391 3.55739 9.96071 6.03217 9.88622C6.07829 9.88468 6.12383 9.88429 6.16976 9.8841C6.17169 9.8841 6.17362 9.88449 6.17536 9.88449C6.17632 9.88449 6.17729 9.88429 6.17825 9.88429C7.38939 9.88507 8.52913 10.3459 9.40063 11.1919C10.3074 12.0719 10.8069 13.2524 10.8069 14.5158V23.9992Z" fill="black"/>
<path d="M20.0727 6.53885C20.499 6.53885 20.8446 6.19322 20.8446 5.76693V4.22309C20.8446 3.7968 20.499 3.45117 20.0727 3.45117C19.6464 3.45117 19.3008 3.7968 19.3008 4.22309V5.76693C19.3008 6.19303 19.6464 6.53885 20.0727 6.53885Z" fill="black"/>
<path d="M20.8446 8.85493C20.8446 8.42863 20.499 8.08301 20.0727 8.08301C19.6464 8.08301 19.3008 8.42863 19.3008 8.85493V10.3988C19.3008 10.8251 19.6464 11.1707 20.0727 11.1707C20.499 11.1707 20.8446 10.8251 20.8446 10.3988V8.85493Z" fill="black"/>
<path d="M16.9829 8.0829H18.5267C18.953 8.0829 19.2986 7.73727 19.2986 7.31098C19.2986 6.88469 18.953 6.53906 18.5267 6.53906H16.9829C16.5566 6.53906 16.2109 6.88469 16.2109 7.31098C16.2109 7.73708 16.5566 8.0829 16.9829 8.0829Z" fill="black"/>
<path d="M21.6157 8.0829H23.1595C23.5858 8.0829 23.9314 7.73727 23.9314 7.31098C23.9314 6.88469 23.5858 6.53906 23.1595 6.53906H21.6157C21.1894 6.53906 20.8438 6.88469 20.8438 7.31098C20.8438 7.73708 21.1894 8.0829 21.6157 8.0829Z" fill="black"/>
<path d="M30.6498 33.0104C30.3484 32.7088 29.8597 32.7088 29.5583 33.0104C29.2567 33.3118 29.2567 33.8005 29.5583 34.1019L29.7845 34.3281H14.2135L14.4397 34.1019C14.7413 33.8005 14.7413 33.3118 14.4397 33.0104C14.1382 32.7088 13.6496 32.7088 13.3482 33.0104L11.8043 34.5542C11.5027 34.8557 11.5027 35.3443 11.8043 35.6457L13.3482 37.1896C13.4989 37.3403 13.6963 37.4157 13.8939 37.4157C14.0915 37.4157 14.289 37.3403 14.4397 37.1896C14.7413 36.8881 14.7413 36.3995 14.4397 36.0981L14.2135 35.8719H29.7845L29.5583 36.0981C29.2567 36.3995 29.2567 36.8881 29.5583 37.1896C29.709 37.3403 29.9064 37.4157 30.104 37.4157C30.3017 37.4157 30.4991 37.3403 30.6498 37.1896L32.1936 35.6457C32.4953 35.3443 32.4953 34.8557 32.1936 34.5542L30.6498 33.0104Z" fill="black"/>
<path d="M26.6314 18.8898C28.121 18.8898 29.3331 17.6777 29.3331 16.188C29.3331 14.6984 28.121 13.4863 26.6314 13.4863C25.1418 13.4863 23.9297 14.6984 23.9297 16.188C23.9297 17.6775 25.1418 18.8898 26.6314 18.8898ZM26.6314 15.0302C27.2698 15.0302 27.7893 15.5497 27.7893 16.188C27.7893 16.8264 27.2698 17.3459 26.6314 17.3459C25.993 17.3459 25.4735 16.8264 25.4735 16.188C25.4735 15.5495 25.993 15.0302 26.6314 15.0302Z" fill="black"/>
<path d="M29.3955 1.65056C29.8513 1.65056 30.2207 1.281 30.2207 0.825182C30.2207 0.369363 29.8513 0 29.3955 0C28.9397 0 28.5703 0.369556 28.5703 0.825182C28.5703 1.281 28.9397 1.65056 29.3955 1.65056Z" fill="black"/>
</svg>
