<svg width="27" height="36" viewBox="0 0 27 36" fill="none" xmlns="http://www.w3.org/2000/svg">
<path d="M24.1564 4.26802C23.6311 4.26802 23.1391 4.41178 22.7165 4.66131C22.5578 3.24156 21.3516 2.13401 19.8912 2.13401C19.366 2.13401 18.8739 2.27777 18.4513 2.52731C18.2926 1.10755 17.0864 0 15.626 0C14.1657 0 12.9594 1.10755 12.8008 2.52731C12.3781 2.27777 11.8861 2.13401 11.3609 2.13401C9.79299 2.13401 8.51742 3.41043 8.51742 4.97935V23.0231C7.0347 21.2806 5.22115 19.2884 5.02964 19.0784C4.48746 18.4257 3.69137 18.0517 2.84203 18.0517C1.27493 18.0517 0 19.3286 0 20.8981C0 21.5533 0.229041 22.1935 0.644895 22.7008C2.09136 24.4653 3.36132 26.1981 4.48192 27.7269C7.35807 31.6511 9.62992 34.7508 12.9316 35.9348C13.0109 35.9632 13.0918 35.9767 13.1714 35.9767C13.4631 35.9767 13.7366 35.7957 13.8406 35.5052C13.9731 35.1354 13.7809 34.7281 13.4113 34.5956C10.519 33.5583 8.36075 30.6136 5.62833 26.8855C4.49713 25.3421 3.21502 23.5928 1.7441 21.7985C1.53319 21.5412 1.42173 21.2299 1.42173 20.8981C1.42173 20.2135 1.96475 19.4744 2.84203 19.4744C3.27033 19.4744 3.67161 19.6644 3.94287 19.9957C3.95091 20.0056 3.95922 20.0152 3.96782 20.0246C4.00024 20.0601 7.08787 23.4464 8.54699 25.2912C8.63407 25.5856 8.90598 25.8006 9.22835 25.8006C9.24129 25.8006 9.25387 25.7993 9.26667 25.7987C9.27776 25.7992 9.2887 25.8006 9.29987 25.8006L11.4331 25.7753C11.4516 25.7751 11.47 25.775 11.4883 25.775C14.0054 25.775 16.0775 27.8246 16.1074 30.344C16.1119 30.7339 16.4293 31.0468 16.818 31.0468H16.8266C17.2191 31.0422 17.5336 30.7199 17.529 30.3271C17.51 28.7249 16.8722 27.2225 15.7329 26.0967C14.5946 24.9719 13.0871 24.3524 11.4883 24.3524C11.4638 24.3524 11.4394 24.3525 11.4155 24.3528L9.93922 24.3703V4.97935C9.93922 4.19489 10.577 3.55668 11.3609 3.55668C12.1449 3.55668 12.7827 4.19489 12.7827 4.97935V16.503C12.7827 16.8959 13.101 17.2143 13.4935 17.2143C13.8861 17.2143 14.2044 16.8959 14.2044 16.503V2.84534C14.2044 2.06088 14.8422 1.42267 15.6261 1.42267C16.4101 1.42267 17.0478 2.06088 17.0478 2.84534V16.503C17.0478 16.8959 17.3662 17.2143 17.7587 17.2143C18.1512 17.2143 18.4696 16.8959 18.4696 16.503V4.97935C18.4696 4.19489 19.1074 3.55668 19.8913 3.55668C20.6752 3.55668 21.313 4.19489 21.313 4.97935V16.503C21.313 16.8959 21.6314 17.2143 22.0239 17.2143C22.4164 17.2143 22.7348 16.8959 22.7348 16.503V7.11336C22.7348 6.3289 23.3725 5.69069 24.1565 5.69069C24.9404 5.69069 25.5782 6.3289 25.5782 7.11336V26.106C25.5782 30.0394 23.0558 33.4563 19.3016 34.6084C18.9263 34.7236 18.7153 35.1214 18.8304 35.4971C18.9242 35.8032 19.2056 36 19.5098 36C19.5789 36 19.649 35.9898 19.7185 35.9686C21.7828 35.3351 23.6371 34.03 24.94 32.2936C26.2876 30.4975 27 28.3579 27 26.106V7.11336C26.9999 5.54444 25.7242 4.26802 24.1564 4.26802Z" fill="black"/>
</svg>
