<svg width="20" height="46" viewBox="0 0 20 46" fill="none" xmlns="http://www.w3.org/2000/svg">
<path d="M14.3459 8.71566V5.24792H13.1013V2.20163C13.1015 0.987666 12.1137 0 10.8997 0H8.73926C7.5253 0 6.53773 0.987666 6.53773 2.20163V2.62396H0V4.89928H1.36512V3.98908H6.53773V5.24792H5.29307V8.71575C2.3185 9.05577 0 11.5872 0 14.6514V16.7453V37.8893V43.0078C0 44.635 1.32383 45.9588 2.95106 45.9588H16.6881C18.3153 45.9588 19.639 44.6349 19.639 43.0078V14.6514C19.6391 11.5872 17.3205 9.05559 14.3459 8.71566ZM7.90267 3.98917H7.90276H9.81956V2.62405H7.90276V2.20171C7.90276 1.74051 8.27797 1.36521 8.73917 1.36521H10.8996C11.3609 1.36521 11.7361 1.74051 11.7361 2.20171V5.24801H7.90258V3.98917H7.90267ZM6.65819 6.61304H12.9808V8.67554H6.65819V6.61304ZM18.2741 43.0078H18.274C18.274 43.8822 17.5626 44.5938 16.6881 44.5938H2.95106C2.07658 44.5938 1.36503 43.8824 1.36503 43.0078V37.8893H14.5974V32.8994H13.2324V36.5242H1.36512V33.4602H9.81858V32.0951H1.36512V29.8198H9.81858V28.4547H1.36512V26.1795H9.81858V24.8144H1.36512V22.5392H9.81858V21.1741H1.36512V18.1102H13.2324V31.0788H14.5975V16.7452H1.36512V14.6513C1.36512 12.1089 3.43344 10.0407 5.97572 10.0407H13.6635C16.2058 10.0407 18.274 12.109 18.274 14.6513V43.0078H18.2741Z" fill="black"/>
<path d="M13.6643 11.4062H5.97656V12.7714H13.6643C14.7012 12.7714 15.5446 13.615 15.5446 14.6517H16.9097C16.9098 12.8622 15.454 11.4062 13.6643 11.4062Z" fill="black"/>
</svg>
