<svg width="44" height="29" viewBox="0 0 44 29" fill="none" xmlns="http://www.w3.org/2000/svg">
<path d="M43.4697 5.58218L43.3244 5.30857C42.7169 4.16365 41.6832 3.40143 40.4886 3.2174C39.6033 3.08097 38.7238 3.27713 37.973 3.7608C37.8183 3.50324 37.5967 3.29943 37.3291 3.18092C36.2385 2.69809 35.1205 2.26313 34.0059 1.88809C33.6698 1.77489 33.3132 1.98271 33.2101 2.35225C33.107 2.72189 33.2962 3.11326 33.6326 3.22646C34.7126 3.59002 35.796 4.01145 36.8529 4.47925C36.888 4.49484 36.9158 4.52787 36.9272 4.56772C37.0817 5.11092 37.2231 5.6503 37.354 6.18641C27.6421 4.22748 17.318 4.25547 6.63368 6.27077C6.78574 5.70778 6.95291 5.14592 7.13555 4.58722C7.14803 4.54905 7.177 4.5177 7.2131 4.50342C11.3354 2.87008 15.4247 1.86905 19.3672 1.52788C23.3013 1.18764 27.2025 1.49485 30.9618 2.44137C31.3049 2.52741 31.6467 2.29225 31.7252 1.91552C31.8037 1.53871 31.5894 1.16329 31.2465 1.07697C23.4803 -0.878417 15.2488 -0.168733 6.78064 3.1867C6.48817 3.3026 6.24404 3.51826 6.07933 3.79775C5.31727 3.28842 4.41778 3.07789 3.51149 3.2175C2.31689 3.40161 1.28326 4.16384 0.675644 5.30866L0.530386 5.58236C-0.0881925 6.74809 -0.170845 8.18547 0.309525 9.42716C0.309525 9.42716 5.3995 22.5824 5.40621 22.5969C5.56761 23.1881 5.74566 23.7781 5.94146 24.3663C6.07848 24.7776 6.3701 25.1064 6.74165 25.2683C11.8153 27.4791 16.9631 28.6001 22.0425 28.6H22.0463C27.1269 28.5994 32.2761 27.4774 37.351 25.2649C37.7143 25.1065 38.0028 24.7868 38.1423 24.388C38.4385 23.5413 38.6914 22.6785 38.9044 21.8013L43.6903 9.42725C44.1709 8.18538 44.0882 6.74809 43.4697 5.58218ZM37.8259 20.7738C29.3338 22.5842 21.0735 22.9405 12.5848 21.8612C12.2354 21.8165 11.9191 22.0921 11.8786 22.476C11.8381 22.8599 12.0887 23.2072 12.4382 23.2518C15.6737 23.6632 18.8747 23.8693 22.0693 23.8693C27.1851 23.8693 32.2819 23.337 37.4578 22.274C37.3068 22.8178 37.1386 23.3552 36.953 23.8858C36.941 23.9202 36.9141 23.9494 36.8811 23.9638C31.9564 26.1108 26.9653 27.1997 22.0463 27.2002C22.0448 27.2002 22.0441 27.2002 22.0426 27.2002C17.125 27.2001 12.1347 26.1124 7.21157 23.9671C7.17776 23.9525 7.15033 23.9219 7.13826 23.8856C6.96209 23.3563 6.80188 22.8255 6.65492 22.2937C7.66977 22.5006 8.6904 22.6904 9.7027 22.8557C9.73447 22.8609 9.76607 22.8635 9.79725 22.8635C10.1076 22.8635 10.3795 22.6138 10.4265 22.2665C10.4783 21.8841 10.2381 21.5281 9.89018 21.4713C8.69066 21.2754 7.47856 21.0464 6.27963 20.7925C5.88633 19.0372 5.65179 17.2729 5.57619 15.5091H24.6515C25.0035 15.5091 25.2886 15.1958 25.2886 14.8092C25.2886 14.4226 25.0035 14.1093 24.6515 14.1093H5.54935C5.55266 13.4522 5.5761 12.7954 5.62384 12.1397C5.65188 11.7544 5.39033 11.4171 5.03958 11.3862C4.68774 11.3565 4.38176 11.6429 4.35364 12.028C4.25094 13.4378 4.2461 14.8514 4.33827 16.264L1.48229 8.87985C1.15839 8.0426 1.21412 7.07349 1.63129 6.28757L1.77655 6.01377C2.18616 5.24194 2.88306 4.72794 3.6886 4.60383C4.38108 4.49754 5.06719 4.6922 5.61917 5.14069C5.24515 6.41457 4.94512 7.69891 4.72698 8.97186C4.66183 9.35167 4.88931 9.71757 5.23513 9.78914C5.27497 9.79745 5.31464 9.80136 5.35371 9.80136C5.654 9.80136 5.92149 9.56695 5.979 9.23091C6.06276 8.74239 6.16036 8.25191 6.26875 7.76087C17.22 5.62324 27.7867 5.59552 37.6902 7.67847C38.145 9.88768 38.3957 12.0334 38.4402 14.1096H27.5963C27.2443 14.1096 26.9592 14.4228 26.9592 14.8095C26.9592 15.1961 27.2443 15.5093 27.5963 15.5093H38.4381C38.3952 17.321 38.1911 19.0773 37.8259 20.7738ZM42.5178 8.87976L39.6913 16.1878C39.8456 12.6841 39.4172 8.98586 38.4069 5.12072C38.9544 4.68651 39.6298 4.49866 40.3115 4.60364C41.117 4.72776 41.814 5.24175 42.2236 6.01359L42.3688 6.28729C42.786 7.07331 42.8417 8.04251 42.5178 8.87976Z" fill="black"/>
</svg>
