<svg width="38" height="42" viewBox="0 0 38 42" fill="none" xmlns="http://www.w3.org/2000/svg">
<path fill-rule="evenodd" clip-rule="evenodd" d="M18.2472 0.087164C17.3636 0.294855 16.3953 1.08694 16.0188 1.9104C15.8159 2.35403 15.6576 3.20163 15.6547 3.85993L15.6531 4.23384L14.6416 4.48982C8.30824 6.09271 2.83623 11.2823 0.805776 17.6114C-0.332109 21.1583 -0.261878 25.3462 0.99768 29.0603L1.28656 29.9123L1.13707 30.2085C0.59894 31.2748 0.354773 32.5863 0.4136 34.0949C0.494496 36.1706 1.21822 37.8521 2.68067 39.3621C4.39337 41.1305 6.79352 42.018 9.2456 41.7896C10.1631 41.7042 11.0574 41.4724 11.8195 41.1225L12.3754 40.8673L13.2143 41.1284C14.2194 41.4413 15.5858 41.7505 16.5966 41.8938C17.7162 42.0525 20.5765 42.0291 21.7244 41.8518C24.3034 41.4535 26.6127 40.6311 28.7803 39.3392C30.2748 38.4485 30.5969 38.1002 30.4206 37.5656C30.3067 37.2202 30.0976 37.0372 29.7545 36.9827C29.5143 36.9446 29.3584 37.0167 28.5752 37.5278C25.2512 39.6975 21.2071 40.7029 17.3642 40.315C16.4774 40.2255 14.6867 39.8912 14.2945 39.742L14.0671 39.6554L14.3542 39.3506C14.5122 39.1829 14.7755 38.8771 14.9394 38.6711L15.2374 38.2963L15.958 38.4447C19.6506 39.2051 23.7688 38.4934 27.0501 36.5276C32.5615 33.226 35.5463 26.8984 34.5594 20.6089C33.655 14.8449 29.6263 10.0214 24.1327 8.12536C20.9424 7.02425 17.3485 6.99813 14.1398 8.05268C6.59718 10.5315 2.07723 18.2362 3.59006 26.0356C3.6813 26.5062 3.75604 26.9284 3.75604 26.9735C3.75612 27.0187 3.46027 27.306 3.09869 27.612C2.32812 28.2641 2.41575 28.3306 2.0865 26.8432C1.2238 22.9458 1.61901 19.2494 3.25729 15.8928C5.87223 10.5353 11.0144 6.61691 16.5205 5.78623C17.6232 5.61985 20.2036 5.62264 21.4131 5.79148C28.6961 6.80834 34.589 12.3578 36.038 19.5644C36.8775 23.7392 36.2091 27.8057 34.0276 31.7956C33.8306 32.1558 33.7834 32.3226 33.825 32.5119C33.9009 32.858 34.3011 33.1739 34.6637 33.1739C35.086 33.1739 35.3677 32.8294 36.0119 31.5256C37.3941 28.7282 37.9969 26.1524 38 23.0316C38.0022 20.7296 37.756 19.1695 37.0501 17.0132C34.9941 10.7325 29.6503 5.88519 23.1807 4.43242L22.3808 4.25281L22.3792 3.8284C22.3783 3.595 22.3442 3.1733 22.3034 2.89136C22.0223 0.945522 20.138 -0.357126 18.2472 0.087164ZM19.9559 1.94563C20.4149 2.26813 20.6423 2.71562 20.7083 3.42591L20.7626 4.01096L19.0694 3.99593L17.376 3.98082V3.42221C17.376 2.57001 17.7872 1.94563 18.4988 1.71708C18.9157 1.58313 19.5908 1.68907 19.9559 1.94563ZM18.2785 14.7988V20.6502L17.9036 20.8494C16.4812 21.6047 16.1898 23.6014 17.3365 24.7342C18.5385 25.9219 20.5015 25.5972 21.2439 24.0879C21.4682 23.6317 21.5114 23.4528 21.5073 22.9973C21.499 22.0877 20.997 21.2444 20.2271 20.8467L19.9194 20.6877V14.8062V8.92467L20.4732 8.9806C23.1234 9.24824 25.7975 10.3733 27.9786 12.1383L28.4485 12.5186L27.9983 12.974C27.3659 13.6136 27.2728 14.068 27.6888 14.4844C27.8505 14.6462 27.9833 14.696 28.2535 14.696C28.5698 14.696 28.6602 14.6466 29.1147 14.2254L29.6226 13.7547L29.9417 14.1227C30.8674 15.1906 31.85 16.99 32.3821 18.5916C32.7196 19.6073 33.0467 21.2267 33.0467 21.8813V22.234L32.3828 22.2642C31.7536 22.2928 31.7063 22.3084 31.4803 22.5616C31.154 22.9271 31.1544 23.3264 31.4815 23.6538C31.7076 23.8802 31.7598 23.8939 32.3953 23.8939H33.0693L33.0122 24.5303C32.7831 27.0865 31.6062 29.8447 29.7934 32.0737L29.5349 32.3917L29.0845 31.9653C28.5756 31.4837 28.3145 31.3844 27.9519 31.5347C27.6273 31.6693 27.4512 31.9452 27.4512 32.3193C27.4512 32.5695 27.521 32.689 27.8792 33.0521C28.1146 33.2906 28.2936 33.5225 28.2771 33.5672C28.2276 33.7009 27.3844 34.3566 26.6233 34.8532C24.8495 36.0106 22.5219 36.8352 20.5553 37.0031L19.9194 37.0573V36.5501C19.9194 35.9749 19.7652 35.5284 19.5215 35.3978C19.2026 35.227 18.738 35.2897 18.5028 35.5354C18.3113 35.7355 18.2833 35.8382 18.2618 36.4183L18.2375 37.0747L17.9504 37.0522C17.3444 37.0047 16.2402 36.846 16.1568 36.7944C16.0977 36.7578 16.1221 36.5715 16.2325 36.2165C17.564 31.934 15.3763 27.5122 11.1816 26.0077C9.54925 25.4222 7.72719 25.4007 6.02803 25.9469C5.52272 26.1093 5.29455 26.1506 5.27059 26.0837C5.20496 25.9003 4.98787 24.4257 4.98754 24.1608L4.98721 23.8939H5.69091C6.35925 23.8939 6.40667 23.8818 6.63443 23.6538C7.05483 23.233 6.91035 22.5302 6.36434 22.3397C6.22519 22.2911 5.85295 22.2514 5.53716 22.2514H4.96301L5.01683 21.5739C5.13112 20.1361 5.66203 18.2649 6.36196 16.833C6.78654 15.9644 7.665 14.6065 8.16933 14.039L8.49784 13.6695L9.03269 14.1827C9.50027 14.6315 9.60742 14.696 9.88457 14.696C10.2859 14.696 10.5281 14.527 10.648 14.1633C10.7785 13.7674 10.6985 13.5844 10.141 13.0033L9.65698 12.4986L10.0501 12.152C10.9471 11.3609 12.7646 10.2981 14.0465 9.81514C15.2019 9.3798 17.0362 8.96877 17.8888 8.95407L18.2785 8.94734V14.7988ZM19.4377 22.2979C19.7277 22.448 19.923 22.853 19.8612 23.1762C19.7997 23.4985 19.3975 23.8118 19.0453 23.8118C18.2579 23.8118 17.9762 22.6743 18.6703 22.2973C18.96 22.14 19.1328 22.14 19.4377 22.2979ZM10.074 27.3853C10.8068 27.561 11.9811 28.152 12.5949 28.654C13.6005 29.4767 14.3974 30.7012 14.7644 31.9878C15.0073 32.8396 15.0259 34.4905 14.8016 35.3043C14.2947 37.1441 13.0664 38.6542 11.3958 39.4916C10.6112 39.8849 10.0133 40.0584 9.1515 40.1431C6.08136 40.4451 3.31759 38.6405 2.31409 35.6786C1.99322 34.7314 1.93718 33.1807 2.18807 32.1877C2.72145 30.0766 4.2136 28.3728 6.18761 27.6212C7.36997 27.1711 8.81454 27.0834 10.074 27.3853ZM10.1758 30.1818C9.68717 30.4256 9.30287 30.8314 9.05714 31.363C8.89839 31.7063 8.88436 31.8803 8.88436 33.5024C8.88436 35.0027 8.90577 35.3154 9.02679 35.5832C9.2799 36.1435 9.64688 36.5223 10.2009 36.7953C10.6832 37.033 10.78 37.0521 11.3244 37.0164C12.0411 36.9696 12.4544 36.7774 12.916 36.2762C13.4889 35.6541 13.5326 35.438 13.504 33.3759C13.4755 31.3292 13.4423 31.1961 12.8045 30.5744C12.1566 29.9428 11.001 29.7702 10.1758 30.1818ZM5.70223 30.3445C4.96292 30.8474 4.04041 32.2774 3.66513 33.5024C3.40973 34.336 3.4021 35.283 3.64643 35.8141C3.87213 36.3048 4.40789 36.8394 4.89294 37.0578C5.41204 37.2916 6.2818 37.2932 6.79639 37.0614C7.89145 36.568 8.5003 35.3166 8.19493 34.187C7.97989 33.3919 7.1217 32.5849 6.36147 32.4631C6.19229 32.436 6.0538 32.3939 6.0538 32.3696C6.0538 32.3454 6.27532 32.0946 6.54607 31.8123C6.98682 31.3529 7.03834 31.2634 7.03834 30.9573C7.03834 30.6889 6.98682 30.5638 6.79852 30.3753C6.49175 30.0683 6.12362 30.0579 5.70223 30.3445ZM11.6892 31.7921C11.8742 31.9662 11.879 32.0085 11.879 33.4794C11.879 34.9717 11.8768 34.9903 11.6776 35.1896C11.4013 35.4661 10.9894 35.4618 10.7241 35.1795C10.5347 34.9779 10.524 34.9091 10.4986 33.7265C10.4679 32.2996 10.5059 32.0047 10.7497 31.7774C10.9885 31.5546 11.4442 31.5618 11.6892 31.7921ZM6.3883 34.3173C6.80287 34.7323 6.65396 35.3708 6.09991 35.5537C5.56948 35.729 5.01437 35.2739 5.1001 34.7342C5.20135 34.097 5.93196 33.8605 6.3883 34.3173ZM32.1442 34.5428C31.6828 34.7231 31.4647 35.278 31.6865 35.7073C31.8477 36.0194 32.0433 36.1303 32.4322 36.1303C32.8443 36.1303 33.2108 35.7666 33.2108 35.3578C33.2108 34.8452 32.588 34.3694 32.1442 34.5428Z" fill="black"/>
</svg>
