<svg width="54" height="54" viewBox="0 0 54 54" fill="none" xmlns="http://www.w3.org/2000/svg">
<g clip-path="url(#clip0_312_19972)">
<path d="M45.9844 8.60844C37.2276 8.60844 28.1527 0.491458 28.0628 0.410142C27.4596 -0.136714 26.5403 -0.136714 25.9372 0.410142C25.8468 0.492091 16.7957 8.60844 8.01562 8.60844C7.14192 8.60844 6.43359 9.31677 6.43359 10.1905V29.1367C6.43359 44.4849 17.8491 50.6179 26.4357 53.896C26.6175 53.9654 26.8087 54 27 54C27.1913 54 27.3825 53.9653 27.5643 53.896C39.6039 49.2997 47.5664 42.13 47.5664 29.1367V10.1905C47.5664 9.31677 46.8581 8.60844 45.9844 8.60844Z" fill="white"/>
<path d="M27 15.9258C20.8937 15.9258 15.9258 20.8937 15.9258 27C15.9258 33.1063 20.8937 38.0742 27 38.0742C33.1063 38.0742 38.0742 33.1063 38.0742 27C38.0742 20.8937 33.1063 15.9258 27 15.9258ZM31.2827 26.5366L26.5366 31.2827C26.2278 31.5916 25.8229 31.7461 25.418 31.7461C25.0131 31.7461 24.6082 31.5917 24.2994 31.2827L22.7173 29.7006C22.0995 29.0828 22.0995 28.0812 22.7173 27.4633C23.3351 26.8455 24.3368 26.8455 24.9546 27.4633L25.4181 27.9266L29.0456 24.2993C29.6633 23.6814 30.665 23.6814 31.2829 24.2993C31.9006 24.9171 31.9006 25.9187 31.2827 26.5366Z" fill="#13AB7B"/>
</g>
<defs>
<clipPath id="clip0_312_19972">
<rect width="54" height="54" fill="white"/>
</clipPath>
</defs>
</svg>
