<svg width="14" height="23" viewBox="0 0 14 23" fill="none" xmlns="http://www.w3.org/2000/svg">
<path d="M7.09598 0.1875C3.87161 0.1875 1.25781 2.80139 1.25781 6.02567C1.25781 9.25005 3.87161 11.8641 7.09598 11.8641C10.3204 11.8641 12.9342 9.25005 12.9342 6.02567C12.9342 2.80139 10.3204 0.1875 7.09598 0.1875ZM7.09598 8.43921C5.76314 8.43921 4.68261 7.3586 4.68261 6.02576C4.68261 4.69291 5.76314 3.61239 7.09598 3.61239C8.42882 3.61239 9.50935 4.69291 9.50935 6.02576C9.50935 7.3586 8.42882 8.43921 7.09598 8.43921Z" fill="black"/>
<path d="M9.15617 16.5094C11.4934 16.0332 12.894 14.9264 12.9681 14.867C13.6521 14.3185 13.7619 13.3194 13.2134 12.6354C12.665 11.9515 11.666 11.8416 10.9819 12.39C10.9675 12.4017 9.47365 13.5477 7.01575 13.5493C4.55793 13.5477 3.03251 12.4017 3.01806 12.39C2.33397 11.8416 1.33498 11.9515 0.786572 12.6354C0.238079 13.3194 0.347945 14.3185 1.03187 14.867C1.10698 14.9272 2.56539 16.0629 4.96815 16.5278L1.61946 20.0275C1.0109 20.6586 1.0292 21.6635 1.66032 22.2721C1.96836 22.5691 2.36538 22.7167 2.76207 22.7167C3.17797 22.7167 3.59345 22.5542 3.90492 22.2312L7.01583 18.9172L10.441 22.2526C11.0616 22.8722 12.0665 22.8712 12.6859 22.2509C13.3053 21.6304 13.3046 20.6254 12.6841 20.0059L9.15617 16.5094Z" fill="black"/>
<path d="M7.01993 13.5488C7.00512 13.5488 7.03443 13.5491 7.01993 13.5495C7.00544 13.5491 7.03475 13.5488 7.01993 13.5488Z" fill="black"/>
</svg>
