<svg width="85" height="85" viewBox="0 0 85 85" fill="none" xmlns="http://www.w3.org/2000/svg">
<circle cx="42.5" cy="42.5" r="42.5" fill="#13AB7B"/>
<g clip-path="url(#clip0_628_6084)">
<path d="M46.17 40.0446C50.5879 40.0446 55.0043 40.0431 59.4223 40.0446C60.6919 40.0446 61.6457 40.7639 61.9265 41.9151C62.2958 43.4229 61.2184 44.8477 59.6329 44.9491C59.5321 44.9552 59.4299 44.9537 59.3277 44.9537C50.5436 44.9537 41.7596 44.9537 32.9741 44.9537C31.7487 44.9537 30.8132 44.3435 30.4668 43.3291C29.9113 41.6999 31.0421 40.0615 32.7635 40.0492C35.5821 40.0308 38.3993 40.0431 41.2179 40.0431C42.8676 40.0431 44.5188 40.0431 46.1684 40.0431L46.17 40.0446Z" fill="white"/>
<path d="M44.9494 29.0043C48.9736 29.0043 52.9979 29.0028 57.0221 29.0043C58.2109 29.0043 59.1372 29.6806 59.4607 30.7642C59.9109 32.2735 58.832 33.7981 57.2342 33.9057C57.1335 33.9119 57.0312 33.9119 56.929 33.9119C48.9309 33.9119 40.9344 33.9119 32.9363 33.9119C31.7414 33.9119 30.812 33.2971 30.4671 32.2919C29.9101 30.6658 31.0455 29.0243 32.7623 29.0089C34.7813 28.992 36.7987 29.0043 38.8177 29.0043C40.8611 29.0043 42.906 29.0043 44.9494 29.0043Z" fill="white"/>
<path d="M40.6798 51.0879C43.3198 51.0879 45.9599 51.0771 48.6 51.0925C50.0406 51.1002 51.1195 52.2836 51.028 53.71C50.944 55.0256 49.8636 55.9924 48.4459 55.9954C45.2351 56.0016 42.0227 55.997 38.8119 55.997C36.8448 55.997 34.8762 56.0016 32.9091 55.9954C31.5707 55.9908 30.562 55.1655 30.3651 53.9328C30.1255 52.445 31.2151 51.1094 32.7214 51.0956C34.9296 51.074 37.1393 51.0894 39.3475 51.0879C39.7916 51.0879 40.2357 51.0879 40.6798 51.0879Z" fill="white"/>
<path d="M27.8776 31.5252C27.8974 32.824 26.7788 33.863 25.3779 33.9229C24.3966 33.9644 23.0171 32.99 23.0003 31.7004C22.9804 30.1773 24.0121 29.0338 25.416 29.0092C26.7742 28.9846 27.8547 30.0897 27.876 31.5252H27.8776Z" fill="white"/>
<path d="M27.8782 53.569C28.0125 54.6341 26.8634 56.0143 25.6334 55.9989C24.147 55.982 23.0147 54.9384 23.004 53.5444C22.9933 52.2165 24.1317 51.0868 25.464 51.0899C26.871 51.0929 28.0201 52.4378 27.8782 53.569Z" fill="white"/>
<path d="M27.8781 42.4942C28.0155 43.7023 26.7534 44.9795 25.6394 44.9611C24.1378 44.9365 23.0009 43.8898 23.0039 42.4865C23.0085 41.174 24.1256 40.0581 25.4365 40.0489C26.8816 40.0381 27.9911 41.3953 27.8781 42.4927V42.4942Z" fill="white"/>
</g>
<defs>
<clipPath id="clip0_628_6084">
<rect width="39" height="27" fill="white" transform="translate(23 29)"/>
</clipPath>
</defs>
</svg>
