<svg width="24" height="14" viewBox="0 0 24 14" fill="none" xmlns="http://www.w3.org/2000/svg">
<path fill-rule="evenodd" clip-rule="evenodd" d="M11.7187 13.2461H13.0663C13.0663 13.2461 13.4733 13.2012 13.6814 12.9773C13.8726 12.7715 13.8665 12.3854 13.8665 12.3854C13.8665 12.3854 13.8402 10.5771 14.6793 10.3108C15.5068 10.0484 16.5691 12.0584 17.6951 12.8314C18.5466 13.4161 19.1936 13.2881 19.1936 13.2881L22.2046 13.2461C22.2046 13.2461 23.7796 13.1489 23.0327 11.9105C22.9716 11.8094 22.5977 10.9945 20.7939 9.32025C18.9058 7.5679 19.1589 7.85141 21.4331 4.82028C22.8181 2.97432 23.3717 1.84742 23.1987 1.36479C23.0339 0.904951 22.0151 1.02642 22.0151 1.02642L18.6251 1.04738C18.6251 1.04738 18.3736 1.01316 18.1873 1.12463C18.0051 1.23364 17.8882 1.48833 17.8882 1.48833C17.8882 1.48833 17.3514 2.91668 16.6361 4.13163C15.1265 6.6949 14.5228 6.83058 14.276 6.67116C13.7019 6.30016 13.8454 5.18104 13.8454 4.38576C13.8454 1.90157 14.2222 0.865811 13.1117 0.597702C12.7432 0.508782 12.4718 0.449952 11.5293 0.440346C10.3196 0.42804 9.29597 0.444077 8.71624 0.728065C8.33055 0.91694 8.03299 1.33772 8.21432 1.36194C8.43845 1.39179 8.94577 1.49889 9.21475 1.86489C9.56225 2.33767 9.55011 3.39899 9.55011 3.39899C9.55011 3.39899 9.74978 6.32326 9.08391 6.6864C8.62701 6.93553 8.00012 6.42695 6.65426 4.10138C5.96481 2.91017 5.44408 1.59329 5.44408 1.59329C5.44408 1.59329 5.3438 1.34725 5.16469 1.21554C4.94748 1.05596 4.64396 1.00538 4.64396 1.00538L1.42237 1.02642C1.42237 1.02642 0.938863 1.03992 0.761182 1.25023C0.603112 1.43744 0.74856 1.82416 0.74856 1.82416C0.74856 1.82416 3.27055 7.72478 6.12646 10.6983C8.74538 13.425 11.7187 13.2461 11.7187 13.2461Z" fill="black"/>
</svg>
