<svg width="88" height="88" viewBox="0 0 88 88" fill="none" xmlns="http://www.w3.org/2000/svg">
<circle cx="44" cy="44" r="44" fill="#D2DF3F"/>
<path d="M69.3578 21.858C74.3292 16.8933 79.2981 11.9286 84.2308 7C85.1966 7.96299 86.0902 8.85628 86.9967 9.75989C82.0795 14.6652 77.1106 19.6196 72.1289 24.5895C78.2625 31.9474 80.5687 40.2658 78.7867 49.573C77.3844 56.8949 73.5312 62.8019 67.5578 67.258C55.5644 76.2089 38.5608 74.5153 28.556 63.4319C18.4427 52.2297 18.4995 35.2831 28.618 24.197C38.8397 12.9974 56.8737 11.0972 69.3578 21.858ZM58.5782 32.7349C57.4729 31.2349 56.6955 29.6213 56.2797 27.8502C56.1919 27.4784 56.0266 27.3184 55.6858 27.2048C52.7855 26.2469 49.8285 26.0197 46.8431 26.6265C37.4451 28.5395 31.451 37.1368 32.8637 46.6144C34.093 54.8527 41.3319 61.2374 49.6839 61.3639C55.3552 61.4517 60.1303 59.3656 63.7201 54.9715C67.736 50.0558 68.7277 44.4715 66.8527 38.3992C66.7856 38.1824 66.61 37.8726 66.4344 37.8338C64.5697 37.4078 62.8833 36.5998 61.2641 35.4405C59.3814 37.3278 57.5168 39.197 55.6961 41.0197C54.7948 40.1213 53.9038 39.228 52.9792 38.3063C54.818 36.4758 56.6904 34.6144 58.5782 32.7349ZM66.5222 24.6514C57.5994 16.7125 42.4217 15.9742 32.3343 25.9707C22.3269 35.8898 22.4095 52.1987 32.4634 61.8751C42.8711 71.8923 58.9165 71.5282 68.7612 60.9508C78.2134 50.7968 77.0538 35.9956 69.4095 27.5456C67.674 29.265 65.9359 30.9844 64.2004 32.7039C65.3703 33.5662 66.7804 34.0309 68.9937 34.3201C69.1977 34.3459 69.4714 34.5189 69.5567 34.697C71.5633 39.0163 72.1728 43.5266 71.1682 48.1892C68.6295 59.9646 57.4212 67.209 45.6215 64.7511C33.9742 62.3243 26.5158 50.4741 29.3411 38.8898C32.5693 25.6583 46.7966 18.7908 59.2574 24.4397C59.5957 24.592 59.7275 24.7702 59.761 25.1445C59.9211 26.8433 60.3498 28.4569 61.3209 29.8459C63.0667 28.1032 64.7944 26.3786 66.5222 24.654V24.6514Z" fill="black"/>
<path d="M53.729 48.0343C53.7368 52.2916 50.2374 55.7951 45.9788 55.7925C41.7227 55.7873 38.2053 52.2658 38.2285 48.0292C38.2492 43.7873 41.6995 40.3433 45.9555 40.3123C50.2116 40.2839 53.7213 43.7693 53.729 48.0343ZM46.0614 44.2004C43.9153 44.1565 42.1927 45.8011 42.1282 47.9543C42.0636 50.1049 43.7681 51.8656 45.94 51.8992C48.0732 51.9328 49.801 50.2495 49.8371 48.1066C49.8733 45.9638 48.2101 44.2443 46.0614 44.2004Z" fill="black"/>
</svg>
