<svg width="57" height="38" viewBox="0 0 57 38" fill="none" xmlns="http://www.w3.org/2000/svg">
<path d="M0 4.7111C0 2.10923 2.0969 0 4.68355 0H51.519C54.1057 0 56.2026 2.10923 56.2026 4.7111V32.9777C56.2026 35.5796 54.1057 37.6888 51.519 37.6888H4.68355C2.09689 37.6888 0 35.5796 0 32.9777V4.7111Z" fill="#D8E3F3"/>
<path d="M48.369 11.8193H45.4247C44.5346 11.8193 43.8498 12.0948 43.439 12.9902L37.8242 25.87H41.7956C41.7956 25.87 42.4804 24.1481 42.6173 23.7348C43.0282 23.7348 46.9311 23.7348 47.4789 23.7348C47.6158 24.217 47.9582 25.8011 47.9582 25.8011H51.5188L48.369 11.8193ZM43.7129 20.8421C44.0553 20.0155 45.2193 16.9161 45.2193 16.9161C45.2193 16.985 45.5617 16.0896 45.6986 15.6075L45.9725 16.8473C45.9725 16.8473 46.7257 20.2222 46.8626 20.9109H43.7129V20.8421Z" fill="#3362AB"/>
<path d="M38.0981 21.2549C38.0981 24.1477 35.4962 26.0762 31.4563 26.0762C29.7444 26.0762 28.1011 25.7318 27.2109 25.3186L27.7587 22.1503L28.238 22.3569C29.4705 22.9079 30.2922 23.1145 31.7986 23.1145C32.8942 23.1145 34.0582 22.7013 34.0582 21.737C34.0582 21.1172 33.5789 20.7039 32.0725 20.0151C30.6346 19.3264 28.7173 18.2244 28.7173 16.227C28.7173 13.4719 31.3878 11.6123 35.1538 11.6123C36.5917 11.6123 37.8242 11.8878 38.5774 12.2322L38.0297 15.2627L37.7558 14.9872C37.071 14.7117 36.1809 14.4362 34.8799 14.4362C33.442 14.5051 32.7572 15.125 32.7572 15.676C32.7572 16.2959 33.5789 16.778 34.8799 17.3979C37.071 18.431 38.0981 19.6019 38.0981 21.2549Z" fill="#3362AB"/>
<path d="M4.68359 11.9571L4.75207 11.6816H10.6407C11.4624 11.6816 12.0787 11.9571 12.2841 12.8525L13.5851 19.0513C12.2841 15.7453 9.27128 13.0592 4.68359 11.9571Z" fill="#F9B50B"/>
<path d="M21.8699 11.8189L15.9128 25.8006H11.8729L8.44922 14.0918C10.9142 15.6759 12.9684 18.1554 13.7216 19.8773L14.1325 21.3237L17.83 11.75H21.8699V11.8189Z" fill="#3362AB"/>
<path d="M23.4454 11.75H27.2114L24.8148 25.8006H21.0488L23.4454 11.75Z" fill="#3362AB"/>
</svg>
