<svg width="99" height="94" viewBox="0 0 99 94" fill="none" xmlns="http://www.w3.org/2000/svg">
<circle cx="44" cy="50" r="44" fill="#D2DF3F"/>
<g clip-path="url(#clip0_22_759)">
<path d="M70.9236 25.0085C73.4124 24.773 75.8541 24.5525 78.2932 24.2938C78.4478 24.2781 78.6714 23.9808 78.6914 23.7976C78.9737 21.218 79.228 18.6347 79.4884 16.0499C79.5776 15.1658 79.6332 14.2766 79.7471 13.3983C79.9066 12.1663 80.9367 11.3388 82.0922 11.4691C83.2903 11.6036 84.0827 12.6606 83.9545 13.9317C83.3095 20.3068 82.6755 26.6845 82.0277 33.0589C81.3871 39.3656 80.7273 45.6678 80.0847 51.9712C79.5793 56.9274 79.0938 61.8854 78.5802 66.8397C78.5394 67.235 78.6904 67.3573 79.0136 67.4999C82.5972 69.0693 84.6901 73.0292 83.9286 76.7569C83.1037 80.779 79.783 83.563 75.7314 83.6244C71.4703 83.6885 67.794 80.5414 67.2376 76.3503C66.663 72.0392 69.3415 68.0775 73.5728 67.0434C74.1541 66.9026 74.3731 66.6621 74.4224 66.0953C74.5745 64.3034 74.7642 62.5118 74.9472 60.6376C73.5815 60.3161 72.228 60.0409 70.8965 59.6725C69.3361 59.2416 68.8406 57.3175 69.9773 56.197C70.6004 55.5831 71.3585 55.455 72.1932 55.6544C73.2402 55.9009 74.2872 56.1473 75.3837 56.4054C76.0403 49.9318 76.6886 43.5431 77.3415 37.0975C74.4841 37.359 71.7156 37.6125 68.9443 37.8653C68.0814 37.9456 67.214 37.9959 66.3565 38.1151C66.1289 38.1454 65.8113 38.3366 65.7367 38.5302C63.928 43.2693 62.1428 48.0197 60.3218 52.86C61.3661 53.1058 62.3995 53.3115 63.4067 53.6035C63.8846 53.742 64.3837 53.9752 64.754 54.2995C65.4218 54.8876 65.5391 55.9418 65.1337 56.6908C64.6769 57.5347 63.8351 57.9814 62.9047 57.7942C61.7998 57.5717 60.7058 57.2911 59.608 57.0384C59.3607 56.9802 59.1134 56.922 58.8083 56.8502C58.1076 58.7182 57.4397 60.5333 56.7421 62.3384C56.5844 62.7495 56.8614 62.8668 57.0853 63.0612C59.7048 65.3753 60.7158 68.2391 59.9272 71.6509C58.9801 75.7484 54.9497 78.455 50.6251 77.9634C46.6591 77.5128 43.3737 73.888 43.2817 69.8554C43.1671 64.8718 47.1582 60.9645 52.1689 61.1781C52.5539 61.1935 52.6898 61.0722 52.8197 60.7298C55.5166 53.5479 58.2294 46.3727 60.9366 39.1961C63.6308 32.0628 66.3244 24.9322 69.0213 17.7995C69.8733 15.5478 70.7417 13.2999 71.5888 11.0441C72.0431 9.84107 73.197 9.23932 74.3359 9.63754C75.461 10.0325 76.0279 11.2591 75.5858 12.4592C74.9166 14.2797 74.2095 16.0884 73.521 17.9044C72.7065 20.0464 71.8947 22.189 71.0878 24.3357C71.0166 24.5272 70.9902 24.7379 70.927 25.0064L70.9236 25.0085ZM52.705 65.4801C50.4605 64.9489 48.1606 66.3537 47.626 68.5876C47.0874 70.8264 48.4921 73.1264 50.7272 73.6728C52.9953 74.2269 55.3231 72.8026 55.8503 70.538C56.3718 68.2981 54.9522 66.012 52.705 65.4801ZM79.7367 76.1085C80.2355 73.8662 78.7881 71.5995 76.5302 71.0883C74.2559 70.5732 71.965 72.038 71.473 74.3253C70.9905 76.5599 72.4632 78.8296 74.7201 79.3204C76.9654 79.8113 79.2365 78.3563 79.7367 76.1085ZM78.2006 28.5808C75.2509 28.8524 72.4147 29.1102 69.5786 29.3796C69.4186 29.3939 69.172 29.4805 69.1271 29.5972C68.5881 30.9509 68.0779 32.3172 67.5352 33.7482C71.01 33.4267 74.3747 33.1169 77.7756 32.8012C77.9174 31.3858 78.0551 30.0243 78.1979 28.5802L78.2006 28.5808Z" fill="black"/>
</g>
<path d="M32.6224 61.9534C32.5989 60.7694 32.5083 59.418 32.5581 58.0724C32.6783 54.8282 32.9047 51.5871 33.015 48.3405C33.1758 43.6432 32.5731 39.0117 31.6627 34.4176C30.3675 27.8724 28.3366 21.5508 25.9045 15.3486C25.4687 14.2371 24.9799 13.145 24.5362 12.0364C24.058 10.8415 24.5045 9.66872 25.5881 9.20425C26.6904 8.73301 27.9677 9.2107 28.429 10.4087C29.9317 14.2952 31.5249 18.1576 32.8002 22.121C33.9663 25.7438 34.8814 29.4611 35.7099 33.1801C37.1067 39.4605 37.629 45.8234 37.0463 52.2629C36.5696 57.5191 36.6429 62.7753 37.5835 67.9787C37.8947 69.6959 38.3644 71.3944 38.8779 73.0648C39.3729 74.6761 40.0236 76.2365 40.5911 77.8243C41.0619 79.1388 40.5499 80.3625 39.3792 80.7778C38.2084 81.1932 37.1112 80.6078 36.6255 79.3018C36.2746 78.3571 35.8946 77.423 35.5952 76.4625C34.341 72.4584 32.1999 68.9308 29.7772 65.554C27.5254 62.4145 24.9541 59.5444 22.2205 56.8144C18.4232 53.0224 15.3492 48.6846 12.6789 44.0527C8.45159 36.7199 5.247 28.9448 2.73335 20.8726C2.62089 20.5151 2.54123 20.1486 2.44733 19.7843C2.13645 18.5703 2.74254 17.4561 3.8916 17.1296C4.99725 16.8159 6.15599 17.4957 6.5322 18.6499C7.37511 21.231 8.15004 23.8398 9.10169 26.3811C11.9033 33.8508 15.2866 41.0452 19.9846 47.5351C21.5806 49.7423 23.4254 51.7749 25.2331 53.8209C27.6757 56.5852 30.1878 59.2851 32.6207 61.9571L32.6224 61.9534Z" fill="black"/>
<defs>
<clipPath id="clip0_22_759">
<rect width="64" height="72" fill="white" transform="translate(36.0999 0.625732) rotate(13.2456)"/>
</clipPath>
</defs>
</svg>
