<svg width="54" height="42" viewBox="0 0 54 42" fill="none" xmlns="http://www.w3.org/2000/svg">
<path d="M28.9478 7.47945C33.2947 3.45206 39.4316 2.49315 44.0981 5.24201C50.0432 8.63014 52.1528 17.7078 47.9976 24.8037C43.9703 31.8356 35.2125 34.3288 29.2674 30.8767C28.1167 30.2374 26.7104 29.1507 25.4319 27.2968L24.0255 28.7671C19.6786 32.7945 13.4139 33.5616 8.81121 30.8767C2.80221 27.4886 0.820515 18.6667 4.97568 11.5708C9.13084 4.47489 17.6969 1.72603 23.642 5.17808C24.7926 5.81735 26.3268 6.96804 27.6693 8.82192L28.9478 7.47945ZM49.9793 1.78996L46.2716 5.49772C44.2899 4.09133 41.9247 3.06849 39.3677 2.55708C34.5732 1.59817 29.9706 2.74886 26.5186 5.30594L26.0072 5.6895C23.9616 4.21918 21.2767 3.00457 18.8475 2.55708C9.83402 0.83105 1.5237 6.32877 0.181259 14.895C-1.16118 23.4612 5.10353 31.8356 13.9892 33.6256C14.3088 33.6895 14.6284 33.7534 14.9481 33.7534V37.2694H12.0714V38.3562H14.9481V42H17.8247V38.3562H20.7014V37.2694H17.8247V33.8813C21.021 33.7534 24.0255 32.7945 26.5186 31.0685L27.3496 30.4932C29.651 32.2192 32.208 33.1781 34.5093 33.6256C43.5228 35.3516 51.8331 29.9178 53.1117 21.3516C53.9427 16.1735 51.961 11.1233 48.3172 7.47945L51.8971 3.89954L53.7509 5.75342L52.9838 0.767124L47.9976 0L49.9793 1.78996Z" fill="#BAC1C9"/>
<path d="M9.38672 12.7846C9.45064 13.1043 9.45064 13.6157 9.51457 14.191C9.51457 14.7664 9.5785 15.4696 9.5785 16.1728C9.5785 16.876 9.5785 17.5792 9.5785 18.1545C9.5785 19.1773 9.57849 20.2641 9.51457 21.3508C9.51457 22.4376 9.45064 23.4604 9.38672 24.3554C9.51457 24.3554 9.64242 24.2915 9.8342 24.2915C9.96205 24.2915 10.1538 24.2915 10.2817 24.2915C10.5374 24.2915 10.857 24.2915 11.1127 24.3554C11.0488 23.9718 10.9849 23.5244 10.9849 23.0769C10.9849 22.6294 10.9209 22.1819 10.9209 21.7983V19.0495C11.0488 19.0495 11.2406 19.1134 11.4963 19.1134C11.688 19.1134 11.8798 19.1134 11.9437 19.1134C12.8387 19.1134 13.6697 18.9855 14.3729 18.7938C15.0761 18.602 15.6514 18.2184 16.0989 17.707C16.5464 17.1956 16.7382 16.4924 16.7382 15.6613C16.7382 14.6385 16.4185 13.9353 15.7793 13.4239C15.14 12.9125 14.0533 12.7207 12.6469 12.7207C12.4551 12.7207 12.1355 12.7207 11.8159 12.7207C11.4963 12.7207 11.2406 12.7207 10.9209 12.7207C10.7292 12.7207 10.4735 12.7207 10.1538 12.7207C10.026 12.7846 9.70635 12.7846 9.38672 12.7846ZM10.9849 18.2823V13.7435C11.1127 13.7435 11.1766 13.7435 11.3684 13.6796C11.5602 13.6796 11.752 13.6796 11.9437 13.6796C12.1355 13.6796 12.2634 13.6796 12.3912 13.6796C13.2223 13.6796 13.8615 13.8075 14.3729 14.0632C14.8843 14.3189 15.2039 14.8942 15.2039 15.6613C15.2039 16.4924 14.8843 17.1956 14.2451 17.6431C13.6697 18.0906 12.7109 18.2823 11.6241 18.2823C11.4963 18.2823 11.4323 18.2823 11.3045 18.2823C11.1766 18.3463 11.1127 18.2823 10.9849 18.2823ZM21.4047 12.8486C21.5326 13.1682 21.7244 13.6796 22.044 14.3828C22.3636 15.086 22.6832 15.9171 23.0668 16.876C23.4504 17.8349 23.8978 18.7938 24.3453 19.8166C24.7928 20.8394 25.1763 21.7344 25.5599 22.5015C25.9434 23.3326 26.2631 23.9718 26.5188 24.4833C26.3909 24.4833 26.1992 24.4833 26.0713 24.4833C25.9434 24.4833 25.7517 24.4833 25.6238 24.4833C25.496 24.4833 25.3681 24.4833 25.1763 24.4833C24.9846 24.4833 24.8567 24.4833 24.6649 24.4833C24.5371 24.0997 24.3453 23.6522 24.0896 23.0769C23.8978 22.5015 23.6421 21.9901 23.4504 21.4148C23.2586 20.8394 23.0668 20.4559 22.875 20.1362C22.4915 20.0723 22.044 20.0084 21.6604 20.0084C21.2769 20.0084 20.9573 19.9444 20.6376 20.0084C20.318 20.0084 19.9984 20.0084 19.6148 20.0723C19.2952 20.0723 18.9116 20.1362 18.592 20.2002C18.4002 20.5837 18.2085 21.0312 18.0167 21.6065C17.761 22.1819 17.5692 22.7572 17.3774 23.2686C17.1856 23.844 17.0578 24.2276 16.9299 24.5472C16.8021 24.5472 16.7382 24.5472 16.6103 24.5472C16.4825 24.5472 16.4185 24.5472 16.2907 24.5472C16.1628 24.5472 16.035 24.5472 15.9711 24.5472C15.9071 24.5472 15.7154 24.5472 15.6514 24.5472C15.9071 24.0997 16.2268 23.5244 16.6103 22.6294C16.9939 21.7344 17.4413 20.9034 17.8888 19.8805C18.3363 18.8577 18.7838 17.8988 19.1673 16.9399C19.5509 15.981 19.9984 15.1499 20.2541 14.3828C20.5737 13.6796 20.7655 13.1682 20.8933 12.9125H21.4047V12.8486ZM19.1673 18.9855C19.3591 19.0495 19.6148 19.0495 19.9344 19.0495C20.2541 19.0495 20.5098 19.1134 20.7655 19.1134C20.9573 19.1134 21.213 19.1134 21.5326 19.0495C21.8522 19.0495 22.1079 18.9855 22.3636 18.9216C22.2358 18.602 22.1079 18.3463 22.044 18.0266C21.9161 17.707 21.7244 17.3234 21.5326 16.876C21.3408 16.4285 21.0851 15.8531 20.7655 15.1499L19.1673 18.9855ZM27.3498 12.7846C27.4137 13.1043 27.4137 13.6157 27.4777 14.191C27.4777 14.7664 27.5416 15.4696 27.5416 16.1728C27.5416 16.876 27.5416 17.5792 27.5416 18.1545C27.5416 19.1773 27.5416 20.2641 27.4777 21.3508C27.4777 22.4376 27.4137 23.4604 27.3498 24.3554C27.4777 24.3554 27.6055 24.2915 27.7973 24.2915C27.9251 24.2915 28.1169 24.2915 28.2448 24.2915C28.5005 24.2915 28.8201 24.2915 29.0758 24.3554C29.0119 23.9718 28.948 23.5244 28.948 23.0769C28.948 22.6294 28.884 22.1819 28.884 21.7983V19.0495C29.0119 19.0495 29.2037 19.1134 29.4594 19.1134C29.6511 19.1134 29.8429 19.1134 29.9068 19.1134C30.8018 19.1134 31.6328 18.9855 32.336 18.7938C33.0392 18.602 33.6145 18.2184 34.062 17.707C34.5095 17.1956 34.7013 16.4924 34.7013 15.6613C34.7013 14.6385 34.3816 13.9353 33.7424 13.4239C33.1031 12.9125 32.0164 12.7207 30.61 12.7207C30.4182 12.7207 30.0986 12.7207 29.779 12.7207C29.4594 12.7207 29.2037 12.7207 28.884 12.7207C28.6923 12.7207 28.4365 12.7207 28.1169 12.7207C27.9251 12.7846 27.6055 12.7846 27.3498 12.7846ZM28.948 18.2823V13.7435C29.0758 13.7435 29.1397 13.7435 29.3315 13.6796C29.5233 13.6796 29.7151 13.6796 29.9068 13.6796C30.0986 13.6796 30.2265 13.6796 30.3543 13.6796C31.1853 13.6796 31.8246 13.8075 32.336 14.0632C32.8474 14.3189 33.167 14.8942 33.167 15.6613C33.167 16.4924 32.8474 17.1956 32.2082 17.6431C31.6328 18.0906 30.6739 18.2823 29.5872 18.2823C29.4594 18.2823 29.3954 18.2823 29.2676 18.2823C29.1397 18.3463 29.0119 18.2823 28.948 18.2823ZM42.8198 12.7846C42.8837 13.1043 42.8837 13.6157 42.9477 14.191C42.9477 14.7664 43.0116 15.4696 43.0116 16.1728C43.0116 16.876 43.0116 17.4513 43.0116 17.9627C42.8837 18.2823 42.692 18.5381 42.3084 18.7298C41.9888 18.8577 41.6692 19.0495 41.2856 19.0495C40.902 19.0495 40.5185 19.1773 40.1989 19.1773C39.176 19.1773 38.4729 18.8577 38.0254 18.2823C37.5779 17.707 37.3861 16.812 37.4501 15.7253C37.4501 15.5335 37.4501 15.2139 37.4501 14.8303C37.4501 14.4467 37.4501 14.0632 37.514 13.6796C37.514 13.296 37.5779 13.0403 37.5779 12.8486C37.4501 12.8486 37.2583 12.8486 37.1304 12.9125C37.0026 12.9125 36.8747 12.9125 36.8108 12.9125C36.683 12.9125 36.5551 12.9125 36.3633 12.9125C36.2355 12.9125 36.0437 12.9125 35.8519 12.8486C35.9158 13.1682 35.9158 13.4878 35.9158 13.8714C35.9158 14.2549 35.9798 14.7024 35.9798 15.1499C35.9798 15.5335 35.9798 15.9171 35.9798 16.2367C35.9798 17.3234 36.2994 18.2823 37.0026 18.9855C37.6418 19.6887 38.7286 20.0723 40.1349 20.0723C40.6463 20.0723 41.1577 19.9444 41.6691 19.8166C42.1166 19.6887 42.628 19.433 43.1394 19.1773C43.1394 19.5609 43.1394 20.0084 43.1394 20.6476C43.1394 21.2869 43.1394 21.9262 43.0755 22.5655C43.0755 23.2047 43.0116 23.844 42.9477 24.4833C43.0755 24.4833 43.2673 24.4833 43.3951 24.4193C43.5869 24.4193 43.7148 24.4193 43.7787 24.4193C43.8426 24.4193 43.9705 24.4193 44.0983 24.4193C44.2262 24.4193 44.418 24.4193 44.5458 24.4833C44.4819 23.5883 44.4179 22.5655 44.4179 21.4787C44.4179 20.3919 44.354 19.3052 44.354 18.2823C44.354 17.707 44.354 17.0038 44.354 16.3006C44.354 15.5974 44.354 14.8942 44.4179 14.3189C44.4179 13.7435 44.4819 13.2321 44.5458 12.9125C44.418 12.9125 44.2262 12.9125 44.0983 12.9764C43.9705 12.9764 43.8426 12.9764 43.7787 12.9764C43.6508 12.9764 43.523 12.9764 43.3312 12.9764C43.1394 12.7846 43.0116 12.7846 42.8198 12.7846Z" fill="#2A72B8"/>
</svg>
