<svg width="94" height="90" viewBox="0 0 94 90" fill="none" xmlns="http://www.w3.org/2000/svg">
<path d="M49.76 88C74.0605 88 93.76 68.3005 93.76 44C93.76 19.6995 74.0605 0 49.76 0C25.4595 0 5.76001 19.6995 5.76001 44C5.76001 68.3005 25.4595 88 49.76 88Z" fill="#D2DF3F"/>
<path d="M50.34 45.12L49.92 45.55L50.06 45.41L50.34 45.13L41.38 36.22C38.85 33.71 34.82 33.55 32.37 35.99C29.92 38.43 30.07 42.45 32.6 44.97L34.54 46.9C34.54 46.9 34.59 46.96 34.62 46.98C34.62 46.98 34.68 47.04 34.71 47.06L39.47 51.79C39.47 51.79 39.52 51.85 39.55 51.88C39.55 51.88 39.6 51.93 39.63 51.95L41.56 53.87C44.09 56.38 48.12 56.54 50.57 54.1C53.02 51.66 52.87 47.64 50.34 45.12ZM43.67 51.76L44.09 51.33L43.34 50.59L47.04 46.89L47.81 47.65C48.94 48.77 48.95 50.48 47.95 51.47C46.95 52.46 45.23 52.45 44.1 51.33L43.68 51.76H43.67ZM38.43 45.71L42.15 42.03L44.5 44.36L40.8 48.06L38.43 45.7V45.71ZM35.89 43.19L35.13 42.44C34 41.32 33.99 39.61 34.99 38.62C35.99 37.63 37.71 37.64 38.84 38.76L39.61 39.52L35.89 43.2V43.19Z" fill="black"/>
<path d="M84.9 80.68L74.41 70.25L63.61 59.5C63.97 58.02 63.59 56.37 62.44 55.22L61.79 54.57L61.85 54.51C63.37 53 63.37 50.55 61.85 49.04L17.49 4.92999C15.97 3.41999 13.52 3.41999 12 4.92999L11.85 5.07998C8.87 3.26998 4.92 3.60999 2.35 6.16999C-0.21 8.71999 -0.56 12.65 1.26 15.61L1.14 15.73C-0.38 17.24 -0.38 19.69 1.14 21.2L45.49 65.32C47.01 66.83 49.46 66.83 50.98 65.32L50.64 64.98L50.56 64.89L50.98 65.32L51.02 65.28L51.67 65.93C52.84 67.1 54.53 67.46 56.04 67.07L66.6 77.58C66.65 77.65 66.7 77.72 66.77 77.79C66.84 77.86 66.91 77.91 66.99 77.96L70.53 81.48C70.58 81.55 70.63 81.63 70.7 81.69C70.77 81.75 70.84 81.8 70.91 81.86L74.01 84.95C74.06 85.02 74.11 85.1 74.18 85.16C74.25 85.22 74.32 85.27 74.39 85.33L77.31 88.24C78.4 89.33 80.19 89.33 81.28 88.24L84.89 84.65C85.98 83.56 85.98 81.78 84.89 80.69L84.9 80.68ZM79.3 85.15L78.01 83.87L80.52 81.37L81.81 82.65L79.3 85.15ZM75.47 81.34L74.53 80.4L77.04 77.9L77.98 78.84L75.47 81.34ZM59.03 64.99L61.54 62.49L70.6 71.5L68.08 73.99L59.03 64.99ZM55.39 63.52C55.02 63.74 54.5 63.69 54.21 63.4L53.57 62.76L59.26 57.1L59.91 57.74C60.2 58.03 60.25 58.54 60.03 58.9L55.39 63.51V63.52ZM73.14 74.02L74.5 75.38L71.99 77.88L70.62 76.51L73.14 74.02ZM3.67 18.26L14.54 7.45999C14.66 7.33999 14.84 7.33999 14.96 7.45999L59.31 51.58C59.42 51.69 59.42 51.88 59.31 51.99L48.44 62.8C48.32 62.92 48.14 62.92 48.02 62.8L3.67 18.67C3.56 18.56 3.56 18.37 3.67 18.26ZM4.61 8.40999L4.89 8.68999C6.04 7.54999 7.73 7.22999 9.18 7.71999L3.92 12.95C3.42 11.5 3.74 9.81999 4.89 8.67999L4.47 8.24999L4.61 8.38998V8.40999Z" fill="black"/>
</svg>
