<svg width="80" height="42" viewBox="0 0 80 42" fill="none" xmlns="http://www.w3.org/2000/svg">
<path d="M77.6953 19.8668C77.7635 19.6663 77.829 19.3548 77.829 19.1068C77.829 17.9904 77.0689 17.4537 76.131 17.4537C75.0588 17.4537 74.0761 17.9015 73.7412 19.8668H77.6953ZM73.6068 21.4751C73.6068 24.1563 74.5674 25.4738 76.1758 25.4738C77.5389 25.4738 78.4327 24.804 78.8565 23.5974C78.924 23.4424 79.0129 23.2405 79.2135 23.2405C79.4602 23.2405 79.5718 23.4183 79.5718 23.5754C79.5718 23.6877 79.5277 23.8876 79.4829 23.9999C78.7462 25.7198 77.204 26.2339 75.9084 26.2339C73.9651 26.2339 71.8206 24.4691 71.8206 21.4751C71.8206 18.6382 73.8074 16.7391 75.9292 16.7391C78.299 16.7391 79.7068 18.5045 79.4829 20.6489H73.6295C73.6068 20.8949 73.6068 21.1857 73.6068 21.4751ZM69.0042 16.7391C70.0324 16.7391 70.6574 17.3206 70.6574 18.0352C70.6574 18.683 70.255 19.1963 69.6527 19.1963C69.0938 19.1963 68.6479 18.7511 68.6479 18.1916C68.6479 17.8567 68.7589 17.6776 68.9153 17.5212C67.9333 17.2304 66.502 18.3481 66.502 21.3194V25.1616C67.5743 25.1616 67.7087 25.1403 67.9333 25.1403C68.0897 25.1403 68.2675 25.2953 68.2675 25.5407C68.2675 25.7873 68.0897 25.921 67.9333 25.921C67.7087 25.921 67.5743 25.8087 65.742 25.8087H65.6544C63.8214 25.8087 63.7104 25.921 63.4865 25.921C63.3066 25.921 63.1509 25.7873 63.1509 25.5407C63.1509 25.2953 63.3066 25.1403 63.4865 25.1403C63.7104 25.1403 63.8214 25.1616 64.917 25.1616V17.7892C63.8214 17.7892 63.7104 17.8567 63.4865 17.8567C63.3066 17.8567 63.1509 17.7003 63.1509 17.4537C63.1509 17.2077 63.3066 17.0753 63.4865 17.0753C63.7104 17.0753 63.8214 17.0967 64.917 17.0967C65.2734 17.0967 65.9445 17.0071 66.1671 17.0071C66.3236 17.0071 66.502 17.1642 66.502 17.4089V18.5265C66.9493 17.3206 67.9333 16.7391 69.0042 16.7391ZM57.3697 16.7391C59.3585 16.7391 60.14 18.1469 60.14 20.0453V25.1616C61.2336 25.1616 61.3693 25.1403 61.5926 25.1403C61.749 25.1403 61.9269 25.2953 61.9269 25.5407C61.9269 25.7873 61.749 25.921 61.5926 25.921C61.3693 25.921 61.2336 25.8087 59.4026 25.8087H59.3137C57.4814 25.8087 57.347 25.921 57.1244 25.921C56.9666 25.921 56.7888 25.7873 56.7888 25.5407C56.7888 25.2953 56.9666 25.1403 57.1244 25.1403C57.347 25.1403 57.4814 25.1616 58.5764 25.1616V19.2859C58.5764 18.0793 58.2187 17.5887 57.2347 17.5887C55.7165 17.5887 54.1309 19.554 54.1309 21.81V25.1616C55.2245 25.1616 55.3375 25.1403 55.5595 25.1403C55.7386 25.1403 55.895 25.2953 55.895 25.5407C55.895 25.7873 55.7386 25.921 55.5595 25.921C55.3375 25.921 55.2245 25.8087 53.3935 25.8087H53.3046C51.4716 25.8087 51.3379 25.921 51.114 25.921C50.9582 25.921 50.7804 25.7873 50.7804 25.5407C50.7804 25.2953 50.9582 25.1403 51.114 25.1403C51.3379 25.1403 51.4716 25.1616 52.5445 25.1616V12.2043C51.4716 12.2043 51.3379 12.2711 51.114 12.2711C50.9582 12.2711 50.7804 12.1147 50.7804 11.8694C50.7804 11.6234 50.9582 11.4904 51.114 11.4904C51.3379 11.4904 51.4716 11.5118 52.5445 11.5118C52.9022 11.5118 53.5934 11.4229 53.796 11.4229C53.9738 11.4229 54.1309 11.5793 54.1309 11.8246V19.2639C54.5768 18.0793 55.895 16.7391 57.3697 16.7391ZM46.0441 26.2559C43.8768 26.2559 42.5352 24.8267 42.5352 23.8434C42.5352 23.195 42.9155 22.8381 43.5185 22.8381C43.9223 22.8381 44.3 23.2846 44.3 23.5974C44.3 24.1115 43.9651 24.3348 43.6977 24.4243C44.078 25.1169 45.1944 25.5186 46.1109 25.5186C47.2273 25.5186 48.345 24.915 48.345 23.8207C48.345 22.9718 47.3169 22.5928 46.4679 22.3688L45.53 22.1014C43.2952 21.4978 42.8487 20.582 42.8487 19.465C42.8487 17.4537 44.7031 16.717 46.0441 16.717C47.585 16.717 49.0142 17.5212 49.0142 18.5493C49.0142 19.197 48.6579 19.5981 48.0997 19.5981C47.6739 19.5981 47.2948 19.197 47.2948 18.7946C47.2948 18.4142 47.5636 18.1689 47.7862 18.0793C47.5636 17.7444 46.9365 17.4095 46.1109 17.4095C44.8588 17.4095 43.9885 18.0132 43.9885 19.0406C43.9885 19.7331 44.681 20.1128 45.4859 20.336L46.5796 20.6489C48.4553 21.1409 49.5503 21.8782 49.5503 23.4183C49.5503 25.2064 47.9874 26.2559 46.0441 26.2559Z" fill="#143D8D"/>
<path d="M37.4303 17.4561C36.358 17.4561 35.3753 17.9032 35.0391 19.8692H38.9945C39.0621 19.6686 39.1282 19.3565 39.1282 19.1091C39.1282 17.9928 38.3682 17.4561 37.4303 17.4561Z" fill="#78A22F"/>
<path d="M37.1634 25.9722C35.2194 25.9722 33.0749 24.2082 33.0749 21.2135C33.0749 18.3765 35.0637 16.4775 37.1855 16.4775C39.5533 16.4775 40.9611 18.2435 40.7378 20.3873H34.8852C34.8618 20.6339 34.8618 20.9247 34.8618 21.2135C34.8618 23.8947 35.8231 25.2129 37.4315 25.2129C38.7946 25.2129 39.6863 24.5424 40.1128 23.3358C40.1797 23.1807 40.2686 22.9789 40.4698 22.9789C40.7151 22.9789 40.8274 23.1567 40.8274 23.3144C40.8274 23.4261 40.7826 23.6259 40.7379 23.7389C39.9999 25.4588 38.4596 25.9722 37.1634 25.9722ZM20.8174 0C9.32329 0 0.0078125 9.31562 0.0078125 20.8077C0.0078125 26.0003 1.91436 30.7457 5.0603 34.3908C3.04946 31.8065 1.84885 28.5605 1.84885 25.0317C1.84885 16.6038 8.68087 9.77284 17.1086 9.77284C25.5363 9.77284 32.3683 16.6038 32.3683 25.0317C32.3683 33.4589 25.5363 40.2906 17.1086 40.2906C14.2815 40.2906 11.6363 39.5198 9.36674 38.1796C12.6517 40.3494 16.5851 41.6148 20.8174 41.6148C32.3081 41.6148 41.6263 32.2992 41.6263 20.8077C41.6263 9.31562 32.3081 0 20.8174 0Z" fill="#78A22F"/>
<path d="M6.16535 35.5292C5.7208 34.9289 5.37118 34.2545 5.15057 33.5212C4.66658 32.4349 4.39183 31.2337 4.39183 29.9663C4.39183 25.1307 8.31322 21.2095 13.1498 21.2095C17.9857 21.2095 21.9071 25.1307 21.9071 29.9663C21.9071 34.8019 17.9857 38.7231 13.1498 38.7231C11.7921 38.7231 10.5126 38.4056 9.36677 37.8548C9.00712 37.8033 8.66017 37.7104 8.33461 37.5747C10.1369 38.7218 12.2727 39.3895 14.5663 39.3895C20.9845 39.3895 26.1854 34.1876 26.1854 27.7718C26.1854 21.3559 20.9845 16.1533 14.5663 16.1533C8.15078 16.1533 2.94922 21.3559 2.94922 27.7718C2.94922 30.8908 4.17992 33.7197 6.18072 35.8073C6.29838 35.9243 6.42071 36.0366 6.54104 36.1509C6.39865 35.955 6.27298 35.7478 6.16535 35.5292Z" fill="#143D8D"/>
<path d="M5.72867 33.6509C5.72867 31.3039 7.63254 29.4009 9.97829 29.4009C12.3254 29.4009 14.2293 31.3039 14.2293 33.6509C14.2293 35.9979 12.3254 37.9009 9.97829 37.9009C9.78243 37.9009 9.5919 37.8829 9.40205 37.8575C10.0391 38.0641 10.7176 38.1791 11.4236 38.1791C15.0401 38.1791 17.9708 35.2472 17.9708 31.6302C17.9708 28.0152 15.0401 25.084 11.4236 25.084C7.80702 25.084 4.875 28.0152 4.875 31.6302C4.875 32.2886 4.97527 32.921 5.1551 33.5192C5.36902 33.9999 5.62037 34.4591 5.91384 34.8896C5.79351 34.4979 5.72867 34.0821 5.72867 33.6509Z" fill="#143D8D"/>
<path d="M7.48475 37.0924C7.29356 36.9359 7.10638 36.7742 6.92188 36.6084C7.09502 36.7862 7.28286 36.9473 7.48475 37.0924Z" fill="white"/>
<path d="M64.1828 35.5063V35.7109H63.1166V36.4415H63.8747V36.6474H63.1166V37.4803H64.2437V37.6855H62.8746V35.5063H64.1828ZM60.9847 37.6855V35.5063H61.2254V37.4803H62.2589V37.6855H60.9847ZM59.1457 36.5083H59.5569C59.958 36.5083 60.091 36.3686 60.091 36.1099C60.091 35.8506 59.9372 35.7109 59.6103 35.7109H59.1457V36.5083ZM58.9044 37.6855V35.5063H59.6645C60.1298 35.5063 60.3323 35.7717 60.3323 36.116C60.3323 36.4776 60.0816 36.7129 59.5321 36.7129H59.1457V37.6855H58.9044ZM57.3829 37.5104C57.7659 37.5104 57.9919 37.2149 57.9919 36.5959C57.9919 35.9769 57.7659 35.6808 57.3829 35.6808C56.9992 35.6808 56.7726 35.9769 56.7726 36.5959C56.7726 37.2149 56.9992 37.5104 57.3829 37.5104ZM57.3829 35.4756C57.917 35.4756 58.2339 35.868 58.2339 36.5959C58.2339 37.3225 57.917 37.7163 57.3829 37.7163C56.8488 37.7163 56.5312 37.3225 56.5312 36.5959C56.5312 35.868 56.8488 35.4756 57.3829 35.4756ZM55.9543 35.5063V35.7109H54.8881V36.4415H55.6462V36.6474H54.8881V37.4803H56.0145V37.6855H54.6474V35.5063H55.9543ZM52.8071 36.5083H53.2189C53.6206 36.5083 53.753 36.3686 53.753 36.1099C53.753 35.8506 53.5992 35.7109 53.2723 35.7109H52.8071V36.5083ZM52.5664 37.6855V35.5063H53.3272C53.7924 35.5063 53.995 35.7717 53.995 36.116C53.995 36.4776 53.7443 36.7129 53.1948 36.7129H52.8071V37.6855H52.5664Z" fill="#78A22F"/>
<path d="M79.5376 39.7828V39.9887H78.472V40.7193H79.2294V40.9246H78.472V41.7581H79.5991V41.9627H78.2313V39.7828H79.5376ZM77.5749 41.3123C77.4786 41.716 77.2553 41.9934 76.8081 41.9934C76.3188 41.9934 75.9752 41.6378 75.9752 40.8744C75.9752 40.1645 76.2833 39.7534 76.8081 39.7534C77.2125 39.7534 77.4479 39.9894 77.5441 40.3878L77.3215 40.454C77.2433 40.1465 77.1043 39.9586 76.778 39.9586C76.4632 39.9586 76.2172 40.2488 76.2172 40.8744C76.2172 41.5048 76.4632 41.7882 76.8262 41.7882C77.1617 41.7882 77.2914 41.5349 77.3576 41.2695L77.5749 41.3123ZM73.7832 41.9633V39.7835H74.1301L75.0814 41.462H75.0928V39.7835H75.31V41.9633H75.1115L74.0058 40.0195H74.0005V41.9633H73.7832ZM73.0345 39.7828V39.9887H71.9682V40.7193H72.7263V40.9246H71.9682V41.7581H73.0953V41.9627H71.7269V39.7828H73.0345ZM70.5637 41.9633H70.8057V39.7835H70.5637V41.9633ZM69.8544 41.3123C69.7588 41.716 69.5349 41.9934 69.0877 41.9934C68.5983 41.9934 68.2547 41.6378 68.2547 40.8744C68.2547 40.1645 68.5622 39.7534 69.0877 39.7534C69.4914 39.7534 69.7281 39.9894 69.8243 40.3878L69.6011 40.454C69.5222 40.1465 69.3838 39.9586 69.0576 39.9586C68.7434 39.9586 68.496 40.2488 68.496 40.8744C68.496 41.5048 68.7434 41.7882 69.1057 41.7882C69.4406 41.7882 69.571 41.5349 69.6372 41.2695L69.8544 41.3123ZM67.4238 40.339C67.3696 40.1278 67.1972 39.9586 66.9164 39.9586C66.663 39.9586 66.512 40.0796 66.5086 40.2969C66.5026 40.7742 67.7353 40.6532 67.7353 41.3537C67.7353 41.6706 67.5568 41.9934 67.0013 41.9934C66.524 41.9934 66.3361 41.6859 66.2218 41.4266L66.4424 41.3477C66.5307 41.577 66.6931 41.7882 67.014 41.7882C67.3335 41.7882 67.494 41.6191 67.494 41.3958C67.494 40.841 66.2673 41.0034 66.2673 40.3149C66.2673 40.0008 66.5307 39.7528 66.9224 39.7528C67.2607 39.7528 67.5261 39.9312 67.6417 40.2909L67.4238 40.339ZM64.4864 40.9159V41.9633H64.2865V41.7648H64.2812C64.1689 41.9186 63.9516 41.9934 63.7103 41.9934C63.2149 41.9934 62.8586 41.6371 62.8586 40.8744C62.8586 40.1104 63.2149 39.7528 63.7103 39.7528C64.0786 39.7528 64.3621 39.9286 64.4951 40.3938L64.2658 40.4386C64.1568 40.0917 63.9757 39.9587 63.7217 39.9587C63.4021 39.9587 63.1 40.1759 63.1 40.8745C63.1 41.571 63.4021 41.7882 63.7217 41.7882C64.0786 41.7882 64.2444 41.571 64.2444 41.3056V41.1218H63.7524V40.9159L64.4864 40.9159ZM60.6479 41.9634V39.7835H60.9955L61.9461 41.462H61.9589V39.7835H62.1761V41.9634H61.9769L60.8719 40.0195H60.8658V41.9634H60.6479ZM59.4847 41.9634H59.7267V39.7835H59.4847V41.9634ZM57.2693 39.7829H57.5107L58.0475 41.571H58.0542L58.5943 39.7829H58.8396L58.1625 41.9627H57.9418L57.2693 39.7829ZM55.9952 41.7882C56.3789 41.7882 56.6049 41.4935 56.6049 40.8745C56.6049 40.2555 56.3789 39.9587 55.9952 39.9587C55.6121 39.9587 55.3862 40.2555 55.3862 40.8745C55.3862 41.4935 55.6121 41.7882 55.9952 41.7882ZM55.9952 39.7528C56.53 39.7528 56.8475 40.1465 56.8475 40.8745C56.8475 41.6011 56.53 41.9935 55.9952 41.9935C55.4611 41.9935 55.1435 41.6011 55.1435 40.8745C55.1435 40.1465 55.4611 39.7528 55.9952 39.7528ZM54.2344 41.9634V39.9714H54.2257L53.616 41.9634H53.4289L52.8159 39.9714H52.8058V41.9634H52.5885V39.7835H52.9642L53.5191 41.5463H53.5251L54.072 39.7835H54.4523V41.9634H54.2344ZM79.5082 32.3617V33.4091H79.309V33.2093H79.3023C79.1906 33.3643 78.974 33.4399 78.732 33.4399C78.2367 33.4399 77.8804 33.0829 77.8804 32.3189C77.8804 31.5555 78.2367 31.1992 78.732 31.1992C79.1004 31.1992 79.3845 31.3744 79.5169 31.8396L79.2876 31.8837C79.1786 31.5375 78.9974 31.4044 78.7434 31.4044C78.4239 31.4044 78.1217 31.6217 78.1217 32.3189C78.1217 33.0167 78.4239 33.2333 78.7434 33.2333C79.1004 33.2333 79.2662 33.0167 79.2662 32.7507V32.5675H78.7742V32.3617H79.5082ZM75.6703 33.4091V31.2293H76.0173L76.9685 32.9078H76.9799V31.2293H77.1979V33.4091H76.9986L75.8936 31.4646H75.8869V33.4091H75.6703ZM74.5072 33.4091H74.7498V31.2293H74.5072V33.4091ZM72.2911 31.2293H72.5324L73.0706 33.0167H73.0765L73.616 31.2293H73.8614L73.1848 33.4091H72.9642L72.2911 31.2293ZM71.0169 33.2333C71.4007 33.2333 71.6273 32.9379 71.6273 32.3189C71.6273 31.7006 71.4007 31.4044 71.0169 31.4044C70.6332 31.4044 70.4079 31.7006 70.4079 32.3189C70.4079 32.9379 70.6332 33.2333 71.0169 33.2333ZM71.0169 31.1992C71.5511 31.1992 71.8679 31.5909 71.8679 32.3189C71.8679 33.0468 71.5511 33.4392 71.0169 33.4392C70.4828 33.4392 70.1653 33.0468 70.1653 32.3189C70.1653 31.5909 70.4828 31.1992 71.0169 31.1992ZM69.2568 33.4091V31.4158H69.2474L68.6378 33.4091H68.4512L67.8376 31.4158H67.8289V33.4091H67.6117V31.2293H67.986L68.5415 32.992H68.5469L69.0937 31.2293H69.4741V33.4091H69.2568ZM65.7298 31.2293V31.4352H64.6642V32.1645H65.4223V32.371H64.6642V33.2039H65.7913V33.4091H64.4222V31.2293H65.7298ZM63.7671 32.7567C63.6708 33.1618 63.4469 33.4399 63.0003 33.4399C62.511 33.4399 62.1674 33.0836 62.1674 32.3196C62.1674 31.6097 62.4749 31.1992 63.0003 31.1992C63.4055 31.1992 63.6408 31.4352 63.7377 31.8329L63.5137 31.8998C63.4349 31.5916 63.2958 31.4044 62.9703 31.4044C62.6561 31.4044 62.4081 31.6945 62.4081 32.3196C62.4081 32.9499 62.6561 33.234 63.0184 33.234C63.3533 33.234 63.4843 32.9806 63.5498 32.7146L63.7671 32.7567ZM59.9747 33.4092V31.2293H60.3224L61.273 32.9078H61.285V31.2293H61.5023V33.4092H61.303L60.1987 31.4646H60.1926V33.4092H59.9747ZM59.226 31.2293V31.4352H58.1598V32.1645H58.9178V32.371H58.1598V33.2039H59.2855V33.4092H57.9185V31.2293H59.226ZM56.7559 33.4092H56.9979V31.2293H56.7559V33.4092ZM56.0467 32.7567C55.9491 33.1618 55.7258 33.4399 55.2792 33.4399C54.7899 33.4399 54.4456 33.0836 54.4456 32.3196C54.4456 31.6097 54.7545 31.1992 55.2792 31.1992C55.6837 31.1992 55.9197 31.4352 56.0166 31.8329L55.7933 31.8998C55.7138 31.5916 55.5754 31.4045 55.2491 31.4045C54.935 31.4045 54.6883 31.6946 54.6883 32.3196C54.6883 32.9499 54.935 33.234 55.2973 33.234C55.6322 33.234 55.7626 32.9807 55.8287 32.7146L56.0467 32.7567ZM53.616 31.7848C53.5619 31.5736 53.3901 31.4045 53.11 31.4045C52.8546 31.4045 52.7029 31.5255 52.7015 31.7434C52.6948 32.22 53.9275 32.0983 53.9275 32.7995C53.9275 33.1164 53.749 33.4399 53.1935 33.4399C52.7169 33.4399 52.529 33.1318 52.4141 32.8717L52.6347 32.7935C52.7216 33.0235 52.8847 33.234 53.2049 33.234C53.5251 33.234 53.6855 33.0649 53.6855 32.8423C53.6855 32.2868 52.4595 32.4486 52.4595 31.7614C52.4595 31.4466 52.7216 31.1993 53.1146 31.1993C53.4529 31.1993 53.7183 31.3771 53.8333 31.7367L53.616 31.7848Z" fill="#143D8D"/>
</svg>
