<svg width="94" height="92" viewBox="0 0 94 92" fill="none" xmlns="http://www.w3.org/2000/svg">
<path d="M49.76 88C74.0605 88 93.76 68.3005 93.76 44C93.76 19.6995 74.0605 0 49.76 0C25.4595 0 5.76001 19.6995 5.76001 44C5.76001 68.3005 25.4595 88 49.76 88Z" fill="#D2DF3F"/>
<path d="M26.01 77.1699V77.1799L26.61 77.1599H26.01V77.1699Z" fill="black"/>
<path d="M28.02 55.6299L27.44 55.7899L28.02 55.6299Z" fill="black"/>
<path d="M45.87 46.9799V46.9599L45.86 46.9399C45.71 46.5299 45.46 45.9399 44.99 45.5199C44.99 45.5199 44.97 45.4999 44.96 45.4899C44.55 45.0899 44.06 44.7799 43.49 44.6399C43.49 44.6399 43.48 44.6399 43.47 44.6399C43.47 44.6399 43.45 44.6399 43.44 44.6399C42.59 44.3999 41.7 44.5399 40.9 45.0299C39.02 46.2099 37.51 47.5099 36.47 48.5099C35.95 49.0099 35.54 49.4399 35.27 49.7499C35.13 49.8999 35.03 50.0199 34.95 50.1099C34.91 50.1499 34.89 50.1899 34.87 50.2099C34.87 50.2199 34.85 50.2299 34.85 50.2399C34.85 50.2399 35.0033 50.3666 35.31 50.6199L34.85 50.2399C34.27 50.9999 34.45 51.9799 35.09 52.5399H35.1L35.11 52.5599C35.86 53.1399 36.84 52.9599 37.4 52.3199L38.5 51.0699C38.56 51.0099 38.61 50.9599 38.68 50.8999C39.59 50.0299 40.9 48.9099 42.56 47.8899C42.57 47.8899 42.58 47.9099 42.59 47.9199C42.59 47.9199 42.62 47.9599 42.64 47.9999C41.52 49.8099 40.41 52.0999 39.56 54.7499C38.7 57.4299 38.17 60.5299 38.17 63.8899L38.22 77.1399C38.22 77.1399 38.22 77.1499 38.22 77.1999C38.22 77.2399 38.22 77.2899 38.22 77.3599C38.22 77.4999 38.2 77.6899 38.17 77.9099C38.12 78.3599 38.03 78.9499 37.87 79.5399C37.71 80.1399 37.49 80.6999 37.2 81.1299C36.91 81.5599 36.58 81.8099 36.19 81.8899C35.34 82.0599 34.77 82.8999 34.93 83.7899C35.1 84.6499 35.94 85.2199 36.83 85.0599C37.82 84.8499 38.59 84.3499 39.2 83.7099C39.44 83.9999 39.59 84.3299 39.62 84.6899C39.66 85.0499 39.55 85.4799 39.31 85.8399L39.28 85.8699L39.25 85.9199C38.65 86.8199 37.84 87.6599 36.98 88.0699H36.97C36.5 88.3099 35.89 88.3499 35.26 88.0999C34.84 87.8999 34.39 87.8499 33.99 87.8499C33.59 87.8499 33.14 87.9099 32.72 88.0999C32.1 88.3499 31.54 88.3099 31 88.0599C30.14 87.6499 29.32 86.8099 28.67 85.8999L28.64 85.8599L28.61 85.8299C28.37 85.4599 28.27 85.0899 28.3 84.7399C28.33 84.4699 28.43 84.2099 28.58 83.9699C29.15 84.4899 29.86 84.8899 30.73 85.0599C31.64 85.2299 32.47 84.6399 32.63 83.7399C32.79 82.8399 32.21 82.0099 31.32 81.8399C30.97 81.7699 30.66 81.5499 30.39 81.1899C30.36 80.7999 30.21 80.4199 29.9 80.1199H29.89L29.87 80.0899C29.85 80.0699 29.82 80.0599 29.8 80.0399C29.73 79.8399 29.65 79.6399 29.6 79.4199C29.44 78.8199 29.35 78.2299 29.3 77.7799C29.27 77.5599 29.26 77.3799 29.25 77.2499C29.25 77.1899 29.25 77.1399 29.25 77.1099C29.25 77.0899 29.25 77.0799 29.25 77.0699L29.2 63.8299C29.2 60.8299 28.72 58.1099 28.03 55.6599L27.45 55.8199L28.03 55.6499C27.12 52.5499 25.79 49.9299 24.56 47.9199C24.56 47.9199 24.59 47.8999 24.61 47.8899H24.65L24.68 47.9099C26.34 48.9299 27.67 50.0399 28.58 50.8999C29.04 51.3299 29.39 51.6899 29.62 51.9499C29.74 52.0799 29.83 52.1799 29.89 52.2399C29.92 52.2699 29.94 52.2999 29.96 52.3199C29.96 52.3199 29.97 52.3299 29.98 52.3399C30.55 53.0599 31.6 53.1499 32.27 52.5899C32.27 52.5899 32.27 52.5899 32.28 52.5899C32.28 52.5899 32.28 52.5899 32.29 52.5899C32.39 52.5099 32.48 52.4099 32.55 52.3199L32.65 52.4399V52.1699C33.01 51.5799 32.97 50.8099 32.5 50.2799L31.45 49.0799V49.2599C31.27 49.0799 31.08 48.8899 30.85 48.6799C29.79 47.6799 28.27 46.3999 26.39 45.2499H26.37L26.35 45.2199L26.25 45.1699C25.48 44.7599 24.69 44.6899 23.96 44.8399H23.81L23.94 45.4399L23.81 44.8499C23.21 44.9799 22.69 45.3099 22.31 45.6899C21.89 46.1099 21.56 46.6199 21.42 47.2299C21.23 47.9899 21.3 48.9399 21.81 49.7699C22.94 51.6199 24.07 53.9299 24.89 56.6999C25.55 58.8999 25.96 61.2999 25.96 63.9599L26.01 77.2099H26.61C26.21 77.2232 26.01 77.2299 26.01 77.2299C26.01 77.2299 26.01 77.2299 26.01 77.2499C26.01 77.2599 26.01 77.2799 26.01 77.3099C26.01 77.3599 26.01 77.4399 26.02 77.5299C26.03 77.7199 26.06 77.9899 26.1 78.3099C26.19 78.9499 26.34 79.8299 26.64 80.7299C26.67 80.8399 26.72 80.9499 26.76 81.0499L26.43 81.3899C25.55 82.2699 25.08 83.3899 25.01 84.5199C25.01 84.5199 25.01 84.5299 25.01 84.5399C25.01 84.5399 25.01 84.5499 25.01 84.5599C24.9 85.6899 25.2 86.8799 25.91 87.8299L25.94 87.8599L25.97 87.8899L25.99 87.9099C26.8 89.0799 28.01 90.4099 29.53 91.0899C29.53 91.0899 29.53 91.0899 29.54 91.0899C29.54 91.0899 29.54 91.0899 29.55 91.0899C30.85 91.7299 32.33 91.8399 33.89 91.1999H33.91C33.91 91.1999 33.91 91.1999 33.93 91.1999C33.93 91.1999 33.94 91.1999 33.95 91.1999H33.97C35.56 91.8499 37.04 91.6699 38.32 91.0899H38.33C39.8 90.3599 40.95 89.0899 41.81 87.9199L41.84 87.8899L41.88 87.8499L41.91 87.8099C42.61 86.8099 42.91 85.6299 42.8 84.4999C42.8 84.4999 42.8 84.4899 42.8 84.4799C42.8 84.4799 42.8 84.4699 42.8 84.4599C42.73 83.2599 42.19 82.1999 41.39 81.3399V81.3299L40.86 80.7999C40.86 80.7999 40.89 80.7199 40.9 80.6799C41.19 79.7699 41.34 78.8999 41.42 78.2499C41.46 77.9299 41.48 77.6599 41.5 77.4699C41.5 77.3799 41.51 77.2999 41.51 77.2499C41.51 77.2199 41.51 77.1999 41.51 77.1899C41.51 77.1899 41.51 77.1799 41.51 77.1699C41.51 77.1699 41.51 77.1699 40.91 77.1499H41.51L41.46 63.8399C41.46 60.8199 41.97 58.1099 42.74 55.6999C43.51 53.2899 44.53 51.2399 45.51 49.5899C46.01 48.7799 46.15 47.8699 45.88 47.0099L45.87 46.9799ZM35.15 83.7099L35.52 83.6399L35.16 83.7099H35.15Z" fill="black"/>
<path d="M42.57 47.89L43 47.47L42.57 47.89Z" fill="black"/>
<path d="M3.20999 28.15L3.72 27.83L3.20999 28.15Z" fill="black"/>
<path d="M14.15 85.2199L13.99 84.6499L14.15 85.2199Z" fill="black"/>
<path d="M62.31 62.0499V62.0099L62.28 61.9699C62.2 61.8099 62.17 61.6799 62.1 61.4699C61.57 59.6799 60.99 57.9999 60.37 56.2699C58.84 51.9999 57.39 47.7999 57.99 43.8399C59.18 36.2699 62 31.6399 64.19 28.0999C66.46 24.4899 68.25 21.6499 66.7 17.9199C65.97 16.1799 64.83 14.9699 63.49 14.2699C62.17 13.5799 60.75 13.3599 59.31 13.4199C56.89 13.5299 54.62 14.3599 52.79 15.7899C51.06 17.1199 49.73 18.9299 48.88 20.9699C46.78 19.5299 44.59 18.3699 42.31 17.5799C39.43 16.5699 36.48 16.0299 33.59 15.9799H33.53H33.52C30.63 16.0299 27.68 16.5699 24.84 17.6399C22.65 18.4399 20.54 19.5399 18.52 20.9099C17.67 18.8699 16.34 17.1499 14.63 15.8399C12.81 14.4599 10.55 13.5799 8.12 13.4699C6.69 13.4099 5.27001 13.6299 3.95001 14.3199C2.55001 15.0199 1.46999 16.1799 0.739991 17.9799L1.29999 18.2099L0.750001 17.9799C-0.739999 21.7099 1.04001 24.5499 3.26001 28.1499L3.76999 27.8399L3.26001 28.1599C5.45001 31.6999 8.27999 36.3299 9.45999 43.9099C10.11 47.8199 8.60999 52.0599 7.07999 56.3399C6.45999 58.0499 5.82001 59.7999 5.35001 61.5399L5.14002 62.1599C4.46002 64.1899 2.53001 70.0099 3.23001 75.3899C3.23001 75.3899 3.23001 75.3999 3.23001 75.4099C3.25001 75.5999 3.30001 75.7699 3.38001 75.9199C3.46001 76.5799 3.57999 77.2399 3.76999 77.8999C4.48999 80.4299 5.97001 82.5299 7.76001 83.8699C9.66001 85.2699 11.94 85.8599 14.2 85.2199L14.04 84.6399L14.21 85.2199C16.41 84.5799 18.05 82.8599 18.94 80.6799C19.7 78.8099 19.85 76.5199 19.36 74.2399H19.46L19.22 73.4699C18.45 70.9499 16.97 68.8499 15.18 67.5099C13.28 66.1099 11 65.5199 8.73999 66.1599C8.18999 66.3199 7.67999 66.5399 7.20999 66.8299C7.59999 65.2499 8.02 63.9399 8.28 63.1499L8.48999 62.4599L7.92001 62.2799L8.5 62.4499C8.97 60.8499 9.54 59.1799 10.16 57.4599L9.60999 57.2599L10.17 57.4599C11.78 52.9799 13.47 48.2299 12.71 43.3899C11.43 35.0999 8.34 30.1399 6.09 26.4199C5.11 24.8299 4.32002 23.5499 3.89002 22.3699C3.47002 21.2199 3.39999 20.2099 3.82999 19.1599C4.24999 18.1199 4.84999 17.5099 5.48999 17.1599C6.20999 16.7999 7.10001 16.6499 8.01001 16.6999C9.76001 16.7499 11.36 17.3799 12.69 18.4099C14.06 19.4399 15.14 20.9099 15.73 22.5799L16.17 23.8099C15.59 26.5399 14.5 36.0099 23.97 39.9499C24.27 40.8299 24.92 42.1999 26.28 43.3999C27.8 44.7299 30.14 45.7899 33.73 45.7699C33.89 45.7699 34.04 45.7399 34.18 45.6999C37.5 45.5999 39.71 44.5799 41.14 43.2999C42.5 42.0999 43.13 40.7299 43.43 39.8499C52.36 36.0399 51.79 27.3799 51.18 24.1499C51.22 24.0799 51.27 23.9999 51.3 23.9199L51.34 23.8099V23.6899L51.77 22.4399C52.41 20.7599 53.45 19.3299 54.81 18.3099C56.12 17.2799 57.78 16.6899 59.5 16.5999C60.41 16.5499 61.3 16.6999 62.02 17.0599C62.66 17.3999 63.25 18.0199 63.68 19.0599C64.11 20.1199 64.04 21.1199 63.62 22.2699C63.19 23.4499 62.4 24.7299 61.42 26.3199C59.16 30.0499 56.07 35.0599 54.8 43.2999C54.04 48.1399 55.73 52.8899 57.34 57.3699C57.97 59.0999 58.58 60.7399 58.99 62.3199C58.99 62.3299 58.99 62.3499 58.99 62.3599C58.99 62.3899 59.01 62.4199 59.01 62.4399C59.02 62.4899 59.04 62.5399 59.06 62.5999C59.1 62.7199 59.15 62.8599 59.2 63.0299V63.0499L59.21 63.0699C59.49 63.8799 59.96 65.2599 60.36 66.9199C59.86 66.6199 59.32 66.3799 58.74 66.2199C56.49 65.5799 54.21 66.1699 52.31 67.5699C50.47 68.9099 48.99 71.0099 48.27 73.5299C47.5 76.0599 47.66 78.6099 48.5 80.7199L48.55 80.8399L48.61 80.8999C49.47 83.0199 51.09 84.6999 53.3 85.3199C55.55 85.9599 57.84 85.3699 59.74 83.9699C61.52 82.6299 63.01 80.5299 63.73 77.9999L63.75 77.9199V77.8499C63.94 77.1499 64.07 76.4499 64.14 75.7599C64.2 75.6199 64.25 75.4599 64.27 75.2899C64.27 75.2899 64.27 75.2799 64.27 75.2699C64.96 69.8899 63.03 64.1199 62.36 62.0399L62.31 62.0499ZM60.4 71.8799C60.97 73.3199 61.08 75.1199 60.54 76.9899L60.52 77.0699V77.0999C59.97 78.8999 58.95 80.3799 57.73 81.2799C56.53 82.1399 55.26 82.4299 54.11 82.1299C52.96 81.7699 52.04 80.8299 51.52 79.4999C50.95 78.0599 50.84 76.2599 51.38 74.3899C51.92 72.5099 52.96 71.0099 54.19 70.0999C55.39 69.2399 56.66 68.9499 57.81 69.2499C58.96 69.6099 59.88 70.5499 60.4 71.8799ZM25.81 37.1699C17.74 34.2799 18.82 26.7299 19.31 24.3599C21.44 22.7699 23.66 21.5699 25.98 20.6999C28.48 19.7799 31.08 19.2699 33.57 19.2199C36.07 19.2699 38.67 19.7299 41.17 20.6499C43.47 21.4699 45.72 22.6599 47.85 24.2299C48.36 26.6999 49.41 34.1199 41.47 37.0599C40.86 37.2599 40.49 37.8299 40.41 38.3599C40.39 38.4599 40.22 39.4499 39.31 40.4199C38.42 41.3799 36.75 42.3799 33.62 42.4099C33.5 42.4099 33.39 42.4299 33.27 42.4499C30.29 42.3899 28.7 41.3799 27.88 40.4399C27.44 39.9399 27.19 39.4399 27.05 39.0599C26.98 38.8699 26.94 38.7199 26.91 38.6199C26.9 38.5699 26.89 38.5299 26.89 38.5099C26.89 38.4999 26.89 38.4899 26.89 38.4899C26.8 37.8799 26.38 37.4099 25.85 37.1799H25.83L25.81 37.1699ZM9.57001 81.2399C8.33001 80.3299 7.30001 78.8799 6.76001 76.9999C6.22001 75.1299 6.32002 73.3299 6.89002 71.8999C7.47002 70.5599 8.40001 69.6199 9.54001 69.2599C10.74 68.9499 12.02 69.2599 13.15 70.1099C14.39 71.0199 15.42 72.5199 15.96 74.3999C16.4 75.8999 16.41 77.3599 16.1 78.6099L15.77 79.4499C15.24 80.7999 14.31 81.7699 13.19 82.0699C12.04 82.3799 10.71 82.0699 9.57001 81.2299V81.2399Z" fill="black"/>
</svg>
