<svg width="95" height="88" viewBox="0 0 95 88" fill="none" xmlns="http://www.w3.org/2000/svg">
<path d="M44.76 88C69.0605 88 88.76 68.3005 88.76 44C88.76 19.6995 69.0605 0 44.76 0C20.4595 0 0.76001 19.6995 0.76001 44C0.76001 68.3005 20.4595 88 44.76 88Z" fill="#D2DF3F"/>
<path fill-rule="evenodd" clip-rule="evenodd" d="M51.26 61.68C58 61.68 63.47 56.22 63.47 49.47C63.47 47.39 62.93 45.45 62.03 43.73L52.5699 26.18C52.3099 25.7 51.81 25.4 51.27 25.4C50.73 25.4 50.23 25.7 49.97 26.18L40.51 43.71C39.6 45.41 39.0601 47.39 39.0601 49.47C39.0601 56.21 44.52 61.68 51.27 61.68H51.26ZM43.11 45.12L51.26 30L59.41 45.11C60.11 46.45 60.51 47.92 60.51 49.47C60.51 54.58 56.37 58.72 51.26 58.72C46.15 58.72 42.01 54.58 42.01 49.47C42.01 47.91 42.42 46.4 43.11 45.11V45.12ZM42.65 45.42C42.65 45.42 42.71 45.42 42.74 45.4C42.73 45.4 42.72 45.4 42.71 45.4C42.7 45.4 42.67 45.4 42.66 45.4L42.65 45.42ZM42.78 45.39C42.78 45.39 42.82 45.38 42.83 45.37C42.82 45.37 42.81 45.37 42.8 45.38C42.8 45.38 42.79 45.38 42.78 45.38V45.39ZM42.86 45.36C42.86 45.36 42.87 45.36 42.88 45.36H42.86ZM42.9399 45.31C42.9399 45.31 42.97 45.28 42.98 45.28C42.98 45.28 42.9599 45.3 42.9399 45.31ZM43.1801 44.85C43.1801 44.85 43.1801 44.78 43.1801 44.74C43.1801 44.78 43.1801 44.81 43.1801 44.84C43.1801 44.84 43.1801 44.85 43.1801 44.86V44.85ZM43.14 45.03C43.14 45.03 43.14 45.03 43.14 45.01V45.03ZM43.14 45C43.14 45 43.14 44.97 43.14 44.96V44.98C43.14 44.98 43.14 44.99 43.14 45ZM43.16 44.92C43.16 44.92 43.16 44.9 43.16 44.88V44.9C43.16 44.9 43.16 44.9 43.16 44.91V44.92ZM43.12 44.62C43.12 44.62 43.11 44.59 43.1 44.58C43.1 44.58 43.11 44.59 43.11 44.6C43.11 44.6 43.11 44.61 43.11 44.62H43.12ZM43.01 44.45C43.01 44.45 42.97 44.41 42.95 44.38C42.96 44.38 42.98 44.4 42.98 44.41C42.99 44.42 43 44.44 43.01 44.45ZM42.88 44.33C42.88 44.33 42.9 44.35 42.92 44.36C42.9 44.34 42.87 44.33 42.85 44.32C42.85 44.32 42.88 44.32 42.88 44.33ZM43.1 45.11C43.1 45.12 43.09 45.13 43.09 45.13C43.09 45.13 43.09 45.13 43.09 45.15L42.59 44.82L43.13 45.09L43.1 45.11Z" fill="black"/>
<path fill-rule="evenodd" clip-rule="evenodd" d="M51.26 56.8801C52.08 56.8801 52.74 56.2201 52.74 55.4001C52.74 54.5801 52.08 53.9201 51.26 53.9201C48.8 53.9201 46.77 51.9201 46.77 49.4301C46.77 48.6101 46.11 47.9501 45.29 47.9501C44.47 47.9501 43.8101 48.6101 43.8101 49.4301C43.8101 53.5601 47.17 56.8701 51.25 56.8701L51.26 56.8801Z" fill="black"/>
<path fill-rule="evenodd" clip-rule="evenodd" d="M93.22 78.47L82.67 67.92C81.91 67.16 80.87 66.76 79.84 66.76C78.98 66.76 78.13 67.05 77.42 67.59L73.5601 63.73C78.4001 58.39 81.35 51.3 81.35 43.51C81.35 26.87 67.89 13.41 51.25 13.41C34.61 13.41 21.15 26.87 21.15 43.51C21.15 60.15 34.61 73.61 51.25 73.61C59.04 73.61 66.13 70.66 71.47 65.82L75.33 69.68C74.17 71.24 74.28 73.47 75.7 74.89L86.25 85.44C87.81 87 90.35 87 91.9 85.44L93.21 84.13C93.97 83.37 94.37 82.33 94.37 81.3C94.37 80.27 93.97 79.24 93.21 78.47H93.22ZM91.13 82.03L89.8199 83.34C89.4199 83.74 88.75 83.74 88.35 83.34L77.8 72.79C77.4 72.39 77.4 71.72 77.8 71.32L78.34 70.78C78.34 70.78 78.42 70.74 78.45 70.71C78.45 70.71 78.5 70.63 78.52 70.6L79.1 70.02C79.28 69.84 79.55 69.73 79.84 69.73C80.13 69.73 80.4 69.84 80.58 70.02L91.13 80.57C91.31 80.75 91.42 81.02 91.42 81.31C91.42 81.6 91.31 81.87 91.13 82.05V82.03ZM51.25 16.35C66.26 16.35 78.4 28.49 78.4 43.5C78.4 58.51 66.26 70.65 51.25 70.65C36.24 70.65 24.1 58.51 24.1 43.5C24.1 28.49 36.24 16.35 51.25 16.35Z" fill="black"/>
</svg>
